<svg xmlns="http://www.w3.org/2000/svg" width="28.076" height="28.076" viewBox="0 0 28.076 28.076">
  <g id="_2959748_instagram_photo_share_icon" data-name="2959748_instagram_photo_share_icon" transform="translate(-15 -15)">
    <path id="Path_4207" data-name="Path 4207" d="M34.481,17.292a6.3,6.3,0,0,1,6.3,6.3V34.481a6.3,6.3,0,0,1-6.3,6.3H23.595a6.3,6.3,0,0,1-6.3-6.3V23.595a6.3,6.3,0,0,1,6.3-6.3H34.481m0-2.292H23.595A8.621,8.621,0,0,0,15,23.595V34.481a8.621,8.621,0,0,0,8.595,8.595H34.481a8.621,8.621,0,0,0,8.595-8.595V23.595A8.621,8.621,0,0,0,34.481,15Z" fill="#ee4437"/>
    <path id="Path_4208" data-name="Path 4208" d="M86.052,32a1.642,1.642,0,1,0,1.642,1.642A1.642,1.642,0,0,0,86.052,32Z" transform="translate(-49.525 -12.13)" fill="#ee4437"/>
    <path id="Path_4209" data-name="Path 4209" d="M45.983,40.762a5.065,5.065,0,1,1-5.062,5.063,5.065,5.065,0,0,1,5.062-5.063m0-2.292a7.357,7.357,0,1,0,5.211,2.149,7.357,7.357,0,0,0-5.211-2.149Z" transform="translate(-16.867 -16.746)" fill="#ee4437"/>
  </g>
</svg>
