<svg xmlns="http://www.w3.org/2000/svg" width="31.257" height="23.453" viewBox="0 0 31.257 23.453">
  <path id="_2959740_bird_news_tweet_twitter_icon" data-name="2959740_bird_news_tweet_twitter_icon" d="M21.539,21.125a4.834,4.834,0,0,1,3.456,1.523,9.417,9.417,0,0,0,2.928-1.1,4.288,4.288,0,0,1-2,2.563h.015a6.686,6.686,0,0,0,2.637-.741s-.294.837-2.3,2.429h0c.121,3.767-1.743,10.732-8.641,13.21a13.914,13.914,0,0,1-4.728.847,13.255,13.255,0,0,1-7.283-2.14,10.055,10.055,0,0,0,1.037.037c4.078,0,6.053-2.093,5.945-2.093h-.151a4.5,4.5,0,0,1-4.3-3.308,1.6,1.6,0,0,0,.921.227,5.036,5.036,0,0,0,1.234-.18,4.71,4.71,0,0,1-3.755-4.666,3.32,3.32,0,0,0,1.778.558,1.728,1.728,0,0,0,.311-.025,4.62,4.62,0,0,1-1.417-6.184A13.307,13.307,0,0,0,16.863,26.9h.081a4.868,4.868,0,0,1,2.963-5.431,3.79,3.79,0,0,1,1.615-.346M26.293,25.8h0m3.9-7.8L27,20.242a5.908,5.908,0,0,1-1.565.654,6.458,6.458,0,0,0-3.908-1.368h0a5.355,5.355,0,0,0-2.3.494,6.488,6.488,0,0,0-3.918,5.105,12.159,12.159,0,0,1-6.861-4.1L7.047,19.4l-1.16,1.81a6.219,6.219,0,0,0-.839,4.113l-.091,2.353a6.478,6.478,0,0,0,1.4,4.118l.247.963a6.461,6.461,0,0,0,2.064,3.182,9.194,9.194,0,0,1-2.007.212c-.294,0-.6-.012-.9-.037L.1,35.642l4.58,3.365a14.864,14.864,0,0,0,8.233,2.447,15.553,15.553,0,0,0,5.278-.938,14.087,14.087,0,0,0,7.826-6.89,17.015,17.015,0,0,0,1.869-7.073A7.1,7.1,0,0,0,30.093,23.9l1.264-3.6-1.728.8Z" transform="translate(-0.1 -18)" fill="#ee4437"/>
</svg>
