<svg xmlns="http://www.w3.org/2000/svg" width="25.07" height="25.068" viewBox="0 0 25.07 25.068">
  <g id="_2959747_employment_business_linkedin_work_icon" data-name="2959747_employment_business_linkedin_work_icon" transform="translate(-14 -14)">
    <path id="Path_4205" data-name="Path 4205" d="M37.085,15.629a.353.353,0,0,1,.353.353v21.1a.353.353,0,0,1-.353.353h-21.1a.353.353,0,0,1-.353-.353v-21.1a.353.353,0,0,1,.353-.353h21.1m0-1.629h-21.1A1.983,1.983,0,0,0,14,15.983v21.1a1.983,1.983,0,0,0,1.983,1.98h21.1a1.983,1.983,0,0,0,1.983-1.983v-21.1A1.983,1.983,0,0,0,37.085,14Z" fill="#ee4437"/>
    <rect id="Rectangle_1028" data-name="Rectangle 1028" width="2.94" height="10.461" transform="translate(19.833 23.125)" fill="#ee4437"/>
    <path id="Path_4206" data-name="Path 4206" d="M60.573,50.4c-2.519,0-2.564,1.456-2.564,1.557V50.4H55V60.861h3.008V54.89a1.365,1.365,0,0,1,1.562-1.469,1.389,1.389,0,0,1,1.411,1.436v6.016h2.976V54.356C63.957,51.265,62.27,50.4,60.573,50.4Z" transform="translate(-30.722 -27.275)" fill="#ee4437"/>
    <circle id="Ellipse_145" data-name="Ellipse 145" cx="1.469" cy="1.469" r="1.469" transform="translate(19.833 19.482)" fill="#ee4437"/>
  </g>
</svg>
