<svg xmlns="http://www.w3.org/2000/svg" width="28.07" height="19.501" viewBox="0 0 28.07 19.501">
  <g id="_2959742_broadcast_google_streaming_video_youtube_icon" data-name="2959742_broadcast_google_streaming_video_youtube_icon" transform="translate(-9 -25.79)">
    <path id="Path_4203" data-name="Path 4203" d="M23.035,27.449c.059,0,5.849,0,9.671.276l.168.015a2.23,2.23,0,0,1,1.6.658h0a4.388,4.388,0,0,1,.646,1.8,39.809,39.809,0,0,1,.255,4.264v2.1a40.018,40.018,0,0,1-.255,4.267,4.3,4.3,0,0,1-.643,1.786h0a2.262,2.262,0,0,1-1.6.658l-.174.018c-3.756.255-9.414.281-9.669.281-.293,0-7.145-.069-9.332-.255-.13-.02-.255-.038-.4-.054a2.659,2.659,0,0,1-1.717-.641h0a4.341,4.341,0,0,1-.643-1.8,39.81,39.81,0,0,1-.255-4.264V34.484a40.01,40.01,0,0,1,.255-4.264,4.4,4.4,0,0,1,.646-1.8h0a2.261,2.261,0,0,1,1.6-.658l.168-.015c3.828-.273,9.613-.276,9.669-.276h.008m0-1.659h0s-5.892,0-9.82.281a4.024,4.024,0,0,0-2.807,1.171,5.98,5.98,0,0,0-1.115,2.753A41.4,41.4,0,0,0,9,34.484v2.1a41.388,41.388,0,0,0,.281,4.489A5.934,5.934,0,0,0,10.4,43.826a4.821,4.821,0,0,0,3.1,1.187c2.246.212,9.544.278,9.544.278s5.9,0,9.827-.288a4.026,4.026,0,0,0,2.807-1.174,5.964,5.964,0,0,0,1.115-2.751,41.406,41.406,0,0,0,.286-4.489v-2.1A41.409,41.409,0,0,0,36.79,30a5.95,5.95,0,0,0-1.115-2.753,4.024,4.024,0,0,0-2.807-1.171c-3.935-.283-9.832-.283-9.832-.283Z" fill="#ee4437"/>
    <path id="Path_4204" data-name="Path 4204" d="M54.13,47.61v8.365l7.143-4.182Z" transform="translate(-33.614 -16.252)" fill="#ee4437"/>
  </g>
</svg>
