<svg version="1.2" xmlns="http://www.w3.org/2000/svg" viewBox="0 0 681 409" width="681" height="409">
	<title>_1760960869760</title>
	<defs>
		<linearGradient id="g1" x1="249.4" y1="238.9" x2="266.3" y2="241.5" gradientUnits="userSpaceOnUse">
			<stop offset="0" stop-color="#f5f5f5"/>
			<stop offset="1" stop-color="#60a6eb"/>
		</linearGradient>
		<linearGradient id="g2" x1="241.6" y1="223.5" x2="247.1" y2="223.7" gradientUnits="userSpaceOnUse">
			<stop offset="0" stop-color="#f5f5f5"/>
			<stop offset="1" stop-color="#87dda7"/>
		</linearGradient>
	</defs>
	<style>
		.s0 { fill: #c0c0c0 } 
		.s1 { fill: #ffdbd9 } 
		.s2 { fill: #ee4437 } 
		.s3 { fill: #14142b } 
		.s4 { fill: #ffffff } 
		.s5 { fill: #273960 } 
		.s6 { fill: #f4f8fd } 
		.s7 { fill: #404049 } 
		.s8 { fill: #2b2f4c } 
		.s9 { fill: #333333 } 
		.s10 { fill: #e6def3 } 
		.s11 { fill: #fbfcfe } 
		.s12 { fill: #dc291b } 
		.s13 { fill: #404047 } 
		.s14 { fill: #000000 } 
		.s15 { fill: #ffa9aa } 
		.s16 { fill: #0d0e17 } 
		.s17 { fill: #fac9c6 } 
		.s18 { fill: #414141 } 
		.s19 { fill: none } 
		.s20 { fill: #d92518 } 
		.s21 { fill: url(#g1) } 
		.s22 { fill: #87dda7 } 
		.s23 { fill: url(#g2) } 
	</style>
	<g id="_1760960869760">
		<path id="Path 2001" class="s0" d="m69.4 385.3c-2.7 0-4.9-2.2-4.9-5 0-2.7 2.2-4.9 4.9-4.9 2.8 0 5 2.2 5 4.9 0 2.8-2.2 5-5 5z"/>
		<g id="Group 535">
			<path id="Path 2002" class="s1" d="m345 268.6l181.6-33.7 16.5-168.1-309.6-45.6-121.6 42.5 36.3 169.5-1 0.2-36.5-170.4q61.4-21.5 122.7-43l310.9 45.8c-5.6 56.7-11.2 113.3-16.8 170l-182.4 33.8z"/>
			<path id="Path 2003" class="s0" d="m451.3 141l-185.8-23.5-110.7 113.2-0.8-0.6 111.1-113.7 186.4 23.6z"/>
			<path id="Path 2004" class="s1" d="m258.5 119.6l-146-55.8 0.4-1 145.9 55.8z"/>
			<path id="Path 2005" class="s0" d="m275.2 110.4l96-59.6 75.3 82.3 98.1-66.1 0.6 0.9-98.9 66.6-75.2-82.4-95.3 59.2z"/>
			<path id="Path 2006" class="s0" d="m337.8 266.1l-182.7-31.2-84.9 64c-11.7-34.7-23.4-69.5-35.1-104.2l70-129.5 1 0.5-69.8 129.1 34.4 102.4 84.1-63.4 183.2 31.3c0 0-0.2 1-0.2 1z"/>
			<path id="Path 2007" class="s0" d="m345.1 264.7l-74.5-81.5 0.8-0.7 74.5 81.5z"/>
			<path id="Path 2008" class="s0" d="m522.9 230.6l-74.7-89.6-98.3 120.4-0.8-0.7 99.1-121.4 75.5 90.7z"/>
			<path id="Path 2009" class="s0" d="m370.1 43.3l35.1-43.3h1.4l-35.7 43.9z"/>
			<path id="Path 2010" class="s0" d="m543 63.6l46.3-63.6h1.3l-46.8 64.2z"/>
			<path id="Path 2011" class="s0" d="m654.5 161.3l-111.3-92 0.5-0.9 111.4 92z"/>
			<path id="Path 2012" class="s0" d="m655 162.2l-122.8 71.4-0.5-0.9 122.8-71.4z"/>
			<path id="Path 2013" class="s0" d="m583.2 363.4l-56.6-127.9 0.9-0.4 56.6 127.9z"/>
			<path id="Path 2014" class="s0" d="m346.4 279.2l30.9 83.5h206.4v1h-207.1l-31.2-84.1z"/>
			<path id="Path 2015" class="s1" d="m149 374.4l4.9-144h1l-4.9 144.1z"/>
			<path id="Path 2016" class="s1" d="m70.8 297.7l78.8 76.2 227.4-11.2v1l-227.7 11.3-79.2-76.6z"/>
			<path id="Path 2017" class="s0" d="m0.1 408.3l69.9-110.5 0.9 0.5-69.6 110z"/>
			<path id="Path 2018" class="s1" d="m98.1 51.5l-54.9-51.5h1.5l54.1 50.7z"/>
			<path id="Path 2019" class="s0" d="m584 362.8l40.3 45.5h-1.4l-39.6-44.8z"/>
			<path id="Path 2020" class="s0" d="m365 408.3l11.5-45.2 1 0.2-11.4 45z"/>
			<path id="Path 2021" class="s1" d="m160.4 408.3l-11.4-33.7 1-0.3 11.5 34z"/>
			<path id="Path 2022" class="s1" d="m35.6 195.2l-35.6-3.8v-1.1l35.8 3.9z"/>
			<path id="Path 2023" class="s0" d="m232.9 20.7l-1-20.7h1.1l1 20.6z"/>
			<path id="Path 2024" class="s1" d="m264.3 112.2l-31.4-91.4 1-0.3 31.4 91.4z"/>
			<path id="Path 2025" class="s0" d="m680.5 165.7l-22.4-2.4 0.2-1.1 22.2 2.4z"/>
		</g>
		<g id="Group 560">
			<g id="Group 539">
				<path id="Path 2026" class="s2" d="m151.8 255.4c-14.6 0-26.4-11.8-26.4-26.4 0-14.6 11.8-26.4 26.4-26.4 14.6 0 26.4 11.8 26.4 26.4 0 14.6-11.8 26.4-26.4 26.4z"/>
				<g id="Group 538">
					<g id="Group 536">
						<path id="Path 2027" class="s3" d="m133.1 247.8l0.7-4.5c0 0 0.5-1.2 3-2.5 2.5-1.3 12.7-5.9 12.7-5.9l10.4-1 10.4 3c0 0 3.1 1.4 3.8 4.2 0.1 0.3 0.2 0.8 0.4 1.4-4.6 7.7-13.1 12.9-22.7 12.9-7.3 0-13.9-2.9-18.7-7.6z"/>
						<path id="Path 2028" class="s4" d="m147.7 230.6l-0.1 7.3 3.9 0.5 6.1-1.8 0.1-11.7-1.7-4.3-7.3 1.6z"/>
						<path id="Path 2029" class="s1" d="m147.7 230.6l-0.1 2.7c1-0.1 2.6-0.3 4-0.8 2.3-0.8 6.1-6.1 6.1-6.1v-1.5l-1.7-4.3-7.3 1.6c0 0-1 8.4-1 8.4z"/>
						<path id="Path 2030" class="s2" d="m149 237.4l2.5 0.2 1.3 1.1-1.6 2 2.6 14.7c-0.7 0-1.3 0-2 0q-2.2 0-4.3-0.3c0.3-3.1 1.2-11.5 2.4-14.2l-1.9-2.5c0 0 1-1 1-1z"/>
						<path id="Path 2031" class="s4" d="m158.3 231.8l-7.6 5.7 4.7 5.2c0 0 0.6 0.1 1-0.7 0.3-0.7 3.5-8.1 3.5-8.1 0 0-1.6-2.1-1.6-2.1z"/>
						<path id="Path 2032" class="s4" d="m147.4 234.8l-3.1 2.4 0.4 5.9 5.1-6z"/>
					</g>
					<g id="Group 537">
						<path id="Path 2033" class="s4" d="m145.1 214.2c0 0-2.3 3.8-2.3 4.6 0 0.9 0.2 3 0.2 3 0 0-2.6 2.9-2.5 3.4 0.1 0.6 1.4 1.5 1.4 1.5l0.6 5.3c0 0 0.4 0.8 2.3 0.5 1.8-0.3 5.9-1.2 5.9-1.2 0 0 0.6-0.6 1-1.5 0.5-0.9 4.1-10.6 4.1-10.6l-1.2-5.1z"/>
						<path id="Path 2034" class="s1" d="m140.5 225.1v0.1c0.1 0.6 1.4 1.5 1.4 1.5l0.1 0.1 1.4-1.6z"/>
						<path id="Path 2035" class="s5" d="m143.5 228.3c-0.1 0-0.2-0.1-0.1-0.2 0 0 0.1-0.1 0.1-0.1 0 0.1 1.8 0.7 2.8-1.2q0-0.1 0.2-0.1c0 0 0 0.1 0 0.2-1.1 2.2-3 1.4-3 1.4z"/>
						<path id="Path 2036" class="s5" d="m144.6 219.7c0 0 0.2-0.7 0.7-0.5 0.5 0.2 0.8 0.2 0.8-0.2 0.1-0.3-0.5-0.6-1.1-0.4-0.6 0.2-0.7 0.9-0.4 1.1z"/>
						<path id="Path 2037" class="s3" d="m148.5 218.8c0 0 2.1 2.1 2.1 3.3-0.1 1.3-0.1 4.8-0.1 4.8l1 0.1c0 0 0.2-2.5 1.8-2.7 1.6-0.2 4.4 5.3 4.4 5.3 0 0 0.3-2.7 1.4-3.8 1.1-1.1 1.5-4.9 1.1-5.9-0.5-1-4.6-4.2-9.9-3.5l-1.9 1.9c0 0 0.1 0.5 0.1 0.5z"/>
						<path id="Path 2038" class="s3" d="m144 215.1l4.2 0.6c0 0 0.8-0.1 1 0.4 0.2 0.4 0.7 0.8 1.4 0.9 0.7 0.1 9.7 3.4 9.7 3.4 0 0 0.6-0.7-0.1-1.9l0.8 0.2c0 0-0.1-1.1-0.8-1.8h0.9c0 0-0.3-1.1-1-1.7l0.5-0.3c0 0-0.6-1.4-1.4-1.8l0.2-0.3c0 0-0.6-2.2-5.1-2.4-4.5-0.1-7.5-0.2-7.5-0.2 0 0-2.3 1.1-2.9 2.4-0.7 1.3-0.3 2.1 0.1 2.5z"/>
						<path id="Path 2039" class="s4" d="m151.8 227.8c0 0 4.7-0.6 4.9-3.4 0.3-2.7-2.6-3.6-3.5-2.3-1 1.2-1.1 4-1.1 4 0 0-0.3 1.7-0.3 1.7z"/>
						<path id="Path 2040" class="s5" d="m152.9 225.8c0 0.1-0.1 0.1-0.2 0.1 0 0 0-0.1 0-0.2 0 0 0.5-2.3 2-2.7 1.5-0.4 1.3 1.1 1.3 1.1 0 0-0.1 0-0.1 0q-0.1 0-0.1-0.1c0 0 0.1-1.1-1.1-0.8-1.3 0.4-1.8 2.6-1.8 2.6z"/>
						<path id="Path 2041" class="s5" d="m145 220.3c0.2 0 0.3 0.4 0.2 0.8 0 0.5 0 0.9-0.2 0.9-0.2 0-0.4-0.4-0.4-0.9 0-0.4 0.2-0.8 0.4-0.8z"/>
					</g>
				</g>
			</g>
			<g id="Group 543">
				<path id="Path 2042" class="s2" d="m369.3 82.4c-18.6 0-33.6-15-33.6-33.6 0-18.5 15-33.6 33.6-33.6 18.5 0 33.5 15.1 33.5 33.6 0 18.6-15 33.6-33.5 33.6z"/>
				<g id="Group 542">
					<g id="Group 540">
						<path id="Path 2043" class="s6" d="m352.2 60.6c0 0 7.8-5.3 12.8-7.1 4-1.4 10-3.4 12.4-3.8 0.6-0.1 1.1 0.6 1.1 0.6l7.8 7.6-1.6 20.7c-4.6 2.5-9.9 3.8-15.4 3.8-6.2 0-11.9-1.6-16.8-4.4 0 0-0.3-17.4-0.3-17.4z"/>
						<path id="Path 2044" class="s4" d="m362.6 45.2l1.2 11c0 0 1.9 1.5 4.5 1.4 2.6-0.1 5.8-2.1 5.8-2.1l1.6-5-1.1-10.6c0 0-12 5.3-12 5.3z"/>
						<path id="Path 2045" class="s1" d="m362.6 45.2l0.6 6.2c0.6 0.6 1.5 1.1 2.8 1.4 2.8 0.7 4.7-0.1 4.7-0.1l4.8-3.9-0.9-8.9c0 0-12 5.3-12 5.3z"/>
						<path id="Path 2046" class="s3" d="m343.2 70.1c1.4-4.4 2.8-8.2 3.6-9 1-0.9 2.1-1.7 3.3-2.4l3.1 4.7-1.7 13.9c-3.1-1.9-6-4.4-8.3-7.2z"/>
						<path id="Path 2047" class="s3" d="m364.7 55.3l5.9 0.2 1 0.8-2.7 4.3 2.9 21.7q-1.3 0.1-2.5 0.1c-1.5 0-2.8-0.1-4.2-0.2 0.4-6.9 1.2-18.7 2-21.2l-2.9-4c0 0 0.5-1.7 0.5-1.7z"/>
						<path id="Path 2048" class="s3" d="m361.1 54.1c0 0-2.5 13.2-2.8 18.4-0.1 2.4 0.8 5.7 1.7 8.6-3.5-1-6.8-2.5-9.7-4.6l-0.2-17.8c2.9-1.5 6.5-2.6 11-4.6z"/>
						<path id="Path 2049" class="s6" d="m366 55.1l-3.7 4.7c0 0-0.5-1.9-0.3-4.2 0.1-2.3 1.3-4 1.3-4 0 0 0.5 2.7 0.7 2.8 0.2 0.1 2 0.7 2 0.7z"/>
						<path id="Path 2050" class="s6" d="m369.3 55.3l3.4 3.3c0 0 1.6-0.4 2.3-1.9 0.7-1.5 2.4-7 2.4-7l-1.9-2c0 0-0.7 2.6-1.8 3.7-1.2 1.1-4.4 3.9-4.4 3.9z"/>
						<path id="Path 2051" class="s3" d="m388 68.7c0 0 0.8-11.2 2.9-11.8 0 0 5.5 1.8 8.3 6.6 0 0.1 0.1 0.2 0.1 0.3-2.7 5.3-6.6 9.8-11.6 13.1 0 0 0.3-8.2 0.3-8.2z"/>
						<path id="Path 2052" class="s3" d="m378.1 54l-3.5 28c5.6-0.9 10.7-3.1 15-6.4l1.3-18.7c0 0-4.6-2.6-10.8-3.7z"/>
						<path id="Path 2053" class="s7" d="m358.8 64c0 0-3.8 5-4.5 6.7-0.3 0.9 1.9 5.7 4 9.9q2 0.7 4.3 1.2c-1.3-4.5-3-10.3-2.8-12.2 0.3-3.2 0.2-5.6 0.2-5.6 0 0-1.2 0-1.2 0z"/>
						<path id="Path 2054" class="s7" d="m354.5 63.7l5.7 2 2.1-12.7c0 0-0.8 0.2-1.8 1.4-0.9 1.1-5.8 8.6-5.8 8.6 0 0-0.2 0.7-0.2 0.7z"/>
						<path id="Path 2055" class="s7" d="m374.3 82c0.3-7.2 0.8-19.1 1.5-21.7 1-3.7 2.7-10 2.7-10 0 0 5.6 4.7 6.4 6.1 0.8 1.4-0.4 3-0.4 3l-4.2 6.3c0 0 2.4 2.6 2 6.3-0.2 1.8-1.6 5.6-3.1 8.9-1.6 0.5-3.2 0.9-4.9 1.1z"/>
					</g>
					<g id="Group 541">
						<path id="Path 2056" class="s1" d="m361.9 43c0 0-2.6 1.4-3.7-1.8-1.1-3.3 1.7-5.2 3.2-2.8 0 0 0.5 4.6 0.5 4.6z"/>
						<path id="Path 2057" class="s1" d="m374.9 43.2c0 0 2.4 1.8 3.9-1.2 1.7-3-0.8-5.4-2.7-3.2 0 0-1.2 4.4-1.2 4.4z"/>
						<path id="Path 2058" class="s4" d="m359.4 34.6l1.2 11.5c0 0 0.1 1 0.8 1.6 0.6 0.6 2.8 2.5 2.8 2.5 0 0 4.7 1.1 7.7-0.4 2.9-1.5 3.6-4.2 3.6-4.2l2.3-13.2c0 0-4.5-6-11.3-5.4-6.8 0.5-7.1 7.6-7.1 7.6z"/>
						<path id="Path 2059" class="s5" d="m364.2 45.2c-0.1 0-0.2-0.1-0.2-0.2 0.1-0.1 0.2-0.2 0.2-0.2 0.1 0 2.2 0.3 4.5-0.5 0.1 0 0.2 0 0.3 0.1 0 0.1-0.1 0.2-0.1 0.3-2.4 0.7-4.7 0.5-4.7 0.5z"/>
						<path id="Path 2060" class="s5" d="m362.9 44.1c0 0 0.8-1.5 2.4-1.5 0 0-0.2 0.9-2.4 1.5z"/>
						<path id="Path 2061" class="s5" d="m370.5 43.6c0 0-1-1.3-2.6-1.1 0 0 0.3 0.9 2.6 1.1z"/>
						<path id="Path 2062" class="s5" d="m361.9 34.8c0 0 0.4-0.9 1.6-0.6 1.3 0.2 1.2-0.4 0.9-0.9-0.3-0.4-1.8-0.2-2.5 0.8z"/>
						<path id="Path 2063" class="s5" d="m372.6 34.8c0 0-0.4-0.9-1.7-0.6-1.2 0.2-1.1-0.3-0.8-0.8 0.3-0.4 1.8-0.3 2.5 0.6z"/>
						<path id="Path 2064" class="s8" d="m375.9 31c0 0-1.4-0.4-1.5 1.1-0.1 1.5 1.3 4.1 1.6 4.9 0.2 0.8 0.5 2.9 0.5 2.9 0 0 0.6-1.3 1.6-1.9 0 0 0.8-4 0.2-5.6-0.6-1.5-2.4-1.4-2.4-1.4z"/>
						<path id="Path 2065" class="s8" d="m359.5 36c0 0 1.9-3 1.9-5.2 0.1-2.2-0.5-2.2-0.5-2.2 0 0-3.3 1.6-1.4 7.4z"/>
						<path id="Path 2066" class="s9" d="m362.3 25.5c0 0-1.9 2.2-1.4 3.1l0.5 1c0 0 2.4-1.7 4-1.6 1.6 0 6.3 0.9 7.9 1.8 1.5 0.9 5.2 3.2 5.2 3.2 0 0-0.7-3.3-3.1-5.7-2.5-2.4-8.6-5.6-13.1-1.8z"/>
						<path id="Path 2067" class="s5" d="m370.7 35.5c0.3 0 0.2 0.5 0.2 1.1 0 0.6-0.1 1.1-0.5 1.1-0.2 0-0.4-0.6-0.4-1.2 0.1-0.6 0.4-1.1 0.7-1z"/>
						<path id="Path 2068" class="s5" d="m363.5 35.6c0.3 0.1 0.3 0.5 0.2 1.1-0.1 0.6-0.1 1.2-0.4 1.1-0.3 0-0.5-0.5-0.5-1.1 0.1-0.6 0.4-1.1 0.7-1.1z"/>
						<path id="Path 2069" class="s10" d="m364.8 40.9l2.8-0.2-1.2 1.4z"/>
						<path id="Path 2070" class="s5" d="m366 35.9c0 0 0.1-0.1 0.2-0.1 0.1 0 0.1 0.1 0.1 0.2l-1.3 4.9 1.5 1.1c0.1 0 0.2 0.1 0.1 0.2-0.1 0.1-0.2 0.1-0.3 0.1l-1.7-1.3z"/>
					</g>
				</g>
			</g>
			<g id="Group 547">
				<path id="Path 2071" class="s3" d="m109.5 90.5c-16.5 0-29.9-13.4-29.9-30 0-16.5 13.4-29.9 29.9-29.9 16.6 0 30 13.4 30 29.9 0 16.6-13.4 30-30 30z"/>
				<g id="Group 546">
					<g id="Group 544">
						<path id="Path 2072" class="s2" d="m103.3 70.6l-9.9 3.9c0 0-2.4 1.1-4 3.7-0.4 0.7-0.8 1.8-1.3 3.3 5.4 5.5 13.1 9 21.4 9 9.9 0 18.6-4.8 24.1-12.1-0.7-1.1-1.9-2.6-3.4-3.3-2.2-1.2-10.6-4.7-10.6-4.7 0 0-16.3 0.2-16.3 0.2z"/>
						<path id="Path 2073" class="s11" d="m105.2 59l1 15 6.3 3.3 3.8-1.5 1.9-3-0.3-15.1z"/>
						<path id="Path 2074" class="s1" d="m105.2 59l0.4 6.5c1.5 1.4 4.2 3.8 5.6 4.2 1.8 0.6 3 0.3 3 0.3l3.9-2.5-0.2-9.8c0 0-12.7 1.3-12.7 1.3z"/>
						<path id="Path 2075" class="s3" d="m109.3 77.3l3.1 2.9-1.8 10.3q3.4-0.2 6.5-1l-1.9-9.4 1.9-3.8-2.4-1.6h-3.2c0 0-2.2 2.6-2.2 2.6z"/>
						<path id="Path 2076" class="s12" d="m102 70.7l2.4-1.8c0 0 0.6-0.1 1.2 0.5 0.6 0.6 6.8 5.3 6.8 5.3l-3.1 5.4c0 0-6.6-4.8-7.3-9.4z"/>
						<path id="Path 2077" class="s12" d="m114 74.5l3.4 5.2c0.6-1.4 5.3-8 4.6-8.5l-2.8-2.4c0 0-0.5-0.1-0.8 0.2-0.3 0.4-4.4 5.5-4.4 5.5z"/>
					</g>
					<g id="Group 545">
						<path id="Path 2078" class="s11" d="m105 59.8c0 0-2.7 0.6-4.2-2.4-1.6-3 1.3-5.1 3-2.1l15.2-0.7c0 0 1.3-2 2.4-1 1.2 0.9 0.1 5.6-2.4 4.9 0 0-14 1.3-14 1.3z"/>
						<path id="Path 2079" class="s11" d="m103.3 53.7l1.6 9.6c0 0 0.4 1.4 2.8 2.9 2.4 1.5 4 1.9 4 1.9l2.6-0.4c0 0 2.4-2.3 3.4-4 0.9-1.6 1.6-3.6 1.6-3.6l0.8-11.7c0 0 0.2-6.3-7.2-6.8-7.5-0.5-10.7 6.5-10.4 8.4 0.2 2 0.8 3.7 0.8 3.7z"/>
						<path id="Path 2080" class="s5" d="m104.9 62.9v0.4c0 0 0.4 1.4 2.8 2.9 2.4 1.5 4 1.9 4 1.9l2.6-0.4c0 0 2.4-2.3 3.4-4 0.3-0.5 0.6-1.2 0.9-1.8-0.5 0.7-1.2 1.7-1.4 1.8-0.3 0.1-0.6-0.3-0.6-0.3l-0.6 0.4c0 0-0.6 1.5-1 2-1.7 1.7-4.6 1-6.5-0.2-0.5-0.4-0.3-1.2-0.3-1.2l-0.6-0.3c0 0-0.3 0.5-0.9 0.4-0.4 0-1.3-1-1.8-1.6z"/>
						<path id="Path 2081" class="s5" d="m108.9 62.1c0 0 0.7 1.2 2.4 1.2 1.6 0 2.3-0.1 2.8-0.4 0.5-0.3 1.1-1.1 1.1-1.1 0 0-6.3 0.3-6.3 0.3z"/>
						<path id="Path 2082" class="s5" d="m106 54c0 0 0.6-0.5 1.7-0.3 1 0.2 1.8 0.7 1.8 0.7 0 0-2.3 1.1-3.5-0.4z"/>
						<path id="Path 2083" class="s5" d="m105.8 52c0 0 1.4-0.7 2.5-0.1 0 0 0.2-0.5-0.3-0.8-0.5-0.2-2.2-0.1-2.2 0.9z"/>
						<path id="Path 2084" class="s5" d="m117.2 53.8c0 0-0.6-0.6-1.7-0.4-1.1 0.2-1.8 0.8-1.8 0.8 0 0 2.2 1 3.5-0.4z"/>
						<path id="Path 2085" class="s5" d="m117.4 51.7c0 0-1.5-0.6-2.6-0.1 0 0-0.1-0.5 0.4-0.7 0.5-0.3 2.2-0.2 2.2 0.8z"/>
						<path id="Path 2086" class="s13" d="m103.3 52.1c0 0.1 0 0.2 0 0.3q0 0.4-0.2 0.6 0.3 0.3 0.3 0.8c0 0.7-0.5 1.3-1.3 1.3-0.5 0-0.9-0.3-1.1-0.7h-0.1c-0.5 0-0.9-0.4-0.9-0.9q0-0.1 0.1-0.2h-0.2c-0.5 0-0.8-0.4-0.8-0.8q0-0.3 0.1-0.5c-0.4-0.1-0.7-0.4-0.7-0.9 0-0.2 0.1-0.4 0.2-0.5-0.4-0.1-0.7-0.4-0.7-0.9 0-0.3 0.1-0.5 0.4-0.7-0.3-0.1-0.5-0.4-0.5-0.7 0-0.3 0.2-0.6 0.5-0.7-0.2-0.2-0.3-0.4-0.3-0.7 0-0.4 0.2-0.7 0.6-0.9q-0.3-0.2-0.3-0.5c0-0.4 0.3-0.8 0.7-0.8q-0.2-0.3-0.2-0.6c0-0.5 0.4-0.8 0.8-0.8q-0.1-0.2-0.1-0.5c0-0.4 0.4-0.8 0.9-0.8q-0.2-0.2-0.2-0.5c0-0.5 0.4-0.8 0.9-0.8h0.1q-0.1-0.2-0.1-0.4c0-0.4 0.4-0.9 0.8-0.9 0.1 0 0.2 0.1 0.3 0.1q-0.1-0.1 0-0.3c0-0.5 0.3-0.9 0.8-0.9h0.1v-0.2c0-0.4 0.4-0.8 0.8-0.8q0.3 0 0.5 0.2v-0.1c0-0.5 0.4-0.9 0.8-0.9 0.2 0 0.3 0.1 0.5 0.1 0-0.3 0.4-0.6 0.8-0.6 0.3 0 0.5 0.2 0.7 0.4 0-0.4 0.4-0.7 0.8-0.7 0.3 0 0.6 0.1 0.8 0.4 0.1-0.4 0.4-0.6 0.7-0.6 0.4 0 0.7 0.2 0.8 0.5 0.1-0.3 0.4-0.6 0.9-0.6 0.2 0 0.4 0.1 0.6 0.3q0.2-0.3 0.7-0.3c0.3 0 0.7 0.2 0.8 0.5 0.1-0.2 0.4-0.4 0.7-0.4 0.4 0 0.7 0.2 0.8 0.6 0.1-0.3 0.4-0.5 0.7-0.5 0.5 0 0.9 0.4 0.9 0.9q0.1-0.1 0.4-0.1c0.5 0 0.8 0.4 0.8 0.8 0 0.1 0 0.3 0 0.3q0.2-0.2 0.6-0.2c0.4 0 0.8 0.4 0.8 0.8v0.2c0.4 0 0.8 0.4 0.8 0.9q0 0.1 0 0.3h0.1c0.4 0 0.8 0.3 0.8 0.8q0 0.2 0 0.3c0.4 0 0.7 0.4 0.7 0.8 0 0.1-0.1 0.3-0.1 0.3q0.1 0 0.2 0c0.5 0 0.9 0.4 0.9 0.8q0 0.3-0.1 0.5c0.4 0 0.8 0.4 0.8 0.8q0 0.3-0.2 0.5c0.3 0.2 0.5 0.4 0.5 0.8q0 0.2-0.1 0.4c0.2 0.1 0.4 0.5 0.4 0.8q0 0.3-0.2 0.6c0.3 0.1 0.6 0.4 0.6 0.7 0 0.3-0.2 0.6-0.4 0.8 0.1 0.1 0.3 0.3 0.3 0.6 0 0.3-0.2 0.6-0.5 0.7 0.2 0.2 0.3 0.4 0.3 0.6 0 0.4-0.1 0.6-0.4 0.8 0.1 0.1 0.2 0.3 0.2 0.5 0 0.4-0.3 0.8-0.7 0.9q0.1 0.2 0.2 0.5c0 0.5-0.4 0.9-0.9 0.9q-0.2 0-0.4-0.1v0.1c0 0.4-0.3 0.8-0.8 0.8-0.3 0-0.6-0.2-0.8-0.5-0.1 0.1-0.2 0.1-0.3 0.1-0.5 0-0.8-0.3-0.8-0.8 0-0.3 0.1-0.6 0.3-0.7-0.2-0.1-0.4-0.4-0.4-0.7q0-0.3 0.2-0.5c-0.3-0.2-0.5-0.5-0.5-0.8 0-0.2 0.2-0.4 0.3-0.6-0.3-0.2-0.5-0.4-0.5-0.8 0-0.1 0-0.2 0.1-0.3h-0.1c-0.5 0-0.8-0.4-0.8-0.8q0-0.3 0.1-0.5h-0.2c-0.5 0-0.9-0.3-0.9-0.8-0.1 0.1-0.2 0.1-0.3 0.1-0.4 0-0.8-0.3-0.8-0.8q-0.2 0.3-0.6 0.3c-0.4 0-0.7-0.3-0.8-0.6q-0.2 0.3-0.7 0.3c-0.3 0-0.6-0.2-0.8-0.5-0.1 0.3-0.4 0.4-0.6 0.4-0.4 0-0.6-0.1-0.8-0.4-0.1 0.3-0.4 0.4-0.7 0.4-0.3 0-0.5-0.1-0.7-0.3 0 0.4-0.4 0.6-0.8 0.6q-0.2 0.1-0.5-0.1c0 0.4-0.4 0.7-0.8 0.7-0.2 0-0.4-0.1-0.6-0.3v0.1c0 0.5-0.4 0.9-0.8 0.9-0.2 0-0.3 0-0.4-0.1 0 0.4-0.4 0.8-0.8 0.8h-0.1c0 0.1 0 0.2 0 0.2 0 0.4-0.3 0.7-0.6 0.8q0.2 0.3 0.2 0.5c0 0.5-0.3 0.9-0.8 0.9q0.1 0.1 0.1 0.3c0 0.5-0.4 0.8-0.8 0.9z"/>
						<path id="Path 2087" class="s10" d="m110.9 59.4l2.6-0.1c0 0-0.3 1.7-1.1 2-0.9 0.4-1.4-0.1-1.4-0.1 0 0-0.1-1.8-0.1-1.8z"/>
						<path id="Path 2088" class="s5" d="m110.4 54.7c0-0.1 0.1-0.1 0.2-0.1 0 0 0.1 0 0.1 0.1l0.4 5.7c0.3 0.1 1.3 0.2 2.4-0.8q0.1 0 0.2 0.1c0 0 0 0.1 0 0.2-1.5 1.3-2.8 0.8-2.8 0.8l-0.2-0.1c0 0-0.3-5.9-0.3-5.9z"/>
					</g>
				</g>
			</g>
			<g id="Group 551">
				<path id="Path 2089" class="s3" d="m346.5 292c-13 0-23.5-10.5-23.5-23.5 0-13.1 10.5-23.6 23.5-23.6 13 0 23.5 10.5 23.5 23.6 0 13-10.5 23.5-23.5 23.5z"/>
				<g id="Group 550">
					<g id="Group 548">
						<path id="Path 2090" class="s1" d="m335.6 278l5.1-3.7 11-1.6 4.3 2 2.2 14.2c-3.4 2-7.4 3.1-11.7 3.1-3.6 0-6.9-0.8-10-2.2 0 0-0.9-11.8-0.9-11.8z"/>
						<path id="Path 2091" class="s4" d="m341.3 268.5l0.6 6.9 2.8 0.7 1.2 3.3 1.5-3.7 3.1-3.1c0 0-0.4-3-0.3-5.1 0.1-2.2-1.2-3.2-1.2-3.2h-7.6c0 0-0.1 4.2-0.1 4.2z"/>
						<path id="Path 2092" class="s10" d="m341.3 268.5l0.3 4c0.7 0.4 1.7 0.8 3.2 0.9 1.5 0.1 3.8-1.1 5.6-2.2-0.2-1.1-0.3-2.5-0.2-3.7 0.1-2.2-1.2-3.2-1.2-3.2h-7.6c0 0-0.1 4.2-0.1 4.2z"/>
						<path id="Path 2093" class="s2" d="m335.6 278l-0.9-1.4c0 0-3.4 1.9-3.6 3.1-0.1 0.5-0.4 3-0.7 5.9 1.6 1.5 3.4 2.8 5.3 3.8 0 0-0.1-11.4-0.1-11.4z"/>
						<path id="Path 2094" class="s2" d="m341.1 272.8l3.9 2.8-0.3 0.5-3.3 4.4-1.5-6.6c0 0 0.8-0.4 1.2-1.1z"/>
						<path id="Path 2095" class="s2" d="m359.2 277.2l1.2-2.5c0 0 2.7 1.1 3.4 2.1 0.2 0.3 0.8 2.9 1.5 5.9-1.3 1.6-2.8 3.1-4.4 4.4 0 0-1.7-9.9-1.7-9.9z"/>
						<path id="Path 2096" class="s2" d="m346.4 275.4l4.4 4.1c0.9-2.2 0.6-4.2 1.3-6.9l-1.6-0.9z"/>
						<path id="Path 2097" class="s2" d="m339.9 273.9l0.6 0.5 0.6 16.9c-2.9-0.7-5.6-1.9-8-3.5l0.7-9.8c0 0 0-1.1 1.4-1.6 0 0 4.7-2.5 4.7-2.5z"/>
						<path id="Path 2098" class="s2" d="m352.1 272.6l2.4 18c3-1.1 5.8-2.8 8.1-5l-1.3-9.9c0 0-0.1-0.7-0.9-1-0.7-0.3-7.8-2.4-7.8-2.4 0 0-0.5 0.3-0.5 0.3z"/>
					</g>
					<g id="Group 549">
						<path id="Path 2099" class="s10" d="m350.2 265.2c0 0 1.6 1.5 2.8-0.8 1.2-2.4-1.4-3.8-2.3-1.6l-11.1 1c0 0-0.7-1.1-1.5-1.1-0.8 0-0.8 5.2 2.2 4.2z"/>
						<path id="Path 2100" class="s4" d="m338.7 259.6c0 0 0.6 6.5 1 8.2 0.5 1.7 1.5 3.5 1.5 3.5 0 0 1.2 0.6 2 0.7 0.8 0.1 2.1 0.2 2.1 0.2 0 0 0.4 0.2 2-0.6 1.5-0.8 3-2.4 3-2.4 0 0 0.9-5.7 0.9-6.8 0-1.2 0.2-5.2 0.2-5.2 0 0-1.5-3.7-4.7-4.2-3.2-0.4-6.9 1-7.8 4 0 0-0.2 2.6-0.2 2.6z"/>
						<path id="Path 2101" class="s5" d="m339 261q0-0.1 0.1-0.1c0.1 0 0.2 0 0.2 0.1 0 0 0.2 1.5 0.6 1.8 0.2 0.2 0.6 0.3 1.1 0.3 0.5 0 1 0 1.4-0.1 0.7-0.3 0.8-1.5 0.8-1.6v-0.7l-3.8 0.2c-0.1 0-0.2 0-0.2-0.1 0-0.1 0.1-0.1 0.2-0.1l4.1-0.3q0 0.5 0 1c0 0-0.2 1.5-1.1 1.8-0.4 0.1-0.9 0.2-1.4 0.2-0.5-0.1-1-0.2-1.2-0.3-0.5-0.4-0.8-2.1-0.8-2.1z"/>
						<path id="Path 2102" fill-rule="evenodd" class="s5" d="m345 260.7v-0.1l-1.7 0.1c0 0-0.1-0.1-0.1-0.2 0 0 0.1-0.1 0.1-0.1l6.2-0.3v1c0 0-0.1 1.4-1.1 1.8-0.4 0.1-0.9 0.1-1.4 0.1-0.5 0-1-0.1-1.3-0.3-0.4-0.4-0.7-2-0.7-2zm0.3-0.1c0 0 0.2 1.6 0.6 1.8 0.2 0.2 0.7 0.3 1.1 0.3 0.5 0.1 1 0 1.4-0.1 0.7-0.2 0.8-1.5 0.8-1.5l0.1-0.7z"/>
						<path id="Path 2103" class="s5" d="m351.9 261.8c0.1 0 0.1 0.1 0 0.1 0 0.1-0.1 0.1-0.1 0.1l-2.5-1.6c0-0.1-0.1-0.2 0-0.2 0 0 0.1-0.1 0.2 0z"/>
						<path id="Path 2104" class="s5" d="m340 259.6c0 0 1.3-0.5 2.5-0.3 0 0 0.2-0.4-0.2-0.6-0.4-0.1-2.2 0.1-2.3 0.9z"/>
						<path id="Path 2105" class="s5" d="m348.8 259.3c0 0-1.4-0.5-2.5-0.3 0 0-0.2-0.4 0.2-0.5 0.3-0.2 2.1 0 2.3 0.8z"/>
						<path id="Path 2106" class="s5" d="m341.6 267.4c-0.1 0.1-0.1 0.1-0.2 0.1-0.1-0.1-0.1-0.2-0.1-0.2 0.1 0 1.1-1.8 1.9-2.4 0.1 0 0.2 0 0.2 0.1 0.1 0.1 0 0.1 0 0.2-0.8 0.4-1.8 2.2-1.8 2.2z"/>
						<path id="Path 2107" class="s5" d="m342.9 268c0 0 2.1 0.3 4.2-0.7 0 0-0.5 1.7-2 1.8-1.6 0-2.2-1.1-2.2-1.1z"/>
						<path id="Path 2108" class="s8" d="m338.5 262.8l0.6 1c0 0-0.2-4.3 0-5.8 0.3-1.5 2.7-3.9 2.7-3.9 0 0 2.6 1.7 5.2-0.5 0 0 4.9 3.7 4 9.3l1-1.2c0 0 0.3-3.9-1.2-6.9-2.5-5-15.2-4.6-12.3 8z"/>
						<path id="Path 2109" class="s5" d="m347.5 260.8c0.2 0.1 0.2 0.4 0.2 0.8 0 0.4 0 0.8-0.2 0.8-0.2 0-0.4-0.4-0.4-0.8 0-0.4 0.2-0.8 0.4-0.8z"/>
						<path id="Path 2110" class="s5" d="m341.3 261.1c0.2 0 0.2 0.3 0.2 0.8 0 0.4 0 0.8-0.2 0.8-0.2 0-0.4-0.4-0.4-0.8 0-0.5 0.2-0.8 0.4-0.8z"/>
						<path id="Path 2111" class="s10" d="m343.6 266.3l2.7-1.2c0 0-1.2 2-1.7 2.3 0 0-1-1.1-1-1.1z"/>
						<path id="Path 2112" class="s5" d="m346.2 264.9c0.1-0.1 0.2 0 0.2 0q0.1 0.1 0 0.2c0 0-1.5 1.1-2.8 1.2h-0.1v-0.1c0 0-0.9-2.3-0.4-4.3 0-0.1 0.1-0.1 0.2-0.1 0 0 0.1 0.1 0.1 0.2-0.5 1.6 0.1 3.5 0.3 4 1.2-0.2 2.5-1.1 2.5-1.1z"/>
					</g>
				</g>
			</g>
			<g id="Group 555">
				<path id="Path 2113" class="s3" d="m543.4 88.4c-13.5 0-24.4-10.9-24.4-24.5 0-13.5 10.9-24.4 24.4-24.4 13.6 0 24.5 10.9 24.5 24.4 0 13.6-10.9 24.5-24.5 24.5z"/>
				<g id="Group 554">
					<path id="Path 2114" class="s14" d="m550.2 49.1c0 0 2.2 4.3 3.2 6.8 1.1 2.5-1.8 6.8-1.8 6.8 0 0 3.7 3 4.6 6.2 0.9 3.1-3.3 4.7-3.3 4.7l-8.2-2.7 0.9-17.4c0 0 4.6-4.4 4.6-4.4z"/>
					<g id="Group 552">
						<path id="Path 2115" class="s1" d="m535.8 76.4c0 0 3.7-6.2 5.6-7.8 1.8-1.6 10.4-1.8 10.4-1.8l4.4 18c-3.7 2.3-8.1 3.6-12.8 3.6-3.1 0-6.1-0.6-8.9-1.7 0 0 1.3-10.3 1.3-10.3z"/>
						<path id="Path 2116" class="s4" d="m543.4 68.9l-5.5 4 1 1.2c0 0-0.4 4.5 3.4 5.2 3.9 0.7 10.1-6.5 10.1-6.5l1.1-3.4-2.6-2z"/>
						<path id="Path 2117" class="s4" d="m541 62.8l1.3 10.2c0 0 0.6 2 3.7 1.6 3.2-0.4 5.4-2.9 5.4-2.9l-1.3-12c0 0-9.1 3.1-9.1 3.1z"/>
						<path id="Path 2118" class="s1" d="m541 62.8l0.7 5.1c0.8 0.5 1.8 0.8 3.1 0.7 2-0.1 4.2-2.1 5.9-4l-0.6-4.9c0 0-9.1 3.1-9.1 3.1z"/>
						<path id="Path 2119" class="s2" d="m551.8 66.8c0 0-4.4 10.9-5.4 15.2-0.5 2-0.8 4.4-1.1 6.3 8.8-0.6 16.2-5.9 20-13.4-0.9-1.6-1.8-2.5-1.8-2.5l-7.3-1.9c0 0-2.2-3.3-4.4-3.7z"/>
						<path id="Path 2120" class="s2" d="m541.4 68.6l-2.5 5.5c0 0-2.6 7.9-3.8 12.8-3.1-1.1-5.9-2.8-8.2-5 0.2-1 0.5-2 0.8-2.8 1.2-3.8 4.7-5.7 6.5-6.2 1.9-0.6 5.1-2.3 5.1-2.3 0 0 2.1-2 2.1-2z"/>
					</g>
					<g id="Group 553">
						<path id="Path 2121" class="s4" d="m536.2 55.6l1.9 6.6c0 0 0.7 1.2 1.7 2 0.9 0.8 2.7 2.6 5.4 2 0 0 3.3-1.2 4.2-3.1 0.8-1.9 1.3-5.2 1.3-5.2l-2.9-7.6-5.7-2.5-3.1 0.2-3 4.1c0 0 0.2 3.5 0.2 3.5z"/>
						<path id="Path 2122" class="s5" d="m541.8 63.3c-0.1 0-0.2-0.1-0.1-0.2 0-0.1 0.1-0.1 0.2-0.1 0 0 1.3 0.4 3.6-0.9 0.1 0 0.1 0 0.1 0 0.1 0.1 0.1 0.2 0 0.2-2.3 1.4-3.8 1-3.8 1z"/>
						<path id="Path 2123" class="s5" d="m538.2 57.6c0 0 0.4-0.7 1.2-0.8 0.7-0.2 1.4 0.6 1.4 0.6l-1 0.4c0 0-0.7 0.1-1.6-0.2z"/>
						<path id="Path 2124" class="s5" d="m537.3 55.9c0 0 0.6-0.7 1.5-0.6 0.9 0.1 0.9-0.3 0.9-0.3 0 0-2.2-0.9-2.4 0.9z"/>
						<path id="Path 2125" class="s5" d="m547.1 55.5c0 0-0.6-0.4-1.4-0.2-0.8 0.3-1 1.2-1 1.2l1.1-0.1c0 0 0.7-0.3 1.3-0.9z"/>
						<path id="Path 2126" class="s5" d="m547.1 53.6c0 0-1.3-0.5-2.2 0.3-0.9 0.7-1.2 0.2-1.2 0.2 0 0 1.9-2.4 3.4-0.5z"/>
						<path id="Path 2127" class="s14" d="m542.3 45.3c0 0-0.2 1.8-1.9 3.8-1.7 2-4.2 6.3-3.2 10.1-4-4.4-1.2-13.9 5.1-13.9z"/>
						<path id="Path 2128" class="s14" d="m539.7 46.9c0 0 6.5 7.7 11.2 10.1l1.7-0.4-1.3-5.4c0 0-0.4-4.9-4.6-5.8-4.3-0.8-6.8 0.4-7 1.5z"/>
						<path id="Path 2129" class="s4" d="m549.7 59.2c0 0 2.2 0.7 2.4-2 0.3-2.7-2.3-3.7-2.4-0.6z"/>
						<path id="Path 2130" class="s10" d="m542.2 61l0.5 1.1 1.2-1.4z"/>
						<path id="Path 2131" class="s5" d="m541.6 57.3c-0.1 0 0-0.1 0-0.1 0.1 0 0.2 0 0.2 0.1l0.5 3.5 1.5-0.3q0.2 0 0.2 0.1c0 0.1 0 0.2-0.1 0.2l-1.8 0.3c0 0-0.5-3.8-0.5-3.8z"/>
					</g>
				</g>
			</g>
			<g id="Group 559">
				<path id="Path 2132" class="s2" d="m527.6 256.2c-16.4 0-29.8-13.3-29.8-29.8 0-16.5 13.4-29.8 29.8-29.8 16.5 0 29.9 13.3 29.9 29.8 0 16.5-13.4 29.8-29.9 29.8z"/>
				<g id="Group 558">
					<path id="Path 2133" class="s3" d="m531.2 206.3c0 0 4.2 2.1 4.7 7.7 0.7 6.8 1.8 21.2-0.1 25.3-2.5 5.4-16.1 1.8-16.1 1.8h-3.2c0 0-0.2-6.9 0.7-11.2 0.8-4.3-0.5-9.1-0.5-9.1l2.8-10.7z"/>
					<g id="Group 556">
						<path id="Path 2134" class="s1" d="m519.3 235.5l-3.8 11.4v6.7c3.7 1.7 7.8 2.6 12.1 2.6 4.3 0 8.1-0.8 11.7-2.4v-16.3l-7.3-4.3z"/>
						<path id="Path 2135" class="s4" d="m521.4 227.4l-0.3 11.7 2.5 2.9 2.8 2.9 0.9-3.6 5.1-4.1 0.6-1.2c0 0-1.3-8.6-0.6-10.3 0 0-11 1.7-11 1.7z"/>
						<path id="Path 2136" class="s1" d="m521.4 227.4l-0.1 3.8c1.4 1.1 3.3 2.6 4.3 3.1 1.9 1.1 4.7 0.4 4.7 0.4l2.3-2.3c-0.3-2.6-0.6-5.7-0.2-6.7z"/>
						<path id="Path 2137" class="s3" d="m520.6 234.6v20.8c-5.9-1.5-11-4.6-15-8.9l0.9-3.2c0 0 1.5-2.4 3.3-3.3 1.8-0.9 9.4-5.7 9.4-5.7z"/>
						<path id="Path 2138" class="s3" d="m534.1 235.9l1.9-1 10.8 2.3c0 0 2.5 1 3.2 2.2 0.2 0.4 0.8 2.4 1.4 4.9-4.2 5.6-10.4 9.7-17.5 11.2-0.1-4.2-0.2-15.2 0.2-19.6z"/>
						<path id="Path 2139" class="s2" d="m532.4 231.1l0.3 5.6-2.5 2.3c0 0 1.7-0.1 2.1 0.3 0.4 0.2 2.5 1.8 2.5 1.8 0 0 0.9-0.6 0.9-1.8 0.1-1.3 0.2-4.9 0.2-4.9l-3.6-4.3c0 0 0.1 1 0.1 1z"/>
						<path id="Path 2140" class="s2" d="m521.3 230.4l-3 2.6c0 0-1.6 4.8-1.8 6.5-0.1 1.7 0.2 2.7 0.2 2.7l3.4-2.2 3.2 1.7-2.2-2.6z"/>
					</g>
					<g id="Group 557">
						<path id="Path 2141" class="s1" d="m532.7 223.6c0 0 2.4 0.3 3.3-2.4 1-2.5-1.6-5.5-2.5-1.9l-13.5 0.3c0 0-0.6-1.8-2.4-1.5-1.8 0.4-1.3 7 3.3 5.9 0 0 11.8-0.4 11.8-0.4z"/>
						<path id="Path 2142" class="s4" d="m518.7 215l1.1 10.7c0 0 0.1 2.1 1.1 3 0.9 0.7 4.9 3.1 4.9 3.1 0 0 1.7 0.3 2.9-0.4 1.3-0.6 4.5-3.7 4.5-3.7 0 0 0.5-1 0.7-1.9 0.9-4.3 1.7-17.3-5-18.6-2.5-0.5-8.3-0.2-10.2 7.8z"/>
						<path id="Path 2143" class="s5" d="m523.9 226.3l6.2-0.4c0 0-0.3 1.9-2.7 2.2-2.4 0.3-3.5-1.8-3.5-1.8z"/>
						<path id="Path 2144" class="s5" d="m520.2 220.3c0 0.1-0.1 0.2-0.2 0.2q-0.1 0-0.2-0.1c0 0-0.4-1.9 1-2.6 0.5-0.2 1.4-0.4 2.3-0.4q0.9 0 1.6 0.2c0.5 0.2 0.9 0.5 1.1 1q0.1 0.4 0.2 0.9v0.1c-0.1 1.2-0.4 2.1-1 2.6q-0.9 0.8-2.4 0.8h-0.1c-2.2 0-2.5-2-2.5-2 0-0.1 0.1-0.2 0.2-0.2 0.1 0 0.2 0 0.2 0.2 0 0 0.2 1.6 2.1 1.7h0.1c0.9 0 1.6-0.2 2.1-0.7 0.6-0.5 0.9-1.3 0.9-2.4v-0.1q0-0.5-0.1-0.8c-0.2-0.3-0.5-0.6-0.9-0.8q-0.7-0.2-1.5-0.2c-0.8 0-1.7 0.2-2.2 0.5-1.1 0.5-0.7 2.1-0.7 2.1z"/>
						<path id="Path 2145" class="s5" d="m533.6 220.1q0 0.1-0.2 0.1-0.1 0-0.1-0.2c0 0 0.4-1.6-0.7-2.1-0.5-0.3-1.4-0.5-2.3-0.5-0.5 0-1 0.1-1.4 0.3-0.4 0.1-0.7 0.4-0.9 0.7q-0.1 0.3-0.1 0.8v0.1q0 1.7 0.8 2.4c0.6 0.5 1.3 0.7 2.2 0.7h0.1c1.9-0.1 2.1-1.7 2.1-1.7 0-0.1 0.1-0.2 0.2-0.2 0.1 0.1 0.2 0.1 0.1 0.2 0 0-0.2 2-2.4 2h-0.1c-1 0-1.8-0.2-2.4-0.8q-0.9-0.8-1-2.5v-0.2q0-0.5 0.2-0.9c0.3-0.5 0.6-0.8 1.1-1 0.5-0.1 1-0.2 1.5-0.2 1 0 1.9 0.2 2.4 0.4 1.4 0.7 0.9 2.6 0.9 2.6z"/>
						<path id="Path 2146" class="s3" d="m521.2 216.4c0 0 1.2-0.6 2.1-0.8 1-0.2-0.1-1-1.1-0.5-1.1 0.6-1.3 1.3-1.3 1.3 0 0 0.3 0 0.3 0z"/>
						<path id="Path 2147" class="s3" d="m532.4 216c0 0-1.2-0.6-2.2-0.8-0.9-0.1 0.2-1 1.2-0.5 1 0.6 1.2 1.4 1.2 1.4 0 0-0.2-0.1-0.2-0.1z"/>
						<path id="Path 2148" class="s3" d="m525.1 208.4c0 0-1.8 1.2 0.9 2.3 2.6 1 4.5 1.1 4.5 1.1 0 0 2.3 3.5 6 3.1 3.6-0.4-0.4-4-1.5-4.4-2.1-6.5-15-7.6-9.9-2.1z"/>
						<path id="Path 2149" class="s3" d="m527.9 205.5c0 0-5.2 9.8-7.4 11.9-2.2 2.1-4 3.4-4 3.4 0 0-0.5-6.4 0.9-10.1 1.4-3.6 6.2-7 10.5-5.2z"/>
						<path id="Path 2150" class="s5" d="m525.8 220c-0.1 0-0.2-0.1-0.2-0.2 0-0.1 0.1-0.1 0.2-0.1l1.9-0.2c0.1 0 0.2 0.1 0.2 0.2 0 0-0.1 0.1-0.2 0.1z"/>
						<path id="Path 2151" class="s5" d="m533.7 219.3c-0.1 0-0.2 0.1-0.2 0-0.1 0-0.2-0.1-0.1-0.2l1-1.6q0.2-0.1 0.3 0c0.1 0 0.1 0.2 0 0.2z"/>
						<path id="Path 2152" class="s5" d="m522.9 218.9c0.3 0 0.3 0.4 0.3 1 0 0.5-0.1 0.9-0.3 0.9-0.3 0-0.5-0.4-0.5-0.9 0-0.5 0.3-1 0.5-1z"/>
						<path id="Path 2153" class="s5" d="m530.8 218.9c-0.3 0-0.3 0.4-0.3 1 0 0.5 0.1 0.9 0.3 0.9 0.3 0 0.5-0.4 0.5-0.9 0-0.5-0.2-1-0.5-1z"/>
						<path id="Path 2154" class="s10" d="m526.1 224.1l1.9 0.4-2 1.2z"/>
						<path id="Path 2155" class="s5" d="m519.8 220.1c0 0 0.2 0.1 0.2 0 0.1 0 0.1-0.2 0.1-0.2l-1.1-1.5c0-0.1-0.1-0.1-0.2-0.1-0.1 0.1-0.1 0.2 0 0.3z"/>
						<path id="Path 2156" class="s5" d="m526 219.8c0-0.1 0.1-0.1 0.2-0.1 0.1 0 0.2 0 0.2 0.1l-0.2 5 1.8-0.5q0.1 0 0.2 0.1 0 0.2-0.1 0.2l-2.2 0.6c0 0 0.1-5.4 0.1-5.4z"/>
					</g>
				</g>
			</g>
		</g>
		<g id="Group 568">
			<path id="Path 2157" class="s4" d="m445.2 177.7c-25.5 0-46.2-20.7-46.2-46.3 0-25.5 20.7-46.2 46.2-46.2 25.6 0 46.3 20.7 46.3 46.2 0 25.6-20.7 46.3-46.3 46.3z"/>
			<g id="Group 567">
				<g id="Group 562">
					<path id="Path 2158" class="s15" d="m424.9 199.3l-18.7-6.7c0 0-1.7-1.5-2.6-1.6-0.8 0-3.9 0.1-3.9 0.1l-3.1-1.5-0.6 0.7c0 0-0.3 0.9 0.5 2.1 0.8 1.3 3.4 1.8 3.4 1.8l0.5 8.4c0 0 1.5 0.3 3.1 0.1 1.5-0.3 4.1-1.1 4.1-1.1l21.9 10.9 3.5-10.5c0 0-8.1-2.7-8.1-2.7z"/>
					<g id="Group 561">
						<path id="Path 2159" class="s15" d="m399.4 200.4l-1.5 1.4c0 0-0.5 0.9 0.4 1.5 0.8 0.6 1.4-0.2 1.4-0.2l2.2-2.8c0 0 0-0.4-0.3-0.8-0.4-0.3-0.7-0.3-0.7-0.3 0 0-1.5 1.2-1.5 1.2z"/>
						<path id="Path 2160" class="s15" d="m397 199.3c0 0 0.1 1.2 0.5 1.6 0.4 0.4 1.4 0.3 1.4 0.3l3.5-2.6c0 0 0.2-0.9-0.1-1.4-0.4-0.4-0.7-0.6-0.7-0.6 0 0-4.6 2.7-4.6 2.7z"/>
						<path id="Path 2161" class="s15" d="m395.7 196.5c0 0-0.7 1-0.2 1.8 0.5 0.7 1.5 1 1.5 1l5.4-3c0 0 0-0.8-0.2-1.4-0.2-0.6-1.1-0.6-1.1-0.6 0 0-5.4 2.2-5.4 2.2z"/>
						<path id="Path 2162" class="s15" d="m394.5 194.8c0 0-0.1 0.8 0.1 1.3 0.3 0.6 1.3 0.7 1.3 0.7l4.6-2.3c-0.1-0.8-0.5-1.3-1.4-1.4z"/>
					</g>
					<path id="Path 2163" class="s5" d="m395.5 197.2c-0.1 0-0.2 0-0.3-0.1-0.1-0.1 0-0.3 0.1-0.3l4.9-2.4c0-0.2 0-0.9-1.1-1.1-0.1 0-0.2-0.1-0.2-0.3 0-0.1 0.2-0.2 0.3-0.1 1.9 0.3 1.4 1.7 1.4 1.7v0.1c0 0-5.1 2.5-5.1 2.5zm4.3 6.1q-0.1 0.2-0.3 0.1c-0.1-0.1-0.2-0.2-0.1-0.3l2.3-2.9c0-0.1 0-0.6-0.2-0.7l-2.9 2c0 0-0.2 0-0.2-0.1-0.1-0.1-0.1-0.2 0-0.3l3.8-2.6c0.1-0.2 0.2-0.7-0.1-1.2q-0.1-0.2 0-0.3c0.2 0 0.3 0 0.4 0.1 0.4 0.8 0.1 1.6 0.1 1.6v0.1l-0.7 0.4c0.4 0.4 0.2 1.2 0.2 1.2 0 0-2.3 2.9-2.3 2.9zm-2.7-3.8c-0.1 0.1-0.2 0-0.3-0.1q-0.1-0.2 0.1-0.3l5.3-3c0-0.3 0.2-1.4-1.1-1.6-0.2 0-0.3-0.1-0.3-0.2 0-0.2 0.2-0.2 0.3-0.2 2.1 0.3 1.5 2.2 1.5 2.2v0.1c0 0-5.5 3.1-5.5 3.1z"/>
				</g>
				<path id="Path 2164" class="s16" d="m432.9 115.5c0 0-3.9 9.4-3.6 16 0.3 6.7-0.7 30.8-1.7 35.1l-1.6 9.3c0 0 11.4 0.4 19-7.1 7.6-7.4 6.5-26.4 6.2-34.1-0.2-7.6-3.8-14.7-3.8-14.7 0 0-14.5-4.5-14.5-4.5z"/>
				<path id="Path 2165" class="s3" d="m437.2 108.7l-2.2-1.9c0 0 6.2-4.6 11.9-4.1 5.7 0.4 11.8 3.5 15.6 17.2 3.9 13.7 9.7 37.3 9.7 37.3 0 0 4.1 15.5-2.6 17.8-6.7 2.3-12.4-1-12.4-1l-1.9-14-2.6-31.5c0 0-15.5-19.8-15.5-19.8z"/>
				<path id="Path 2166" class="s2" d="m437.5 151.4c0 0-5.8 2.1-10.1 8.1-4.3 5.9-5.6 13.7-5.6 16.8 0 2.4 0 21.3 0 31.4 0 0-0.3 4.8-5.4 11.2-5 6.3-10.1 20-11 28.6-0.9 8.6 0.7 19.4 0.7 19.4 0 0 1.6 1.5 3.6 0.6 2.1-0.9 32.2-10.9 32.2-10.9v-43.9l1.9-57.8c0 0-6.3-3.5-6.3-3.5z"/>
				<path id="Path 2167" class="s15" d="m424.6 359.6c0 0 1 15.4 0.1 19-0.8 3.6-8.2 14.7-8.2 14.7 0 0 3 0.9 6 0.4 3-0.6 7.9-4.5 8.9-5.5 1.1-1.1 3.4-6.1 3.4-6.1 0 0-1.2-16.8-0.4-22.5 0.8-5.7-2.4-9.2-6.2-8.6-3.9 0.6-3.6 8.6-3.6 8.6z"/>
				<path id="Path 2168" class="s2" d="m416.9 391.8c0 0 2.4 0.5 4.5 0.3 2.1-0.3 4.9-2.8 4.9-2.8l8.4-8.4c0 0 1.2 0.3 1 1.4-0.1 1.1 0.1 4.9 0.1 4.9 0 0-0.3 1.4-1.9 2.3-1.7 0.8-5.6 3.2-7.3 5.4-1.8 2.3-3.7 3.5-8.7 4-4.9 0.6-7.8 0.2-7.6-1 0.2-1.2 4.7-3.3 6.6-6.1z"/>
				<path id="Path 2169" class="s15" d="m453.5 362c0 0 1.2 16.4 0.6 20.7-0.6 4.2-1.2 12-1.2 12l9.3 0.8c0 0 3-1.6 3.9-4 0.8-2.4 0.1-6.8 0.1-6.8l-2.2-21.4c0 0-10.5-1.3-10.5-1.3z"/>
				<path id="Path 2170" class="s2" d="m453.5 394.3l8.9 0.3c0 0 1.5-0.6 2.1-2 0.7-1.4 1.8-6.8 1.8-6.8 0 0 0.9 5.4 0.4 8-0.4 2.6-4.9 8.8-8.1 10.3-3.2 1.6-7.1 1.5-6.9-2.4 0.2-4 1.3-7.7 1.3-7.7 0 0 0.5 0.3 0.5 0.3z"/>
				<path id="Path 2171" class="s14" d="m416.4 227.4l-3.2 0.7-2.1 1.1c0 0-1.5 0.6-1.5 5.5 0 4.8 0.3 60.4 5.4 88.4 5.1 28.1 8.6 49.1 8.6 49.1l12.7-0.2c0 0 0.7-77.7 0.3-90.2-0.3-12.5 0.7-52.6 0.7-52.6 0 0-20.9-1.8-20.9-1.8z"/>
				<path id="Path 2172" class="s3" d="m420.7 229.8c0 0 0 14.6 3.3 26.3 3.4 11.7 24.9 94.7 26.2 103.9 1.3 9.1 2.6 13.6 2.6 13.6l12.6-1.3c0 0 1-29.8-1.6-40.8-2.5-11.1-4.8-23.7-4.8-23.7 0 0 4.6-51.9 1.5-71.8-3.1-20-36.3-18-39.8-6.2z"/>
				<g id="Group 563">
					<path id="Path 2173" class="s1" d="m435.8 154.1c0 0-5.3 4.6-7.9 10.8-2.6 6.2-4.1 16.4-4.1 16.4 0 0-1.6 12.8-2.4 18.4-0.8 5.7-10.6 28.8-10.6 28.8 0 0 0.4 1.8 2.6 2.6 2.1 0.7 13.7 6.9 28 6.7 14.2-0.1 19.1-1.8 19.1-1.8l5.1-69.4 0.2-15.9c0 0-19.7-2.5-30 3.4z"/>
					<path id="Path 2174" class="s17" d="m441.3 145.8c0 0-4 4.5-5.5 6.6-1.5 2.1-1.1 7.8-1.1 7.8l6.7-7.2c0 0-0.1-7.2-0.1-7.2z"/>
					<path id="Path 2175" class="s15" d="m434 139c0 0 4.5 0.8 5.5 2.3 1.1 1.5 0.5 6.2 0.5 6.2l-0.6 13.5 6.9 0.9 7.8-17c0 0-1.6-2.6-1.4-8 0.3-5.4-0.3-16.1-0.3-16.1l-13 4.3c0 0-5.6 8.6-5.4 13.9z"/>
					<path id="Path 2176" class="s18" d="m434 139c0 0 4.5 0.8 5.5 2.3 0.4 0.5 0.5 1.3 0.6 2.2 2.6-2 8-8.3 7-11.5-0.1-3 5.3-11.2 5.3-11.2l-13 4.3c0 0-5.6 8.6-5.4 13.9z"/>
					<path id="Path 2177" class="s2" d="m461.5 143.4c0 0-9.3 2.3-10.5 9.1-1.1 6.7-2.9 71.6-2.8 87.8 0.2 16.2 2.9 35.8 2.9 35.8 0 0 4.7-0.5 8.1-2.6 3.3-2.1 13.9-9.8 13.9-9.8 0 0-3.4-39.4-6.3-50.8l6.7-52.8c0 0 0.2-7.2-2.8-9-3-1.8-7.8-4.4-9.2-7.7z"/>
					<path id="Path 2178" class="s17" d="m455.9 142.6l-9 8.7c0 0-0.7 0.9-0.9 2.5-0.2 1.5 0.1 7.8 0.1 7.8 0 0 0.6 1.2 1.4 0.2 0.8-0.9 10.4-11.3 10.4-11.3 0 0 0.6-1.2 0.7-2.3 0-1.1-1.1-6.4-1.1-6.4 0 0-1.6 0.8-1.6 0.8z"/>
					<path id="Path 2179" class="s17" d="m446.6 151.8c-0.2 0.4-0.5 1-0.6 2-0.2 1.5 0.1 7.8 0.1 7.8 0 0 0.6 1.2 1.4 0.2l2.9-3.1z"/>
				</g>
				<path id="Path 2180" class="s19" d="m462.1 183.3c0 1.3-0.2 2.5-0.5 3.4m-0.6-3.6c0 1.6-0.1 3.5-0.5 4.6m-0.8-4.7c0 1.7 0.1 4.3-0.4 5.8m-0.9-6c0.1 1.6 0.3 5-0.3 6.8"/>
				<g id="Group 564">
					<path id="Path 2181" class="s15" d="m433.9 107.8c0 0-5 2.2-4.8 8.3 0.2 6 0 8.4-0.5 9.5-0.4 1.1-2 4.2-2 4.2 0 0 0 0.9 0.4 1 0.5 0.1 2.3 0.7 2.3 0.7 0 0 0.6 7 1.8 8.6 1.2 1.7 2.2 1.5 3.6 1 1.4-0.5 9.2-5.1 11.7-7.3 2.5-2.1 4.9-17.9 4.9-17.9 0 0-8.7-11.5-17.4-8.1z"/>
					<path id="Path 2182" class="s5" d="m426.6 130.2c0.1 0.3 0.2 0.6 0.4 0.6 0.5 0.1 2.3 0.7 2.3 0.7v0.2l1.8-2.6c0 0-1.4 0.3-3 0.8-0.5 0.1-1.1 0.3-1.5 0.3z"/>
					<path id="Path 2183" class="s5" d="m432.6 133.5c-0.1-0.1-0.2-0.2-0.1-0.3 0-0.1 0.1-0.2 0.3-0.2 0 0 1.8 0.7 3.4-0.8 0.1 0 0.2 0 0.3 0.1 0.1 0.1 0.1 0.2 0 0.3-1.8 1.6-3.9 0.9-3.9 0.9z"/>
					<path id="Path 2184" class="s5" d="m432.4 120.1c0 0 1.4-1.1 3.4-1.3-0.8-1.4-3.4-0.6-3.4 1.3z"/>
					<path id="Path 2185" class="s5" d="m433.5 121.3c0.5 0 0.5 0.8 0.5 1.7 0 1-0.1 1.7-0.6 1.7-0.4 0-0.8-0.7-0.8-1.7 0-0.9 0.4-1.7 0.9-1.7z"/>
				</g>
				<path id="Path 2186" class="s3" d="m430.5 110.8c0 0 3.5-0.9 4.8 1.1 1.3 2 13.1 16.3 13.1 16.3 0 0-1.9 24.7 4.9 30.7 0.3 2.1 0.6 4 0.9 5.4 1.9 7.4 3.1 24.8 2.9 26.1 0 0 2.9-2.2 4.8-3.8 1.8-1.7 2.2-5.5 2.2-5.5 0 0-0.6-12.8-1.4-23.8-1.1-15.3-2.6-49.6-21.2-51.6-3.9-0.4-7.9 0.7-11 5.1z"/>
				<g id="Group 565">
					<path id="Path 2187" class="s15" d="m446 129.7c0 0 3.4-0.9 4.4-5.7 1-4.8-5-6.3-5.7 0.5 0 0-0.4 3.9 1.3 5.2z"/>
					<path id="Path 2188" class="s5" d="m445.4 127.4c-0.1 0-0.2-0.1-0.2-0.3-0.1-0.1 0-0.2 0.1-0.2 0 0 1.4-0.2 2-2.6 0.8-2.7 1.3-3 1.3-3 0.2 0 0.3 0 0.4 0.1q0 0.2-0.1 0.3c0 0-0.5 0.3-1.1 2.7-0.7 2.7-2.4 3-2.4 3z"/>
				</g>
				<path id="Path 2189" class="s20" d="m465.6 166.6l4.4 40.6c0 0 0.6 4.4 3.5 5.1 2.9 0.7 7.8 0.8 9.2-3.1 1.4-3.9 1.4-4.2 1.4-4.2l-4.3-38.7c0 0-2.8-13.7-9.1-15.2 0 0-6.5 0-5.1 15.5z"/>
				<g id="Group 566">
					<path id="Path 2190" class="s15" d="m461.4 201.8l-24.5-2.6c0 0-3.1-5.3-4.9-5.8-1.8-0.5-9.4-3.2-9.4-3.2 0 0-0.8 0.7-0.4 1.7 0.5 0.9 2.6 2.6 2.6 2.6l-4.8-0.6c0 0-1.5 0-1.6 1.1-0.1 1 2 1.6 2 1.6 0 0-0.2 1.6 0 1.9 0.2 0.4 0.4 0.7 0.4 0.7 0 0-0.8 1.2-0.7 2 0 0.7 0.5 1.1 0.5 1.1 0 0-0.3 1.5 0.6 2.1 1 0.6 13.5 3.5 13.5 3.5l26.7 4.2c0 0 0-10.3 0-10.3z"/>
					<path id="Path 2191" class="s5" d="m422.9 197c0.1 0 0.2 0.2 0.1 0.3 0 0.1-0.1 0.2-0.3 0.1l-2.3-0.6c-0.2 0-0.2-0.2-0.2-0.3 0-0.1 0.2-0.2 0.3-0.2zm5.6-2c0.1 0 0.2 0.1 0.1 0.3 0 0.1-0.1 0.2-0.3 0.2l-3.5-0.7c-0.1 0-0.2-0.2-0.1-0.3 0-0.1 0.1-0.2 0.2-0.2zm-6.2 7.5c0.1 0 0.2 0.1 0.2 0.3-0.1 0.1-0.2 0.2-0.3 0.1l-1.6-0.3c-0.1-0.1-0.2-0.2-0.2-0.3 0.1-0.1 0.2-0.2 0.3-0.2zm0.4-3c0.1 0 0.2 0.2 0.2 0.3 0 0.1-0.2 0.2-0.3 0.1l-1.8-0.4c-0.1 0-0.2-0.1-0.1-0.2 0-0.1 0.1-0.2 0.2-0.2z"/>
					<path id="Path 2192" class="s20" d="m450.8 199l-0.2 17.3c0 0 11.9 0.7 16.8-0.5 0 0 8.8-0.2 12.6-1 3.8-0.8 4.7-5.4 4.1-9.8l-14.9-4.6z"/>
				</g>
			</g>
		</g>
		<g id="Group 576">
			<path id="Path 2193" class="s4" d="m260.8 164.1c-25.5 0-46.2-20.7-46.2-46.2 0-25.6 20.7-46.3 46.2-46.3 25.6 0 46.3 20.7 46.3 46.3 0 25.5-20.7 46.2-46.3 46.2z"/>
			<g id="Group 575">
				<g id="Group 569">
					<path id="Path 2194" class="s15" d="m337.2 181.7l11.2 1c0 0 5.6-1.8 8-3 2.3-1.2 5.3-0.6 7.6-1 2.2-0.4 3.2-0.4 3.4 0.7 0.3 1.2-2.4 2.6-4.3 2.6-1.8 0-4.1 1.1-4.1 1.1 0 0 5 3.6 8.1 4.9 3.1 1.3 8.5 5.5 9 6.3 0.5 0.9 0.2 1.7 0.2 1.7 0 0 0.6 1.2 0.5 1.9 0 0.6-0.6 0.8-0.6 0.8 0 0-0.4 1.1-1.2 1.3-0.8 0.1-3.4-0.6-3.4-0.6 0 0-1.1 0.5-3.1 0.4-2-0.2-11.8-3.8-14.9-4.7-3.1-0.8-6.2-3.3-6.2-3.3l-18.2-0.3v-5.9c0 0 8-3.9 8-3.9z"/>
					<path id="Path 2195" class="s4" d="m337.6 181.5l8.8 0.5c0 0 1.2 8.2 0 12.5l-8.4-0.6c0 0-0.4-12.4-0.4-12.4z"/>
					<path id="Path 2196" class="s5" d="m366.3 191.5c-0.1 0-0.1-0.2-0.1-0.3 0-0.1 0.2-0.2 0.3-0.1l9.9 4.7c0.2 0 0.2 0.1 0.1 0.3 0 0.1-0.1 0.1-0.3 0.1zm-2 4.2c-0.1-0.1-0.1-0.2 0-0.3 0-0.1 0.2-0.2 0.3-0.1l7.2 3.9q0.1 0.2 0 0.4c0 0.1-0.2 0.1-0.3 0zm0.8-2.2c-0.1 0-0.2-0.1-0.1-0.3 0-0.1 0.2-0.1 0.3-0.1l11.1 5.5q0.2 0.1 0.1 0.3c-0.1 0.1-0.2 0.2-0.3 0.1z"/>
					<path id="Path 2197" class="s14" d="m275.5 157.7l8.8-11.4 19.9 24.8 6.1 6.3c0 0 4.2 1.4 6.5 1.7 2.3 0.4 23.6 1.6 23.6 1.6l-0.3 15.1-33.8-1.7c0 0-9.2-2.6-13.8-6.4-4.6-3.8-16.3-21.7-16.3-21.7 0 0-2.3-5.6-0.7-8.3z"/>
				</g>
				<path id="Path 2198" class="s3" d="m262.2 134.6c0 0 18.1 7.9 20.8 10.4 2.8 2.5 4.1 6.5 4.1 6.5 0 0 7.1 47 7.8 52.7 0.8 5.7 3.3 44 3.3 44 0 0-0.9 0.9-3.2 0.8-2.2-0.2-18.5-2.1-18.5-2.1l-7-80.6c0 0-7.3-31.7-7.3-31.7z"/>
				<g id="Group 570">
					<path id="Path 2199" class="s18" d="m260.4 372.1c0 0-3.7 3.8-3.8 7.7-0.1 3.8 1 11.7 1 11.7 0 0 3 2.1 6.6 2.3 3.7 0.2 2.5-0.2 3.5-1.3 1.1-1.1 3.6-1.1 5.7 0.5 2.1 1.6 4.1 1.7 9.3 1.9 5.1 0.2 14.4-0.4 14.4-0.4 0 0 2.1-0.7 1.8-2.3-0.2-1.5-1.6-3.4-4.5-4-3-0.6-10.1-2.9-13-5.2-3-2.4-8.9-9.7-8.9-9.7 0 0-6.8-2.1-12.1-1.2z"/>
					<path id="Path 2200" class="s14" d="m287.1 215.2c0 0 1.8 5.3 1.8 8.8 0 3.5-2.7 48.2-3.3 55.4-0.5 7.3-3.8 22.5-3.8 22.5l-5.6 72.5c0 0-6.3 2.5-18.3-0.2 0 0 0.4-38.8 0.2-49.3-0.2-10.6 2.1-17.9 1.7-25.6-0.5-7.7 0-35.7-0.7-47.2-0.6-11.6 0.4-41.5 0.4-41.5 0 0 27.6 4.6 27.6 4.6z"/>
				</g>
				<g id="Group 571">
					<path id="Path 2201" class="s18" d="m230.5 377.2c0 0-0.2 8.9-0.5 13.2-0.4 4.3-0.2 8 0.7 8.2 0.9 0.3 2.9 0.5 2.9 0.5 0 0 4.5 3.6 7.7 3.9 3.3 0.2 16.8-0.1 16.8-0.1 0 0 4.3 0.4 5.1-2.6 0.8-3.1-1.2-3.7-4.5-5.2-3.2-1.4-10.7-9.2-12.4-13-1.7-3.8-1.1-7.1-1.1-7.1h-12.9z"/>
					<path id="Path 2202" class="s3" d="m277.8 216.4c0 0-1.6 24.2-7 42.1-5.5 18-15.7 56.8-17.9 62.6-2.3 5.8-5.2 45.4-5.2 45.4l-0.3 11.9c0 0-9.6 2.4-17.5 0 0 0-2.4-43.5-1.3-53 1.1-9.6 6.9-19.9 8.2-27.7 1.3-7.9-0.9-35.5-1-45.5-0.2-9.9-0.9-31.2 5.4-41.8 0 0 36.6 6 36.6 6z"/>
				</g>
				<path id="Path 2203" class="s18" d="m288.2 207.8c0.7 5.5 1.2 14.1 1 15.1-0.1 1-2.5 1.6-2.5 1.6l-29.4-0.3-14.9-3.1c0 0-4.6-0.5-4.8-3.8-0.1-3.3-0.1-3.7-0.1-3.7v-5.8c0 0 50.7 0 50.7 0z"/>
				<g id="Group 572">
					<path id="Path 2204" class="s18" d="m285.5 183.9c0 0-6.2-34.1-6.7-35.7-0.5-1.5-4.5-3.9-4.5-3.9 0 0 1.4-3.2 0.7-4.7-0.9-1.5-8.3-5.2-8.3-5.2 0 0 7.1 15.1 18.8 49.5z"/>
					<path id="Path 2205" class="s15" d="m250.2 114.4l-2.1 18.4c0 0 2.6 4.3 5.3 5.8 2.8 1.5 13.5 3.3 13.5 3.3l-1.1-20.1-1.6-15.1-10.9-0.1z"/>
					<path id="Path 2206" class="s18" d="m266.4 133.5l-0.6-11.7-1-9.7-10.2-1.4c0 0 4.6 14.7 5.3 15.8 0.6 1.1 2.1 2.3 6.5 7z"/>
					<path id="Path 2207" class="s4" d="m268.6 137.7c0 0 5.5 10.2 9 19.3 3.5 9.1 9.6 32.8 10.4 38.6 0.8 5.8 1.4 16.8 1.2 17.9-0.1 1-2.5 1.6-2.5 1.6l-29.4-0.3-14.9-3c0 0-4.6-0.6-4.8-3.9-0.1-3.3-0.1-3.7-0.1-3.7l1.1-58.7 0.1-8.2c0 0 0.5-1.8 3.1-1.8 0.7 0 1.5-5.5 3.2-5.4 5 0.1 12.9 6.1 12.9 6.1l6.2 2.3c0 0 4.5-0.8 4.5-0.8z"/>
					<path id="Path 2208" class="s3" d="m258.5 168.1c0 0 1.8 11.1 1.8 14.5 0 3.3-0.2 5.6-0.2 5.6 0 0-8.6 34.8-16.8 45 0 0-3 19.9-5.1 21.1-2.1 1.3-2.9 1-2.9 1l-10.9-1c0 0-1.4-1.2-1-5.5 0.5-4.4 6.4-58.4 6.4-58.4l-3.4-45.1c0 0-0.6-5.7 3.3-7.1 3.9-1.3 15-3.8 15-3.8 0 0 1.9 0.9 3.3 3.3 1.4 2.3 10.5 30.4 10.5 30.4z"/>
					<path id="Path 2209" class="s2" d="m263.8 139l-2 5.4 5.2 5c0 0 5.4 35.6 5.8 40.6 0.5 5.1 3.3 14.8 3.3 14.8l4.1 7.4c0 0 2.6-7 2.1-10.3l-0.5-3.3-12.5-50.7-0.1-5.5z"/>
					<path id="Path 2210" class="s18" d="m244.7 129.7c0 0 11.4 19.8 14.1 28.2 2.6 8.4 3.2 23.2 3.2 23.2l-1.7 3.1-8.2-23.8-9.9-14.2c0 0-0.5-0.9 0.7-1.4 1.1-0.4 5.2-2.3 5.2-2.3l-8.6-4.6c0 0-0.9-1 0.2-2.1 1.1-1.2 5-6.1 5-6.1z"/>
					<path id="Path 2211" class="s4" d="m244.7 129.7l17.3 15.8 2.3-6.2c0 0 0.1-0.9-0.4-1.6-0.5-0.7-13.8-9.5-15.8-10.6 0 0-3.4 2.6-3.4 2.6z"/>
					<path id="Path 2212" class="s4" d="m264.4 137.8c0 0-0.5 0.8-0.1 1.4 0.3 0.7 5.1 5.4 5.1 5.4 0 0 0.3-0.7 0.3-1.7 0-1-0.6-6.2-0.6-6.2 0 0-0.8-1.7-1.3-2.1-0.5-0.5-1.3-0.1-1.3-0.1 0 0-2.1 3.3-2.1 3.3z"/>
				</g>
				<g id="Group 573">
					<path id="Path 2213" class="s15" d="m256.3 112.8c0 0 3.8 11 5.4 12.2 1.6 1.3 12.8 6.2 12.8 6.2 0 0 3.1 0.1 3.2-2 0.1-2-0.2-7.9-0.2-7.9l3-2.7c0 0 0.6-0.4 0.4-0.9-0.2-0.6-2.8-5.9-2.8-5.9 0 0-0.6-3.2-0.1-4.1 0.5-0.9 0.1-2.4 0.1-2.4l-5.1-13.4c0 0-4.5-3.3-12-0.8-7.4 2.6-7.2 13.5-4.7 21.7z"/>
					<path id="Path 2214" class="s5" d="m277.6 121.2l2.9-2.6c0 0 0.3-0.3 0.4-0.6h-4.6c0 0-0.4 0.1 0 0.8 0.1 0.2 0.7 1.3 1.3 2.4z"/>
					<path id="Path 2215" class="s5" d="m271.3 122.4l4.4 0.5v3.4c0 0-3.2-0.9-4.4-3.9z"/>
					<path id="Path 2216" class="s5" d="m272.3 105.6c0 0 1.4-0.6 2.5-0.1 1 0.5 1.2-0.3 0.6-0.9-0.6-0.7-3.3-0.4-3.1 1z"/>
					<path id="Path 2217" class="s3" d="m249 96.3c0 0-0.4-2.1 0.9-4.6 1.4-2.4 6.6-6.6 15.6-4.6 9 2 9.8 2.4 11 2.4 1.3 0 2.3 4.5-0.6 5.8-2.8 1.3-9.4-0.1-9.4-0.1 0 0-14-1.6-17.5 1.1z"/>
					<path id="Path 2218" class="s3" d="m252.7 113.2c0 0 0.2-0.8 0.7-1.5 0.6-0.7 1.4-1.4 2.7-1.2 2.6 0.3 7.2 4.7 7.2 4.7l0.5-1.5c0 0 0.2-7.8 0.8-9.2 0.6-1.4 5.1-2.9 5.1-2.9 0 0-2.9-2.1-3-3.7 0-1.6-0.3-3.8-0.3-3.8 0 0-2.4 0.2-4.6-0.5-2.2-0.6-8.2-1.9-12.1 1.2-0.7 0.6-1.2 1.1-1.7 1.7-2.3 3.3-2.2 7.8-0.7 11.5 1.9 4.5 2.2 12.3 2.2 12.3 0 0 3.5-5.5 3.2-7.1z"/>
					<path id="Path 2219" class="s15" d="m260.1 116.6c0 0-5.2-0.3-6.2-4.7-1-4.3 2.7-5.7 4.6-3.9 1.8 1.8 2.4 5.7 1.6 8.6z"/>
					<path id="Path 2220" class="s5" d="m255.1 109.7q-0.2-0.1-0.1-0.3c0-0.1 0.2-0.1 0.3-0.1 0 0 2.1 0.9 3 2.2 1 1.4 1.2 3.4 1.2 3.4 0 0.1-0.1 0.2-0.2 0.2-0.1 0.1-0.2-0.1-0.2-0.2 0 0-0.3-1.9-1.1-3.1-0.9-1.2-2.9-2.1-2.9-2.1z"/>
					<path id="Path 2221" class="s5" d="m274.7 107.9c-0.5 0-0.6 0.8-0.5 1.8 0 1.1 0 2 0.6 2 0.5-0.1 0.9-0.9 0.9-1.9 0-1.1-0.5-1.9-1-1.9z"/>
				</g>
				<path id="Path 2222" class="s14" d="m222.1 147.1l-13.7 47.8c0 0-1.8 6 4.2 7.8 6 2 11.3-2.2 11.3-2.2l2.8-4.8 9.5-31.5c0 0 1.2-8.9-1.9-15.2-3.1-6.2-6.4-9.5-6.4-9.5 0 0-2.7 1.3-5.8 7.6z"/>
				<g id="Group 574">
					<path id="Path 2223" class="s15" d="m242.3 234.2l5.8 9.9c0 0 6.2-4.3 8-6.4 1.8-2.1 3.4-5.1 3.4-5.1l-9.8-5.2z"/>
					<path id="Path 2224" class="s4" d="m244.1 220.8l6.5 5.9c0 0-4.2 7.1-7.8 9.7l-6.2-5.7c0 0 7.5-9.9 7.5-9.9z"/>
					<path id="Path 2225" class="s14" d="m223.6 193l19.9 24.3 3.7 4.1c0 0-1.2 9-11.6 13.7l-23-26.5c0 0-6.4-5.1-4.4-12.4 2-7.4 12.7-7.3 15.4-3.2z"/>
				</g>
			</g>
		</g>
		<g id="Group 577">
			<path id="Path 2226" class="s1" d="m70.4 307.7c-5.3 0-9.6-4.3-9.6-9.7 0-5.3 4.3-9.6 9.6-9.6 5.4 0 9.7 4.3 9.7 9.6 0 5.4-4.3 9.7-9.7 9.7z"/>
			<path id="Path 2227" class="s1" d="m233.5 30.3c-5.4 0-9.7-4.3-9.7-9.7 0-5.3 4.3-9.7 9.7-9.7 5.3 0 9.6 4.4 9.6 9.7 0 5.4-4.3 9.7-9.6 9.7z"/>
			<path id="Path 2228" class="s0" d="m583.6 372.8c-5.3 0-9.6-4.3-9.6-9.6 0-5.4 4.3-9.7 9.6-9.7 5.4 0 9.7 4.3 9.7 9.7 0 5.3-4.3 9.6-9.7 9.6z"/>
			<path id="Path 2229" class="s0" d="m358.3 135.8c-3.9 0-7.1-3.1-7.1-7.1 0-3.9 3.2-7.1 7.1-7.1 4 0 7.1 3.2 7.1 7.1 0 4-3.1 7.1-7.1 7.1z"/>
			<path id="Path 2230" class="s0" d="m555.4 304.4c-2.9 0-5.2-2.3-5.2-5.2 0-2.8 2.3-5.1 5.2-5.1 2.8 0 5.1 2.3 5.1 5.1 0 2.9-2.3 5.2-5.1 5.2z"/>
			<path id="Path 2231" class="s1" d="m536.9 140.9c-2.9 0-5.2-2.3-5.2-5.1 0-2.9 2.3-5.2 5.2-5.2 2.8 0 5.1 2.3 5.1 5.2 0 2.8-2.3 5.1-5.1 5.1z"/>
			<path id="Path 2232" class="s0" d="m61.2 152.8c-2.9 0-5.2-2.3-5.2-5.2 0-2.8 2.3-5.1 5.2-5.1 2.8 0 5.1 2.3 5.1 5.1 0 2.9-2.3 5.2-5.1 5.2z"/>
			<path id="Path 2233" class="s1" d="m179.5 94c-2.8 0-5.1-2.3-5.1-5.1 0-2.9 2.3-5.2 5.1-5.2 2.9 0 5.2 2.3 5.2 5.2 0 2.8-2.3 5.1-5.2 5.1z"/>
			<path id="Path 2234" class="s1" d="m191.4 377.5c-2.9 0-5.2-2.3-5.2-5.1 0-2.9 2.3-5.2 5.2-5.2 2.8 0 5.2 2.3 5.2 5.2 0 2.8-2.4 5.1-5.2 5.1z"/>
			<path id="Path 2235" class="s1" d="m377 372.8c-5.4 0-9.7-4.3-9.7-9.6 0-5.4 4.3-9.7 9.7-9.7 5.3 0 9.7 4.3 9.7 9.7 0 5.3-4.4 9.6-9.7 9.6z"/>
			<path id="Path 2236" class="s0" d="m654.5 166.4c-2.8 0-5.1-2.3-5.1-5.1 0-2.9 2.3-5.2 5.1-5.2 2.9 0 5.2 2.3 5.2 5.2 0 2.8-2.3 5.1-5.2 5.1z"/>
			<path id="Path 2237" class="s0" d="m35.8 197.7c-1.9 0-3.4-1.6-3.4-3.5 0-1.9 1.5-3.4 3.4-3.4 1.9 0 3.4 1.5 3.4 3.4 0 1.9-1.5 3.5-3.4 3.5z"/>
		</g>
		<path id="Path 2238" class="s21" d="m161.9 161.5c3.3-3.7 9.7 3.2 0.7 6.8-4.5 1.8-10.1 0.9-13.3-2.6-1.8-2-6.2-2-8 0-4.3 4.7-12.9 4.7-17.2 0-1.8-2-6.2-2-8 0-4.2 4.6-12.8 4.7-17.2 0-2.6-3.1 1.9-7.2 4.6-4.2 1.8 2 6.2 2 8 0 4.3-4.6 12.8-4.8 17.3 0.1 1.6 1.8 6 2 7.9-0.1 4.3-4.6 12.8-4.8 17.3 0.1 1.6 1.8 6 2 7.9-0.1z"/>
		<path id="Path 2239" class="s2" d="m543.3 321.8c-2.7-3-7.9 2.6-0.6 5.5 3.6 1.4 8.2 0.7 10.8-2.1 1.4-1.7 5-1.7 6.4 0 3.5 3.8 10.4 3.8 13.9 0 1.5-1.7 5-1.7 6.5 0 3.4 3.8 10.4 3.8 13.8 0 2.2-2.5-1.5-5.8-3.7-3.4-1.4 1.6-4.9 1.6-6.4 0-3.5-3.8-10.4-3.9-14 0.1-1.3 1.4-4.8 1.6-6.4-0.1-3.4-3.8-10.3-3.9-13.9 0.1-1.3 1.4-4.9 1.6-6.4-0.1z"/>
		<path id="Path 2240" class="s3" d="m469.1 21.2c-2.5 2.8-7.5-2.5-0.5-5.3 3.4-1.3 7.8-0.7 10.2 2.1 1.4 1.5 4.8 1.5 6.2 0 3.3-3.7 9.9-3.7 13.2 0 1.4 1.5 4.8 1.5 6.2 0 3.3-3.7 9.9-3.7 13.2 0 2.1 2.3-1.5 5.5-3.5 3.2-1.4-1.6-4.8-1.6-6.2 0-3.3 3.6-9.9 3.7-13.3-0.1-1.2-1.3-4.6-1.5-6.1 0.1-3.3 3.6-9.8 3.7-13.2-0.1-1.3-1.3-4.7-1.5-6.2 0.1z"/>
		<path id="Path 2241" class="s1" d="m194 293.3c-1.2 0-2.2-0.9-2.2-2.1 0-1.2 1-2.2 2.2-2.2 1.2 0 2.1 1 2.1 2.2 0 1.2-0.9 2.1-2.1 2.1z"/>
		<path id="Path 2242" class="s0" d="m171.6 134.2c-1.2 0-2.1-0.9-2.1-2.1 0-1.2 0.9-2.2 2.1-2.2 1.2 0 2.2 1 2.2 2.2 0 1.2-1 2.1-2.2 2.1z"/>
		<path id="Path 2243" class="s0" d="m614.3 57.1c-1.2 0-2.2-0.9-2.2-2.1 0-1.2 1-2.2 2.2-2.2 1.2 0 2.2 1 2.2 2.2 0 1.2-1 2.1-2.2 2.1z"/>
		<path id="Path 2244" class="s22" d="m316.9 8.1c-1.2 0-2.2-1-2.2-2.2 0-1.2 1-2.2 2.2-2.2 1.2 0 2.2 1 2.2 2.2 0 1.2-1 2.2-2.2 2.2z"/>
		<path id="Path 2245" class="s0" d="m540 398c-1.2 0-2.1-1-2.1-2.2 0-1.2 0.9-2.2 2.1-2.2 1.2 0 2.2 1 2.2 2.2 0 1.2-1 2.2-2.2 2.2z"/>
		<path id="Path 2246" class="s1" d="m621.7 253.9c-1.2 0-2.2-1-2.2-2.2 0-1.2 1-2.2 2.2-2.2 1.2 0 2.1 1 2.1 2.2 0 1.2-0.9 2.2-2.1 2.2z"/>
		<path id="Path 2247" class="s23" d="m88.4 232.9c-6.1 0-11.1-5-11.1-11 0-6.1 5-11 11.1-11 6 0 11 4.9 11 11 0 6-5 11-11 11z"/>
		<path id="Path 2248" class="s0" d="m498.3 316.4c-4.9 0-8.9-4-8.9-8.9 0-5 4-8.9 8.9-8.9 4.9 0 8.9 3.9 8.9 8.9 0 4.9-4 8.9-8.9 8.9z"/>
	</g>
</svg>