<svg xmlns="http://www.w3.org/2000/svg" width="632.975" height="483.667" viewBox="0 0 632.975 483.667">
  <g id="about-graphics" transform="translate(0 -0.003)">
    <ellipse id="Ellipse_91" data-name="Ellipse 91" cx="316.487" cy="42.59" rx="316.487" ry="42.59" transform="translate(0 398.489)" fill="#ffe9e8"/>
    <g id="Group_708" data-name="Group 708" transform="translate(21.134 62.772)">
      <path id="Path_2988" data-name="Path 2988" d="M92.887,420.589l-.151-.3-23.915-47.6.3-.151L344.532,234.17l.158.29,52.98,98.019,179.574-95.332L554.75,194.78l101.081,31-30.96,101.087L602.38,284.5,375.807,404.785l-53.7-99.35Zm-23.155-47.6L93.189,419.68l229.2-115.148.158.29,53.534,99.047L602.664,283.586l.158.3L624.7,325.1l30.28-98.873-98.864-30.318,22.043,41.52-.3.158L397.392,333.4l-53.144-98.322L69.732,372.988Z" transform="translate(-67.776 -194.78)" fill="#29140e"/>
      <path id="Path_2989" data-name="Path 2989" d="M651.708,291.21l-99.972-30.66L574,302.5l-180.17,95.651-53.141-98.316L65.58,438.046l23.76,47.3L318.553,370.19l53.7,99.344L598.824,349.25l22.265,41.939Z" transform="translate(-65.58 -239.355)" fill="#ee4437"/>
    </g>
    <g id="Group_709" data-name="Group 709" transform="translate(204.011 0.003)" opacity="0.4">
      <path id="Path_2990" data-name="Path 2990" d="M723.2,12.515S715.848-1.616,697.257.157s-16.381,15.936-25.233,14.608-21.25,0-23.905,8.853S633.51,27.6,633.069,35.125s13.722,12.839,30.1,6.2,24.347,5.159,47.366,3.023,25.871-4.792,39.5-3.464,13.3-8,7.1-14.2S725.851,21.075,723.2,12.515Z" transform="translate(-633.059 -0.003)" fill="#ffdbd9"/>
    </g>
    <g id="Group_710" data-name="Group 710" transform="translate(314.638 55.662)" opacity="0.6">
      <path id="Path_2991" data-name="Path 2991" d="M1035.455,180.927s-4.818-9.268-17.012-8.108S1007.7,183.27,1001.9,182.4s-13.935,0-15.678,5.807-9.581,2.614-9.871,7.547,9,8.421,19.742,4.064,15.968,3.384,31.066,1.982,16.967-3.142,25.9-2.272,8.724-5.246,4.66-9.313-20.519-3.677-22.259-9.291Z" transform="translate(-976.339 -172.718)" fill="#ffdbd9"/>
    </g>
    <g id="Group_711" data-name="Group 711" transform="translate(427.02 7.216)" opacity="0.6">
      <path id="Path_2992" data-name="Path 2992" d="M1386.061,30.854s-4.973-9.562-17.554-8.363-11.083,10.783-17.073,9.884-14.376,0-16.174,5.991-9.884,2.7-10.184,7.789,9.284,8.685,20.367,4.193,16.474,3.49,32.049,2.046,17.505-3.242,26.725-2.343,9-5.414,4.808-9.607-21.169-3.793-22.965-9.584Z" transform="translate(-1325.069 -22.387)" fill="#ffdbd9"/>
    </g>
    <g id="Group_712" data-name="Group 712" transform="translate(38.777 83.248)" opacity="0.6">
      <path id="Path_2993" data-name="Path 2993" d="M181.317,266.784s-4.972-9.562-17.55-8.363-11.083,10.783-17.073,9.884-14.376,0-16.174,5.991-9.884,2.7-10.183,7.789,9.284,8.685,20.367,4.193,16.474,3.49,32.049,2.046,17.505-3.242,26.725-2.343,9-5.414,4.808-9.607-21.169-3.793-22.964-9.584Z" transform="translate(-120.329 -258.317)" fill="#ffdbd9"/>
    </g>
    <g id="Group_714" data-name="Group 714" transform="translate(36.821 327.819)">
      <g id="Group_713" data-name="Group 713">
        <path id="Path_2994" data-name="Path 2994" d="M306.372,1145.726a1.069,1.069,0,0,1-.171-.016.891.891,0,0,1-.706-1.044L328.173,1026.9a.891.891,0,1,1,1.75.338L307.245,1145A.89.89,0,0,1,306.372,1145.726Z" transform="translate(-243.856 -1023.297)" fill="#2c2c36"/>
        <path id="Path_2995" data-name="Path 2995" d="M115.152,1132.74a.871.871,0,0,1-.2-.023.893.893,0,0,1-.667-1.07l26.438-113.72a.892.892,0,1,1,1.737.4l-26.438,113.72A.893.893,0,0,1,115.152,1132.74Z" transform="translate(-114.259 -1017.236)" fill="#2c2c36"/>
        <path id="Path_2996" data-name="Path 2996" d="M248.877,1053.063H190.531a1.031,1.031,0,1,1,0-2.062h58.346a1.031,1.031,0,1,1,0,2.062Z" transform="translate(-165.253 -1040.119)" fill="#2c2c36"/>
        <path id="Path_2997" data-name="Path 2997" d="M223.634,1167.87H223.6l-59.454-1.995a1.03,1.03,0,1,1,.068-2.059l59.454,1.995a1.03,1.03,0,0,1-.032,2.059Z" transform="translate(-147.393 -1116.578)" fill="#2c2c36"/>
        <path id="Path_2998" data-name="Path 2998" d="M196.292,1290.849a1.574,1.574,0,0,1-.171-.013l-59.673-9.9a1.031,1.031,0,0,1,.338-2.033l59.673,9.9a1.032,1.032,0,0,1-.168,2.049Z" transform="translate(-128.713 -1194.566)" fill="#2c2c36"/>
      </g>
      <path id="Path_2999" data-name="Path 2999" d="M393.186,1148.909a1.034,1.034,0,0,1-1.005-.806l-21.6-95.844a1.03,1.03,0,0,1,2.011-.451l21.6,95.844a1.028,1.028,0,0,1-.78,1.231,1.106,1.106,0,0,1-.229.026Z" transform="translate(-287.957 -1040.122)" fill="#2c2c36"/>
    </g>
    <g id="Group_735" data-name="Group 735" transform="translate(187.767 239.694)">
      <g id="Group_731" data-name="Group 731">
        <path id="Path_3000" data-name="Path 3000" d="M744.77,840.483c.432.171,7.95.98,10.8,13.757,2.452,11.021-7.5,2.291-7.5,2.291l-3.3-16.052Z" transform="translate(-692.526 -809.317)" fill="#ffb27d"/>
        <path id="Path_3001" data-name="Path 3001" d="M698.569,1306.17s.1,3.893,2.733,4.992,10.267,2.088,7.415,4.592c-1.637,1.437-9.352.509-11.527.509s-4.222.951-5.843-.509c-1.779-1.6,0-9.584,0-9.584a8.68,8.68,0,0,0,3.571.935A6.944,6.944,0,0,0,698.569,1306.17Z" transform="translate(-655.783 -1124.932)" fill="#ee4437"/>
        <path id="Path_3002" data-name="Path 3002" d="M604.679,1306.17s.1,3.893,2.733,4.992,10.267,2.088,7.415,4.592c-1.637,1.437-9.352.509-11.527.509s-4.222.947-5.843-.509c-1.779-1.6,0-9.584,0-9.584a8.68,8.68,0,0,0,3.571.935A6.944,6.944,0,0,0,604.679,1306.17Z" transform="translate(-592.15 -1124.932)" fill="#ee4437"/>
        <path id="Path_3003" data-name="Path 3003" d="M707.953,974.95s.487,16.3-4.715,47.566c-3.755,22.571-8.189,45.317-10.364,56.222a8.508,8.508,0,0,1-7.947,6.909l-2.088.084A7.142,7.142,0,0,1,675.53,1078l5.279-73.772,1.3-24.282,25.845-4.989Z" transform="translate(-645.586 -900.452)" fill="#2c2c36"/>
        <path id="Path_3004" data-name="Path 3004" d="M628.512,1001.9c.238,1.985,11.456,1.743,25.191,0s24.424-4.715,24.182-6.7-11.318-2.224-25.053-.487S628.273,999.913,628.512,1001.9Z" transform="translate(-613.731 -913.06)" fill="#29140e"/>
        <path id="Path_3005" data-name="Path 3005" d="M629.251,1007.849l-29.319,94.184a9.45,9.45,0,0,1-8.82,6.713l-1.763.029a6.691,6.691,0,0,1-6.584-7.963l16.039-88.5a2.915,2.915,0,0,1,2.024-2.182c5.5-1.585,28.962-6.181,28.424-2.285Z" transform="translate(-582.652 -921.711)" fill="#2c2c36"/>
        <path id="Path_3006" data-name="Path 3006" d="M632.693,829.122s3.9-10.976,17.8-10.477,24.389,18.762,26.989,58.01c0,0-22.755-4.989-49.412,6.651C628.068,883.307,626.589,845.119,632.693,829.122Z" transform="translate(-613.326 -794.507)" fill="#ee4437"/>
        <path id="Path_3007" data-name="Path 3007" d="M610.833,829.961l10.367,4.67s27.2,6.129,33.918,4.911,10.248-7.457,10.248-7.457-10.77-11.063-22.932-13.242a33.865,33.865,0,0,0-3.522-.329,34.615,34.615,0,0,0-6.149.135c-17.148,1.859-21.933,11.315-21.933,11.315Z" transform="translate(-601.749 -794.376)" fill="#ee4437"/>
        <path id="Path_3008" data-name="Path 3008" d="M685.607,1079.185l-.467-.155,6.307-19.168a18.659,18.659,0,0,1,8.434-10.4l.245.429a18.176,18.176,0,0,0-8.211,10.129Z" transform="translate(-652.112 -950.95)" fill="#020202"/>
        <g id="Group_717" data-name="Group 717" transform="translate(23.911)">
          <path id="Path_3009" data-name="Path 3009" d="M726.688,790.365l-.039-.158c.019,0,1.789-.438,2.288-1.643a2.369,2.369,0,0,0-.367-2.179c-.235-.383-.454-.732-.654-1.05-1.379-2.2-1.895-3.023-1.518-4.824l.158.032c-.364,1.737.106,2.485,1.5,4.705.2.319.419.667.654,1.054a2.527,2.527,0,0,1,.38,2.327,3.743,3.743,0,0,1-2.4,1.74Z" transform="translate(-703.904 -768.673)" fill="#29140e"/>
          <path id="Path_3010" data-name="Path 3010" d="M708.7,780.56a8.2,8.2,0,0,0,1.231,5.7c1.846,2.916-.164,5.05-2.665,3.928s-3.455,2.066-6.651.3S708.7,780.56,708.7,780.56Z" transform="translate(-686.121 -768.707)" fill="#29140e"/>
          <path id="Path_3011" data-name="Path 3011" d="M680.992,788.776a3.846,3.846,0,0,0,3.132-2.291l1.721-4,.5-1.16,2.939-6.826-.509,7.074-.306,4.244-.087,1.212a1.932,1.932,0,0,0,1.592,2.037h.016c.522.854,1.244,2.581-.912,3.268-2.536.806-6.639-1.189-8.108-3.555h.023Z" transform="translate(-673.197 -764.599)" fill="#ffb27d"/>
          <path id="Path_3012" data-name="Path 3012" d="M696.076,796.444c0,.039,0,.077.007.116.168,2.282,2.607,3.345,2.607,3.345l.016-.013.306-4.244a3.618,3.618,0,0,0-2.43-.248A1,1,0,0,0,696.076,796.444Z" transform="translate(-683.434 -778.674)" fill="#ed945c"/>
          <ellipse id="Ellipse_92" data-name="Ellipse 92" cx="6.645" cy="8.198" rx="6.645" ry="8.198" transform="translate(9.761 2.833)" fill="#ffb27d"/>
          <path id="Path_3013" data-name="Path 3013" d="M688.441,775.822a1.635,1.635,0,0,0,2.353.164,1.831,1.831,0,0,0-.374-2.44,1.635,1.635,0,0,0-2.353-.164A1.831,1.831,0,0,0,688.441,775.822Z" transform="translate(-677.79 -763.553)" fill="#ffb27d"/>
          <path id="Path_3014" data-name="Path 3014" d="M709.313,792.9a14.47,14.47,0,0,1-4.541-.744,2.212,2.212,0,0,0,2.269,2.388c1.431.087,2.269-1.644,2.269-1.644Z" transform="translate(-689.327 -776.568)" fill="#e9633e"/>
          <path id="Path_3015" data-name="Path 3015" d="M709.321,792.9a2.979,2.979,0,0,1-1.831.451,5.322,5.322,0,0,1-2.71-1.2A21.733,21.733,0,0,0,709.321,792.9Z" transform="translate(-689.334 -776.568)" fill="#fff"/>
          <path id="Path_3016" data-name="Path 3016" d="M705.6,777.318a.147.147,0,0,0,.1-.09.151.151,0,0,0-.084-.2,1.635,1.635,0,0,0-1.956.435.152.152,0,0,0,.006.213.162.162,0,0,0,.213-.007,2.575,2.575,0,0,1,1.624-.364.165.165,0,0,0,.1.006Z" transform="translate(-688.544 -766.209)" fill="#080435"/>
          <path id="Path_3017" data-name="Path 3017" d="M706.049,782.068c-.013.361.19.661.454.667s.483-.277.493-.638-.19-.661-.454-.667S706.058,781.707,706.049,782.068Z" transform="translate(-690.193 -769.296)" fill="#080435"/>
          <path id="Path_3018" data-name="Path 3018" d="M722.429,779.041a.153.153,0,0,0,.129-.045.152.152,0,0,0,0-.213,1.635,1.635,0,0,0-1.976-.342.155.155,0,0,0-.077.2.167.167,0,0,0,.2.077,2.574,2.574,0,0,1,1.64.284.157.157,0,0,0,.087.042Z" transform="translate(-699.983 -767.142)" fill="#080435"/>
          <path id="Path_3019" data-name="Path 3019" d="M720.949,783.138a.585.585,0,0,0,.164.789c.238.106.551-.071.7-.4a.585.585,0,0,0-.164-.79C721.41,782.629,721.1,782.806,720.949,783.138Z" transform="translate(-700.241 -770.16)" fill="#080435"/>
          <path id="Path_3020" data-name="Path 3020" d="M676.079,748.1s-.142,2.846-3.7,3.329-6,1.988-5.527,4.547,6.2,7.87,1.995,9.926-3.313-1.779-7.876-.889-5.385-5.2-2.243-8.74,1.869-12.894,13.651-12.478,7.467,9.816,7.467,9.816S676.073,751.239,676.079,748.1Z" transform="translate(-656.85 -743.778)" fill="#29140e"/>
          <path id="Path_3021" data-name="Path 3021" d="M680.78,772.935l-.035-.09a2.35,2.35,0,0,0,1.563-1.521c.506-1.863-1.7-4.724-3.651-7.248-.516-.67-1.005-1.3-1.437-1.908a4.53,4.53,0,0,1-.277-5.24,5.205,5.205,0,0,1,5.7-1.9,6.636,6.636,0,0,0,4.769-.438,4.372,4.372,0,0,0,1.453-1.208l.081.055c-.019.026-1.885,2.717-6.323,1.685a5.116,5.116,0,0,0-5.6,1.86,4.376,4.376,0,0,0,.277,5.13c.432.6.918,1.234,1.437,1.9,1.963,2.543,4.186,5.424,3.667,7.331a2.466,2.466,0,0,1-1.621,1.586Z" transform="translate(-669.988 -750.286)" fill="#fff"/>
          <path id="Path_3022" data-name="Path 3022" d="M719.666,777.689a1.916,1.916,0,0,1-1.018-.3c-1.431-.889-1.969-3.574-1.2-5.981h0a4.444,4.444,0,0,1,2.346-2.946,1.9,1.9,0,0,1,1.727.171c1.431.886,1.969,3.564,1.2,5.975a4.442,4.442,0,0,1-2.346,2.949,2.052,2.052,0,0,1-.709.129Zm-1.937-6.184c-.728,2.282-.245,4.811,1.076,5.636a1.663,1.663,0,0,0,1.466.142,4.165,4.165,0,0,0,2.166-2.762c.728-2.288.248-4.818-1.076-5.636a1.649,1.649,0,0,0-1.47-.142,4.15,4.15,0,0,0-2.166,2.762h0Z" transform="translate(-697.681 -760.418)" fill="#29140e"/>
          <g id="Group_715" data-name="Group 715" transform="translate(11.92 6.346)" opacity="0.3">
            <path id="Path_3023" data-name="Path 3023" d="M694,766.554c-.532,2.34.319,4.853,1.9,5.614s3.3-.522,3.835-2.865-.319-4.853-1.9-5.614S694.532,764.211,694,766.554Z" transform="translate(-693.839 -763.47)" fill="#fff"/>
          </g>
          <g id="Group_716" data-name="Group 716" transform="translate(19.525 8.133)" opacity="0.3">
            <path id="Path_3024" data-name="Path 3024" d="M717.616,772.071c-.535,2.353.177,4.9,1.589,5.7s2.991-.467,3.526-2.82-.177-4.9-1.589-5.7S718.151,769.719,717.616,772.071Z" transform="translate(-717.438 -769.014)" fill="#fff"/>
          </g>
          <path id="Path_3025" data-name="Path 3025" d="M696.679,771.183a2.42,2.42,0,0,1-1.06-.248c-1.747-.815-2.694-3.519-2.111-6.023h0a4.378,4.378,0,0,1,2.133-3.068,2.444,2.444,0,0,1,2.159-.016c1.747.822,2.694,3.522,2.111,6.023a4.4,4.4,0,0,1-2.14,3.074,2.528,2.528,0,0,1-1.092.261Zm.061-9.3a2.2,2.2,0,0,0-.97.232,4.162,4.162,0,0,0-1.976,2.871h0c-.551,2.372.322,4.924,1.95,5.688a2.2,2.2,0,0,0,1.9-.013,4.153,4.153,0,0,0,1.982-2.878c.548-2.372-.325-4.924-1.95-5.688A2.207,2.207,0,0,0,696.74,761.88Z" transform="translate(-681.578 -755.846)" fill="#29140e"/>
          <path id="Path_3026" data-name="Path 3026" d="M713.731,779.053a.277.277,0,0,1-.174-.064h0a2.486,2.486,0,0,0-1.982-.351.287.287,0,0,1-.326-.219.268.268,0,0,1,.219-.319,2.975,2.975,0,0,1,2.44.461.28.28,0,0,1,.035.39A.272.272,0,0,1,713.731,779.053Z" transform="translate(-693.715 -766.987)" fill="#29140e"/>
        </g>
        <path id="Path_3027" data-name="Path 3027" d="M610.83,852.22c-.155,1.038,3.313,2.507,7.741,3.281s8.14.564,8.295-.474-3.313-2.507-7.741-3.281S610.984,851.182,610.83,852.22Z" transform="translate(-601.746 -816.635)" fill="#29140e"/>
        <path id="Path_3028" data-name="Path 3028" d="M662.78,1005.571s27.408-5.237,36.3-2.765l-4.26,6.316-15.842.9Z" transform="translate(-636.958 -918.882)" fill="#2c2c36"/>
        <g id="Group_718" data-name="Group 718" transform="translate(55.469 33.237)">
          <path id="Path_3029" data-name="Path 3029" d="M1062.238,1195.766a.749.749,0,0,1-.6-.542l-19.958-65.007c-.106-.4,2.72-.805,3.12-.912a.744.744,0,0,1,.912.529l17.37,65a.745.745,0,0,1-.529.912A.767.767,0,0,1,1062.238,1195.766Z" transform="translate(-949.223 -1038.285)" fill="#2c2c36"/>
          <path id="Path_3030" data-name="Path 3030" d="M862.56,1217.614a.742.742,0,0,1-.519-.616l-11.382-67.043c-.055-.409,2.8-.445,3.21-.5a.745.745,0,0,1,.838.641l8.814,66.7a.745.745,0,0,1-.641.838.788.788,0,0,1-.316-.026Z" transform="translate(-819.759 -1051.954)" fill="#2c2c36"/>
          <path id="Path_3031" data-name="Path 3031" d="M756.119,1131.578a1.082,1.082,0,0,0,.764-.822l18.862-87.865c.094-.535-3.964-.467-4.541-.522a1.12,1.12,0,0,0-1.215.87l-15.2,87.324a.926.926,0,0,0,.877,1.067,1.111,1.111,0,0,0,.451-.048Z" transform="translate(-754.777 -979.378)" fill="#2c2c36"/>
          <path id="Path_3032" data-name="Path 3032" d="M762.529,851.219l77.3-4.3a5.059,5.059,0,0,1,5.072,3.429l30.2,89.067a5.06,5.06,0,0,1-3.206,6.429l-87.775,28.975a5.059,5.059,0,0,1-6.571-3.941L757.82,857.136a5.059,5.059,0,0,1,4.705-5.917Z" transform="translate(-756.788 -846.916)" fill="#2c2c36"/>
          <path id="Path_3033" data-name="Path 3033" d="M779.643,859.6l70.8-3.983a4.639,4.639,0,0,1,4.647,3.178l27.656,82.615a4.711,4.711,0,0,1-2.936,5.965l-80.385,26.877a4.634,4.634,0,0,1-6.02-3.655L775.334,865.086a4.679,4.679,0,0,1,4.309-5.488Z" transform="translate(-768.663 -852.807)" fill="#ffe9e8"/>
        </g>
        <g id="Group_721" data-name="Group 721" transform="translate(74.835 48.491)">
          <g id="Group_719" data-name="Group 719">
            <path id="Path_3034" data-name="Path 3034" d="M855.643,912.031a13.8,13.8,0,0,1,.838,8.782h0a11.569,11.569,0,0,1-2.846,5.05c-.084.087-.168.174-.251.258a17.553,17.553,0,0,1-10.606,4.621,25.568,25.568,0,0,1-4.073.11c-9.146-.458-18.578-5.572-22.133-14.289-3.1-7.605-2.046-15.33,4.041-19.432a17.783,17.783,0,0,1,7.364-2.694c7.054-1.067,15.552,2.494,21.582,8.563a27.857,27.857,0,0,1,6.088,9.023Z" transform="translate(-814.876 -894.247)" fill="#fff"/>
            <path id="Path_3035" data-name="Path 3035" d="M835.4,918.649l3.3,18.272c-9.146-.458-18.578-5.572-22.133-14.289-3.1-7.605-2.046-15.33,4.041-19.432l14.8,15.446Z" transform="translate(-814.869 -900.315)" fill="#2c2c36"/>
            <path id="Path_3036" data-name="Path 3036" d="M896.8,964.414a17.369,17.369,0,0,1-10.857,4.879,25.568,25.568,0,0,1-4.073.11l-3.3-18.272L896.8,964.41Z" transform="translate(-858.042 -932.799)" fill="#ee4437"/>
            <path id="Path_3037" data-name="Path 3037" d="M899.653,959.37a11.58,11.58,0,0,1-2.846,5.053c-.084.087-.168.174-.251.258L878.58,951.14Z" transform="translate(-858.048 -932.805)" fill="#ff867d"/>
            <path id="Path_3038" data-name="Path 3038" d="M898.815,930.453a13.8,13.8,0,0,1,.838,8.782h0L878.58,931l14.151-9.574a27.854,27.854,0,0,1,6.088,9.023Z" transform="translate(-858.048 -912.67)" fill="#a2a2a7"/>
          </g>
          <g id="Group_720" data-name="Group 720" transform="translate(14.655 5.673)">
            <path id="Path_3039" data-name="Path 3039" d="M872.07,912.7l-10.815,1.167a1.078,1.078,0,0,1-.828-.4c-.258-.464.151-.648.387-.674l10.912-.931a.63.63,0,0,1,.606.374h0a.318.318,0,0,1-.261.467Z" transform="translate(-860.345 -911.852)" fill="#ee4437"/>
            <path id="Path_3040" data-name="Path 3040" d="M871.886,920.173l-8.163.88a.831.831,0,0,1-.635-.325.335.335,0,0,1,.28-.538l8.24-.693a.486.486,0,0,1,.464.3h0a.249.249,0,0,1-.19.374Z" transform="translate(-862.158 -917.031)" fill="#ee4437"/>
          </g>
        </g>
        <g id="Group_724" data-name="Group 724" transform="translate(120.224 41.891)">
          <g id="Group_722" data-name="Group 722">
            <path id="Path_3041" data-name="Path 3041" d="M972.551,881.113a5.675,5.675,0,0,1,.345,3.625h0a4.757,4.757,0,0,1-1.176,2.085c-.035.035-.068.071-.1.106a7.257,7.257,0,0,1-4.38,1.908,10.805,10.805,0,0,1-1.682.045c-3.777-.19-7.673-2.3-9.143-5.9-1.279-3.142-.844-6.333,1.669-8.024a7.355,7.355,0,0,1,3.042-1.112c2.913-.441,6.423,1.031,8.914,3.538A11.505,11.505,0,0,1,972.551,881.113Z" transform="translate(-955.714 -873.769)" fill="#fff"/>
            <path id="Path_3042" data-name="Path 3042" d="M964.194,883.847l1.36,7.547c-3.777-.19-7.673-2.3-9.143-5.9-1.279-3.142-.844-6.332,1.669-8.024l6.11,6.381Z" transform="translate(-955.714 -876.277)" fill="#ee4437"/>
            <path id="Path_3043" data-name="Path 3043" d="M989.558,902.738a7.171,7.171,0,0,1-4.486,2.014,10.8,10.8,0,0,1-1.682.045l-1.36-7.547,7.528,5.485Z" transform="translate(-973.549 -889.683)" fill="#ff867d"/>
            <path id="Path_3044" data-name="Path 3044" d="M990.734,900.667a4.766,4.766,0,0,1-1.176,2.088c-.036.036-.068.071-.1.106l-7.425-5.591,8.7,3.4Z" transform="translate(-973.549 -889.696)" fill="#a2a2a7"/>
            <path id="Path_3045" data-name="Path 3045" d="M990.379,888.718a5.675,5.675,0,0,1,.345,3.625h0l-8.7-3.4,5.843-3.954a11.507,11.507,0,0,1,2.514,3.729Z" transform="translate(-973.542 -881.374)" fill="#2c2c36"/>
          </g>
          <g id="Group_723" data-name="Group 723" transform="translate(6.056 2.342)">
            <path id="Path_3046" data-name="Path 3046" d="M979.347,881.386l-4.467.48a.446.446,0,0,1-.342-.168c-.106-.19.061-.268.161-.277l4.505-.384a.256.256,0,0,1,.248.155h0A.131.131,0,0,1,979.347,881.386Z" transform="translate(-974.504 -881.037)" fill="#ee4437"/>
            <path id="Path_3047" data-name="Path 3047" d="M979.273,884.469l-3.371.364a.344.344,0,0,1-.261-.135c-.084-.155.042-.213.116-.222l3.4-.287a.208.208,0,0,1,.193.126h0a.1.1,0,0,1-.077.155Z" transform="translate(-975.256 -883.173)" fill="#ee4437"/>
          </g>
        </g>
        <g id="Group_727" data-name="Group 727" transform="translate(128.758 62.879)">
          <g id="Group_725" data-name="Group 725">
            <path id="Path_3048" data-name="Path 3048" d="M998.766,946.257a5.789,5.789,0,0,1,.348,3.625h0a4.749,4.749,0,0,1-1.154,2.082c-.032.035-.068.071-.1.106a7.046,7.046,0,0,1-4.305,1.9,10.143,10.143,0,0,1-1.656.042c-3.716-.2-7.554-2.314-9-5.917-1.267-3.142-.841-6.333,1.627-8.021a7.121,7.121,0,0,1,2.991-1.105c2.865-.435,6.323,1.041,8.775,3.551a11.578,11.578,0,0,1,2.481,3.732Z" transform="translate(-982.198 -938.895)" fill="#fff"/>
            <path id="Path_3049" data-name="Path 3049" d="M990.542,948.961l1.354,7.547c-3.716-.2-7.554-2.314-9-5.917-1.267-3.142-.841-6.332,1.627-8.021Z" transform="translate(-982.198 -941.386)" fill="#ee4437"/>
            <path id="Path_3050" data-name="Path 3050" d="M1015.508,967.9a6.986,6.986,0,0,1-4.408,2.008,10.129,10.129,0,0,1-1.656.042l-1.354-7.547,7.415,5.5Z" transform="translate(-999.746 -954.825)" fill="#2c2c36"/>
            <path id="Path_3051" data-name="Path 3051" d="M1016.662,965.813a4.777,4.777,0,0,1-1.154,2.085c-.032.035-.068.071-.1.106l-7.315-5.6,8.569,3.413Z" transform="translate(-999.746 -954.825)" fill="#ff867d"/>
            <path id="Path_3052" data-name="Path 3052" d="M1016.321,953.885a5.791,5.791,0,0,1,.348,3.625h0l-8.569-3.416,5.743-3.944a11.577,11.577,0,0,1,2.481,3.732Z" transform="translate(-999.753 -946.523)" fill="#a2a2a7"/>
          </g>
          <g id="Group_726" data-name="Group 726" transform="translate(5.949 2.35)">
            <path id="Path_3053" data-name="Path 3053" d="M1005.422,946.536l-4.392.474a.443.443,0,0,1-.338-.168c-.1-.193.061-.267.158-.277l4.434-.377a.254.254,0,0,1,.245.155h0a.131.131,0,0,1-.106.193Z" transform="translate(-1000.658 -946.187)" fill="#ee4437"/>
            <path id="Path_3054" data-name="Path 3054" d="M1005.355,949.619l-3.316.358a.338.338,0,0,1-.258-.135.139.139,0,0,1,.113-.223l3.348-.28a.2.2,0,0,1,.19.126h0A.1.1,0,0,1,1005.355,949.619Z" transform="translate(-1001.401 -948.323)" fill="#ee4437"/>
          </g>
        </g>
        <g id="Group_728" data-name="Group 728" transform="translate(86.175 92.773)">
          <path id="Path_3055" data-name="Path 3055" d="M853.724,1125.963l6.9-1.827-4.077-19.626-6.487,1.824Z" transform="translate(-850.06 -1081.033)" fill="#ee4437"/>
          <path id="Path_3056" data-name="Path 3056" d="M883.9,1088.176l6.9-1.831-6.9-33.215-6.271,1.447Z" transform="translate(-868.745 -1046.211)" fill="#cb1b0e"/>
          <path id="Path_3057" data-name="Path 3057" d="M924.859,1093.264l6.9-1.827-5.359-25.8-6.51,1.012Z" transform="translate(-897.386 -1054.689)" fill="#2c2c36"/>
          <path id="Path_3058" data-name="Path 3058" d="M958.774,1066.706l6.9-1.83-6.9-33.216-6.275,1.447Z" transform="translate(-919.487 -1031.66)" fill="#68686d"/>
        </g>
        <path id="Path_3059" data-name="Path 3059" d="M799.439,848.307a2.18,2.18,0,0,0-3.258,1.515c-.947,3.558.367,9.033,2,7.37a13.29,13.29,0,0,0,.864-3.084s-.11,5.175,1.6,4.711,1.792-5.043,1.792-5.043.58,5.491,2.024,4.554,1.331-4.544,1.331-4.544.374,4.976,2.024,3.848.686-4.969.67-6.668c-.016-1.6-1.147-1.875-2.8-1.821a2.326,2.326,0,0,0-2.636-.416c-.38.177-1.009-.583-1.308-.622a5.691,5.691,0,0,0-2.32.2Z" transform="translate(-727.153 -814.424)" fill="#ffb27d"/>
        <g id="Group_729" data-name="Group 729" transform="translate(56.157 50.488)">
          <path id="Path_3060" data-name="Path 3060" d="M757.184,906.627s3.094-5.3,6.619-6.017,8.566,1.041,6.474,1.947a23.713,23.713,0,0,1-5.082,1.324s6.432-.593,5.92.97S765,906.879,765,906.879s7.712-.1,6.748,1.224-6.822,1.353-6.822,1.353,7.177.2,6.023,1.7-5.93-.2-6.442,1.363-3.078,7.605-7.6,6.713l.274-12.61Z" transform="translate(-756.91 -900.444)" fill="#ffb27d"/>
          <path id="Path_3061" data-name="Path 3061" d="M774.629,911.693l-.21-.161c.719-.941,2.572-.844,2.652-.841l-.016.264C777.037,910.955,775.264,910.865,774.629,911.693Z" transform="translate(-768.777 -907.386)" fill="#e9845c"/>
          <path id="Path_3062" data-name="Path 3062" d="M772.524,921.166l-.174-.2a4.638,4.638,0,0,1,3.129-.973l-.019.264a4.478,4.478,0,0,0-2.933.909Z" transform="translate(-767.374 -913.687)" fill="#e9845c"/>
          <path id="Path_3063" data-name="Path 3063" d="M772.842,929.078l-.222-.142c.68-1.067,2.871-.951,2.965-.948l-.016.264C775.546,928.253,773.439,928.141,772.842,929.078Z" transform="translate(-767.557 -919.109)" fill="#e9845c"/>
        </g>
        <path id="Path_3064" data-name="Path 3064" d="M649.522,887.284c-12.7,0-22.426-3.342-29-9.98-9.88-9.984-7.006-23.4-6.935-23.963,0,0,.442-1.105,7.119-.058s6.642,2.591,6.642,2.591a12.334,12.334,0,0,0,3.078,11.827c5.021,4.973,16.319,8.192,29.323,6.658l-.071,12.687A83.9,83.9,0,0,1,649.522,887.284Z" transform="translate(-603.32 -817.687)" fill="#ffb27d"/>
        <g id="Group_730" data-name="Group 730" transform="translate(23.062 59.256)" opacity="0.5">
          <path id="Path_3065" data-name="Path 3065" d="M657.321,931.683a3.3,3.3,0,0,1-1.531-.4A3.182,3.182,0,0,1,654.453,930a1.5,1.5,0,0,1,1.238-2.33,3.386,3.386,0,0,1,3.149,1.669,1.5,1.5,0,0,1-1.238,2.33A2.664,2.664,0,0,1,657.321,931.683Zm-1.35-3.551a1.785,1.785,0,0,0-.229.013,1.025,1.025,0,0,0-.864,1.628,2.914,2.914,0,0,0,2.672,1.418,1.025,1.025,0,0,0,.864-1.627,2.706,2.706,0,0,0-1.138-1.083A2.81,2.81,0,0,0,655.971,928.131Z" transform="translate(-654.217 -927.652)" fill="#ec865c"/>
        </g>
      </g>
      <g id="Group_734" data-name="Group 734" transform="translate(132.179 94.22)">
        <g id="Group_732" data-name="Group 732">
          <path id="Path_3066" data-name="Path 3066" d="M999.182,1051.057l-5.891,1.763c-.129.039-.377-.158-.442-.4-.129-.493.1-.712.226-.751l5.939-1.511c.129-.039.274.132.319.38h0C999.378,1050.787,999.31,1051.019,999.182,1051.057Z" transform="translate(-992.81 -1045.64)" fill="#ee4437"/>
          <path id="Path_3067" data-name="Path 3067" d="M1001.851,1065.347l-5.891,1.763c-.129.039-.377-.158-.442-.4-.129-.493.1-.712.226-.751l5.939-1.511c.129-.039.274.132.319.38h0c.045.248-.023.48-.151.519Z" transform="translate(-994.62 -1055.325)" fill="#ee4437"/>
          <path id="Path_3068" data-name="Path 3068" d="M1022.654,1060.547l-3.754,1.121c-.084.026-.258-.2-.316-.438-.116-.5.016-.686.1-.712l3.8-.873c.084-.026.187.158.235.406h0C1022.764,1060.3,1022.735,1060.521,1022.654,1060.547Z" transform="translate(-1010.247 -1052.072)" fill="#ee4437"/>
          <path id="Path_3069" data-name="Path 3069" d="M1020.858,1045.463l-4.573,1.366c-.1.029-.3-.181-.364-.422-.122-.5.048-.7.148-.728l4.618-1.115c.1-.029.222.148.267.4h0c.045.248,0,.474-.1.506Z" transform="translate(-1008.444 -1041.85)" fill="#ee4437"/>
          <path id="Path_3070" data-name="Path 3070" d="M1041.875,1037.062l-7.734,2.311a.539.539,0,0,1-.548-.367.591.591,0,0,1,.332-.783l7.782-2.062c.171-.052.348.11.393.358h0a.464.464,0,0,1-.226.542Z" transform="translate(-1020.426 -1036.15)" fill="#ee4437"/>
          <path id="Path_3071" data-name="Path 3071" d="M1002.653,1056.263l-7.9,2.362a.524.524,0,0,1-.551-.329.562.562,0,0,1,.351-.738l7.947-2.13c.174-.052.351.093.393.322h0A.442.442,0,0,1,1002.653,1056.263Z" transform="translate(-993.73 -1049.208)" fill="#ee4437"/>
          <path id="Path_3072" data-name="Path 3072" d="M1032.9,1047.223l-7.9,2.362a.525.525,0,0,1-.551-.328.562.562,0,0,1,.351-.738l7.947-2.13c.174-.052.351.094.393.322h0a.442.442,0,0,1-.239.512Z" transform="translate(-1014.232 -1043.082)" fill="#ee4437"/>
        </g>
        <g id="Group_733" data-name="Group 733" transform="translate(2.13 11.376)">
          <path id="Path_3073" data-name="Path 3073" d="M1005.791,1086.361l-5.891,1.76c-.129.039-.377-.158-.442-.4-.129-.493.1-.712.226-.751l5.939-1.511c.129-.039.274.132.319.38h0c.045.248-.022.48-.151.519Z" transform="translate(-999.42 -1080.941)" fill="#ee4437"/>
          <path id="Path_3074" data-name="Path 3074" d="M1008.461,1100.647l-5.891,1.763c-.129.039-.377-.158-.442-.4-.129-.493.1-.712.226-.751l5.939-1.511c.129-.039.274.132.319.38h0c.045.248-.023.48-.151.519Z" transform="translate(-1001.23 -1090.625)" fill="#ee4437"/>
          <path id="Path_3075" data-name="Path 3075" d="M1029.264,1095.847l-3.754,1.122c-.084.026-.258-.2-.316-.438-.116-.5.016-.686.1-.712l3.8-.873c.084-.026.187.158.235.406h0C1029.374,1095.6,1029.345,1095.822,1029.264,1095.847Z" transform="translate(-1016.857 -1087.372)" fill="#ee4437"/>
          <path id="Path_3076" data-name="Path 3076" d="M1027.468,1080.763l-4.573,1.366c-.1.029-.3-.181-.364-.422-.122-.5.048-.7.148-.728l4.618-1.115c.1-.029.222.148.267.4h0c.045.248,0,.474-.1.506Z" transform="translate(-1015.054 -1077.15)" fill="#ee4437"/>
          <path id="Path_3077" data-name="Path 3077" d="M1048.485,1072.362l-7.734,2.311a.539.539,0,0,1-.548-.367.591.591,0,0,1,.332-.783l7.783-2.062c.171-.052.348.11.393.358h0a.464.464,0,0,1-.226.542Z" transform="translate(-1027.036 -1071.45)" fill="#ee4437"/>
          <path id="Path_3078" data-name="Path 3078" d="M1009.263,1091.563l-7.9,2.362a.524.524,0,0,1-.551-.328.561.561,0,0,1,.351-.738l7.947-2.13c.174-.052.351.093.393.322h0A.442.442,0,0,1,1009.263,1091.563Z" transform="translate(-1000.34 -1084.508)" fill="#ee4437"/>
          <path id="Path_3079" data-name="Path 3079" d="M1039.513,1082.523l-7.9,2.362a.524.524,0,0,1-.551-.329.562.562,0,0,1,.351-.738l7.947-2.13c.174-.052.351.094.393.322h0a.441.441,0,0,1-.239.512Z" transform="translate(-1020.842 -1078.382)" fill="#ee4437"/>
        </g>
      </g>
    </g>
    <g id="Group_739" data-name="Group 739" transform="translate(436.894 80.068)">
      <path id="Path_3080" data-name="Path 3080" d="M1529.344,706.928s1.205,6.784,3.944,10.164c1.8,2.23,6.732,6.6,3.377,8.227-2.678,1.3-8.076-3.886-9.816-5.163s-4.38-3.716-3.88-5.894a36.884,36.884,0,0,0,.467-10.113l5.907,2.778Z" transform="translate(-1469.026 -557.295)" fill="#29140e"/>
      <path id="Path_3081" data-name="Path 3081" d="M1483.129,687.766s-1.1,6.8.358,10.979c.96,2.755,4.141,8.659.464,8.959-2.939.238-6.3-6.613-7.509-8.45s-2.884-5.095-1.7-6.954a36.087,36.087,0,0,0,3.764-9.31Z" transform="translate(-1436.107 -542.954)" fill="#29140e"/>
      <path id="Path_3082" data-name="Path 3082" d="M1465.977,548.751c34.463-26.116,32.03-47.84,26.876-56.186-5.987-9.694-15.217-17.2-29.1-20.2a72.624,72.624,0,0,0-10.138-1.421,7.261,7.261,0,0,0-7.515,7.889l.719,12.675h-.026c5.878-.338,23.78.928,28.775,10.818,1.038,2.056-21.756,32.371-20.7,37.627,1.192,5.949,7.741,11.35,11.111,8.8Z" transform="translate(-1416.964 -399.231)" fill="#2c2c36"/>
      <path id="Path_3083" data-name="Path 3083" d="M1428.063,557.549a7.3,7.3,0,0,0,6.8-8.108c-.835-9.5-3.016-25.63-8.646-37.679a51.749,51.749,0,0,0-14.634-18.253,77.7,77.7,0,0,0-17.37-10.422c-10.992-4.882-18.769-3.87-18.769-3.87l-5.623,9.436c.08.013-1.363,9.365,11.4,17.209,7.045,4.325,21.008,6.629,27.089,18.237,4.341,8.289,6.252,19.416,7.019,27.212a6.917,6.917,0,0,0,6.938,6.416l5.791-.174Z" transform="translate(-1365.263 -404.791)" fill="#22252d"/>
      <path id="Path_3084" data-name="Path 3084" d="M1495.255,373.29a84.832,84.832,0,0,1,10.805,29.017c2.092,11.543-18.3-1.257-18.3-1.257l-1.657-24.212Z" transform="translate(-1444.08 -333.059)" fill="#ffb27d"/>
      <path id="Path_3085" data-name="Path 3085" d="M1376.505,339.677s5.221-10.206,18.085-7.589,18.5,16.226,20.467,49.306c0,0-7.212,14.618-42.174,13.058-3.874-.174-9.429-.516-7.75-7.209,3.12-12.443,5.743-37.131,11.376-47.569Z" transform="translate(-1361.887 -304.844)" fill="#ee4437"/>
      <path id="Path_3086" data-name="Path 3086" d="M1357.77,342.3l13.213,2.146s23.19,6.368,29.619,6.2a10.4,10.4,0,0,0,8.933-5.237,34.5,34.5,0,0,0-16.484-13.129,30.272,30.272,0,0,0-3.245-.983,22.35,22.35,0,0,0-5.743-.809c-21.685.506-26.293,11.817-26.293,11.817Z" transform="translate(-1357.106 -304.044)" fill="#ee4437"/>
      <path id="Path_3087" data-name="Path 3087" d="M1357.738,365.318c-.248,1.105,2.562,2.833,6.278,3.864s6.932.967,7.18-.139-2.562-2.833-6.278-3.864S1357.986,364.213,1357.738,365.318Z" transform="translate(-1357.074 -327.066)" fill="#29140e"/>
      <path id="Path_3088" data-name="Path 3088" d="M1359.622,398.874c5.9,9.094,17.2,14.634,28.862,13.832l-1.56-9.861c-9.107-1.424-16.245-7.409-17.705-12.613a45.073,45.073,0,0,1-.857-17.85,1.282,1.282,0,0,0-.484-1.186c-1.186-.9-4.247-2.7-9.61-2.62a1.054,1.054,0,0,0-1,.851c-1.959,9.01-2.923,21.331,2.343,29.445Z" transform="translate(-1355.709 -329.862)" fill="#ffb27d"/>
      <g id="Group_736" data-name="Group 736" transform="translate(7.335 66.564)" opacity="0.3">
        <path id="Path_3089" data-name="Path 3089" d="M1381,460.284a1.734,1.734,0,0,1-.6-.11,3.051,3.051,0,0,1-1.621-1.669c-.6-1.37-.3-2.871.664-3.352a1.54,1.54,0,0,1,1.244-.039,3.051,3.051,0,0,1,1.621,1.669c.6,1.37.3,2.871-.664,3.348A1.46,1.46,0,0,1,1381,460.284Zm-.9-4.837a1.02,1.02,0,0,0-.451.1c-.757.374-.96,1.618-.454,2.775a2.6,2.6,0,0,0,1.366,1.431,1.118,1.118,0,0,0,.9-.023c.757-.374.96-1.618.454-2.775a2.585,2.585,0,0,0-1.366-1.431,1.305,1.305,0,0,0-.445-.084Z" transform="translate(-1378.471 -455.003)" fill="#ec865c"/>
      </g>
      <g id="Group_737" data-name="Group 737" transform="translate(30.705 70.813)">
        <path id="Path_3090" data-name="Path 3090" d="M1451.5,470.358s8.3-3.116,11-1.879,5.279,4.989,3.448,4.6a18.718,18.718,0,0,1-4.044-1.576s4.612,2.765,3.532,3.625-5.066-1.586-5.066-1.586,5.24,3.751,3.97,4.215-5.227-2.417-5.227-2.417,4.744,3.7,3.258,4.2-3.9-3.081-4.979-2.22-3.777,4.731-6.4,1.853l.509-8.814Z" transform="translate(-1450.99 -468.188)" fill="#ffb27d"/>
        <path id="Path_3091" data-name="Path 3091" d="M1480.343,476.729s-1.16-.951-1.972-.677l-.071-.213c.928-.316,2.137.674,2.185.715Z" transform="translate(-1469.499 -473.332)" fill="#e9845c"/>
        <path id="Path_3092" data-name="Path 3092" d="M1474.783,482.859a3.581,3.581,0,0,0-2.4-.806l-.026-.222a3.692,3.692,0,0,1,2.568.857Z" transform="translate(-1465.473 -477.422)" fill="#e9845c"/>
        <path id="Path_3093" data-name="Path 3093" d="M1471.134,488.4s-1.379-1.131-2.214-.764l-.09-.206c.964-.425,2.388.748,2.449.8l-.142.171Z" transform="translate(-1463.081 -481.17)" fill="#e9845c"/>
      </g>
      <g id="Group_738" data-name="Group 738" transform="translate(32.155 64.787)">
        <path id="Path_3094" data-name="Path 3094" d="M1483.043,471.234l26.915-.954a1.321,1.321,0,0,0,1.212-.986l5.034-17.863a1.359,1.359,0,0,0-1.3-1.763l-25.884.918a2.77,2.77,0,0,0-2.536,2.063l-4.74,16.825a1.359,1.359,0,0,0,1.3,1.763Z" transform="translate(-1473.245 -449.609)" fill="#29140e"/>
        <path id="Path_3095" data-name="Path 3095" d="M1488.283,471.054l26.915-.954a1.321,1.321,0,0,0,1.212-.986l5.034-17.863a1.359,1.359,0,0,0-1.3-1.763l-25.884.918a2.77,2.77,0,0,0-2.536,2.063l-4.74,16.825a1.359,1.359,0,0,0,1.3,1.763Z" transform="translate(-1476.797 -449.487)" fill="#29140e"/>
        <path id="Path_3096" data-name="Path 3096" d="M1542.238,478.983c-.023-.67-.761-.918-1.4-.9a1.885,1.885,0,0,0-1.621,1.734c.039,1.015.793,1.118,1.431,1.1a2.194,2.194,0,0,0,1.589-1.937Z" transform="translate(-1512.234 -468.869)" fill="#daebe8"/>
        <path id="Path_3097" data-name="Path 3097" d="M1456.993,507.005l36.831-1.305.081,2.5-37.6,1.334a.813.813,0,0,1-.819-.809v-.013a1.611,1.611,0,0,1,1.505-1.7Z" transform="translate(-1455.487 -487.585)" fill="#29140e"/>
        <path id="Path_3098" data-name="Path 3098" d="M1495.577,461.292l-.177-.039a50.8,50.8,0,0,1,1.985-7.038,3.84,3.84,0,0,1,1.937-2.085l.055.171a3.763,3.763,0,0,0-1.831,1.992,51.945,51.945,0,0,0-1.969,7Z" transform="translate(-1482.537 -451.278)" fill="#621d46"/>
        <path id="Path_3099" data-name="Path 3099" d="M1484.476,493.833l-.006-.181c.88-.032,1.086-.425,1.086-.429l1.882-6.684.174.048-1.889,6.7c-.016.036-.248.509-1.25.545Z" transform="translate(-1475.13 -474.599)" fill="#621d46"/>
      </g>
      <path id="Path_3100" data-name="Path 3100" d="M1525.633,565.473a110,110,0,0,0-3.625-18.082c-2.572-8.775-7.376-20.254-15.678-25.117l.113-.193c8.366,4.9,13.2,16.435,15.781,25.253a109.6,109.6,0,0,1,3.632,18.121l-.222.023Z" transform="translate(-1457.79 -433.899)" fill="#020202"/>
      <path id="Path_3101" data-name="Path 3101" d="M1501.636,659.615a70.436,70.436,0,0,0-4.956-23.345l.2-.09a70.72,70.72,0,0,1,4.976,23.425l-.226.01Z" transform="translate(-1451.25 -511.229)" fill="#020202"/>
      <path id="Path_3102" data-name="Path 3102" d="M1461.791,307.72s-3.036-1.518-3.419-3.38-1.573-1.376-2.211-1.888,1.515-5.375,1.515-5.375l6.587-2.075-1.17,8.7-1.3,4.019Z" transform="translate(-1423.709 -279.999)" fill="#29140e"/>
      <path id="Path_3103" data-name="Path 3103" d="M1432.013,300.247a3.832,3.832,0,0,0,3.261-2.217l1.959-4.109.57-1.192,3.345-7.009-.938,7.428-.564,4.457-.161,1.27a2.034,2.034,0,0,0,1.466,2.249h.016c.471.935,1.086,2.8-1.108,3.39-2.578.69-6.548-1.682-7.87-4.27h.023Z" transform="translate(-1407.407 -273.709)" fill="#ffb27d"/>
      <path id="Path_3104" data-name="Path 3104" d="M1448.26,308.34v.122a4.71,4.71,0,0,0,2.4,3.7l.016-.013.564-4.457a3.467,3.467,0,0,0-2.407-.419,1.059,1.059,0,0,0-.57,1.067Z" transform="translate(-1418.434 -288.247)" fill="#e1986c"/>
      <path id="Path_3105" data-name="Path 3105" d="M1453.845,271.712c.274-4.776-2.468-8.84-6.129-9.075s-6.851,3.445-7.125,8.221,2.469,8.84,6.129,9.075S1453.571,276.488,1453.845,271.712Z" transform="translate(-1413.224 -258.058)" fill="#ffb27d"/>
      <path id="Path_3106" data-name="Path 3106" d="M1461.812,305.306a13.733,13.733,0,0,1-4.483-1.076,2.328,2.328,0,0,0,2.121,2.665c1.421.184,2.365-1.586,2.365-1.586Z" transform="translate(-1424.571 -286.254)" fill="#fff"/>
      <path id="Path_3107" data-name="Path 3107" d="M1458.982,288.8a.159.159,0,0,0,.106-.087.165.165,0,0,0-.071-.213,1.57,1.57,0,0,0-1.979.335.165.165,0,0,0-.006.226.161.161,0,0,0,.213.01,2.476,2.476,0,0,1,1.644-.28.14.14,0,0,0,.094.013Z" transform="translate(-1424.352 -275.451)" fill="#080435"/>
      <path id="Path_3108" data-name="Path 3108" d="M1458.172,293.418c-.032.38.151.709.412.735s.5-.261.532-.641-.151-.709-.412-.735S1458.2,293.038,1458.172,293.418Z" transform="translate(-1425.15 -278.491)" fill="#080435"/>
      <path id="Path_3109" data-name="Path 3109" d="M1471.417,295.274c-.055.377.106.715.367.761s.512-.226.57-.6-.106-.715-.367-.761S1471.475,294.9,1471.417,295.274Z" transform="translate(-1434.122 -279.773)" fill="#080435"/>
      <path id="Path_3110" data-name="Path 3110" d="M1444.3,255.933a12.275,12.275,0,0,1,8.16,12.165c-.01.319-.022.651-.042.986a4.787,4.787,0,0,0-3.861,4.128c-.122,1.112,2.813,3.207,3.032,3.12,1.64-.648,6.042-4.489,5.569-12.707s-3.119-14.4-10.187-15.108-6.41,4.347-6.41,4.347a6.749,6.749,0,0,0,3.742,3.065Z" transform="translate(-1413.209 -248.45)" fill="#29140e"/>
      <path id="Path_3111" data-name="Path 3111" d="M1434.306,264.191s-.126.074-.329.222a8.01,8.01,0,0,0-3.219,4.811c-.6,3.281,2.288,5.536,1.315,8.04s-2.991-.506-4.789-.184-3.045-.635-2.945-4.386,1.428-12.436,5.617-12.169Z" transform="translate(-1402.218 -256.631)" fill="#29140e"/>
      <path id="Path_3112" data-name="Path 3112" d="M1439.51,285.961a1.575,1.575,0,0,0,2.333.326,2.014,2.014,0,0,0-.225-2.6,1.575,1.575,0,0,0-2.333-.326A2.014,2.014,0,0,0,1439.51,285.961Z" transform="translate(-1412.094 -271.849)" fill="#ffb27d"/>
      <path id="Path_3113" data-name="Path 3113" d="M1463.014,284.879H1463a.079.079,0,0,1-.068-.093,21.041,21.041,0,0,0-2.594-13.554,9.043,9.043,0,0,0-4.234-3.777,4.653,4.653,0,0,0-2.046-.367.077.077,0,0,1-.09-.071.078.078,0,0,1,.071-.09,4.742,4.742,0,0,1,2.114.374,9.227,9.227,0,0,1,4.325,3.848,21.244,21.244,0,0,1,2.617,13.667.082.082,0,0,1-.08.071Z" transform="translate(-1422.302 -260.964)" fill="#fff"/>
      <path id="Path_3114" data-name="Path 3114" d="M1432.371,276.651a.083.083,0,0,1-.077-.052c-1.386-3.635-.219-9.707,1.221-11.447a2.945,2.945,0,0,1,3.613-.628.083.083,0,1,1-.08.145,2.733,2.733,0,0,0-3.406.59c-1.418,1.714-2.562,7.7-1.2,11.286a.084.084,0,0,1-.048.106.093.093,0,0,1-.029.006Z" transform="translate(-1407.193 -259.094)" fill="#fff"/>
      <path id="Path_3115" data-name="Path 3115" d="M1462.512,274.259h0a.083.083,0,0,1-.081-.084c0-.1-.01-10.161-3.677-12.111a6.784,6.784,0,0,0-4.7-.709,5.906,5.906,0,0,0-1.927.77.083.083,0,0,1-.1-.135,6.785,6.785,0,0,1,6.8-.074c1.582.841,2.694,3.161,3.31,6.9a36.642,36.642,0,0,1,.454,5.356.08.08,0,0,1-.081.081Z" transform="translate(-1420.965 -256.986)" fill="#fff"/>
    </g>
    <g id="Group_743" data-name="Group 743" transform="translate(516.01 236.786)">
      <path id="Path_3116" data-name="Path 3116" d="M1611.383,824.9s-5.546.471-7.721-1.676-3.313-6.519-1.679-5.472a20.182,20.182,0,0,1,3.342,2.955s-3.464-4.251-2.111-4.624,4.328,3.352,4.328,3.352-3.716-5.382-2.324-5.327,4.186,4.167,4.186,4.167-3.255-5.146-1.64-5.04,2.662,4.27,4.016,3.9a3.976,3.976,0,0,1,4.866,4.164l-5.266,3.606Z" transform="translate(-1601.209 -787.944)" fill="#ffb27d"/>
      <path id="Path_3117" data-name="Path 3117" d="M1684.347,858.536c-.229-13.915,1.2-17.125-12.472-22.613a94.593,94.593,0,0,0-12.533-2.73c-11.5-.989-20.07,12.736-21.356,15.765l-.029.068c-.216.509-.425,1.022-.641,1.569-.193.49-.367.951-.532,1.405-.081.222-.161.438-.238.664-.258.748-3.445-15.691-5.424-17.86-1.215-1.331-8.482,3.326-8.482,3.326-.786,2.945-.229,19.175,1.241,24.518,3.151,11.476,14.334,9.349,15.678,7.986-.129,3.016-.445,12.278-.413,15.714,0,0,21.82-5.333,46.725,5.814.042-.548-1.305-20.277-1.524-33.631Z" transform="translate(-1615.492 -801.436)" fill="#ee4437"/>
      <path id="Path_3118" data-name="Path 3118" d="M1711.6,1319.62s-.1,3.98-2.813,5.1-10.58,2.137-7.641,4.7c1.685,1.47,9.632.519,11.875.519s4.35.97,6.016-.519c1.834-1.64,0-9.8,0-9.8a9.006,9.006,0,0,1-3.677.957A7.159,7.159,0,0,1,1711.6,1319.62Z" transform="translate(-1668.503 -1131.14)" fill="#ee4437"/>
      <path id="Path_3119" data-name="Path 3119" d="M1681.65,1000.32s-2.614,8.289,2.745,40.257c3.87,23.077,7.119,46.1,9.362,57.25a8.749,8.749,0,0,0,8.186,7.064l2.153.087a7.323,7.323,0,0,0,7.528-7.908l-5.436-75.425-1.341-24.824-23.2,3.506Z" transform="translate(-1655.295 -912.367)" fill="#2c2c36"/>
      <path id="Path_3120" data-name="Path 3120" d="M1721.264,998.356c-.677,2.891-11.473,5.923-24.4,2.859s-23-6.323-22.327-9.214,11.856-4.322,24.779-1.257,22.62,4.718,21.943,7.609Z" transform="translate(-1650.888 -907.087)" fill="#29140e"/>
      <path id="Path_3121" data-name="Path 3121" d="M1808.333,1319.62s-.1,3.98-2.813,5.1-10.58,2.137-7.641,4.7c1.686,1.47,9.633.519,11.875.519s4.351.97,6.017-.519c1.834-1.64,0-9.8,0-9.8a9.005,9.005,0,0,1-3.677.957A7.159,7.159,0,0,1,1808.333,1319.62Z" transform="translate(-1734.061 -1131.14)" fill="#ee4437"/>
      <path id="Path_3122" data-name="Path 3122" d="M1682.972,1004.085l24.2,44.218,18.82,55.371a9.725,9.725,0,0,0,9.088,6.864l1.814.032a6.856,6.856,0,0,0,6.784-8.141l-18.375-93.172c-.239-1.076-4.364-2.491-5.421-2.752C1709.694,1003.995,1682.418,1000.1,1682.972,1004.085Z" transform="translate(-1656.618 -916.132)" fill="#2c2c36"/>
      <path id="Path_3123" data-name="Path 3123" d="M1736.309,1087.3l-6.664-24.982c-.239-.715-.471-1.5-.719-2.33-1.215-4.07-2.726-9.139-6.336-10.657l.2-.467c3.828,1.611,5.379,6.806,6.623,10.979.248.825.48,1.6.719,2.33l6.668,24.995-.49.132Z" transform="translate(-1683.473 -947.636)" fill="#020202"/>
      <path id="Path_3124" data-name="Path 3124" d="M1732.4,741.241s-.187-6.4,5.517-6.484,4.067,4.048,5,5.218-1.937,4.144-4.692,4.338S1732.4,741.241,1732.4,741.241Z" transform="translate(-1690.12 -734.756)" fill="#29140e"/>
      <path id="Path_3125" data-name="Path 3125" d="M1746.59,799.72a9.4,9.4,0,0,1-7.828,3.326c-4.837,0-2.585-4.943-2.585-4.943a1.771,1.771,0,0,0,1.937-1.8l.119-1.444.058-.715.19-2.288.171-2.056.7-8.427,2.23,8.579.38,1.457,1.308,5.03a4.605,4.605,0,0,0,3.3,3.274c.006,0,.016.006.026.006Z" transform="translate(-1692.328 -766.348)" fill="#ffb27d"/>
      <path id="Path_3126" data-name="Path 3126" d="M1747.511,812.53s-1.428,2.488-3.671,2.733l.19-2.288c1.4-.274,3.477-.445,3.477-.445Z" transform="translate(-1697.876 -787.466)" fill="#29140e"/>
      <path id="Path_3127" data-name="Path 3127" d="M1765.877,786.989a9.361,9.361,0,0,0-.912,4.148c-.225,4.305-5.314,4.415-6.091,2.9-.1-.187,2.369-6.806,2.369-6.806l1.737-.364,2.894.119Z" transform="translate(-1708.063 -770.076)" fill="#29140e"/>
      <path id="Path_3128" data-name="Path 3128" d="M1723.7,762.612c1.74-5.111,6.539-8.111,10.715-6.7s6.152,6.7,4.412,11.811-6.539,8.111-10.715,6.7S1721.96,767.723,1723.7,762.612Z" transform="translate(-1683.797 -748.857)" fill="#ffb27d"/>
      <path id="Path_3129" data-name="Path 3129" d="M1732.788,753.7c.113.354-2.7,4.715,5.807,8.856s6.806-8.366.329-10.825c-9.355-3.551-12.887,2.3-12.752,4.885s6.616-2.916,6.616-2.916Z" transform="translate(-1685.898 -745.505)" fill="#29140e"/>
      <path id="Path_3130" data-name="Path 3130" d="M1762.792,781.93s2.34,5.027-.242,8.488c0,0,2.884-1.573,3.223-2.411a34.214,34.214,0,0,0,.825-4.106Z" transform="translate(-1710.556 -766.728)" fill="#29140e"/>
      <path id="Path_3131" data-name="Path 3131" d="M1761.362,789.033a1.973,1.973,0,0,1-2.739-.719,2.172,2.172,0,0,1,1.363-2.61,1.973,1.973,0,0,1,2.739.719A2.172,2.172,0,0,1,1761.362,789.033Z" transform="translate(-1707.818 -769.116)" fill="#ffb27d"/>
      <path id="Path_3132" data-name="Path 3132" d="M1745.97,784.151a.184.184,0,0,1-.081-.142.18.18,0,0,1,.171-.19,1.98,1.98,0,0,1,2.059,1.244.182.182,0,0,1-.087.238.2.2,0,0,1-.242-.087,3.119,3.119,0,0,0-1.711-1.034.176.176,0,0,1-.11-.032Z" transform="translate(-1699.264 -768.001)" fill="#080435"/>
      <path id="Path_3133" data-name="Path 3133" d="M1745.987,790.171c-.126.413-.471.67-.773.58a.7.7,0,0,1-.319-.909c.126-.413.47-.67.773-.58A.7.7,0,0,1,1745.987,790.171Z" transform="translate(-1698.559 -771.685)" fill="#080435"/>
      <path id="Path_3134" data-name="Path 3134" d="M1725.832,779.977a.175.175,0,0,1-.129-.1.178.178,0,0,1,.084-.239,1.977,1.977,0,0,1,2.382.374.182.182,0,0,1,.01.255.2.2,0,0,1-.258.01,3.149,3.149,0,0,0-1.976-.313A.173.173,0,0,1,1725.832,779.977Z" transform="translate(-1685.571 -765.01)" fill="#080435"/>
      <path id="Path_3135" data-name="Path 3135" d="M1728.61,785.538c.042.429-.177.8-.49.828s-.6-.293-.641-.722.177-.8.49-.828S1728.568,785.109,1728.61,785.538Z" transform="translate(-1686.784 -768.682)" fill="#080435"/>
      <g id="Group_740" data-name="Group 740" transform="translate(44.732 13.381)" opacity="0.3">
        <path id="Path_3136" data-name="Path 3136" d="M1746.375,780.091c-.058,2.43-1.524,4.683-3.281,5.031s-3.132-1.337-3.078-3.767,1.528-4.682,3.281-5.031S1746.429,777.662,1746.375,780.091Z" transform="translate(-1740.015 -776.279)" fill="#fff"/>
      </g>
      <g id="Group_741" data-name="Group 741" transform="translate(37.328 12.164)" opacity="0.3">
        <path id="Path_3137" data-name="Path 3137" d="M1722.793,776.346c-.325,2.362-1.859,4.486-3.432,4.74s-2.584-1.457-2.259-3.819,1.859-4.486,3.432-4.74S1723.119,773.984,1722.793,776.346Z" transform="translate(-1717.041 -772.502)" fill="#fff"/>
      </g>
      <path id="Path_3138" data-name="Path 3138" d="M1745.474,779.675a6.638,6.638,0,0,0,.132-.954c.01-.113.016-.222.016-.335,0-.19,0-.371-.013-.554a4.2,4.2,0,0,0-1.334-2.987,2.482,2.482,0,0,0-2.127-.557,2.706,2.706,0,0,0-.47.135,5.146,5.146,0,0,0-2.8,3.355,5.265,5.265,0,0,0-.148.548,6.461,6.461,0,0,0-.168,1.347,5.887,5.887,0,0,0,.11,1.26,3.868,3.868,0,0,0,1.241,2.282,2.636,2.636,0,0,0,.822.471,2.511,2.511,0,0,0,.267.074,2.446,2.446,0,0,0,1.038.01,3.1,3.1,0,0,0,1.073-.429,5.348,5.348,0,0,0,2.024-2.565c.048-.113.094-.229.132-.348a6.686,6.686,0,0,0,.209-.751Zm-6.02,2.523a4.311,4.311,0,0,1-.487-1.328,5.383,5.383,0,0,1-.1-1.2,6.65,6.65,0,0,1,.142-1.221,5.13,5.13,0,0,1,.145-.554,4.769,4.769,0,0,1,2.7-3.219,2.616,2.616,0,0,1,.354-.1,2.182,2.182,0,0,1,1.872.49,3.226,3.226,0,0,1,.928,1.379,4.17,4.17,0,0,1,.2.722c0,.016.006.026.006.042a.083.083,0,0,1,.006.022,2.784,2.784,0,0,1,.058.4,5.6,5.6,0,0,1,.036.741,6.308,6.308,0,0,1-.068.819c-.026.18-.061.358-.1.535s-.1.367-.155.545h0a5.231,5.231,0,0,1-1.917,2.723,2.892,2.892,0,0,1-1.1.474,2.2,2.2,0,0,1-1.875-.49,2.884,2.884,0,0,1-.638-.77.017.017,0,0,0-.01-.013Z" transform="translate(-1694.296 -761.515)" fill="#c73b6c"/>
      <path id="Path_3139" data-name="Path 3139" d="M1722.056,776.15c.035-.126.064-.245.093-.374a.92.92,0,0,0-.113.026,7.1,7.1,0,0,1-.615,1.879.011.011,0,0,1,.006-.01c.035-.064.068-.122.1-.187,0-.01.01-.023.013-.032.039-.074.077-.151.109-.232.055-.113.106-.232.155-.351s.093-.242.135-.367.077-.235.109-.358Zm0,0c.035-.126.064-.245.093-.374a.92.92,0,0,0-.113.026,7.1,7.1,0,0,1-.615,1.879.011.011,0,0,1,.006-.01c.035-.064.068-.122.1-.187,0-.01.01-.023.013-.032.039-.074.077-.151.109-.232.055-.113.106-.232.155-.351s.093-.242.135-.367.077-.235.109-.358Zm0,0c.035-.126.064-.245.093-.374a.92.92,0,0,0-.113.026,7.1,7.1,0,0,1-.615,1.879.011.011,0,0,1,.006-.01c.035-.064.068-.122.1-.187,0-.01.01-.023.013-.032.039-.074.077-.151.109-.232.055-.113.106-.232.155-.351s.093-.242.135-.367.077-.235.109-.358Zm0,0c.035-.126.064-.245.093-.374a.92.92,0,0,0-.113.026,7.1,7.1,0,0,1-.615,1.879.011.011,0,0,1,.006-.01c.035-.064.068-.122.1-.187,0-.01.01-.023.013-.032.039-.074.077-.151.109-.232.055-.113.106-.232.155-.351s.093-.242.135-.367.077-.235.109-.358Zm0,0c.035-.126.064-.245.093-.374a.92.92,0,0,0-.113.026,7.1,7.1,0,0,1-.615,1.879.011.011,0,0,1,.006-.01c.035-.064.068-.122.1-.187,0-.01.01-.023.013-.032.039-.074.077-.151.109-.232.055-.113.106-.232.155-.351s.093-.242.135-.367.077-.235.109-.358Zm0,0c.035-.126.064-.245.093-.374a.92.92,0,0,0-.113.026,7.1,7.1,0,0,1-.615,1.879.011.011,0,0,1,.006-.01c.035-.064.068-.122.1-.187,0-.01.01-.023.013-.032.039-.074.077-.151.109-.232.055-.113.106-.232.155-.351s.093-.242.135-.367.077-.235.109-.358Zm0,0c.035-.126.064-.245.093-.374a.92.92,0,0,0-.113.026,7.1,7.1,0,0,1-.615,1.879.011.011,0,0,1,.006-.01c.035-.064.068-.122.1-.187,0-.01.01-.023.013-.032.039-.074.077-.151.109-.232.055-.113.106-.232.155-.351s.093-.242.135-.367.077-.235.109-.358Zm0,0c.035-.126.064-.245.093-.374a.92.92,0,0,0-.113.026,7.1,7.1,0,0,1-.615,1.879.011.011,0,0,1,.006-.01c.035-.064.068-.122.1-.187,0-.01.01-.023.013-.032.039-.074.077-.151.109-.232.055-.113.106-.232.155-.351s.093-.242.135-.367.077-.235.109-.358Zm.293-.4a5.426,5.426,0,0,0,.074-.561c.01-.1.016-.2.019-.3a4.506,4.506,0,0,0-1.2-3.629,2.082,2.082,0,0,0-.625-.371,1.835,1.835,0,0,0-.557-.119,2.052,2.052,0,0,0-.419.023h0a.665.665,0,0,0-.106.016c-1.679.338-3.152,2.685-3.271,5.24a4.5,4.5,0,0,0,1.2,3.629,2.022,2.022,0,0,0,.68.393,1.919,1.919,0,0,0,.9.077h.013c.039-.007.074-.01.116-.019a3.124,3.124,0,0,0,1.689-1.073h0a6.282,6.282,0,0,0,1.186-2.117,6.746,6.746,0,0,0,.293-1.183Zm-.967,2.011a5.027,5.027,0,0,1-1.028,1.392,2.633,2.633,0,0,1-1.051.625s-.006.007-.01,0h0a.112.112,0,0,1-.039.013,1.085,1.085,0,0,1-.139.035,1.445,1.445,0,0,1-.164.023,1.65,1.65,0,0,1-1.286-.409,4.178,4.178,0,0,1-1.1-3.323v-.061c.116-2.427,1.476-4.65,3.029-4.963a1.852,1.852,0,0,1,.3-.032,1.539,1.539,0,0,1,.57.081,1.836,1.836,0,0,1,.583.335.472.472,0,0,1,.042.039,3.042,3.042,0,0,1,.815,1.341,5.712,5.712,0,0,1,.239,2c-.006.116-.013.232-.022.345-.019.2-.048.4-.081.59a7.11,7.11,0,0,1-.615,1.879.349.349,0,0,0-.039.077Zm.674-1.608c.035-.126.064-.245.093-.374a.92.92,0,0,0-.113.026,7.1,7.1,0,0,1-.615,1.879.011.011,0,0,1,.006-.01c.035-.064.068-.122.1-.187,0-.01.01-.023.013-.032.039-.074.077-.151.109-.232.055-.113.106-.232.155-.351s.093-.242.135-.367.077-.235.109-.358Zm0,0c.035-.126.064-.245.093-.374a.92.92,0,0,0-.113.026,7.1,7.1,0,0,1-.615,1.879.011.011,0,0,1,.006-.01c.035-.064.068-.122.1-.187,0-.01.01-.023.013-.032.039-.074.077-.151.109-.232.055-.113.106-.232.155-.351s.093-.242.135-.367.077-.235.109-.358Zm0,0c.035-.126.064-.245.093-.374a.92.92,0,0,0-.113.026,7.1,7.1,0,0,1-.615,1.879.011.011,0,0,1,.006-.01c.035-.064.068-.122.1-.187,0-.01.01-.023.013-.032.039-.074.077-.151.109-.232.055-.113.106-.232.155-.351s.093-.242.135-.367.077-.235.109-.358Zm0,0c.035-.126.064-.245.093-.374a.92.92,0,0,0-.113.026,7.1,7.1,0,0,1-.615,1.879.011.011,0,0,1,.006-.01c.035-.064.068-.122.1-.187,0-.01.01-.023.013-.032.039-.074.077-.151.109-.232.055-.113.106-.232.155-.351s.093-.242.135-.367.077-.235.109-.358Zm0,0c.035-.126.064-.245.093-.374a.92.92,0,0,0-.113.026,7.1,7.1,0,0,1-.615,1.879.011.011,0,0,1,.006-.01c.035-.064.068-.122.1-.187,0-.01.01-.023.013-.032.039-.074.077-.151.109-.232.055-.113.106-.232.155-.351s.093-.242.135-.367.077-.235.109-.358Zm0,0c.035-.126.064-.245.093-.374a.92.92,0,0,0-.113.026,7.1,7.1,0,0,1-.615,1.879.011.011,0,0,1,.006-.01c.035-.064.068-.122.1-.187,0-.01.01-.023.013-.032.039-.074.077-.151.109-.232.055-.113.106-.232.155-.351s.093-.242.135-.367.077-.235.109-.358Zm0,0c.035-.126.064-.245.093-.374a.92.92,0,0,0-.113.026,7.1,7.1,0,0,1-.615,1.879.011.011,0,0,1,.006-.01c.035-.064.068-.122.1-.187,0-.01.01-.023.013-.032.039-.074.077-.151.109-.232.055-.113.106-.232.155-.351s.093-.242.135-.367.077-.235.109-.358Z" transform="translate(-1679.182 -759.159)" fill="#c73b6c"/>
      <path id="Path_3140" data-name="Path 3140" d="M1733.153,785.093a.281.281,0,0,1-.006-.532,3.087,3.087,0,0,1,2.5.425.279.279,0,1,1-.293.474,2.535,2.535,0,0,0-2.014-.374.277.277,0,0,1-.184,0Z" transform="translate(-1690.502 -768.443)" fill="#29140e"/>
      <path id="Path_3141" data-name="Path 3141" d="M1770.46,753.27s2.762-5.775,7.889-3.277,3.01,5.13,2.069,6.9c-.7,1.315-3.625,2.813-6.171,1.74S1770.46,753.27,1770.46,753.27Z" transform="translate(-1715.917 -744.657)" fill="#29140e"/>
      <path id="Path_3142" data-name="Path 3142" d="M1761.681,815.864a.181.181,0,0,0,.1-.013.175.175,0,0,0,.09-.229,7.857,7.857,0,0,0-2.846-3.149.176.176,0,0,0-.242.055.173.173,0,0,0,.055.238,7.572,7.572,0,0,1,2.71,2.994.176.176,0,0,0,.129.1Z" transform="translate(-1707.985 -787.41)" fill="#29140e"/>
      <path id="Path_3143" data-name="Path 3143" d="M1752.833,838.31l3.271.635a1.7,1.7,0,0,1-1.022,2.224c-1.6.535-1.921.535-2.436,1.766s-2.507,1.283-3.21.857-1.93,1.176-3.068,1.176-1.808-2-1.366-3.326a20.861,20.861,0,0,0,7.828-3.326Z" transform="translate(-1698.57 -804.938)" fill="#fff"/>
      <path id="Path_3144" data-name="Path 3144" d="M1730.171,832.028s-2.011,4.827,2.585,4.944c0,0-2.414,2.4-4.1,1.437s-.071-1.818-.79-2.462-1.508-1.105-.79-1.853.268-2.233.268-2.233a2.14,2.14,0,0,1,2.833.171Z" transform="translate(-1686.32 -800.271)" fill="#fff"/>
      <path id="Path_3145" data-name="Path 3145" d="M1729.264,869a.722.722,0,1,0-.722.715A.717.717,0,0,0,1729.264,869Z" transform="translate(-1687.018 -825.25)" fill="#fff"/>
      <path id="Path_3146" data-name="Path 3146" d="M1719.854,940.415a.722.722,0,1,0-.722.715A.717.717,0,0,0,1719.854,940.415Z" transform="translate(-1680.641 -873.654)" fill="#fff"/>
      <path id="Path_3147" data-name="Path 3147" d="M1719.854,908.055a.722.722,0,1,0-.722.716A.717.717,0,0,0,1719.854,908.055Z" transform="translate(-1680.641 -851.723)" fill="#fff"/>
      <g id="Group_742" data-name="Group 742" transform="translate(63.606 102.373)">
        <path id="Path_3148" data-name="Path 3148" d="M1839.924,1064.116l-1.724-.036.142-7.051a3.826,3.826,0,0,1,3.187-3.616l5.626-.935a3.823,3.823,0,0,1,4,1.956l3.606,7.351-1.55.76-3.59-7.322a2.091,2.091,0,0,0-2.182-1.041l-5.627.935a2.091,2.091,0,0,0-1.747,1.966l-.142,7.035Z" transform="translate(-1825.433 -1052.426)" fill="#29140e"/>
        <path id="Path_3149" data-name="Path 3149" d="M1808.676,1099.863l26.435-1.876a3.383,3.383,0,0,0,3.152-3.58l-1.205-18.733a3.391,3.391,0,0,0-3.87-3.126L1801.508,1077a3.373,3.373,0,0,0-2.684,4.583l6.448,16.155A3.4,3.4,0,0,0,1808.676,1099.863Z" transform="translate(-1798.583 -1066.04)" fill="#ee4437"/>
        <path id="Path_3150" data-name="Path 3150" d="M1821.4,1101.891l-.061-.01-18.9-3.429.071-.393,18.843,3.416,18.479-8.2.161.364Z" transform="translate(-1801.191 -1080.114)" fill="#29140e"/>
        <path id="Path_3151" data-name="Path 3151" d="M1858.018,1117.934h0a1.1,1.1,0,0,0,.909-1.263l-.177-1.044a1.105,1.105,0,0,0-1.273-.9h0a1.1,1.1,0,0,0-.909,1.263l.177,1.044A1.106,1.106,0,0,0,1858.018,1117.934Z" transform="translate(-1837.872 -1094.64)" fill="#29140e"/>
      </g>
      <path id="Path_3152" data-name="Path 3152" d="M1831.86,1040.135a34.171,34.171,0,0,0,1.337-3.4,21.463,21.463,0,0,1,1.089-2.646c.338-.622,7.383-.7,7.383-.7a23.831,23.831,0,0,1,2.1,5.089,2.684,2.684,0,0,1,.2.583c.338,1.55,1.1,3.687.155,4.505-1.034.9-1.676-.645-1.937-1.492.177.773.387,2.266-.374,3.107-.8.886-1.718-1.537-2.117-2.768h-.01c.284,1.109.677,3.252-.335,3.835-1.2.69-2.117-2.607-2.362-3.361a.769.769,0,0,0-.087.006c-.7,4.692-2.568,2.323-2.994-1.289-.683.751-2.236,2.1-2.739,1.75-.583-.406.367-2.588.693-3.216Z" transform="translate(-1756.937 -937.151)" fill="#ffb27d"/>
      <path id="Path_3153" data-name="Path 3153" d="M1778.73,842.03s18.733,5.4,23.477,30c2.639,13.69,5.643,24.821,5.221,32.278,0,.032-11.592,1.737-11.592,1.737s-7.432-38.253-16.68-46.763Z" transform="translate(-1721.522 -807.46)" fill="#ee4437"/>
      <path id="Path_3154" data-name="Path 3154" d="M1667.993,900.933a30.018,30.018,0,0,0-1.653-6.9l.2-.081a30.312,30.312,0,0,1,1.666,6.961Z" transform="translate(-1645.351 -842.648)" fill="#29140e"/>
      <path id="Path_3155" data-name="Path 3155" d="M1802.146,936.21a128.949,128.949,0,0,0-7.286-19.316l.193-.093a129,129,0,0,1,7.3,19.355Z" transform="translate(-1732.453 -858.134)" fill="#29140e"/>
      <path id="Path_3156" data-name="Path 3156" d="M1674.728,903.58c-.155-6.722,1.408-14.782,2.746-20.361,1.45-6.042,2.955-10.554,2.968-10.6l.2.068c-.016.045-1.518,4.55-2.965,10.583-1.334,5.565-2.894,13.606-2.739,20.3l-.216.006Z" transform="translate(-1651.028 -828.191)" fill="#29140e"/>
      <path id="Path_3157" data-name="Path 3157" d="M1733.275,801.729a3.278,3.278,0,0,1-3.193-1.7.092.092,0,0,1,.168-.077c1.012,2.191,4.131,1.5,4.16,1.486a.1.1,0,0,1,.113.071.093.093,0,0,1-.071.113,6.087,6.087,0,0,1-1.18.116Z" transform="translate(-1688.545 -778.901)" fill="#020202"/>
    </g>
    <g id="Group_744" data-name="Group 744" transform="translate(49.389 72.814)">
      <path id="Path_3158" data-name="Path 3158" d="M474.013,565.478s11.041.238,14.07-4.6-2.108-9.049-2.108-9.049l-16.426,8.882,4.467,4.766Z" transform="translate(-367.621 -446.808)" fill="#ffb27d"/>
      <rect id="Rectangle_710" data-name="Rectangle 710" width="9.126" height="143.358" transform="translate(6.495 176.662) rotate(-121.77)" fill="#29140e"/>
      <path id="Path_3159" data-name="Path 3159" d="M153.794,665.559l2.61,4.215a3.57,3.57,0,0,0,4.914,1.154l63.582-39.38a3.57,3.57,0,0,0,1.154-4.915l-2.61-4.215a3.57,3.57,0,0,0-4.914-1.154l-63.582,39.38A3.57,3.57,0,0,0,153.794,665.559Z" transform="translate(-153.258 -493.503)" fill="#29140e"/>
      <path id="Path_3160" data-name="Path 3160" d="M531.751,235.75a65.412,65.412,0,1,0,90.056,21.166,65.412,65.412,0,0,0-90.056-21.166Zm3.02,4.873a59.677,59.677,0,1,1-19.31,82.158,59.678,59.678,0,0,1,19.31-82.158Z" transform="translate(-388.782 -225.94)" fill="#29140e"/>
      <path id="Path_3161" data-name="Path 3161" d="M177.22,564.712c2.942-22.107,27.737-34.592,27.737-34.592s-2.1,49.261-6.345,47.8c-7.257-2.488-17.173-2.533-21.392-13.216Z" transform="translate(-169.498 -432.094)" fill="#cb1b0e"/>
      <path id="Path_3162" data-name="Path 3162" d="M312.2,1022.342s-.029,3.706,2.407,4.828,9.552,2.288,6.8,4.583c-1.576,1.318-8.772.209-10.812.145s-3.983.78-5.453-.654c-1.618-1.576.293-9.114.293-9.114a8.037,8.037,0,0,0,3.313.992,6.448,6.448,0,0,0,3.448-.783Z" transform="translate(-255.755 -765.548)" fill="#29140e"/>
      <path id="Path_3163" data-name="Path 3163" d="M320.974,721.635c-.477,7.683-1.376,17.65-3.045,29.845C314.751,774.725,310.9,798.166,309,809.4a8.645,8.645,0,0,1-7.834,7.3l-2.108.145a7.266,7.266,0,0,1-7.589-7.728l3.319-75.777.316-12.053s26.658-12.259,25.874.345Z" transform="translate(-246.92 -558.036)" fill="#2c2c36"/>
      <path id="Path_3164" data-name="Path 3164" d="M235.35,1022.407s-.013,3.706,2.423,4.818,9.562,2.249,6.822,4.557c-1.573,1.324-8.772.245-10.809.187s-3.98.793-5.456-.635c-1.624-1.569.258-9.114.258-9.114a8.034,8.034,0,0,0,3.319.98,6.46,6.46,0,0,0,3.445-.8Z" transform="translate(-203.69 -765.609)" fill="#29140e"/>
      <path id="Path_3165" data-name="Path 3165" d="M248.883,676.48s.938,16.7-3.464,48.894c-3.178,23.245-7.032,46.686-8.933,57.923a8.645,8.645,0,0,1-7.834,7.3l-2.108.145a7.267,7.267,0,0,1-7.589-7.728l3.319-75.777.651-24.93Z" transform="translate(-197.778 -531.288)" fill="#2c2c36"/>
      <path id="Path_3166" data-name="Path 3166" d="M275.22,789.519c-.019-.139-1.818-13.8-3.168-18.691-1.341-4.847-7.547-9.059-7.612-9.1l.18-.268c.064.042,6.371,4.321,7.741,9.281,1.357,4.914,3.158,18.6,3.178,18.736Z" transform="translate(-228.61 -588.882)" fill="#29140e"/>
      <path id="Path_3167" data-name="Path 3167" d="M289.037,485.661l1.64-5,.477-1.453,2.81-8.553.371,8.508.222,5.1.071,1.618c.048,1.1.757,1.328,1.621,2.282.348.387,2.588,2.73.048,3.787-3.165,1.318-9.078-.677-11.328-3.294.016,0,3.538-1.389,4.07-3Z" transform="translate(-242.524 -391.796)" fill="#ffb27d"/>
      <path id="Path_3168" data-name="Path 3168" d="M302.529,460.36c-.7-5.018-4.844-8.643-9.255-8.1s-7.425,5.056-6.726,10.074,4.844,8.643,9.255,8.1S303.228,465.378,302.529,460.36Z" transform="translate(-243.525 -379.292)" fill="#ffb27d"/>
      <path id="Path_3169" data-name="Path 3169" d="M291.188,447.235c4.608.164,6.845-2.343,6.9-4.666.068-2.978-1.921-5.614-4.235-4.508s-1.321-1.608-3.548-1.895c-4.16-.538-4.94,2.249-8.343,2.388-4.489.18-9.61,7.232-5.846,12.381,0,0,11.437-3.828,15.075-3.7Z" transform="translate(-235.635 -368.371)" fill="#29140e"/>
      <path id="Path_3170" data-name="Path 3170" d="M297.651,456.924s-4.924,4.47-4.273,6.983.487,3.5-2.391,4.84-.335,3.519-4.17,3.677-8.527-4.112-8.527-11.131a10.212,10.212,0,0,1,2.385-6.474l16.974,2.1Z" transform="translate(-237.997 -381.061)" fill="#29140e"/>
      <path id="Path_3171" data-name="Path 3171" d="M326.694,481.111a1.727,1.727,0,0,0-2.291-.5,1.514,1.514,0,0,0-.271,2.2,1.727,1.727,0,0,0,2.291.5A1.514,1.514,0,0,0,326.694,481.111Z" transform="translate(-268.828 -398.373)" fill="#ffb27d"/>
      <path id="Path_3172" data-name="Path 3172" d="M272.888,484.378h-.026a.119.119,0,0,1-.087-.139,2.843,2.843,0,0,1,1.3-1.64.116.116,0,1,1,.113.2A2.664,2.664,0,0,0,273,484.294a.12.12,0,0,1-.113.09Z" transform="translate(-234.257 -399.877)" fill="#29140e"/>
      <path id="Path_3173" data-name="Path 3173" d="M273.512,478.83h-.006c-.058,0-1.437-.1-1.65-1.18a.115.115,0,0,1,.226-.045c.177.906,1.424.993,1.437.993a.116.116,0,0,1-.006.232Z" transform="translate(-233.634 -396.44)" fill="#29140e"/>
      <path id="Path_3174" data-name="Path 3174" d="M329.275,437.653a.752.752,0,0,1-.438-.139c-.6-.406-.722-1.589-.728-1.64a.113.113,0,0,1,.1-.126.115.115,0,0,1,.126.1c0,.01.122,1.128.628,1.473a.559.559,0,0,0,.493.071,3.09,3.09,0,0,0,.88-.445,2.159,2.159,0,0,1,2.114-.361.116.116,0,0,1-.068.222,1.923,1.923,0,0,0-1.921.332,3.28,3.28,0,0,1-.944.474.96.96,0,0,1-.248.035Z" transform="translate(-271.76 -368.135)" fill="#29140e"/>
      <path id="Path_3175" data-name="Path 3175" d="M296.786,439.716a3.627,3.627,0,0,1-.522-.039.116.116,0,0,1,.035-.229,4.553,4.553,0,0,0,3.29-1.07.116.116,0,0,1,.155.174,4.913,4.913,0,0,1-2.955,1.167Z" transform="translate(-250.112 -369.898)" fill="#29140e"/>
      <path id="Path_3176" data-name="Path 3176" d="M325.7,488.027a1.765,1.765,0,0,1-1.563-1.105.055.055,0,1,1,.1-.052c.706,1.328,1.708,1.028,1.75,1.015a.056.056,0,1,1,.035.106,1.206,1.206,0,0,1-.316.039Z" transform="translate(-269.066 -402.763)" fill="#29140e"/>
      <path id="Path_3177" data-name="Path 3177" d="M278.885,714.142s-33.425-1.853-49.29,2.027l-.235-4.592L251.6,704.89l17.956.448,5.517,1.2,3.893,6.1-.084,1.5Z" transform="translate(-204.835 -550.543)" fill="#29140e"/>
      <path id="Path_3178" data-name="Path 3178" d="M230.63,533.045S233.572,520.2,251.57,520.2c31.363,0,22.565,25.974,25.468,67.269,0,0-20.219-4.45-49.48,1.473,0,0-2.849-22.365.831-41.269C229.363,542.681,229.186,537.386,230.63,533.045Z" transform="translate(-202.902 -425.371)" fill="#cb1b0e"/>
      <path id="Path_3179" data-name="Path 3179" d="M315.473,520.2s10.061.148,17.544,7.319,17.115,17.044,19.159,22.726c2.517,7-2.117,14.015-8,14.167s-11.16-4.183-11.16-4.183L315.47,520.2Z" transform="translate(-263.195 -425.371)" fill="#cb1b0e"/>
      <path id="Path_3180" data-name="Path 3180" d="M226.528,632.856a170.257,170.257,0,0,1,1.982-33l.219.039a169.866,169.866,0,0,0-1.979,32.948l-.222.013Z" transform="translate(-202.802 -479.36)" fill="#29140e"/>
      <path id="Path_3181" data-name="Path 3181" d="M351.841,623.975c-5.946-3.561-13.664-12.919-13.741-13.013l.171-.142c.077.093,7.77,9.423,13.683,12.965Z" transform="translate(-278.532 -486.788)" fill="#29140e"/>
      <path id="Path_3182" data-name="Path 3182" d="M420.071,585.864c.074,4.579-22.607,21.321-36.219,18.524-14.47-2.971,3.384-19.071,3.384-19.071L413.9,579.18s6.094,2.04,6.168,6.68Z" transform="translate(-305.706 -465.344)" fill="#cb1b0e"/>
      <path id="Path_3183" data-name="Path 3183" d="M488.937,561.4a3.319,3.319,0,0,1,1.057-2.9c1.366-1.205,2.791-6.71,3.68-5.33s.071,5.772,1.431,6.245-6.168,1.992-6.168,1.992Z" transform="translate(-380.74 -447.565)" fill="#ffb27d"/>
    </g>
    <g id="Group_746" data-name="Group 746" transform="translate(369.396 239.78)">
      <path id="Path_3184" data-name="Path 3184" d="M1162.519,1022.864c.867,1.386,1.963,4.512,2.8,5.917.364.609,1.447,2.739.9,3.187-.477.39-2.13-.886-2.849-1.589-.293,4.692-2.787,11.408-2.881,1.534h-.016c-.081,1-.535,6.561-1.808,5.929-1.122-.557-.96-4.55-.841-6.2a.228.228,0,0,1-.045-.01c-.261,1.663-1,5.659-1.895,4.779-1.125-1.105-1.051-5.488-1.051-5.488s-.219,5.6-1.669,4.486c-.818-.625-.364-3.819-.055-5.8h0c.064-.416.126-.78.164-1.054a2.737,2.737,0,0,1,.155-.6,24.4,24.4,0,0,1,1.74-5.272,3.466,3.466,0,0,1,3.667-2.32,5.566,5.566,0,0,1,3.677,2.5Z" transform="translate(-1150.627 -931.305)" fill="#ffb27d"/>
      <path id="Path_3185" data-name="Path 3185" d="M1160.336,912.978c10.467-6.877-.777-28.169,3.574-42.864a42.807,42.807,0,0,1,2.314-6.584c.7-1.524-1.189-4.5-3.783-5.72-2.436-1.15-8.279-.393-8.74.377-7.048,11.759-9.326,31.069-5.814,55.716,0,0,7.96,2.027,12.452-.925Z" transform="translate(-1146.259 -820.749)" fill="#2c2c36"/>
      <path id="Path_3186" data-name="Path 3186" d="M1217.557,1306.99s-.09,3.548-2.488,4.547-9.355,1.9-6.755,4.183c1.492,1.308,8.517.464,10.5.464s3.848.864,5.321-.464c1.621-1.46,0-8.73,0-8.73a7.9,7.9,0,0,1-3.252.851,6.331,6.331,0,0,1-3.326-.851Z" transform="translate(-1187.928 -1125.575)" fill="#2c2c36"/>
      <path id="Path_3187" data-name="Path 3187" d="M1173.925,974.84s-.48,16.007,4.631,46.712c3.687,22.168,8.04,44.5,10.177,55.216a8.351,8.351,0,0,0,7.805,6.784l2.053.084a7.012,7.012,0,0,0,7.177-7.6l-5.182-72.451-1.276-23.848-25.381-4.9Z" transform="translate(-1165.001 -900.464)" fill="#ee4437"/>
      <path id="Path_3188" data-name="Path 3188" d="M1288.1,1306.99s-.09,3.548-2.488,4.547-9.355,1.9-6.755,4.183c1.492,1.308,8.517.464,10.5.464s3.848.864,5.32-.464c1.621-1.46,0-8.73,0-8.73a7.9,7.9,0,0,1-3.252.851,6.331,6.331,0,0,1-3.326-.851Z" transform="translate(-1235.736 -1125.575)" fill="#2c2c36"/>
      <path id="Path_3189" data-name="Path 3189" d="M1244.455,974.84s-.48,16.007,4.631,46.712c3.687,22.168,8.04,44.5,10.177,55.216a8.351,8.351,0,0,0,7.805,6.784l2.053.084a7.011,7.011,0,0,0,7.177-7.6l-5.182-72.451-1.276-23.848-25.382-4.9Z" transform="translate(-1212.802 -900.464)" fill="#ee4437"/>
      <path id="Path_3190" data-name="Path 3190" d="M1221.446,1019.089c-.048,1.93-11.727,2.7-26.171,2.246s-25.984-2.449-25.936-4.38,11.672-3.065,26.113-2.614,26.042,2.813,25.99,4.747Z" transform="translate(-1161.902 -927.17)" fill="#29140e"/>
      <path id="Path_3191" data-name="Path 3191" d="M1217.911,838.114s-2.556-10.122-21.4-10.225c-27.173-.148-24.659,24.821-27.173,62.767,0,0,26.767-3.787,52.119,1.656,0,0,2.353-38.733-3.548-54.2Z" transform="translate(-1161.902 -800.869)" fill="#2c2c36"/>
      <path id="Path_3192" data-name="Path 3192" d="M1224.876,836.482l-12.307,6.809s-26.948,2.446-34.1,1.27-9.117-6.432-9.117-6.432a39.424,39.424,0,0,1,20.57-9.987q1.827-.3,3.786-.432a37.239,37.239,0,0,1,6.545.129c16.413,1.85,24.624,8.643,24.624,8.643Z" transform="translate(-1161.909 -800.691)" fill="#2c2c36"/>
      <path id="Path_3193" data-name="Path 3193" d="M1176.393,1024.1s15.649-4.605,48.059,1.714l.248,4.663-47.511,1.679-.8-8.057Z" transform="translate(-1166.68 -932.754)" fill="#ee4437"/>
      <path id="Path_3194" data-name="Path 3194" d="M1324.413,910.527c-1.135-12.472-10.358-45.123-11.431-46.912-.864-1.437.683-4.6,3.129-6.1,2.295-1.415,5.26-3.216,5.946-2.636,9.687,8.166,18.021,38.011,15.394,54.546l-13.035,1.105Z" transform="translate(-1259.09 -819.084)" fill="#2c2c36"/>
      <path id="Path_3195" data-name="Path 3195" d="M1251.643,794.472c-1.949,2.4-5.453,2.063-8.192.854-2.2-.973-1.885-.954-1.582-1.308.744-.877,1.363-1.086,1.4-2.095l.055-1.321.006-.164.071-1.721.123-2.971.319-7.815,2.436,7.857.413,1.337,1.421,4.592c.458,1.482,3.509,2.755,3.526,2.758Z" transform="translate(-1210.912 -767.011)" fill="#ffb27d"/>
      <path id="Path_3196" data-name="Path 3196" d="M1250.5,810.1a5.417,5.417,0,0,1-3.661,2.3l.006-.164.071-1.721c1.347-.129,3.587-.419,3.587-.419Z" transform="translate(-1214.426 -788.814)" fill="#29140e"/>
      <path id="Path_3197" data-name="Path 3197" d="M1208.613,884.7s.786,7.216,5.917,11.121a22.122,22.122,0,0,0,5.5-5.5,12.847,12.847,0,0,0,2.333-5.62,40.308,40.308,0,0,0,.1-5.008c-.074-1.84-.2-4.025-.319-6.407-.222-4.173-.541-8.911-.76-13.377-.122-2.456-.219-4.837-.271-6.971-.1-4.541.026-8.1.59-9.352l-2.456-.761s-1.057,2.726-2.5,6.874c-.542,1.6-1.154,3.387-1.792,5.3-.983,3.068-2.037,6.481-2.994,9.916-.516,1.892-1.031,3.806-1.447,5.672a70.521,70.521,0,0,0-1.818,10.628,21.137,21.137,0,0,0-.074,3.487Z" transform="translate(-1188.491 -810.996)" fill="#ee4437"/>
      <path id="Path_3198" data-name="Path 3198" d="M1361.846,1018.178c.078,1.8-2.794,3.426-6.416,3.616s-6.616-1.121-6.693-2.926,2.794-3.426,6.416-3.616S1361.769,1016.373,1361.846,1018.178Z" transform="translate(-1283.485 -927.84)" fill="#29140e"/>
      <path id="Path_3199" data-name="Path 3199" d="M1168.232,930.656c-.023-.271-2.208-27.128,5.582-43.766l.287.135c-7.754,16.561-5.575,43.338-5.552,43.605Z" transform="translate(-1160.948 -840.857)" fill="#29140e"/>
      <path id="Path_3200" data-name="Path 3200" d="M1318.7,917.3a45.957,45.957,0,0,0-6.345-14.389l.255-.184a46.316,46.316,0,0,1,6.4,14.5Z" transform="translate(-1258.825 -851.593)" fill="#29140e"/>
      <path id="Path_3201" data-name="Path 3201" d="M1236.554,762.46a10.329,10.329,0,0,0-1.421,4.044c-.322,2.414,3.909-2.314,3.909-2.314Z" transform="translate(-1206.481 -756.526)" fill="#29140e"/>
      <path id="Path_3202" data-name="Path 3202" d="M1231.375,766.216c2.1-4.151,6.59-6.1,10.032-4.363s4.531,6.516,2.433,10.667-6.59,6.1-10.032,4.363S1229.277,770.366,1231.375,766.216Z" transform="translate(-1203.222 -755.683)" fill="#ffb27d"/>
      <path id="Path_3203" data-name="Path 3203" d="M1246.678,758.666l-3.074-1.45a2.46,2.46,0,0,1-1.357-1.647c-.293-1.254-.9-2.053-3.912-2.987-3.816-1.183-5.517-4.3-5.23-6.416a2.385,2.385,0,0,1,4.254-1.221c1.557,1.624,1.569-1.015,3.477-.625,3.564.728,3.281,3.571,6.094,4.463,3.69,1.17,9.255,6.239,3.9,11.576l-4.151-1.7Z" transform="translate(-1205.097 -744.048)" fill="#29140e"/>
      <path id="Path_3204" data-name="Path 3204" d="M1250.845,783.151a.14.14,0,0,1,.145-.222,1.534,1.534,0,0,1,1.231,1.418.141.141,0,0,1-.122.158.154.154,0,0,1-.158-.122,2.457,2.457,0,0,0-1.022-1.18.137.137,0,0,1-.074-.048Z" transform="translate(-1217.12 -770.395)" fill="#080435"/>
      <path id="Path_3205" data-name="Path 3205" d="M1249.011,787.869a.467.467,0,1,1-.019-.754A.55.55,0,0,1,1249.011,787.869Z" transform="translate(-1215.309 -773.196)" fill="#080435"/>
      <path id="Path_3206" data-name="Path 3206" d="M1237.132,775.9a.1.1,0,0,1-.036-.1.165.165,0,0,1,.135-.145.994.994,0,0,1,1.218.793.169.169,0,0,1-.087.177.1.1,0,0,1-.148-.052,1.5,1.5,0,0,0-1.012-.661A.091.091,0,0,1,1237.132,775.9Z" transform="translate(-1207.822 -765.457)" fill="#080435"/>
      <path id="Path_3207" data-name="Path 3207" d="M1236.909,780.716c-.113.319-.39.509-.622.429a.548.548,0,0,1-.216-.725c.113-.319.39-.509.622-.429A.548.548,0,0,1,1236.909,780.716Z" transform="translate(-1207.096 -768.395)" fill="#080435"/>
      <path id="Path_3208" data-name="Path 3208" d="M1271.626,787.14s-3.87,3.98-7.115,3.232c0,0,3.8-2.736-.751-6.813,0,0,5.156.948,7.87,3.58Z" transform="translate(-1225.894 -770.827)" fill="#29140e"/>
      <path id="Path_3209" data-name="Path 3209" d="M1267.811,792.359a1.365,1.365,0,1,1,1.173-1.666,1.447,1.447,0,0,1-1.173,1.666Z" transform="translate(-1227.405 -774.969)" fill="#ffb27d"/>
      <path id="Path_3210" data-name="Path 3210" d="M1240.574,753.367c-.151-.106-3.68-2.659-3.107-4.847.165-.632.419-1.005.77-1.144.561-.219,1.247.216,1.853.6q.135.087.261.164l-.052.081c-.084-.052-.174-.11-.264-.164-.587-.374-1.25-.8-1.769-.593-.322.126-.557.48-.715,1.08-.29,1.105.557,2.333,1.318,3.168a12.723,12.723,0,0,0,1.753,1.576l-.055.077Z" transform="translate(-1208.032 -746.264)" fill="#fff"/>
      <path id="Path_3211" data-name="Path 3211" d="M1268.991,754.705c-4.154-.854-5.282-3.764-5.291-3.793l.09-.032c.01.029,1.125,2.891,5.224,3.735l-.02.094Z" transform="translate(-1225.853 -748.678)" fill="#fff"/>
      <path id="Path_3212" data-name="Path 3212" d="M1240.1,1073.685c-.045-.226-4.637-22.545-5.623-26.036a6.33,6.33,0,0,0-4.464-4.18l.084-.39a6.745,6.745,0,0,1,4.763,4.46c.989,3.506,5.585,25.839,5.63,26.065l-.39.08Z" transform="translate(-1203.02 -946.713)" fill="#29140e"/>
      <path id="Path_3213" data-name="Path 3213" d="M1243.874,831.992s-3.31-1.025-4.189-.229-.232,4.431,1.292,4.753,4.405-3.648,2.9-4.524Z" transform="translate(-1209.308 -803.29)" fill="#ee4437"/>
      <path id="Path_3214" data-name="Path 3214" d="M1246.907,823.23s4.322-1.527,5.163-3.055,5.317,2,5.24,3.055-8.137,6.9-8.663,6.162S1245.85,824.229,1246.907,823.23Z" transform="translate(-1214.285 -795.386)"/>
      <path id="Path_3215" data-name="Path 3215" d="M1235.838,823.742a4.7,4.7,0,0,1-.335-2.475s.206-.764-.454-.712-4.241,2.556-4.557,3.319-.367,4.344.79,4.608,3.951-3.584,4.28-3.964a1.057,1.057,0,0,0,.274-.777Z" transform="translate(-1203.215 -795.898)"/>
      <path id="Path_3216" data-name="Path 3216" d="M1241.242,842.958h-.029c-1.005-.016-1.55-1.982-1.573-2.066l.151-.042c.006.019.538,1.934,1.424,1.95h.023a2.848,2.848,0,0,0,1.718-.844l.113.11a2.949,2.949,0,0,1-1.83.9Z" transform="translate(-1209.547 -809.654)" fill="#29140e"/>
      <path id="Path_3217" data-name="Path 3217" d="M1238.3,795.763a2.58,2.58,0,0,1-2.285-1.353.154.154,0,0,1,.071-.2.151.151,0,0,1,.2.071c.035.074.889,1.8,3.229.941a.151.151,0,1,1,.1.284,3.811,3.811,0,0,1-1.321.258Z" transform="translate(-1207.078 -778.034)" fill="#29140e"/>
      <g id="Group_745" data-name="Group 745" transform="translate(51.745 96.628)">
        <path id="Path_3218" data-name="Path 3218" d="M1350.253,1054.486l-1.743-.322,1.318-7.125a3.932,3.932,0,0,1,3.835-3.135l5.862-.013a3.928,3.928,0,0,1,3.732,2.649l.01.032,2.423,8.024-1.7.512-2.417-8a2.154,2.154,0,0,0-2.046-1.437l-5.862.013a2.15,2.15,0,0,0-2.1,1.7l-1.315,7.109Z" transform="translate(-1335.077 -1043.89)" fill="#2c2c36"/>
        <path id="Path_3219" data-name="Path 3219" d="M1339.656,1092.88l-27.122,2.5a3.48,3.48,0,0,1-3.793-3.106l-1.9-19.2a3.488,3.488,0,0,1,3.4-3.816l32.871-.76a3.469,3.469,0,0,1,3.487,4.2l-3.848,17.457a3.493,3.493,0,0,1-3.1,2.72Z" transform="translate(-1306.827 -1060.567)" fill="#b40d00"/>
        <path id="Path_3220" data-name="Path 3220" d="M1328.115,1096.675l18.659-6.648-.139-.387-18.54,6.606-20.1-5.237-.1.4Z" transform="translate(-1307.547 -1074.896)" fill="#fff"/>
        <path id="Path_3221" data-name="Path 3221" d="M1369.231,1109.192h0a1.13,1.13,0,0,1-1.131-1.128l.006-1.089a1.138,1.138,0,0,1,1.141-1.125h0a1.13,1.13,0,0,1,1.131,1.128l-.006,1.089A1.137,1.137,0,0,1,1369.231,1109.192Z" transform="translate(-1348.354 -1085.882)" fill="#fff"/>
      </g>
      <path id="Path_3222" data-name="Path 3222" d="M1347.974,1026.514a32.6,32.6,0,0,0,1.282-3.265c.358-.983,1.1-2.978,1.366-3.622.638-1.531,4.641-1.7,6.023-.851,1.36.841,1.853,3.078,2.765,6.146a2.718,2.718,0,0,1,.19.561c.322,1.489,1.057,3.538.148,4.328-.992.86-1.608-.619-1.859-1.434.171.745.371,2.175-.361,2.984-.77.851-1.65-1.476-2.033-2.659h-.01c.271,1.063.651,3.123-.322,3.683-1.147.664-2.033-2.5-2.269-3.229a.664.664,0,0,0-.084.007c-.67,4.508-2.469,2.23-2.875-1.241-.658.722-2.15,2.017-2.63,1.682-.557-.39.351-2.488.664-3.087Z" transform="translate(-1282.397 -929.895)" fill="#ffb27d"/>
    </g>
  </g>
</svg>
