<svg xmlns="http://www.w3.org/2000/svg" width="512.692" height="449.852" viewBox="0 0 512.692 449.852">
  <g id="blog-graphics" transform="translate(0 -0.002)">
    <g id="OBJECTS" transform="translate(0 0.002)">
      <g id="Group_913" data-name="Group 913" transform="translate(41.979 220.983)">
        <g id="Group_907" data-name="Group 907" transform="translate(60.7)">
          <path id="Path_4045" data-name="Path 4045" d="M0,0H25.624V117.072H0Z" fill="#2c2c36"/>
          <rect id="Rectangle_969" data-name="Rectangle 969" width="25.624" height="87.939" transform="translate(0 29.132)" fill="#ee4437"/>
        </g>
        <g id="Group_909" data-name="Group 909" transform="translate(0 48.719)">
          <path id="Path_4044" data-name="Path 4044" d="M0,0H25.624V68.364H0Z" fill="#ee4437"/>
          <rect id="Rectangle_971" data-name="Rectangle 971" width="25.624" height="20.626" fill="#2c2c36"/>
          <g id="Group_908" data-name="Group 908">
            <rect id="Rectangle_972" data-name="Rectangle 972" width="25.624" height="2.574" fill="#6376bf" opacity="0.5"/>
            <rect id="Rectangle_973" data-name="Rectangle 973" width="25.624" height="2.574" transform="translate(0 20.626)" fill="#fcc574" opacity="0.5"/>
          </g>
        </g>
        <g id="Group_911" data-name="Group 911" transform="translate(30.356 28.867)">
          <rect id="Rectangle_974" data-name="Rectangle 974" width="25.624" height="88.216" fill="#2c2c36"/>
          <rect id="Rectangle_975" data-name="Rectangle 975" width="25.624" height="28.982" transform="translate(0 25.058)" fill="#ee4437"/>
          <g id="Group_910" data-name="Group 910">
            <rect id="Rectangle_976" data-name="Rectangle 976" width="25.624" height="2.574" transform="translate(0 25.058)" fill="#6376bf" opacity="0.5"/>
            <rect id="Rectangle_977" data-name="Rectangle 977" width="25.624" height="2.574" fill="#2c2c36" opacity="0.5"/>
          </g>
        </g>
        <g id="Group_912" data-name="Group 912" transform="translate(60.7)">
          <rect id="Rectangle_978" data-name="Rectangle 978" width="25.624" height="2.574" fill="#6376bf" opacity="0.5"/>
          <rect id="Rectangle_979" data-name="Rectangle 979" width="25.624" height="2.574" transform="translate(0 29.132)" fill="#fcc574" opacity="0.5"/>
        </g>
      </g>
      <g id="Group_917" data-name="Group 917" transform="translate(367.524 244.691)">
        <g id="Group_914" data-name="Group 914" transform="translate(9.407 24.429)">
          <path id="Path_3899" data-name="Path 3899" d="M326.57,358.033s64.751-130.5,101.744-124.678S326.57,358.033,326.57,358.033Z" transform="translate(-326.57 -233.165)" fill="#2c2c36"/>
          <path id="Path_3900" data-name="Path 3900" d="M394.712,285.56c20.684-23.154,33.322-42.937,18.768-45.222-9.43-1.477-20.672,5.9-32.179,17.706,13.689-15.778,27.389-26.455,38.574-24.689,16,2.5-.866,26.166-25.173,52.205Z" transform="translate(-318.13 -233.165)" fill="#2c2c36" opacity="0.5"/>
          <path id="Path_3901" data-name="Path 3901" d="M406.794,255.6c-3.555,3.451-6.983,7.029-10.365,10.653-3.174,3.416-6.279,6.9-9.338,10.423,1.42-3.543,2.6-7.145,3.705-10.78a125.146,125.146,0,0,0,3.163-12.7,125.3,125.3,0,0,0-4.328,12.35c-1.12,3.82-2.158,7.664-2.932,11.588q-4.952,5.7-9.811,11.5-5.7,6.891-11.288,13.862a60.815,60.815,0,0,0,1.57-7.122,54.109,54.109,0,0,0,.762-8.657,54.289,54.289,0,0,0-1.974,8.472,58.537,58.537,0,0,0-.75,7.814c-2.331,2.909-4.675,5.829-6.971,8.772-6.094,7.8-12.108,15.663-17.936,23.673l18.664-23.084a1.7,1.7,0,0,1,.115-.139,45.693,45.693,0,0,0,6.671-2.1,43.555,43.555,0,0,0,6.96-3.393,43.68,43.68,0,0,0-7.41,2.262,46.771,46.771,0,0,0-5.817,2.735c6.071-7.456,12.131-14.935,18.329-22.288.912-1.1,1.847-2.181,2.759-3.278,3.59-1.57,7.052-3.37,10.469-5.252a125.222,125.222,0,0,0,11.173-6.891,122.381,122.381,0,0,0-11.761,5.829c-3.151,1.766-6.256,3.59-9.268,5.6,5.229-6.256,10.526-12.442,15.951-18.525,3.29-3.693,6.625-7.341,10.088-10.861a82.026,82.026,0,0,1,11.034-9.857,76.686,76.686,0,0,0-11.461,9.441Z" transform="translate(-324.453 -231.155)" fill="#ffe9e8" opacity="0.5"/>
        </g>
        <g id="Group_915" data-name="Group 915" transform="translate(15.42)">
          <path id="Path_3902" data-name="Path 3902" d="M331.78,364.333s15.859-144.819,52.586-152.091S331.78,364.333,331.78,364.333Z" transform="translate(-331.78 -212)" fill="#2c2c36"/>
          <path id="Path_3903" data-name="Path 3903" d="M375.4,269.93c11.438-28.855,16.505-51.79,2.055-48.927-9.361,1.858-17.371,12.65-24.111,27.7,7.41-19.518,16.609-34.269,27.713-36.462,15.882-3.151,8.195,24.873-5.656,57.676Z" transform="translate(-328.455 -212)" fill="#2c2c36" opacity="0.5"/>
          <path id="Path_3904" data-name="Path 3904" d="M373.461,239.44c-2.158,4.467-4.132,9-6.06,13.574-1.8,4.305-3.509,8.645-5.182,13,.1-3.809-.023-7.606-.242-11.392a123.418,123.418,0,0,0-1.408-13.008,123.729,123.729,0,0,0,.185,13.089c.254,3.97.612,7.941,1.235,11.888q-2.684,7.064-5.252,14.162-2.978,8.432-5.817,16.9a60.089,60.089,0,0,0-.981-7.225,54.976,54.976,0,0,0-2.262-8.391,55.32,55.32,0,0,0,1.062,8.634,57.694,57.694,0,0,0,1.985,7.583c-1.189,3.543-2.378,7.075-3.532,10.63-3.036,9.418-5.979,18.871-8.691,28.405l9.58-28.105a1.505,1.505,0,0,1,.058-.162,46.7,46.7,0,0,0,5.54-4.259,43.921,43.921,0,0,0,5.367-5.586,43.815,43.815,0,0,0-6.175,4.675,46.878,46.878,0,0,0-4.513,4.571c3.128-9.1,6.244-18.19,9.534-27.228.473-1.35.981-2.678,1.454-4.028,2.828-2.712,5.459-5.6,8.022-8.541a125.582,125.582,0,0,0,8.114-10.319,123.447,123.447,0,0,0-9.037,9.522c-2.355,2.735-4.64,5.529-6.775,8.449,2.759-7.676,5.6-15.3,8.6-22.888,1.812-4.594,3.694-9.176,5.736-13.677a83.436,83.436,0,0,1,6.971-13.066,76.475,76.475,0,0,0-7.514,12.812Z" transform="translate(-330.744 -209.742)" fill="#ffe9e8" opacity="0.5"/>
        </g>
        <g id="Group_916" data-name="Group 916" transform="translate(0 68.011)">
          <path id="Path_3905" data-name="Path 3905" d="M318.42,350.664s109.131-96.5,141.206-77.182S318.42,350.664,318.42,350.664Z" transform="translate(-318.42 -270.924)" fill="#2c2c36"/>
          <path id="Path_3906" data-name="Path 3906" d="M403.8,312.366c27.874-13.654,47.046-27.228,34.419-34.823-8.172-4.917-21.364-2.32-36.473,4.294,18.617-9.465,35.342-14.185,45.026-8.345,13.874,8.345-10.665,23.915-42.971,38.885Z" transform="translate(-305.569 -270.923)" fill="#2c2c36" opacity="0.5"/>
          <path id="Path_3907" data-name="Path 3907" d="M429.518,287.212c-4.594,1.858-9.118,3.878-13.608,5.967q-6.337,2.961-12.581,6.14c2.643-2.747,5.1-5.644,7.491-8.587a124.389,124.389,0,0,0,7.71-10.573,122.053,122.053,0,0,0-8.657,9.811c-2.482,3.116-4.894,6.29-7.087,9.626-4.49,2.274-8.957,4.605-13.412,6.948q-7.86,4.242-15.674,8.6a60.355,60.355,0,0,0,4.132-6.013A54.865,54.865,0,0,0,381.8,301.4a55.62,55.62,0,0,0-5.021,7.1,58.384,58.384,0,0,0-3.636,6.948c-3.266,1.824-6.521,3.636-9.765,5.494-8.587,4.928-17.117,9.949-25.531,15.178l25.981-14.358s.1-.058.15-.081a44.256,44.256,0,0,0,6.971.566,43.441,43.441,0,0,0,7.722-.531,43.431,43.431,0,0,0-7.71-.693,49.914,49.914,0,0,0-6.417.335c8.437-4.628,16.863-9.268,25.37-13.747,1.258-.681,2.528-1.327,3.786-2,3.913-.1,7.8-.473,11.681-.923a123.534,123.534,0,0,0,12.939-2.181,123.655,123.655,0,0,0-13.089.97c-3.578.45-7.156.97-10.7,1.7,7.2-3.82,14.439-7.56,21.757-11.15,4.432-2.181,8.9-4.305,13.435-6.267a81.841,81.841,0,0,1,13.943-4.975,77.564,77.564,0,0,0-14.174,4.421Z" transform="translate(-315.424 -269.5)" fill="#ffe9e8"/>
        </g>
      </g>
      <g id="Group_925" data-name="Group 925" transform="translate(126.456 83.921)">
        <g id="Group_918" data-name="Group 918">
          <rect id="Rectangle_980" data-name="Rectangle 980" width="271.725" height="342.201" rx="8.2" fill="#2c2c36"/>
          <path id="Path_3908" data-name="Path 3908" d="M381.285,82.175v4.582a9.477,9.477,0,0,0-9.465-9.465h-252.8a9.477,9.477,0,0,0-9.465,9.465V82.175a9.477,9.477,0,0,1,9.465-9.465H371.832a9.478,9.478,0,0,1,9.465,9.465Z" transform="translate(-109.56 -72.71)" opacity="0.5"/>
          <path id="Path_3909" data-name="Path 3909" d="M233.956,361.058a5.9,5.9,0,1,1-5.9-5.9A5.9,5.9,0,0,1,233.956,361.058Z" transform="translate(-92.196 -29.153)" fill="#143c4a" opacity="0.5"/>
          <path id="Path_3910" data-name="Path 3910" d="M262.784,85.253H200.457a1.394,1.394,0,0,1-1.4-1.4h0a1.394,1.394,0,0,1,1.4-1.4h62.327a1.394,1.394,0,0,1,1.4,1.4h0A1.394,1.394,0,0,1,262.784,85.253Z" transform="translate(-95.758 -71.206)" opacity="0.5"/>
        </g>
        <path id="Path_4042" data-name="Path 4042" d="M3.55,0H244.675a3.55,3.55,0,0,1,3.55,3.55V297.018a3.55,3.55,0,0,1-3.55,3.55H3.55A3.55,3.55,0,0,1,0,297.018V3.55A3.55,3.55,0,0,1,3.55,0Z" transform="translate(11.75 20.81)" fill="#ffe9e8"/>
        <path id="Path_3911" data-name="Path 3911" d="M367.965,103.677v-8.83a4.1,4.1,0,0,0-4.1-4.1H123.837a4.1,4.1,0,0,0-4.1,4.1v8.83Z" transform="translate(-107.99 -69.928)" fill="#fccbc8"/>
        <g id="Group_919" data-name="Group 919" transform="translate(217.534 23.8)">
          <path id="Path_3912" data-name="Path 3912" d="M305,96.816a3.486,3.486,0,1,1-3.486-3.486A3.483,3.483,0,0,1,305,96.816Z" transform="translate(-298.03 -93.33)" fill="#fcc574"/>
          <path id="Path_3913" data-name="Path 3913" d="M316.351,96.816a3.486,3.486,0,1,1-3.486-3.486A3.483,3.483,0,0,1,316.351,96.816Z" transform="translate(-296.28 -93.33)" fill="#f05956"/>
          <path id="Path_3914" data-name="Path 3914" d="M327.691,96.816a3.486,3.486,0,1,1-3.486-3.486A3.483,3.483,0,0,1,327.691,96.816Z" transform="translate(-294.531 -93.33)" fill="#6376bf"/>
        </g>
        <g id="Group_924" data-name="Group 924" transform="translate(28.544 34.338)">
          <text id="FAAD_Times" data-name="FAAD Times" transform="translate(80.299 34)" fill="#2c2c36" font-size="20" font-family="Montserrat" font-weight="700"><tspan x="0" y="0">FAAD Times</tspan></text>
          <rect id="Rectangle_982" data-name="Rectangle 982" width="68.295" height="5.136" transform="translate(82.619 50.958)" fill="silver"/>
          <rect id="Rectangle_983" data-name="Rectangle 983" width="68.295" height="10.284" transform="translate(82.619 74.458)" fill="#ee4437"/>
          <rect id="Rectangle_984" data-name="Rectangle 984" width="68.295" height="10.284" transform="translate(214.626 178.741) rotate(180)" fill="#ee4437"/>
          <rect id="Rectangle_985" data-name="Rectangle 985" width="119.334" height="5.136" transform="translate(82.619 59.95)" fill="silver"/>
          <rect id="Rectangle_986" data-name="Rectangle 986" width="68.295" height="5.136" transform="translate(82.619 91.16)" fill="silver"/>
          <rect id="Rectangle_987" data-name="Rectangle 987" width="119.334" height="5.136" transform="translate(82.619 100.163)" fill="silver"/>
          <rect id="Rectangle_988" data-name="Rectangle 988" width="96.019" height="5.136" transform="translate(0 129.295)" fill="silver"/>
          <rect id="Rectangle_989" data-name="Rectangle 989" width="96.019" height="5.136" transform="translate(0 139.083)" fill="silver"/>
          <rect id="Rectangle_990" data-name="Rectangle 990" width="96.019" height="5.136" transform="translate(0 148.87)" fill="silver"/>
          <rect id="Rectangle_991" data-name="Rectangle 991" width="135.493" height="5.136" transform="translate(214.626 192.084) rotate(180)" fill="silver"/>
          <rect id="Rectangle_992" data-name="Rectangle 992" width="135.493" height="5.136" transform="translate(214.626 201.872) rotate(180)" fill="silver"/>
          <rect id="Rectangle_993" data-name="Rectangle 993" width="135.493" height="5.136" transform="translate(214.626 211.659) rotate(180)" fill="silver"/>
          <rect id="Rectangle_994" data-name="Rectangle 994" width="68.295" height="10.284" transform="translate(79.133 221.701)" fill="#ee4437"/>
          <rect id="Rectangle_995" data-name="Rectangle 995" width="135.493" height="5.136" transform="translate(79.133 240.18)" fill="silver"/>
          <rect id="Rectangle_996" data-name="Rectangle 996" width="135.493" height="5.136" transform="translate(79.133 249.979)" fill="silver"/>
          <rect id="Rectangle_997" data-name="Rectangle 997" width="135.493" height="5.136" transform="translate(79.133 259.767)" fill="silver"/>
          <rect id="Rectangle_998" data-name="Rectangle 998" width="119.334" height="5.136" transform="translate(82.619 109.154)" fill="silver"/>
          <g id="Group_921" data-name="Group 921" transform="translate(0 8.98)">
            <rect id="Rectangle_999" data-name="Rectangle 999" width="71.965" height="105.322" fill="#ee4437"/>
            <g id="Group_920" data-name="Group 920" transform="translate(11.415 24.262)">
              <path id="Path_3915" data-name="Path 3915" d="M179.492,154.866l-19.4-11.2v22.392Z" transform="translate(-141.726 -129.346)" fill="#fff"/>
              <path id="Path_3916" data-name="Path 3916" d="M169.7,182.3a25.52,25.52,0,1,1,25.52-25.52A25.551,25.551,0,0,1,169.7,182.3Zm0-48.108a22.582,22.582,0,1,0,22.576,22.576A22.6,22.6,0,0,0,169.7,134.192Z" transform="translate(-144.18 -131.26)" fill="#fff"/>
            </g>
            <path id="Path_3917" data-name="Path 3917" d="M206.265,203.962v6.694H134.3V142.05C140.383,170.155,157.742,214.765,206.265,203.962Z" transform="translate(-134.288 -105.334)" fill="#d62b1e" opacity="0.5"/>
          </g>
          <g id="Group_922" data-name="Group 922" transform="translate(0 161.728)">
            <rect id="Rectangle_1000" data-name="Rectangle 1000" width="71.965" height="105.322" transform="translate(0 0)" fill="#ee4437"/>
            <path id="Path_3918" data-name="Path 3918" d="M205.286,347.9h-71V242.58h1.558c6.406,20.314,32.318,95.084,69.437,105.322Z" transform="translate(-134.29 -242.58)" fill="#ee4437" opacity="0.5"/>
          </g>
          <g id="Group_923" data-name="Group 923" transform="translate(107.953 129.283)">
            <rect id="Rectangle_1001" data-name="Rectangle 1001" width="106.672" height="24.723" transform="translate(0)" fill="#ee4437"/>
            <path id="Path_3919" data-name="Path 3919" d="M334.492,235.14V239.2H227.82V214.48h11.969c21.8,7.179,66.91,20.776,94.7,20.672Z" transform="translate(-227.82 -214.468)" fill="#ee4437" opacity="0.5"/>
          </g>
        </g>
      </g>
      <g id="Group_927" data-name="Group 927" transform="translate(326.354 378.556)">
        <rect id="Rectangle_1002" data-name="Rectangle 1002" width="116.829" height="50.301" fill="#ffe6de"/>
        <g id="Group_926" data-name="Group 926" transform="translate(0 6.175)">
          <rect id="Rectangle_1003" data-name="Rectangle 1003" width="116.829" height="1.166" fill="#ebd0c8"/>
          <rect id="Rectangle_1004" data-name="Rectangle 1004" width="116.829" height="1.166" transform="translate(0 7.837)" fill="#ebd0c8"/>
          <rect id="Rectangle_1005" data-name="Rectangle 1005" width="116.829" height="1.166" transform="translate(0 15.663)" fill="#ebd0c8"/>
          <rect id="Rectangle_1006" data-name="Rectangle 1006" width="116.829" height="1.166" transform="translate(0 23.488)" fill="#ebd0c8"/>
          <rect id="Rectangle_1007" data-name="Rectangle 1007" width="116.829" height="1.166" transform="translate(0 31.314)" fill="#ebd0c8"/>
          <rect id="Rectangle_1008" data-name="Rectangle 1008" width="116.829" height="1.166" transform="translate(0 39.139)" fill="#ebd0c8"/>
        </g>
        <path id="Path_3920" data-name="Path 3920" d="M307.56,333.33h35.377l-18.283,2.7Z" transform="translate(-278.924 -327.155)" fill="#fff"/>
        <path id="Path_3921" data-name="Path 3921" d="M352.5,346.74h35.377l-18.283,2.7Z" transform="translate(-271.994 -325.087)" fill="#fff"/>
        <path id="Path_3922" data-name="Path 3922" d="M282.75,360.31h35.377L299.844,363Z" transform="translate(-282.75 -322.994)" fill="#fff"/>
      </g>
      <g id="Group_951" data-name="Group 951" transform="translate(149.998)">
        <g id="Group_936" data-name="Group 936" transform="translate(0 66.654)">
          <g id="Group_931" data-name="Group 931" transform="translate(18.625)">
            <g id="Group_928" data-name="Group 928" transform="translate(47.687 41.067)">
              <path id="Path_3923" data-name="Path 3923" d="M187.41,93.33c1.5,6.406,2.585,10.492,2.585,10.492l8.749,2.609-1.258-13.1H187.41Z" transform="translate(-187.41 -93.33)" fill="#ffb894"/>
              <path id="Path_3924" data-name="Path 3924" d="M187.96,105.017a.4.4,0,0,1-.254-.3,2.726,2.726,0,0,1,.289-1.777c.219-.392.531-.716.785-1.085a1.736,1.736,0,0,0,.358-1.258,1.418,1.418,0,0,1,1.385.45c.358.369.612.831.993,1.166a3.6,3.6,0,0,0,2.562.75c.912-.035,1.812-.254,2.712-.323a3.914,3.914,0,0,1,2.62.577,5.017,5.017,0,0,0,1.57,2.239c.946.646,5.886,4.49,6.821,6.8a.41.41,0,0,1-.542.519l-19.3-7.768Z" transform="translate(-187.371 -92.217)" fill="#2c2c36"/>
            </g>
            <g id="Group_930" data-name="Group 930">
              <path id="Path_3925" data-name="Path 3925" d="M205.116,106.088H194.451s-5.3-23.477-5.6-27.355c0,0-6.2-.439-13.885-1.073-8.772-.739-19.483-1.72-25.046-2.62-2.193-.358-3.567-.681-3.751-.993-.45-.762,1.166-3.97,3.116-7.352,1.166-2.02,2.458-4.086,3.5-5.725,1.212-1.893,2.089-3.22,2.089-3.22l43.479,8.195a3.994,3.994,0,0,1,3.22,3.509l3.543,36.623Z" transform="translate(-146.094 -57.75)" fill="#ee4437"/>
              <g id="Group_929" data-name="Group 929" transform="translate(6.724 12.939)" opacity="0.5">
                <path id="Path_3926" data-name="Path 3926" d="M196.438,104.36H195.2L191.129,75a2.284,2.284,0,0,0-2.078-1.939L171.8,71.73,151.92,70.183l.092-1.223,16.448,1.27h.023l20.66,1.6a3.556,3.556,0,0,1,3.2,3.012l4.1,29.525Z" transform="translate(-151.92 -68.96)" fill="#ffe9e8"/>
              </g>
              <path id="Path_3927" data-name="Path 3927" d="M183.433,76.445s-3.209-2.735-2-3.717S183.433,76.445,183.433,76.445Z" transform="translate(-140.686 -55.461)" fill="#ffe9e8" opacity="0.5"/>
              <path id="Path_3928" data-name="Path 3928" d="M174.627,77.313c-8.772-.739-19.483-1.72-25.046-2.62a7.012,7.012,0,0,1-1.05-2.147,12.672,12.672,0,0,1,.416-6.187c1.166-2.02,2.458-4.086,3.5-5.725a3.915,3.915,0,0,1,.762-.381c3.924-1.374,9.638,3.22,10.838,6.683a10.058,10.058,0,0,0,.993,2.632c.877,1.281,2.447,1.651,3.994,2.054h.012a7.987,7.987,0,0,1,3.128,1.316c.058.046.127.115.185.173a8.547,8.547,0,0,1,2.02,3.52c.081.231.173.45.254.681Z" transform="translate(-145.753 -57.402)" fill="#ee4437" opacity="0.3"/>
            </g>
          </g>
          <g id="Group_935" data-name="Group 935" transform="translate(0 0)">
            <g id="Group_932" data-name="Group 932" transform="translate(46.899 64.601)">
              <path id="Path_3929" data-name="Path 3929" d="M170.59,113.72c1.5,6.406,2.585,10.492,2.585,10.492l8.749,2.609-1.258-13.1H170.59Z" transform="translate(-170.59 -113.72)" fill="#ffb894"/>
              <path id="Path_3930" data-name="Path 3930" d="M172.629,126.675a.407.407,0,0,1-.346-.185,2.678,2.678,0,0,1-.369-1.754c.058-.439.242-.866.335-1.293a1.751,1.751,0,0,0-.115-1.3,1.424,1.424,0,0,1,1.454-.081c.462.219.866.554,1.35.739a3.547,3.547,0,0,0,2.655-.219c.843-.358,1.593-.889,2.424-1.281a3.887,3.887,0,0,1,2.655-.4,5.031,5.031,0,0,0,2.274,1.524c1.12.265,7.11,2.078,8.807,3.89a.412.412,0,0,1-.312.681l-20.8-.3Z" transform="translate(-170.39 -112.629)" fill="#2c2c36"/>
            </g>
            <g id="Group_934" data-name="Group 934">
              <path id="Path_3931" data-name="Path 3931" d="M187.867,128.873l-5.817,1.073-1.212.219-2.482.45c-7.433-21.8-8.691-33.7-8.691-33.7s-35.746-12.269-39.012-21.907S136.62,57.75,136.62,57.75h20.753l-2.216,11.092,24.377,17.729a7.419,7.419,0,0,1,2.989,4.928l5.356,37.362Z" transform="translate(-129.957 -57.75)" fill="#ee4437"/>
              <g id="Group_933" data-name="Group 933" transform="translate(4.425 0.012)" opacity="0.5">
                <path id="Path_3932" data-name="Path 3932" d="M181.447,129.944l-1.212.219c-3.151-14.312-7.918-34.592-9.13-36.358-.612-.877-6.567-3.763-12.315-6.567-13.02-6.325-23.1-11.427-24.5-14.624-1.939-4.409,2.308-11.727,4.363-14.855h1.466c-1.651,2.447-6.544,10.192-4.721,14.358,1.35,3.059,14.393,9.407,23.927,14.035,7.652,3.705,12.027,5.875,12.777,6.96,1.651,2.378,7.629,29.1,9.338,36.831Z" transform="translate(-133.791 -57.76)" fill="#ffe9e8"/>
              </g>
              <path id="Path_3933" data-name="Path 3933" d="M164.35,92.305s3.59-4.825,4.963-4.675S166.578,91.786,164.35,92.305Z" transform="translate(-124.653 -53.143)" fill="#ffe9e8" opacity="0.5"/>
            </g>
          </g>
        </g>
        <g id="Group_948" data-name="Group 948" transform="translate(1.173 15.961)">
          <g id="Group_937" data-name="Group 937" transform="translate(10.869)">
            <path id="Path_3934" data-name="Path 3934" d="M140.39,25.672l3.89,2.078,4.4-.392,2.412-11.842L142.8,13.83Z" transform="translate(-140.39 -13.83)" fill="#ffb894"/>
            <path id="Path_3935" data-name="Path 3935" d="M149.334,21.123s-4.386-.946-5.794-3.313c0,0,1.293,5.4,5.252,5.979l.542-2.666Z" transform="translate(-139.904 -13.216)" fill="#f29272"/>
          </g>
          <g id="Group_939" data-name="Group 939" transform="translate(11.596 15.116)">
            <g id="Group_938" data-name="Group 938" transform="translate(0.425 1.485)">
              <path id="Path_3936" data-name="Path 3936" d="M171.01,55.848s8.045-1.27,11.057,1.581a4.189,4.189,0,0,1,1.512,1.743s-8.564,3.07-11.865,1.881-.7-5.217-.7-5.217Z" transform="translate(-136.97 -23.994)" fill="#ffb894"/>
              <path id="Path_3937" data-name="Path 3937" d="M176.732,59.916,150.97,58.381a81.2,81.2,0,0,0,4.617-20.487c.866-10.884-7.087-9.638-7.087-9.638-7.756,1.247-7.1,30.7-7.1,30.7s-.45,7.791,8.068,7.849,27.436-1.327,27.436-1.327l-.185-5.563Z" transform="translate(-141.388 -28.212)" fill="#ffb894"/>
            </g>
            <path id="Path_3938" data-name="Path 3938" d="M141.02,43.459s1.454-10.238,4.686-14.947a3.625,3.625,0,0,1,4.144-1.4c2.585.866,6.648,2.9,7.11,7.11.669,6.244-1.962,14-1.962,14l-13.966-4.778Z" transform="translate(-141.02 -26.926)" fill="#f05956"/>
          </g>
          <g id="Group_941" data-name="Group 941" transform="translate(4.09 11.923)">
            <path id="Path_3939" data-name="Path 3939" d="M136.617,62.145s-3.567-30.229-.981-33.161a32.4,32.4,0,0,1,5.609-4.825h8.449s9.892,7.5,9.707,13.851c-.092,3.012-2.574,8.7-3.347,13.839a37.655,37.655,0,0,0,0,10.676l-19.425-.381Z" transform="translate(-134.489 -24.16)" fill="#ffb894"/>
            <path id="Path_3940" data-name="Path 3940" d="M158.944,42.174c-.035.15-.069.358-.127.623-.127.739-.277,1.9-.45,3.313-.716,6.071-1.708,16.621-1.708,16.621H135.906s-1.558-21.988-1.374-30.344a7.169,7.169,0,0,1,1.87-4.675,10.059,10.059,0,0,1,2.562-2.1,1.055,1.055,0,0,1,.162-.081s.346.358.946.866c2.378,2.043,8.7,6.487,11.981-.866,0,0,5.482,5.586,6.891,8.553s.577,5.863,0,8.091Z" transform="translate(-134.517 -23.949)" fill="#2c2c36"/>
            <path id="Path_3941" data-name="Path 3941" d="M156.157,40.49c-.127.739-.277,1.9-.45,3.313a9.558,9.558,0,0,1-3.486.877c-.15.012-.346-.023-.381-.162a.35.35,0,0,1,.115-.277,14.166,14.166,0,0,1,2.066-1.916c.554-.439,1.362-1.327,2.135-1.835Z" transform="translate(-131.846 -21.642)" opacity="0.5"/>
            <g id="Group_940" data-name="Group 940" transform="translate(5.036 1.247)" opacity="0.5">
              <path id="Path_3942" data-name="Path 3942" d="M139.261,25.725l-.381-.485h.012Z" transform="translate(-138.88 -25.24)" fill="#f05956"/>
            </g>
          </g>
          <g id="Group_942" data-name="Group 942" transform="translate(0 14.917)">
            <path id="Path_3943" data-name="Path 3943" d="M177.242,64.819a4.306,4.306,0,0,0-1.443-1.812c-2.412-2.482-8.414-2.251-10.353-2.1L140.6,58.378a78.66,78.66,0,0,0,3.139-9.026c.231-.819.462-1.674.681-2.574a72.5,72.5,0,0,0,1.651-8.68c1.316-10.85-6.671-9.926-6.671-9.926-3.463.416-5.506,6.441-6.706,13.02-.208,1.12-.392,2.262-.542,3.382a132.273,132.273,0,0,0-1.154,13.966s-.785,7.756,7.733,8.183,27.482-.173,27.482-.173v-.115c3.717.658,11.023-1.616,11.023-1.616Z" transform="translate(-130.974 -26.538)" fill="#ffb894"/>
            <path id="Path_3944" data-name="Path 3944" d="M144.268,45.036c-.219.889-.45,1.754-.681,2.574-1.108-.462-2.193-1-3.266-1.5q-3.618-1.679-7.4-3c-.254-.081-.589-.173-.912-.265.15-1.12.335-2.262.542-3.382a.756.756,0,0,1,.162,0,26.735,26.735,0,0,1,5.413.773,9.5,9.5,0,0,1,3.093,1.235,10.806,10.806,0,0,1,2.9,3.313,2.032,2.032,0,0,1,.162.265Z" transform="translate(-130.814 -24.795)" fill="#ffb894" opacity="0.5"/>
            <path id="Path_3945" data-name="Path 3945" d="M131.08,42.943s1.881-10.169,5.309-14.728a3.622,3.622,0,0,1,4.2-1.223c2.551.981,6.521,3.174,6.8,7.41.4,6.267-2.551,13.908-2.551,13.908L131.08,42.943Z" transform="translate(-130.957 -26.754)" fill="#2c2c36"/>
            <path id="Path_3946" data-name="Path 3946" d="M139.928,54.34s-5.506,2.5-4.5,2.816S139.928,54.34,139.928,54.34Z" transform="translate(-130.306 -22.5)" fill="#ffb894" opacity="0.5"/>
          </g>
          <g id="Group_947" data-name="Group 947" transform="translate(29.127 33.719)">
            <path id="Path_4051" data-name="Path 4051" d="M0,0H28.59V2.77H0Z" transform="translate(0.188 20.202) rotate(3.9)" fill="#fab8b5"/>
            <path id="Path_4050" data-name="Path 4050" d="M0,0H27.932V2.77H0Z" transform="translate(15.103 21.226) rotate(3.9)" fill="#fab8b5"/>
            <g id="Group_943" data-name="Group 943" transform="translate(15.099)">
              <path id="Path_3947" data-name="Path 3947" d="M.785,0H27.159a.773.773,0,0,1,.773.773V21.261H0V.773A.773.773,0,0,1,.773,0Z" transform="translate(1.446 0) rotate(3.9)" fill="#ffe9e8"/>
              <path id="Path_3948" data-name="Path 3948" d="M198.387,45.7l-.1,1.5a.767.767,0,0,0-.727-.819l-26.3-1.789a.769.769,0,0,0-.831.716l.1-1.5a.775.775,0,0,1,.831-.716l26.3,1.789A.774.774,0,0,1,198.387,45.7Z" transform="translate(-169.117 -43.037)" fill="#f8d6d4"/>
            </g>
            <path id="Path_3949" data-name="Path 3949" d="M184.025,53.93a1.817,1.817,0,1,1-1.685-1.939A1.812,1.812,0,0,1,184.025,53.93Z" transform="translate(-152.479 -41.665)" fill="#fff"/>
            <path id="Path_4049" data-name="Path 4049" d="M0,0H42.879V.843H0Z" transform="translate(0.19 20.204) rotate(3.9)" fill="#fab8b5" opacity="0.5"/>
            <g id="Group_946" data-name="Group 946" transform="translate(0.774 21.093)">
              <g id="Group_944" data-name="Group 944" transform="translate(15.066 1.022)">
                <rect id="Rectangle_1012" data-name="Rectangle 1012" width="6.579" height="0.669" transform="translate(0.046) rotate(3.9)" fill="#354f5c"/>
                <rect id="Rectangle_1013" data-name="Rectangle 1013" width="1.881" height="0.669" transform="translate(7.754 0.488) rotate(3.89)" fill="#354f5c"/>
              </g>
              <g id="Group_945" data-name="Group 945">
                <rect id="Rectangle_1014" data-name="Rectangle 1014" width="1.881" height="0.669" transform="translate(10.858 0.723) rotate(3.9)" fill="#354f5c"/>
                <path id="Path_3950" data-name="Path 3950" d="M157.55,61.678a.336.336,0,1,1-.312-.358A.336.336,0,0,1,157.55,61.678Z" transform="translate(-156.879 -61.319)" fill="#354f5c"/>
              </g>
            </g>
          </g>
        </g>
        <g id="Group_950" data-name="Group 950" transform="translate(2.855)">
          <path id="Path_3951" data-name="Path 3951" d="M156.809,7.433c-3.07-3.4-8.645-3.474-11.565-3.232a3.477,3.477,0,0,0-2.816,1.985c-.45.923-.946,1.893-1.35,2.92a1.589,1.589,0,0,0-.693.162c-1.166.554-1.27,3.093-.15,4.628a7.556,7.556,0,0,0,.693,2.516c2.458,5.3,10.734,8.472,13.285,6.51a7.606,7.606,0,0,0,1.731-3.428c.3-.993.589-2.112.831-3.266a48.961,48.961,0,0,0,.889-5.91,3.622,3.622,0,0,0-.843-2.886Z" transform="translate(-131.349 0.633)" fill="#ffb894"/>
          <g id="Group_949" data-name="Group 949" transform="translate(9.417 11.822)">
            <path id="Path_3952" data-name="Path 3952" d="M144.935,14.355A1.732,1.732,0,1,0,146.978,13,1.727,1.727,0,0,0,144.935,14.355Z" transform="translate(-139.926 -9.825)" fill="#f29272"/>
            <path id="Path_3953" data-name="Path 3953" d="M152.965,15.985a1.728,1.728,0,0,0,.9,1.881c.3-.993.589-2.112.831-3.266A1.72,1.72,0,0,0,152.965,15.985Z" transform="translate(-138.687 -9.573)" fill="#f29272"/>
            <path id="Path_3954" data-name="Path 3954" d="M151.872,11.47a2.253,2.253,0,0,0-.531,1.374,4.514,4.514,0,0,0,.173,1.477,5.007,5.007,0,0,1,.173.646.64.64,0,0,1-.139.508,1.293,1.293,0,0,1-1.189.4,1.228,1.228,0,0,0,1.466-.15,1.07,1.07,0,0,0,.323-.808,4.772,4.772,0,0,0-.162-.739,7.849,7.849,0,0,1-.265-1.339,3.744,3.744,0,0,1,.139-1.374Z" transform="translate(-139.083 -10.056)" fill="#f29272"/>
            <path id="Path_3955" data-name="Path 3955" d="M150.505,10.957a1.086,1.086,0,0,0-.577-.416,2.134,2.134,0,0,0-.716-.081,1.362,1.362,0,0,0-.693.219,1.592,1.592,0,0,0-.5.462.144.144,0,0,0,.023.2.121.121,0,0,0,.15,0h.012a2.034,2.034,0,0,1,.508-.242,1.5,1.5,0,0,1,.508-.058,9.324,9.324,0,0,1,1.016.254h.046a.222.222,0,0,0,.254-.185.258.258,0,0,0-.035-.162Z" transform="translate(-139.448 -10.212)" fill="#523329"/>
            <path id="Path_3956" data-name="Path 3956" d="M152.5,11.776c.369.1.716.035,1.039.162a1.122,1.122,0,0,1,.439.254,2.158,2.158,0,0,1,.369.416h0a.135.135,0,0,0,.2.035.132.132,0,0,0,.046-.139,1.671,1.671,0,0,0-.277-.623,1.357,1.357,0,0,0-.554-.462,2.09,2.09,0,0,0-.693-.208,1.133,1.133,0,0,0-.693.15.226.226,0,0,0-.069.312.361.361,0,0,0,.127.1h.046Z" transform="translate(-138.789 -10.096)" fill="#523329"/>
            <path id="Path_3957" data-name="Path 3957" d="M150.876,16.918a4.1,4.1,0,0,1-1.535-.577,1.545,1.545,0,0,1-.485-.566,5.529,5.529,0,0,1-.335-.785,1.608,1.608,0,0,0-.023.935,1.386,1.386,0,0,0,.554.819,1.835,1.835,0,0,0,.912.335,1.755,1.755,0,0,0,.912-.15Z" transform="translate(-139.38 -9.513)" fill="#f29272"/>
            <path id="Path_3958" data-name="Path 3958" d="M149.015,12.687c-.115.542.058,1.027.381,1.1s.669-.323.785-.866-.058-1.027-.381-1.1S149.13,12.144,149.015,12.687Z" transform="translate(-139.296 -10.003)" fill="#523329"/>
            <path id="Path_3959" data-name="Path 3959" d="M152.6,13.417c-.115.542.058,1.027.381,1.1s.669-.323.785-.866-.058-1.027-.381-1.1S152.72,12.874,152.6,13.417Z" transform="translate(-138.743 -9.89)" fill="#523329"/>
            <path id="Path_3960" data-name="Path 3960" d="M140.59,10.678a.694.694,0,0,1,.623-.231,1.083,1.083,0,0,1,.577.277,3.669,3.669,0,0,1,.762,1.143.212.212,0,0,0,.277.1.225.225,0,0,0,.115-.254,1.176,1.176,0,0,0-.716-.693,1.648,1.648,0,0,0-.485-.1.751.751,0,0,0-.519.2.806.806,0,0,0-.1.97,1.183,1.183,0,0,0,.727.508,1.379,1.379,0,0,1-.531-.6.593.593,0,0,1,.138-.623.634.634,0,0,1,.623.023.852.852,0,0,1,.485.45l.381-.15A3.237,3.237,0,0,0,142,10.482a1.158,1.158,0,0,0-.773-.231.735.735,0,0,0-.623.427Z" transform="translate(-140.59 -10.245)" fill="#f29272"/>
          </g>
          <path id="Path_3961" data-name="Path 3961" d="M156.3,19.1c.358-1.166,1.166-5.506,1.166-5.506-2.574.369-9.118-2.066-9.118-2.066-.381-.358-.589-2.92-.589-2.92a7.986,7.986,0,0,1-.912,3.024,6.164,6.164,0,0,1-.935,1.2,1.54,1.54,0,0,1-2.262-.531c-.45-1.073-1.708-3-2.782-1.777-1.685,1.928.45,4.317,2.193,5.379l-1.143,5.586a30.112,30.112,0,0,1-3.047-6.764,11.27,11.27,0,0,1,.462-7.341,3.455,3.455,0,0,1,1.316-1.627,2.258,2.258,0,0,1,1.223-.289,3.176,3.176,0,0,1,1.662-2.355,9.284,9.284,0,0,1,2.909-.843,16.467,16.467,0,0,1,5.367-.231,11.8,11.8,0,0,1,3.6,1.293,7.927,7.927,0,0,1,2.978,2.424,7.621,7.621,0,0,1,1.131,3.717,14.836,14.836,0,0,1-.946,6.5,5.758,5.758,0,0,1-2.251,3.116Z" transform="translate(-131.499 0.291)" fill="#2c2c36"/>
          <path id="Path_3962" data-name="Path 3962" d="M144.538,3.428a3.133,3.133,0,0,0-.912-2.228,3.966,3.966,0,0,0-1.731-.831,7.1,7.1,0,0,0-5.667.462,6.658,6.658,0,0,0-2.378,3.012c-1.258,2.851-1.316,6.083-1.166,9.2s.473,6.279-.115,9.338a2.63,2.63,0,0,0,.058,1.835,2.078,2.078,0,0,0,1.627.808,5.848,5.848,0,0,0,5.506-2.216c1.223-1.812.993-4.19.97-6.383a28.128,28.128,0,0,1,.312-4.409,11.383,11.383,0,0,1,1.477-4.432c.4-.646,1.1-1.062,1.5-1.662a5.047,5.047,0,0,0,.519-2.5Z" transform="translate(-132.431 -0.002)" fill="#2c2c36"/>
        </g>
      </g>
      <g id="Group_960" data-name="Group 960" transform="translate(31.498 331.545)">
        <g id="Group_953" data-name="Group 953">
          <path id="Path_3963" data-name="Path 3963" d="M32.184,287.26h92.095a4.9,4.9,0,0,1,4.894,4.894v45.337H27.29V292.154A4.9,4.9,0,0,1,32.184,287.26Z" transform="translate(-27.29 -287.248)"/>
          <g id="Group_952" data-name="Group 952" transform="translate(10.48)">
            <path id="Path_3964" data-name="Path 3964" d="M41.783,287.26H155.97a5.414,5.414,0,0,1,5.413,5.413v44.818H36.37V292.673a5.414,5.414,0,0,1,5.413-5.413Z" transform="translate(-36.37 -287.248)"/>
            <path id="Path_3965" data-name="Path 3965" d="M161.383,292.663v2.447a5.421,5.421,0,0,0-5.413-5.413H41.783a5.414,5.414,0,0,0-5.413,5.413v-2.447a5.414,5.414,0,0,1,5.413-5.413H155.97a5.421,5.421,0,0,1,5.413,5.413Z" transform="translate(-36.37 -287.25)" opacity="0.5"/>
          </g>
        </g>
        <g id="Group_955" data-name="Group 955" transform="translate(4.698 85.481)">
          <g id="Group_954" data-name="Group 954">
            <rect id="Rectangle_1015" data-name="Rectangle 1015" width="168.711" height="9.095"/>
            <path id="Path_4043" data-name="Path 4043" d="M0,0H45.5V9.1H0Z"/>
          </g>
          <rect id="Rectangle_1017" data-name="Rectangle 1017" width="168.711" height="4.548" opacity="0.4"/>
        </g>
        <g id="Group_959" data-name="Group 959" transform="translate(0.012 21.295)">
          <g id="Group_956" data-name="Group 956" transform="translate(0 0.012)">
            <path id="Path_3966" data-name="Path 3966" d="M70.537,307.337v64.382H27.3V307.337a1.732,1.732,0,0,1,.058-.427,1.624,1.624,0,0,1,1.558-1.2H68.909A1.641,1.641,0,0,1,70.537,307.337Z" transform="translate(-27.3 -305.71)" fill="#3b3b42"/>
            <path id="Path_3967" data-name="Path 3967" d="M53.489,371.559H27.3V307.177a1.732,1.732,0,0,1,.058-.427c.439,16.217,3.636,63.412,26.131,64.809Z" transform="translate(-27.3 -305.55)" fill="#222229" opacity="0.3"/>
          </g>
          <g id="Group_957" data-name="Group 957" transform="translate(134.847 0.012)">
            <path id="Path_3968" data-name="Path 3968" d="M187.367,307.337v64.382H144.13V307.337a1.641,1.641,0,0,1,1.627-1.627h40.005a1.631,1.631,0,0,1,1.616,1.627Z" transform="translate(-144.13 -305.71)"/>
            <path id="Path_3969" data-name="Path 3969" d="M187.367,324.939v46.78H144.13V307.337a1.641,1.641,0,0,1,1.627-1.627h1.7c.889,7.941,6.371,30.691,39.913,19.241Z" transform="translate(-144.13 -305.71)" opacity="0.4"/>
          </g>
          <g id="Group_958" data-name="Group 958" transform="translate(26.201)">
            <path id="Path_3970" data-name="Path 3970" d="M200.267,305.712H184.858v28.463H67.036V307.339a1.626,1.626,0,0,0-1.627-1.627H50v66.009H201.883V307.327a1.626,1.626,0,0,0-1.627-1.627Z" transform="translate(-50 -305.7)" fill="#222229"/>
            <path id="Path_3971" data-name="Path 3971" d="M181.07,330.37v23.188H66.353V330.37H64.76v37.558h1.593V355.163H181.07v12.766h1.5V330.37Z" transform="translate(-47.724 -301.896)" fill="#222229" opacity="0.5"/>
            <rect id="Rectangle_1018" data-name="Rectangle 1018" width="1.143" height="66.009" transform="translate(0 0.012)" fill="#222229" opacity="0.5"/>
            <rect id="Rectangle_1019" data-name="Rectangle 1019" width="1.143" height="65.363" transform="translate(134.847 0.646)" fill="#222229" opacity="0.5"/>
            <rect id="Rectangle_1020" data-name="Rectangle 1020" width="114.706" height="1.858" transform="translate(18.629 28.474)" fill="#222229" opacity="0.5"/>
            <path id="Path_3972" data-name="Path 3972" d="M66.14,333.83v19.206H180.846S67.733,354.617,66.14,333.83Z" transform="translate(-47.511 -301.362)" fill="#222229" opacity="0.2"/>
          </g>
        </g>
      </g>
      <g id="Group_962" data-name="Group 962" transform="translate(0 57.581)">
        <rect id="Rectangle_1021" data-name="Rectangle 1021" width="488.197" height="3.67" transform="translate(0 367.605)" fill="#222229"/>
        <g id="Group_961" data-name="Group 961" transform="translate(63.135)">
          <path id="Path_3973" data-name="Path 3973" d="M400.033,146.365a6.277,6.277,0,0,0-2.378.462,12.817,12.817,0,0,0-21.78-1.362,7.8,7.8,0,0,0-2.712-.485,7.879,7.879,0,0,0-7.525,10.226H406.1a6.495,6.495,0,0,0-6.06-8.841Z" transform="translate(-6.805 -35.988)" fill="#ffe9e8"/>
          <path id="Path_3974" data-name="Path 3974" d="M337.5,59.943a2.51,2.51,0,0,0-.3.012A12.811,12.811,0,0,0,314.5,54.922a7.355,7.355,0,0,0-1.131-.092,7.879,7.879,0,0,0-7.525,10.226h35.169a3.756,3.756,0,0,0-3.509-5.113Z" transform="translate(-16.025 -49.89)" fill="#ffe9e8"/>
          <path id="Path_3975" data-name="Path 3975" d="M86.706,166.553a2.512,2.512,0,0,0-.3.012,12.811,12.811,0,0,0-22.692-5.032,7.353,7.353,0,0,0-1.131-.092,7.879,7.879,0,0,0-7.525,10.226H90.227a3.756,3.756,0,0,0-3.509-5.113Z" transform="translate(-54.7 -33.449)" fill="#ffe9e8"/>
        </g>
      </g>
      <g id="Group_981" data-name="Group 981" transform="translate(66.26 291.441)">
        <path id="Path_3976" data-name="Path 3976" d="M175.475,381.647c0,2.458-8.414,2.7-39.232,2.7s-55.183.773-55.183-1.685,7.8-5.483,38.62-5.483,55.795,2,55.795,4.455Z" transform="translate(-53.76 -233.277)" fill="#ffe9e8"/>
        <g id="Group_980" data-name="Group 980">
          <g id="Group_967" data-name="Group 967" transform="translate(24.564 72.469)">
            <g id="Group_964" data-name="Group 964" transform="translate(0 6.914)">
              <g id="Group_963" data-name="Group 963">
                <path id="Path_3977" data-name="Path 3977" d="M109.15,339.482l-5.009-4.559-5.3-4.813-9.707-8.83c-3.29,4.778-6.764,9.6-10.446,14.162,4.074,2.447,8.541,5.148,12.085,7.306,1.12.681,2.147,1.3,3.047,1.858a6.256,6.256,0,0,1,.889.646,7.828,7.828,0,0,1,2.816,5.344c1.593,17.948,4.64,38.251,4.64,38.251l9.037-.473h.289l-1.57-47.2a2.35,2.35,0,0,0-.785-1.685Z" transform="translate(-78.69 -321.28)" fill="#ffb894"/>
                <path id="Path_3978" data-name="Path 3978" d="M109.878,386.529h-.289a.731.731,0,0,1-.531-.693c-.069-1.754-2.124-25-3.174-36.739a5.752,5.752,0,0,0-6.371-5.217,16.015,16.015,0,0,1-6.417-.462,6.986,6.986,0,0,0-.889-.646c-.889-.554-1.916-1.177-3.047-1.858l13.354-7.814,5.009,4.559a2.4,2.4,0,0,1,.785,1.685l1.57,47.184Z" transform="translate(-77.075 -319.457)" fill="#ffb894" opacity="0.5"/>
              </g>
              <path id="Path_3979" data-name="Path 3979" d="M98.395,381.617a.438.438,0,0,1-.335-.208,2.705,2.705,0,0,1-.242-1.777c.092-.439.3-.843.427-1.27a1.754,1.754,0,0,0-.023-1.3,1.4,1.4,0,0,1,1.454.023c.45.254.831.612,1.293.831a3.5,3.5,0,0,0,2.666-.035c.866-.3,1.651-.773,2.5-1.108a3.847,3.847,0,0,1,2.678-.208,4.96,4.96,0,0,0,2.158,1.674c1.1.335,6.948,2.574,8.518,4.5a.411.411,0,0,1-.369.658l-20.73-1.777Z" transform="translate(-75.749 -312.78)" fill="#ee4437"/>
            </g>
            <g id="Group_966" data-name="Group 966" transform="translate(4.201)">
              <g id="Group_965" data-name="Group 965">
                <path id="Path_3980" data-name="Path 3980" d="M126.571,327.213l-.462-4.317a2,2,0,0,0-1.6-1.754L93.272,315.29c-.335.485-.669.97-.993,1.454-3.139,4.651-6.452,9.488-9.949,14.185h.462c2.862-.035,8.576-.254,15.478.081,3.636.173,7.606.5,11.658,1.085.392.058.773.127,1.166.185.162.023.3.046.462.058,1.027.162,2.089.323,3.163.45.139.681.265,1.362.4,2.02.473,2.378.958,4.663,1.42,6.844,2.689,12.592,5.009,21.745,5.009,21.745l9.245,2.92-4.236-39.128Z" transform="translate(-82.33 -315.29)" fill="#ffb894"/>
                <path id="Path_3981" data-name="Path 3981" d="M126.424,364.748l-3.174-21.9a5.783,5.783,0,0,0-8.564-4.2l-2.516,1.431c-.462-2.193-.946-4.478-1.42-6.844l11.45-7.618,4.236,39.128Z" transform="translate(-77.947 -313.697)" fill="#ffb894" opacity="0.5"/>
              </g>
              <path id="Path_3982" data-name="Path 3982" d="M114.761,358.573a.42.42,0,0,1-.3-.254,2.61,2.61,0,0,1,0-1.8c.15-.416.4-.8.589-1.2a1.753,1.753,0,0,0,.15-1.293,1.431,1.431,0,0,1,1.443.208c.416.3.739.716,1.177.993a3.578,3.578,0,0,0,2.655.323c.889-.185,1.743-.554,2.632-.773a3.878,3.878,0,0,1,2.678.138,5.022,5.022,0,0,0,1.916,1.951c1.039.473,6.556,3.463,7.849,5.586a.41.41,0,0,1-.45.6l-20.314-4.478Z" transform="translate(-77.4 -309.334)" fill="#ee4437"/>
            </g>
          </g>
          <g id="Group_977" data-name="Group 977" transform="translate(0 15.439)">
            <g id="Group_968" data-name="Group 968" transform="translate(15.504)">
              <path id="Path_3983" data-name="Path 3983" d="M70.84,278.692l8.53,2.828L79.3,265.88H70.84Z" transform="translate(-70.84 -265.88)" fill="#ffb894"/>
              <path id="Path_3984" data-name="Path 3984" d="M79.017,271.659s-4.49-.058-6.337-2.089c0,0,2.355,5.032,6.337,4.813v-2.724Z" transform="translate(-70.556 -265.311)" fill="#f29272"/>
            </g>
            <path id="Path_3985" data-name="Path 3985" d="M111.6,324.016a4.45,4.45,0,0,0-1.062-2.158c-1.72-2.735-6.868-3.89-9.349-4.294l-25.508-8.276a74.019,74.019,0,0,0,10-19.4c3.22-9.938-4.617-11.554-4.617-11.554C72.936,277.559,65.9,307.36,65.9,307.36s-2.493,7.71,6.071,10.007S99.921,323.2,99.921,323.2h0c3.567,1.547,11.681.808,11.681.808Z" transform="translate(-56.151 -263.962)" fill="#ffb894"/>
            <g id="Group_970" data-name="Group 970" transform="translate(5.928 12.096)">
              <path id="Path_3986" data-name="Path 3986" d="M131.861,337.972s-17.406,10.423-30.783,13.32c-.427.092-.843.185-1.258.254a20.986,20.986,0,0,1-7.71.231s-27.032-12.442-29.1-23.061,3.359-13.262,3.359-18.479-5.9-29.213,5.736-33.876c0,0,.254.15.681.358.289.162.681.346,1.108.554h.012c2.585,1.166,6.948,2.632,6.637-.9,0,0,6.394,4.686,9.222,10.607a7.159,7.159,0,0,1,.485,5.863c-.9,3.128-4.328,13.954-2.793,20.868a9.323,9.323,0,0,0,1.3,3.2,7.11,7.11,0,0,0,2.851,2.147c8.922,4.374,33.172,5.794,36.185,7.168,3.463,1.581,4.028,11.773,4.028,11.773Z" transform="translate(-62.543 -276.36)" fill="#ee4437"/>
              <g id="Group_969" data-name="Group 969" transform="translate(4.201 0.358)" opacity="0.5">
                <path id="Path_3987" data-name="Path 3987" d="M100.529,351.244c-.427.092-.843.185-1.258.254-2.678-4.247-10.838-9.072-18.11-13.389-4.709-2.793-9.164-5.425-11.75-7.676-3.266-2.839-4.074-7.652-2.332-13.92a41.213,41.213,0,0,0,1.6-13.3c-.658-11.831,2.759-23.869,3.578-26.547.289.162.681.346,1.108.554-.889,2.955-4.109,14.566-3.474,25.924a43.082,43.082,0,0,1-1.639,13.7c-1.12,4.028-1.7,9.488,1.962,12.673,2.5,2.181,6.914,4.778,11.565,7.549,7.953,4.709,16.159,9.58,18.744,14.185Z" transform="translate(-66.183 -276.67)" fill="#ee4437"/>
              </g>
              <path id="Path_3988" data-name="Path 3988" d="M90.128,314.044a1.67,1.67,0,0,1-.473.889,2.36,2.36,0,0,1-1.073.5,80.534,80.534,0,0,1-13.066,2.989,4.336,4.336,0,0,1-1.928-.081,1.559,1.559,0,0,1-1.108-1.454,2.347,2.347,0,0,1,.97-1.466c1.223-1.073,2.482-2.1,3.786-3.082a15.109,15.109,0,0,1,6.591-3.243c.542-.069,1.327-.254,2.147-.392a9.323,9.323,0,0,0,1.3,3.2,7.11,7.11,0,0,0,2.851,2.147Z" transform="translate(-61.011 -271.373)" fill="#ee4437" opacity="0.5"/>
            </g>
            <g id="Group_975" data-name="Group 975" transform="translate(34.364 38.793)">
              <path id="Path_4047" data-name="Path 4047" d="M0,0H28.578V2.77H0Z" transform="translate(0 21.261)" fill="#fab8b5"/>
              <path id="Path_4048" data-name="Path 4048" d="M0,0H27.932V2.77H0Z" transform="translate(14.947 21.261)" fill="#fab8b5"/>
              <g id="Group_971" data-name="Group 971" transform="translate(14.936)">
                <path id="Path_3989" data-name="Path 3989" d="M100.9,299.49h26.374a.773.773,0,0,1,.773.773v20.487H100.12V300.263a.773.773,0,0,1,.773-.773Z" transform="translate(-100.12 -299.49)" fill="#ffe9e8"/>
                <path id="Path_3990" data-name="Path 3990" d="M128.062,300.263v1.5a.783.783,0,0,0-.785-.773H100.915a.783.783,0,0,0-.785.773v-1.5a.783.783,0,0,1,.785-.773h26.362A.783.783,0,0,1,128.062,300.263Z" transform="translate(-100.118 -299.49)" fill="#fff"/>
              </g>
              <circle id="Ellipse_142" data-name="Ellipse 142" cx="1.824" cy="1.824" r="1.824" transform="translate(27.089 9.395)" fill="#fff"/>
              <path id="Path_4046" data-name="Path 4046" d="M0,0H42.879V.843H0Z" transform="translate(0 21.261)" fill="#f9d2d0"/>
              <g id="Group_974" data-name="Group 974" transform="translate(0.658 22.103)">
                <g id="Group_972" data-name="Group 972" transform="translate(15.132 0)">
                  <rect id="Rectangle_1025" data-name="Rectangle 1025" width="6.579" height="0.669" fill="#354f5c"/>
                  <rect id="Rectangle_1026" data-name="Rectangle 1026" width="1.881" height="0.669" transform="translate(7.699)" fill="#354f5c"/>
                </g>
                <g id="Group_973" data-name="Group 973">
                  <rect id="Rectangle_1027" data-name="Rectangle 1027" width="1.881" height="0.669" transform="translate(10.861 0)" fill="#354f5c"/>
                  <path id="Path_3991" data-name="Path 3991" d="M88.419,318.975a.335.335,0,1,1-.335-.335A.335.335,0,0,1,88.419,318.975Z" transform="translate(-87.75 -318.64)" fill="#354f5c"/>
                </g>
              </g>
            </g>
            <g id="Group_976" data-name="Group 976" transform="translate(0 14.366)">
              <path id="Path_3992" data-name="Path 3992" d="M103.452,324.014s-1.928.173-4.317.173c-2.516,0-5.529-.185-7.364-.981,0,0-19.391-3.532-27.955-5.829s-6.071-10.007-6.071-10.007,7.029-29.813,15.166-29.028c0,0,8.333.819,4.605,11.542a84.28,84.28,0,0,1-10.007,19.4l1.223.4L80.171,313.4a.234.234,0,0,0,.058.012l12.789,4.155c2.482.4,7.641,1.558,9.361,4.294A4.346,4.346,0,0,1,103.44,324Z" transform="translate(-57.408 -278.327)" fill="#ffb894"/>
              <path id="Path_3993" data-name="Path 3993" d="M67.83,305.564c-1.4.346-4.248.993-4.467.669-.323-.415,3.243-1.073,3.243-1.073Z" transform="translate(-56.492 -274.189)" fill="#ffb894" opacity="0.5"/>
            </g>
          </g>
          <g id="Group_979" data-name="Group 979" transform="translate(3.192)">
            <path id="Path_3994" data-name="Path 3994" d="M84.828,259.669a3.647,3.647,0,0,0-1.408-2.655c-3.682-2.724-9.164-1.674-11.981-.854a3.486,3.486,0,0,0-2.366,2.5c-.254.993-.542,2.043-.75,3.128a1.6,1.6,0,0,0-.646.289c-1.027.773-.623,3.278.773,4.571a7.655,7.655,0,0,0,1.177,2.332c3.463,4.7,12.212,6.152,14.324,3.728a7.56,7.56,0,0,0,1.016-3.705c.1-1.027.15-2.181.173-3.37a51.105,51.105,0,0,0-.3-5.967Z" transform="translate(-59.104 -252.079)" fill="#ffb894"/>
            <g id="Group_978" data-name="Group 978" transform="translate(9.438 9.498)">
              <path id="Path_3995" data-name="Path 3995" d="M73.31,265.961a1.731,1.731,0,1,0,1.731-1.731A1.729,1.729,0,0,0,73.31,265.961Z" transform="translate(-67.585 -260.193)" fill="#f29272"/>
              <path id="Path_3996" data-name="Path 3996" d="M81.5,265.947a1.749,1.749,0,0,0,1.258,1.674c.1-1.027.15-2.181.173-3.37a1.723,1.723,0,0,0-1.42,1.7Z" transform="translate(-66.322 -260.19)" fill="#f29272"/>
              <path id="Path_3997" data-name="Path 3997" d="M79.459,261.732a2.256,2.256,0,0,0-.242,1.454,4.589,4.589,0,0,0,.462,1.408,4.826,4.826,0,0,1,.3.6.631.631,0,0,1-.035.519,1.316,1.316,0,0,1-1.073.635,1.251,1.251,0,0,0,1.408-.439,1.013,1.013,0,0,0,.15-.854,4.39,4.39,0,0,0-.312-.693,8.685,8.685,0,0,1-.531-1.27,3.623,3.623,0,0,1-.139-1.374Z" transform="translate(-66.728 -260.58)" fill="#f29272"/>
              <path id="Path_3998" data-name="Path 3998" d="M78.213,261.03a1.1,1.1,0,0,0-.646-.289,2.149,2.149,0,0,0-.716.058,1.424,1.424,0,0,0-.635.346,1.711,1.711,0,0,0-.4.554.139.139,0,0,0,.069.185.145.145,0,0,0,.15-.023h.012a1.689,1.689,0,0,1,.45-.335,1.248,1.248,0,0,1,.485-.15c.335-.058.669.069,1.05.046h.046a.222.222,0,0,0,.208-.242A.229.229,0,0,0,78.213,261.03Z" transform="translate(-67.201 -260.732)" fill="#523329"/>
              <path id="Path_3999" data-name="Path 3999" d="M80.334,261.421c.381.023.716-.1,1.05-.046a1.478,1.478,0,0,1,.485.15,1.98,1.98,0,0,1,.45.335h.012a.133.133,0,0,0,.2,0,.145.145,0,0,0,.023-.15,1.609,1.609,0,0,0-1.039-.9,2.15,2.15,0,0,0-.716-.058,1.1,1.1,0,0,0-.646.289.21.21,0,0,0,0,.312.186.186,0,0,0,.15.069h.046Z" transform="translate(-66.541 -260.731)" fill="#523329"/>
              <path id="Path_4000" data-name="Path 4000" d="M79.68,267.241a3.9,3.9,0,0,1-1.616-.266,1.522,1.522,0,0,1-.589-.462,5.77,5.77,0,0,1-.485-.7,1.643,1.643,0,0,0,.162.923,1.466,1.466,0,0,0,.7.693,1.864,1.864,0,0,0,.958.15A1.706,1.706,0,0,0,79.68,267.241Z" transform="translate(-67.019 -259.949)" fill="#f29272"/>
              <path id="Path_4001" data-name="Path 4001" d="M76.98,263.484c0,.554.265,1,.6,1s.6-.45.6-1-.265-1-.6-1S76.98,262.93,76.98,263.484Z" transform="translate(-67.019 -260.463)" fill="#523329"/>
              <path id="Path_4002" data-name="Path 4002" d="M80.65,263.484c0,.554.265,1,.6,1s.6-.45.6-1-.265-1-.6-1S80.65,262.93,80.65,263.484Z" transform="translate(-66.453 -260.463)" fill="#523329"/>
              <path id="Path_4003" data-name="Path 4003" d="M68.35,263.188a.716.716,0,0,1,.566-.358,1.014,1.014,0,0,1,.623.162,3.914,3.914,0,0,1,.981.97.205.205,0,0,0,.289.046.212.212,0,0,0,.058-.265,1.165,1.165,0,0,0-.843-.542,1.2,1.2,0,0,0-.5,0,.711.711,0,0,0-.462.289.811.811,0,0,0,.092.97,1.2,1.2,0,0,0,.808.358,1.305,1.305,0,0,1-.635-.485.6.6,0,0,1,0-.635.662.662,0,0,1,.612-.1.843.843,0,0,1,.566.346l.346-.219a3.219,3.219,0,0,0-1.177-1,1.214,1.214,0,0,0-.808-.069A.728.728,0,0,0,68.35,263.188Z" transform="translate(-68.35 -260.444)" fill="#f29272"/>
            </g>
            <path id="Path_4004" data-name="Path 4004" d="M86.024,261.537c-3.4,1.627-10.388-1.431-10.388-1.431a7.8,7.8,0,0,1-.3,3.139,5.562,5.562,0,0,1-.681,1.362,1.532,1.532,0,0,1-2.32-.069c-.658-.958-2.274-2.609-3.07-1.189-1.258,2.216,1.3,4.144,3.22,4.836v11.842s-3.186,1.385-5.783,6.464l-3.555,6.8a6.964,6.964,0,0,1-1.558-3.844,16.411,16.411,0,0,1,.623-4.709,7.846,7.846,0,0,0-.127-4.7c-.312-.727-.808-1.35-1.177-2.055a8.11,8.11,0,0,1-.023-6.694,20.376,20.376,0,0,1,3.867-5.679c.9-1.016,1.881-2.181,1.812-3.532a9.052,9.052,0,0,1,4.017-7.964,9.935,9.935,0,0,1,9.026-.935c.854.346,1.662.808,2.551,1.085a27.273,27.273,0,0,1,3.728.993,5.325,5.325,0,0,1,2.735,3.555,8.2,8.2,0,0,1-.323,4.559,21.338,21.338,0,0,0-1.1,3.2,10.863,10.863,0,0,0,.635,6.44c.9,1.962,2.735,3.486,3.209,5.586a6.831,6.831,0,0,1,.023,2.562,14.013,14.013,0,0,1-2.62,6.567L81,280.074l-.069-5.794s3.324.139,4.248-1.385.831-11.369.831-11.369Z" transform="translate(-60.173 -252.504)" fill="#222229"/>
          </g>
        </g>
      </g>
      <g id="Group_1002" data-name="Group 1002" transform="translate(284.329 287.599)">
        <path id="Path_4005" data-name="Path 4005" d="M352.724,387.1c0,2-10.942,3.613-40.317,3.613S246.34,389.1,246.34,387.1s23.811-3.613,53.2-3.613,53.2,1.616,53.2,3.613Z" transform="translate(-246.34 -228.462)" fill="#ffe9e8"/>
        <g id="Group_1001" data-name="Group 1001" transform="translate(20.722)">
          <g id="Group_983" data-name="Group 983" transform="translate(3.009 29.513)">
            <path id="Path_4006" data-name="Path 4006" d="M269.52,317.475a1.236,1.236,0,0,0-.45.392.485.485,0,0,0,.023.566.766.766,0,0,0,.508.162,4.885,4.885,0,0,1,1.87.566c-.935,1.189-2.493,1.639-3.89,2.216-.358.15-.785.45-.658.819.115.312.542.358.877.312a7.439,7.439,0,0,0,2.366-.693c-.877.462-1.743.935-2.62,1.4-.266.138-.577.392-.485.681.081.231.358.289.6.312a5.991,5.991,0,0,0,3.624-.946c-.877.589-1.754,1.166-2.632,1.754a.54.54,0,0,0-.254.277.376.376,0,0,0,.242.416.989.989,0,0,0,.519.023,11.022,11.022,0,0,0,3.4-1l-1.027,1.016c-.208.2-.427.508-.265.739s.485.173.739.069a7.838,7.838,0,0,0,3.163-2.493,23.607,23.607,0,0,0,2.147-3.451,1.993,1.993,0,0,0,.242-.612,1.376,1.376,0,0,0-.15-.739,4.13,4.13,0,0,0-1.789-1.847,6.057,6.057,0,0,0-6.094.058Z" transform="translate(-266.9 -268.288)" fill="#e28758"/>
            <g id="Group_982" data-name="Group 982" transform="translate(7.26)">
              <path id="Path_4007" data-name="Path 4007" d="M309.905,312.678c-3.451,3.97-33.322,15.813-33.322,15.813l-3.036-5.575-.358-.658,27.586-16.39s7.768-26.466,9.949-29.4c.058-.069.127-.15.2-.219,2.343-2.666,8.887-1.685,10.919,2.089,2.078,3.867-8.507,30.367-11.946,34.338Z" transform="translate(-273.19 -274.745)" fill="#fff"/>
              <path id="Path_4008" data-name="Path 4008" d="M310.933,276.05c-.069,6.637-6.556,31.625-6.556,31.625l-30.829,15.039-.358-.658,27.586-16.39s7.768-26.466,9.949-29.4c.058-.069.127-.15.2-.219Z" transform="translate(-273.19 -274.544)" fill="#e6faff"/>
            </g>
          </g>
          <g id="Group_991" data-name="Group 991" transform="translate(0 65.161)">
            <g id="Group_987" data-name="Group 987">
              <g id="Group_984" data-name="Group 984" transform="translate(0 61.831)">
                <path id="Path_4009" data-name="Path 4009" d="M274.769,367.568l-1.789-6.925,8.276-1.443-.219,8.137s-4.467,1.731-6.267.231Z" transform="translate(-262.954 -359.2)" fill="#e28758"/>
                <path id="Path_4010" data-name="Path 4010" d="M284.557,369.437c1.4-.75-.7-3.116-1.708-4.351-.138-.173-.5-.115-.716-.081a4.481,4.481,0,0,1-3.232,1.223,2.9,2.9,0,0,1-1.131-.265,12.522,12.522,0,0,0-1.374-.877,1.916,1.916,0,0,0-1.489.127,7.829,7.829,0,0,0-1.316,1.085,25.261,25.261,0,0,1-6.187,3.913,7.452,7.452,0,0,0-2.4,1.4,2.136,2.136,0,0,0-.462,2.539S282.688,370.453,284.557,369.437Z" transform="translate(-264.294 -358.311)" fill="#222229"/>
              </g>
              <g id="Group_986" data-name="Group 986" transform="translate(1.888)">
                <path id="Path_4011" data-name="Path 4011" d="M321.7,321.268a4.089,4.089,0,0,1-.831.854h-.012c-2.955,2.378-11.023,4.709-19.044,6.579-9.915,2.3-19.76,3.878-19.76,3.878.843,3.047,1.12,36.785,1.12,36.785l-1.374.208-1.223.185-6.891,1.039s-8.864-42.914-7.641-46.7c.97-2.989,28.024-12.731,39.474-16.725,3.093-1.073,5.044-1.731,5.044-1.731s8.022,5.356,10.827,10.446h0c1.027,1.87,1.35,3.694.3,5.194Z" transform="translate(-265.93 -305.628)" fill="#ee4437"/>
                <path id="Path_4012" data-name="Path 4012" d="M316.618,316.076h0c0,.75-.023,1.489-.081,2.228-.012.219-.023.45-.046.669-.081,1.05-.208,2.112-.392,3.151h-.012c-2.955,2.378-11.023,4.709-19.044,6.579a.446.446,0,0,1-.092-.242,1.164,1.164,0,0,1,.4-.8,51.1,51.1,0,0,0,3.636-4.271H301a14.114,14.114,0,0,0,1.027-1.57c.139-.219.254-.439.381-.669,1.258-2.458,1.789-5.459.669-7.976-.843-1.939-2.62-3.682-2.32-5.783a.042.042,0,0,1,.012-.035c3.093-1.073,5.044-1.731,5.044-1.731s8.022,5.356,10.827,10.446Z" transform="translate(-261.146 -305.63)" fill="#ee4437" opacity="0.5"/>
                <g id="Group_985" data-name="Group 985" transform="translate(10.752 12.108)" opacity="0.5">
                  <path id="Path_4013" data-name="Path 4013" d="M320.046,317.3l-.219.058-15.49,4.432-26.385,7.525a2.04,2.04,0,0,0-1.466,2.193l3.9,36.462-1.223.185-3.9-36.519a3.284,3.284,0,0,1,2.355-3.5l27.747-7.918,14.358-4.1.162.566.173.612Z" transform="translate(-275.245 -316.12)" fill="#ee4437"/>
                </g>
              </g>
            </g>
            <g id="Group_990" data-name="Group 990" transform="translate(17.158 0)">
              <g id="Group_988" data-name="Group 988" transform="translate(0 82.595)">
                <path id="Path_4014" data-name="Path 4014" d="M290.76,384.323l.508-7.133,8.31,1.27-2.8,7.641s-4.79.208-6.013-1.777Z" transform="translate(-277.371 -377.19)" fill="#e28758"/>
                <path id="Path_4015" data-name="Path 4015" d="M299.67,388.918c1.558-.265.323-3.186-.231-4.663-.081-.208-.439-.265-.658-.3a4.426,4.426,0,0,1-3.451.127,2.709,2.709,0,0,1-.981-.612,15.769,15.769,0,0,0-1.016-1.27,1.918,1.918,0,0,0-1.454-.358,7.435,7.435,0,0,0-1.593.612,25.636,25.636,0,0,1-7.11,1.731,7.632,7.632,0,0,0-2.712.554A2.144,2.144,0,0,0,279.206,387s18.375,2.285,20.476,1.928Z" transform="translate(-279.159 -376.476)" fill="#212128"/>
              </g>
              <g id="Group_989" data-name="Group 989" transform="translate(12.605)">
                <path id="Path_4016" data-name="Path 4016" d="M335.833,328.172c-1.754,3.347-26.478,24.689-26.478,24.689.115,3.543-7.341,36.923-8.841,37.3a7.11,7.11,0,0,1-1.731-.012c-.381-.023-.8-.069-1.235-.127-3.139-.392-7.468-1.247-7.468-1.247s2.32-36.681,5.263-42.879,15.709-22.172,15.709-22.172c-2.909-1.766-4.19-18.1-4.19-18.1l20.961.2h1.223l3.924.046a95.72,95.72,0,0,1,2.7,10.1c.081.392.162.8.231,1.2.8,4.282,1.154,8.68-.058,11Z" transform="translate(-290.08 -305.63)" fill="#ee4437"/>
                <path id="Path_4017" data-name="Path 4017" d="M334.894,317.157c-.369.035-.727.058-1.062.058a6.871,6.871,0,0,1-2.643-.508c-2.043,3.266-14.947,23.557-25.635,33.622a3.127,3.127,0,0,0-.946,1.7l-6.833,38.1c-.381-.023-.8-.069-1.235-.127l6.868-38.2a4.374,4.374,0,0,1,1.293-2.378c10.538-9.915,23.28-29.929,25.4-33.322a6.328,6.328,0,0,1-.693-.554c-2.609-2.516-2.747-7.214-2.609-9.742h1.223c-.138,2.332-.035,6.694,2.228,8.864a5.307,5.307,0,0,0,4.4,1.281c.081.392.162.8.231,1.2Z" transform="translate(-289.084 -305.604)" fill="#ee4437" opacity="0.5"/>
              </g>
            </g>
          </g>
          <g id="Group_998" data-name="Group 998" transform="translate(16.48 15.322)">
            <g id="Group_992" data-name="Group 992" transform="translate(35.871)">
              <path id="Path_4018" data-name="Path 4018" d="M321.561,273.969l-9.338,2.435-.762-3.509-.566-2.585-1.247-5.736,8.183-2.124Z" transform="translate(-309.65 -262.45)" fill="#e28758"/>
              <path id="Path_4019" data-name="Path 4019" d="M316.212,266.24s-1.27,5.194-4.917,6.071l-.566-2.585c.762-.219,4.374-1.4,5.482-3.486Z" transform="translate(-309.483 -261.866)" fill="#c26144"/>
            </g>
            <g id="Group_996" data-name="Group 996" transform="translate(26.716 10.7)">
              <path id="Path_4020" data-name="Path 4020" d="M332.964,284.832c-.138-5.875-10.423-12.442-10.423-12.442h-9.649s-10.284,6.567-10.423,12.442c-.069,2.9,2.458,25.924,2.458,25.924l12.777-.242,12.777.242s2.528-23.027,2.458-25.924Z" transform="translate(-301.603 -271.617)" fill="#e28758"/>
              <path id="Path_4021" data-name="Path 4021" d="M311.942,272.392s.346.069.935.15c.5.069,1.789,1.9,1.789,1.9s1.339-1.558,1.985-1.524a18.979,18.979,0,0,0,6.417-.542s10.757,4.686,10.63,12.431-3.128,25.935-3.128,25.935H305.017s-2.862-18.975-2.9-22.842c-.035-4.063,2.424-13.3,9.845-15.524Z" transform="translate(-301.656 -271.618)" fill="#fff"/>
              <g id="Group_994" data-name="Group 994" transform="translate(0 1.42)">
                <g id="Group_993" data-name="Group 993">
                  <path id="Path_4022" data-name="Path 4022" d="M333.967,288.809c-.3,4.986-2.8,22.115-2.8,22.115H304.581s-2.609-20.845-2.839-23.084a14.2,14.2,0,0,1,.669-4.282c1.085-3.832,3.555-8.841,7.953-10.607,0,0,.727,10.353.981,10.619s8.437-9.6,14.612-10.1c0,0,5.055,3.774,6.371,5.713s1.939,4.651,1.639,9.638Z" transform="translate(-301.717 -272.95)" fill="#222229"/>
                  <path id="Path_4023" data-name="Path 4023" d="M318.687,309.506H304.571s-2.609-20.845-2.839-23.084a14.2,14.2,0,0,1,.669-4.282c1.57,7.606,6.117,24.215,16.274,27.366Z" transform="translate(-301.718 -271.533)" fill="#222229" opacity="0.5"/>
                </g>
                <ellipse id="Ellipse_143" data-name="Ellipse 143" cx="5.379" cy="10.019" rx="5.379" ry="10.019" transform="translate(19.3 3.809)" fill="#fff"/>
              </g>
              <g id="Group_995" data-name="Group 995" transform="translate(7.47)">
                <path id="Path_4024" data-name="Path 4024" d="M313.719,274.548l-1.708-2.828s-3.463.312-3.82,2.078l2.816-1.3,2.712,2.055Z" transform="translate(-308.19 -271.72)" fill="#fff"/>
                <path id="Path_4025" data-name="Path 4025" d="M312.98,274.508s1.327-2.02,2.735-2.3a58.617,58.617,0,0,1,6.348-.231.452.452,0,0,1,.3.1l1.858,1.512a.111.111,0,0,1-.035.2,42.16,42.16,0,0,1-6.29,1.281.329.329,0,0,1-.277-.138c-.335-.439-1.362-1.766-1.9-1.731A12.175,12.175,0,0,0,312.98,274.508Z" transform="translate(-307.451 -271.68)" fill="#fff"/>
                <path id="Path_4026" data-name="Path 4026" d="M311.064,272.7s-.4,3.659,0,4.1a2.745,2.745,0,0,0,2.585.473c.693-.415,2.389-4.167,2.389-4.167a2.151,2.151,0,0,0-.785.231c-.45.208-1.951,1.073-1.951,1.073l-2.239-1.7Z" transform="translate(-307.774 -271.569)" fill="#ee4437"/>
                <path id="Path_4027" data-name="Path 4027" d="M313.711,279.643h0c-2.055,1.939-3.474,3.52-3.578,3.416a35.06,35.06,0,0,1-.542-4.744v-.023l1.674-2.043,2.239.612.208,2.793Z" transform="translate(-307.974 -271.021)" fill="#ee4437"/>
              </g>
            </g>
            <g id="Group_997" data-name="Group 997" transform="translate(0 15.927)">
              <path id="Path_4028" data-name="Path 4028" d="M286.718,294.262h0a1.162,1.162,0,0,1-1.627-.242l-6.29-8.472a1.162,1.162,0,0,1,.242-1.627h0a1.162,1.162,0,0,1,1.627.242l6.29,8.472A1.162,1.162,0,0,1,286.718,294.262Z" transform="translate(-278.572 -275.102)" fill="#293b52"/>
              <path id="Path_4029" data-name="Path 4029" d="M287.935,296.32s-10.4-2.435-9.141-6.937c0,0-.046-.138.739-.531,0,0-.081-1.524.4-1.939s2.6,4.328,5.136,3.5c0,0-.7-1.951-.866-2.332s.577-.739,1.35-.1a15.261,15.261,0,0,1,4.374,4.871l-1.985,3.474Z" transform="translate(-278.554 -274.609)" fill="#e28758"/>
              <path id="Path_4030" data-name="Path 4030" d="M285.9,299.461s28.671,17.105,33.853,14.843S333.8,285.161,333.8,285.161s-2.32-9-4.963-8.911c-6.971.254-11.508,15.363-14.451,25.3l-25.3-9.268-3.174,7.179Z" transform="translate(-277.442 -276.249)" fill="#fff"/>
              <path id="Path_4031" data-name="Path 4031" d="M310.58,298.17s.439,3.393.912,3.036C312.45,300.467,310.58,298.17,310.58,298.17Z" transform="translate(-273.636 -272.869)" fill="#d9f7ff"/>
              <path id="Path_4032" data-name="Path 4032" d="M324.47,293.252l3.012-8.322S328.833,291.648,324.47,293.252Z" transform="translate(-271.494 -274.911)" fill="#d9f7ff"/>
            </g>
          </g>
          <g id="Group_1000" data-name="Group 1000" transform="translate(41.161)">
            <path id="Path_4033" data-name="Path 4033" d="M321.008,257.715a1.457,1.457,0,0,0-1.027-.058,26.219,26.219,0,0,0-1.408-2.909,3.452,3.452,0,0,0-2.92-1.824c-2.932-.081-8.426-.346-11.311,3.22a3.624,3.624,0,0,0-.693,2.92,58.4,58.4,0,0,0,1.374,6.487c.312,1.143.658,2.251,1,3.22a7.61,7.61,0,0,0,1.9,3.324c2.655,1.824,10.18-1.316,12.362-6.729a8.612,8.612,0,0,0,.577-2.378c1.627-1.443,1.512-4.709.139-5.263Z" transform="translate(-299.396 -248.603)" fill="#e28758"/>
            <g id="Group_999" data-name="Group 999" transform="translate(6.374 10.449)">
              <path id="Path_4034" data-name="Path 4034" d="M308.164,260.35a2.217,2.217,0,0,1,.577,1.293,4.491,4.491,0,0,1-.092,1.42,3.985,3.985,0,0,0-.139.635.653.653,0,0,0,.162.485,1.26,1.26,0,0,0,1.154.335,1.183,1.183,0,0,1-1.42-.069,1,1,0,0,1-.346-.75,2.952,2.952,0,0,1,.127-.716,7.244,7.244,0,0,0,.185-1.3,3.276,3.276,0,0,0-.208-1.316Z" transform="translate(-305.079 -257.9)" fill="#c26144"/>
              <path id="Path_4035" data-name="Path 4035" d="M309.363,259.372a1.185,1.185,0,0,1,.531-.427,1.964,1.964,0,0,1,.681-.115,1.479,1.479,0,0,1,.669.173,1.522,1.522,0,0,1,.508.427.14.14,0,0,1-.012.185.124.124,0,0,1-.138.012h-.012a1.983,1.983,0,0,0-.5-.208,1.148,1.148,0,0,0-.485-.023,10.124,10.124,0,0,0-.97.3h-.046a.2.2,0,0,1-.254-.162.209.209,0,0,1,.035-.15Z" transform="translate(-304.882 -258.135)" fill="#523329"/>
              <path id="Path_4036" data-name="Path 4036" d="M307.466,260.27c-.346.115-.693.081-.993.208a1.338,1.338,0,0,0-.415.265,2.03,2.03,0,0,0-.335.416h0a.126.126,0,0,1-.185.046.132.132,0,0,1-.058-.139,1.717,1.717,0,0,1,.231-.612,1.333,1.333,0,0,1,.508-.473,1.978,1.978,0,0,1,.646-.231,1.137,1.137,0,0,1,.669.115.21.21,0,0,1,.081.289.252.252,0,0,1-.115.1h-.046Z" transform="translate(-305.477 -257.994)" fill="#523329"/>
              <path id="Path_4037" data-name="Path 4037" d="M309.5,265.554a3.857,3.857,0,0,0,1.443-.635,1.527,1.527,0,0,0,.439-.566,5.46,5.46,0,0,0,.277-.773,1.552,1.552,0,0,1,.069.889,1.466,1.466,0,0,1-.485.819,1.661,1.661,0,0,1-.854.369,1.784,1.784,0,0,1-.889-.092Z" transform="translate(-304.857 -257.402)" fill="#c26144"/>
              <path id="Path_4038" data-name="Path 4038" d="M310.925,261.386c.138.508,0,.993-.312,1.073s-.658-.277-.8-.785,0-.993.312-1.073S310.787,260.879,310.925,261.386Z" transform="translate(-304.817 -257.863)" fill="#523329"/>
              <path id="Path_4039" data-name="Path 4039" d="M307.515,262.266c.138.508,0,.993-.312,1.073s-.658-.277-.8-.785,0-.993.312-1.073S307.377,261.759,307.515,262.266Z" transform="translate(-305.342 -257.728)" fill="#523329"/>
              <path id="Path_4040" data-name="Path 4040" d="M319.448,258.634a.741.741,0,0,0-.635-.208,1.1,1.1,0,0,0-.566.312,3.953,3.953,0,0,0-.7,1.189.2.2,0,0,1-.266.115.218.218,0,0,1-.127-.242,1.174,1.174,0,0,1,.681-.739,1.307,1.307,0,0,1,.485-.127.775.775,0,0,1,.519.162.8.8,0,0,1,.15.958,1.2,1.2,0,0,1-.693.554,1.3,1.3,0,0,0,.5-.635.552.552,0,0,0-.173-.612.6.6,0,0,0-.612.058.815.815,0,0,0-.45.473l-.392-.127a3.105,3.105,0,0,1,.889-1.27,1.137,1.137,0,0,1,.762-.265.72.72,0,0,1,.635.392Z" transform="translate(-303.678 -258.228)" fill="#c26144"/>
            </g>
            <path id="Path_4041" data-name="Path 4041" d="M320.91,258.172c-2.17.289-2.932,4.351-2.932,4.351a3.041,3.041,0,0,1-1.524-.97,7.27,7.27,0,0,1-2.3-3.682A8.409,8.409,0,0,1,309,259.788a10.188,10.188,0,0,1-4.79-.5l.681,4.028a7.6,7.6,0,0,1-2.62-1.327,4.517,4.517,0,0,1-1.57-2.412c-.081-.323-.035-.773.289-.843a5,5,0,0,1-1.027-3.163,3.764,3.764,0,0,1,1.535-2.9,3.017,3.017,0,0,1,3.209-.162,2.84,2.84,0,0,1,1.166-2.62,3.641,3.641,0,0,1,2.874-.658,5.093,5.093,0,0,1,2.62,1.443,8.435,8.435,0,0,1,5.875.046,4.833,4.833,0,0,1,2.112,1.42,5.368,5.368,0,0,1,.946,1.431,43.335,43.335,0,0,1,.623,4.594Z" transform="translate(-299.955 -249.175)" fill="#202027"/>
          </g>
        </g>
      </g>
    </g>
  </g>
</svg>
