<svg id="finshastra-graphics" xmlns="http://www.w3.org/2000/svg" width="454.737" height="292.934" viewBox="0 0 454.737 292.934">
  <g id="OBJECTS" transform="translate(0 1.5)">
    <g id="Group_696" data-name="Group 696">
      <g id="Group_647" data-name="Group 647" transform="translate(3.74 18.996)">
        <g id="Group_641" data-name="Group 641" transform="translate(0 7.45)">
          <path id="Path_2692" data-name="Path 2692" d="M63.551,361.975c-.559-.138-1.112-.283-1.671-.435" transform="translate(-22.892 -139.379)" fill="none" stroke="#a9c6ea" stroke-width="1"/>
          <path id="Path_2693" data-name="Path 2693" d="M42.091,261.284c-10.392-3.252-20.453-9.211-27.413-17.476C-9.827,214.7,18.89,177.382,47.463,165.629,61.4,159.9,73.951,153.055,78.045,137.167c3.915-15.2-6.808-31.079-9.577-45.587C62.9,62.386,89.148,39.8,116.844,39.8c25.528,0,37.024,9.729,62.359,26.7,19.148,12.829,55.109,20.349,82.735,17.642,32.9-3.232,45.3-17.642,71.529-29.374,18.05-8.072,43.2-9.8,60.087,2.168,18.036,12.781,11.179,37.812,13.237,56.5a34.765,34.765,0,0,0,4.081,13.43c14.777,26.073,45.041,27.413,45.041,66.018,0,27.855-44.44,38.889-68.442,42.514" transform="translate(-5.416 -39.8)" fill="none" stroke="#faada8" stroke-width="1" stroke-dasharray="0 0 5 3.5"/>
          <path id="Path_2694" data-name="Path 2694" d="M556.216,323.35c-.58.083-1.153.166-1.706.242" transform="translate(-175.362 -127.56)" fill="none" stroke="#a9c6ea" stroke-width="1"/>
        </g>
        <line id="Line_51" data-name="Line 51" x2="9.853" transform="translate(33.754 84.531)" fill="none" stroke="#ffdbd9" stroke-width="1"/>
        <line id="Line_52" data-name="Line 52" x2="9.846" transform="translate(43.608 90.006)" fill="none" stroke="#ffdbd9" stroke-width="1"/>
        <line id="Line_53" data-name="Line 53" x2="9.846" transform="translate(334.3 41.506)" fill="none" stroke="#ffdbd9" stroke-width="1"/>
        <line id="Line_54" data-name="Line 54" x2="9.853" transform="translate(328.044 46.988)" fill="none" stroke="#ffdbd9" stroke-width="1"/>
        <line id="Line_55" data-name="Line 55" x2="13.382" transform="translate(343.056 44.371)" fill="none" stroke="#ffdbd9" stroke-width="1"/>
        <line id="Line_56" data-name="Line 56" x2="7.085" transform="translate(428.947 158.248)" fill="none" stroke="#ffdbd9" stroke-width="1"/>
        <line id="Line_57" data-name="Line 57" x2="9.846" transform="translate(422.518 152.835)" fill="none" stroke="#ffdbd9" stroke-width="1"/>
        <line id="Line_58" data-name="Line 58" x2="9.846" transform="translate(103.315 14.922)" fill="none" stroke="#ffdbd9" stroke-width="1"/>
        <line id="Line_59" data-name="Line 59" x2="16.199" transform="translate(87.268 133.604)" fill="none" stroke="#ffdbd9" stroke-width="1"/>
        <line id="Line_60" data-name="Line 60" x2="8.41" transform="translate(106.885 133.604)" fill="none" stroke="#ffdbd9" stroke-width="1"/>
        <path id="Path_2695" data-name="Path 2695" d="M431.363,191.166a3.176,3.176,0,1,1-3.176-3.176A3.177,3.177,0,0,1,431.363,191.166Z" transform="translate(-135.281 -78.215)" fill="none" stroke="#a9c6ea" stroke-width="1"/>
        <path id="Path_2696" data-name="Path 2696" d="M612.283,159.306a3.176,3.176,0,1,1-3.176-3.176A3.177,3.177,0,0,1,612.283,159.306Z" transform="translate(-191.277 -68.354)" fill="none" stroke="#ffdbd9" stroke-width="1"/>
        <path id="Path_2697" data-name="Path 2697" d="M441.383,60.066a3.176,3.176,0,1,1-3.176-3.176,3.177,3.177,0,0,1,3.176,3.176Z" transform="translate(-138.383 -37.639)" fill="none" stroke="#ffdbd9" stroke-width="1"/>
        <path id="Path_2698" data-name="Path 2698" d="M532.762,67.671a1.581,1.581,0,1,1-1.581-1.581A1.585,1.585,0,0,1,532.762,67.671Z" transform="translate(-167.652 -40.486)" fill="none" stroke="#ffdbd9" stroke-width="1"/>
        <path id="Path_2699" data-name="Path 2699" d="M392.742,239.741a1.581,1.581,0,1,1-1.581-1.581A1.585,1.585,0,0,1,392.742,239.741Z" transform="translate(-124.316 -93.743)" fill="none" stroke="#ffdbd9" stroke-width="1"/>
        <path id="Path_2700" data-name="Path 2700" d="M126.622,75.481a1.581,1.581,0,1,1-1.581-1.581A1.585,1.585,0,0,1,126.622,75.481Z" transform="translate(-41.951 -42.904)" fill="none" stroke="#ffdbd9" stroke-width="1"/>
        <path id="Path_2701" data-name="Path 2701" d="M23.122,218.581A1.581,1.581,0,1,1,21.541,217,1.585,1.585,0,0,1,23.122,218.581Z" transform="translate(-9.917 -87.193)" fill="none" stroke="#ffdbd9" stroke-width="1"/>
        <path id="Path_2702" data-name="Path 2702" d="M135.922,171.671a1.581,1.581,0,1,1-1.581-1.581A1.585,1.585,0,0,1,135.922,171.671Z" transform="translate(-44.829 -72.675)" fill="none" stroke="#ffdbd9" stroke-width="1"/>
        <g id="Group_642" data-name="Group 642" transform="translate(40.431 49.923)">
          <line id="Line_61" data-name="Line 61" y2="3.742" transform="translate(1.871)" fill="none" stroke="#ffdbd9" stroke-width="1"/>
          <line id="Line_62" data-name="Line 62" x1="3.742" transform="translate(0 1.871)" fill="none" stroke="#ffdbd9" stroke-width="1"/>
        </g>
        <g id="Group_643" data-name="Group 643" transform="translate(259.367)">
          <line id="Line_63" data-name="Line 63" y2="3.742" transform="translate(1.871)" fill="none" stroke="#ffdbd9" stroke-width="1"/>
          <line id="Line_64" data-name="Line 64" x1="3.742" transform="translate(0 1.871)" fill="none" stroke="#ffdbd9" stroke-width="1"/>
        </g>
        <g id="Group_644" data-name="Group 644" transform="translate(377.159 57.877)">
          <line id="Line_65" data-name="Line 65" y2="3.742" transform="translate(1.871)" fill="none" stroke="#ffdbd9" stroke-width="1"/>
          <line id="Line_66" data-name="Line 66" x1="3.742" transform="translate(0 1.871)" fill="none" stroke="#ffdbd9" stroke-width="1"/>
        </g>
        <g id="Group_645" data-name="Group 645" transform="translate(438.344 107.897)">
          <line id="Line_67" data-name="Line 67" y2="3.742" transform="translate(1.871)" fill="none" stroke="#ffdbd9" stroke-width="1"/>
          <line id="Line_68" data-name="Line 68" x1="3.742" transform="translate(0 1.871)" fill="none" stroke="#ffdbd9" stroke-width="1"/>
        </g>
        <g id="Group_646" data-name="Group 646" transform="translate(420.647 173.591)">
          <line id="Line_69" data-name="Line 69" y2="3.742" transform="translate(1.871)" fill="none" stroke="#ffdbd9" stroke-width="1"/>
          <line id="Line_70" data-name="Line 70" x1="3.742" transform="translate(0 1.871)" fill="none" stroke="#ffdbd9" stroke-width="1"/>
        </g>
        <path id="Path_2703" data-name="Path 2703" d="M435.792,199.245a31.478,31.478,0,0,0,4.095-14.086l-6.649-.918a24.614,24.614,0,0,0-.732-6.58l6.3-2.355a31.757,31.757,0,0,0-7.064-12.857l-5.358,4.06a24.525,24.525,0,0,0-5.165-4.143l2.79-6.111a31.477,31.477,0,0,0-14.086-4.095L409,158.809a24.616,24.616,0,0,0-6.58.732l-2.355-6.3a31.758,31.758,0,0,0-12.857,7.064l4.06,5.358a24.527,24.527,0,0,0-4.143,5.165l-6.111-2.79a31.478,31.478,0,0,0-4.095,14.086l6.65.918a24.616,24.616,0,0,0,.732,6.58l-6.3,2.355a31.757,31.757,0,0,0,7.064,12.857l5.358-4.053a24.527,24.527,0,0,0,5.165,4.143l-2.79,6.111a31.478,31.478,0,0,0,14.086,4.095l.918-6.649a24.616,24.616,0,0,0,6.58-.732l2.355,6.3a31.758,31.758,0,0,0,12.857-7.064l-4.053-5.358a24.526,24.526,0,0,0,4.143-5.165l6.111,2.79Zm-31.832-.318a15.906,15.906,0,1,1,19.714-10.834A15.9,15.9,0,0,1,403.96,198.927Zm1.167-4.012a11.728,11.728,0,1,1,14.535-7.989,11.726,11.726,0,0,1-14.535,7.989Z" transform="translate(-120.397 -67.125)" fill="#ffdbd9"/>
        <path id="Path_2704" data-name="Path 2704" d="M458.027,120.129a15.6,15.6,0,0,0-2.286-6.87l-2.962,1.491a12.472,12.472,0,0,0-2.141-2.472l1.9-2.721a15.608,15.608,0,0,0-6.477-3.245l-1.043,3.149a12.212,12.212,0,0,0-3.259-.235l-.58-3.266a15.6,15.6,0,0,0-6.87,2.286l1.492,2.962a12.473,12.473,0,0,0-2.472,2.141l-2.721-1.9a15.608,15.608,0,0,0-3.245,6.477l3.149,1.043a12.211,12.211,0,0,0-.235,3.259l-3.266.58a15.6,15.6,0,0,0,2.286,6.87l2.962-1.491a12.473,12.473,0,0,0,2.141,2.472l-1.9,2.721a15.608,15.608,0,0,0,6.477,3.245l1.043-3.149a12.212,12.212,0,0,0,3.259.235l.58,3.266a15.6,15.6,0,0,0,6.87-2.286l-1.492-2.962a12.473,12.473,0,0,0,2.472-2.141l2.721,1.9a15.608,15.608,0,0,0,3.245-6.477l-3.149-1.043a12.211,12.211,0,0,0,.235-3.259l3.266-.58Zm-13.416,7.616a6.612,6.612,0,1,1,4.184-8.362A6.61,6.61,0,0,1,444.611,127.745Z" transform="translate(-135.9 -52.826)" fill="#ffdbd9"/>
        <path id="Path_2705" data-name="Path 2705" d="M214.468,84.365a23.8,23.8,0,0,0-3.494-10.516l-4.53,2.279a18.542,18.542,0,0,0-3.28-3.777l2.907-4.164a24,24,0,0,0-9.909-4.965l-1.6,4.827a18.534,18.534,0,0,0-4.992-.359l-.891-5a23.8,23.8,0,0,0-10.516,3.494l2.279,4.53a18.542,18.542,0,0,0-3.777,3.28l-4.164-2.907A24,24,0,0,0,167.542,81l4.827,1.6a18.533,18.533,0,0,0-.359,4.992l-5,.891A23.8,23.8,0,0,0,170.5,98.989l4.53-2.279a18.542,18.542,0,0,0,3.28,3.777l-2.907,4.164a24,24,0,0,0,9.909,4.965l1.6-4.827a18.534,18.534,0,0,0,4.992.359l.891,5a23.8,23.8,0,0,0,10.516-3.494l-2.279-4.53a18.54,18.54,0,0,0,3.777-3.28l4.164,2.907a24,24,0,0,0,4.965-9.909l-4.827-1.6a18.534,18.534,0,0,0,.359-4.992l5-.891ZM193.932,96.02a10.119,10.119,0,1,1,6.408-12.795A10.122,10.122,0,0,1,193.932,96.02Z" transform="translate(-55.43 -39.434)" fill="#ffdbd9"/>
        <path id="Path_2706" data-name="Path 2706" d="M155.035,136.781a17.892,17.892,0,0,0,2.32-7.982l-3.77-.525a13.738,13.738,0,0,0-.414-3.729l3.57-1.333a17.949,17.949,0,0,0-4-7.285l-3.038,2.3a14.058,14.058,0,0,0-2.928-2.348l1.581-3.459a17.892,17.892,0,0,0-7.982-2.32l-.525,3.77a13.737,13.737,0,0,0-3.729.414l-1.333-3.57a17.948,17.948,0,0,0-7.285,4l2.3,3.038a14.058,14.058,0,0,0-2.348,2.928L123.99,119.1a17.892,17.892,0,0,0-2.32,7.982l3.77.525a14.014,14.014,0,0,0,.414,3.729l-3.57,1.333a17.949,17.949,0,0,0,4,7.285l3.038-2.3a14.059,14.059,0,0,0,2.928,2.348l-1.581,3.459a17.892,17.892,0,0,0,7.982,2.32l.525-3.77a13.736,13.736,0,0,0,3.729-.414l1.333,3.57a17.949,17.949,0,0,0,7.285-4l-2.3-3.038a14.059,14.059,0,0,0,2.348-2.928l3.459,1.581Zm-18.029-.18a9.01,9.01,0,1,1,11.165-6.139A9.01,9.01,0,0,1,137.006,136.6Zm.663-2.272a6.647,6.647,0,1,1,8.238-4.53,6.65,6.65,0,0,1-8.238,4.53Z" transform="translate(-41.397 -54.108)" fill="#ffdbd9"/>
      </g>
      <g id="Group_651" data-name="Group 651" transform="translate(20.741 161.461)">
        <g id="Group_648" data-name="Group 648" transform="translate(122.97 50.121)">
          <path id="Path_2707" data-name="Path 2707" d="M295.81,408.9c2.1-4.336,13.064-23.332,24.623-29.6a12.581,12.581,0,0,1,4.682-1.692,5.027,5.027,0,0,1,4.488,1.706,5.625,5.625,0,0,1,.753,4.378c-2.1,11.877-15.626,16.427-22.234,25.21" transform="translate(-235.265 -329.479)" fill="#ffdbd9"/>
          <path id="Path_2708" data-name="Path 2708" d="M291.186,397.689s10.875-21.468,21.5-34.256c5.027-6.056,8.479-17.269,3.2-20.632-7.651-4.861-15.163,5.966-18.609,11.345a112.875,112.875,0,0,0-11.994,26.3c-.428,1.326-4.329,17.242-4.405,17.242Z" transform="translate(-230.641 -318.336)" fill="#ffdbd9"/>
          <path id="Path_2709" data-name="Path 2709" d="M315.227,352.26C305.2,364.938,296.881,383.712,291.35,401" transform="translate(-233.884 -321.643)" fill="none" stroke="#fff" stroke-width="1"/>
          <path id="Path_2710" data-name="Path 2710" d="M245.872,396.8s-1.264-33.033-15.881-48.307c-3.95-4.129-10.427-8.417-15.736-9.591-6.884-1.519-6.7,6.574-5.455,11.821,1.616,6.8,7.174,11.041,11.179,16.1,7.375,9.322,11.773,15.467,17.159,29.968" transform="translate(-208.127 -317.452)" fill="#b2cded"/>
          <path id="Path_2711" data-name="Path 2711" d="M256.253,387.586c3.943-7.223,2.555-38.088.58-47.762a49.306,49.306,0,0,0-8.058-18.643c-3.494-4.861-13.948-15.585-20.1-11.227-3.556,2.52,1.83,11.593,3.252,14.321a154.441,154.441,0,0,1,11.117,27.993,170.2,170.2,0,0,1,6.7,34.87c.014.152.021.3.035.449" transform="translate(-214.117 -308.233)" fill="#ffdbd9"/>
          <path id="Path_2712" data-name="Path 2712" d="M269.966,387.272c-1.3-17.283-.47-43.812,7.326-58.8,8.838-16.993,20.356-24.837,22.027-18.215,4.847,19.21-14.611,70.866-20.087,77.011" transform="translate(-227.111 -307.919)" fill="#faada8"/>
          <path id="Path_2713" data-name="Path 2713" d="M214.2,346.98c15.73,10.965,26.584,31.728,28.607,52.381" transform="translate(-210.006 -320.008)" fill="none" stroke="#fff" stroke-width="1"/>
          <path id="Path_2714" data-name="Path 2714" d="M237.51,318.4c7.727,6.9,11.656,17.7,14.031,28.145a235.24,235.24,0,0,1,5.365,43.971" transform="translate(-217.221 -311.163)" fill="none" stroke="#fff" stroke-width="1"/>
          <path id="Path_2715" data-name="Path 2715" d="M297.048,321.83c-9.515,21.854-17.539,45.469-18.878,69.747" transform="translate(-229.805 -312.224)" fill="none" stroke="#fff" stroke-width="1"/>
          <path id="Path_2716" data-name="Path 2716" d="M327.438,383.63a81.982,81.982,0,0,0-23.608,27.081" transform="translate(-237.747 -331.352)" fill="none" stroke="#fff" stroke-width="1"/>
        </g>
        <g id="Group_649" data-name="Group 649" transform="translate(300.445 29.964)">
          <path id="Path_2717" data-name="Path 2717" d="M544.05,378.258c2.064-27.3-.235-54.08,10.164-79.953,2.948-7.34,9.681-18.927,18.982-19.32,14.369-.615,5.572,28.255,2.969,39.055a160.307,160.307,0,0,1-6.76,20.494c-4.6,11.78-11.51,28.241-16.738,39.717" transform="translate(-489.571 -278.804)" fill="#faada8"/>
          <path id="Path_2718" data-name="Path 2718" d="M519.985,378.181c-4.523-11.573-8.949-23.187-13.423-34.78-3.97-10.282-8.583-20.335-11.794-30.9-2.437-8.037-8.749-26.467.483-32.129,16.441-10.088,29.588,28.939,31.321,42.8,2.286,18.271,1.8,36.645,2.065,55.005" transform="translate(-472.963 -278.727)" fill="#faada8"/>
          <path id="Path_2719" data-name="Path 2719" d="M499.109,391.525S489.5,379.247,485.168,373.5c-9.681-12.857-21.619-26.826-19.838-41.278.407-3.328,1.63-7.029,4.972-9a11.64,11.64,0,0,1,6.9-1.319c7.865.753,14.915,12.173,18.457,18.029,6.933,11.469,17.663,51.594,17.663,51.594" transform="translate(-465.152 -292.07)" fill="#ff8279"/>
          <path id="Path_2720" data-name="Path 2720" d="M503.68,292.83c11.732,23.719,23.18,67.648,23.456,89.716" transform="translate(-477.077 -283.092)" fill="none" stroke="#fff" stroke-width="1"/>
          <path id="Path_2721" data-name="Path 2721" d="M477.27,332.29c10.323,19.824,31.307,62.469,31.307,62.469" transform="translate(-468.903 -295.305)" fill="none" stroke="#fff" stroke-width="1"/>
          <path id="Path_2722" data-name="Path 2722" d="M574.359,288.09c-8.424,18.782-19.962,59.493-24.609,93.051" transform="translate(-491.335 -281.625)" fill="none" stroke="#fff" stroke-width="1"/>
          <path id="Path_2723" data-name="Path 2723" d="M557.12,389.5s4.8-21.4,8.127-33.544c3.618-13.209,15.44-33.42,27.869-39.165,2.859-1.319,6.311-2.23,9.08-.718a7.882,7.882,0,0,1,3.466,4.461c2.113,6.18-8.238,25.687-11.794,31.162C586.9,362.414,576.917,379.449,569,389.5" transform="translate(-493.616 -290.041)" fill="#ffdbd9"/>
          <path id="Path_2724" data-name="Path 2724" d="M601.189,323.69c-14.694,12.76-34.352,53.445-39.849,68.408" transform="translate(-494.922 -292.643)" fill="none" stroke="#fff" stroke-width="1"/>
        </g>
        <g id="Group_650" data-name="Group 650">
          <path id="Path_2725" data-name="Path 2725" d="M75.073,364.271c-1.885-9.978-4.972-29.767-7.312-41.906-1.132-5.876-4.412-13.05-6.491-18.63-3.8-10.171-12.974-27.848-24.354-26.9-14.121,1.174-2.707,26.557.884,36.141a139.126,139.126,0,0,0,8.611,17.96c5.641,10.233,14,24.485,20.232,34.373" transform="translate(-30.038 -248.166)" fill="#ff8279"/>
          <path id="Path_2726" data-name="Path 2726" d="M105.894,348.1c-3.446-9.011-2.513-20.473-2.5-30.009.021-17.166,5.98-41.3,17.159-52.561,4.606-4.64,12.236-9.805,17.186-2.707,4.688,6.725-.732,25-2.444,32.847-3.349,15.37-19.368,43.847-24,58.734" transform="translate(-52.703 -242.759)" fill="#ff8279"/>
          <path id="Path_2727" data-name="Path 2727" d="M131.723,275.74c-7.941,20.6-18.623,58.188-21.343,80.1" transform="translate(-54.904 -247.839)" fill="none" stroke="#fff" stroke-width="1"/>
          <path id="Path_2728" data-name="Path 2728" d="M41.73,285.09c10.067,16.192,24.816,50.869,32.626,81.057" transform="translate(-33.656 -250.733)" fill="none" stroke="#fff" stroke-width="1"/>
          <path id="Path_2729" data-name="Path 2729" d="M88.628,329.625c4.233-6.933,9.26-29.429,10.406-37.466,1.609-11.3,1.781-23.249-1.015-34.387-1.892-7.513-10.53-30-21.378-19.859-5.1,4.764-4.281,30.706-3.673,37.653,1.188,13.6,8.231,37.957,10.654,51.394" transform="translate(-43.185 -235.332)" fill="#faada8"/>
          <path id="Path_2730" data-name="Path 2730" d="M87.18,247.46c7.444,19.4,5.559,67.6,3.232,84.455" transform="translate(-47.723 -239.086)" fill="none" stroke="#fff" stroke-width="1"/>
        </g>
      </g>
      <path id="Path_2853" data-name="Path 2853" d="M0,0H433.515" transform="translate(0 290.934)" fill="none" stroke="#2c2c36" stroke-width="1"/>
      <g id="Group_658" data-name="Group 658" transform="translate(111.288 86.188)">
        <g id="Group_652" data-name="Group 652" transform="translate(31.313)">
          <path id="Path_2731" data-name="Path 2731" d="M253.39,135.884c2.12-2.092,7.264-9.156,7.844-8.983s-1.195,2.686-.684,2.734,3.5-3.618,4.039-3.294c.725.449-2.541,4.046-2.541,4.046s3.777-3.763,4.295-3.2c.366.407-2.382,3.411-3.287,4.688,1.16-1.264,3.28-3.087,3.653-2.658s-1.457,2.507-2.776,4.184c.918-.967,2.686-2.638,3.052-2.258s-4.06,7.112-8.113,12.028" transform="translate(-221.026 -126.321)" fill="#f886bc"/>
          <path id="Path_2732" data-name="Path 2732" d="M214.32,164.324a304.9,304.9,0,0,0,30.126-29.484l6.767,4.523a236.531,236.531,0,0,1-26.239,32.778" transform="translate(-208.934 -128.957)" fill="#f09959"/>
          <path id="Path_2733" data-name="Path 2733" d="M206.52,180.867a61.467,61.467,0,0,1,9.874-9.2l10.917,8.831-9.584,11.241" transform="translate(-206.52 -140.356)" fill="#56565e"/>
        </g>
        <g id="Group_655" data-name="Group 655" transform="translate(4.984 80.712)">
          <g id="Group_653" data-name="Group 653" transform="translate(24.43 39.717)">
            <path id="Path_2734" data-name="Path 2734" d="M224.485,300.9l-5.779,76.127,6.843,4.357s-18.8.98-19.41.366.773-4.833.773-4.833L203.77,300.73l20.715.18Z" transform="translate(-203.77 -300.73)" fill="#f886bc"/>
            <path id="Path_2735" data-name="Path 2735" d="M210.035,416.1l-2.8-2.755.394-1.443,4.3,4.205h2.071l7.3-3.6,7.92,4.958a1.072,1.072,0,0,1-.573,1.982L218,419.406l-3.4-2.362h-.967l-.007,2.348-6.933-.028.014-3.287,3.328.014Z" transform="translate(-204.677 -335.137)" fill="#28364c"/>
          </g>
          <g id="Group_654" data-name="Group 654" transform="translate(0 39.483)">
            <path id="Path_2736" data-name="Path 2736" d="M198.435,300.39l-17.048,76.535,6.843,4.357s-18.8.98-19.41.366.773-4.833.773-4.833l4.985-76.417h23.864Z" transform="translate(-168.474 -300.39)" fill="#f886bc"/>
            <path id="Path_2737" data-name="Path 2737" d="M171.725,416.1l-2.8-2.755.394-1.443,4.3,4.205H175.7l7.3-3.6,7.92,4.958a1.072,1.072,0,0,1-.573,1.982l-10.647-.041-3.4-2.362h-.967l-.007,2.348-6.933-.028.014-3.287,3.328.014Z" transform="translate(-168.39 -334.903)" fill="#28364c"/>
          </g>
          <path id="Path_2738" data-name="Path 2738" d="M181.623,243.217c-9.377,16.51-9.363,47.216-9.363,47.216h43.481s-.6-26.978-5.455-42.176l-28.663-5.048Z" transform="translate(-169.588 -243.21)" fill="#ee4437"/>
          <line id="Line_72" data-name="Line 72" x2="1.084" y2="45.732" transform="translate(26.563 1.491)" fill="none" stroke="#2c2c36" stroke-width="0.75"/>
          <path id="Path_2739" data-name="Path 2739" d="M216.489,248.15s-2.2,5.572-9.619,7.5" transform="translate(-180.3 -244.739)" fill="none" stroke="#2c2c36" stroke-width="0.75"/>
        </g>
        <g id="Group_656" data-name="Group 656" transform="translate(14.541 36.099)">
          <path id="Path_2740" data-name="Path 2740" d="M275.422,219.97c2.859.829,11.531,1.885,11.662,2.479s-2.921.262-2.721.732,4.868,1.291,4.84,1.927c-.035.856-4.771-.249-4.771-.249s5.124,1.464,4.882,2.2c-.173.518-4.136-.421-5.7-.587,1.664.4,4.295,1.36,4.1,1.9s-2.9-.055-5.006-.387c1.291.331,3.611,1.063,3.459,1.561s-6.85-.456-13.113-1.6" transform="translate(-210.343 -191.404)" fill="#f09959"/>
          <path id="Path_2741" data-name="Path 2741" d="M196.158,178.6s.718,1.837,4.619,1.837c2.727,0,3.756-1.429,3.756-1.429s1,.9,11.745,15c2.272,2.983,1.781,9.425-2.016,14.991a93.822,93.822,0,0,0-.884,19.265H182.292s-.545-22.338,1.609-34.518A20.655,20.655,0,0,1,196.164,178.6Z" transform="translate(-182.231 -178.6)" fill="#2c2c36"/>
          <path id="Path_2742" data-name="Path 2742" d="M228.627,192.59c20.715,16.254,35.077,19.783,35.077,19.783l-1.692,7.961s-24.879-3.156-41.223-16.89" transform="translate(-194.165 -182.93)" fill="#f09959"/>
          <path id="Path_2743" data-name="Path 2743" d="M213,179.97c5.317.891,13.472,8.714,13.472,8.714l-8.659,12.705s-3.673-2.541-8.659-6.822" transform="translate(-190.562 -179.024)" fill="#56565e" fill-rule="evenodd"/>
          <path id="Path_2744" data-name="Path 2744" d="M217.478,207.243a55.21,55.21,0,0,1-9.4-6.843" transform="translate(-190.231 -185.347)" fill="none" stroke="#000" stroke-width="0.75"/>
        </g>
        <g id="Group_657" data-name="Group 657" transform="translate(0 16.125)">
          <path id="Path_2745" data-name="Path 2745" d="M212.6,156.889c2.161,3.57,3.052,7.147.028,8.976s-7.9,2.741-10.993-2.341c-2.168-3.57-1.457-7.955,1.567-9.784S210.441,153.319,212.6,156.889Z" transform="translate(-173.307 -150.685)" fill="#f09959" fill-rule="evenodd"/>
          <path id="Path_2746" data-name="Path 2746" d="M214.42,159.847c.1.366.387.787.746.773a.215.215,0,0,0,.207-.159C215.58,159.847,214.213,159.088,214.42,159.847Z" transform="translate(-177.645 -152.724)" fill="#0b0b3a"/>
          <path id="Path_2747" data-name="Path 2747" d="M212.36,159a2.815,2.815,0,0,1,2.051-1.2" transform="translate(-177.014 -152.189)" fill="none" stroke="#0b0b3a" stroke-linecap="round" stroke-width="0.5"/>
          <path id="Path_2748" data-name="Path 2748" d="M218.372,164.56l-2,1s.7,1.726,1.788,1.409C219.063,166.7,218.372,164.56,218.372,164.56Z" transform="translate(-178.256 -154.281)" fill="#fff"/>
          <path id="Path_2749" data-name="Path 2749" d="M210.907,175.826a8.52,8.52,0,0,1-3.888.891,7.8,7.8,0,0,1-4.619-1.326l2.065-8.811,7.582.552-1.139,8.7Z" transform="translate(-173.932 -154.906)" fill="#f09959" fill-rule="evenodd"/>
          <path id="Path_2750" data-name="Path 2750" d="M217.02,158.9s2.589,1.733,2.679,2.2-1,1.126-1,1.126" transform="translate(-178.457 -152.529)" fill="#f09959" fill-rule="evenodd"/>
          <path id="Path_2751" data-name="Path 2751" d="M192.485,150.272c-.276.138-1.243-.117-1.6-.117a8.083,8.083,0,0,0-1.471.124c-2.886.525-5.041,2.914-6.4,5.372-.891,1.616-1.643,3.411-3.266,4.433-3.57,2.251-8.258,1.443-12.263,2.8-4.074,1.374-7.188,5.5-6.1,9.909.359,1.443,1.119,2.755,1.561,4.178.953,3.024.5,6.553,2.327,9.149a8.383,8.383,0,0,0,1.8,1.8,12.454,12.454,0,0,0,19.092-5.282c1.616-4.026,1.112-8.831,3.466-12.47,1.1-1.706,2.748-3,3.839-4.709a15.615,15.615,0,0,0,1.643-6.373c.028-.435-.753-4.039-.518-4.039a8.853,8.853,0,0,0,5.372-2.272,5.474,5.474,0,0,0-7.485-2.493Z" transform="translate(-161.171 -149.674)" fill="#0b0b3a"/>
          <path id="Path_2752" data-name="Path 2752" d="M208.544,163.854a1.263,1.263,0,0,0-1.8.311c-.925,1.381,1.3,3.121,2.368,3.2s1.043-1.084,1.043-1.084" transform="translate(-175.207 -153.983)" fill="#f09959"/>
        </g>
      </g>
      <g id="Group_677" data-name="Group 677" transform="translate(53.085)">
        <g id="Group_667" data-name="Group 667" transform="translate(256.727 90.303)">
          <path id="Path_2855" data-name="Path 2855" d="M0,0H67.607V90.283H0Z" fill="#ffdbd9" stroke="#2c2c36" stroke-width="1"/>
          <rect id="Rectangle_686" data-name="Rectangle 686" width="67.607" height="90.283" transform="translate(10.095)" fill="#fff" stroke="#2c2c36" stroke-width="1"/>
          <rect id="Rectangle_687" data-name="Rectangle 687" width="49.64" height="11.801" rx="3.6" transform="translate(19.355 7.022)" fill="#ffdbd9"/>
          <rect id="Rectangle_688" data-name="Rectangle 688" width="28.573" height="33.178" rx="3.59" transform="translate(19.355 49.654)" fill="#ffdbd9"/>
          <g id="Group_659" data-name="Group 659" transform="translate(19.355 24.81)">
            <path id="Path_2753" data-name="Path 2753" d="M480.411,173.969h-1.505c-1.215,0-2.2-1.291-2.2-2.879s.981-2.879,2.2-2.879h1.505Z" transform="translate(-476.71 -168.21)" fill="#faada8"/>
            <path id="Path_2754" data-name="Path 2754" d="M483.282,171.089c0,1.588-.98,2.879-2.2,2.879s-2.2-1.291-2.2-2.879.981-2.879,2.2-2.879S483.282,169.5,483.282,171.089Z" transform="translate(-477.385 -168.21)" fill="#ffdbd9"/>
          </g>
          <g id="Group_660" data-name="Group 660" transform="translate(33.938 24.81)">
            <path id="Path_2755" data-name="Path 2755" d="M501.531,173.969h-1.505c-1.215,0-2.2-1.291-2.2-2.879s.981-2.879,2.2-2.879h1.505Z" transform="translate(-497.83 -168.21)" fill="#faada8"/>
            <path id="Path_2756" data-name="Path 2756" d="M504.4,171.089c0,1.588-.981,2.879-2.2,2.879s-2.2-1.291-2.2-2.879.981-2.879,2.2-2.879S504.4,169.5,504.4,171.089Z" transform="translate(-498.505 -168.21)" fill="#ffdbd9"/>
          </g>
          <g id="Group_661" data-name="Group 661" transform="translate(48.514 24.81)">
            <path id="Path_2757" data-name="Path 2757" d="M522.641,173.969h-1.505c-1.215,0-2.2-1.291-2.2-2.879s.98-2.879,2.2-2.879h1.505Z" transform="translate(-518.94 -168.21)" fill="#faada8"/>
            <path id="Path_2758" data-name="Path 2758" d="M525.522,171.089c0,1.588-.981,2.879-2.2,2.879s-2.2-1.291-2.2-2.879.981-2.879,2.2-2.879S525.522,169.5,525.522,171.089Z" transform="translate(-519.618 -168.21)" fill="#ffdbd9"/>
          </g>
          <g id="Group_662" data-name="Group 662" transform="translate(63.098 24.81)">
            <path id="Path_2759" data-name="Path 2759" d="M543.761,173.969h-1.505c-1.215,0-2.2-1.291-2.2-2.879s.98-2.879,2.2-2.879h1.505Z" transform="translate(-540.06 -168.21)" fill="#faada8"/>
            <path id="Path_2760" data-name="Path 2760" d="M546.632,171.089c0,1.588-.981,2.879-2.2,2.879s-2.2-1.291-2.2-2.879.981-2.879,2.2-2.879S546.632,169.5,546.632,171.089Z" transform="translate(-540.735 -168.21)" fill="#ffdbd9"/>
          </g>
          <g id="Group_663" data-name="Group 663" transform="translate(19.355 38.765)">
            <path id="Path_2761" data-name="Path 2761" d="M480.411,194.179h-1.505c-1.215,0-2.2-1.291-2.2-2.879s.981-2.879,2.2-2.879h1.505Z" transform="translate(-476.71 -188.42)" fill="#faada8"/>
            <path id="Path_2762" data-name="Path 2762" d="M483.282,191.3c0,1.588-.98,2.879-2.2,2.879s-2.2-1.291-2.2-2.879.981-2.879,2.2-2.879S483.282,189.711,483.282,191.3Z" transform="translate(-477.385 -188.42)" fill="#ffdbd9"/>
          </g>
          <g id="Group_664" data-name="Group 664" transform="translate(33.938 38.765)">
            <path id="Path_2763" data-name="Path 2763" d="M501.531,194.179h-1.505c-1.215,0-2.2-1.291-2.2-2.879s.981-2.879,2.2-2.879h1.505Z" transform="translate(-497.83 -188.42)" fill="#faada8"/>
            <path id="Path_2764" data-name="Path 2764" d="M504.4,191.3c0,1.588-.981,2.879-2.2,2.879s-2.2-1.291-2.2-2.879.981-2.879,2.2-2.879S504.4,189.711,504.4,191.3Z" transform="translate(-498.505 -188.42)" fill="#ffdbd9"/>
          </g>
          <g id="Group_665" data-name="Group 665" transform="translate(48.514 38.765)">
            <path id="Path_2765" data-name="Path 2765" d="M522.641,194.179h-1.505c-1.215,0-2.2-1.291-2.2-2.879s.98-2.879,2.2-2.879h1.505Z" transform="translate(-518.94 -188.42)" fill="#faada8"/>
            <path id="Path_2766" data-name="Path 2766" d="M525.522,191.3c0,1.588-.981,2.879-2.2,2.879s-2.2-1.291-2.2-2.879.981-2.879,2.2-2.879S525.522,189.711,525.522,191.3Z" transform="translate(-519.618 -188.42)" fill="#ffdbd9"/>
          </g>
          <g id="Group_666" data-name="Group 666" transform="translate(63.098 38.765)">
            <path id="Path_2767" data-name="Path 2767" d="M543.761,194.179h-1.505c-1.215,0-2.2-1.291-2.2-2.879s.98-2.879,2.2-2.879h1.505Z" transform="translate(-540.06 -188.42)" fill="#b2cded"/>
            <path id="Path_2768" data-name="Path 2768" d="M546.632,191.3c0,1.588-.981,2.879-2.2,2.879s-2.2-1.291-2.2-2.879.981-2.879,2.2-2.879S546.632,189.711,546.632,191.3Z" transform="translate(-540.735 -188.42)" fill="#d7e3f4"/>
          </g>
        </g>
        <g id="Group_672" data-name="Group 672" transform="translate(0 203.02)">
          <path id="Path_2769" data-name="Path 2769" d="M76.88,383.434H191.613V295.52H105.75L76.88,329.278Z" transform="translate(-76.88 -295.52)" fill="#fff" stroke="#2c2c36" stroke-width="1"/>
          <path id="Path_2770" data-name="Path 2770" d="M195.87,383.434h42.279V295.52H224.16l-28.29,33.758Z" transform="translate(-113.708 -295.52)" fill="#ffdbd9" stroke="#2c2c36" stroke-width="1"/>
          <rect id="Rectangle_689" data-name="Rectangle 689" width="82.162" height="54.156" transform="translate(82.169 87.914) rotate(180)" fill="#ffdbd9" stroke="#2c2c36" stroke-width="1"/>
          <g id="Group_668" data-name="Group 668" transform="translate(87.563 3.355)">
            <path id="Path_2771" data-name="Path 2771" d="M205.793,306.983c.787.718,2.4.235,3.6-1.084s1.533-2.969.746-3.687c-.532-.49-1.63-1.491-1.63-1.491l-4.336,4.771s.842.773,1.63,1.491Z" transform="translate(-203.84 -300.484)" fill="#b2cded"/>
            <path id="Path_2772" data-name="Path 2772" d="M204.119,305.482c.787.718,2.4.235,3.591-1.084s1.533-2.969.746-3.687-2.4-.235-3.591,1.084S203.331,304.764,204.119,305.482Z" transform="translate(-203.692 -300.379)" fill="#d7e3f4"/>
          </g>
          <g id="Group_669" data-name="Group 669" transform="translate(74.775 3.355)">
            <path id="Path_2773" data-name="Path 2773" d="M187.273,306.983c.787.718,2.4.235,3.6-1.084s1.533-2.969.746-3.687c-.532-.49-1.63-1.491-1.63-1.491l-4.336,4.771s.842.773,1.63,1.491Z" transform="translate(-185.32 -300.484)" fill="#b2cded"/>
            <path id="Path_2774" data-name="Path 2774" d="M185.6,305.482c.787.718,2.4.235,3.591-1.084s1.533-2.969.746-3.687-2.4-.235-3.591,1.084S184.811,304.764,185.6,305.482Z" transform="translate(-185.172 -300.379)" fill="#d7e3f4"/>
          </g>
          <g id="Group_670" data-name="Group 670" transform="translate(48.446 3.355)">
            <path id="Path_2775" data-name="Path 2775" d="M149.143,306.983c.787.718,2.4.235,3.6-1.084s1.533-2.969.746-3.687c-.532-.49-1.63-1.491-1.63-1.491l-4.336,4.771s.842.773,1.63,1.491Z" transform="translate(-147.19 -300.484)" fill="#b2cded"/>
            <path id="Path_2776" data-name="Path 2776" d="M147.469,305.482c.787.718,2.4.235,3.591-1.084s1.533-2.969.746-3.687-2.4-.235-3.591,1.084S146.681,304.764,147.469,305.482Z" transform="translate(-147.042 -300.379)" fill="#d7e3f4"/>
          </g>
          <g id="Group_671" data-name="Group 671" transform="translate(34.885 3.355)">
            <path id="Path_2777" data-name="Path 2777" d="M129.5,306.983c.787.718,2.4.235,3.6-1.084s1.533-2.969.746-3.687c-.532-.49-1.63-1.491-1.63-1.491l-4.336,4.771s.842.773,1.63,1.491Z" transform="translate(-127.55 -300.484)" fill="#b2cded"/>
            <path id="Path_2778" data-name="Path 2778" d="M127.829,305.482c.787.718,2.4.235,3.591-1.084s1.533-2.969.746-3.687-2.4-.235-3.591,1.084S127.041,304.764,127.829,305.482Z" transform="translate(-127.402 -300.379)" fill="#d7e3f4"/>
          </g>
          <path id="Path_2779" data-name="Path 2779" d="M163.046,332.854l4.557-5.9H98.18l-5.22,5.9Z" transform="translate(-81.857 -305.248)" fill="#ffdbd9" opacity="0.45"/>
        </g>
        <path id="Path_2780" data-name="Path 2780" d="M281.58,276.02v73.421a6.43,6.43,0,0,1-6.429,6.429H234.309a6.43,6.43,0,0,1-6.429-6.429v-2.106" transform="translate(-123.615 -86.465)" fill="none" stroke="#ee4437" stroke-width="1"/>
        <path id="Path_2781" data-name="Path 2781" d="M285.38,280.9v83.889a6.557,6.557,0,0,1-6.56,6.56H213.879a6.43,6.43,0,0,1-6.429-6.429V348.859" transform="translate(-117.292 -87.975)" fill="none" stroke="#ee4437" stroke-width="1"/>
        <path id="Path_2782" data-name="Path 2782" d="M346.92,260.433V309.1a6.43,6.43,0,0,0,6.429,6.429h50.724A6.43,6.43,0,0,0,410.5,309.1V225.729a6.43,6.43,0,0,1,6.429-6.429h20.915" transform="translate(-160.458 -68.91)" fill="none" stroke="#ee4437" stroke-width="1"/>
        <path id="Path_2783" data-name="Path 2783" d="M335.11,268.969v68.207a6.43,6.43,0,0,0,6.428,6.429h93.127a6.43,6.43,0,0,0,6.429-6.429V242.35" transform="translate(-156.803 -76.044)" fill="none" stroke="#ee4437" stroke-width="1"/>
        <g id="Group_676" data-name="Group 676" transform="translate(109.175)">
          <path id="Path_2784" data-name="Path 2784" d="M238.88,99.2A60.508,60.508,0,1,1,348.3,134.828h0c-8.638,13.016-31.079,27.71-31.079,36.513V181.4a3.632,3.632,0,0,1-3.632,3.632H285.2a3.632,3.632,0,0,1-3.632-3.632V171.341c0-8.8-22.441-23.5-31.079-36.513h0a60.243,60.243,0,0,1-11.6-35.63Z" transform="translate(-236.194 -13.01)" fill="#ee4437"/>
          <path id="Path_2785" data-name="Path 2785" d="M317.048,211.544c-.069-1.519-1.153-25.8.794-47.092a67.738,67.738,0,0,1-15.329,0c1.947,21.288.863,45.573.787,47.092l-1.07-.048c.014-.373,1.139-25.493-.849-47.189-17.946-2.493-25.977-12.664-27.42-22.255-.842-5.607,1.07-11.186,4.55-13.271a9.139,9.139,0,0,1,7.381-.739c4.274,1.229,8.334,4.909,10.862,9.853,2.921,5.71,4.647,15.184,5.641,25.472a66.312,66.312,0,0,0,15.522,0c.994-10.288,2.721-19.762,5.641-25.472,2.527-4.944,6.594-8.624,10.862-9.853a9.142,9.142,0,0,1,7.381.739c3.48,2.085,5.4,7.665,4.55,13.271-1.443,9.6-9.474,19.762-27.42,22.255-1.989,21.689-.863,46.809-.849,47.189l-1.07.048Zm20.4-82.873a9.73,9.73,0,0,0-2.7.4c-4,1.146-7.81,4.626-10.206,9.308-2.81,5.489-4.488,14.735-5.469,24.837,17.193-2.479,24.886-12.167,26.26-21.323.766-5.117-.974-10.357-4.046-12.194A7.4,7.4,0,0,0,337.446,128.67Zm-54.529,0a7.4,7.4,0,0,0-3.839,1.029c-3.073,1.837-4.813,7.084-4.046,12.194,1.374,9.149,9.073,18.844,26.26,21.323-.981-10.1-2.658-19.348-5.469-24.837-2.4-4.682-6.214-8.162-10.206-9.308A9.657,9.657,0,0,0,282.917,128.67Z" transform="translate(-246.991 -40.528)" fill="#fff"/>
          <path id="Path_2786" data-name="Path 2786" d="M380.944,106.322a3.471,3.471,0,0,1-3.473-3.473,46.9,46.9,0,0,0-35.395-45.524,3.473,3.473,0,1,1,1.706-6.732,53.832,53.832,0,0,1,40.636,52.257A3.471,3.471,0,0,1,380.944,106.322Z" transform="translate(-267.322 -16.661)" fill="#ff8b83"/>
          <path id="Path_2787" data-name="Path 2787" d="M324.81,51.593a3.473,3.473,0,1,0,3.473-3.473A3.471,3.471,0,0,0,324.81,51.593Z" transform="translate(-262.79 -15.929)" fill="#ff8b83"/>
          <g id="Group_673" data-name="Group 673" transform="translate(2.797 89.772)" opacity="0.55">
            <path id="Path_2788" data-name="Path 2788" d="M359.822,131.51c-3.342,24.81-23.366,50.5-60.391,50.5s-56.3-26.888-60.391-50.5a60.148,60.148,0,0,0,11.483,32.046h0c8.638,13.016,31.079,27.71,31.079,36.513v10.054a3.632,3.632,0,0,0,3.632,3.632h28.386a3.632,3.632,0,0,0,3.632-3.632V200.069c0-8.8,22.441-23.5,31.079-36.513h0a60.189,60.189,0,0,0,11.483-32.046Z" transform="translate(-239.04 -131.51)" fill="#ff9e97"/>
          </g>
          <path id="Path_2789" data-name="Path 2789" d="M337.129,237.02H298.62v18.353a15.847,15.847,0,0,0,2.458,8.466h0a16.546,16.546,0,0,0,13.976,7.678H320.7a16.562,16.562,0,0,0,13.976-7.678h0a15.77,15.77,0,0,0,2.458-8.466V237.02Z" transform="translate(-254.684 -74.394)" fill="#2c2c36"/>
          <path id="Path_2790" data-name="Path 2790" d="M297.529,250.994a2.658,2.658,0,0,0,.331-.014l38.509-3.991a2.313,2.313,0,0,0,2.051-2.638,2.509,2.509,0,0,0-2.714-2.147L297.191,246.2a2.313,2.313,0,0,0-2.051,2.638,2.507,2.507,0,0,0,2.375,2.154Z" transform="translate(-253.6 -75.995)" fill="#56565e"/>
          <path id="Path_2791" data-name="Path 2791" d="M297.529,263.165a2.664,2.664,0,0,0,.331-.014l38.509-3.991a2.313,2.313,0,0,0,2.051-2.638,2.515,2.515,0,0,0-2.714-2.147l-38.516,3.991A2.313,2.313,0,0,0,295.14,261a2.507,2.507,0,0,0,2.375,2.154Z" transform="translate(-253.6 -79.762)" fill="#56565e"/>
          <path id="Path_2792" data-name="Path 2792" d="M299.762,275.3a2.659,2.659,0,0,0,.331-.014L336.6,271.5a2.313,2.313,0,0,0,2.051-2.638,2.509,2.509,0,0,0-2.714-2.147L299.431,270.5a2.313,2.313,0,0,0-2.051,2.638,2.507,2.507,0,0,0,2.375,2.154Z" transform="translate(-254.293 -83.58)" fill="#56565e"/>
          <g id="Group_675" data-name="Group 675">
            <line id="Line_73" data-name="Line 73" y2="19.016" transform="translate(63.187)" fill="#ffcd5c" stroke="#ee4437" stroke-linecap="round" stroke-linejoin="round" stroke-width="3"/>
            <g id="Group_674" data-name="Group 674" transform="translate(0 7.575)">
              <line id="Line_74" data-name="Line 74" x1="7.678" y2="17.394" transform="translate(89.799)" fill="#ffcd5c" stroke="#ee4437" stroke-linecap="round" stroke-linejoin="round" stroke-width="3"/>
              <line id="Line_75" data-name="Line 75" x1="14.052" y2="12.816" transform="translate(112.323 21.033)" fill="#ffcd5c" stroke="#ee4437" stroke-linecap="round" stroke-linejoin="round" stroke-width="3"/>
              <line id="Line_76" data-name="Line 76" x2="7.685" y2="17.394" transform="translate(28.897)" fill="#ffcd5c" stroke="#ee4437" stroke-linecap="round" stroke-linejoin="round" stroke-width="3"/>
              <line id="Line_77" data-name="Line 77" x2="14.052" y2="12.816" transform="translate(0 21.033)" fill="#ffcd5c" stroke="#ee4437" stroke-linecap="round" stroke-linejoin="round" stroke-width="3"/>
            </g>
          </g>
        </g>
        <circle id="Ellipse_82" data-name="Ellipse 82" cx="1.312" cy="1.312" r="1.312" transform="translate(88.846 259.661)" fill="#ee4437"/>
        <circle id="Ellipse_83" data-name="Ellipse 83" cx="1.312" cy="1.312" r="1.312" transform="translate(102.946 259.661)" fill="#ee4437"/>
        <circle id="Ellipse_84" data-name="Ellipse 84" cx="1.312" cy="1.312" r="1.312" transform="translate(282.986 164.994)" fill="#ee4437"/>
        <circle id="Ellipse_85" data-name="Ellipse 85" cx="1.312" cy="1.312" r="1.312" transform="translate(290.368 164.994)" fill="#ee4437"/>
        <path id="Path_2793" data-name="Path 2793" d="M510.7,241.762a1.312,1.312,0,1,1-1.312-1.312A1.311,1.311,0,0,1,510.7,241.762Z" transform="translate(-210.338 -75.456)" fill="#ee4437"/>
        <circle id="Ellipse_86" data-name="Ellipse 86" cx="1.312" cy="1.312" r="1.312" transform="translate(276.082 149.071)" fill="#ee4437"/>
      </g>
      <g id="Group_679" data-name="Group 679" transform="translate(254.783 191.713)">
        <circle id="Ellipse_87" data-name="Ellipse 87" cx="27.019" cy="27.019" r="27.019" transform="matrix(0.923, -0.386, 0.386, 0.923, 0, 20.845)" fill="#ee4437"/>
        <circle id="Ellipse_88" data-name="Ellipse 88" cx="19.548" cy="19.548" r="19.548" transform="translate(11.954 20.633) rotate(-12.8)" fill="#fff"/>
        <path id="Path_2794" data-name="Path 2794" d="M400.73,324.32a13.43,13.43,0,1,0,13.43-13.43A13.432,13.432,0,0,0,400.73,324.32Z" transform="translate(-378.81 -288.97)" fill="#ee4437"/>
        <path id="Path_2795" data-name="Path 2795" d="M409.99,327.186a7.036,7.036,0,1,0,7.036-7.036A7.034,7.034,0,0,0,409.99,327.186Z" transform="translate(-381.676 -291.836)" fill="#fff"/>
        <g id="Group_678" data-name="Group 678" transform="translate(34.259 0.432)">
          <path id="Path_2796" data-name="Path 2796" d="M418.6,329.939h4.419L418.6,325.52Z" transform="translate(-418.6 -293.93)" fill="#0c3656"/>
          <path id="Path_2797" data-name="Path 2797" d="M460.08,288.174h5.054V286.9h-3.777V283.12H460.08Z" transform="translate(-431.438 -280.807)" fill="#0c3656"/>
          <path id="Path_2798" data-name="Path 2798" d="M463.43,284.824h5.054v-1.27h-3.777V279.77H463.43Z" transform="translate(-432.475 -279.77)" fill="#0c3656"/>
          <rect id="Rectangle_690" data-name="Rectangle 690" width="43.218" height="1.277" transform="translate(0.792 34.316) rotate(-45)" fill="#0c3656"/>
        </g>
      </g>
      <g id="Group_688" data-name="Group 688" transform="translate(7.872 159.569)">
        <g id="Group_680" data-name="Group 680" transform="translate(61.675)">
          <path id="Path_2799" data-name="Path 2799" d="M113.487,257.685l-3.335,6.332a13.542,13.542,0,0,1-5.413-1.547,8.376,8.376,0,0,1-4.019-3.653l5.634-7.457" transform="translate(-100.72 -238.401)" fill="#f09959"/>
          <path id="Path_2800" data-name="Path 2800" d="M122.685,241.642c3.1,1.83-2.023,13.4-4.82,14.128s-8.348-4.73-10.005-9.363,3.673-7.16,6.8-8.106S122.685,241.642,122.685,241.642Z" transform="translate(-102.833 -234.317)" fill="#f09959"/>
          <path id="Path_2801" data-name="Path 2801" d="M126,251.282c-.1.186-.207.373-.3.566-.11.235.242.442.352.207.1-.207.186-.421.269-.635.069-.193-.228-.311-.325-.138Z" transform="translate(-108.445 -238.351)" fill="#00276f"/>
          <path id="Path_2802" data-name="Path 2802" d="M127.522,249.359a2.312,2.312,0,0,0-2.472-.663" transform="translate(-108.25 -237.553)" fill="none" stroke="#00276f" stroke-linecap="round" stroke-linejoin="round" stroke-width="0.75"/>
          <path id="Path_2803" data-name="Path 2803" d="M122.177,257.84l1.975,1.409s-.773,1.491-1.478.911-.5-2.32-.5-2.32Z" transform="translate(-107.352 -240.407)" fill="#fff"/>
          <path id="Path_2804" data-name="Path 2804" d="M124.6,242.451a30.568,30.568,0,0,1-4.019-1.844,3.694,3.694,0,0,0-2.942,3.142c-.007.338-.041.8-.38.849-.235.035-.428-.193-.49-.421a4.738,4.738,0,0,0-.152-.691.988.988,0,0,0-1.215-.456,1.756,1.756,0,0,0-.96,1c-.47,1.126-.891,2.486.186,3.432a2.02,2.02,0,0,1,.47.47c.235.421-.041.939-.318,1.333a5.336,5.336,0,0,1-4.661,2.61c-1.768,0-4.716-2.334-4.909-3.5-.021-.1-1.712-7.257,1.436-11.8a8.867,8.867,0,0,1,7.754-3.957,8.973,8.973,0,0,1,4.523,2.016c5.165.953,6.277,6.277,5.683,7.823Z" transform="translate(-101.963 -232.593)" fill="#212237"/>
          <path id="Path_2805" data-name="Path 2805" d="M128.125,252.99s.456,3.466-.228,3.846-2.127-.608-2.127-.608" transform="translate(-108.473 -238.906)" fill="#f09959"/>
        </g>
        <g id="Group_685" data-name="Group 685" transform="translate(0 60.472)">
          <g id="Group_682" data-name="Group 682" transform="translate(79.048 46.208)">
            <g id="Group_681" data-name="Group 681">
              <path id="Path_2806" data-name="Path 2806" d="M130.048,388.381,127.521,404.7l-.131,4.916,19.279-.1a.855.855,0,0,0,.849-.856h0a.851.851,0,0,0-.552-.794l-8.314-3.825,3.287-16.959" transform="translate(-126.347 -387.09)" fill="#f09959"/>
              <path id="Path_2807" data-name="Path 2807" d="M147.886,416.919a2.659,2.659,0,0,0-.925-1.471l-8.818-3.8c-4.861,1.968-11.145.463-11.145.463l-1.119,6.636a.4.4,0,0,0,.4.394l21.461-.11c.435,0,.152-2.106.145-2.12Z" transform="translate(-125.88 -394.691)" fill="#ee4437"/>
              <path id="Path_2808" data-name="Path 2808" d="M145.853,412.21a10.274,10.274,0,0,0-1.243,2.085" transform="translate(-131.677 -394.865)" fill="none" stroke="#273b7a" stroke-width="0.75"/>
              <path id="Path_2809" data-name="Path 2809" d="M147.562,413.17a9.2,9.2,0,0,0-1.022,1.775" transform="translate(-132.274 -395.162)" fill="none" stroke="#273b7a" stroke-width="0.75"/>
              <path id="Path_2810" data-name="Path 2810" d="M148.95,413.87a13.265,13.265,0,0,0-.96,1.63" transform="translate(-132.723 -395.378)" fill="none" stroke="#273b7a" stroke-width="0.75"/>
            </g>
            <line id="Line_78" data-name="Line 78" y1="0.11" x2="21.985" transform="translate(0.117 22.918)" fill="none" stroke="#2c2c36" stroke-width="0.75"/>
            <path id="Path_2811" data-name="Path 2811" d="M126.93,415.74s5.165.1,5.607,3.218" transform="translate(-126.205 -395.957)" fill="none" stroke="#2c2c36" stroke-width="0.75"/>
            <path id="Path_2812" data-name="Path 2812" d="M153.036,416.03a16.861,16.861,0,0,0-1.706,2.955" transform="translate(-133.757 -396.047)" fill="none" stroke="#273b7a" stroke-width="0.75"/>
          </g>
          <g id="Group_684" data-name="Group 684" transform="translate(0 48.694)">
            <g id="Group_683" data-name="Group 683">
              <path id="Path_2813" data-name="Path 2813" d="M35.178,394.244,19.1,392.331,14.18,392.2l.1,19.279a.855.855,0,0,0,.856.849h0a.851.851,0,0,0,.794-.552l3.825-8.314,16.669,1.878" transform="translate(-12.26 -391.157)" fill="#f09959"/>
              <path id="Path_2814" data-name="Path 2814" d="M13.623,412.7a2.659,2.659,0,0,0,1.471-.925l3.8-8.818c-1.968-4.861-.463-11.145-.463-11.145l-6.636-1.119a.4.4,0,0,0-.394.4l.11,21.461c0,.435,2.106.152,2.12.145Z" transform="translate(-11.4 -390.69)" fill="#ee4437"/>
              <path id="Path_2815" data-name="Path 2815" d="M20.765,410.663a10.273,10.273,0,0,0-2.085-1.243" transform="translate(-13.653 -396.487)" fill="none" stroke="#273b7a" stroke-width="0.75"/>
              <path id="Path_2816" data-name="Path 2816" d="M19.935,412.362a9.2,9.2,0,0,0-1.775-1.022" transform="translate(-13.492 -397.081)" fill="none" stroke="#273b7a" stroke-width="0.75"/>
              <path id="Path_2817" data-name="Path 2817" d="M19.3,413.75a13.27,13.27,0,0,0-1.63-.96" transform="translate(-13.341 -397.53)" fill="none" stroke="#273b7a" stroke-width="0.75"/>
            </g>
            <line id="Line_79" data-name="Line 79" x2="0.117" y2="21.985" transform="translate(1.422 0.11)" fill="none" stroke="#22252d" stroke-width="0.75"/>
            <path id="Path_2818" data-name="Path 2818" d="M16.728,391.73s-.1,5.165-3.218,5.607" transform="translate(-12.053 -391.012)" fill="none" stroke="#22252d" stroke-width="0.75"/>
            <path id="Path_2819" data-name="Path 2819" d="M16.545,417.836a16.865,16.865,0,0,0-2.955-1.706" transform="translate(-12.078 -398.564)" fill="none" stroke="#22252d" stroke-width="0.75"/>
          </g>
          <path id="Path_2820" data-name="Path 2820" d="M48.122,327.137c-3.459,9.239,2.182,22.655,2.182,22.655L53.28,371.4l-28.2-1.243.276,18.754s30.251,2.154,37.563,2.154,10.143-1.636,12.291-5.924c3.2-6.387-1.4-41.7-1.4-42.286l-5.02-22.683" transform="translate(-15.634 -320.17)" fill="#22252d"/>
          <line id="Line_80" data-name="Line 80" x2="0.214" y2="18.837" transform="translate(12.823 50.137)" fill="none" stroke="#474b51" stroke-width="0.75"/>
          <path id="Path_2821" data-name="Path 2821" d="M72.5,336.057s-3.2,16.358,13.05,19.872c7.264,1.574,25.728,2.085,25.728,2.085l-3.156,25.272h18.443s3.818-19.044,4.972-31.784c.766-8.472-2.879-12.263-9.729-13.112-5.8-.718-23.242-1.851-23.242-1.851l-2.935-3.68" transform="translate(-30.23 -324.098)" fill="#2c2c36"/>
          <path id="Path_2822" data-name="Path 2822" d="M89.192,360.278s-13.679.041-16.952-15.288" transform="translate(-30.23 -327.852)" fill="none" stroke="#474b51" stroke-width="0.75"/>
          <path id="Path_2823" data-name="Path 2823" d="M82.69,342.9a37.081,37.081,0,0,0,8.521.394" transform="translate(-33.464 -327.205)" fill="none" stroke="#474b51" stroke-width="0.75"/>
          <path id="Path_2824" data-name="Path 2824" d="M56.83,339.76a27.383,27.383,0,0,0,6.014,1.022" transform="translate(-25.461 -326.233)" fill="none" stroke="#474b51" stroke-width="0.75"/>
          <line id="Line_81" data-name="Line 81" x2="17.905" transform="translate(79.11 55.91)" fill="none" stroke="#474b51" stroke-width="0.75"/>
        </g>
        <g id="Group_687" data-name="Group 687" transform="translate(31.135 19.96)">
          <g id="Group_686" data-name="Group 686" transform="translate(82.825 22.324)">
            <rect id="Rectangle_691" data-name="Rectangle 691" width="1.471" height="16.047" transform="translate(1.968 4.329)" fill="#2c2c36"/>
            <circle id="Ellipse_89" data-name="Ellipse 89" cx="2.707" cy="2.707" r="2.707" transform="translate(0)" fill="#2c2c36"/>
          </g>
          <path id="Path_2825" data-name="Path 2825" d="M160.616,303.949l5.441.4a31.711,31.711,0,0,1,5.849-1.45,2.195,2.195,0,0,1,1.554.518v1.643c0,1.1,1.471,1.581,1.471.835v-.9c.014.062,3.017,1.485,1.257,2.838.822.173,1.264,1.326-.3,2.127a1.139,1.139,0,0,1-.076,2.03c.511.773-.525,1.63-1.346,1.8-1.554.338-14.01.076-14.01.076" transform="translate(-88.666 -274.313)" fill="#f09959"/>
          <path id="Path_2826" data-name="Path 2826" d="M96.67,266.554c8.942,12.374,4.136,16.379-2.286,47.934a190.43,190.43,0,0,1-37.894-3.715A241.47,241.47,0,0,1,71.08,275.78c4.516-8.79,12.028-13.161,16.282-14.28" transform="translate(-56.49 -261.5)" fill="#ee4437"/>
          <path id="Path_2827" data-name="Path 2827" d="M95.03,282.734s13.817,21.64,20.383,22.6c10.427,1.526,27.668,1.1,27.668,1.1l1.029-15.225s-22.165-1.119-23.076-1.643c-2.969-1.685-12.436-20.743-12.436-20.743" transform="translate(-68.418 -263.766)" fill="#ee4437"/>
          <path id="Path_2828" data-name="Path 2828" d="M110.286,308.28A61.225,61.225,0,0,1,96.78,291.1" transform="translate(-68.96 -270.661)" fill="none" stroke="#2c2c36" stroke-width="0.75"/>
          <line id="Line_82" data-name="Line 82" x1="1.305" y2="15.446" transform="translate(71.197 27.275)" fill="none" stroke="#2c2c36" stroke-width="0.75"/>
        </g>
      </g>
      <g id="Group_695" data-name="Group 695" transform="translate(331.658 102.318)">
        <g id="Group_689" data-name="Group 689" transform="translate(69.148 40.015)">
          <path id="Path_2829" data-name="Path 2829" d="M585.168,266.39c-.331,2.955-2.714,11.366-2.21,11.718s1.374-2.6,1.726-2.23-.684,4.992-.1,5.206c.8.3,1.609-4.5,1.609-4.5s-.628,5.3.145,5.351c.545.041,1.208-3.977,1.657-5.483-.276,1.692-.4,4.488.166,4.516s1.07-2.7,1.574-4.764c-.193,1.319-.414,3.743.11,3.791s2.223-6.491,3.584-12.719" transform="translate(-581.212 -225.816)" fill="#f886bc"/>
          <path id="Path_2830" data-name="Path 2830" d="M594.042,207.63s4.785,8.5,5.476,13.72c1.706,12.857-8.963,34.628-8.963,34.628s-7.747-2.113-7.747-3.087,5.4-23.85,5.4-23.85l-7.747-17.884" transform="translate(-580.46 -207.63)" fill="#f09959"/>
        </g>
        <g id="Group_690" data-name="Group 690" transform="translate(47.147)">
          <path id="Path_2831" data-name="Path 2831" d="M562.041,167.2l1.043,9.584s-5.745,4.875-10.834-.587l.622-6.311,9.17-2.693Z" transform="translate(-549.727 -155.099)" fill="#f09959"/>
          <path id="Path_2832" data-name="Path 2832" d="M552.887,153.3s-6.221,8.569-3.68,11.78c1.878,2.368,6.794,2.638,8.314,1.706.325-1.754,4.357-7.554,3.715-8.845C558.763,153.009,552.887,153.3,552.887,153.3Z" transform="translate(-548.597 -150.799)" fill="#f09959"/>
          <path id="Path_2833" data-name="Path 2833" d="M563.214,153.657c-.2-3.238-3.4-4.184-9.529-3.818-.822.048-2.279-.511-2.658.221-.5.96-.587,2.9.373,3.77a3.509,3.509,0,0,0,1.92.9c1.112.262,2.244,1.319,1.65,2.479-.152.3-.525.822-.29,1.07a3.563,3.563,0,0,0,.663.352c.442.235.414.9.138,1.326s-.152.884-.428,1.3c-.656.987.124,2.81,1.139,3.411.9.532,3.86,1.429,6.028.3,1.878-.974,3-3.625,3.024-8.39,0-1.83-1.353-3.052-2.037-2.928Z" transform="translate(-549.236 -149.68)" fill="#212237"/>
          <path id="Path_2834" data-name="Path 2834" d="M555.348,162.113c1.008-1.277,1.83-1.077,2.272-.373.594.939-.6,2.886-1.153,3.218-1.125.677-2.037.6-2.127-.311" transform="translate(-550.374 -153.24)" fill="#f09959"/>
          <path id="Path_2835" data-name="Path 2835" d="M551.989,159.646c-.29.242-.559.677-.4,1a.232.232,0,0,0,.235.124c.649-.062.773-1.623.166-1.126Z" transform="translate(-549.508 -152.734)" fill="#28364c"/>
          <path id="Path_2836" data-name="Path 2836" d="M552.3,157.97a2.378,2.378,0,0,1,1.3,1.022" transform="translate(-549.743 -152.245)" fill="none" stroke="#28364c" stroke-width="0.75"/>
          <path id="Path_2837" data-name="Path 2837" d="M551.425,165.97,550,165.21s-.932,1.747-.269,2.113c.732.407,1.692-1.353,1.692-1.353Z" transform="translate(-548.875 -154.486)" fill="#fff"/>
        </g>
        <g id="Group_693" data-name="Group 693" transform="translate(28.257 53.742)">
          <g id="Group_691" data-name="Group 691" transform="translate(0 114.623)">
            <rect id="Rectangle_692" data-name="Rectangle 692" width="22.448" height="1.008" transform="translate(22.472 20.214) rotate(179.96)" fill="#2c2c36"/>
            <path id="Path_2838" data-name="Path 2838" d="M540.5,409.357l1.94.456a43.627,43.627,0,0,1,1.029,4.3,20.794,20.794,0,0,1,.221,3.528l-22.448.014s.587-1.947,5.945-5.082a11.605,11.605,0,0,0,3.183-2.652l10.123-.573Z" transform="translate(-521.24 -398.413)" fill="#22252d"/>
            <path id="Path_2839" data-name="Path 2839" d="M546.562,396.376l-.366,8.535s-.939,1.139-4.751,1.139a29.332,29.332,0,0,1-7.312-1.029l-.753-11.511" transform="translate(-524.997 -393.51)" fill="#f2b18f"/>
          </g>
          <g id="Group_692" data-name="Group 692" transform="translate(31.97 114.623)">
            <path id="Path_2854" data-name="Path 2854" d="M0,0H22.448V1.008H0Z" transform="translate(22.472 20.209) rotate(179.96)" fill="#2c2c36"/>
            <path id="Path_2840" data-name="Path 2840" d="M586.8,409.357l1.94.456a43.662,43.662,0,0,1,1.029,4.3,20.8,20.8,0,0,1,.221,3.528l-22.448.014s.587-1.947,5.945-5.082a11.6,11.6,0,0,0,3.183-2.652l10.123-.573Z" transform="translate(-567.54 -398.413)" fill="#22252d"/>
            <path id="Path_2841" data-name="Path 2841" d="M591.3,396.03l.759,8.88s-.939,1.139-4.751,1.139A29.333,29.333,0,0,1,580,405.021L578.27,393.51" transform="translate(-570.861 -393.51)" fill="#f2b18f"/>
          </g>
          <path id="Path_2842" data-name="Path 2842" d="M579.715,256.345s3.5,7.292.69,21.24c1.429,31.141,5.158,73.013,5.158,73.013l-21.385-.076s-4.357-45.007-6.953-67.434c-2.886-24.982-4.7-55.578-4.7-55.578" transform="translate(-530.924 -227.51)" fill="#ee4437"/>
          <path id="Path_2843" data-name="Path 2843" d="M571.273,375.434S566.916,330.427,564.32,308" transform="translate(-534.573 -252.422)" fill="none" stroke="#2c2c36" stroke-width="0.75"/>
          <path id="Path_2844" data-name="Path 2844" d="M531.287,262.686s-2.272,32.833-2.272,48.59S528,355.544,528,355.544h21.613l8.044-74.525c6.587-7.892,6.1-25.01,4.516-31.673L540.74,243.49l-9.46,19.2Z" transform="translate(-523.332 -232.456)" fill="#ee4437"/>
          <path id="Path_2845" data-name="Path 2845" d="M564.56,332.51l4.419-40.926A22.918,22.918,0,0,0,574.5,277.65" transform="translate(-534.648 -243.029)" fill="none" stroke="#2c2c36" stroke-width="0.75"/>
          <line id="Line_83" data-name="Line 83" x1="5.117" y2="96.159" transform="translate(7.354 26.929)" fill="none" stroke="#2c2c36" stroke-width="0.75"/>
          <line id="Line_84" data-name="Line 84" x2="10.496" y2="0.207" transform="translate(26.667 35.595)" fill="none" stroke="#2c2c36" stroke-width="0.75"/>
          <line id="Line_85" data-name="Line 85" y1="0.083" x2="3.991" transform="translate(44.648 35.181)" fill="none" stroke="#2c2c36" stroke-width="0.75"/>
        </g>
        <g id="Group_694" data-name="Group 694" transform="translate(0 17.04)">
          <path id="Path_2846" data-name="Path 2846" d="M498.307,191.269c-2.928-3.314-10.792-15.923-11.676-15.723s1.5,4.1.739,4.129-4.827-5.724-5.655-5.3c-1.126.587,3.356,6.263,3.356,6.263s-1.754-2.41-2.582-1.616c-.587.559-.276,1.74.939,3.736-.815-1.022-1.588-1.2-2.182-.6s0,1.678.725,2.776c-.573-.718-1.416-1.084-1.63-.331-.283.98,2.1,6.069,7.727,14.369" transform="translate(-480.317 -174.357)" fill="#f09959"/>
          <path id="Path_2847" data-name="Path 2847" d="M555.948,179.559s12.388.518,16.1,14.618c1.678,6.353,2.755,49.937,2.755,49.937l-45.255-.3s.6-39.4,1.616-47.934c1.851-15.591,14.128-16.565,14.128-16.565s.559,1.381,5.358,1.381,5.31-1.132,5.31-1.132Z" transform="translate(-495.555 -175.89)" fill="#2c2c36"/>
          <path id="Path_2848" data-name="Path 2848" d="M567.78,179.67c14.7,0,23.753,20.19,23.753,20.19l-9.246,4.64" transform="translate(-507.387 -176.001)" fill="#2c2c36"/>
          <path id="Path_2849" data-name="Path 2849" d="M522.7,211.268s-7.844,11.29-14.176,11.9c-8.514.822-23.656-27.516-23.656-27.516l9.556-6.456,13.085,16.455,4.461-6.67" transform="translate(-481.727 -178.951)" fill="#f09959"/>
          <path id="Path_2850" data-name="Path 2850" d="M542.5,179.32c-12.657.7-21.923,19.548-21.923,19.548L535.4,209.509l8.41-10.972" transform="translate(-492.779 -175.893)" fill="#2c2c36"/>
          <line id="Line_86" data-name="Line 86" y1="9.329" x2="7.167" transform="translate(42.108 23.914)" fill="none" stroke="#676768" stroke-width="0.75"/>
          <path id="Path_2851" data-name="Path 2851" d="M591.628,208.653a53.051,53.051,0,0,0-2.838-10.993" transform="translate(-513.89 -181.569)" fill="none" stroke="#676768" stroke-width="0.75"/>
        </g>
        <path id="Path_2852" data-name="Path 2852" d="M550.542,160.73s-2.037.981-1.933,1.353a7.572,7.572,0,0,0,.711,1.277" transform="translate(-501.452 -153.1)" fill="#f09959"/>
        <line id="Line_87" data-name="Line 87" x2="21.992" transform="translate(32.932 172.141)" fill="none" stroke="#2c2c36" stroke-width="0.75"/>
        <line id="Line_88" data-name="Line 88" x2="21.392" transform="translate(61.056 172.328)" fill="none" stroke="#2c2c36" stroke-width="0.75"/>
      </g>
    </g>
  </g>
</svg>
