<svg xmlns="http://www.w3.org/2000/svg" width="27.077" height="32" viewBox="0 0 27.077 32">
  <g id="noun_Location_4300694" transform="translate(-5 -3)">
    <path id="Path_818" data-name="Path 818" d="M18.538,35c3.648,0,13.538-11.446,13.538-18.462A13.538,13.538,0,0,0,5,16.538C5,23.554,14.89,35,18.538,35Zm0-29.538A11.09,11.09,0,0,1,29.615,16.538c0,6.132-9.221,15.754-11.051,16-1.882-.246-11.1-9.868-11.1-16A11.09,11.09,0,0,1,18.538,5.462Z" transform="translate(0 0)" fill="#ee4437"/>
    <path id="Path_819" data-name="Path 819" d="M23.308,15.154a6.154,6.154,0,1,0-6.154,6.154,6.154,6.154,0,0,0,6.154-6.154Zm-9.846,0a3.692,3.692,0,1,1,3.692,3.692A3.692,3.692,0,0,1,13.462,15.154Z" transform="translate(1.385 1.385)" fill="#ee4437"/>
  </g>
</svg>
