<svg xmlns="http://www.w3.org/2000/svg" width="48.007" height="40.226" viewBox="0 0 48.007 40.226">
  <g id="noun-done-1755840" transform="translate(56.211 151.86)">
    <path id="Path_3223" data-name="Path 3223" d="M33.9,3.14A20.12,20.12,0,1,0,53.125,17.368l-3.489,2.879a16.218,16.218,0,0,1,.29,3.007,16.039,16.039,0,1,1-3.109-9.481l3.4-2.224A20.084,20.084,0,0,0,33.9,3.14Zm26.935,3.58a.886.886,0,0,0-.5.162L35.143,23.352,27.825,18.1c-.831-.531-2.09.2-1.443,1.191L33.8,29.268a1.761,1.761,0,0,0,2.106.181L61.372,8.437a.936.936,0,0,0-.539-1.718Z" transform="translate(-70 -155)" fill="#14142b"/>
  </g>
</svg>
