<svg xmlns="http://www.w3.org/2000/svg" width="27.077" height="21.275" viewBox="0 0 27.077 21.275">
  <g id="noun_Email_4293221" transform="translate(-2 -5)">
    <g id="Group_128" data-name="Group 128" transform="translate(2 5)">
      <path id="Path_820" data-name="Path 820" d="M4.9-35A2.916,2.916,0,0,0,2-32.1v15.473a2.916,2.916,0,0,0,2.9,2.9H26.176a2.916,2.916,0,0,0,2.9-2.9V-32.1a2.916,2.916,0,0,0-2.9-2.9Zm0,1.934H26.176a.972.972,0,0,1,.459.123L16.628-24.125a1.53,1.53,0,0,1-2.18,0L4.442-32.943A.972.972,0,0,1,4.9-33.066Zm-.967,2.253,9.234,8.139a3.585,3.585,0,0,0,4.741,0l9.234-8.139v14.186a.944.944,0,0,1-.967.967H4.9a.944.944,0,0,1-.967-.967Z" transform="translate(-2 35)" fill="#ee4437"/>
    </g>
  </g>
</svg>
