<svg xmlns="http://www.w3.org/2000/svg" width="45.3" height="45.3" viewBox="0 0 45.3 45.3">
  <g id="noun-add-user-5317735" transform="translate(-122.507 -52.496)">
    <path id="Path_140" data-name="Path 140" d="M220.63,322.666a6.975,6.975,0,0,1,6.387-4.182h6.969a6.975,6.975,0,0,1,6.387,4.182,1.742,1.742,0,1,0,3.194-1.394A10.447,10.447,0,0,0,233.986,315h-6.969a10.447,10.447,0,0,0-9.581,6.272,1.742,1.742,0,1,0,3.194,1.394Z" transform="translate(-85.346 -236.369)" fill="#ee4437" fill-rule="evenodd"/>
    <path id="Path_141" data-name="Path 141" d="M255.454,140a10.454,10.454,0,1,0,10.454,10.454A10.46,10.46,0,0,0,255.454,140Zm0,3.485a6.969,6.969,0,1,1-6.969,6.969A6.972,6.972,0,0,1,255.454,143.485Z" transform="translate(-110.297 -78.792)" fill="#ee4437" fill-rule="evenodd"/>
    <path id="Path_142" data-name="Path 142" d="M163.23,68.759a19.154,19.154,0,1,1-11.686-11.686,1.743,1.743,0,1,0,1.164-3.286,22.635,22.635,0,1,0,13.808,13.808,1.743,1.743,0,1,0-3.286,1.164Z" fill="#ee4437" fill-rule="evenodd"/>
    <path id="Path_143" data-name="Path 143" d="M439.242,117.235h8.712a1.742,1.742,0,0,0,0-3.485h-8.712a1.742,1.742,0,0,0,0,3.485Z" transform="translate(-283.632 -55.156)" fill="#ee4437" fill-rule="evenodd"/>
    <path id="Path_144" data-name="Path 144" d="M481.25,71.742v8.712a1.742,1.742,0,0,0,3.485,0V71.742a1.742,1.742,0,0,0-3.485,0Z" transform="translate(-323.026 -15.761)" fill="#ee4437" fill-rule="evenodd"/>
  </g>
</svg>
