<svg xmlns="http://www.w3.org/2000/svg" width="94.669" height="105.049" viewBox="0 0 94.669 105.049">
  <g id="noun-email-3659389" transform="translate(-1.785 -0.53)">
    <g id="Group_1056" data-name="Group 1056" transform="translate(1.785 0.53)">
      <path id="Path_4210" data-name="Path 4210" d="M-81.91,197.238l-12.644,11.43h25.287Zm-32.6,13.674a3.692,3.692,0,0,0-3.724,3.725v14.786a1.125,1.125,0,0,1,0,.3v15.523l29.309,16.922,6.238-5.946.021-.021h0q.041-.038.086-.071h0l.037-.025.057-.037q.048-.027.1-.05h0a1.119,1.119,0,0,1,.1-.044h0a1.1,1.1,0,0,1,.107-.033h0a1.128,1.128,0,0,1,.194-.033l.025,0h0a1.127,1.127,0,0,1,.223.013,1.121,1.121,0,0,1,.217.057,1.122,1.122,0,0,1,.292.164q.044.035.085.074l6.238,5.946,29.309-16.923V229.7a1.122,1.122,0,0,1,0-.293V214.624a3.692,3.692,0,0,0-3.724-3.724Zm13.776,7.915h37.643a1.121,1.121,0,0,1,1.122,1.122,1.122,1.122,0,0,1-1.122,1.122h-37.643a1.121,1.121,0,0,1-1.122-1.122,1.122,1.122,0,0,1,1.122-1.122Zm-7.32,9.794H-55.77a1.122,1.122,0,0,1,1.122,1.122,1.122,1.122,0,0,1-1.122,1.122h-52.282a1.122,1.122,0,0,1-1.122-1.122A1.122,1.122,0,0,1-108.052,228.621Zm64.706,3.481v11.846l8-4.616Zm-77.13,0-8,7.229,8,4.616Zm12.424,3.391H-55.77a1.122,1.122,0,0,1,1.122,1.122,1.122,1.122,0,0,1-1.122,1.122h-52.282a1.122,1.122,0,0,1-1.122-1.122A1.122,1.122,0,0,1-108.052,235.493Zm-21.193,5.982V297.49a4.73,4.73,0,0,0,.69,2.449l37.441-35.686.5-.475Zm94.669,0-38.629,22.3,37.939,36.161a4.723,4.723,0,0,0,.69-2.449Zm-73.476,1.475H-55.77a1.122,1.122,0,0,1,1.122,1.122,1.122,1.122,0,0,1-1.122,1.122h-52.282a1.122,1.122,0,0,1-1.122-1.122,1.122,1.122,0,0,1,1.122-1.122Zm26.142,15.63-45.075,42.962a4.727,4.727,0,0,0,2.537.744h85.076a4.726,4.726,0,0,0,2.537-.744Z" transform="translate(129.245 -197.238)" fill="#fff"/>
    </g>
  </g>
</svg>
