<svg version="1.2" xmlns="http://www.w3.org/2000/svg" viewBox="0 0 424 424" width="424" height="424">
	<title>noun-startup-1946229 copy</title>
	<style>
		.s0 { fill: #ee4437;stroke: #ffffff;stroke-width: 6 } 
		.s1 { fill: #000000;stroke: #ffffff;stroke-width: 6 } 
	</style>
	<g id="noun-startup-1946229 copy">
		<path id="Path 1987" fill-rule="evenodd" class="s0" d="m182.8 172c-7.8-7.8-12.2-18.4-12.2-29.4 0-11 4.3-21.6 12.2-29.4 7.8-7.9 18.4-12.2 29.4-12.2 11 0 21.6 4.3 29.4 12.2 7.9 7.8 12.2 18.4 12.2 29.4 0 11-4.3 21.6-12.2 29.4-7.8 7.9-18.4 12.2-29.4 12.2-11 0-21.6-4.4-29.4-12.2zm9.8-49c-5.2 5.2-8.2 12.2-8.2 19.6 0 7.4 3 14.4 8.2 19.6 5.2 5.2 12.2 8.2 19.6 8.2 7.4 0 14.4-3 19.6-8.2 5.2-5.2 8.2-12.2 8.2-19.6 0-7.4-3-14.4-8.2-19.6-5.2-5.2-12.2-8.2-19.6-8.2-7.4 0-14.4 3-19.6 8.2z"/>
		<path id="Path 1988" fill-rule="evenodd" class="s1" d="m137.9 327.9c-17.8-17.8-27.2-42.3-25.9-67.5 1.4-25.1 13.4-48.5 33-64.3v-0.2c-11.2-34.4-11.1-71.4 0.3-105.7 11.4-34.4 33.4-64.2 62.9-85.1 2.4-1.7 5.6-1.7 8 0 29.5 20.9 51.5 50.7 62.9 85.1 11.4 34.3 11.5 71.3 0.3 105.7v0.2c19.6 15.8 31.6 39.2 33 64.3 1.3 25.2-8.1 49.7-25.9 67.5-1.3 1.3-3.1 2.1-4.9 2.1q-1.1 0-2.2-0.4c-2.5-0.8-4.3-3-4.7-5.6l-5.2-36.6c-0.5-3.5-3.4-6-6.9-6h-21.1l5.3 26.4c0.4 2-0.1 4.1-1.5 5.8-1.3 1.6-3.3 2.5-5.3 2.5h-55.6c-2 0-4-0.9-5.3-2.5-1.4-1.7-1.9-3.8-1.5-5.8l5.3-26.4h-21.1c-3.5 0-6.4 2.5-6.9 6l-5.2 36.6c-0.4 2.6-2.2 4.8-4.7 5.6q-1.1 0.4-2.2 0.4c-1.8 0-3.6-0.8-4.9-2.1zm89.4-46.5h-30.2l-4.2 20.8h38.6zm47.5-71l-18.4 57.1h6.2c5 0.1 9.8 1.9 13.6 5.2 3.8 3.2 6.3 7.8 7 12.7l3 21.1c9.3-14 13.5-30.7 12.1-47.5-1.5-18.6-9.9-35.9-23.5-48.6zm-103.7-144.1h82.1c-10.4-18.2-24.4-34.2-41-46.9-16.7 12.7-30.7 28.7-41.1 46.9zm-13 125.4l1.6 4.8 22.8 71h59.3l22.8-71 1.6-4.8c11.8-36.6 9.7-76.4-6-111.5h-96.1c-15.7 35.1-17.8 74.9-6 111.5zm-20 114.8l3-21.1c0.8-4.9 3.2-9.5 7-12.7 3.8-3.3 8.6-5.1 13.6-5.2h6.2l-18.3-57.1c-13.7 12.7-22.1 30-23.6 48.6-1.4 16.7 2.8 33.5 12.1 47.5z"/>
		<path id="Path 1989" class="s0" d="m59.5 420.2h13.9c0-15.4-5.1-30.3-14.6-42.4 4.1-6.9 10.1-12.4 17.3-15.9 0 0 0.1 0 0.2-0.1 5.6-2.7 11.7-4.1 17.9-4.1 13.5 0.1 26.1 6.6 33.9 17.6-4 7.4-6.1 15.7-6.1 24.1h13.9c0-7.1 2-14.1 5.7-20.1 0.1-0.1 0.2-0.2 0.3-0.3 4.6-6.7 11.3-11.6 19.1-13.8 7.7-2.3 16-1.7 23.4 1.6v18.1h13.9v-55.5h-13.9v22.6c-8.2-2.5-17-2.7-25.4-0.7-8.4 2.1-16.1 6.4-22.3 12.4-10.6-12.5-26.1-19.8-42.5-19.8-5 0-10.1 0.7-14.9 2-2.7-16.1-11.1-30.8-23.6-41.3-12.5-10.6-28.4-16.3-44.8-16.3h-6.9v13.9h6.9c13.7 0 27 5 37.1 14.2 10.2 9.1 16.6 21.8 18 35.4-6.7 3.9-12.6 9.2-17.1 15.6-12.5-10.7-28.4-16.6-44.9-16.6v13.9c14.7 0 28.8 5.9 39.2 16.3 10.4 10.4 16.3 24.5 16.3 39.2z"/>
		<path id="Path 1990" class="s0" d="m345.1 345.9c-4.8-1.3-9.9-2-14.9-2-16.4 0-31.9 7.3-42.5 19.8-6.2-6.1-13.9-10.3-22.3-12.4-8.4-2-17.2-1.8-25.4 0.7v-22.6h-13.9v55.5h13.9v-18.1c7.4-3.3 15.7-3.9 23.4-1.6 7.8 2.2 14.5 7.1 19.1 13.8 0.1 0.1 0.2 0.2 0.3 0.3 3.7 6 5.7 13 5.7 20.1h13.9c0-8.4-2.1-16.7-6.1-24.1 7.8-11 20.4-17.5 33.9-17.6 6.2 0 12.3 1.4 17.9 4.2q0.1 0 0.2 0c7.2 3.5 13.2 9 17.3 15.9-9.5 12.1-14.6 27-14.6 42.4h13.9c0-14.7 5.9-28.8 16.3-39.2 10.4-10.4 24.5-16.3 39.2-16.3v-13.9c-16.5 0-32.4 5.9-44.9 16.6-4.5-6.4-10.4-11.7-17.1-15.6 1.4-13.6 7.8-26.2 18-35.4 10.1-9.2 23.4-14.2 37.1-14.2h6.9v-13.9h-6.9c-16.4 0-32.3 5.7-44.8 16.3-12.5 10.5-20.9 25.2-23.6 41.3z"/>
		<path id="Path 1991" class="s1" d="m177.5 205.1h13.9v13.8h-13.9z"/>
		<path id="Path 1992" class="s1" d="m205.3 205.1h13.8v13.8h-13.8z"/>
		<path id="Path 1993" class="s1" d="m233 205.1h13.9v13.8h-13.9z"/>
		<path id="Path 1994" class="s0" d="m80.3 371.6h13.9v13.9h-13.9z"/>
		<path id="Path 1995" class="s0" d="m4 260.6h13.9v13.9h-13.9z"/>
		<path id="Path 1996" class="s0" d="m392.6 323h13.9v13.9h-13.9z"/>
		<path id="Path 1997" class="s0" d="m337.1 295.3h13.9v13.9h-13.9z"/>
		<path id="Path 1998" class="s0" d="m260.8 406.3h13.9v13.9h-13.9z"/>
		<path id="Path 1999" class="s0" d="m406.5 246.7h13.9v13.9h-13.9z"/>
	</g>
</svg>