<svg xmlns="http://www.w3.org/2000/svg" width="27.077" height="27.122" viewBox="0 0 27.077 27.122">
  <g id="noun_receive_call_4304827" data-name="noun_receive call_4304827" transform="translate(-4.785 -14.184)">
    <g id="Group_129" data-name="Group 129" transform="translate(4.785 14.184)">
      <path id="Path_821" data-name="Path 821" d="M5.559,17.889c-2.04,2.04-.009,11.37,5.58,16.96,4.437,4.437,10.46,6.458,14.179,6.458a3.965,3.965,0,0,0,2.839-.82l3.206-3.206a1.743,1.743,0,0,0,.5-1.323c-.084-2.113-4.077-5.735-5.79-7.194l-.131-.112-.16-.066a2.9,2.9,0,0,0-3.164.628l-2.5,2.5a8.914,8.914,0,0,1-5.753-5.493l2.742-2.742a2.916,2.916,0,0,0,.593-3.245l-.069-.153-.112-.125c-1.545-1.734-5.371-5.768-7.507-5.768a1.721,1.721,0,0,0-1.246.5ZM10.147,16.4c.906.26,3.4,2.417,5.595,4.853a.711.711,0,0,1-.187.666l-2.929,2.929a1.762,1.762,0,0,0-.429,1.815,11.143,11.143,0,0,0,7.577,7.225,1.813,1.813,0,0,0,.466.061,1.764,1.764,0,0,0,1.256-.518l2.671-2.671a.711.711,0,0,1,.641-.193c2.4,2.074,4.545,4.444,4.828,5.331l-3.016,3.016a3.017,3.017,0,0,1-1.3.192c-2.738,0-8.361-1.548-12.627-5.814C7.393,28,6.506,20.441,7.131,19.421Z" transform="translate(-4.785 -14.184)" fill="#ee4437"/>
    </g>
  </g>
</svg>
