<svg version="1.2" xmlns="http://www.w3.org/2000/svg" viewBox="0 0 103 103" width="103" height="103">
	<title>noun-financial-plan-1472667</title>
	<style>
		.s0 { fill: #000000;stroke: #14142b;stroke-width: 2 } 
		.s1 { fill: #000000 } 
		.s2 { fill: #ee4437 } 
	</style>
	<g id="noun-financial-plan-1472667">
		<path id="Path 1524" fill-rule="evenodd" class="s0" d="m101.3 59.5v40.2c0 0.9-0.7 1.6-1.6 1.6h-97c-1 0-1.7-0.7-1.7-1.6v-88.7c0-0.9 0.7-1.6 1.7-1.6h10v-6.7c0-0.9 0.8-1.7 1.7-1.7h61.8c1 0 1.7 0.8 1.7 1.7v55.2h21.8c0.9 0 1.6 0.7 1.6 1.6zm-85.3-50.1h48.5c1 0 1.7 0.7 1.7 1.6v46.9h8.4v-53.5h-58.6zm46.9 48.4v-45.1h-58.6v85.3h56.9v-38.5c0-0.9 0.7-1.7 1.7-1.7zm1.6 40.2h33.5v-36.8h-33.5z"/>
		<path id="Path 1525" fill-rule="evenodd" class="s1" d="m69.6 66.5c0-1.1 0.9-2 2-2h19.4c1.1 0 2 0.9 2 2v6.1c0 1.1-0.9 2-2 2h-19.4c-1.1 0-2-0.9-2-2zm3.3 4.7h16.7v-3.4h-16.7z"/>
		<path id="Path 1526" class="s1" d="m69.6 77.9h3.3v3.4h-3.3z"/>
		<path id="Path 1527" class="s1" d="m76.2 77.9h3.4v3.4h-3.4z"/>
		<path id="Path 1528" class="s1" d="m82.9 77.9h3.4v3.4h-3.4z"/>
		<path id="Path 1529" class="s1" d="m89.6 77.9h3.4v3.4h-3.4z"/>
		<path id="Path 1530" class="s1" d="m69.6 84.6h3.3v3.4h-3.3z"/>
		<path id="Path 1531" class="s1" d="m76.2 84.6h3.4v3.4h-3.4z"/>
		<path id="Path 1532" class="s1" d="m82.9 84.6h3.4v3.4h-3.4z"/>
		<path id="Path 1533" class="s1" d="m89.6 84.6h3.4v3.4h-3.4z"/>
		<path id="Path 1534" class="s1" d="m69.6 91.3h3.3v3.3h-3.3z"/>
		<path id="Path 1535" class="s1" d="m76.2 91.3h3.4v3.3h-3.4z"/>
		<path id="Path 1536" class="s1" d="m82.9 91.3h3.4v3.3h-3.4z"/>
		<path id="Path 1537" class="s1" d="m89.6 91.3h3.4v3.3h-3.4z"/>
		<path id="Path 1538" fill-rule="evenodd" class="s1" d="m37.8 86.3v6.7c0 0.9-0.8 1.6-1.7 1.6h-26.7c-1 0-1.7-0.7-1.7-1.6v-18.4c0-0.9 0.7-1.7 1.7-1.7h5v-8.4c0-0.9 0.7-1.6 1.6-1.6h6.7c1 0 1.7 0.7 1.7 1.6v11.8h5c0.9 0 1.7 0.7 1.7 1.6v6.7h5c0.9 0 1.7 0.8 1.7 1.7zm-26.8 5h3.4v-15h-3.4zm6.7 0h3.4v-25.1h-3.4zm6.7 0h3.4v-11.7h-3.4zm10-3.4h-3.3v3.4h3.3z"/>
		<path id="Path 1539" fill-rule="evenodd" class="s2" d="m7.8 49.2q0-0.1-0.1-0.2 0-0.6 0-1.2c0-6.4 5.2-11.7 11.7-11.7 6.4 0 11.7 5.3 11.7 11.7q0 0.6-0.1 1.2 0 0.1 0 0.2 0 0.5-0.1 1 0 0 0 0c-0.5 2.2-1.6 4.3-3.2 5.9q0 0-0.1 0c-2.1 2.1-5 3.4-8.2 3.4-3.2 0-6.1-1.3-8.3-3.4q0 0 0 0c-1.6-1.6-2.7-3.7-3.2-5.9q0 0 0 0-0.1-0.5-0.1-1zm11.6 7c1.7 0 3.3-0.5 4.6-1.4l-2.5-2.5c-0.6 0.4-1.3 0.5-2.1 0.5-0.8 0-1.5-0.1-2.2-0.5l-2.4 2.5c1.3 0.9 2.9 1.4 4.6 1.4zm-1.7-8.4q0 0.4 0.2 0.7 0 0.1 0.2 0.3c0.3 0.4 0.7 0.7 1.3 0.7 0.5 0 1-0.3 1.3-0.7q0.1-0.1 0.2-0.3 0.2-0.3 0.2-0.7c0-0.9-0.8-1.6-1.7-1.6-0.9 0-1.7 0.7-1.7 1.6zm10.1 0q-0.1-0.8-0.2-1.6-0.1-0.2-0.1-0.4-0.2-0.6-0.4-1-0.1-0.3-0.2-0.6-0.2-0.4-0.4-0.8-0.2-0.3-0.4-0.5-0.3-0.4-0.6-0.7-0.2-0.2-0.4-0.5-0.3-0.3-0.7-0.5-0.3-0.2-0.5-0.4-0.4-0.3-0.9-0.5-0.2-0.1-0.5-0.2-0.6-0.3-1.3-0.4-0.1-0.1-0.1-0.1v3.5q0 0 0.1 0.1 0.2 0 0.3 0.1 0.3 0.1 0.5 0.3 0.2 0.1 0.3 0.1 0.3 0.3 0.5 0.5 0.1 0.1 0.2 0.1 0.3 0.3 0.5 0.7 0.1 0.1 0.1 0.2 0.2 0.3 0.3 0.6 0.1 0.1 0.2 0.2 0.1 0.3 0.1 0.6 0.1 0.2 0.1 0.3 0.1 0.5 0.1 0.9 0 0.6-0.1 1.1-0.1 0.2-0.1 0.4-0.1 0.3-0.2 0.6-0.1 0-0.1 0.1l2.5 2.4q0.4-0.6 0.6-1.2 0.1-0.2 0.2-0.3 0.2-0.6 0.3-1.2 0.1-0.2 0.1-0.4 0.1-0.7 0.2-1.5zm-16.8 0q0 0.8 0.2 1.5 0 0.2 0.1 0.4 0.1 0.6 0.3 1.2 0.1 0.1 0.1 0.3 0.3 0.6 0.7 1.2l2.5-2.4q-0.1-0.1-0.1-0.1-0.1-0.3-0.2-0.6-0.1-0.2-0.1-0.4-0.1-0.5-0.1-1.1 0-0.4 0.1-0.9 0-0.1 0-0.3 0.1-0.3 0.2-0.6 0.1-0.1 0.1-0.3 0.2-0.3 0.3-0.5 0.1-0.1 0.2-0.2 0.2-0.4 0.5-0.7 0.1-0.1 0.1-0.1 0.3-0.3 0.6-0.5 0.1 0 0.2-0.1 0.3-0.2 0.6-0.3 0.1-0.1 0.3-0.1 0-0.1 0.1-0.1v-3.5q0 0-0.1 0.1-0.7 0.1-1.4 0.4-0.2 0.1-0.4 0.2-0.5 0.2-0.9 0.5-0.3 0.2-0.5 0.3-0.4 0.3-0.7 0.6-0.2 0.3-0.4 0.5-0.3 0.3-0.6 0.7-0.2 0.2-0.4 0.5-0.2 0.4-0.4 0.8-0.1 0.3-0.3 0.5-0.1 0.5-0.3 1 0 0.3-0.1 0.5-0.2 0.8-0.2 1.6z"/>
		<path id="Path 1540" class="s1" d="m7.7 16.1h28.4v3.3h-28.4z"/>
		<path id="Path 1541" class="s1" d="m7.7 22.7h50.2v3.4h-50.2z"/>
		<path id="Path 1542" fill-rule="evenodd" class="s2" d="m57.9 39.5v46.8q-0.1 0.5-0.4 1l-5 6.7c-0.3 0.4-0.8 0.6-1.3 0.6-0.6 0-1.1-0.2-1.4-0.6l-5-6.7q-0.3-0.5-0.3-1v-46.8c0-1 0.7-1.7 1.6-1.7h10.1c0.9 0 1.7 0.7 1.7 1.7zm-10.1 6.7h6.7v-5.1h-6.7zm0 36.8h6.7v-33.4h-6.7zm6.3 3.3h-5.9l3 3.9z"/>
	</g>
</svg>