<svg xmlns="http://www.w3.org/2000/svg" width="31.597" height="51.133" viewBox="0 0 31.597 51.133">
  <g id="noun-invest-2763982" transform="translate(-185.127 -14.561)">
    <path id="Path_570" data-name="Path 570" d="M311.138,74.986V73.264a3.448,3.448,0,0,0-.215-6.889h-1.668a1.292,1.292,0,0,1,0-2.584h1.668a1.31,1.31,0,0,1,1.292,1.292h2.153a3.465,3.465,0,0,0-3.23-3.445V59.915h-2.153v1.777a3.448,3.448,0,0,0,.215,6.889h1.668a1.292,1.292,0,1,1,0,2.584H309.2a1.31,1.31,0,0,1-1.292-1.292h-2.153a3.465,3.465,0,0,0,3.23,3.445V75.04h2.153Z" transform="translate(-109.034 -40.995)" fill="#ed4436"/>
    <path id="Path_571" data-name="Path 571" d="M216.583,40.988a1.2,1.2,0,0,0-1.023-1.023c-.323-.054-8.02-1.023-12.38,3.283a11.344,11.344,0,0,0-1.023,1.238V38.4a11.949,11.949,0,1,0-2.368,0v6.244a6.82,6.82,0,0,0-1.13-1.346c-4.306-4.306-12-3.337-12.379-3.283a1.2,1.2,0,0,0-1.023,1.023c-.054.323-1.023,8.02,3.283,12.379,2.906,2.906,7.374,3.391,10.065,3.391a8.356,8.356,0,0,0,1.184-.054V64.51a1.184,1.184,0,0,0,2.368,0V56.7c.323,0,.7.054,1.076.054,2.691,0,7.159-.484,10.065-3.391,4.36-4.306,3.337-12.057,3.283-12.379Zm-25.19-14.532a9.581,9.581,0,1,1,9.581,9.581,9.6,9.6,0,0,1-9.581-9.581Zm-3.768,15.77c1.991-.108,6.728-.054,9.419,2.691,2.1,2.1,2.637,5.436,2.691,7.751l-5.221-5.221a1.139,1.139,0,0,0-1.668,0,1.185,1.185,0,0,0,0,1.668l5.221,5.221c-2.314-.054-5.652-.592-7.751-2.691C187.572,48.954,187.518,44.272,187.626,42.226ZM211.631,51.7c-2.1,2.1-5.436,2.637-7.751,2.691L209.1,49.17a1.139,1.139,0,0,0,0-1.668,1.185,1.185,0,0,0-1.668,0l-5.221,5.221c.054-2.314.592-5.652,2.691-7.751,2.691-2.691,7.428-2.8,9.419-2.691C214.43,44.272,214.376,48.954,211.631,51.7Z" fill="#ed4436"/>
  </g>
</svg>
