<svg xmlns="http://www.w3.org/2000/svg" width="100.398" height="100.325" viewBox="0 0 100.398 100.325">
  <g id="noun-meeting-successful-2409874" transform="translate(-81.417 -11.2)">
    <path id="Path_725" data-name="Path 725" d="M84.3,216.753l3.344,2.09a5.968,5.968,0,0,0,7.106-.209,5.639,5.639,0,0,0,1.463,1.672l2.3,1.881-.209.209a5.408,5.408,0,0,0-1.463,3.762c.209,2.3,2.09,3.971,2.926,4.807l.418.418a5.381,5.381,0,0,0,3.344,1.463,6.992,6.992,0,0,0,2.717,3.762,4.894,4.894,0,0,0,3.553,1.463h.418a10.339,10.339,0,0,0,2.508,3.553,5.379,5.379,0,0,0,3.135,1.463c.418,1.463,1.672,2.508,2.926,3.553.418.418,1.045.836,1.254,1.254l.209.209a4.466,4.466,0,0,0,2.717,1.045,4.235,4.235,0,0,0,2.926-1.254c.627.418.836.836,1.254,1.045,3.553,3.344,7.315,2.717,9.614.209a6.635,6.635,0,0,0,1.672-4.18,7.067,7.067,0,0,0,3.971-1.881,6.635,6.635,0,0,0,1.672-4.18,7.067,7.067,0,0,0,3.971-1.881,6.635,6.635,0,0,0,1.672-4.18,7.067,7.067,0,0,0,3.971-1.881,6.244,6.244,0,0,0,1.463-5.643l7.733-6.27,3.762-1.254a6.751,6.751,0,0,0,5.225,2.926,7.381,7.381,0,0,0,2.926-.627l3.553-1.881a6.121,6.121,0,0,0,2.717-8.36L168.95,186.451a6.3,6.3,0,0,0-8.36-2.717l-3.553,1.881a6.485,6.485,0,0,0-3.135,7.524l-4.807,1.669a13.442,13.442,0,0,1-9.614-.209c-5.225-1.672-5.643-.209-7.524-.209-1.881.418-5.225,1.254-6.9,1.672-.209-.209-.627-.418-.836-.627a16.053,16.053,0,0,0-10.241-3.344h-2.3a6.482,6.482,0,0,0-2.717-6.061l-3.344-2.3c-3.344-1.462-7.106-.835-8.986,2.091L82.422,207.975a6.383,6.383,0,0,0,1.881,8.778Zm20.273,10.868h0c-.418.418-.836.836-1.254.836-.209,0-2.508-1.881-2.508-2.508,0-.209.209-.418.209-.627,1.672-1.463,3.553-5.225,5.643-3.344,1.045,1.463.836,2.09.209,2.926.209.21-2.09,2.509-2.3,2.717Zm5.016,6.27c-.209,0-.418-.209-.627-.418l-.418-.418c-1.045-1.045-1.463-1.463-1.463-1.881,0-.209.209-.418.209-.627.209-.209,4.18-4.6,4.389-4.807a1.627,1.627,0,0,1,1.254-.627,2.388,2.388,0,0,1,1.463.627,2.238,2.238,0,0,1,.209,2.926c-1.463,1.671-3.762,5.224-5.017,5.224Zm6.688,5.016c-.209,0-.418-.209-.627-.418s-.209-.209-.418-.209a7.6,7.6,0,0,1-1.463-1.881.767.767,0,0,1,.209-.627c1.672-1.672,3.344-4.18,4.807-4.18.209,0,.418,0,1.045.418,1.045,1.463.836,2.09.209,2.926-.628,1.045-2.509,3.971-3.764,3.971Zm7.943,4.389c-.418.418-.836,1.045-1.254,1.463l-1.463-1.463a9.68,9.68,0,0,1-1.463-1.463c.627-.627,1.881-2.09,2.717-2.09a1.626,1.626,0,0,1,1.254.627,2.247,2.247,0,0,1,.209,2.926Zm34.695-54.55,3.553-1.881a1.844,1.844,0,0,1,2.717.836L177.31,211.11a2.115,2.115,0,0,1-.836,2.926l-3.553,1.881a2.2,2.2,0,0,1-2.717-.836l-11.7-22.363c0-.209-1.881-2.717.418-3.971Zm-33.859,11.7c.418,0,3.553-.836,6.061-1.463h.209c4.807-1.254,3.971-1.254,6.9-.418,4.389,1.463,7.733,1.881,12.54.209l5.016-2.3,8.987,17.348-3.553,1.254c-.209,0-.418.209-.627.418l-7.733,6.061c-19.228-17.765-1.463-1.463-16.3-14.212a6.559,6.559,0,0,0-5.852-1.254l-8.778,1.881a3.447,3.447,0,1,1-1.671-6.688Zm-15.467-3.971,4.389-.209a12.9,12.9,0,0,1,5.225,1.045,7.51,7.51,0,0,0-5.225,9.2,7.412,7.412,0,0,0,7.315,5.643,4.073,4.073,0,0,0,1.672-.209l8.778-1.881a2.284,2.284,0,0,1,2.09.418c12.122,10.659,15.466,13.585,16.3,14.212l.209.209a2.238,2.238,0,0,1,.209,2.926,1.859,1.859,0,0,1-2.926,0l-6.27-5.434a2.074,2.074,0,0,0-2.717,3.135l6.271,5.434a2.238,2.238,0,0,1,.209,2.926,2,2,0,0,1-2.926.209l-5.434-5.225a2.069,2.069,0,0,0-2.926,2.926l5.434,5.225a2.02,2.02,0,0,1,0,2.926,2.238,2.238,0,0,1-2.926.209l-3.971-3.554a1.583,1.583,0,0,0-.836-.418,1.935,1.935,0,0,0-2.508.418,2.031,2.031,0,0,0,.209,2.926l4.389,3.971a2.038,2.038,0,0,1-2.3,3.344,32.132,32.132,0,0,1-2.717-2.508,6.551,6.551,0,0,0-1.463-6.9,12.674,12.674,0,0,0-2.09-1.463c.627-1.672.836-3.762-1.254-6.479,0-.209-.209-.209-.418-.418a5.69,5.69,0,0,0-3.344-1.672,6.978,6.978,0,0,0-1.881-4.807,7.188,7.188,0,0,0-4.389-1.672,6.115,6.115,0,0,0-1.881.418c-1.254-2.926-3.553-4.18-5.643-4.18a6.967,6.967,0,0,0-4.389,1.881l-2.508-2.09a7.5,7.5,0,0,1-1.463-2.09ZM85.974,210.274l14.212-22.154a2.055,2.055,0,0,1,2.926-.627l3.344,2.3a2.055,2.055,0,0,1,.627,2.926L92.872,214.872a2.25,2.25,0,0,1-2.926.627L86.6,213.2a2.056,2.056,0,0,1-.627-2.926Z" transform="translate(0 -139.717)" fill="#14142b"/>
    <path id="Path_726" data-name="Path 726" d="M252.56,30.428A19.228,19.228,0,1,0,271.788,11.2,19.178,19.178,0,0,0,252.56,30.428Zm34.277,0A15.048,15.048,0,1,1,271.788,15.38,14.986,14.986,0,0,1,286.837,30.428Z" transform="translate(-139.205)" fill="#ee4437"/>
    <path id="Path_727" data-name="Path 727" d="M291.953,73.814a2.069,2.069,0,1,0-2.926,2.926l6.9,6.9a2.021,2.021,0,0,0,2.926,0l14-14a2.069,2.069,0,0,0-2.926-2.926l-12.54,12.54Z" transform="translate(-168.357 -44.64)" fill="#ee4437"/>
  </g>
</svg>
