<svg xmlns="http://www.w3.org/2000/svg" width="69.982" height="92.601" viewBox="0 0 69.982 92.601">
  <g id="noun-check-list-605511" transform="translate(-124.691 -23.543)">
    <g id="Path_638" data-name="Path 638" transform="translate(0 0)" fill="#14142b" stroke-linecap="square">
      <path d="M 188.6103210449219 115.6435470581055 L 130.7535858154297 115.6435470581055 C 127.6863861083984 115.6435470581055 125.191032409668 113.1463241577148 125.191032409668 110.0768203735352 L 125.191032409668 35.80319595336914 C 125.191032409668 32.73369216918945 127.6863861083984 30.23646926879883 130.7535858154297 30.23646926879883 L 140.7346343994141 30.23646926879883 L 141.2346343994141 30.23646926879883 L 141.2346343994141 29.73646926879883 L 141.2346343994141 29.60951614379883 C 141.2346343994141 26.54001045227051 143.72998046875 24.04277420043945 146.7971801757812 24.04277420043945 L 172.5681762695312 24.04277420043945 C 175.6353912353516 24.04277420043945 178.1307373046875 26.54001045227051 178.1307373046875 29.60951614379883 L 178.1307373046875 29.73646926879883 L 178.1307373046875 30.23646926879883 L 178.6307373046875 30.23646926879883 L 188.6117553710938 30.23646926879883 C 191.6742858886719 30.23737144470215 194.1689910888672 32.73453521728516 194.1728973388672 35.8038330078125 L 194.1728973388672 110.0768203735352 C 194.1728973388672 113.1463241577148 191.6775360107422 115.6435470581055 188.6103210449219 115.6435470581055 Z M 130.2550201416016 35.30261993408203 L 130.2550201416016 35.80261993408203 L 130.2550201416016 110.0762481689453 L 130.2550201416016 110.5762481689453 L 130.7550201416016 110.5762481689453 L 188.6117553710938 110.5762481689453 L 189.1117553710938 110.5762481689453 L 189.1117553710938 110.0762557983398 L 189.1132049560547 35.80263137817383 L 189.1132202148438 35.30261993408203 L 188.6132049560547 35.30261993408203 L 178.6321868896484 35.30261993408203 L 178.1321868896484 35.30261993408203 L 178.1321868896484 35.80261993408203 L 178.1321868896484 39.46291732788086 C 178.1321868896484 42.53012847900391 175.6368255615234 45.02547836303711 172.5696105957031 45.02547836303711 L 146.7986145019531 45.02547836303711 C 143.7314147949219 45.02547836303711 141.2360687255859 42.53012847900391 141.2360687255859 39.46292877197266 L 141.2360687255859 35.80261993408203 L 141.2360687255859 35.30261993408203 L 140.7360687255859 35.30261993408203 L 130.7550201416016 35.30261993408203 L 130.2550201416016 35.30261993408203 Z M 146.2978820800781 29.10951614379883 L 146.2979125976562 29.60955047607422 L 146.2985229492188 39.46349334716797 L 146.2985534667969 39.96345520019531 L 146.7985229492188 39.96345520019531 L 172.5731506347656 39.96345520019531 L 173.0733642578125 39.96345520019531 L 173.0731506347656 39.4632453918457 L 173.0688934326172 29.60930442810059 L 173.0686798095703 29.10951614379883 L 172.5688934326172 29.10951614379883 L 146.7979125976562 29.10951614379883 L 146.2978820800781 29.10951614379883 Z" stroke="none"/>
      <path d="M 146.7971801757812 24.54277801513672 C 144.0056915283203 24.54277801513672 141.7346343994141 26.81569671630859 141.7346343994141 29.60951232910156 L 141.7346343994141 30.73646545410156 L 130.7535858154297 30.73646545410156 C 127.9620666503906 30.73646545410156 125.6910247802734 33.00938415527344 125.6910247802734 35.80318450927734 L 125.6910247802734 110.0768280029297 C 125.6910247802734 112.8706207275391 127.9620666503906 115.1435546875 130.7535858154297 115.1435546875 L 188.6103210449219 115.1435546875 C 191.4018249511719 115.1435546875 193.6728973388672 112.8706207275391 193.6728973388672 110.0768280029297 L 193.6728973388672 35.80446624755859 C 193.6693420410156 33.01045989990234 191.3990020751953 30.73728179931641 188.6117553710938 30.73646545410156 L 177.6307373046875 30.73646545410156 L 177.6307373046875 29.60951232910156 C 177.6307373046875 26.81569671630859 175.3596801757812 24.54277801513672 172.5681762695312 24.54277801513672 L 146.7971801757812 24.54277801513672 M 173.5735931396484 40.46344757080078 L 145.798583984375 40.46344757080078 L 145.7978515625 28.60951232910156 L 173.5684661865234 28.60951232910156 L 173.5735931396484 40.46344757080078 M 172.5696105957031 44.52547454833984 C 175.3611297607422 44.52547454833984 177.6321868896484 42.25442504882812 177.6321868896484 39.46292877197266 L 177.6321868896484 34.8026123046875 L 189.6132202148438 34.8026123046875 L 189.6117248535156 111.0762481689453 L 129.7550201416016 111.0762481689453 L 129.7550201416016 34.8026123046875 L 141.7360687255859 34.8026123046875 L 141.7360687255859 39.46292877197266 C 141.7360687255859 42.25442504882812 144.0071258544922 44.52547454833984 146.7986145019531 44.52547454833984 L 172.5696105957031 44.52547454833984 M 146.7971801757812 23.54277801513672 L 172.5681762695312 23.54277801513672 C 175.9109344482422 23.54277801513672 178.6307373046875 26.26693725585938 178.6307373046875 29.60951232910156 L 178.6307373046875 29.73646545410156 L 188.6117553710938 29.73646545410156 L 188.6103210449219 29.7364501953125 C 191.9530639648438 29.7364501953125 194.6686248779297 32.45626068115234 194.6728973388672 35.80318450927734 L 194.6728973388672 110.0768280029297 C 194.6728973388672 113.4152145385742 191.9528961181641 116.1435546875 188.6103210449219 116.1435546875 L 130.7535858154297 116.1435546875 C 127.4108428955078 116.1435546875 124.6910247802734 113.4152145385742 124.6910247802734 110.0768280029297 L 124.6910247802734 35.80318450927734 C 124.6910247802734 32.45626068115234 127.4110107421875 29.73646545410156 130.7535858154297 29.73646545410156 L 140.7346343994141 29.73646545410156 L 140.7346343994141 29.60951232910156 C 140.7346343994141 26.26693725585938 143.4502410888672 23.54277801513672 146.7971801757812 23.54277801513672 Z M 146.7979125976562 29.60951232910156 L 146.7985229492188 39.46344757080078 L 172.5731506347656 39.46344757080078 L 172.5688934326172 29.60951232910156 L 146.7979125976562 29.60951232910156 Z M 172.5696105957031 45.52547454833984 L 146.7986145019531 45.52547454833984 C 143.4558715820312 45.52547454833984 140.7360687255859 42.80547332763672 140.7360687255859 39.46292877197266 L 140.7360687255859 35.8026123046875 L 130.7550201416016 35.8026123046875 L 130.7550201416016 110.0762481689453 L 188.6117553710938 110.0762481689453 L 188.6132049560547 35.8026123046875 L 178.6321868896484 35.8026123046875 L 178.6321868896484 39.46292877197266 C 178.6321868896484 42.80567169189453 175.9121856689453 45.52547454833984 172.5696105957031 45.52547454833984 Z" stroke="none" fill="#fff"/>
    </g>
    <g id="Path_639" data-name="Path 639" transform="translate(-45.68 -139.212)" fill="#ee4437" stroke-linecap="square">
      <path d="M 186.0975036621094 206.6858825683594 C 185.4151306152344 206.6858825683594 184.7801513671875 206.4229431152344 184.3095092773438 205.9455108642578 L 181.7480621337891 203.3840179443359 C 181.2680816650391 202.9043579101562 181.0040893554688 202.2682800292969 181.0045776367188 201.5928497314453 C 181.0050811767578 200.9191284179688 181.2688903808594 200.2854919433594 181.7474212646484 199.8086853027344 C 182.2274475097656 199.3286590576172 182.8632049560547 199.0646057128906 183.5380706787109 199.0646057128906 C 183.5381011962891 199.0646057128906 183.5380706787109 199.0646057128906 183.5381011962891 199.0646057128906 C 184.2130126953125 199.0646057128906 184.8487396240234 199.3286285400391 185.3281860351562 199.8080596923828 L 185.8196563720703 200.2995452880859 L 186.1604309082031 200.6403656005859 L 186.5135192871094 200.3123168945312 L 192.1300354003906 195.0944519042969 L 192.1310119628906 195.0951385498047 L 192.4290466308594 194.8170471191406 C 192.8978576660156 194.3789978027344 193.5095977783203 194.1377410888672 194.1515655517578 194.1377410888672 C 194.8612976074219 194.1377410888672 195.5177001953125 194.4239196777344 195.9998321533203 194.9435577392578 C 196.4606018066406 195.4401245117188 196.7008666992188 196.0860137939453 196.6763763427734 196.7622222900391 C 196.6518707275391 197.4384460449219 196.3653411865234 198.0641937255859 195.8695526123047 198.5242004394531 L 187.8202056884766 206.0061645507812 C 187.3542633056641 206.4453277587891 186.7433776855469 206.6858825683594 186.0975036621094 206.6858825683594 Z" stroke="none"/>
      <path d="M 194.1515655517578 194.6377410888672 C 193.6367797851562 194.6377410888672 193.1462860107422 194.8311614990234 192.7704162597656 195.1823883056641 L 192.1745910644531 195.7387390136719 L 192.1726226806641 195.7373504638672 L 186.1476593017578 201.334716796875 L 184.9746398925781 200.1616058349609 C 184.5896301269531 199.7766265869141 184.0794677734375 199.5645904541016 183.5381011962891 199.5645904541016 C 182.9967498779297 199.5645904541016 182.4865875244141 199.776611328125 182.100341796875 200.1628875732422 C 181.716552734375 200.5452728271484 181.5049896240234 201.0532531738281 181.5045776367188 201.5932159423828 C 181.5041809082031 202.1348876953125 181.7161407470703 202.6452331542969 182.1016082763672 203.0304565429688 L 184.6655883789062 205.5944976806641 C 185.0415191650391 205.9758453369141 185.550048828125 206.1858825683594 186.0975036621094 206.1858825683594 C 186.6153717041016 206.1858825683594 187.1044616699219 205.9936981201172 187.4747009277344 205.6446990966797 L 187.4797973632812 205.6399383544922 L 195.5294799804688 198.1576690673828 C 195.9271850585938 197.7886505126953 196.1570434570312 197.2866516113281 196.1766967773438 196.7441253662109 C 196.1963653564453 196.2011566162109 196.0034027099609 195.6824951171875 195.63330078125 195.2836303710938 C 195.2468414306641 194.8671264648438 194.7206268310547 194.6377410888672 194.1515655517578 194.6377410888672 M 194.1515655517578 193.6377410888672 C 194.9619445800781 193.6377410888672 195.7707061767578 193.9614868164062 196.3663635253906 194.6034851074219 C 197.506103515625 195.8317718505859 197.4380187988281 197.7510070800781 196.2096252441406 198.8907318115234 L 188.1606140136719 206.3723907470703 C 187.5805053710938 206.919189453125 186.8386535644531 207.1858825683594 186.0975036621094 207.1858825683594 C 185.3215637207031 207.1858825683594 184.5420837402344 206.8936767578125 183.9534301757812 206.2965087890625 L 181.3945007324219 203.7375640869141 C 180.2079467773438 202.5517883300781 180.2079467773438 200.6367797851562 181.3945007324219 199.4544982910156 C 182.5810394287109 198.2679748535156 184.4951934814453 198.2679901123047 185.6817321777344 199.4544982910156 L 186.1732177734375 199.9460144042969 L 192.0874328613281 194.4515533447266 L 192.0876770019531 194.4517211914062 C 192.669921875 193.9076690673828 193.4114074707031 193.6377410888672 194.1515655517578 193.6377410888672 Z" stroke="none" fill="#fff"/>
    </g>
    <g id="Path_640" data-name="Path 640" transform="translate(-45.68 -222.648)" fill="#ee4437" stroke-linecap="square">
      <path d="M 186.0975036621094 308.6357421875 C 185.4185333251953 308.6357421875 184.7830963134766 308.3723449707031 184.3082580566406 307.8941040039062 L 181.7480621337891 305.3338623046875 C 180.7615509033203 304.3473815917969 180.7618408203125 302.7391357421875 181.7486877441406 301.7487182617188 C 182.2263488769531 301.2745056152344 182.8625183105469 301.0122680664062 183.5381011962891 301.0122680664062 C 184.2136993408203 301.0122680664062 184.8498687744141 301.2745056152344 185.3294525146484 301.7506408691406 L 185.8183898925781 302.2431335449219 L 186.1593017578125 302.5865478515625 L 186.513671875 302.2570495605469 L 192.2569732666016 296.9173278808594 L 192.2577362060547 296.9174194335938 L 192.4290466308594 296.7575988769531 C 192.8945922851562 296.3226013183594 193.5030059814453 296.0830078125 194.1421966552734 296.0830078125 C 194.8459014892578 296.0830078125 195.5225372314453 296.3794250488281 195.9986114501953 296.896240234375 C 196.4610137939453 297.3928833007812 196.7010498046875 298.0375366210938 196.6763458251953 298.71337890625 C 196.6516418457031 299.3889770507812 196.3651123046875 300.0142517089844 195.8695526123047 300.4740295410156 L 187.8202056884766 307.9560241699219 C 187.3542633056641 308.3952026367188 186.7433776855469 308.6357421875 186.0975036621094 308.6357421875 Z" stroke="none"/>
      <path d="M 194.1421966552734 296.5830078125 C 193.6302032470703 296.5830078125 193.1430206298828 296.7747802734375 192.7704010009766 297.1229553222656 L 192.4280242919922 297.4425964355469 L 192.4265289306641 297.4424133300781 L 186.1453704833984 303.2821960449219 L 184.9743347167969 302.1026306152344 C 184.5893707275391 301.7218933105469 184.0794982910156 301.5122680664062 183.5381011962891 301.5122680664062 C 182.9960632324219 301.5122680664062 182.4856109619141 301.722412109375 182.1005096435547 302.1040344238281 C 181.3102264404297 302.899658203125 181.3104858398438 304.189208984375 182.1016082763672 304.9803161621094 L 184.6630554199219 307.5418090820312 C 185.0433349609375 307.9248046875 185.5527648925781 308.1357421875 186.0975036621094 308.1357421875 C 186.6153717041016 308.1357421875 187.1044616699219 307.9435424804688 187.4747009277344 307.5945434570312 L 187.4797973632812 307.5897827148438 L 195.5294799804688 300.1075134277344 C 195.927001953125 299.7386779785156 196.1568603515625 299.237060546875 196.1766815185547 298.6951293945312 C 196.1965026855469 298.1528930664062 196.0039520263672 297.6357421875 195.6344909667969 297.2389221191406 L 195.630859375 297.2350158691406 C 195.2435607910156 296.8145751953125 194.7148742675781 296.5830078125 194.1421966552734 296.5830078125 M 194.1421966552734 295.5830383300781 C 194.956787109375 295.5830383300781 195.7702789306641 295.910400390625 196.3663635253906 296.5574951171875 C 197.506103515625 297.7816162109375 197.4380187988281 299.7008666992188 196.2096252441406 300.840576171875 L 188.1606140136719 308.3222351074219 C 187.5805053710938 308.8690490722656 186.8386535644531 309.1357421875 186.0975036621094 309.1357421875 C 185.3215637207031 309.1357421875 184.5420837402344 308.8392639160156 183.9534301757812 308.2463684082031 L 181.3945007324219 305.6874084472656 C 180.2079467773438 304.5009155273438 180.2079467773438 302.5866088867188 181.3945007324219 301.3958129882812 C 182.5810394287109 300.2177734375 184.4951934814453 300.2178039550781 185.6817321777344 301.3958129882812 L 186.1732177734375 301.890869140625 L 192.0874328613281 296.3922424316406 L 192.0876770019531 296.3922729492188 C 192.6670989990234 295.8508605957031 193.4050750732422 295.5830383300781 194.1421966552734 295.5830383300781 Z" stroke="none" fill="#fff"/>
    </g>
    <g id="Path_641" data-name="Path 641" transform="translate(-45.68 -304.851)" fill="#ee4437" stroke-linecap="square">
      <path d="M 186.0975036621094 409.0806884765625 C 185.4178314208984 409.0806884765625 184.7828369140625 408.8162231445312 184.3095245361328 408.3360595703125 L 181.7480621337891 405.7745666503906 C 181.26708984375 405.2922058105469 181.0028686523438 404.6524353027344 181.0045928955078 403.9736022949219 C 181.0063018798828 403.3005981445312 181.2698822021484 402.6692199707031 181.7467803955078 402.1957397460938 C 182.2269287109375 401.71728515625 182.8628692626953 401.4541625976562 183.5381011962891 401.4541625976562 C 184.2133483886719 401.4541625976562 184.8493041992188 401.71728515625 185.3288116455078 402.1950988769531 L 185.8181457519531 402.6886596679688 L 186.1591796875 403.0326538085938 L 186.5138092041016 402.7026977539062 L 192.2840728759766 397.3336791992188 L 192.2841491699219 397.3336791992188 L 192.4283599853516 397.1996459960938 C 192.8973999023438 396.7630004882812 193.5091094970703 396.5225524902344 194.1507873535156 396.5225524902344 C 194.8624877929688 396.5225524902344 195.5185546875 396.8100891113281 195.9981384277344 397.3321838378906 C 196.9525146484375 398.3572387695312 196.8934936523438 399.9654235839844 195.8688659667969 400.9196472167969 L 187.8202056884766 408.4009704589844 C 187.3542785644531 408.8401489257812 186.7433929443359 409.0806884765625 186.0975036621094 409.0806884765625 Z" stroke="none"/>
      <path d="M 194.1507873535156 397.0225524902344 C 193.6359558105469 397.0225524902344 193.1452484130859 397.2154235839844 192.76904296875 397.5656127929688 L 186.1451721191406 403.7286682128906 L 184.9739074707031 402.5473022460938 C 184.5890045166016 402.164794921875 184.0792083740234 401.9541625976562 183.5381011962891 401.9541625976562 C 182.9960784912109 401.9541625976562 182.4854888916016 402.1654968261719 182.0990600585938 402.5505676269531 C 181.7170715332031 402.9298095703125 181.5059509277344 403.4356384277344 181.5045928955078 403.974853515625 C 181.5032196044922 404.5199584960938 181.7156066894531 405.0338745117188 182.1016082763672 405.4210205078125 L 184.6656036376953 407.9850463867188 C 185.0442199707031 408.369140625 185.552734375 408.5806884765625 186.0975036621094 408.5806884765625 C 186.6153869628906 408.5806884765625 187.1044769287109 408.3884887695312 187.4746856689453 408.0395202636719 L 187.4797973632812 408.0347290039062 L 195.5281066894531 400.5537414550781 C 196.3509979248047 399.7874145507812 196.3987274169922 398.4961853027344 195.6344909667969 397.6753845214844 L 195.6298980712891 397.67041015625 C 195.2461395263672 397.2526245117188 194.7208404541016 397.0225524902344 194.1507873535156 397.0225524902344 M 194.1507873535156 396.0225524902344 C 194.9625244140625 396.0225524902344 195.7723693847656 396.3472900390625 196.3663635253906 396.9939575195312 C 197.506103515625 398.2180480957031 197.4380187988281 400.1415710449219 196.2096252441406 401.2855529785156 L 188.1606140136719 408.7671813964844 C 187.5805053710938 409.3140258789062 186.8386535644531 409.5806884765625 186.0975036621094 409.5806884765625 C 185.3215637207031 409.5806884765625 184.5420837402344 409.2842407226562 183.9534301757812 408.6870422363281 L 181.3945007324219 406.1281127929688 C 180.2079467773438 404.9381408691406 180.2079467773438 403.0189208984375 181.3945007324219 401.8409118652344 C 182.5810394287109 400.6585693359375 184.4951934814453 400.6585693359375 185.6817321777344 401.8409118652344 L 186.1732177734375 402.3366394042969 L 192.0876770019531 396.8336791992188 C 192.6693267822266 396.2922058105469 193.4108276367188 396.0225524902344 194.1507873535156 396.0225524902344 Z" stroke="none" fill="#fff"/>
    </g>
    <g id="Path_642" data-name="Path 642" transform="translate(-143.934 -156.098)" fill="#14142b" stroke-linecap="square">
      <path d="M 322.7254943847656 219.8367309570312 L 303.5851745605469 219.8367309570312 C 302.1905822753906 219.8367309570312 301.0559997558594 218.7002716064453 301.0559997558594 217.3033599853516 C 301.0559997558594 215.9064636230469 302.1905822753906 214.7700042724609 303.5851745605469 214.7700042724609 L 322.7254943847656 214.7700042724609 C 324.1201171875 214.7700042724609 325.2546997070312 215.9064636230469 325.2546997070312 217.3033599853516 C 325.2546997070312 218.7002716064453 324.1201171875 219.8367309570312 322.7254943847656 219.8367309570312 Z" stroke="none"/>
      <path d="M 303.5851745605469 215.2700042724609 C 302.4662780761719 215.2700042724609 301.5559997558594 216.1821594238281 301.5559997558594 217.3033599853516 C 301.5559997558594 218.424560546875 302.4662780761719 219.3367309570312 303.5851745605469 219.3367309570312 L 322.7254943847656 219.3367309570312 C 323.8443908691406 219.3367309570312 324.7546997070312 218.424560546875 324.7546997070312 217.3033599853516 C 324.7546997070312 216.1821594238281 323.8443908691406 215.2700042724609 322.7254943847656 215.2700042724609 L 303.5851745605469 215.2700042724609 M 303.5851745605469 214.2700042724609 L 322.7254943847656 214.2700042724609 C 324.3993530273438 214.2700042724609 325.7546997070312 215.6260375976562 325.7546997070312 217.3033599853516 C 325.7546997070312 218.9771423339844 324.3985595703125 220.3367309570312 322.7254943847656 220.3367309570312 L 303.5851745605469 220.3367309570312 C 301.9113464355469 220.3367309570312 300.5559997558594 218.9764251708984 300.5559997558594 217.3033599853516 C 300.5559997558594 215.6253204345703 301.912109375 214.2700042724609 303.5851745605469 214.2700042724609 Z" stroke="none" fill="#fff"/>
    </g>
    <g id="Path_643" data-name="Path 643" transform="translate(-143.918 -239.554)" fill="#14142b" stroke-linecap="square">
      <path d="M 322.7055358886719 321.7984008789062 L 303.5652160644531 321.7984008789062 C 302.1706237792969 321.7984008789062 301.0360412597656 320.6637878417969 301.0360412597656 319.2691650390625 C 301.0360412597656 317.8745727539062 302.1706237792969 316.739990234375 303.5652160644531 316.739990234375 L 322.7055358886719 316.739990234375 C 324.1001586914062 316.739990234375 325.2347412109375 317.8745727539062 325.2347412109375 319.2691650390625 C 325.2347412109375 320.6637878417969 324.1001586914062 321.7984008789062 322.7055358886719 321.7984008789062 Z" stroke="none"/>
      <path d="M 303.5652160644531 317.239990234375 C 302.4463195800781 317.239990234375 301.5360412597656 318.1502685546875 301.5360412597656 319.2691650390625 C 301.5360412597656 320.3880920410156 302.4463195800781 321.2984008789062 303.5652160644531 321.2984008789062 L 322.7055358886719 321.2984008789062 C 323.8244323730469 321.2984008789062 324.7347412109375 320.3880920410156 324.7347412109375 319.2691650390625 C 324.7347412109375 318.1502685546875 323.8244323730469 317.239990234375 322.7055358886719 317.239990234375 L 303.5652160644531 317.239990234375 M 303.5652160644531 316.239990234375 L 322.7055358886719 316.239990234375 C 324.378662109375 316.239990234375 325.7347412109375 317.591064453125 325.7347412109375 319.2691650390625 C 325.7347412109375 320.947265625 324.3786010742188 322.2984008789062 322.7055358886719 322.2984008789062 L 303.5652160644531 322.2984008789062 C 301.8913879394531 322.2984008789062 300.5360412597656 320.946533203125 300.5360412597656 319.2691650390625 C 300.5360412597656 317.591064453125 301.8921508789062 316.239990234375 303.5652160644531 316.239990234375 Z" stroke="none" fill="#fff"/>
    </g>
    <g id="Path_644" data-name="Path 644" transform="translate(-143.918 -322.969)" fill="#14142b" stroke-linecap="square">
      <path d="M 322.7055358886719 423.7225036621094 L 303.5652160644531 423.7225036621094 C 302.1706237792969 423.7225036621094 301.0360412597656 422.5860595703125 301.0360412597656 421.189208984375 C 301.0360412597656 419.7945861816406 302.1706237792969 418.6599731445312 303.5652160644531 418.6599731445312 L 322.7055358886719 418.6599731445312 C 324.1001586914062 418.6599731445312 325.2347412109375 419.7945861816406 325.2347412109375 421.189208984375 C 325.2347412109375 422.5860595703125 324.1001586914062 423.7225036621094 322.7055358886719 423.7225036621094 Z" stroke="none"/>
      <path d="M 303.5652160644531 419.1599731445312 C 302.4463195800781 419.1599731445312 301.5360412597656 420.0702819824219 301.5360412597656 421.189208984375 C 301.5360412597656 422.3103637695312 302.4463195800781 423.2225036621094 303.5652160644531 423.2225036621094 L 322.7055358886719 423.2225036621094 C 323.8244323730469 423.2225036621094 324.7347412109375 422.3103637695312 324.7347412109375 421.189208984375 C 324.7347412109375 420.0702819824219 323.8244323730469 419.1599731445312 322.7055358886719 419.1599731445312 L 303.5652160644531 419.1599731445312 M 303.5652160644531 418.1599731445312 L 322.7055358886719 418.1599731445312 C 324.378662109375 418.1599731445312 325.7347412109375 419.5118713378906 325.7347412109375 421.189208984375 C 325.7347412109375 422.8714599609375 324.3786010742188 424.2225036621094 322.7055358886719 424.2225036621094 L 303.5652160644531 424.2225036621094 C 301.8913879394531 424.2225036621094 300.5360412597656 422.8664855957031 300.5360412597656 421.189208984375 C 300.5360412597656 419.5110778808594 301.8921508789062 418.1599731445312 303.5652160644531 418.1599731445312 Z" stroke="none" fill="#fff"/>
    </g>
  </g>
</svg>
