<svg xmlns="http://www.w3.org/2000/svg" width="105.278" height="104.757" viewBox="0 0 105.278 104.757">
  <g id="noun-pie-chart-1928782" transform="translate(-75.04 -6.452)">
    <path id="Path_744" data-name="Path 744" d="M348.814,48.56h37.942a2.082,2.082,0,0,0,2.094-2.073,40.189,40.189,0,0,0-11.7-28.31l-.021-.021a40.112,40.112,0,0,0-28.31-11.7,2.1,2.1,0,0,0-2.094,2.094V46.487a2.082,2.082,0,0,0,2.094,2.073Zm2.094-18.091,15.327-15.327a36.192,36.192,0,0,1,6.345,4.481L350.909,41.315Zm19.6,13.9L381.982,32.9A35.6,35.6,0,0,1,384.6,44.373ZM380.056,28.9,364.582,44.373H353.757l21.8-21.8a37.272,37.272,0,0,1,4.5,6.323Zm-17.84-15.662L350.909,24.544V10.7a34.936,34.936,0,0,1,11.307,2.534Z" transform="translate(-219.669 0)" fill="#ee4437"/>
    <path id="Path_745" data-name="Path 745" d="M152.617,114.24a29.321,29.321,0,0,0-11.328,2.408H117.21V80.843a2.118,2.118,0,0,0-2.115-2.094,39.776,39.776,0,0,0-28.35,11.726,40.05,40.05,0,0,0,28.329,68.344,39.86,39.86,0,0,0,13.9-2.45,27.7,27.7,0,1,0,23.639-42.128Zm-37.543,40.39A35.845,35.845,0,0,1,113.021,83v35.784a2.029,2.029,0,0,0,1.989,2.052h19.682a27.7,27.7,0,0,0-7.622,31.743,36.128,36.128,0,0,1-12,2.052Zm37.543,10.825a23.515,23.515,0,1,1,23.515-23.515A23.521,23.521,0,0,1,152.617,165.455Z" transform="translate(0 -58.456)" fill="#14142b"/>
    <text id="_" data-name="$" transform="translate(151.275 91.945)" fill="#14142b" font-size="27" font-family="UntitledSans-Bold, Untitled Sans" font-weight="700"><tspan x="-9" y="0">$</tspan></text>
  </g>
</svg>
