<svg xmlns="http://www.w3.org/2000/svg" width="50.581" height="55.209" viewBox="0 0 50.581 55.209">
  <g id="noun-rocket-launch-4924677" transform="translate(-121.612 -25.732)">
    <path id="Path_610" data-name="Path 610" d="M170.594,74.059,161.341,64.8h0a2.795,2.795,0,0,0,0-3.955l-1.866-1.875a19.554,19.554,0,0,0-12.1-27.235,11.029,11.029,0,0,0-5.174-5.4.936.936,0,0,0-.836,0,11.028,11.028,0,0,0-5.174,5.4,19.61,19.61,0,1,0,14.028,36.488l1.873,1.866a2.794,2.794,0,0,0,3.956,0l0,0,9.254,9.254a3.737,3.737,0,1,0,5.285-5.285ZM159.541,50.538a17.644,17.644,0,0,1-3.749,10.872,3.184,3.184,0,0,0-.523-.317,4.1,4.1,0,0,0-2.179-.357,3.375,3.375,0,0,0-4.366-2.817,4.091,4.091,0,0,0-1.943-1.531,4.049,4.049,0,0,0-2.3-.14,8.936,8.936,0,0,0,.057-2.129,2.8,2.8,0,0,0,1.92-2.647V50.365a2.8,2.8,0,0,0,1.7-1.7H153a.934.934,0,0,0,.934-.934,6.546,6.546,0,0,0-5.607-6.466v-5.02a11.2,11.2,0,0,0-.239-2.3,17.769,17.769,0,0,1,11.452,16.594Zm-22.426-8.41V36.521h9.344V47.734a.935.935,0,0,1-.934.934h-7.475a.935.935,0,0,1-.934-.934Zm11.213,1.028a4.686,4.686,0,0,1,3.644,3.644h-3.644Zm-9.344,7.382h5.607v.934a.935.935,0,0,1-.934.934h-3.738a.935.935,0,0,1-.934-.934ZM141,56.416a6.871,6.871,0,0,1-.108-2.141h1.785a6.877,6.877,0,0,1-.108,2.142,5.987,5.987,0,0,1-.785,1.962A6.01,6.01,0,0,1,141,56.416Zm.786-28.181a9.131,9.131,0,0,1,4.518,6.418h-9.036a9.131,9.131,0,0,1,4.518-6.418Zm-6.3,5.709a11.2,11.2,0,0,0-.239,2.3v5.02a6.546,6.546,0,0,0-5.607,6.466.934.934,0,0,0,.934.934h4.844a2.8,2.8,0,0,0,1.7,1.7v1.107a2.8,2.8,0,0,0,1.919,2.647,8.921,8.921,0,0,0,.058,2.13,4,4,0,0,0-4.242,1.671,3.375,3.375,0,0,0-4.366,2.816,4.114,4.114,0,0,0-2.175.355,3.249,3.249,0,0,0-.528.32,17.712,17.712,0,0,1,7.7-27.466ZM135.246,46.8H131.6a4.686,4.686,0,0,1,3.644-3.644Zm-6.23,16.041c.031-.018.056-.043.088-.058a2.7,2.7,0,0,1,2.056.023.935.935,0,0,0,1.237-1.153,1.528,1.528,0,0,1,2.321-1.745.934.934,0,0,0,1.4-.439,2.4,2.4,0,0,1,1.318-1.324,2.341,2.341,0,0,1,2.375.524h0a7.153,7.153,0,0,0,1.309,1.873.935.935,0,0,0,1.329,0,7.146,7.146,0,0,0,1.31-1.873h0a2.341,2.341,0,0,1,2.375-.524,2.394,2.394,0,0,1,1.317,1.324.935.935,0,0,0,1.4.439,1.528,1.528,0,0,1,2.321,1.745.935.935,0,0,0,1.237,1.153,2.714,2.714,0,0,1,2.061-.021c.03.014.055.04.084.056a17.686,17.686,0,0,1-25.542,0Zm24.4,5.929L151.94,67.3a19.738,19.738,0,0,0,6.608-6.608l1.473,1.479a.926.926,0,0,1,0,1.313l-5.289,5.289h0a.947.947,0,0,1-1.314,0Zm15.855,9.253h0a1.913,1.913,0,0,1-2.643,0l-9.25-9.25,2.643-2.643,9.25,9.251h0a1.868,1.868,0,0,1,0,2.643Z" transform="translate(0)" fill="#ee4437" stroke="#ee4437" stroke-width="1"/>
    <path id="Path_611" data-name="Path 611" d="M282.8,154.357a2.806,2.806,0,1,0-1.981-.822,2.8,2.8,0,0,0,1.981.822Zm0-3.738a.934.934,0,1,1-.934.934A.934.934,0,0,1,282.8,150.62Z" transform="translate(-141.017 -109.426)" fill="#ee4437" stroke="#ee4437" stroke-width="1"/>
  </g>
</svg>
