<svg xmlns="http://www.w3.org/2000/svg" width="41.8" height="44.494" viewBox="0 0 41.8 44.494">
  <g id="noun-login-4163488" transform="translate(-139.621 -56.006)">
    <path id="Path_207" data-name="Path 207" d="M181.136,89.376a22.247,22.247,0,1,1,0-22.247,2.127,2.127,0,0,1-1.849,3.191,2.085,2.085,0,0,1-1.828-1.057,18.16,18.16,0,1,0-4.109,22.942,18.352,18.352,0,0,0,4.109-4.929,2.086,2.086,0,0,1,2.649-.89,2.135,2.135,0,0,1,1.029,2.99Z" transform="translate(0)" fill="#ee4437"/>
    <path id="Path_208" data-name="Path 208" d="M242.9,184.5a2.218,2.218,0,0,1,2.218-2.218h19.4l-4.5-4.5h0a2.218,2.218,0,1,1,3.163-3.108l8.266,8.259a2.232,2.232,0,0,1,0,3.142l-8.294,8.287a2.225,2.225,0,0,1-3.712-2.163,2.163,2.163,0,0,1,.6-1l4.471-4.477h-19.4a2.209,2.209,0,0,1-1.571-.646,2.239,2.239,0,0,1-.647-1.571Z" transform="translate(-93.021 -106.251)" fill="#ee4437"/>
  </g>
</svg>
