<svg xmlns="http://www.w3.org/2000/svg" width="45.804" height="45.796" viewBox="0 0 45.804 45.796">
  <g id="noun-loan-1538281" transform="translate(-69.75 0.25)">
    <path id="Path_200" data-name="Path 200" d="M77.077,302.648H71.415A1.416,1.416,0,0,1,70,301.232V281.415A1.416,1.416,0,0,1,71.415,280h5.662a1.416,1.416,0,0,1,1.416,1.415v19.817A1.416,1.416,0,0,1,77.077,302.648Zm-4.246-2.831h2.831V282.831H72.831Z" transform="translate(0 -257.352)" fill="#ee4437" stroke="#ee4437" stroke-width="0.5"/>
    <path id="Path_201" data-name="Path 201" d="M177.77,315.849H157.5v-2.831h20.27a4.277,4.277,0,0,0,2.587-.892l11.973-9.311a1.42,1.42,0,0,0,.546-.957,1.354,1.354,0,0,0-.283-1.014,1.423,1.423,0,0,0-.962-.555,1.448,1.448,0,0,0-1.014.283L180.533,308.4a8.449,8.449,0,0,1-5.2,1.792h-9.342v-2.831h9.342a5.578,5.578,0,0,0,3.454-1.2l10.086-7.822a4.178,4.178,0,0,1,3.106-.861,4.23,4.23,0,0,1,2.848,1.622,4.166,4.166,0,0,1,.861,3.1,4.23,4.23,0,0,1-1.622,2.848L182.1,314.36a7.142,7.142,0,0,1-4.326,1.489Z" transform="translate(-80.423 -273.384)" fill="#ee4437" stroke="#ee4437" stroke-width="0.5"/>
    <path id="Path_202" data-name="Path 202" d="M149.908,326.324a1.415,1.415,0,1,1,0-2.831,7.09,7.09,0,0,0,6.936-5.659l-15.429,0a1.415,1.415,0,1,1,0-2.831l16.986,0a1.416,1.416,0,0,1,1.415,1.416,9.917,9.917,0,0,1-9.908,9.905Z" transform="translate(-64.338 -289.521)" fill="#ee4437" stroke="#ee4437" stroke-width="0.5"/>
    <path id="Path_203" data-name="Path 203" d="M354.246,119.155h-2.831a1.416,1.416,0,0,1,0-2.831h2.831a1.415,1.415,0,0,0,0-2.831,4.246,4.246,0,0,1,0-8.493h2.831a1.415,1.415,0,0,1,0,2.831h-2.831a1.416,1.416,0,0,0,0,2.831,4.246,4.246,0,0,1,0,8.493Z" transform="translate(-257.352 -96.507)" fill="#ee4437" stroke="#ee4437" stroke-width="0.5"/>
    <path id="Path_204" data-name="Path 204" d="M386.415,75.662A1.416,1.416,0,0,1,385,74.246V71.415a1.415,1.415,0,1,1,2.831,0v2.831A1.416,1.416,0,0,1,386.415,75.662Z" transform="translate(-289.521 -64.338)" fill="#ee4437" stroke="#ee4437" stroke-width="0.5"/>
    <path id="Path_205" data-name="Path 205" d="M386.415,250.662A1.416,1.416,0,0,1,385,249.246v-2.831a1.415,1.415,0,0,1,2.831,0v2.831A1.416,1.416,0,0,1,386.415,250.662Z" transform="translate(-289.521 -225.183)" fill="#ee4437" stroke="#ee4437" stroke-width="0.5"/>
    <path id="Path_206" data-name="Path 206" d="M212.574,22.648a1.416,1.416,0,0,1-1.3-.861,15.571,15.571,0,1,1,28.593,0,1.416,1.416,0,0,1-2.6-1.11,12.981,12.981,0,0,0,1.047-5.107,12.739,12.739,0,1,0-25.479,0,12.964,12.964,0,0,0,1.047,5.107,1.415,1.415,0,0,1-1.3,1.97Z" transform="translate(-128.674)" fill="#ee4437" stroke="#ee4437" stroke-width="0.5"/>
  </g>
</svg>
