<svg xmlns="http://www.w3.org/2000/svg" width="84.548" height="92.601" viewBox="0 0 84.548 92.601">
  <g id="noun-contarct-4208227" transform="translate(-104.949 -11.664)">
    <path id="Path_689" data-name="Path 689" d="M113,11.665a8.082,8.082,0,0,0-8.056,8.051V25.75a2.013,2.013,0,0,0,2.024,2.021H117.03v2a2.013,2.013,0,1,0,4.025,0V19.716a7.937,7.937,0,0,0-1.124-4.025H173.39a3.973,3.973,0,0,1,4.025,4.025V25.75a2.013,2.013,0,1,0,4.025,0V19.716a8.079,8.079,0,0,0-8.052-8.052Zm0,4.025a3.973,3.973,0,0,1,4.025,4.025v4.029h-8.052V19.716A3.973,3.973,0,0,1,113,15.69ZM179.41,31.765a2.018,2.018,0,0,0-1.993,2.037V88.158h-46.3a2.011,2.011,0,0,0-2,2V96.21a4.027,4.027,0,1,1-8.055,0v-14.1a2.013,2.013,0,1,0-4.025,0v14.1a8.085,8.085,0,0,0,8.055,8.055h56.356a8.086,8.086,0,0,0,8.056-8.056V90.162a2.014,2.014,0,0,0-2-2h-6.051V33.8a2.011,2.011,0,0,0-2.032-2.037ZM133.137,92.182h52.334v4.025a3.98,3.98,0,0,1-4.029,4.029H132.008a7.945,7.945,0,0,0,1.128-4.03Z" transform="translate(0)" fill="#14142b" fill-rule="evenodd"/>
    <path id="Path_690" data-name="Path 690" d="M119.058,151.688A14.062,14.062,0,0,0,108.985,175.6v18.344a2.013,2.013,0,0,0,2.913,1.812l7.159-3.581,7.147,3.581a2.013,2.013,0,0,0,2.914-1.812V175.61a14.07,14.07,0,0,0-10.061-23.923Zm0,4.03a10.058,10.058,0,1,1-10.072,10.056A10.024,10.024,0,0,1,119.058,155.718Zm-6.046,22.759a13.9,13.9,0,0,0,12.081,0v12.215l-5.142-2.571a2.011,2.011,0,0,0-1.8,0l-5.142,2.571Z" transform="translate(-0.006 -115.865)" fill="#ee4437" fill-rule="evenodd"/>
    <path id="Path_691" data-name="Path 691" d="M282.048,81.668a2,2,0,0,0-1.934,2.091v1.934h-2.091a6.039,6.039,0,0,0,0,12.077h2.091V101.8h-2.091a1.863,1.863,0,0,1-1.934-1.934,2.013,2.013,0,1,0-4.026,0,6.053,6.053,0,0,0,5.96,5.96h2.091v2.091c-.322,2.9,4.348,2.9,4.026,0v-2.091h1.934a6.039,6.039,0,1,0,0-12.077h-1.934V89.719h1.934a2.027,2.027,0,0,1,2.091,2.092c0,2.577,4.026,2.577,4.026,0a6.113,6.113,0,0,0-6.117-6.117h-1.934V83.759A2.128,2.128,0,0,0,282.048,81.668Zm-4.025,8.051h2.091v4.026h-2.091a1.864,1.864,0,0,1-1.934-1.934A2,2,0,0,1,278.022,89.719Zm6.117,8.052h1.934a2.027,2.027,0,0,1,2.091,2.091,1.906,1.906,0,0,1-2.091,1.934h-1.934Zm-14.1,20.124a2.013,2.013,0,1,0,0,4.025h32.217a2.013,2.013,0,1,0,0-4.025Zm0,8.055a2.014,2.014,0,1,0,0,4.026h32.217a2.014,2.014,0,1,0,0-4.026ZM269.849,134a2.016,2.016,0,0,0,.192,4.026h20.136a2.013,2.013,0,1,0,0-4.026H270.041a1.825,1.825,0,0,0-.192,0Z" transform="translate(-134.899 -57.926)" fill="#14142b" fill-rule="evenodd"/>
  </g>
</svg>
