<svg xmlns="http://www.w3.org/2000/svg" width="117.333" height="86.364" viewBox="0 0 117.333 86.364">
  <g id="noun-business-chat-5119179" transform="translate(-70.003 -73.943)">
    <path id="Path_612" data-name="Path 612" d="M343.86,135.773a1.744,1.744,0,0,1-.991-.293l-12.8-8.544H295.763a9.571,9.571,0,0,1-9.553-9.553V83.5a9.571,9.571,0,0,1,9.553-9.553h52.918a9.571,9.571,0,0,1,9.553,9.553v33.886a9.571,9.571,0,0,1-9.553,9.553h-3.062v7.06a1.805,1.805,0,0,1-.935,1.577,1.755,1.755,0,0,1-.824.2ZM295.763,77.5a6.01,6.01,0,0,0-6,6v33.886a6,6,0,0,0,6,6h34.858a1.894,1.894,0,0,1,.991.293l10.47,7v-5.519a1.769,1.769,0,0,1,1.779-1.779H348.7a6.01,6.01,0,0,0,6-6V83.5a6.01,6.01,0,0,0-6-6Z" transform="translate(-170.898)" fill="#ee4437"/>
    <path id="Path_613" data-name="Path 613" d="M84.4,252.843a1.975,1.975,0,0,1-.843-.2,1.769,1.769,0,0,1-.935-1.577V244H79.556A9.547,9.547,0,0,1,70,234.451V200.565a9.571,9.571,0,0,1,9.553-9.553H117.09a1.779,1.779,0,1,1,0,3.558H79.556a6.01,6.01,0,0,0-6,6v33.886a6.01,6.01,0,0,0,6,6H84.4a1.769,1.769,0,0,1,1.779,1.779v5.519l10.489-6.986a1.742,1.742,0,0,1,.991-.293h34.858a6.01,6.01,0,0,0,6-6V217.71a1.779,1.779,0,0,1,3.558,0v16.76a9.571,9.571,0,0,1-9.553,9.553H98.188l-12.8,8.544a1.974,1.974,0,0,1-.991.275Z" transform="translate(0 -92.536)" fill="#14142b"/>
    <path id="Path_614" data-name="Path 614" d="M195.48,297.564a1.738,1.738,0,0,1-1.192-.458l-10.305-9.334a1.783,1.783,0,0,1,1.192-3.1h2.842a4.8,4.8,0,1,0,0-9.609h-2.842a1.779,1.779,0,1,1,0-3.558h14.835a1.779,1.779,0,0,1,0,3.558h-5.152a8.363,8.363,0,0,1-5.245,13.019l7.06,6.4a1.773,1.773,0,0,1,.129,2.512,1.82,1.82,0,0,1-1.32.569Z" transform="translate(-89.63 -156.161)" fill="#14142b"/>
    <path id="Path_615" data-name="Path 615" d="M200.1,306.391H185.262a1.779,1.779,0,1,1,0-3.558H200.1a1.779,1.779,0,0,1,0,3.558Z" transform="translate(-89.699 -180.924)"/>
    <path id="Path_616" data-name="Path 616" d="M430.221,172.3a7.262,7.262,0,0,1-7.243-7.261,1.779,1.779,0,1,1,3.558,0,3.7,3.7,0,1,0,7.408,0,3.65,3.65,0,0,0-3.5-3.685,7.1,7.1,0,0,1-5.079-2.127,7.261,7.261,0,1,1,12.4-5.134,1.779,1.779,0,1,1-3.558,0,3.686,3.686,0,0,0-7.372,0,3.695,3.695,0,0,0,3.686,3.7,7.255,7.255,0,0,1,7.023,7.261,7.357,7.357,0,0,1-7.316,7.242Z" transform="translate(-279.005 -57.613)" fill="#ee4437"/>
    <path id="Path_617" data-name="Path 617" d="M451.351,137.815a1.769,1.769,0,0,1-1.779-1.779V132.68a1.779,1.779,0,1,1,3.558,0v3.355A1.78,1.78,0,0,1,451.351,137.815Z" transform="translate(-300.026 -45.022)" fill="#ee4437"/>
    <path id="Path_618" data-name="Path 618" d="M451.351,258.215a1.769,1.769,0,0,1-1.779-1.779V253.08a1.779,1.779,0,0,1,3.558,0v3.356A1.769,1.769,0,0,1,451.351,258.215Z" transform="translate(-300.026 -140.191)" fill="#ee4437"/>
  </g>
</svg>
