<svg xmlns="http://www.w3.org/2000/svg" width="98.115" height="100.325" viewBox="0 0 98.115 100.325">
  <g id="noun-investor-5133503" transform="translate(-89.766 -14.663)">
    <path id="Path_692" data-name="Path 692" d="M368.184,191.249a1.469,1.469,0,0,0,1.555-1.555V177.566c0-7.619-9.175-13.683-20.992-13.683s-20.992,6.064-20.992,13.683V213.02c0,6.842,7.464,12.44,17.726,13.528,1.555,5.442,8.708,9.485,17.571,9.485,10.107,0,17.882-5.131,17.882-11.662v-19.9c0-6.531-7.93-11.662-17.882-11.662-7.308,0-13.528,2.643-16.327,6.686-9.019-.622-15.86-5.131-15.86-10.418v-4.2c3.732,3.888,10.262,6.376,17.882,6.376s14.15-2.488,17.882-6.376V189.7a1.469,1.469,0,0,0,1.555,1.555Zm-37.319,21.768v-4.2c3.11,3.265,8.241,5.6,14.306,6.22v8.241C337.085,222.347,330.865,217.993,330.865,213.017ZM348.28,211c3.265,3.11,8.552,4.976,14.772,4.976s11.662-2.022,14.772-4.976v2.8c0,4.665-6.841,8.552-14.772,8.552s-14.772-3.888-14.772-8.552Zm14.772,21.77c-8.086,0-14.772-3.888-14.772-8.552v-3.888c3.265,3.11,8.552,4.976,14.772,4.976s11.662-2.022,14.772-4.976v3.888C377.98,228.878,371.139,232.766,363.053,232.766Zm0-36.853c8.086,0,14.772,3.888,14.772,8.552s-6.842,8.552-14.772,8.552-14.772-3.888-14.772-8.552S355.123,195.913,363.053,195.913Zm-17.571,6.53a7.8,7.8,0,0,0-.311,1.866v7.464c-8.086-.933-14.306-5.442-14.306-10.262v-5.287c3.11,3.264,8.4,5.6,14.617,6.219Zm3.265-14.306c-9.641,0-17.882-4.821-17.882-10.574s8.241-10.574,17.882-10.574,17.882,4.821,17.882,10.574-8.241,10.574-17.882,10.574Z" transform="translate(-193.053 -121.045)" fill="#ee4437"/>
    <path id="Path_693" data-name="Path 693" d="M411.944,192.555c-1.866,0-3.11-.933-3.11-1.4s1.244-1.4,3.265-1.4c1.71,0,2.955.622,3.265,1.244a1.6,1.6,0,1,0,2.8-1.555,6.212,6.212,0,0,0-4.509-2.8v-.622a1.555,1.555,0,1,0-3.11,0v.622c-2.8.466-4.665,2.177-4.665,4.354,0,2.643,2.643,4.509,6.22,4.509,1.866,0,3.11.933,3.11,1.4s-1.244,1.4-3.265,1.4c-1.71,0-2.955-.622-3.265-1.244a1.6,1.6,0,0,0-2.8,1.555,6.212,6.212,0,0,0,4.509,2.8v.622a1.555,1.555,0,1,0,3.11,0v-.622c2.8-.466,4.665-2.177,4.665-4.354C418.164,194.577,415.52,192.555,411.944,192.555Z" transform="translate(-256.249 -137.745)" fill="#ee4437"/>
    <path id="Path_694" data-name="Path 694" d="M91.32,203.849a1.469,1.469,0,0,0-1.555,1.555v5.131A6.072,6.072,0,0,0,95.83,216.6a6.436,6.436,0,0,0,2.955-.777V235.1a6.9,6.9,0,0,0,6.842,6.842,7.147,7.147,0,0,0,5.287-2.488,6.643,6.643,0,0,0,5.287,2.488,6.9,6.9,0,0,0,6.842-6.842v-19.28A6.436,6.436,0,0,0,126,216.6a6.072,6.072,0,0,0,6.064-6.064V182.549a10.419,10.419,0,0,0-10.418-10.418h-21.3a10.419,10.419,0,0,0-10.418,10.418v15.7a1.555,1.555,0,0,0,3.11,0v-15.7a7.3,7.3,0,0,1,7.308-7.308h3.576l2.643,6.686-2.332,9.8a1.209,1.209,0,0,0,.311,1.244l5.131,6.531a1.919,1.919,0,0,0,1.244.622,1.416,1.416,0,0,0,1.244-.622l5.131-6.531a1.211,1.211,0,0,0,.311-1.244l-2.332-9.8,2.643-6.686h3.576a7.3,7.3,0,0,1,7.308,7.308v27.988a2.955,2.955,0,1,1-5.909,0V200.274a1.555,1.555,0,1,0-3.11,0V234.95a3.784,3.784,0,0,1-3.732,3.732,3.519,3.519,0,0,1-3.578-3.576V212.248a1.555,1.555,0,1,0-3.11,0v22.858a3.732,3.732,0,0,1-7.464,0V199.652a1.555,1.555,0,1,0-3.11,0v10.885a2.955,2.955,0,0,1-5.909,0v-5.131a1.469,1.469,0,0,0-1.555-1.556Zm19.593-7.775-3.421-4.354,1.866-8.4h2.955l1.866,8.4Zm1.555-15.86H109.2l-2.022-5.131h7.308Z" transform="translate(0 -127.736)"/>
    <path id="Path_695" data-name="Path 695" d="M146.209,42.37a11.248,11.248,0,0,0,11.2-11.2V25.888a6.533,6.533,0,0,0,2.332-4.821,6.306,6.306,0,0,0-6.376-6.376,6.66,6.66,0,0,0-3.421.933,11.184,11.184,0,0,0-15.7,10.263,10.438,10.438,0,0,0,.933,4.354v1.089A11.083,11.083,0,0,0,146.21,42.37Zm0-3.11a8.129,8.129,0,0,1-8.086-8.086v-1.4A5.336,5.336,0,0,1,145.9,25.11c4.2,2.332,7,2.177,7.308,2.177a1.971,1.971,0,0,0,.933-.156v3.888a7.847,7.847,0,0,1-7.93,8.241ZM145.432,17.8a7.534,7.534,0,0,1,4.043,1.089,1.7,1.7,0,0,0,1.71-.156,3.246,3.246,0,0,1,2.177-.777,3.192,3.192,0,1,1-.156,6.376s-2.177.156-5.6-1.71a8.716,8.716,0,0,0-10.107,1.4,8.171,8.171,0,0,1,7.931-6.22Z" transform="translate(-36.074)"/>
  </g>
</svg>
