<svg version="1.2" xmlns="http://www.w3.org/2000/svg" viewBox="0 0 640 394" width="640" height="394">
	<title>only-best-graphics</title>
	<defs>
		<clipPath clipPathUnits="userSpaceOnUse" id="cp1">
			<path d="m26.87 88.04c-14.83 0-26.82-11.99-26.82-26.82 0-14.83 11.99-26.81 26.82-26.81 14.83 0 26.82 11.98 26.82 26.81 0 14.83-11.99 26.82-26.82 26.82zm14.2-26.82c0-7.85-6.35-14.2-14.2-14.2-7.86 0-14.21 6.35-14.21 14.2 0 7.86 6.35 14.21 14.21 14.21 7.85 0 14.2-6.35 14.2-14.21z"/>
		</clipPath>
	</defs>
	<style>
		.s0 { fill: #ffdbd9 } 
		.s1 { opacity: .5;fill: #ffdbd9 } 
		.s2 { fill: #ffffff } 
		.s3 { fill: #14142b } 
		.s4 { fill: #2c2c36 } 
		.s5 { fill: #f09959 } 
		.s6 { fill: #ee4437 } 
		.s7 { fill: #c83f32 } 
		.s8 { fill: #e38540 } 
		.s9 { fill: #ff8279 } 
		.s10 { fill: #303c60 } 
		.s11 { fill: #000000 } 
		.s12 { fill: #ac271a } 
		.s13 { fill: #d54a41 } 
		.s14 { fill: #f89790 } 
		.s15 { fill: #a86b48 } 
		.s16 { fill: #7a4e34 } 
		.s17 { fill: #faada8 } 
		.s18 { fill: #888888 } 
		.s19 { opacity: .5;fill: #ffffff } 
		.s20 { fill: #fcd6d3 } 
		.s21 { fill: #f39892 } 
		.s22 { fill: #c0c0c0 } 
		.s23 { fill: #e7f3fe } 
		.s24 { fill: #ffb8b3 } 
	</style>
	<g id="only-best-graphics">
		<path id="Path 2250" class="s0" d="m614 368.2c-48.7-2.4-214.2 1.7-264.6 3.2-50.3 1.6-108.8-2-139.1-7.4-30.4-5.4-205.8 0.5-197.9 14.9 8 14.4 78.2 6.4 157.8 12.2 79.7 5.8 258.7-0.7 299.1 0 40.4 0.7 77.5-1.5 129.5-4.3 52.1-2.9 43.4-17.2 15.2-18.6z"/>
		<g id="Group 578">
			<path id="Path 2251" fill-rule="evenodd" class="s1" d="m499.7 53.4c-0.8 3.6-2 7-3.7 10.2l5.4 7.4q-2.2 3.3-4.9 6.3l-8.5-3.3c-2.6 2.5-5.6 4.5-8.9 6.2v9.1q-3.7 1.4-7.7 2.2l-4.9-7.6q-2.2 0.2-4.4 0.2-3.3 0-6.4-0.5l-5.4 7.4q-3.9-1-7.5-2.7l0.5-9.1c-3.2-1.8-6.1-4-8.6-6.6l-8.7 2.8q-2.5-3.1-4.5-6.6l5.7-7c-1.4-3.3-2.5-6.7-3-10.4l-8.7-2.8q-0.1-1.4-0.1-2.8 0-2.6 0.3-5.2l8.8-2.4c0.7-3.6 2-7 3.6-10.1l-5.3-7.4q2.1-3.4 4.9-6.4l8.5 3.3c2.6-2.4 5.6-4.5 8.9-6.1l-0.1-9.1q3.8-1.5 7.7-2.3l5 7.7q2.2-0.3 4.4-0.3 3.3 0 6.4 0.5l5.3-7.3q4 1 7.6 2.6l-0.5 9.1c3.2 1.8 6 4 8.6 6.6l8.6-2.8q2.6 3.1 4.6 6.6l-5.8 7.1c1.5 3.2 2.6 6.7 3.1 10.3l8.7 2.8q0 1.4 0 2.8 0 2.7-0.3 5.3zm-19.2-7.6c0-10.1-8.2-18.3-18.3-18.3-10.1 0-18.3 8.2-18.3 18.3 0 10.1 8.2 18.3 18.3 18.3 10.1 0 18.3-8.2 18.3-18.3z"/>
			<path id="Path 2252" class="s2" d="m487 66.9q-0.3 0.1-0.6-0.2c-0.4-0.3-0.4-0.9-0.1-1.3 4.6-5.5 7.1-12.4 7.1-19.6 0-3.4-0.6-6.8-1.7-10-0.1-0.5 0.1-1 0.6-1.2 0.5-0.1 1 0.1 1.2 0.6 1.2 3.4 1.8 7 1.8 10.6 0 7.6-2.7 15-7.5 20.8-0.2 0.2-0.5 0.3-0.8 0.3z"/>
			<path id="Path 2253" class="s2" d="m484.4 23.8q-0.4 0-0.7-0.3c-3-2.9-6.6-5.1-10.5-6.5-0.5-0.2-0.7-0.7-0.6-1.2 0.2-0.5 0.7-0.7 1.2-0.6 4.2 1.6 8 3.9 11.2 6.9 0.4 0.4 0.4 1 0.1 1.4-0.2 0.2-0.5 0.3-0.7 0.3z"/>
			<path id="Path 2254" class="s2" d="m455 16.1c-0.4 0-0.8-0.2-0.9-0.7-0.2-0.5 0.2-1 0.7-1.1 2.6-0.7 5.2-1 7.9-1 0.6 0 1 0.4 1 0.9 0 0.6-0.4 1-1 1-2.5 0-5 0.3-7.5 0.9q-0.1 0-0.2 0z"/>
		</g>
		<path id="Path 2572" class="s1" d="m142.3 0.2h291.6v175.2h-291.6z"/>
		<path id="Rectangle 594" class="s2" d="m156.5 4.5h274.3v160.8h-274.3z"/>
		<g id="Group 579">
			<path id="Path 2255" class="s3" d="m390.4 87.6c13.1-12.4 35.4-12.2 35 6.8-0.5 18.9 1.1 20.7 6.4 30.7 18.7 34.4-22.2 32.4-39.3 33.6-17 1.1-15.6-31.1-12.6-48.9 3-17.8 6.7-18.6 10.5-22.2z"/>
			<path id="Path 2256" class="s4" d="m396.5 196.2c-4.2 35.2-11.8 61.3-12.6 77.9-0.9 16.7-4.3 82.4-4.3 82.4 0 0 9.3-0.6 10.2-2.1 0.8-1.4 17.5-38.4 16.7-61.3-0.9-22.9 16.6-57.7 16.6-57.7l-4.2-34.2c0 0-22.4-5-22.4-5z"/>
			<path id="Path 2257" class="s4" d="m400.5 211.6l-6.5 2.7c-1.8 11.2-3.8 21.2-5.5 30.1 10.4 6.7 15.8 29.2 18.1 42.9 1.2-15.3 8.4-33.9 12.9-44.2 0 0-19-31.5-19-31.5z"/>
			<path id="Path 2258" class="s3" d="m430.8 192.7c0 0 14.1 18 13.7 38.5-0.7 31.1-4.1 40 1.8 72.6 2.3 12.7-5.1 54.4-5.1 54.4 0 0-6.3 0.5-9.7-1.2 0.3-3-4.1-52.9-12.6-75.8-4.1-11.1-9.9-42.1-13-59.9-3.1-17.9-3.7-21.5-2.5-21.5 1.1 0 27.4-7.1 27.4-7.1z"/>
			<path id="Path 2259" class="s5" d="m350.3 142.7c0 0 0.7-9.4-0.4-12.2-1-2.9-9.6-5.4-9.6-5.4 0 0-0.4 13.3 0.5 14.9 0.9 1.6 6 6.3 6 6.3 0 0 3.5-3.6 3.5-3.6z"/>
			<path id="Path 2260" class="s6" d="m399.1 135.9c-19.9 21.3-26.3 30.3-27.9 30.3-4.7-8.3-20.3-25.9-20.3-25.9l-6.7 4.3c0 0 15.4 40.3 25.2 40.7 9.8 0.4 29.8-13.9 30-15.5 0.3-1.7-0.3-33.9-0.3-33.9z"/>
			<path id="Path 2261" class="s7" d="m378.4 183.2c9.7-3.9 20.8-12.2 21-13.4 0.3-1.7-0.3-33.9-0.3-33.9q-6.5 6.9-11.4 12.4c-3.6 13.2-3.3 27.6-9.3 34.9z"/>
			<path id="Path 2262" class="s6" d="m419.3 121.8c0 0 19 9.5 23.1 26.4 4.2 16.8-8.1 37.7-9.6 48.8-1.5 11.1-36.2 13.1-36.2 1.2 0-11.9-8.7-35.7-8.2-41.8 1.1-14.5 22.3-32.2 22.3-32.2 0 0 8.6-2.4 8.6-2.4z"/>
			<path id="Path 2263" class="s5" d="m413.7 99.9l8.2 25.2c0 0-8.7 6.7-23.6 22.9 0.6-10.8 9.6-22.5 9.6-22.5l-6.2-23.7c0 0 12-1.9 12-1.9z"/>
			<path id="Path 2264" class="s8" d="m417.5 111.7l-3.8-11.8-12 1.9 6.2 23.7c0 0-0.6 1-1.5 2.5 5.8-4.3 9.4-9.7 11.1-16.3z"/>
			<path id="Path 2265" class="s5" d="m409.2 105.6c-2.2 8-10.7 12.4-16.7 10.8-6.1-1.7-7.4-8.8-5.2-16.8 2.2-8 8.9-13.1 15-11.5 6 1.7 9.1 9.5 6.9 17.5z"/>
			<path id="Path 2266" class="s6" d="m395.1 186.9c2.6 16.7-7.2 52.5-7.2 52.5 0 0 5.8 1.4 23.4-0.3 17.5-1.7 25.2-19.2 27.9-19.7 2.6-0.5 4 16.3 5.3 17.6 1.3 1.3 1.5-21.2-1.9-30-6.1-15.7-4.9-22.4-2.6-31.9 4-16.9-44.9 11.8-44.9 11.8z"/>
			<path id="Path 2267" class="s6" d="m380 348.3c1.6 6.4-1.5 11.5-5.7 15.2-3.4 3-13.8 4.3-13.3 5.8 0.5 1.5 12.8 2 17 1.4 4.1-0.7 5.3-2.7 10.4-2.7 3.4 0 4-2.7 2.5-6.1-1.5-3.4-2-5.3-0.7-8.4 1.4-3-10.2-5.2-10.2-5.2z"/>
			<path id="Path 2268" class="s6" d="m441.6 348.3c-0.3 6.6-1 11.6 0.6 14.7 6.3 5.3 11.6 11.3 9.6 11.7-9.6 1.9-13.2-3.8-18.6-5.4-6.7-2 0.6-10.3-2-21-1.5-6 10-4.5 10-4.5 0 0 0.4 4.5 0.4 4.5z"/>
			<path id="Path 2269" class="s7" d="m444 212.4c-0.4-2.1-0.8-4-1.4-5.4-6.1-15.7-4.9-22.4-2.6-31.9q0.2-1.1 0.2-2 0.8-2.5 1.4-5.1l-2-18.5-14.8-17.5c-11.1 16.2-3.6 36.4-5.3 47.5-1.6 11.1-20.2 25.3-20.2 25.3l0.6 3.9c0.9 5.5 5.9 9.2 11.3 8.5 7.7-1.1 17.7-3.2 22.1-7.4 4.4-4 8.2-0.9 10.7 2.6z"/>
			<path id="Path 2270" class="s5" d="m403.7 204.2c0 0-8.2 2.2-9.2 2.8-1 0.5-1.5 3.2-1.5 3.2 0 0-4.7 4-2.9 5.5 1.8 1.4 5 5.1 9.2 3.4 2.6-1.1 4.7-10.6 6.4-10.7 1.7-0.1-2-4.2-2-4.2z"/>
			<path id="Path 2271" class="s6" d="m426.9 129.8c8.7 0.3 16.7 16.1 19.4 29.7 2.8 13.7 5.7 33.2 5.7 33.2 0 0-14.5 11.5-28.9 14.8-12.5 2.9-18.9 4.1-18.9 4.1l-2.5-7.2 29.9-17.6c0 0-11-20.7-12.1-36.4-1.1-15.6 0.7-20.8 7.4-20.6z"/>
			<path id="Rectangle 595" class="s9" d="m320.8 126.3l21.8-4.4 2.8 13.9-21.9 4.3z"/>
			<path id="Path 2272" class="s5" d="m345.1 141.5c0.3-5.7-2.6-13.5-4.2-13.5-1.6 0 0.5 5.1-0.4 8.5-0.5 1.8 4.6 5 4.6 5z"/>
			<path id="Path 2273" class="s3" d="m388.9 90.6c0.5 15.7 18.9 14.5 23.9 13.6 5-1-6.1 33.1 3.4 35.1 7.1 1.4 5.5-9.6 13.3-8.8 3.5 0.3 6.9 5.6 6.9 5.6 0 0-0.5-3.3-3.1-5.6-2.7-2.4-9.6-17-11.4-27.4-1.8-10.5-14.1-17.2-17.8-17.4-3.6-0.2-12.6 3.9-12.6 3.9 0 0-2.6 1-2.6 1z"/>
			<path id="Path 2274" class="s3" d="m416.1 142.8q-0.4 0-0.8-0.1c-3-0.6-4.5-3.8-4.6-10.1-0.2-5.4 0.7-12.3 1.7-19.5 0.3-3 0.7-6 1.1-9 0-0.2 0.2-0.4 0.5-0.4 0.2 0 0.4 0.3 0.4 0.5-0.3 3-0.7 6-1.1 9-1.8 14.1-3.6 27.4 2.2 28.6q0.3 0.1 0.6 0.1c3.3 0 6.3-6.5 8-12.8 0.1-0.2 0.3-0.3 0.6-0.3 0.2 0.1 0.4 0.3 0.3 0.6-1.2 4.1-4.3 13.4-8.9 13.4z"/>
			<path id="Path 2275" class="s3" d="m414.9 146.5q-1.6 0-2.8-1.2c-6.2-6.6 0-39.8 0.2-41.2 0.1-0.3 0.3-0.4 0.6-0.4 0.2 0.1 0.4 0.3 0.3 0.5 0 0.4-6.3 34.2-0.4 40.4q1 1.1 2.5 0.9c3.3-0.4 5.1-4.8 6.8-8.7 1.6-3.8 3.1-7.3 5.8-7.2 0.2 0 0.4 0.2 0.4 0.4 0 0.3-0.2 0.5-0.4 0.5q-0.1 0-0.1 0c-2 0-3.4 3.2-4.9 6.7-1.7 4.1-3.7 8.7-7.5 9.2q-0.3 0.1-0.5 0.1z"/>
			<path id="Path 2276" class="s5" d="m413.5 107.2c-1.3 1.6-3.3 2.2-4.6 1.3-1.2-0.9-1.1-3 0.2-4.7 1.3-1.7 3.3-2.3 4.5-1.3 1.2 0.9 1.2 3-0.1 4.7z"/>
		</g>
		<g id="Group 582">
			<path id="Path 2277" class="s4" d="m270.9 165.4c4.5 8.9 0.8 19.2-8 22.9-8.9 3.6-18.6 1.6-23.1-7.4-4.5-9-1.1-19.7 7.4-24 8.6-4.3 19.2-0.5 23.7 8.5z"/>
			<path id="Path 2278" class="s10" d="m246.7 189.4c-1 0-2.9-0.4-5.4-2.6-2-1.8-3.5-4.6-4.1-7.8-0.8-4-0.3-8.7 1.5-13.9 0.1-0.2 0.4-0.3 0.6-0.2 0.2 0 0.4 0.3 0.3 0.5-1.7 5-2.2 9.5-1.5 13.4 0.6 3.1 1.9 5.6 3.8 7.3 3.2 2.8 5.3 2.3 5.3 2.3 0.2-0.1 0.5 0.1 0.6 0.3 0 0.3-0.1 0.5-0.3 0.6-0.1 0-0.3 0.1-0.8 0.1z"/>
			<g id="Group 581">
				<path id="Path 2279" class="s4" d="m260.4 200.2c5.1 1.2 11.6 15.3 14.7 24.4 3.2 9.2 8.6 20.5 12.1 24 3.6 3.6 26.7 11.8 26.7 11.8 0 0-57.2 0.1-56.1 0 1.2-0.2 2.6-60.2 2.6-60.2z"/>
				<path id="Path 2280" class="s11" d="m290.9 255.8c-3.2-0.4-14.5 1-9.7-1 4.8-2 4.2-4.6 4.2-4.6 0 0-6.9 5.7-8.1 0.7-1.1-4.3-1.5-19.5-5.5-34.7-3.3-7.6-7.7-15.2-11.4-16 0 0-0.1 5.4-0.3 12.9 1.4 16.7 3.8 41.1 4.4 47.3 7.6 0 20.3 0 30.9 0l7.1-0.4c0 0-8.5-3.8-11.6-4.2z"/>
				<path id="Path 2281" class="s4" d="m241.7 197.1c0 0-16.2 9-20 11-1.7 0.8 0.3 13.1 3.4 26.7 3.6 15.5 8.6 32.9 10.4 34.2 3.2 2.4 31.3 0.4 34.5-2.7 3.2-3-2.4-12.4 0.3-31.1 2.8-18.8-8.4-35-9.9-35-1.4 0-10.8-3.1-10.8-3.1 0 0-7.9 0-7.9 0z"/>
				<path id="Path 2282" class="s11" d="m235.5 269c3.2 2.4 23.3 2.5 31.9-0.2 1-0.3 5.3-2.1 5.5-3.7-1.1-0.2-5.2 0.3-6.9-0.1-5.8-1.3-8.9-8.5-8.9-8.5 0 0-3.2-1.1-10.4-4.2-7.1-3-4.2-12.2-4.3-16.2-0.2-4-7.1-17.2-20-27.2l-1.2 0.5c-1 9.2 11.3 57.3 14.3 59.6z"/>
				<g id="Group 580">
					<path id="Path 2283" class="s6" d="m346.9 224.6h-39l-17.8 37.9h43l16.1-34.3c0.8-1.7-0.4-3.6-2.3-3.6z"/>
					<path id="Path 2284" class="s12" d="m292.4 263h-23.5c-1.5 0-2.6-1.2-2.6-2.6 0-1.5 1.1-2.7 2.6-2.7h21.8l14.8-31.7c0.6-1.4 2.1-1.9 3.5-1.3 1.3 0.6 1.9 2.2 1.3 3.5l-15.5 33.3c-0.4 0.9-1.4 1.5-2.4 1.5z"/>
				</g>
				<path id="Path 2285" class="s5" d="m251.6 254.9c10.2 1.9 12.7 4.3 18.3 5.1 6.3 1.1 5.6 2.5 0.9 2.5-4.7 0-16.5 0.1-20.5-0.8-4-0.9 1.3-6.8 1.3-6.8z"/>
				<path id="Path 2286" class="s4" d="m220.4 209.1c-7.8 25-18.9 53.4-17.1 53.4 1.8 0 46.6 1.8 48.4 0.3 1.8-1.6 1.2-7.4 1-8.1-0.3-0.8-25.5-5.2-25.5-5.2 0 0 3.3-6.5 4.6-19.2 1.2-12.7-9.9-25.9-11.4-21.2z"/>
			</g>
			<path id="Path 2287" class="s5" d="m247.6 175.4l-6.3 23c0 0 10.7 16.6 13.6 15.1 2.9-1.5-1.6-13.5-1.6-15.1 0-1.7 4.5-18.5 4.5-18.5 0 0-10.2-4.5-10.2-4.5z"/>
			<path id="Path 2288" class="s8" d="m253.5 199.5q-0.2-0.8-0.2-1.1c0-1.7 4.5-18.5 4.5-18.5l-10.2-4.5-2 7.6c1.8 7.8 5.1 13.1 7.9 16.5z"/>
			<path id="Path 2289" class="s5" d="m271.2 175c1.2 6.7 0.4 15.5-5.5 17.8-6 2.2-13.1-2.1-16-9.7-2.8-7.5-0.4-15.5 5.6-17.7 5.9-2.3 14.5 1.6 15.9 9.6z"/>
			<path id="Path 2290" class="s5" d="m251.1 178.7c0.9 2.4 0.2 4.8-1.6 5.4-1.7 0.6-3.8-0.8-4.6-3.1-0.8-2.4-0.1-4.8 1.6-5.4 1.7-0.6 3.8 0.8 4.6 3.1z"/>
			<path id="Path 2291" class="s4" d="m271.3 166.6c-2.1 15.7-21.1 13.6-21.1 13.6 0 0-3.9-5.1-5.7-2.4-1.7 2.7 2.5-15.9 13.4-16.5 3.6-0.2 13.4 5.3 13.4 5.3z"/>
			<path id="Ellipse 72" class="s4" d="m241.6 169.7c-5.7 0-10.3-4.4-10.3-9.7 0-5.4 4.6-9.7 10.3-9.7 5.7 0 10.3 4.3 10.3 9.7 0 5.3-4.6 9.7-10.3 9.7z"/>
		</g>
		<g id="Group 584">
			<g id="Group 583">
				<path id="Path 2292" class="s11" d="m221.1 376.2h2.4l15.2-70.5h-5.2z"/>
				<path id="Path 2293" class="s11" d="m294.3 376.2h-2.3l-17.7-73h5.2z"/>
				<path id="Path 2294" class="s11" d="m248 308.4c-9.4 0-15.4-1.7-19.2-5.5-4.8-4.6-5.7-11.7-5.8-21 0-7.3-0.1-12.1-0.5-15.9-0.2-1.5 0.9-2.8 2.3-2.9 1.5-0.2 2.8 0.9 2.9 2.3 0.4 4.1 0.6 9 0.6 16.5 0 9.4 1.2 14.4 4.1 17.3 3 2.9 8.4 4.1 17.6 3.9 8.8-0.3 14.9-1.5 19.7-2.5 6.4-1.3 11.1-2.2 16.6 0.4 1.3 0.6 1.9 2.2 1.2 3.5-0.6 1.3-2.2 1.9-3.5 1.3-3.9-1.9-7.2-1.2-13.2 0-5.1 1-11.4 2.3-20.7 2.5q-1.1 0.1-2.1 0.1z"/>
			</g>
			<path id="Path 2295" class="s11" d="m226.6 262.8l14.4 0.6-3.8 39.8c0 0-10.8-6.8-10.6-14.2 0.1-7.4 0-26.2 0-26.2z"/>
			<path id="Path 2296" class="s5" d="m297.8 266.5c12.2-1.9 16.4-1.3 23.9 12.6 7.4 13.9 17.4 39 23.1 42.2 8.6 4.9 11.5 16.8 15 16.3 3.6-0.6 5.8 1 2 4.2-3.9 3.2-10.1 5.9-12.2 5.3-2.1-0.5-3.8-9.7-9.3-12.7-5.6-3-3.9-5.4-3.6-8.1 0.4-2.6-16.2-14.7-28.6-29.8-7.7-9.3-11.6-15.4-12.2-20.9-0.6-5.5 1.9-9.1 1.9-9.1z"/>
			<path id="Path 2297" class="s8" d="m328.1 316.9c-2.8-7.2-5.7-19.1-8.3-30-3.9-15.4-7.8-19.1-10.4-20.8-3-0.7-6.6-0.4-11.6 0.4 0 0-2.5 3.6-1.9 9.1 0.6 5.5 4.5 11.6 12.2 20.9 6.5 7.9 14.2 15 20 20.4z"/>
			<path id="Path 2298" class="s7" d="m301.6 278.7c0 0-3.3 24.5-6.3 27-2.2 1.8-3.7 1.9-5.2-5.4-1.5-7.3 2.3-34.6 2.3-34.6 0 0 9.2 13 9.2 13z"/>
			<path id="Path 2299" class="s5" d="m299 292l-30.1 5 17-24.3 12.9-2.6 7.7 1.7z"/>
			<path id="Path 2300" class="s6" d="m336.7 326.3c-0.9 4-0.8 6.9 0.9 8.3 1.7 1.5 8.1 12.3 8.1 12.3l2-0.3-4.6-9.9c0 0-6.4-10.4-6.4-10.4z"/>
			<path id="Path 2301" class="s6" d="m349.6 347.1c2.1 0.6 8.3-2.1 12.2-5.3 3.8-3.2 1.5-4.8-2-4.2q-0.3 0-0.6-0.1c-1.7 4-7.6 6.9-9.4 2.8-1.9-4.2-9.8-12.4-13.1-14.1q0.1 0.1 0 0.1c-0.3 2.7-2 5.1 3.6 8.1 5.5 3 7.2 12.2 9.3 12.7z"/>
			<path id="Path 2302" class="s8" d="m236.5 267.5c-10.7 19.1-3.4 31.3 9.6 32.5 12.9 1.2 33.4-1.1 45.3-11 11.9-10 21.7-20.4 20.4-22-1.4-1.6-75.3 0.5-75.3 0.5z"/>
			<path id="Path 2303" class="s5" d="m297 281.7c2.1-6.5 4.7-11.5 9.5-11.6 5.2-0.1 8.3 2.5 8.5 10.9 0.3 10 0.7 43.1 0.2 57.8-0.4 11.1 2.9 14.7 2.6 26.3-0.2 8.7 9.1 4.3 5.5 8.8-2.5 3.2-9.8 2.1-14.3 1.6-4.1-0.5 2-12.6-3.5-15.9-4.8-2.7-4.9-7.2-1.9-10.6 3-3.5 0.3-13.5-1.7-20.6-2-7.1-5.1-14.7-7.2-31.4-0.6-4.7 0.9-11.3 2.3-15.3z"/>
			<path id="Path 2304" class="s6" d="m320.1 370.4c-1.5 0.4-3.4 1-5.1 1-3.3 0.1-4.3-3.6-4.6-8.6-0.2-4.4-3.3-11.3-6.6-14.1q-0.1 0.1-0.2 0.3c-3 3.4-2.9 7.9 1.9 10.6 5.5 3.3-0.6 15.4 3.5 15.9 4.5 0.5 11.9 1.6 14.3-1.6 2.4-2.9-0.5-3.1-3.2-3.5z"/>
			<path id="Path 2305" class="s6" d="m304.4 347.7c0 0-4.9 5.1-4.5 7.3 0.5 2.1 2 7.5 2.2 11.6 0.3 4.2 0.5 8.9 0.5 8.9 0 0 1.8 0 1.9-0.5 0.1-0.5 1.1-16.8 1.1-16.8 0 0-1.2-10.5-1.2-10.5z"/>
			<path id="Path 2306" class="s6" d="m231.3 265.7c0 0-6.3 26.9 1.7 34.3 8 7.4 41.2 0.8 49 0.3 5.3-0.3 10.4 6.2 10.4 6.2 0 0-3.7-15-1.2-27.1 2.6-12.1 6.6-12.9 6.6-12.9l-5.4-0.8c0 0-61.1 0-61.1 0z"/>
			<path id="Path 2307" class="s7" d="m229.9 258.7c2.7 5.7-2.9 15.6-0.9 18.5 1.9 2.9 13.2 0.4 20.6-5.5 7.4-6 21.4-7.3 21.4-7.3z"/>
			<path id="Path 2308" class="s4" d="m241.3 307.6c22.4 0.9 45.9 0.5 45.9-2.9 0-3.3-1-5.7-18.3-4.3-17.3 1.3-29.1 3.2-34.3 2-5.2-1.2 6.7 5.2 6.7 5.2z"/>
		</g>
		<path id="Rectangle 596" class="s11" d="m162.3 265.5c0-1.7 1.4-3 3-3h313.8c1.7 0 3 1.3 3 3 0 1.7-1.3 3-3 3h-313.8c-1.6 0-3-1.3-3-3z"/>
		<g id="Group 585">
			<path id="Path 2309" class="s5" d="m521.5 180.9c2.2 7.6-3.1 15.5-8.9 17.2-5.9 1.6-10-3.6-12.2-11.2-2.1-7.6 0.8-15.2 6.6-16.8 5.9-1.7 12.3 3.2 14.5 10.8z"/>
			<path id="Path 2310" class="s5" d="m488.9 328.8c0 0 14.9 23.2 16.9 24.2 2 1 7.1 1.3 5.2 5.1-1.9 3.7-2.7 18.6-4.4 19.4-1.8 0.7-16.9 2.5-14.7 0 2.3-2.5 3.7-1.3 4.8-5.8 1.2-4.6 2.8-13.1 0.7-14.9-2.2-1.8-15.3-17.6-15.3-17.6 0 0 6.8-10.4 6.8-10.4z"/>
			<path id="Path 2311" class="s5" d="m413.7 338.8c0 0-18.1 29.9-21.5 32.6-3.4 2.7-14.4 6.7-5.4 7.4 9.1 0.7 13.5-3 19.2-4.7 5.7-1.7 12.8-2.7 10.1-7.1-2.7-4.4-1.6-13.9 4.2-19.9 5.8-6.1-6.6-8.3-6.6-8.3z"/>
			<path id="Path 2312" class="s7" d="m506.3 269.4c0 0-44.9-1.1-62.7 13.5-10.4 15.8-35.6 62.4-37.6 67.5 1.3 1.3 8.9 3.8 12.3 3.4 9.9-11.8 23-22 28.2-31.3 6.4-11.4 8.4-17.1 18.8-18.1 10.4-1 34-4.4 41-4.4 7.1 0 0-30.6 0-30.6z"/>
			<path id="Path 2313" class="s11" d="m545.5 378.9h-2.4l-16.8-70.5h5.1z"/>
			<path id="Path 2314" class="s11" d="m475 378.9h2.3l19.4-73h-5.2z"/>
			<path id="Path 2315" class="s6" d="m531.9 266.3l-26.1 4.6c0 0-34.7 0.3-50.6 3.2-14.4 2.7-16.5 19.1 0 41.7 9.4 12.8 17.4 23.1 33.7 34.6 4.1-3 5.7-4.2 6.8-11.5-1.2-1.6-4.2-11.7-5.2-13.7-9-18.8-21-25.6-21.1-27.5 2-3.3 53.4 17.1 63.6 5.1 9.8-11.4-1.1-36.5-1.1-36.5z"/>
			<path id="Path 2316" class="s4" d="m533 207.2c-6.9-0.9-13.9 0.4-20.4 5.1-5.8 5.8-12.2 15.5-11.8 31.3 0.5 20.2-3.2 21.5 0.6 27 15.8 6.6 42.8 34.5 36.4 4.5-4.6-21.7 10.1-37.9-1.8-62-0.9-1.9-2.1-3.8-3-5.9z"/>
			<path id="Path 2317" class="s11" d="m500.8 251.2c-0.4 10.5-1.8 13.6-0.7 16.9 6.4 0.7 18.2 3.3 21.1 7.4 3.4 4.7 6.7 5.4 5.2 1.9-1.6-3.5-5.7-8.4 0.6-25.3 6.4-17 9.5-28.4 3.2-40.1z"/>
			<path id="Path 2318" class="s5" d="m533 207.2c-4.2-10-5.3-21.3-5.3-21.3l-11.1 3.3c0 0 6.3 14.1 0.3 19.2-1.3 1-2.8 2.3-4.3 3.9 6.5-4.7 13.5-6.1 20.4-5.1z"/>
			<path id="Path 2319" class="s8" d="m528.1 188.6c-0.7-0.6-1.5-1.3-2.4-2.1l-9 2.7q0 0 0 0c0.2 0.5 2.5 5.9 2.8 11.1 2.7-1.6 5.6-4.3 9-9q-0.3-1.5-0.4-2.7z"/>
			<path id="Path 2320" class="s5" d="m525.2 210.4c-11.4 4-10.2 16-20.7 33.7-5.4 9.2-10.5 9.1-10.5 9.1 0 0-12.7 0.1-28.1-1.8-9.7-1.2-10.3 1.7-3.6 4.1 13.6 4.9 27.6 10.1 39 8.8 11.3-1.3 30.7-30.2 31.7-37.7 1.4-10.4-2-18.2-7.8-16.2z"/>
			<path id="Path 2321" class="s11" d="m519.3 311q-1 0-2.2 0c-9.2-0.2-15.6-1.5-20.6-2.5-6-1.3-9.4-1.9-13.3-0.1-1.3 0.7-2.8 0.1-3.5-1.2-0.6-1.3 0-2.9 1.3-3.5 5.5-2.7 10.1-1.7 16.5-0.4 4.9 1 11 2.2 19.8 2.4 9.9 0.3 16-1.2 19.1-4.6 2.8-3.1 3.6-8.2 2.6-16.2-0.4-2.7-0.7-4.9-1-6.9-0.9-5.5-1.5-9.1-0.8-14.8 0.7-5.2 2.4-12.2 6.5-25.8 0.4-1.4 1.8-2.2 3.2-1.8 1.4 0.4 2.2 1.9 1.8 3.3-7.5 25.4-7.1 27.9-5.5 38.3 0.3 2 0.6 4.3 1 7.1 1.2 9.5 0 16-3.9 20.3-4 4.4-10.5 6.4-21 6.4z"/>
			<path id="Path 2322" class="s13" d="m414.9 364c-12 5.9-18.5 9.3-22.3 8.9q-1.4-0.1-2.3-0.2c-4.3 2.5-11.2 5.5-3.5 6.1 9.1 0.7 13.5-3 19.2-4.7 5.7-1.7 12.8-2.7 10.1-7.1q-0.8-1.3-1.2-3z"/>
			<path id="Path 2323" class="s13" d="m507.1 353.5c-0.3 9.5-1.6 19-7.4 20.8-1.6 0.5-3 0.5-4.2 0.4-0.9 1.1-2.1 1.1-3.6 2.8-2.2 2.5 12.9 0.7 14.7 0 1.7-0.8 2.5-15.7 4.4-19.4 1.5-3.1-1.6-3.9-3.9-4.6z"/>
			<path id="Path 2324" class="s12" d="m460.7 263h-38.2c-1.1 0-2-0.6-2.4-1.5l-15.5-33.3c-0.6-1.3 0-2.9 1.3-3.5 1.3-0.6 2.9-0.1 3.5 1.3l14.8 31.7h36.5c1.5 0 2.7 1.2 2.7 2.7 0 1.4-1.2 2.6-2.7 2.6z"/>
			<path id="Path 2325" class="s5" d="m468.7 251.7c-7.7-0.1-15.4-4.7-19.2-4-3.8 0.7-16.2 9.3-14.6 9.6 1.5 0.4 11.4-4.7 11.7-4.8 0.3-0.1 2.5 3.5 7.7 4.8 5.3 1.4 0.1-3.9 16.4 1 10.6 3.2-2-6.6-2-6.6z"/>
			<path id="Path 2326" class="s0" d="m531.9 198.1l1.1 9.1c0 0-10 0.6-15 3.4-5 2.8-12.3 10.9-12.3 10.9l6-10.3 0.9-6.6c0 0 19.3-6.5 19.3-6.5z"/>
			<path id="Path 2327" class="s0" d="m527.6 209.3c-7.4-1.4-10.9 5.2-15.7 16.1-4.8 10.9-13 24.1-14.7 25.8-1.6 1.7-27.5 0-27.5 0 0 0-0.8 7.5 0 8.4 0.8 0.9 5.3 0.8 5.3 0.8 0 0 1.8 1.4 3.4 2.5 1.7 1.1 15.9 3.3 22.5 2.9 6.7-0.3 12.7-0.9 13.6-1.9 0.9-1 18.9-28.8 20.1-38.7 1.1-10-3.2-15.2-7-15.9z"/>
			<path id="Path 2328" class="s3" d="m505.7 163.6c-14.1 0.6-11.8 21.8-11.8 21.8 0 0 3.6 1.1 11.2-0.2-0.5-2.2-0.3-8-0.3-8 0 0 0.9 4.7 2 7.5 1.6 0.8 3.5 0.1 6.6-0.6 1.6 6.7 6.1 9.5 9.2 10.5 3.4 1.1 7 2.3 11 0.3 4.1-2 1.9-22.6-0.3-26.7-3.2-6.3-8.5-11.8-17.8-8.9-4.6 1.5-9.8 4.3-9.8 4.3z"/>
			<path id="Path 2329" class="s3" d="m530.1 188.7l5.8 8.4c0 0-6.4 15.9 12.1 23.1 14.5 5.6 12.8 15.6 6.3 25.6-6.6 10 3.9 18.7 3.9 18.7 0 0 1.6-11.1 15.7-13.2 19.2-2.8 24.6-28.6 10.3-41.5-11.9-10.7-15.5-1.8-23.5-11.4-8.1-9.6-23.3-3.1-23.3-3.1l-5.5-8.1z"/>
			<path id="Path 2330" class="s10" d="m590.8 235.7q-0.1 0-0.2 0c-0.3-0.2-0.3-0.4-0.2-0.7 4.8-8.8 0.9-19.5-1.1-22.4q-0.3-0.5-0.6-1c-2-3-4.4-6.8-17.4-9.2-3.1-0.5-5.6-2.4-8.3-4.3-5.5-4.1-11.8-8.7-25.4-2.4-0.2 0.1-0.5 0-0.6-0.2-0.1-0.3 0-0.5 0.2-0.7 14.2-6.4 20.7-1.7 26.4 2.5 2.6 1.9 5 3.7 7.9 4.2 13.3 2.4 15.9 6.4 17.9 9.6q0.3 0.5 0.6 0.9c1.2 1.8 2.7 5.4 3.3 9.6 0.6 3.6 0.6 8.9-2.1 13.9-0.1 0.1-0.2 0.2-0.4 0.2z"/>
			<path id="Path 2331" class="s10" d="m527.1 197.2q-1.4 0-3-0.2c-4.9-0.8-11.5-3.5-12-19.2 0-0.2 0.2-0.5 0.4-0.5 0.3 0 0.5 0.2 0.5 0.5 0.2 6.5 1.5 11.2 3.8 14.2 1.8 2.3 4.2 3.6 7.4 4.1 4.6 0.7 7.6-0.2 9-2.6 0.2-0.2 0.4-0.2 0.7-0.1 0.2 0.1 0.3 0.4 0.1 0.6q-1.9 3.2-6.9 3.2z"/>
		</g>
		<g id="Group 587">
			<path id="Path 2332" class="s14" d="m88.5 208.3c-16.3 9.3-39 48.1-34.2 54.4 4.8 6.4 30.5-10.3 30.5-10.3z"/>
			<path id="Path 2333" class="s3" d="m119 163.4c-6.2-0.2-3.9-4.8-11.1-3-3.7 1-1 2.5-5.8 2-4.9-0.5-7.3-1-8 2.2-0.6 3.2-0.9 4.2-3.2 4.7-2.4 0.5-3.4 4.7 0 7.6 3.4 2.8 1.7 4 1 6.4-0.8 2.3 1.8 2.5 3.2 4.7 1.4 2.2-1.3 2.6 0.7 4.5 2 1.9 4.9 1.7 4.9 1.7l8.5-16.3c0 0 9.8-14.5 9.8-14.5z"/>
			<path id="Path 2334" class="s6" d="m245.9 358.7c0 0 9.1 0.3 16.1-2.5 7.1-2.8 11.9-7.1 10.6-2-1.3 5-7.1 13.7-12.1 14.5-5 0.9-6.8 6.4-9.6 6.4-2.7 0-6.8-6.4-13.8-9.6-6.5-2.9 8.8-6.8 8.8-6.8z"/>
			<path id="Path 2335" class="s6" d="m174.4 357.9c0 0 3.8 5.2 10.4 8.9 6.9 3.8 14.8 5.6 9.9 7.3-4.9 1.7-12.1 3-19.1 1-4.9-1.4-10.6-1.7-12.2-4-1.5-2.3 1.8-8.2 0.5-16.9-1.1-6.9 10.5 3.7 10.5 3.7z"/>
			<path id="Path 2336" class="s3" d="m131.9 273.3c0 0 52.6 19.7 56.8 25.2 4.2 5.5 59.5 55.6 59.5 59.3 0 3.7-9.4 10.4-9.4 10.4 0 0-47.4-29.1-59.2-43.9-11.7-14.7-40.5-21.9-55.7-23.2-15.3-1.4 8-27.8 8-27.8z"/>
			<path id="Path 2337" class="s4" d="m133.9 273.3c0 0 36-1.4 43.7 0 7.7 1.3 24.7 1.3 13.6 32.6-8.7 24.5-11.6 55.6-11.6 55.6l-17.3 4.2c0 0 0.7-55.8 9-70.7-6 1-17 3-32.3 7.3-28.4 8.1-43.9 4.1-43.9 4.1l-4.2-14.8c0 0 43-18.3 43-18.3z"/>
			<path id="Path 2338" class="s15" d="m103.9 180.4l-8.8 26 11.1 7.3 6.3-22.4z"/>
			<path id="Path 2339" class="s16" d="m107.2 210.2l5.3-18.9-8.6-10.9-3.2 9.5c1.1 8.6 3.8 15.7 6.5 20.3z"/>
			<path id="Path 2340" class="s15" d="m126.3 184.8c0.3 7.9-3.6 14.8-9.8 15.4-6.1 0.6-11.8-5.3-12.5-13.2-0.8-7.8 3.6-14.7 9.7-15.3 6.2-0.6 12.1 0.7 12.6 13.1z"/>
			<path id="Path 2341" class="s17" d="m90.9 205.6c-27 18.3-10.2 47.7-4.3 69.2 5 18.3 4.9 29.4 5.6 29.4 0.8 0 19.3-2.8 29.9-12.4 10.6-9.5 17.8-18.8 17.8-18.8 0 0-13.6-2.4-18-20-2.3-8.9-1.3-13.7-6.4-27.8-5.1-14.1-24.6-19.6-24.6-19.6z"/>
			<path id="Path 2342" class="s14" d="m90.9 205.6l2.9-7c0 0 9.1 6 12.8 8.9 3.6 2.8 5.9 3.5 5.9 3.5 0 0 1.3 10.1 0.4 9.2-10.8-11.6-22-14.6-22-14.6z"/>
			<g id="Group 586">
				<path id="Path 2343" class="s3" d="m78.9 378.9h2.4l16.9-70.5h-5.2z"/>
				<path id="Path 2344" class="s3" d="m149.5 378.9h-2.4l-19.4-73h5.2z"/>
				<path id="Path 2345" class="s3" d="m105.2 311c-9.5 0-15.5-1.7-19.3-5.4-4.7-4.6-5.7-11.7-5.7-21 0-19.5-1.1-23.6-6.6-35.5-0.6-1.3 0-2.9 1.3-3.5 1.3-0.6 2.9 0 3.5 1.3 5.8 12.6 7.1 17.2 7.1 37.7 0 9.4 1.2 14.4 4.1 17.3 3 2.9 8.4 4.1 17.5 3.8 8.9-0.2 14.9-1.4 19.8-2.4 6.4-1.3 11.1-2.2 16.6 0.4 1.3 0.6 1.8 2.2 1.2 3.5-0.6 1.3-2.2 1.9-3.5 1.2-3.9-1.8-7.2-1.2-13.2 0.1-5.1 1-11.4 2.3-20.7 2.5q-1.1 0-2.1 0z"/>
			</g>
			<path id="Path 2346" class="s7" d="m221.7 262.7h-38.3c-1.4 0-2.6-1.2-2.6-2.7 0-1.4 1.2-2.6 2.6-2.6h36.6l14.8-31.7c0.6-1.4 2.1-1.9 3.5-1.3 1.3 0.6 1.9 2.2 1.2 3.5l-15.4 33.3c-0.4 0.9-1.4 1.5-2.4 1.5z"/>
			<path id="Path 2347" class="s14" d="m91.9 232.2c0 0 6.7 20.5 15 29 8.3 8.4 25.1 11.3 30.3 11-4.2-1.7-12.1-6.5-15.3-19.2-2.3-8.9-1.3-13.7-6.4-27.8-3.8-10.5-15.5-16.2-21.3-18.4 7.2 5.2 16.3 13.7 19 20.2 3.1 7.3-21.3 5.2-21.3 5.2z"/>
			<path id="Path 2348" class="s15" d="m184.6 250.2c0 0 11.6-5.3 12.9-4.8 1.3 0.5 14.1 8.2 14.1 9.5 0 1.3-11.3-4.8-11.3-4.8 0 0 1.2 3.4 0.5 5-0.8 1.6-9.5 1.6-17.4 1.1-7.8-0.5 1.2-6 1.2-6z"/>
			<path id="Path 2349" class="s17" d="m92.2 216.3c-10.6 21.9 26 44.1 47.8 46.1 21.7 2 47.6-5.1 47.6-5.1l-3-7.1c0 0-43.5-5.7-44.6-6.5-1.1-0.8-43.8-35.4-47.8-27.4z"/>
			<path id="Path 2350" class="s15" d="m106.1 181.2c1 2.6 0.3 5.3-1.6 6-1.9 0.7-4.2-0.8-5.2-3.4-1-2.6-0.3-5.3 1.6-6 1.9-0.8 4.2 0.8 5.2 3.4z"/>
			<path id="Path 2351" class="s3" d="m126.3 164.5c3-1.2 6.3-2.6 5.3 2.5-0.5 2.2 0 1.5 0.7 3.6 0.8 2-1.9 3.5-2.8 4.7-0.9 1.1 1.3 2.3-0.5 3.7-1.8 1.3-4.2-0.5-5.8 0-5 1.4-4.4-2.5-7.2-3.3-2.8-0.8-4.2-0.7-4.7 1.1-0.6 1.8 1.9 7.7-0.2 7.1-2.1-0.5-2.6 4.2-3.2 6.9-0.5 2.7-2-1.8-1.9-4.9 0.1-4.7-1-6.7-2.8-8-1.7-1.3-2.5-13.3 5.9-13.8 8.5-0.4 8.5-1.3 12.1-2 3.6-0.8 3.8 3 5.1 2.4z"/>
		</g>
		<g id="Group 588">
			<path id="Path 2352" class="s17" d="m597.4 301.5c5.3 4.9 3 9.8-1 18.9-3.9 9.1-4.6 42.6-4.6 42.6l3.2-0.4c0 0-0.4-34.5 4-43.8 4.4-9.3 6.3-14 10.2-11 4 3.1-11.8-6.3-11.8-6.3z"/>
			<path id="Path 2353" class="s0" d="m594.4 295.2c0.7-2.9 4.5-6 9.7-8.7-0.8 4.3-3.2 11.3-0.7 12.7 3.4 1.9 0.3-7.8 1.7-13.2 4.8-2.3 10.7-4.3 16-5.2q0 0 0 0c-3 7.7-7 10.7-5.3 11.9 1.2 0.9 5.2-8 10.5-12.6 3.9-0.2 7.3 0.4 9.2 1.9 3.1 2.5 5.2 4.6 2.1 12-1.8 1.3-4.1 2.2-6.7 2.4-7 0.7-10.3 0.9-5.4 3.3 2.4 1.1 6.4-0.1 9.7-0.8q-1.6 2.9-3.9 6.6-1.5 2.4-3.3 4.2c-2.3 0.4-4.2 0.4-5.3 0-3.2-1.4-11.6-5.8-13.7-4-2 1.9 15.5 3 14.3 7.6-8.5 5-18.3 2.6-20-1.9-2.3-6-10.8-7.5-8.9-16.2z"/>
			<path id="Path 2354" class="s17" d="m612 328.3c-9.3-7-18.8-0.4-23.7 7-4.9 7.5-1.4 24.2-1.4 24.2 0 0 1.8 0 1.8-0.7 0-0.7-5.1-19.8 7-28.4 7.6-5.4 13.1-2.8 13.8-0.2 0.7 2.6-3.1 7.2-3.1 7.2 0 0 5.6-9.1 5.6-9.1z"/>
			<path id="Path 2355" class="s17" d="m590.6 314c9.3 0 12.3 14.4 9.8 22.8-2.6 8.4-6.1 24-6.1 24l-2.3-2.3c0 0 8.9-21.9 6.8-31.7-2.1-9.8-7.3-11.4-8.2-11.4-0.9 0 0-1.4 0-1.4z"/>
			<path id="Path 2356" class="s17" d="m598.4 336.9c0.7-0.9 1.5-1.6 2.5-2.1q-0.2 1-0.5 2c-1.2 3.8-2.5 9.1-3.7 13.8-0.1-0.6-0.2-1.5-0.5-2.9q-0.1-0.6-0.1-1.1c0.9-3.1 1.8-6.5 2.3-9.7z"/>
			<path id="Path 2357" class="s0" d="m601 336.9c17.7-7.4 8.3-17.7 23.9-10.9 1.1 0.5 2.5 1.7 3.8 3.3-1.4 0.4-3.1 0.7-4.9 0.4-4.7-0.7-3 3.1 4.6 4 1.5 0.2 2.7 0.4 3.6 0.7 3.7 7.1 5.4 16.3-2.4 19.5-1.5 0.7-3.4 1-5.5 1.2-2.4-1.9 0.6-12.9-3.1-11.4-3.6 1.5 1.1 9.4 0.5 11.4-3.5 0-7.4-0.6-11.1-1.5-1.5-0.8-2.6-1.9-2.9-3.4-1.2-4.9 6.5-7.9 6.7-12.1 0.2-3.8-2.8 8.5-10.8 10.3-7.3-3.4-10.7-8-2.4-11.5z"/>
			<path id="Path 2358" class="s0" d="m588.3 323.7c1.9-3.9-3-4.8-2.7-1.8 0.2 2.7 0.2 9.2-2.6 11-4.7-0.6-11.2-2.5-16.1-5.4q-0.1-0.6 0.3-1.2c2-4.2 15.6-7.7 11.4-9.1-3.4-1.1-9.2 5.5-13.9 8.8-2.9-2.2-4.8-4.7-4.8-7.6 0-3.8 4.7-8.2 10.8-10.3 2.8 0.3 5.3 1.8 9.3 4 5.8 3.3 4.5-2-1.1-5.2 4.8 0.2 9.6 2.3 13.1 7.1 0 0-0.3 2.1 1.9 5.4 6 8.8-0.9 13.9-9.3 13.6 0.5-2.3 2.5-6.5 3.7-9.3z"/>
			<path id="Path 2359" class="s17" d="m611.5 327.9c4.5 3.6 9.6 7.7 15.8 10.5 6.2 2.8 5 11.9 5 11.9 0 0 0.9-7.9-4.3-10.6-5.2-2.7-8.6-5.9-12.5-6.5-3.9-0.6-6.1-1.3-6.1-1.3 0 0 1.2-2.4 0.5-3.4-0.7-0.9 1.6-0.6 1.6-0.6z"/>
			<path id="Path 2360" class="s17" d="m633.9 286.6c-16.6 4.5-28.9 15.1-31.1 17.7-2.3 2.6-2.3 3.3-2.3 3.3l1.7 3.3 0.9-0.4c0 0-1.4-2.8 2.1-6.4 6.1-6.3 13.5-11.2 18.6-13.4 5-2.1 10.1-4.1 10.1-4.1z"/>
			<path id="Path 2361" class="s18" d="m594.3 378.9h-6.4c-4.5 0-8.2-3.7-8.2-8.2v-14.7h22.8v14.7c0 4.5-3.7 8.2-8.2 8.2z"/>
			<path id="Rectangle 597" class="s2" d="m579.7 358.6h22.8v1.6h-22.8z"/>
			<path id="Rectangle 598" class="s2" d="m579.7 361.6h22.8v0.9h-22.8z"/>
		</g>
		<g id="Group 600">
			<g id="Group 589">
				<path id="Path 2362" class="s17" d="m317.8 50.5c0-17.2-13.8-31.3-31-31.5-17.3-0.2-31.7 13.7-31.9 31-0.2 8.4 3 16.1 8.3 21.8 2.4 2.7 3.8 6.1 3.8 9.7v14.1c0 9.2 7.4 16.6 16.6 16.6h5.5c9.1 0 16.6-7.4 16.6-16.6v-14.1c0-3.6 1.4-7.1 3.9-9.7 5.1-5.6 8.2-13.1 8.2-21.3z"/>
				<path id="Path 2363" class="s19" d="m313.4 52.6c0-14.8-11.9-26.9-26.7-27.1-14.9-0.2-27.2 11.8-27.4 26.7-0.2 7.2 2.6 13.9 7.1 18.8 2.1 2.2 3.3 5.2 3.3 8.3v12.2c0 7.8 6.4 14.2 14.3 14.2h4.7c7.9 0 14.3-6.4 14.3-14.2v-12.2c0-3.1 1.2-6.1 3.3-8.4 4.4-4.8 7.1-11.2 7.1-18.3z"/>
				<path id="Path 2364" class="s2" d="m291 87.2h-10.4c-0.5 0-0.9-0.4-0.9-0.9 0-0.2-2-20.2-10.9-25.8-0.4-0.3-0.6-0.9-0.3-1.3 0.3-0.4 0.9-0.6 1.3-0.3 8.7 5.5 11.2 22.3 11.7 26.4h8.5c0-1.4 0.1-4.1 0.9-7.6 1-4.6 3.7-11.6 10.1-18.6 0.4-0.4 0.9-0.4 1.3-0.1 0.4 0.4 0.4 1 0.1 1.3-11.8 12.9-10.5 25.7-10.5 25.8 0.1 0.3 0 0.6-0.2 0.8-0.2 0.2-0.4 0.3-0.7 0.3z"/>
				<path id="Path 2365" fill-rule="evenodd" class="s2" d="m298.8 61.8c-3.5 0-8.3-2.5-13.3-5.2-6.5 3.5-12.6 6.6-16 4.5-1.6-1-2.3-2.8-2.3-5.8q0-4.1 2.3-5.5c3.4-2 9.5 1.2 16 4.7 6.6-3.5 12.8-6.8 16.1-4.8q2.3 1.5 2.3 5.6-0.1 4.4-2.5 5.8c-0.8 0.5-1.6 0.7-2.6 0.7zm-11.3-6.3c5.1 2.8 10.6 5.4 13 4q1.5-0.9 1.5-4.2 0-3.1-1.3-3.9c-2.3-1.4-8 1.3-13.2 4.1zm-15.4-4.4q-1 0-1.6 0.3-1.4 0.9-1.4 3.9-0.1 3.3 1.4 4.2c2.3 1.4 7.8-1.2 13-4-4.3-2.2-8.7-4.4-11.4-4.4z"/>
				<path id="Rectangle 599" class="s20" d="m279.8 112.4c0-2.2 1.8-4 4-4h5.7c2.3 0 4 1.8 4 4v0.3c0 2.2-1.7 4-4 4h-5.7c-2.2 0-4-1.8-4-4z"/>
				<path id="Path 2366" class="s20" d="m266.1 85.5v10c0 9.5 7.8 17.4 17.4 17.4h5.7c9.6 0 17.4-7.9 17.4-17.4v-10c0 0-40.5 0-40.5 0z"/>
				<path id="Rectangle 600" class="s17" d="m264.5 85.9c0-1.1 0.9-2 2-2h40.2c1.1 0 2 0.9 2 2v0.7c0 1.1-0.9 2-2 2h-40.2c-1.1 0-2-0.9-2-2z"/>
				<path id="Path 2367" class="s17" d="m306.6 92.2l-39.4 4.9c-1.2 0.1-2.4-0.8-2.5-2l-0.1-0.2c-0.1-1.3 0.8-2.4 2-2.6l39.4-4.8c1.3-0.2 2.4 0.7 2.5 1.9l0.1 0.3c0.1 1.2-0.8 2.4-2 2.5z"/>
				<path id="Path 2368" class="s17" d="m306.6 99.1l-39.4 4.9c-1.2 0.1-2.4-0.8-2.5-2l-0.1-0.2c-0.1-1.3 0.8-2.4 2-2.6l39.4-4.8c1.3-0.2 2.4 0.7 2.5 1.9l0.1 0.3c0.1 1.2-0.8 2.4-2 2.5z"/>
				<path id="Path 2369" class="s17" d="m304.2 106.5l-32.9 4c-1.1 0.2-2.1-0.6-2.3-1.8v-0.6c-0.2-1.1 0.6-2.2 1.8-2.3l32.8-4c1.1-0.2 2.2 0.6 2.3 1.8l0.1 0.6c0.1 1.1-0.7 2.2-1.8 2.3z"/>
			</g>
			<g id="Group 591">
				<path id="Path 2370" class="s0" d="m588.4 115.4h21.2c0 11.7-9.6 21.2-21.2 21.2-11.6 0-21.1-9.5-21.1-21.2 0-11.6 9.5-21.1 21.1-21.1z"/>
				<g id="Group 590">
					<path id="Path 2371" class="s9" d="m613.1 112.5c0-11.7-9.5-21.2-21.1-21.2v21.2z"/>
					<path id="Path 2372" class="s21" d="m570.8 112.5c0 11.7 9.5 21.1 21.2 21.1-11.7 0-21.2-9.5-21.2-21.1z"/>
					<path id="Path 2373" class="s21" d="m592 91.3c-11.7 0-21.2 9.5-21.2 21.2 0-11.6 9.5-21.2 21.2-21.2z"/>
					<path id="Path 2374" class="s21" d="m592 133.6c11.6 0 21.1-9.4 21.1-21.1 0 11.6-9.5 21.1-21.1 21.1z"/>
				</g>
			</g>
			<g id="Group 592">
				<path id="Rectangle 601" class="s22" d="m174.3 101.4h4.6v13.4h-4.6z"/>
				<path id="Rectangle 602" class="s22" d="m233.5 105.8h4.6v9h-4.6z"/>
				<path id="Rectangle 603" class="s22" d="m193.9 83.5h4.6v31.3h-4.6z"/>
				<path id="Rectangle 604" class="s22" d="m203.7 100.8h4.6v14h-4.6z"/>
				<path id="Rectangle 605" class="s22" d="m213.5 96.8h4.6v18h-4.6z"/>
				<path id="Rectangle 606" class="s22" d="m184.1 92.6h4.6v22.2h-4.6z"/>
				<path id="Rectangle 607" class="s22" d="m223.3 87.5h4.6v27.3h-4.6z"/>
			</g>
			<g id="Group 593" clip-path="url(#cp1)">
				<path id="Path 2375" class="s17" d="m51.1 76l-24.2-14.8-4.4 28.1c11.4 1.8 22.7-3.5 28.6-13.3z"/>
				<path id="Path 2376" class="s4" d="m51.1 76c0.1-0.1 0.2-0.2 0.2-0.2 5.1-8.6 5.3-19.3 0.6-28-8.6 4.5-3.5 1.8-25 13.4 24.2 14.9 20.5 12.6 24.2 14.8z"/>
				<path id="Path 2377" class="s22" d="m0.2 51.4l26.7 9.8 25-13.5c-11.7-21.6-43.2-19-51.7 3.7z"/>
				<path id="Path 2378" class="s6" d="m22.5 89.3l4.4-28.1-26.7-9.8c-6.3 17 4.9 35.2 22.3 37.9z"/>
				<path id="Path 2379" class="s2" d="m-1.5 56.1q0.7 0 1.3 0.3 0.4-1.9 1-3.8l14.5 5.4q0-0.1 0-0.1c-0.1-0.6 0.2-1.2 0.6-1.7l-1.5-0.6-12.9-4.7c1-2.6 2.4-5 4.1-7.1-0.6-0.2-1.1-0.6-1.4-1.2-1.8 2.3-3.4 4.8-4.5 7.6l-0.4 0.9-0.3 0.9q-0.7 2-1 4.1 0.2 0 0.5 0z"/>
				<path id="Path 2380" fill-rule="evenodd" class="s23" d="m52.4 75.7l-0.3 0.5q0 0 0 0v0.1c-0.1 0-0.1 0.1-0.2 0.2l-0.3 0.5-0.1 0.3h-0.1c-3 4.6-7.2 8.2-12.2 10.5-3.9 1.9-8.1 2.8-12.3 2.8q-1.8 0-3.6-0.2l-1-0.2-0.9-0.1c-8.3-1.6-15.5-6.7-19.9-14.2-2.6-4.4-3.9-9.4-4-14.4q0.5 0.2 1 0.2 0.5 0 0.9-0.2c0.1 4.7 1.3 9.3 3.7 13.5 4.1 6.9 10.8 11.7 18.6 13.2l4.1-26.4-5.6-2c0.5-0.5 0.7-1.1 0.7-1.8l5.2 1.9 0.1-0.2 0.7 0.4 0.2-0.1c3.7-2 6.6-3.5 8.9-4.8 3.5-1.9 5.7-3.1 7.2-3.9l7.4-4c-5.3-9-15-14.2-25.5-13.4-6 0.4-11.5 2.6-15.9 6.3-0.2-0.6-0.6-1.1-1.2-1.5 4.7-3.9 10.5-6.3 17-6.7 5.4-0.4 10.8 0.7 15.6 3.2 4.8 2.5 8.9 6.4 11.7 11.3l0.4 0.7q0 0 0 0.1l0.4 0.8c4.4 8.7 4.1 19.2-0.7 27.6zm-2.6 0.6l-3.6-2.2c-1.5-0.9-3.9-2.4-8.2-4.9l-10.4-6.4-4 25.7c10.3 1.3 20.4-3.4 26.2-12.2zm1.7-27.2q-1.1 0.6-2 1c-2.2 1.2-3.2 1.7-5.4 2.9l-15.3 8.3 18.4 11.3c2 1.2 2.4 1.4 3.4 2l0.2 0.1c4.4-7.8 4.7-17.5 0.7-25.6z"/>
			</g>
			<g id="Group 595">
				<path id="Path 2382" class="s17" d="m102.6 31.7c0-1.1 0.9-2 2-2h77.2c1.1 0 2 0.9 2 2v32.7c0 1.1-0.9 2-2 2h-77.2c-1.1 0-2-0.9-2-2z"/>
				<path id="Rectangle 608" class="s2" d="m104.8 46.4c0-3.9 3.1-7 7-7h62.8c3.9 0 7 3.1 7 7v11.3c0 3.9-3.1 7-7 7h-62.8c-3.9 0-7-3.1-7-7z"/>
				<g id="Group 594">
					<path id="Path 2383" class="s2" d="m106.6 32.4h1.8c0.4 0 0.7 0.3 0.7 0.7v1.5c0 0.4-0.3 0.7-0.7 0.7h-1.8c-0.4 0-0.7-0.3-0.7-0.7v-1.5c0-0.4 0.3-0.7 0.7-0.7z"/>
					<path id="Path 2384" class="s2" d="m112.4 32.4h1.8c0.4 0 0.7 0.3 0.7 0.7v1.5c0 0.4-0.3 0.7-0.7 0.7h-1.8c-0.4 0-0.7-0.3-0.7-0.7v-1.5c0-0.4 0.3-0.7 0.7-0.7z"/>
					<path id="Path 2385" class="s2" d="m118.2 32.4h1.8c0.4 0 0.7 0.3 0.7 0.7v1.5c0 0.4-0.3 0.7-0.7 0.7h-1.8c-0.4 0-0.7-0.3-0.7-0.7v-1.5c0-0.4 0.3-0.7 0.7-0.7z"/>
				</g>
				<path id="Path 2386" class="s20" d="m178.5 44.9h-40.6c-0.7 0-1.3-0.5-1.3-1.2 0-0.7 0.6-1.2 1.3-1.2h40.6c0.6 0 1.2 0.5 1.2 1.2 0 0.7-0.5 1.2-1.2 1.2z"/>
				<path id="Path 2387" class="s20" d="m147.9 63.7h-40.6c-0.7 0-1.2-0.6-1.2-1.3 0-0.6 0.5-1.2 1.2-1.2h40.6c0.7 0 1.2 0.6 1.2 1.2 0 0.7-0.5 1.3-1.2 1.3z"/>
				<path id="Rectangle 609" class="s20" d="m150.8 62.4c0-0.6 0.5-1.2 1.2-1.2h2.6c0.7 0 1.2 0.6 1.2 1.2 0 0.7-0.5 1.3-1.2 1.3h-2.6c-0.7 0-1.2-0.6-1.2-1.3z"/>
				<path id="Rectangle 610" class="s20" d="m157.1 62.4c0-0.6 0.6-1.2 1.2-1.2h2.6c0.7 0 1.3 0.6 1.3 1.2 0 0.7-0.6 1.3-1.3 1.3h-2.6c-0.6 0-1.2-0.6-1.2-1.3z"/>
				<path id="Path 2388" class="s20" d="m178.9 50.2h-67.3c-0.4 0-0.8-0.4-0.8-0.8 0-0.5 0.4-0.8 0.8-0.8h67.3c0.4 0 0.8 0.3 0.8 0.8 0 0.4-0.4 0.8-0.8 0.8z"/>
				<path id="Path 2389" class="s20" d="m178.9 53.8h-67.3c-0.4 0-0.8-0.4-0.8-0.9 0-0.4 0.4-0.8 0.8-0.8h67.3c0.4 0 0.8 0.4 0.8 0.8 0 0.5-0.4 0.9-0.8 0.9z"/>
			</g>
			<g id="Group 596">
				<path id="Path 2390" class="s24" d="m381.8 43h-34.7v-20.2h26.1c3.4 3.4 5.3 5.3 8.6 8.6 0 0 0 11.6 0 11.6z"/>
				<path id="Path 2391" class="s21" d="m372.6 22.8v10.8h9.2v-2.1l-8.6-8.6z"/>
				<path id="Path 2392" class="s24" d="m373.2 22.8v8.7h8.6z"/>
				<path id="Path 2393" class="s2" d="m366.5 30.4h-15.5c-0.3 0-0.6-0.3-0.6-0.6 0-0.3 0.3-0.6 0.6-0.6h15.5c0.3 0 0.6 0.3 0.6 0.6 0 0.3-0.3 0.6-0.6 0.6z"/>
				<path id="Path 2394" class="s2" d="m366.5 33.5h-15.5c-0.3 0-0.6-0.2-0.6-0.6 0-0.3 0.3-0.6 0.6-0.6h15.5c0.3 0 0.6 0.3 0.6 0.6 0 0.4-0.3 0.6-0.6 0.6z"/>
				<path id="Path 2395" class="s2" d="m366.5 36.8h-15.5c-0.3 0-0.6-0.2-0.6-0.6 0-0.3 0.3-0.6 0.6-0.6h15.5c0.3 0 0.6 0.3 0.6 0.6 0 0.4-0.3 0.6-0.6 0.6z"/>
			</g>
			<path id="Ellipse 73" class="s3" d="m363.4 25.4c-0.5 0-1-0.4-1-1 0-0.6 0.5-1.1 1-1.1 0.6 0 1.1 0.5 1.1 1.1 0 0.6-0.5 1-1.1 1z"/>
			<path id="Rectangle 611" class="s20" d="m211 19.6l21.6 4.2-5 26.1-21.6-4.2z"/>
			<path id="Path 2396" class="s2" d="m228.1 35.1l-11.5-2.2c-0.3-0.1-0.5-0.4-0.5-0.7 0.1-0.3 0.4-0.5 0.7-0.4l11.5 2.2c0.3 0 0.5 0.3 0.4 0.6 0 0.4-0.3 0.6-0.6 0.5z"/>
			<path id="Path 2397" class="s2" d="m227.5 38l-11.5-2.3c-0.3 0-0.5-0.3-0.4-0.6 0-0.3 0.3-0.5 0.7-0.5l11.4 2.3c0.3 0 0.5 0.3 0.5 0.6-0.1 0.3-0.4 0.5-0.7 0.5z"/>
			<path id="Path 2398" class="s2" d="m226.9 40.9l-11.4-2.2c-0.3-0.1-0.5-0.4-0.5-0.7 0.1-0.3 0.4-0.5 0.7-0.4l11.5 2.2c0.3 0.1 0.5 0.4 0.4 0.7-0.1 0.3-0.3 0.5-0.7 0.4z"/>
			<path id="Path 2399" class="s3" d="m220.3 23.1c-0.1 0.5-0.6 0.9-1.1 0.8-0.5-0.1-0.9-0.6-0.8-1.1 0.1-0.5 0.6-0.9 1.2-0.8 0.5 0.1 0.8 0.6 0.7 1.1z"/>
			<path id="Path 2400" class="s22" d="m397.8 71.3l-33.5-3.5 2.2-21 26.6 2.8c2.4 3 3.8 4.7 6.2 7.7 0 0-1.5 14-1.5 14z"/>
			<path id="Path 2401" class="s2" d="m392.6 51.1l-24.9-2.6-1.9 17.7 31 3.3 1.1-10.4-6.1-0.7z"/>
			<path id="Path 2402" class="s22" d="m389.2 57.5l-16.1-1.7c-0.4 0-0.7-0.3-0.6-0.7 0-0.4 0.4-0.7 0.7-0.6l16.2 1.7c0.4 0 0.6 0.4 0.6 0.7-0.1 0.4-0.4 0.7-0.8 0.6z"/>
			<path id="Path 2403" class="s22" d="m388.9 61.1l-16.2-1.7c-0.4 0-0.6-0.4-0.6-0.8 0.1-0.3 0.4-0.6 0.8-0.6l16.1 1.7c0.4 0.1 0.7 0.4 0.6 0.8 0 0.4-0.4 0.6-0.7 0.6z"/>
			<path id="Path 2404" class="s22" d="m388.5 64.8l-16.2-1.7c-0.3 0-0.6-0.4-0.6-0.7 0.1-0.4 0.4-0.7 0.8-0.6l16.1 1.7c0.4 0 0.7 0.3 0.6 0.7 0 0.4-0.4 0.7-0.7 0.6z"/>
			<path id="Ellipse 74" class="s3" d="m379.1 52.7c-0.6 0-1.1-0.5-1.1-1 0-0.6 0.5-1.1 1.1-1.1 0.5 0 1 0.5 1 1.1 0 0.5-0.5 1-1 1z"/>
			<g id="Group 597">
				<path id="Path 2405" class="s0" d="m552.7 46.8c-6.4 0-11.6-5.1-11.6-11.5 0-6.4 5.2-11.6 11.6-11.6 6.4 0 11.6 5.2 11.6 11.6 0 6.4-5.2 11.5-11.6 11.5z"/>
				<path id="Path 2406" class="s2" d="m551.6 39.2q0 0-0.1 0-0.2 0-0.4-0.2l-3.1-3.5c-0.2-0.3-0.2-0.6 0.1-0.8 0.2-0.2 0.5-0.2 0.7 0l2.8 3.1 6.3-6.1c0.2-0.2 0.6-0.2 0.8 0 0.2 0.2 0.2 0.6 0 0.8l-6.7 6.6q-0.2 0.1-0.4 0.1z"/>
			</g>
			<g id="Group 598">
				<path id="Rectangle 612" class="s6" d="m28.5 127.6c0-8.3 6.7-15 15-15h42.9c8.3 0 15 6.7 15 15 0 8.3-6.7 15-15 15h-42.9c-8.3 0-15-6.7-15-15z"/>
				<path id="Path 2407" class="s6" d="m92.6 138.1v16.6l-19.1-19.1c0 0 18.7 2.5 19.1 2.5z"/>
				<path id="Rectangle 613" class="s2" d="m32.2 127.6c0-6.6 5.4-12 12-12h41.4c6.6 0 12 5.4 12 12v0.1c0 6.6-5.4 12-12 12h-41.4c-6.6 0-12-5.4-12-12z"/>
				<path id="Path 2408" class="s6" d="m62 121.5h29.5c0.7 0 1.3-0.5 1.3-1.3 0-0.7-0.6-1.3-1.3-1.3h-29.5c-0.7 0-1.3 0.6-1.3 1.3 0 0.8 0.6 1.3 1.3 1.3z"/>
				<path id="Rectangle 614" class="s6" d="m92.8 125.8c0 0.4-0.3 0.7-0.7 0.7h-54.7c-0.5 0-0.8-0.3-0.8-0.7 0-0.4 0.3-0.8 0.8-0.8h54.7c0.4 0 0.7 0.4 0.7 0.8z"/>
				<path id="Rectangle 615" class="s6" d="m92.8 128.6c0 0.4-0.3 0.7-0.7 0.7h-54.7c-0.5 0-0.8-0.3-0.8-0.7 0-0.4 0.3-0.8 0.8-0.8h54.7c0.4 0 0.7 0.4 0.7 0.8z"/>
			</g>
			<g id="Group 599">
				<path id="Rectangle 616" class="s9" d="m523.4 118.9c0-1.6 1.3-2.8 2.8-2.8h0.6c1.6 0 2.8 1.2 2.8 2.8 0 1.5-1.2 2.8-2.8 2.8h-0.6c-1.5 0-2.8-1.3-2.8-2.8z"/>
				<path id="Path 2409" class="s9" d="m512.2 117.1c0-0.6 0.5-1 1-1h4.2c0.5 0 1 0.4 1 1v3.6c0 0.5-0.5 1-1 1h-4.2c-0.5 0-1-0.5-1-1z"/>
				<path id="Rectangle 617" class="s9" d="m501 118.9c0-1.6 1.2-2.8 2.8-2.8h0.6c1.5 0 2.8 1.2 2.8 2.8 0 1.5-1.3 2.8-2.8 2.8h-0.6c-1.6 0-2.8-1.3-2.8-2.8z"/>
			</g>
		</g>
	</g>
</svg>