<svg xmlns="http://www.w3.org/2000/svg" xmlns:xlink="http://www.w3.org/1999/xlink" width="693.41" height="400.89" viewBox="0 0 693.41 400.89">
  <defs>
    <linearGradient id="linear-gradient" x1="0.456" y1="-0.048" x2="0.616" y2="0.911" gradientUnits="objectBoundingBox">
      <stop offset="0" stop-color="#ffb8ab"/>
      <stop offset="1" stop-color="#f99d8a"/>
    </linearGradient>
    <linearGradient id="linear-gradient-2" x1="0.574" y1="-0.162" x2="0.375" y2="0.889" xlink:href="#linear-gradient"/>
    <linearGradient id="linear-gradient-3" x1="0.706" y1="0.578" x2="1.017" y2="0.719" xlink:href="#linear-gradient"/>
    <linearGradient id="linear-gradient-4" x1="3.578" y1="-1.447" x2="3.578" y2="0.02" xlink:href="#linear-gradient"/>
    <linearGradient id="linear-gradient-5" x1="0.5" y1="0.221" x2="0.5" y2="1.365" xlink:href="#linear-gradient"/>
    <linearGradient id="linear-gradient-6" x1="0.999" y1="-3.002" x2="0.999" y2="6.003" xlink:href="#linear-gradient"/>
    <linearGradient id="linear-gradient-7" y1="0.5" x2="4.126" y2="0.5" gradientUnits="objectBoundingBox">
      <stop offset="0" stop-color="#182c7e"/>
      <stop offset="1" stop-color="#1a0048"/>
    </linearGradient>
    <linearGradient id="linear-gradient-8" x1="0.134" y1="0.126" x2="0.82" y2="0.826" gradientUnits="objectBoundingBox">
      <stop offset="0" stop-color="#b5d9f8"/>
      <stop offset="1" stop-color="#8ec1f8"/>
    </linearGradient>
    <linearGradient id="linear-gradient-9" x1="0.698" y1="0.95" x2="0.218" y2="0.057" xlink:href="#linear-gradient"/>
    <linearGradient id="linear-gradient-10" x1="1.244" y1="3.921" x2="0.204" y2="-0.962" gradientUnits="objectBoundingBox">
      <stop offset="0" stop-color="#ffc39a"/>
      <stop offset="1" stop-color="#e8a38c"/>
    </linearGradient>
    <linearGradient id="linear-gradient-11" x1="5.497" y1="0.499" x2="-2.597" y2="0.499" gradientUnits="objectBoundingBox">
      <stop offset="0" stop-color="#fccfb0"/>
      <stop offset="1" stop-color="#fcba97"/>
    </linearGradient>
    <linearGradient id="linear-gradient-12" x1="0.064" y1="0.501" x2="-9.075" y2="0.501" xlink:href="#linear-gradient-11"/>
    <linearGradient id="linear-gradient-13" x1="-0.489" y1="0.374" x2="1.002" y2="0.534" xlink:href="#linear-gradient-10"/>
    <linearGradient id="linear-gradient-14" x1="-0.001" y1="0.5" x2="0.999" y2="0.5" xlink:href="#linear-gradient-10"/>
    <linearGradient id="linear-gradient-15" x1="0.023" y1="0.456" x2="1.001" y2="0.589" xlink:href="#linear-gradient-10"/>
    <linearGradient id="linear-gradient-16" x1="0" y1="0.5" x2="1" y2="0.5" xlink:href="#linear-gradient-10"/>
    <linearGradient id="linear-gradient-17" y1="0.5" x2="1" y2="0.5" gradientUnits="objectBoundingBox">
      <stop offset="0" stop-color="#ffe16f"/>
      <stop offset="1" stop-color="#ffbb3f"/>
    </linearGradient>
    <linearGradient id="linear-gradient-18" x1="0" y1="0.5" x2="1" y2="0.5" xlink:href="#linear-gradient-17"/>
    <linearGradient id="linear-gradient-19" x1="0" y1="0.5" x2="1" y2="0.5" xlink:href="#linear-gradient-17"/>
    <linearGradient id="linear-gradient-20" x1="0" y1="0.5" x2="1" y2="0.5" xlink:href="#linear-gradient-17"/>
    <linearGradient id="linear-gradient-21" x1="-3.841" y1="-2.395" x2="58.208" y2="38.997" gradientUnits="objectBoundingBox">
      <stop offset="0" stop-color="#ddf4ff"/>
      <stop offset="1" stop-color="#afe6ff"/>
    </linearGradient>
    <linearGradient id="linear-gradient-22" x1="-4.859" y1="-3.074" x2="33.197" y2="22.314" xlink:href="#linear-gradient-21"/>
    <linearGradient id="linear-gradient-23" x1="-0.001" y1="0.499" x2="1" y2="0.499" xlink:href="#linear-gradient-21"/>
    <linearGradient id="linear-gradient-24" x1="-0.002" y1="0.5" x2="1" y2="0.5" xlink:href="#linear-gradient-21"/>
    <linearGradient id="linear-gradient-25" x1="-103.503" y1="-68.882" x2="28.933" y2="19.468" xlink:href="#linear-gradient-21"/>
    <linearGradient id="linear-gradient-26" x1="-16.47" y1="-10.821" x2="69.062" y2="46.24" xlink:href="#linear-gradient-21"/>
    <linearGradient id="linear-gradient-27" x1="-16.469" y1="-10.821" x2="69.062" y2="46.24" xlink:href="#linear-gradient-21"/>
    <linearGradient id="linear-gradient-28" x1="-16.47" y1="-10.821" x2="69.062" y2="46.238" gradientUnits="objectBoundingBox">
      <stop offset="0" stop-color="#ddf4ff"/>
      <stop offset="1" stop-color="#d9ffff"/>
    </linearGradient>
    <linearGradient id="linear-gradient-29" x1="-50.131" y1="-33.277" x2="11.918" y2="8.117" xlink:href="#linear-gradient-21"/>
    <linearGradient id="linear-gradient-30" x1="-143.564" y1="-95.609" x2="1.332" y2="1.056" xlink:href="#linear-gradient-21"/>
  </defs>
  <g id="partners-graphics" transform="translate(11.4 9.4)">
    <g id="OBJECTS" transform="translate(-11.4 -9.4)">
      <g id="Group_906" data-name="Group 906">
        <path id="Path_3799" data-name="Path 3799" d="M25.5,441.044s-34.052-51.828-7.544-109.452c29.987-65.2,109.556-75.846,148.656-115.037S205.667,94.03,274.18,58.57c50.73-26.256,88.151-20.51,148.457,15.56s84.318,11.978,151.76,33.98c73.119,23.856,104.045,103.955,84.539,186.169-16.446,69.291,32.208,83.333,30,146.766Z" transform="translate(-7.856 -42.296)" fill="#ffe9e8"/>
        <g id="Group_875" data-name="Group 875" transform="translate(12.211 398.748)">
          <path id="Path_3800" data-name="Path 3800" d="M680.128,365.032H1.071a1.071,1.071,0,1,1,0-2.142H680.128a1.071,1.071,0,1,1,0,2.142Z" transform="translate(0 -362.89)" fill="#2c2c36"/>
        </g>
        <g id="Group_876" data-name="Group 876" transform="translate(197.489 58.919)">
          <path id="Path_3805" data-name="Path 3805" d="M427.9,97.439l-.214.193a10.6,10.6,0,0,1-13.9.2A133.9,133.9,0,0,0,211.41,266.164L218.2,261a1.727,1.727,0,0,1,2.774,1.285L222.827,297a1.728,1.728,0,0,1-2.281,1.735L187.578,287.7a1.738,1.738,0,0,1-.493-3.031l7.133-5.43c-.289-.5-.6-1-.889-1.5A155.325,155.325,0,0,1,427.647,81.512a10.541,10.541,0,0,1,.257,15.927Z" transform="translate(-172.985 -45.609)" fill="#fccbc8"/>
          <path id="Path_3806" data-name="Path 3806" d="M401.647,332.382A155.382,155.382,0,0,1,225.51,316.83a10.541,10.541,0,0,1-.257-15.927l.225-.2a10.6,10.6,0,0,1,13.9-.2A133.9,133.9,0,0,0,441.748,132.167l-6.791,5.163a1.727,1.727,0,0,1-2.774-1.285l-1.853-34.713a1.732,1.732,0,0,1,2.281-1.735l32.967,11.032a1.738,1.738,0,0,1,.493,3.031l-7.133,5.43c.289.5.6,1,.889,1.5a155.319,155.319,0,0,1-58.18,211.793Z" transform="translate(-169.519 -41.779)" fill="#fccbc8"/>
        </g>
        <g id="Group_877" data-name="Group 877" transform="translate(247.612 132.33)">
          <path id="Path_3807" data-name="Path 3807" d="M239.627,114.289a17.507,17.507,0,0,1,10.047,29.744l2.667,7.283a.725.725,0,0,1-1.125.825l-6.223-4.777a17.505,17.505,0,1,1-5.366-33.064Z" transform="translate(-219.782 -114.15)" fill="#fff"/>
          <path id="Path_3808" data-name="Path 3808" d="M241.79,130.389a2.549,2.549,0,1,0,2.549-2.549A2.548,2.548,0,0,0,241.79,130.389Z" transform="translate(-218.218 -113.177)" fill="#2c2c36"/>
          <circle id="Ellipse_114" data-name="Ellipse 114" cx="2.549" cy="2.549" r="2.549" transform="translate(14.961 14.663)" fill="#2c2c36"/>
          <path id="Path_3809" data-name="Path 3809" d="M225.71,130.389a2.549,2.549,0,1,0,2.549-2.549A2.548,2.548,0,0,0,225.71,130.389Z" transform="translate(-219.361 -113.177)" fill="#2c2c36"/>
        </g>
        <g id="Group_878" data-name="Group 878" transform="translate(94.104 214.803)">
          <rect id="Rectangle_908" data-name="Rectangle 908" width="50.512" height="32.85" rx="4.36" transform="translate(2.024 2.024)" fill="#fccbc8"/>
          <path id="Path_3896" data-name="Path 3896" d="M3.6,0H46.913a3.6,3.6,0,0,1,3.6,3.6V29.251a3.6,3.6,0,0,1-3.6,3.6H3.6a3.6,3.6,0,0,1-3.6-3.6V3.6A3.6,3.6,0,0,1,3.6,0Z" transform="translate(0 0)" fill="#ee4437"/>
          <path id="Path_3810" data-name="Path 3810" d="M97.553,201.96l6.694,3.867a1.136,1.136,0,0,1,0,1.971l-6.694,3.867a1.134,1.134,0,0,1-1.7-.985v-7.722a1.134,1.134,0,0,1,1.7-.985Z" transform="translate(-75.082 -190.392)" fill="#fff"/>
        </g>
        <g id="Group_881" data-name="Group 881" transform="translate(101.302 73.732)">
          <g id="Group_879" data-name="Group 879" transform="translate(385.692)">
            <path id="Path_3811" data-name="Path 3811" d="M497.615,89.194V84.021a1.165,1.165,0,0,0-1-1.157l-6.212-.964a1.18,1.18,0,0,1-.943-.835,19.661,19.661,0,0,0-1.649-3.974,1.176,1.176,0,0,1,.075-1.264L491.6,70.75a1.172,1.172,0,0,0-.118-1.521l-3.652-3.652a1.173,1.173,0,0,0-1.521-.118l-5.077,3.706a1.173,1.173,0,0,1-1.264.075,19.924,19.924,0,0,0-3.974-1.649,1.18,1.18,0,0,1-.835-.943l-.964-6.212a1.174,1.174,0,0,0-1.157-1h-5.173a1.165,1.165,0,0,0-1.157,1l-.964,6.212a1.18,1.18,0,0,1-.835.943,19.665,19.665,0,0,0-3.974,1.649,1.176,1.176,0,0,1-1.264-.075l-5.077-3.706a1.172,1.172,0,0,0-1.521.118l-3.652,3.652a1.173,1.173,0,0,0-.118,1.521l3.706,5.077a1.173,1.173,0,0,1,.075,1.264,19.925,19.925,0,0,0-1.649,3.974,1.18,1.18,0,0,1-.943.835l-6.212.964a1.174,1.174,0,0,0-1,1.157v5.173a1.165,1.165,0,0,0,1,1.157l6.212.964a1.18,1.18,0,0,1,.943.835,19.666,19.666,0,0,0,1.649,3.974,1.176,1.176,0,0,1-.075,1.264l-3.706,5.077a1.172,1.172,0,0,0,.118,1.521l3.652,3.652a1.173,1.173,0,0,0,1.521.118l5.077-3.706a1.173,1.173,0,0,1,1.264-.075,19.925,19.925,0,0,0,3.974,1.649,1.18,1.18,0,0,1,.835.943l.964,6.212a1.174,1.174,0,0,0,1.157,1h5.173a1.165,1.165,0,0,0,1.157-1l.964-6.212a1.18,1.18,0,0,1,.835-.943,19.665,19.665,0,0,0,3.974-1.649,1.176,1.176,0,0,1,1.264.075l5.077,3.706a1.172,1.172,0,0,0,1.521-.118l3.652-3.652a1.173,1.173,0,0,0,.118-1.521l-3.706-5.077a1.173,1.173,0,0,1-.075-1.264,19.92,19.92,0,0,0,1.649-3.974,1.18,1.18,0,0,1,.943-.835l6.212-.964A1.174,1.174,0,0,0,497.615,89.194Zm-27.162,8.815A11.407,11.407,0,1,1,481.86,86.6,11.409,11.409,0,0,1,470.453,98.009Z" transform="translate(-443.28 -59.44)" fill="#fccbc8"/>
            <path id="Path_3812" data-name="Path 3812" d="M469.623,100.606a14.813,14.813,0,1,1,14.813-14.813A14.831,14.831,0,0,1,469.623,100.606Zm0-29.037a14.224,14.224,0,1,0,14.224,14.224A14.243,14.243,0,0,0,469.623,71.569Z" transform="translate(-442.461 -58.62)" fill="#ffe9e8"/>
          </g>
          <g id="Group_880" data-name="Group 880" transform="translate(0 279.677)">
            <path id="Path_3813" data-name="Path 3813" d="M172.2,359.643l-10.368-1.607a1.965,1.965,0,0,1-1.585-1.392A32.618,32.618,0,0,0,157.491,350a1.96,1.96,0,0,1,.139-2.1l6.191-8.472a1.97,1.97,0,0,0-.2-2.549l-6.094-6.094a1.957,1.957,0,0,0-2.538-.2l-8.483,6.2a1.959,1.959,0,0,1-2.1.129,32.621,32.621,0,0,0-6.641-2.753,1.937,1.937,0,0,1-1.382-1.574l-1.617-10.368a1.95,1.95,0,0,0-1.939-1.66H124.2a1.958,1.958,0,0,0-1.939,1.66l-1.607,10.368a1.966,1.966,0,0,1-1.392,1.574,32.621,32.621,0,0,0-6.641,2.753,1.959,1.959,0,0,1-2.1-.129l-8.472-6.2a1.97,1.97,0,0,0-2.549.2l-6.094,6.094a1.97,1.97,0,0,0-.2,2.549l6.2,8.472a1.959,1.959,0,0,1,.129,2.1,32.617,32.617,0,0,0-2.753,6.641,1.965,1.965,0,0,1-1.574,1.392L84.84,359.643a1.958,1.958,0,0,0-1.66,1.939V365.9h26.305a19.033,19.033,0,0,1,38.066,0h26.295v-4.316a1.958,1.958,0,0,0-1.649-1.939Z" transform="translate(-83.18 -320.56)" fill="#fccbc8"/>
            <path id="Path_3814" data-name="Path 3814" d="M127.151,339.8a24.748,24.748,0,0,0-24.731,24.731h1a23.73,23.73,0,1,1,47.459,0h1a24.745,24.745,0,0,0-24.72-24.731Z" transform="translate(-81.813 -319.193)" fill="#ffe9e8"/>
          </g>
        </g>
        <g id="Group_886" data-name="Group 886" transform="translate(245.046 133.489)">
          <g id="Group_883" data-name="Group 883" transform="translate(0 0)">
            <path id="Path_3815" data-name="Path 3815" d="M292.56,343.409l3.245,10.218,6.137,4.67,5.6-3.267-.985-12.21" transform="translate(-212.044 -99.057)" fill="url(#linear-gradient)"/>
            <path id="Path_3816" data-name="Path 3816" d="M240.432,347.07l-.632,9.843s6.951,2.3,10.079,1.628l2.806-9.125Z" transform="translate(-215.794 -98.755)" fill="url(#linear-gradient-2)"/>
            <g id="Group_882" data-name="Group 882" transform="translate(24.156 114.185)">
              <path id="Path_3817" data-name="Path 3817" d="M309.536,358.348a11.931,11.931,0,0,1-4.959,1.371,32.963,32.963,0,0,1-8.622,0s-15.295-49.1-12.746-65.571c-1.4-2.956-3.331-7.872-5.495-13.656h0c-2.035-5.43-4.252-11.632-6.384-17.694-5.259-14.931-9.961-29.079-9.961-29.079L296,221.84s7.4,51.754,9.115,69.095c1.66,16.805,4.424,67.413,4.424,67.413Z" transform="translate(-238.417 -221.84)" fill="#ee4437"/>
              <path id="Path_3818" data-name="Path 3818" d="M277.054,278.134c-2.035-5.42-4.252-11.621-6.384-17.683l3.352-5.591Z" transform="translate(-237.756 -219.493)" fill="#e03326"/>
              <path id="Path_3819" data-name="Path 3819" d="M282.076,234.4l-33.385-.7s-1.778,50.9-2.174,57.72c0,0,.364,4.306-1.906,14.277-2.506,11.021-4.67,52.761-4.67,52.761a41.2,41.2,0,0,0,14.074,1.778S264.628,321.71,266.76,295.4c5.655-16.719,15.316-61,15.316-61Z" transform="translate(-239.94 -220.997)" fill="#ee4437"/>
            </g>
            <path id="Path_3820" data-name="Path 3820" d="M345.648,206.88c-.118.353-.557.6-.707,1a13.831,13.831,0,0,1-.407,1.553c-.171.321,2.206,1.092,2,1.36-.321.439-3.449.418-3.92.471a9.991,9.991,0,0,1-6.041-1.189,28.544,28.544,0,0,0-6.351-2.292c-6.137-.8-29.133-2.538-33.332-4.295-9.083-3.813-15.423-20.693-15.423-20.693l19.119-1.532s1.917,11.621,2.656,12.714,22.514,5.848,29.4,6.555a16.677,16.677,0,0,0,4.606-.171c1.178-.332,3.706-.835,5.205-.311a43.414,43.414,0,0,1,7.2,4.016s0,2.688-4.017,2.828Z" transform="translate(-212.832 -110.539)" fill="url(#linear-gradient-3)"/>
            <path id="Path_3821" data-name="Path 3821" d="M329.978,211.949a40.374,40.374,0,0,0,2.217-10.057l-28.1-7.476s-3.117-18.551-9.3-28.308c-1.382-2.185-2.667-4.006-3.556-4.477-8.429-4.456-10.668,25.288-10.668,25.288s5.013,11.493,12.221,18.326c5.377,5.1,37.187,6.694,37.187,6.694Z" transform="translate(-212.896 -111.967)" fill="#222229"/>
            <path id="Path_3822" data-name="Path 3822" d="M298.321,238.994s-1.446.482-38.012-.086c.536-2.067-11.075-49.451-10.978-52.986.086-2.774-3.363-18.508-2.153-20.939,1.671-3.374,8.954-5.912,16.291-7.851,5.527-1.457,11.782-2.753,11.782-2.753l9.436,3.47s7.337,4.156,8.665,5.527c1.157,5.088,2.089,46.677,2.356,55.878.086,2.6,2.592,19.74,2.592,19.74Z" transform="translate(-215.288 -112.45)" fill="#ffe9e8"/>
            <path id="Path_3823" data-name="Path 3823" d="M275.843,166.887c-7.615-1.478-13.463-8.815-13.463-8.815l1.928-.985a3.765,3.765,0,0,0,1.018-2.153c.675-6.726-2.024-13.624-2.024-13.624,4.723,3.331,10.978,5.323,14.052,6.426a38.067,38.067,0,0,0,.953,5.216,6.075,6.075,0,0,0,1.607,3.031C280.1,156.123,283.459,168.365,275.843,166.887Z" transform="translate(-214.189 -113.378)" fill="url(#linear-gradient-4)"/>
            <path id="Path_3824" data-name="Path 3824" d="M277.932,152.644c-5.366-1.125-10.272-6.994-10.272-6.994l9.318,1.767a38.067,38.067,0,0,0,.953,5.216Z" transform="translate(-213.814 -113.07)" fill="#e3a39a"/>
            <path id="Path_3825" data-name="Path 3825" d="M282.671,152.222a17.528,17.528,0,0,1-5.7-.718s-2.142-.846-4.98-2.185h0c-2.5-1.178-5.944-2.731-8.119-4.916-.011-.011-1.757-4.081-1.757-4.081-1.7-6.127.8-13.356,2.571-15.691,5.645-7.476,20.425-5.355,22.964,6.116a7.553,7.553,0,0,1,.086,2.688,38.507,38.507,0,0,0-.343,6.041c.107,3.845-2.249,12.574-4.723,12.735Z" transform="translate(-214.248 -114.875)" fill="url(#linear-gradient-5)"/>
            <path id="Path_3826" data-name="Path 3826" d="M281.022,130.76a22.226,22.226,0,0,1-2.7-.75c.525.182.76,1.778-1.542,1.671-2.164-.1-2.41,3.952-5.944,5.323a17.539,17.539,0,0,0,.364,6.4l-1.96-.2c-.246-1.092-.653-3.47-1.489-4.627v-.021a2.8,2.8,0,0,0-3.031-1.157c-.771.193-1.735,1.007-1.682,3.053a6.784,6.784,0,0,0,1.414,4.059c.332,2.678.964,5.355,1,6.212-.632-.064-8.054-15.488-7.133-22.4.707-5.334,4.049-7.294,6.941-7.294,1.457-6.019,8.686-6.309,12.328-5.441,3.406.814,5.495,2.485,9.372,4.4,4.456,2.2,6.351.953,6.726,3.042.75,4.177-3.6,9.9-12.639,7.722Z" transform="translate(-214.484 -115.232)" fill="#2c2c36"/>
            <path id="Path_3827" data-name="Path 3827" d="M322.891,363.6H293.372c-.878-1.532-.814-8,2.421-10.689,0,0,7.508,3.449,11.739,1.4,0,0,8.344,2.228,12.9,5,2.228,1.35,2.667,2.967,2.474,4.284Z" transform="translate(-212.021 -98.34)" fill="#2c2c36"/>
            <path id="Path_3828" data-name="Path 3828" d="M240.538,354.53s-4.091,2.206-6.758,3.813-2.71,5.141-2.71,5.141h22.235s0-6.309-1.907-8.4A20.8,20.8,0,0,1,240.538,354.53Z" transform="translate(-216.414 -98.225)" fill="#2c2c36"/>
            <path id="Path_3829" data-name="Path 3829" d="M267.291,136.731h0a.011.011,0,0,1-.011-.011h.011Z" transform="translate(-213.841 -113.705)" fill="url(#linear-gradient-6)"/>
            <path id="Path_3830" data-name="Path 3830" d="M275.951,169.071s-6.437,41.889-5.859,49.9,8.4,20.04,9.843,20.05c1.842.011,6.062-13.313,6.223-19.322s-6.276-51.09-6.276-51.09l-3.952.461Z" transform="translate(-213.644 -111.438)" fill="#ee4437"/>
            <path id="Path_3831" data-name="Path 3831" d="M265.348,153.65s5.816,6.244,12.949,8.29l-3.62,6.694S265.851,165.7,262.37,157.2l2.978-3.535Z" transform="translate(-214.19 -112.501)" fill="#2c2c36"/>
            <path id="Path_3832" data-name="Path 3832" d="M278.021,154.03s1.939,3.374-.771,7.883l2.71,5.559s3.213-6.351-.279-11.653a5.764,5.764,0,0,0-.7-.835Z" transform="translate(-213.132 -112.474)" fill="#2c2c36"/>
            <path id="Path_3833" data-name="Path 3833" d="M277.49,161.391l-3.62,6.694,1.81,1.5s3.063.043,3.952-.461l.578-2.185-2.71-5.559Z" transform="translate(-213.373 -111.952)" fill="#ee4437"/>
            <path id="Path_3834" data-name="Path 3834" d="M283.4,157.057s1.307.685,1.457,6.833c.279,12.167-4.466,44.8-4.466,44.8s-8.826-33.942-13.613-45.253a47.683,47.683,0,0,0-3.181-6.491s-9.79.075-16.891,5.27c-.728.536-1.135,1.9-1.478,2.849l3.631,22.46s5.163,25.695,2.463,42.479c-.857,5.323-5.612,20.939-5.612,20.939s8.515,3.042,13.538,3.192c16.934.5,20.168-4.573,21.379-7.412a36.371,36.371,0,0,0,1.478-6.866s2.142,5.355,3.3,6.866c4.616,6,16.462,4.177,16.462,4.177s-3.277-16.634-4.231-26.637c-.964-10.1.268-40.572.268-40.572s-1.018-14.052-4.124-21.743c-2-1.66-7.583-4.573-10.357-4.884Z" transform="translate(-215.408 -112.267)" fill="#2c2c36"/>
            <path id="Path_3835" data-name="Path 3835" d="M221.811,195.141c-4.22,11.739,21.914,37.059,21.914,37.059a52.7,52.7,0,0,0,9.286-7.562l-15.22-25.609,12.756-12.039-3.631-22.46c-7.851,6.437-21.314,20.072-25.106,30.611Z" transform="translate(-217.105 -111.728)" fill="url(#linear-gradient-7)"/>
            <rect id="Rectangle_910" data-name="Rectangle 910" width="38.633" height="53.35" rx="2.01" transform="translate(44.839 83.921) rotate(57.19)" fill="url(#linear-gradient-8)"/>
            <path id="Path_3836" data-name="Path 3836" d="M262.375,233.7c2.367,1.435,4.081.7,3.577-.321a14.212,14.212,0,0,0-3.9-3.567c-.943-.5-3.288-1.339-4.445-1.778-.407-.15-1.039-.428-1.682-.707a7.941,7.941,0,0,1-3.62-3.245c-3.449-5.912-12.864-22.128-14.524-25.77,3.4-3.513,6.416-6.384,10.089-10.068.611-.611-11.332-13.538-11.332-13.538s-15.648,16.816-14.909,21.946c1.8,12.489,25.92,34.5,25.92,34.5.45,1.028,3.749,7.572,3.749,7.572s1.6,2.024,2.292,2.753a12.155,12.155,0,0,0,3.706,2.26c.311.011.514-.118.546-.353a8.176,8.176,0,0,0,2.667,1.4c.664.032,1.039-.343.91-.964a5.209,5.209,0,0,0,1.778.825c1.082.054,1.414-.975,0-2.388s-3.6-3.46-3.6-3.46h0a4.827,4.827,0,0,0,.525.418,18.722,18.722,0,0,0,4.391,2.142c1.082.161.975-.7.546-1.564s-1.767-1.264-2.924-2.346a30.828,30.828,0,0,1-3.031-3.9,10.949,10.949,0,0,1,3.3.139Z" transform="translate(-217.087 -111.005)" fill="url(#linear-gradient-9)"/>
            <path id="Path_3837" data-name="Path 3837" d="M221.811,195.31c-4.22,11.739,21.914,37.059,21.914,37.059a52.7,52.7,0,0,0,9.286-7.562L237.791,199.2l14.534-12.189-4.252-24.849c-7.851,6.437-22.471,22.61-26.263,33.15Z" transform="translate(-217.105 -111.897)" fill="#222229"/>
            <path id="Path_3838" data-name="Path 3838" d="M287.5,173.523s2.956,3.406,2.8,4.306c-.3,1.724-10.9,36.2-10.9,36.2a90.479,90.479,0,0,0-6.159-11.675c-3.7-5.784-13.324-21.593-12.981-22.749s4.573-5.537,4.573-5.537-5.677-1.981-5.527-3.481c.129-1.5,1.714-13.367,1.714-13.367,1-.193,1.585-.257,1.585-.257a50.356,50.356,0,0,1,3.181,6.491c4.788,11.31,13.613,45.253,13.613,45.253s4.745-32.635,4.466-44.8c-.139-6.148-2.2-7-2.2-7a10.233,10.233,0,0,1,2.506.6c1.81,2.678,6.534,11.385,6.394,12.414s-3.074,3.62-3.074,3.62Z" transform="translate(-214.408 -112.27)" fill="#222229"/>
          </g>
          <g id="Group_885" data-name="Group 885" transform="translate(80.494 2.917)">
            <path id="Path_3839" data-name="Path 3839" d="M358.3,181.674s-9.329,6.009-15.338,5.677c-2.378-.129-8.526-2.5-15.048-5.291s-13.442-6.041-17.4-7.937c0,0-4.841-.557-7.112-.514a21.33,21.33,0,0,1-6.384-1.478,41.066,41.066,0,0,0-3.074-6.062c-.482-.76-.964-1.489-1.4-2.121.15-.225.5-.214,1.06-.129,1.307.2,4.456,1.135,4.456,1.135l1.6.182c1.6.171,2.956.225,2.956.225a15.726,15.726,0,0,1-3.235-1.864c-.771-.771-.771-1.821,0-1.6a17.683,17.683,0,0,1,4.691,1.05c2.185.953,2.281,1.96,3.417,2.9a22.463,22.463,0,0,0,2.174,1.628c2.967.653,10.014,2.206,15.263,3.256,6.833,1.371,17.758,4.466,17.758,4.466l7.776-5.195,7.84,11.653Z" transform="translate(-292.54 -114.834)" fill="url(#linear-gradient-10)"/>
            <path id="Path_3840" data-name="Path 3840" d="M368.651,363.518a.439.439,0,0,0-.075.021H342.142c-.225-.118-.193-.214-.193-.214s-.482-.546.332-1.864c.8-1.3,5.612-2.517,8.59-3.128,3.331-1.971,7.069-4.584,7.069-4.584,3.3,1.285,9.233.2,9.233.2,2.421,2.324,2.742,9.158,1.489,9.565Z" transform="translate(-289.039 -101.198)" fill="#ee4437"/>
            <path id="Path_3841" data-name="Path 3841" d="M424.627,355.685a16.63,16.63,0,0,1-4.4,2.849c-.985.45-4.4,2.431-7.776,4.381a9,9,0,0,1-4.381,1.146h-5.527c-1.028,0-1.4-.707-1.371-1.146.075-1.157,1.05-2.131,2.667-2.431.4-.075,2.035-1.735,5.537-4.038a41.8,41.8,0,0,0,2.421-5.3,17.2,17.2,0,0,0,7.894-2.913C422.827,349.1,424.187,353.468,424.627,355.685Z" transform="translate(-284.82 -101.59)" fill="#ee4437"/>
            <path id="Path_3842" data-name="Path 3842" d="M356.6,349.87c.1,1.457.193,2.849.278,4.156,2.571,1.2,6.351,1.092,9.233.214.171-.525.5-1.778.964-3.6a37.013,37.013,0,0,1-10.464-.771Z" transform="translate(-287.987 -101.474)" fill="url(#linear-gradient-11)"/>
            <path id="Path_3843" data-name="Path 3843" d="M371.617,156.25l-6.673,22.9c-1.028.793-2.174,1.639-3.352,2.474-2.421,1.735-4.97,3.417-6.8,4.616h0c-1.564,1.028-2.6,1.682-2.6,1.682-5.987-5.859-10.057-14.963-10.057-14.963s10.539-8.1,17.383-11.964a41.137,41.137,0,0,1,12.092-4.745Z" transform="translate(-289.016 -115.234)" fill="#ee4437"/>
            <path id="Path_3844" data-name="Path 3844" d="M361.095,174.777l-.353,5.6c-2.421,1.735-4.97,3.417-6.8,4.616l5.366-11.225,1.778,1.007Z" transform="translate(-288.176 -113.989)" fill="#e03326"/>
            <path id="Path_3845" data-name="Path 3845" d="M377.377,221.9c-4.306-6.266-15.445-3.16-19.129-1.789-1.66.653-4.616,49.226-5.238,72.865-.021,1.06,1.532,42.564,3.106,66.545a67.072,67.072,0,0,0,13.506.718c2.249-18.208,6.287-57.27,2.8-65.249,1.082-3.5,3.706-14.652,5.859-24.153.846-3.77,1.628-7.273,2.2-9.95.525-2.431.9-4.177,1-4.777a48.824,48.824,0,0,0,.557-5.12c.546-8.826-.161-22.514-4.648-29.09Z" transform="translate(-288.243 -110.837)" fill="#2c2c36"/>
            <path id="Path_3846" data-name="Path 3846" d="M419.075,348.452c-.1-.878-.171-2-.246-3.342h0a22.653,22.653,0,0,1-9.029,2.945h0c.868,2,1.371,3.2,1.382,3.3,0,0,5.1.225,7.894-2.913Z" transform="translate(-284.207 -101.812)" fill="url(#linear-gradient-12)"/>
            <path id="Path_3847" data-name="Path 3847" d="M422.159,353.675C420.477,341,414,304.1,405.472,295.976c-.439-7.465.975-40.626,1.082-43.6.375-11.268-4.295-25.695-10.154-30.793l-25.77.536,7.4,33.5c2.6,10.432,5.28,33.428,9.286,43.732.343.878,18.155,47.341,22.921,58.373a58.127,58.127,0,0,0,7.508-1.5c3.8-1.082,4.413-2.549,4.413-2.549Z" transform="translate(-286.99 -110.591)" fill="#2c2c36"/>
            <path id="Path_3848" data-name="Path 3848" d="M363.143,160.187c1.21-1.7,5.73-3.513,9.468-4.424a30.652,30.652,0,0,1,13.174.461c6.448,1.671,11.546,4.059,13.024,5.869,2.742,3.374,4.745,5.473.343,34.424-.943,6.212-.8,20.832-.8,24.527s1.307,5.473.375,6.544c-2.067,2.4-18.894,3.824-25.545,3.824-5.912,0-15.991-1.574-16.505-3.47-.407-1.51,1.553-16.848,1.628-33.846.129-28.972,3.749-32.657,4.831-33.889Z" transform="translate(-287.986 -115.304)" fill="#ee4437"/>
            <path id="Path_3849" data-name="Path 3849" d="M373.515,160.71s-7.765,45.82-7.915,51.272,5.559,15.841,6.362,15.841c1.767,0,5.077-8.054,6.116-15.016s-1.071-51.818-1.071-51.818l-3.492-.278Z" transform="translate(-287.348 -114.917)" fill="#fccbc8"/>
            <g id="Group_884" data-name="Group 884" transform="translate(75.152)">
              <path id="Path_3850" data-name="Path 3850" d="M384.724,157.692a11.019,11.019,0,0,1-13.174-.461s.868-1.66,1.018-1.949a15.212,15.212,0,0,0,1.6-4.113c.043-.139.064-.289.107-.45a17.541,17.541,0,0,0,.182-6.009l.664-.536,10.925-8.59,1.242-.975s-.364,2.089-.857,5.141c-.279,1.735-.6,3.77-.921,5.912-.632,4.359-.76,12.017-.76,12.017Z" transform="translate(-362.077 -116.772)" fill="url(#linear-gradient-13)"/>
              <path id="Path_3851" data-name="Path 3851" d="M382.232,145.262h0c-1.564,2.281-5.088,6.812-9.7,9.35a15.211,15.211,0,0,0,1.6-4.113,10.038,10.038,0,0,1-2.014.386c.032-.5.054-1.018.043-1.564l.728-.439,1.639-.8,8.622-4.2s-.311.536-.91,1.382Z" transform="translate(-362.037 -116.113)" opacity="0.5" fill="url(#linear-gradient-14)"/>
              <path id="Path_3852" data-name="Path 3852" d="M365.491,128.52s-1.467,4.381,1.928,7.337l1.189-7.1-3.117-.236Z" transform="translate(-362.53 -117.205)" fill="#2c2c36"/>
              <path id="Path_3853" data-name="Path 3853" d="M384.472,144.494a22.05,22.05,0,0,1-1.789,2.206h0a19.81,19.81,0,0,1-3.545,3.074,14.946,14.946,0,0,1-4.563,2.164,10.038,10.038,0,0,1-2.014.386,7.664,7.664,0,0,1-4.595-.868c-2.721-4.038-2.624-10.593-2-15.563.246-2.014.578-3.759.835-4.991.236-1.114.428-1.767.428-1.767.011-.054.011-.086.021-.129,1.178-6.416,9.757-6.641,15.659-3.031a10.918,10.918,0,0,1,1,.685,11.381,11.381,0,0,1,3.8,4.466c1.382,3.031.536,6.48-.878,9.415-.075.161-.15.311-.236.471a28.1,28.1,0,0,1-2.131,3.492Z" transform="translate(-362.499 -117.552)" fill="url(#linear-gradient-15)"/>
              <path id="Path_3854" data-name="Path 3854" d="M385.192,123.573a5.841,5.841,0,0,0-3.117-4.809c-5.923-3.063-10.325,3.749-16.944,1.253-3.556-1.35-3.235,8.718,1.178,10.989a13.309,13.309,0,0,0,11.8.578,5.5,5.5,0,0,0,.536,3.17,8.582,8.582,0,0,0,2.538,2.035c-.129,1.114-.214,2.131-.225,2.913l1.167.632a16.532,16.532,0,0,0,.8-1.628s1.082-2.71,3.063-2.463c1.96.246.386,7.54.118,10.614,0,0,4.509-3.213,6.169-12.821,1.489-8.547-3.47-12.6-7.09-10.454Z" transform="translate(-362.705 -117.955)" fill="#2c2c36"/>
            </g>
            <path id="Path_3855" data-name="Path 3855" d="M395.235,190.758s-9.5,14.866-12.96,16.173c-6.887,2.624-26.166,2.656-33.235,2.571-1.285.321-4.2,1.724-5.837,1.7a11.516,11.516,0,0,1-2.346-.4c-.857-.214-1.671-.471-2.2-.643a8.488,8.488,0,0,1-3.2-1.521,1.706,1.706,0,0,1-.386-.75,8.888,8.888,0,0,1-.8-.461.765.765,0,0,1-.246-.632c-1.167-.375-1.2-1-1.018-1.307s1.178-.386,1.178-.386a.84.84,0,0,1,.664-.611c.4-.129,4.07-.278,4.1-.289a9.671,9.671,0,0,0,3.9,1.275c1.457-.086,2-.75,1.467-1.242a9.517,9.517,0,0,0-1.832-1.114.512.512,0,0,1-.086-.043,22.117,22.117,0,0,1-3.6-2.142c-1-.868-.493-1.4-.182-1.553a17.746,17.746,0,0,1,4.113.643c1.253.471,6.234,3.02,6.234,3.02l26.991-7.294,5.184-9.94,14.117,4.938Z" transform="translate(-289.67 -113.132)" fill="url(#linear-gradient-16)"/>
            <path id="Path_3856" data-name="Path 3856" d="M390.593,198.668s-2.613.311-9.961-4.22a35.269,35.269,0,0,1-5.462-4.5c2.549-5.205,4.531-9.222,11.086-22.375,2.892-5.816,9.458-5.944,9.458-5.944s5.195,1.971,5.195,12.307c0,8.237-5.687,16.934-10.314,24.72Z" transform="translate(-286.668 -114.852)" fill="#e03326"/>
            <path id="Path_3857" data-name="Path 3857" d="M378.879,259.061c-.568,2.678-1.339,6.169-2.2,9.95L375.43,243.82Z" transform="translate(-286.649 -109.011)"/>
            <path id="Path_3858" data-name="Path 3858" d="M384.549,153.9s-3.277,2.4-9.629,2.217l1.96,4.306s5.7-.278,8.515-3.856l-.846-2.656Z" transform="translate(-286.685 -115.401)" fill="#2c2c36"/>
            <path id="Path_3859" data-name="Path 3859" d="M372.335,154.38a4.193,4.193,0,0,0,2.86,1.7l-2.228,3.556a5.671,5.671,0,0,1-1.907-3.684l1.275-1.574Z" transform="translate(-286.96 -115.367)" fill="#2c2c36"/>
            <path id="Path_3860" data-name="Path 3860" d="M375.068,155.97l-2.228,3.556.161,1.521,3.5.278.525-1.05Z" transform="translate(-286.833 -115.254)" fill="#fccbc8"/>
          </g>
        </g>
        <g id="Group_890" data-name="Group 890" transform="translate(163.263 145.43)">
          <g id="Group_887" data-name="Group 887" transform="translate(336.819 112.184)">
            <rect id="Rectangle_911" data-name="Rectangle 911" width="16.602" height="61.404" transform="translate(0 79.73)" fill="#ee4437"/>
            <rect id="Rectangle_912" data-name="Rectangle 912" width="16.602" height="75.5" transform="translate(28.812 65.646)" fill="#ee4437"/>
            <rect id="Rectangle_913" data-name="Rectangle 913" width="16.602" height="89.584" transform="translate(57.634 51.551)" fill="#ee4437"/>
            <rect id="Rectangle_914" data-name="Rectangle 914" width="16.602" height="103.679" transform="translate(86.446 37.466)" fill="#ee4437"/>
            <path id="Path_3861" data-name="Path 3861" d="M556.984,231.12l-24.324,8.237L539.612,243c-8.59,9.008-36.309,35.152-79.6,47.984,0,0,50.18-4.445,85.568-41.043l2.26,7.808L557,231.12Z" transform="translate(-455.179 -231.12)" fill="#2c2c36"/>
          </g>
          <g id="Group_888" data-name="Group 888" transform="translate(360.436 27.055)">
            <rect id="Rectangle_915" data-name="Rectangle 915" width="52.161" height="33.107" rx="2.67" transform="translate(3.61 2.613)" fill="#fccbc8"/>
            <path id="Path_3862" data-name="Path 3862" d="M510.785,153.086l-3.524,5.334a3.239,3.239,0,0,1-2.7,1.446H480.785a3.232,3.232,0,0,0-3.235,3.235v32.261a3.232,3.232,0,0,0,3.235,3.235h52.932a3.232,3.232,0,0,0,3.235-3.235V154.875a3.232,3.232,0,0,0-3.235-3.235H513.484A3.253,3.253,0,0,0,510.785,153.086Z" transform="translate(-477.55 -151.64)" fill="#2c2c36"/>
            <path id="Path_3863" data-name="Path 3863" d="M505.826,200.958H478.964a1.412,1.412,0,0,1-1.414-1.414h0a1.412,1.412,0,0,1,1.414-1.414h26.862a1.412,1.412,0,0,1,1.414,1.414h0A1.412,1.412,0,0,1,505.826,200.958Z" transform="translate(-477.55 -148.336)" fill="#fccbc8"/>
            <path id="Path_3864" data-name="Path 3864" d="M511.846,206.008H478.964a1.412,1.412,0,0,1-1.414-1.414h0a1.412,1.412,0,0,1,1.414-1.414h32.882a1.412,1.412,0,0,1,1.414,1.414h0A1.412,1.412,0,0,1,511.846,206.008Z" transform="translate(-477.55 -147.977)" fill="#fccbc8"/>
            <path id="Path_3865" data-name="Path 3865" d="M518.787,206.008h-4.413a1.412,1.412,0,0,1-1.414-1.414h0a1.412,1.412,0,0,1,1.414-1.414h4.413a1.412,1.412,0,0,1,1.414,1.414h0A1.412,1.412,0,0,1,518.787,206.008Z" transform="translate(-475.033 -147.977)" fill="#fccbc8"/>
            <path id="Path_3866" data-name="Path 3866" d="M489.589,211.068H478.964a1.412,1.412,0,0,1-1.414-1.414h0a1.412,1.412,0,0,1,1.414-1.414h10.625A1.412,1.412,0,0,1,491,209.654h0A1.412,1.412,0,0,1,489.589,211.068Z" transform="translate(-477.55 -147.618)" fill="#fccbc8"/>
            <path id="Path_3867" data-name="Path 3867" d="M533.406,200.958H508.654a1.412,1.412,0,0,1-1.414-1.414h0a1.412,1.412,0,0,1,1.414-1.414h24.752a1.412,1.412,0,0,1,1.414,1.414h0A1.412,1.412,0,0,1,533.406,200.958Z" transform="translate(-475.44 -148.336)" fill="#fccbc8"/>
          </g>
          <g id="Group_889" data-name="Group 889">
            <path id="Path_3868" data-name="Path 3868" d="M188.939,153.22A23.961,23.961,0,0,1,146.5,168.483h0A23.969,23.969,0,1,1,188.96,153.22Z" transform="translate(-141.03 -126.175)" fill="#222229"/>
            <path id="Path_3869" data-name="Path 3869" d="M189.716,152.7a25.842,25.842,0,0,1-1.285,8.129L163.4,152.7V126.38A26.316,26.316,0,0,1,189.716,152.7Z" transform="translate(-139.44 -126.38)" fill="#ee4437"/>
            <path id="Path_3870" data-name="Path 3870" d="M164.837,150.95l-8.558,27.794A28.3,28.3,0,0,1,143.03,169.8h0l21.807-18.851Z" transform="translate(-140.888 -124.634)" fill="#ee4437"/>
          </g>
        </g>
        <g id="Group_904" data-name="Group 904" transform="translate(149.639 36.517)">
          <g id="Group_891" data-name="Group 891" transform="translate(0 218.086)">
            <circle id="Ellipse_115" data-name="Ellipse 115" cx="25.834" cy="25.834" r="25.834" fill="url(#linear-gradient-17)"/>
            <circle id="Ellipse_116" data-name="Ellipse 116" cx="25.834" cy="25.834" r="25.834" fill="#f8847b"/>
            <circle id="Ellipse_117" data-name="Ellipse 117" cx="24.924" cy="24.924" r="24.924" transform="translate(0.91 0.91)" fill="#ee4437"/>
            <circle id="Ellipse_118" data-name="Ellipse 118" cx="21.068" cy="21.068" r="21.068" transform="translate(4.766 4.766)" fill="#f8847b"/>
            <path id="Path_3895" data-name="Path 3895" d="M20.19,0A20.375,20.375,0,0,1,30.866,3.05,20.194,20.194,0,1,1,20.19,0Z" transform="translate(5.645 5.645)" fill="#ee4437"/>
            <path id="Path_3871" data-name="Path 3871" d="M153.8,251.78c-2.956-1.221-3.8-1.971-3.8-3.331,0-1.092.793-2.378,3.031-2.378a7.464,7.464,0,0,1,3.931,1.06l.471.268,1.157-3.053-.343-.2a9.1,9.1,0,0,0-4.059-1.2V239.72h-2.978v3.406c-3.042.643-4.98,2.838-4.98,5.7,0,3.417,2.763,4.97,5.73,6.137,2.442,1,3.438,2,3.438,3.5,0,1.628-1.425,2.774-3.46,2.774a8.322,8.322,0,0,1-4.488-1.339l-.493-.332-1.114,3.1.289.2a9.812,9.812,0,0,0,4.852,1.521v3.352h3.01v-3.513a6.167,6.167,0,0,0,5.216-5.987c0-2.945-1.617-4.927-5.4-6.469Z" transform="translate(-127.064 -227.499)" fill="#ffe9e8"/>
          </g>
          <g id="Group_892" data-name="Group 892" transform="translate(367.632 94.48)">
            <circle id="Ellipse_120" data-name="Ellipse 120" cx="12.199" cy="12.199" r="12.199" transform="translate(0 9.404) rotate(-22.67)" fill="url(#linear-gradient-18)"/>
            <circle id="Ellipse_121" data-name="Ellipse 121" cx="12.199" cy="12.199" r="12.199" transform="translate(0 9.404) rotate(-22.67)" fill="#f8847b"/>
            <path id="Path_3898" data-name="Path 3898" d="M11.771,0A11.771,11.771,0,1,1,0,11.771,11.771,11.771,0,0,1,11.771,0Z" transform="translate(1.818 24.77) rotate(-76.78)" fill="#ee4437"/>
            <circle id="Ellipse_123" data-name="Ellipse 123" cx="9.95" cy="9.95" r="9.95" transform="matrix(0.884, -0.468, 0.468, 0.884, 2.521, 11.873)" fill="#f8847b"/>
            <circle id="Ellipse_124" data-name="Ellipse 124" cx="9.533" cy="9.533" r="9.533" transform="matrix(0.229, -0.973, 0.973, 0.229, 4.495, 23.091)" fill="#ee4437"/>
            <path id="Path_3872" data-name="Path 3872" d="M487.1,127.538c-1.392-.578-1.8-.932-1.8-1.574,0-.514.375-1.125,1.435-1.125a3.523,3.523,0,0,1,1.853.5l.225.129.546-1.446-.161-.1a4.277,4.277,0,0,0-1.917-.568V121.84h-1.4v1.607a2.735,2.735,0,0,0-2.356,2.688c0,1.617,1.307,2.346,2.71,2.9,1.157.471,1.628.943,1.628,1.649,0,.771-.675,1.307-1.639,1.307a3.941,3.941,0,0,1-2.121-.632l-.236-.161-.525,1.467.139.1a4.642,4.642,0,0,0,2.292.718v1.585H487.2v-1.66a2.917,2.917,0,0,0,2.463-2.828c0-1.392-.76-2.324-2.549-3.053Z" transform="translate(-470.711 -112.271)" fill="#ffe9e8"/>
          </g>
          <g id="Group_893" data-name="Group 893" transform="translate(66.019 0)">
            <circle id="Ellipse_125" data-name="Ellipse 125" cx="17.191" cy="17.191" r="17.191" transform="translate(0 12.968) rotate(-22.16)" fill="url(#linear-gradient-19)"/>
            <circle id="Ellipse_126" data-name="Ellipse 126" cx="17.191" cy="17.191" r="17.191" transform="translate(0 12.968) rotate(-22.16)" fill="#f8847b"/>
            <path id="Path_3897" data-name="Path 3897" d="M16.591,0A16.591,16.591,0,1,1,0,16.591,16.591,16.591,0,0,1,16.591,0Z" transform="matrix(0.228, -0.974, 0.974, 0.228, 2.462, 34.769)" fill="#ee4437"/>
            <circle id="Ellipse_128" data-name="Ellipse 128" cx="14.02" cy="14.02" r="14.02" transform="matrix(0.923, -0.386, 0.386, 0.923, 4.07, 14.883)" fill="#f8847b"/>
            <circle id="Ellipse_129" data-name="Ellipse 129" cx="13.442" cy="13.442" r="13.442" transform="translate(6.252 32.419) rotate(-76.79)" fill="#ee4437"/>
            <path id="Path_3873" data-name="Path 3873" d="M211.782,45.181c-1.96-.814-2.528-1.307-2.528-2.217,0-.728.525-1.574,2.014-1.574a4.967,4.967,0,0,1,2.613.707l.311.182.771-2.035-.225-.129a5.984,5.984,0,0,0-2.7-.793V37.18h-1.981v2.271a3.865,3.865,0,0,0-3.32,3.792c0,2.271,1.832,3.31,3.813,4.081,1.628.664,2.292,1.339,2.292,2.324,0,1.082-.943,1.842-2.3,1.842a5.493,5.493,0,0,1-2.988-.889l-.332-.214-.739,2.067.193.139a6.422,6.422,0,0,0,3.235,1.007v2.228h2V53.492a4.1,4.1,0,0,0,3.47-3.984c0-1.96-1.071-3.277-3.6-4.306Z" transform="translate(-188.774 -23.807)" fill="#ffe9e8"/>
          </g>
          <g id="Group_894" data-name="Group 894" transform="translate(328.442 215.06)">
            <circle id="Ellipse_130" data-name="Ellipse 130" cx="20.511" cy="20.511" r="20.511" transform="translate(0 15.791) rotate(-22.64)" fill="url(#linear-gradient-20)"/>
            <circle id="Ellipse_131" data-name="Ellipse 131" cx="20.511" cy="20.511" r="20.511" transform="translate(0 15.791) rotate(-22.64)" fill="#f8847b"/>
            <path id="Path_3874" data-name="Path 3874" d="M481.107,251.853a19.793,19.793,0,1,1-19.793-19.793A19.788,19.788,0,0,1,481.107,251.853Z" transform="translate(-434.493 -225.018)" fill="#ee4437"/>
            <circle id="Ellipse_132" data-name="Ellipse 132" cx="16.719" cy="16.719" r="16.719" transform="matrix(0.928, -0.373, 0.373, 0.928, 5.076, 17.538)" fill="#f8847b"/>
            <circle id="Ellipse_133" data-name="Ellipse 133" cx="16.034" cy="16.034" r="16.034" transform="translate(7.545 38.769) rotate(-76.76)" fill="#ee4437"/>
            <path id="Path_3875" data-name="Path 3875" d="M461.079,250.025c-2.346-.975-3.02-1.564-3.02-2.646,0-.868.632-1.885,2.41-1.885a5.87,5.87,0,0,1,3.117.846l.375.214.921-2.421-.268-.161a7.328,7.328,0,0,0-3.224-.953v-2.56h-2.356v2.71a4.607,4.607,0,0,0-3.952,4.52c0,2.71,2.185,3.952,4.552,4.873,1.939.782,2.731,1.6,2.731,2.774,0,1.3-1.135,2.2-2.753,2.2a6.6,6.6,0,0,1-3.567-1.06l-.4-.257-.878,2.463.225.161a7.857,7.857,0,0,0,3.856,1.21v2.656h2.388v-2.785a4.892,4.892,0,0,0,4.134-4.756c0-2.346-1.285-3.909-4.284-5.13Z" transform="translate(-433.551 -224.421)" fill="#ffe9e8"/>
          </g>
          <g id="Group_903" data-name="Group 903" transform="translate(19.547 316.346)">
            <g id="Group_896" data-name="Group 896" transform="translate(4.584 35.999)">
              <rect id="Rectangle_916" data-name="Rectangle 916" width="80.769" height="9.907" fill="#ee4437"/>
              <g id="Group_895" data-name="Group 895" transform="translate(5.334)">
                <rect id="Rectangle_917" data-name="Rectangle 917" width="1.917" height="9.907" transform="translate(61.983)" fill="#cc1b0d"/>
                <rect id="Rectangle_918" data-name="Rectangle 918" width="1.917" height="9.907" transform="translate(68.184)" fill="#cc1b0d"/>
                <rect id="Rectangle_919" data-name="Rectangle 919" width="1.917" height="9.907" fill="#cc1b0d"/>
                <rect id="Rectangle_920" data-name="Rectangle 920" width="1.917" height="9.907" transform="translate(6.191)" fill="#cc1b0d"/>
                <rect id="Rectangle_921" data-name="Rectangle 921" width="1.917" height="9.907" transform="translate(12.392)" fill="#cc1b0d"/>
                <rect id="Rectangle_922" data-name="Rectangle 922" width="1.917" height="9.907" transform="translate(18.594)" fill="#cc1b0d"/>
                <rect id="Rectangle_923" data-name="Rectangle 923" width="1.917" height="9.907" transform="translate(24.795)" fill="#cc1b0d"/>
                <rect id="Rectangle_924" data-name="Rectangle 924" width="1.917" height="9.907" transform="translate(30.986)" fill="#cc1b0d"/>
                <rect id="Rectangle_925" data-name="Rectangle 925" width="1.917" height="9.907" transform="translate(37.187)" fill="#cc1b0d"/>
                <rect id="Rectangle_926" data-name="Rectangle 926" width="1.917" height="9.907" transform="translate(43.389)" fill="#cc1b0d"/>
                <rect id="Rectangle_927" data-name="Rectangle 927" width="1.917" height="9.907" transform="translate(49.59)" fill="#cc1b0d"/>
                <rect id="Rectangle_928" data-name="Rectangle 928" width="1.917" height="9.907" transform="translate(55.781)" fill="#cc1b0d"/>
              </g>
            </g>
            <g id="Group_898" data-name="Group 898" transform="translate(12.917 23.992)">
              <path id="Path_3892" data-name="Path 3892" d="M0,0H80.769V9.907H0Z" fill="#ee4437"/>
              <g id="Group_897" data-name="Group 897" transform="translate(5.334)">
                <rect id="Rectangle_930" data-name="Rectangle 930" width="1.917" height="9.907" transform="translate(61.993)" fill="#cc1b0d"/>
                <rect id="Rectangle_931" data-name="Rectangle 931" width="1.917" height="9.907" transform="translate(68.184)" fill="#cc1b0d"/>
                <rect id="Rectangle_932" data-name="Rectangle 932" width="1.917" height="9.907" fill="#cc1b0d"/>
                <rect id="Rectangle_933" data-name="Rectangle 933" width="1.917" height="9.907" transform="translate(6.201)" fill="#cc1b0d"/>
                <rect id="Rectangle_934" data-name="Rectangle 934" width="1.917" height="9.907" transform="translate(12.392)" fill="#cc1b0d"/>
                <rect id="Rectangle_935" data-name="Rectangle 935" width="1.917" height="9.907" transform="translate(18.594)" fill="#cc1b0d"/>
                <rect id="Rectangle_936" data-name="Rectangle 936" width="1.917" height="9.907" transform="translate(24.795)" fill="#cc1b0d"/>
                <rect id="Rectangle_937" data-name="Rectangle 937" width="1.917" height="9.907" transform="translate(30.997)" fill="#cc1b0d"/>
                <rect id="Rectangle_938" data-name="Rectangle 938" width="1.917" height="9.907" transform="translate(37.198)" fill="#cc1b0d"/>
                <rect id="Rectangle_939" data-name="Rectangle 939" width="1.917" height="9.907" transform="translate(43.389)" fill="#cc1b0d"/>
                <rect id="Rectangle_940" data-name="Rectangle 940" width="1.917" height="9.907" transform="translate(49.59)" fill="#cc1b0d"/>
                <rect id="Rectangle_941" data-name="Rectangle 941" width="1.917" height="9.907" transform="translate(55.792)" fill="#cc1b0d"/>
              </g>
            </g>
            <g id="Group_900" data-name="Group 900" transform="translate(0 11.996)">
              <path id="Path_3893" data-name="Path 3893" d="M0,0H80.769V9.907H0Z" fill="#ee4437"/>
              <g id="Group_899" data-name="Group 899" transform="translate(5.334)">
                <rect id="Rectangle_943" data-name="Rectangle 943" width="1.917" height="9.907" transform="translate(61.983)" fill="#cc1b0d"/>
                <rect id="Rectangle_944" data-name="Rectangle 944" width="1.917" height="9.907" transform="translate(68.184)" fill="#cc1b0d"/>
                <rect id="Rectangle_945" data-name="Rectangle 945" width="1.917" height="9.907" fill="#cc1b0d"/>
                <rect id="Rectangle_946" data-name="Rectangle 946" width="1.917" height="9.907" transform="translate(6.191)" fill="#cc1b0d"/>
                <rect id="Rectangle_947" data-name="Rectangle 947" width="1.917" height="9.907" transform="translate(12.392)" fill="#cc1b0d"/>
                <rect id="Rectangle_948" data-name="Rectangle 948" width="1.917" height="9.907" transform="translate(18.594)" fill="#cc1b0d"/>
                <rect id="Rectangle_949" data-name="Rectangle 949" width="1.917" height="9.907" transform="translate(24.795)" fill="#cc1b0d"/>
                <rect id="Rectangle_950" data-name="Rectangle 950" width="1.917" height="9.907" transform="translate(30.986)" fill="#cc1b0d"/>
                <rect id="Rectangle_951" data-name="Rectangle 951" width="1.917" height="9.907" transform="translate(37.187)" fill="#cc1b0d"/>
                <rect id="Rectangle_952" data-name="Rectangle 952" width="1.917" height="9.907" transform="translate(43.389)" fill="#cc1b0d"/>
                <rect id="Rectangle_953" data-name="Rectangle 953" width="1.917" height="9.907" transform="translate(49.59)" fill="#cc1b0d"/>
                <rect id="Rectangle_954" data-name="Rectangle 954" width="1.917" height="9.907" transform="translate(55.781)" fill="#cc1b0d"/>
              </g>
            </g>
            <g id="Group_902" data-name="Group 902" transform="translate(1.478)">
              <path id="Path_3894" data-name="Path 3894" d="M0,0H80.769V9.907H0Z" fill="#ee4437"/>
              <g id="Group_901" data-name="Group 901" transform="translate(5.334)">
                <rect id="Rectangle_956" data-name="Rectangle 956" width="1.917" height="9.907" transform="translate(61.993)" fill="#cc1b0d"/>
                <rect id="Rectangle_957" data-name="Rectangle 957" width="1.917" height="9.907" transform="translate(68.184)" fill="#cc1b0d"/>
                <rect id="Rectangle_958" data-name="Rectangle 958" width="1.917" height="9.907" fill="#cc1b0d"/>
                <rect id="Rectangle_959" data-name="Rectangle 959" width="1.917" height="9.907" transform="translate(6.201)" fill="#cc1b0d"/>
                <rect id="Rectangle_960" data-name="Rectangle 960" width="1.917" height="9.907" transform="translate(12.403)" fill="#cc1b0d"/>
                <rect id="Rectangle_961" data-name="Rectangle 961" width="1.917" height="9.907" transform="translate(18.594)" fill="#cc1b0d"/>
                <rect id="Rectangle_962" data-name="Rectangle 962" width="1.917" height="9.907" transform="translate(24.795)" fill="#cc1b0d"/>
                <rect id="Rectangle_963" data-name="Rectangle 963" width="1.917" height="9.907" transform="translate(30.997)" fill="#cc1b0d"/>
                <rect id="Rectangle_964" data-name="Rectangle 964" width="1.917" height="9.907" transform="translate(37.198)" fill="#cc1b0d"/>
                <rect id="Rectangle_965" data-name="Rectangle 965" width="1.917" height="9.907" transform="translate(43.389)" fill="#cc1b0d"/>
                <rect id="Rectangle_966" data-name="Rectangle 966" width="1.917" height="9.907" transform="translate(49.59)" fill="#cc1b0d"/>
                <rect id="Rectangle_967" data-name="Rectangle 967" width="1.917" height="9.907" transform="translate(55.792)" fill="#cc1b0d"/>
              </g>
            </g>
          </g>
        </g>
        <g id="Group_905" data-name="Group 905" transform="translate(31.586 10.068)">
          <path id="Path_3876" data-name="Path 3876" d="M87.931,123.761a2.121,2.121,0,1,1-2.121-2.121A2.119,2.119,0,0,1,87.931,123.761Z" transform="translate(-13.428 8.645)" fill="#ee4437"/>
          <circle id="Ellipse_134" data-name="Ellipse 134" cx="4.252" cy="4.252" r="4.252" transform="translate(160.082 29.69)" opacity="0.3" fill="url(#linear-gradient-21)"/>
          <circle id="Ellipse_135" data-name="Ellipse 135" cx="2.388" cy="2.388" r="2.388" transform="translate(0 302.009)" opacity="0.3" fill="url(#linear-gradient-22)"/>
          <path id="Path_3877" data-name="Path 3877" d="M261.467,10.1a2.239,2.239,0,1,1-2.239-2.239A2.244,2.244,0,0,1,261.467,10.1Z" transform="translate(-1.112 0.559)" fill="#2c2c36"/>
          <path id="Path_3878" data-name="Path 3878" d="M402.445,30.439a1.965,1.965,0,1,1,.011-.011Z" transform="translate(8.727 1.961)" opacity="0.3" fill="url(#linear-gradient-23)"/>
          <path id="Path_3879" data-name="Path 3879" d="M433.759,329.765a3.535,3.535,0,1,1-3.535-3.535A3.538,3.538,0,0,1,433.759,329.765Z" transform="translate(10.948 23.184)" opacity="0.3" fill="url(#linear-gradient-24)"/>
          <circle id="Ellipse_136" data-name="Ellipse 136" cx="1.992" cy="1.992" r="1.992" transform="translate(456.586 373.899)" opacity="0.3" fill="url(#linear-gradient-25)"/>
          <circle id="Ellipse_137" data-name="Ellipse 137" cx="2.549" cy="2.549" r="2.549" transform="translate(528.733 75.842)" fill="#ee4437" opacity="0.48"/>
          <path id="Path_3880" data-name="Path 3880" d="M167.129,295.875a3.085,3.085,0,1,1-3.085-3.085A3.085,3.085,0,0,1,167.129,295.875Z" transform="translate(-7.937 20.808)" opacity="0.3" fill="url(#linear-gradient-26)"/>
          <path id="Path_3881" data-name="Path 3881" d="M74.039,335.935a3.085,3.085,0,1,1-3.085-3.085A3.085,3.085,0,0,1,74.039,335.935Z" transform="translate(-14.552 23.655)" fill="#ee4437"/>
          <path id="Path_3882" data-name="Path 3882" d="M529.949,137.215a3.085,3.085,0,1,1-3.085-3.085A3.085,3.085,0,0,1,529.949,137.215Z" transform="translate(17.848 9.532)" opacity="0.3" fill="url(#linear-gradient-27)"/>
          <path id="Path_3883" data-name="Path 3883" d="M603.419,316.515a3.085,3.085,0,1,1-3.085-3.085A3.085,3.085,0,0,1,603.419,316.515Z" transform="translate(23.07 22.275)" fill="url(#linear-gradient-28)"/>
          <path id="Path_3884" data-name="Path 3884" d="M444.235,278.282a1.692,1.692,0,1,1-1.692-1.692A1.7,1.7,0,0,1,444.235,278.282Z" transform="translate(11.955 19.657)" fill="#ee4437" opacity="0.65"/>
          <circle id="Ellipse_138" data-name="Ellipse 138" cx="3.149" cy="3.149" r="3.149" transform="translate(178.804 75.425)" fill="#ee4437" opacity="0.3"/>
          <path id="Path_3885" data-name="Path 3885" d="M458.694,47.642a4.252,4.252,0,1,1-4.252-4.252A4.256,4.256,0,0,1,458.694,47.642Z" transform="translate(12.618 3.084)" fill="#2c2c36" opacity="0.24"/>
          <circle id="Ellipse_139" data-name="Ellipse 139" cx="4.252" cy="4.252" r="4.252" transform="translate(633.944 255.482)" opacity="0.3" fill="url(#linear-gradient-29)"/>
          <circle id="Ellipse_140" data-name="Ellipse 140" cx="1.821" cy="1.821" r="1.821" transform="translate(594.764 367.644)" opacity="0.3" fill="url(#linear-gradient-30)"/>
          <path id="Path_3886" data-name="Path 3886" d="M519.444,223.282a4.252,4.252,0,1,1-4.252-4.252A4.256,4.256,0,0,1,519.444,223.282Z" transform="translate(16.936 15.566)" fill="#2c2c36" opacity="0.25"/>
          <circle id="Ellipse_141" data-name="Ellipse 141" cx="2.699" cy="2.699" r="2.699" transform="translate(88.781 279.088)" fill="#2c2c36"/>
          <path id="Path_3887" data-name="Path 3887" d="M567.067,132.969h-2.1v-2.1a1.5,1.5,0,0,0-3,0v2.1h-2.1a1.5,1.5,0,1,0,0,3h2.1v2.1a1.5,1.5,0,0,0,3,0v-2.1h2.1a1.5,1.5,0,1,0,0-3Z" transform="translate(20.307 9.194)" fill="#f79a93"/>
          <path id="Path_3888" data-name="Path 3888" d="M566.177,294.159h-2.1v-2.1a1.5,1.5,0,0,0-3,0v2.1h-2.1a1.5,1.5,0,1,0,0,3h2.1v2.1a1.5,1.5,0,0,0,3,0v-2.1h2.1a1.5,1.5,0,1,0,0-3Z" transform="translate(20.243 20.649)" fill="#fff"/>
          <path id="Path_3889" data-name="Path 3889" d="M178.777,100.839h-2.1v-2.1a1.5,1.5,0,1,0-3,0v2.1h-2.1a1.5,1.5,0,0,0,0,3h2.1v2.1a1.5,1.5,0,1,0,3,0v-2.1h2.1a1.5,1.5,0,0,0,0-3Z" transform="translate(-7.288 6.911)" fill="#ee4437" opacity="0.3"/>
          <path id="Path_3890" data-name="Path 3890" d="M125.247,165.409h-2.1v-2.1a1.5,1.5,0,0,0-3,0v2.1h-2.1a1.5,1.5,0,1,0,0,3h2.1v2.1a1.5,1.5,0,0,0,3,0v-2.1h2.1a1.5,1.5,0,1,0,0-3Z" transform="translate(-11.093 11.499)" fill="#222229"/>
          <path id="Path_3891" data-name="Path 3891" d="M355.087,3.6h-2.1V1.5a1.5,1.5,0,1,0-3,0V3.6h-2.1a1.5,1.5,0,0,0,0,3h2.1V8.7a1.5,1.5,0,1,0,3,0V6.6h2.1a1.5,1.5,0,0,0,0-3Z" transform="translate(5.242)" fill="#ee4437"/>
        </g>
      </g>
    </g>
  </g>
</svg>
