<svg xmlns="http://www.w3.org/2000/svg" width="450.083" height="241.757" viewBox="0 0 450.083 241.757">
  <g id="portfolio-graphics04" transform="translate(-57.171 -39.726)">
    <rect id="Rectangle_864" data-name="Rectangle 864" width="38.241" height="15.147" transform="translate(325.215 47.3)" fill="#ffe9e8"/>
    <rect id="Rectangle_865" data-name="Rectangle 865" width="38.241" height="15.147" transform="translate(278.927 47.3)" fill="#ffe9e8"/>
    <rect id="Rectangle_866" data-name="Rectangle 866" width="38.241" height="15.147" transform="translate(242.876 92.506)" fill="#ffe9e8"/>
    <rect id="Rectangle_867" data-name="Rectangle 867" width="38.241" height="15.147" transform="translate(290.489 92.506)" fill="#ffe9e8"/>
    <rect id="Rectangle_868" data-name="Rectangle 868" width="38.241" height="15.147" transform="translate(402.922 39.726)" fill="#ffe9e8"/>
    <rect id="Rectangle_869" data-name="Rectangle 869" width="38.241" height="15.147" transform="translate(167.576 58.839)" fill="#ffe9e8"/>
    <rect id="Rectangle_870" data-name="Rectangle 870" width="38.241" height="15.147" transform="translate(94.076 77.486)" fill="#ffe9e8"/>
    <path id="Path_3797" data-name="Path 3797" d="M225.041,0C349.328,0,450.083,7.52,450.083,16.8s-100.754,16.8-225.041,16.8S0,26.073,0,16.8,100.754,0,225.041,0Z" transform="translate(57.171 247.89)" fill="#ffe9e8"/>
    <g id="Group_861" data-name="Group 861" transform="translate(159.276 79.997)">
      <rect id="Rectangle_872" data-name="Rectangle 872" width="95.564" height="177.929" fill="#ee4437"/>
      <rect id="Rectangle_873" data-name="Rectangle 873" width="86.208" height="173.417" transform="translate(4.512 4.512)" fill="#fccbc8"/>
      <path id="Path_3697" data-name="Path 3697" d="M1398.132,941.108h-8.312V914.46h8.312v2.09h-6.224v22.47h6.224Z" transform="translate(-1315.851 -840.825)" fill="#060633"/>
      <ellipse id="Ellipse_111" data-name="Ellipse 111" cx="1.441" cy="3.321" rx="1.441" ry="3.321" transform="translate(81.028 71.672)" fill="#060633"/>
      <ellipse id="Ellipse_112" data-name="Ellipse 112" cx="1.441" cy="3.321" rx="1.441" ry="3.321" transform="translate(81.028 95.793)" fill="#060633"/>
    </g>
    <path id="Path_3798" data-name="Path 3798" d="M0,0H95.564V177.929H0Z" transform="translate(312.785 79.997)" fill="#ee4437"/>
    <rect id="Rectangle_875" data-name="Rectangle 875" width="86.208" height="173.417" transform="translate(317.297 84.508)" fill="#ffe9e8"/>
    <rect id="Rectangle_876" data-name="Rectangle 876" width="80.095" height="18.67" transform="translate(323.409 239.256)" fill="#fccbc8"/>
    <rect id="Rectangle_877" data-name="Rectangle 877" width="81.697" height="3.007" transform="translate(321.807 237.877)" fill="#14142b"/>
    <rect id="Rectangle_878" data-name="Rectangle 878" width="70.431" height="18.67" transform="translate(333.072 219.207)" fill="#fccbc8"/>
    <rect id="Rectangle_879" data-name="Rectangle 879" width="71.84" height="3.007" transform="translate(331.664 217.829)" fill="#14142b"/>
    <rect id="Rectangle_880" data-name="Rectangle 880" width="62.213" height="18.67" transform="translate(341.292 199.159)" fill="#fccbc8"/>
    <rect id="Rectangle_881" data-name="Rectangle 881" width="64.405" height="3.007" transform="translate(339.099 197.781)" fill="#14142b"/>
    <rect id="Rectangle_882" data-name="Rectangle 882" width="46.721" height="18.67" transform="translate(356.784 179.111)" fill="#fccbc8"/>
    <rect id="Rectangle_883" data-name="Rectangle 883" width="48.367" height="3.007" transform="translate(355.138 177.732)" fill="#14142b"/>
    <rect id="Rectangle_884" data-name="Rectangle 884" width="32.437" height="18.67" transform="translate(371.066 159.062)" fill="#fccbc8"/>
    <rect id="Rectangle_885" data-name="Rectangle 885" width="33.581" height="3.007" transform="translate(369.924 157.684)" fill="#14142b"/>
    <path id="Path_3698" data-name="Path 3698" d="M2453.28,604.5h46.446V418.55h-7.686l-38.76,8.019Z" transform="translate(-2044.931 -346.572)" fill="#fccbc8"/>
    <rect id="Rectangle_886" data-name="Rectangle 886" width="7.684" height="185.948" transform="translate(447.109 71.978)" fill="#f7a29d"/>
    <path id="Path_3699" data-name="Path 3699" d="M2620.642,941.108h-8.312V914.46h8.312v2.09h-6.224v22.47h6.224Z" transform="translate(-2177.793 -760.828)" fill="#060633"/>
    <path id="Path_3700" data-name="Path 3700" d="M2658.082,905.861c0-1.834-.646-3.321-1.441-3.321s-1.441,1.487-1.441,3.321.645,3.321,1.441,3.321S2658.082,907.7,2658.082,905.861Z" transform="translate(-2213.604 -750.871)" fill="#060633"/>
    <path id="Path_3701" data-name="Path 3701" d="M2658.082,1052.351c0-1.834-.646-3.321-1.441-3.321s-1.441,1.487-1.441,3.321.645,3.321,1.441,3.321S2658.082,1054.185,2658.082,1052.351Z" transform="translate(-2213.604 -873.24)" fill="#060633"/>
    <circle id="Ellipse_113" data-name="Ellipse 113" cx="2.929" cy="2.929" r="2.929" transform="translate(201.4 125.357) rotate(-76.72)" fill="#ee4437"/>
    <path id="Path_3720" data-name="Path 3720" d="M1187.594,759.573l-.074-.143-.076.143-6.084,11.686h12.318Z" transform="translate(-982.438 -631.325)" fill="#ee4437"/>
    <g id="Group_865" data-name="Group 865" transform="translate(135.059 103.434)">
      <path id="Path_3721" data-name="Path 3721" d="M800.339,1472.93s-7.05,9.952-6.8,11.782c.143,1.046,10.951,10.907,12.43,9.575s-5.895-10.01-4.442-13.391a22.826,22.826,0,0,1,3.777-5.873Z" transform="translate(-793.526 -1330.777)" fill="#fb9391"/>
      <path id="Path_3722" data-name="Path 3722" d="M795.461,1517.83c3.777,7.449,6.542,7.872,7.918,7.38,1.579,3.008,3.354,5.862,2.557,6.58-1.479,1.332-12.286-8.529-12.43-9.575-.092-.67.8-2.427,1.954-4.385Z" transform="translate(-793.5 -1368.284)" fill="#060633"/>
      <g id="Group_864" data-name="Group 864" transform="translate(41.221 142.894)">
        <path id="Path_3723" data-name="Path 3723" d="M1043.85,1478.663s.6,7.046.754,8.345-.665,5.354.389,5.885,12.463,5.993,13.426,4.163-8.656-8.831-8.806-10.592-.509-9.033-.509-9.033Z" transform="translate(-1043.85 -1477.43)" fill="#fb9391"/>
        <path id="Path_3724" data-name="Path 3724" d="M1057.385,1542.428c2.327,2.22,4.535,4.459,4.049,5.383-.963,1.831-12.372-3.632-13.426-4.162-.957-.481-.366-3.865-.367-5.458C1052.345,1543.574,1055.9,1543,1057.385,1542.428Z" transform="translate(-1046.867 -1528.186)" fill="#060633"/>
      </g>
      <path id="Path_3725" data-name="Path 3725" d="M1068.116,875.866s6.84,18.193,14.124,29.407l3.557-2.085s-10.671-26.895-12.054-37.729l-6.542,2.155.916,8.253Z" transform="translate(-1022.134 -823.33)" fill="#fb9391"/>
      <path id="Path_3726" data-name="Path 3726" d="M838.384,985.374s-5.281,10.408-6.268,19.7-1.93,28.851-2.546,31.815-11.88,29.839-11.88,29.839l6.718,5.03s16.745-23.6,19.34-34.276,5.559-31.306,5.559-31.306,2.738,26.407,3.833,33.5,0,30.015,0,30.015h11.289s3.058-14.21,2.465-35.857-8.745-50.961-8.745-50.961l-19.767,2.5Z" transform="translate(-813.707 -921.408)" fill="#ee4437"/>
      <path id="Path_3727" data-name="Path 3727" d="M873.35,635.9c-1.37-.938-2.911-1.9-3.438-3.469-.808-2.407,1.143-5.119.286-7.51-.682-1.9-2.857-2.816-4-4.484-1.05-1.536-1.11-3.524-1.742-5.272-2.068-5.709-8.737-6.662-13.714-4.549a11.882,11.882,0,0,0-2.121,1.162,9.162,9.162,0,0,0-4.032,6.6c-.145,1.857.4,3.965-.838,5.567-1.136,1.475-3.13,1.67-4.7,2.438a6.492,6.492,0,0,0-3.548,4.294c-.453,2.228.553,4.824-.785,6.662-.955,1.312-2.666,1.651-3.978,2.471a7.639,7.639,0,0,0-3.224,3.965,6.418,6.418,0,0,0,3.132,7.767,9.491,9.491,0,0,0,4.63.594,26.147,26.147,0,0,0,8.735-2.154c2.707-1.192,5.285-2.867,8.223-3.219,2.546-.3,5.086.42,7.624.79,2.5.364,5.094.394,7.444,1.326,1.049.415,2.024,1,3.084,1.385a4.529,4.529,0,0,0,3.3.1,2.372,2.372,0,0,0,1.436-2.727c-.16-.487-.515-.886-.708-1.362-.868-2.139,1.808-4.2,1.759-6.505-.036-1.66-1.454-2.928-2.824-3.866Z" transform="translate(-821.64 -609.589)" fill="#14142b"/>
      <path id="Path_3728" data-name="Path 3728" d="M854.166,772.7c-4.941.43-12.534,3.013-16.571,10.568a68.97,68.97,0,0,0-5.715,14.439l10.828,3.321.891-4.273s3.417,13.25,6.222,14.213,4.538-1.144,6.179-1.411,7.041,1.12,11.378-.382,4.357-4.813,4.714-8.69.919-7.4.919-7.4l5.814-2.264s-4.775-15.211-10.358-16.587-14.3-1.535-14.3-1.535Z" transform="translate(-825.561 -745.843)" fill="#14142b"/>
      <path id="Path_3729" data-name="Path 3729" d="M845.125,928.66s-.156,11.42.84,16.887,7.454,17.032,7.454,17.032l3.362-3.843s-6.7-16.125-4.273-27.808l-7.385-2.266Z" transform="translate(-836.617 -876.124)" fill="#fb9391"/>
      <path id="Path_3730" data-name="Path 3730" d="M1049.338,690.456s.779-.95,1.269-.482c1.251,1.2-.361,2.448-1.3,2.659Z" transform="translate(-1007.19 -676.63)" fill="#ea6868"/>
      <path id="Path_3731" data-name="Path 3731" d="M961.3,613.163a8.348,8.348,0,0,0-8.211,10.959,36.076,36.076,0,0,0,2.569,7.252,8.312,8.312,0,0,1,.848,6.025l-.51,2.063c4.587,2.906,6.947.7,6.947.7l.489-4.833h0c5.29-.094,5.572-9.81,5.86-12.662h-.008c.015-.105.03-.212.041-.319a8.349,8.349,0,0,0-8.024-9.186Z" transform="translate(-926.456 -612.57)" fill="#fb9391"/>
      <path id="Path_3732" data-name="Path 3732" d="M952.069,619.082a35.8,35.8,0,0,0-3.124,3.061,9.035,9.035,0,0,0-2.518,3.822,10.779,10.779,0,0,1-2.524-4.378,7.875,7.875,0,0,1-.543-2.294,8.733,8.733,0,0,1,.715-3.252,9.1,9.1,0,0,1,2.068-3.749,6.925,6.925,0,0,1,2.49-1.373,11.742,11.742,0,0,1,6.578-.435,8.457,8.457,0,0,1,5.294,3.784c1.454,2.475,1.334,5.531,1.169,8.4a8.42,8.42,0,0,0-1.515-3.311,7.179,7.179,0,0,0-1.5-1.839,34.873,34.873,0,0,1-3.275-2.272,9.875,9.875,0,0,1-3.313,3.845Z" transform="translate(-918.682 -610.096)" fill="#14142b"/>
      <path id="Path_3733" data-name="Path 3733" d="M952.759,690.276a1.243,1.243,0,0,0-.588-.652,2.093,2.093,0,0,0-2.3-.02c-1.123.917.655,3.83,2.819,2.69,0,0,.639-.52.069-2.02Z" transform="translate(-923.833 -676.14)" fill="#fb9391"/>
      <path id="Path_3734" data-name="Path 3734" d="M1033.756,688.765a.729.729,0,1,0-.858.571A.728.728,0,0,0,1033.756,688.765Z" transform="translate(-992.991 -675)" fill="#060633"/>
      <path id="Path_3735" data-name="Path 3735" d="M991.726,689.215a.729.729,0,1,0-.858.571A.728.728,0,0,0,991.726,689.215Z" transform="translate(-957.882 -675.376)" fill="#060633"/>
      <path id="Path_3736" data-name="Path 3736" d="M1008.135,721.985s-.6-.482-.973-.4a1.087,1.087,0,0,0-.6.525.842.842,0,0,0-.654-.486,10.44,10.44,0,0,0-1.737.262s1.083,1.979,2.452,1.7a1.826,1.826,0,0,0,1.49-1.544Z" transform="translate(-969.482 -703.139)" fill="#ea6868"/>
      <path id="Path_3737" data-name="Path 3737" d="M1004.728,722.625a4.312,4.312,0,0,1-3.039-.971.1.1,0,0,1,.133-.156c.1.081,2.366,1.969,4.205.245a.1.1,0,1,1,.14.15A2.722,2.722,0,0,1,1004.728,722.625Z" transform="translate(-967.38 -703.051)" fill="#240d39"/>
      <path id="Path_3738" data-name="Path 3738" d="M983.906,680.852a.3.3,0,0,1-.11-.56,3.634,3.634,0,0,1,2.4-.359.3.3,0,0,1,.239.356.309.309,0,0,1-.356.237,3.026,3.026,0,0,0-1.974.285.306.306,0,0,1-.2.039Z" transform="translate(-952.34 -668.294)" fill="#060633"/>
      <path id="Path_3739" data-name="Path 3739" d="M1029.745,679.01a.3.3,0,0,1-.008-.57,3.6,3.6,0,0,1,2.429.077.3.3,0,0,1,.17.394.3.3,0,0,1-.394.17,3.014,3.014,0,0,0-1.992-.074.305.305,0,0,1-.206,0Z" transform="translate(-990.675 -666.959)" fill="#060633"/>
      <path id="Path_3740" data-name="Path 3740" d="M1013.77,692.621a1.3,1.3,0,0,0,1.284-1.028.252.252,0,0,0-.04-.184,3.764,3.764,0,0,1-.453-2.394.255.255,0,0,0-.5-.084,4.284,4.284,0,0,0,.468,2.662c-.071.194-.321.622-1.131.5a.256.256,0,0,0-.076.505,2.165,2.165,0,0,0,.451.025Z" transform="translate(-976.943 -675.69)" fill="#ea6868"/>
      <path id="Path_3741" data-name="Path 3741" d="M1066.428,852.242a.064.064,0,0,0,.061-.061c.153-3.662-2.922-8.662-2.954-8.713a.063.063,0,0,0-.107.067c.031.049,3.086,5.019,2.934,8.641a.063.063,0,0,0,.061.066h.007Z" transform="translate(-1018.974 -804.933)" fill="#272035"/>
      <path id="Path_3742" data-name="Path 3742" d="M940.371,906.447a11.452,11.452,0,0,0,5.679-2.1.063.063,0,1,0-.077-.1c-.048.038-4.859,3.678-9.3,1.258a.064.064,0,0,0-.086.025.065.065,0,0,0,.026.087,7.032,7.032,0,0,0,3.764.836Z" transform="translate(-913.017 -855.716)" fill="#272035"/>
      <path id="Path_3743" data-name="Path 3743" d="M893.163,1107.242a40.462,40.462,0,0,1,4.516,3.076c1.077,1.019,2.878,1.205,2.532,1.992s-3.026-.194-3.026-.194,1.009,2.844,1.452,3.67.858,2.506.278,2.878-2.429-3.749-2.429-3.749,1.217,3.622.754,4.078-2.687-3.925-2.687-3.925,1.487,3.8,1.342,4.2-.66.232-1.513-.986a14.153,14.153,0,0,1-1.409-2.681,31.739,31.739,0,0,1,.83,3.114c-.013.366-.3.858-1.372-1.08s-2.707-6.5-2.6-9.119l3.328-1.276Z" transform="translate(-873.968 -1025.3)" fill="#fb9391"/>
      <path id="Path_3744" data-name="Path 3744" d="M1156,1088.612a40.452,40.452,0,0,1,4.516,3.076c1.077,1.019,2.878,1.205,2.532,1.992s-3.025-.194-3.025-.194,1.008,2.844,1.451,3.67.858,2.506.278,2.878-2.429-3.749-2.429-3.749,1.217,3.622.754,4.078-2.687-3.925-2.687-3.925,1.485,3.8,1.342,4.2-.66.232-1.513-.986a14.148,14.148,0,0,1-1.409-2.681,31.772,31.772,0,0,1,.83,3.114c-.013.365-.3.858-1.372-1.08s-2.707-6.5-2.6-9.119l3.328-1.276Z" transform="translate(-1093.53 -1009.737)" fill="#fb9391"/>
    </g>
    <g id="Group_869" data-name="Group 869" transform="translate(82.028 105.236)">
      <path id="Path_3745" data-name="Path 3745" d="M534.215,620.608a1.507,1.507,0,0,0-.99.018c-.351.181-.5.594-.744.9-.708.892-2.057.79-3.193.731s-2.575.244-2.822,1.355a2.2,2.2,0,0,1-.184.751,1,1,0,0,1-.382.315,15.608,15.608,0,0,1-2.98.856c-.99.308-2,1.052-2.025,2.088-.012.488.2.963.155,1.449a2.77,2.77,0,0,1-1.386,1.762l-3.525,2.531a2.749,2.749,0,0,0-1.14,1.256c-.321.993.545,1.994.537,3.038-.01,1.283-1.268,2.16-1.826,3.314a3.335,3.335,0,0,0,1.586,4.327,2.781,2.781,0,0,1,1.036.566c.423.482.272,1.215.247,1.856a4.12,4.12,0,0,0,1.8,3.532c2.264,1.5,5.305.426,7.991.848a39.2,39.2,0,0,1,4.719,1.531,11.022,11.022,0,0,0,5.732.086,1.624,1.624,0,0,0,.594-.249c.425-.331.443-.95.634-1.452.571-1.493,2.547-1.75,4.144-1.7s3.534-.02,4.324-1.408c.418-.734.38-1.675.84-2.384.558-.859,1.686-1.156,2.389-1.9.976-1.034.912-2.664.585-4.049a10.6,10.6,0,0,1-.616-4.189,21.514,21.514,0,0,1,.94-2.658,2.713,2.713,0,0,0-.336-2.669c-.789-.83-2.152-.672-3.181-1.174-2.412-1.179-2.083-5.333-4.558-6.374a7.454,7.454,0,0,0-1.539-.347,11.427,11.427,0,0,1-3.512-1.633,11.67,11.67,0,0,0-3.321-.924h0Z" transform="translate(-506.506 -620.533)" fill="#14142b"/>
      <g id="Group_866" data-name="Group 866" transform="translate(18.599 1.448)">
        <path id="Path_3746" data-name="Path 3746" d="M683.512,719.6s.96-.664,1.286-.107c.83,1.419-.858,2.144-1.768,2.089l.482-1.982Z" transform="translate(-666.787 -704.46)" fill="#cd6868"/>
        <path id="Path_3747" data-name="Path 3747" d="M611.713,645.039H611.7c.041-.1.082-.188.122-.285a7.935,7.935,0,1,0-15.295-2.641,40.289,40.289,0,0,0,.288,6.275,12.417,12.417,0,0,1-1.487,8.2l-.173.3c3.428,3.858,6.161,2.465,6.161,2.465L602.7,655.9a1.038,1.038,0,0,1,1.123-.641c5.147.818,6.92-7.81,7.885-10.218h0Z" transform="translate(-593.386 -633.124)" fill="#e2918f"/>
        <path id="Path_3748" data-name="Path 3748" d="M643.112,737.4s-.468-.547-.83-.534a1.02,1.02,0,0,0-.645.382.787.787,0,0,0-.52-.558,9.934,9.934,0,0,0-1.647-.056s.662,2.012,1.969,1.992a1.714,1.714,0,0,0,1.64-1.172l.031-.054h0Z" transform="translate(-630.4 -718.96)" fill="#cd6868"/>
        <path id="Path_3749" data-name="Path 3749" d="M634.427,701.834a.807.807,0,1,0-1.049.449.8.8,0,0,0,1.049-.449Z" transform="translate(-624.887 -688.973)" fill="#24153b"/>
        <path id="Path_3750" data-name="Path 3750" d="M672.787,710.581a.807.807,0,1,0-1.049.448.806.806,0,0,0,1.049-.448Z" transform="translate(-656.931 -696.278)" fill="#24153b"/>
        <path id="Path_3751" data-name="Path 3751" d="M640.03,736.086a4.042,4.042,0,0,1-2.639-1.416.1.1,0,0,1,.148-.12c.074.091,1.846,2.221,3.838.945a.1.1,0,0,1,.133.03.093.093,0,0,1-.03.132,2.543,2.543,0,0,1-1.452.43h0Z" transform="translate(-628.644 -717.195)" fill="#24153b"/>
        <path id="Path_3752" data-name="Path 3752" d="M630.625,689.785a.282.282,0,0,1-.138-.2.285.285,0,0,1,.229-.329,3.418,3.418,0,0,1,2.228.487.284.284,0,0,1,.089.392.293.293,0,0,1-.392.091,2.837,2.837,0,0,0-1.826-.41.292.292,0,0,1-.191-.033h0Z" transform="translate(-622.892 -679.367)" fill="#24153b"/>
        <path id="Path_3753" data-name="Path 3753" d="M673.3,700.1a.285.285,0,0,1,.09-.527,3.378,3.378,0,0,1,2.228.487.284.284,0,1,1-.3.481,2.852,2.852,0,0,0-1.826-.41.281.281,0,0,1-.191-.031Z" transform="translate(-658.536 -687.979)" fill="#24153b"/>
        <path id="Path_3754" data-name="Path 3754" d="M652.924,712.783a1.344,1.344,0,0,1-.38-.316.142.142,0,0,1,.028-.2.144.144,0,0,1,.2.03,1.071,1.071,0,0,0,1.253.292c.156-.061.2-.11.219-.142.028-.064-.025-.2-.092-.367a3.449,3.449,0,0,1-.142-2.345.142.142,0,1,1,.275.068,3.157,3.157,0,0,0,.129,2.172.772.772,0,0,1,.087.586.611.611,0,0,1-.377.291,1.354,1.354,0,0,1-1.2-.068h0Z" transform="translate(-641.297 -696.404)" fill="#cd6868"/>
        <path id="Path_3755" data-name="Path 3755" d="M589.268,640.9c.244-.339.331-.772.586-1.1.649-.838,1.964-.621,2.929-1.054,1.194-.537,1.844-2.078,3.142-2.253.573-.079,1.2.133,1.712-.14a3.026,3.026,0,0,0,.828-.934,1.013,1.013,0,0,1,1.07-.473.932.932,0,0,1,.417.374c.71,1.059.459,2.631,1.377,3.517a7.458,7.458,0,0,0,1.008.688,3.433,3.433,0,0,1,1.442,2.926,2.256,2.256,0,0,0,1.194-2.425,20.121,20.121,0,0,0-.805-2.8c-.242-.939-.272-1.923-.486-2.868a3.641,3.641,0,0,0-1.5-2.4,15.332,15.332,0,0,0-2.282-.743,15.094,15.094,0,0,1-1.819-1.064,6.438,6.438,0,0,0-5.9-.209,12.693,12.693,0,0,0-1.833,1.162q-1.968,1.408-3.937,2.82a5.246,5.246,0,0,0-1.656,1.6c-.637,1.154-.326,2.578,0,3.856a2.3,2.3,0,0,0,.953,1.61c1.092.547,2.682,1.123,3.558-.1h0Z" transform="translate(-584.383 -629.327)" fill="#0e0e35"/>
        <path id="Path_3756" data-name="Path 3756" d="M596.65,694.372a1.178,1.178,0,0,0-.365-.749,1.985,1.985,0,0,0-2.1-.622c-1.266.543-.407,3.67,1.869,3.2,0,0,.72-.308.594-1.828Z" transform="translate(-592.084 -682.418)" fill="#e2918f"/>
      </g>
      <g id="Group_867" data-name="Group 867" transform="translate(11.121 67.243)">
        <path id="Path_3757" data-name="Path 3757" d="M666.115,1394.63s-1.92,24.609.7,27.227,6.456,5.061,6.807,6.632-11.345-.175-12.392-1.745-.873-4.189-1.92-11.519-2.618-20.595-2.618-20.595Z" transform="translate(-637.307 -1334.414)" fill="#e2918f"/>
        <path id="Path_3758" data-name="Path 3758" d="M691.63,1571.969c-.239-1.069-2.091-2.542-4.077-4.2-.438,3.361-7.036-.086-9.3-1.378a8.793,8.793,0,0,0,.988,3.832c1.047,1.571,12.741,3.316,12.392,1.745h0Z" transform="translate(-655.317 -1477.893)" fill="#ee4437"/>
        <path id="Path_3759" data-name="Path 3759" d="M584.815,1394.63s-1.92,24.609.7,27.227,6.456,5.061,6.807,6.632-11.345-.175-12.392-1.745-.873-4.189-1.92-11.519-2.618-20.595-2.618-20.595Z" transform="translate(-569.393 -1334.414)" fill="#e2918f"/>
        <path id="Path_3760" data-name="Path 3760" d="M610.32,1571.969c-.239-1.069-2.091-2.542-4.077-4.2-.438,3.361-7.036-.086-9.3-1.378a8.79,8.79,0,0,0,.988,3.832c1.047,1.571,12.741,3.316,12.392,1.745h0Z" transform="translate(-587.395 -1477.893)" fill="#ee4437"/>
        <path id="Path_3761" data-name="Path 3761" d="M568.941,1043.581s2.152,13.439,3.025,28.274.7,19.722,0,20.42-4.014-1.222-5.585,0-2.967,2.444-7.156,2.269-8.9-3.143-13.614-1.92-6.807-.349-6.632-1.571,2.444-53.931,2.444-53.931l3.142-8.2h16.93l3.665,1.4,3.782,13.265Z" transform="translate(-538.969 -1028.92)" fill="#14142b"/>
      </g>
      <g id="Group_868" data-name="Group 868" transform="translate(0 22.453)">
        <path id="Path_3762" data-name="Path 3762" d="M482.378,1111.33a38.309,38.309,0,0,1,2.941,4.228c.606,1.26,2.127,2.029,1.559,2.6s-2.6-1.187-2.6-1.187-.069,2.842.043,3.718-.087,2.494-.723,2.626-.876-4.118-.876-4.118-.148,3.6-.708,3.845-1.044-4.358-1.044-4.358.03,3.846-.232,4.149-.66-.018-1-1.376a13.352,13.352,0,0,1-.339-2.834,30.235,30.235,0,0,1-.318,3.02c-.135.316-.552.654-.845-1.413s-.194-6.635.78-8.9l3.359,0h0Z" transform="translate(-476.995 -1052.971)" fill="#e2918f"/>
        <path id="Path_3763" data-name="Path 3763" d="M489.19,761.545s-.227-4.689,3.863-4.647c0,0,1.572,4.778,5.674,3.315,0,0,1.416.153,1.5,1.33s0,3.01,0,3.01,7.724-.654,11.913,5.979,12.479,23.476.524,25.482c0,0-.611,6.458-.087,8.814s1.658,12.3,1.4,13.177-16.842,3.314-20.071,1.222-1.92-12.479-3.927-12.828-2.094,11.694-4.625,12.13-2.705-.524-2.443-3.667.873-27.313.349-28.971-2.705,11.868-3.316,18.239-.785,11.607-.785,11.607-4.451.7-7.069-.175c0,0-1.92-17.192.785-29.756s4.625-20.42,16.319-24.262h0Z" transform="translate(-471.427 -756.898)" fill="#ee4437"/>
        <path id="Path_3764" data-name="Path 3764" d="M719.836,919.076a.049.049,0,0,1-.049-.046c0-.105-.4-10.577,0-14.376a.051.051,0,0,1,.054-.044.052.052,0,0,1,.044.054c-.4,3.792,0,14.257,0,14.363a.05.05,0,0,1-.048.051h0Z" transform="translate(-678.743 -880.288)" fill="#2a2537"/>
        <path id="Path_3765" data-name="Path 3765" d="M690.812,890.1s1.317-3.018,3.025-4.189a3.563,3.563,0,0,1,3.025-.708l1.852-1.156s1.075,5.873-3.384,8.516c-.372.221-4.52-2.463-4.52-2.463h0Z" transform="translate(-654.688 -863.114)" fill="#e2918f"/>
        <path id="Path_3766" data-name="Path 3766" d="M686.618,844.709l6.359,1.839a.2.2,0,0,1,.138.252l-3.767,13.024a.2.2,0,0,1-.252.14l-6.359-1.839a.2.2,0,0,1-.138-.252l3.767-13.026a.2.2,0,0,1,.252-.138Z" transform="translate(-647.821 -830.244)" fill="#0e0e35"/>
        <path id="Path_3767" data-name="Path 3767" d="M732.513,877.763a.813.813,0,0,0,.594-1.367l-1.367-1.465a.813.813,0,0,0-1.189,1.108l1.367,1.464a.812.812,0,0,0,.594.259h0Z" transform="translate(-687.703 -855.281)" fill="#e2918f"/>
        <path id="Path_3768" data-name="Path 3768" d="M729.363,885.963a.813.813,0,0,0,.594-1.367l-1.367-1.465a.813.813,0,1,0-1.189,1.108l1.367,1.464a.811.811,0,0,0,.594.258h0Z" transform="translate(-685.072 -862.131)" fill="#e2918f"/>
        <path id="Path_3769" data-name="Path 3769" d="M726.043,893.527a.813.813,0,0,0,.594-1.368l-1.367-1.462a.813.813,0,1,0-1.189,1.11l1.367,1.462a.805.805,0,0,0,.594.258Z" transform="translate(-682.299 -868.45)" fill="#e2918f"/>
        <path id="Path_3770" data-name="Path 3770" d="M722.8,901.184a.543.543,0,0,0,.415-.892l-1.246-1.472a.542.542,0,0,0-.828.7l1.246,1.474a.541.541,0,0,0,.415.193h0Z" transform="translate(-679.918 -875.29)" fill="#e2918f"/>
        <path id="Path_3771" data-name="Path 3771" d="M580.433,926.112a9.4,9.4,0,0,1-4.325-1.075.194.194,0,0,1-.086-.262.2.2,0,0,1,.263-.086,9.25,9.25,0,0,0,9.678-.792.2.2,0,0,1,.275.026.194.194,0,0,1-.028.275,9.975,9.975,0,0,1-5.776,1.91h0Z" transform="translate(-558.782 -896.363)" fill="#2a2537"/>
      </g>
    </g>
    <g id="Group_874" data-name="Group 874" transform="translate(264.794 108.845)">
      <path id="Path_3772" data-name="Path 3772" d="M1710.357,758.06s-14.812-7.069-23.027,2.167-2.147,17.941-2.147,17.941-13.92,19.5,0,23.052,23.607-7.6,23.607-7.6l1.568-35.559h0Z" transform="translate(-1662.93 -736.864)" fill="#14142b"/>
      <g id="Group_871" data-name="Group 871" transform="translate(6.849 74.07)">
        <path id="Path_3773" data-name="Path 3773" d="M1941.027,1485.92s.231,8.241.3,8.356-.552,1.174-.552,1.174l-2.578.576-2.417-.991s-.115-7.665-.415-8.863,5.662-.254,5.662-.254h0Z" transform="translate(-1883.926 -1420.812)" fill="#e2918f"/>
        <path id="Path_3774" data-name="Path 3774" d="M1936.715,1538.42a6.762,6.762,0,0,0,5.524-.92s10.129,3.316,9.947,6.171c0,0,.461.828-3.869.828s-11.052.092-11.234,0-1.011.4-.367-6.077h0Z" transform="translate(-1884.862 -1464.196)" fill="#ee4437"/>
        <g id="Group_870" data-name="Group 870" transform="translate(0 57.62)">
          <path id="Path_3775" data-name="Path 3775" d="M1661.395,1446.64s-6.308,5.308-6.356,5.435a5.066,5.066,0,0,1-1.263.3l-2.057-1.66-.729-2.508s5.931-4.861,6.683-5.84,3.721,4.276,3.721,4.276h0Z" transform="translate(-1646.384 -1442.243)" fill="#e2918f"/>
          <path id="Path_3776" data-name="Path 3776" d="M1627.625,1478.442a6.763,6.763,0,0,0,4.159,3.751s3.708,9.995,1.358,11.625c0,0-.364.878-3.056-2.511s-6.948-8.595-6.99-8.8-.942-.542,4.528-4.069h0Z" transform="translate(-1623.018 -1472.48)" fill="#ee4437"/>
        </g>
        <path id="Path_3777" data-name="Path 3777" d="M1709.347,1095.8s6.815,24.864,7.182,29.654-2.578,33.153-2.578,33.153a27.689,27.689,0,0,1-4.6,1.288,21.976,21.976,0,0,1-5.193,0s-1.8-27.995-2.175-30.757-5.157-18.417-7.182-19.154-6.94,23.027-11.82,30.211S1667,1160.64,1667,1160.64s-7.116-8.117-7.116-9.591,7.283-8.012,12-21.17,2.837-33.16,2.837-33.16l25.418-4.419,9.209,3.5h0Z" transform="translate(-1653.81 -1092.3)" fill="#14142b"/>
        <path id="Path_3778" data-name="Path 3778" d="M1749.194,1141.665a5.708,5.708,0,0,1-1.279-.125.241.241,0,0,1-.17-.3.244.244,0,0,1,.3-.173c.3.079,7.459,1.829,11.071-9.927a.241.241,0,0,1,.3-.161.244.244,0,0,1,.161.3c-2.835,9.227-7.994,10.378-10.385,10.378Z" transform="translate(-1727.2 -1124.603)" fill="#0e0e35"/>
        <path id="Path_3779" data-name="Path 3779" d="M1942.227,1129.473a.156.156,0,0,1-.059-.01c-.064-.016-6.354-1.67-6.82-9.311a.243.243,0,0,1,.227-.257.237.237,0,0,1,.257.227c.444,7.278,6.207,8.809,6.454,8.872a.239.239,0,0,1,.175.293.242.242,0,0,1-.234.186h0Z" transform="translate(-1883.921 -1115.351)" fill="#0e0e35"/>
      </g>
      <g id="Group_872" data-name="Group 872" transform="translate(0 23.162)">
        <path id="Path_3780" data-name="Path 3780" d="M2068.379,1034.113a38.7,38.7,0,0,1,5.049,1.294c1.3.565,2.974.148,2.916.967s-2.776.807-2.776.807,1.826,2.224,2.493,2.821,1.581,1.971,1.182,2.493-3.4-2.577-3.4-2.577,2.266,2.855,2,3.413-3.683-2.649-3.683-2.649,2.565,2.927,2.565,3.331-.517.422-1.676-.4a13.388,13.388,0,0,1-2.134-1.948,30.589,30.589,0,0,1,1.753,2.524c.107.333.012.866-1.579-.523s-4.538-4.955-5.286-7.337l2.572-2.223h0Z" transform="translate(-1986.052 -992.784)" fill="#e2918f"/>
        <path id="Path_3781" data-name="Path 3781" d="M1750.431,783.145s4.755,2.122,6.69,1.984,7.321,1.8,14.365,14.5a128.4,128.4,0,0,0,17.267,23.345l-4.7,6.077s-13.121-4.7-19.2-12.57c0,0,2.07,18.616,4.143,24.156a107.82,107.82,0,0,1-11.052,3.611c-5.8,1.52-20.583,0-20.583,0l-1.8-3.611-2.279,3.473-5.251-1.176s1.436-61.049,22.39-59.8h0Z" transform="translate(-1703.899 -783.124)" fill="#ee4437"/>
        <path id="Path_3782" data-name="Path 3782" d="M1590.818,1033.59a38.8,38.8,0,0,1-.227,5.206c-.286,1.386.468,2.938-.344,3.054s-1.362-2.552-1.362-2.552-1.8,2.246-2.249,3.02-1.6,1.953-2.193,1.671,1.821-3.853,1.821-3.853-2.327,2.8-2.928,2.659,1.836-4.149,1.836-4.149-2.337,3.112-2.733,3.2-.52-.418.039-1.722a13.5,13.5,0,0,1,1.469-2.488s-1.806,2.063-2.109,2.236-.846.188.188-1.655,3.915-5.46,6.091-6.683l2.705,2.057h0Z" transform="translate(-1581.421 -990.629)" fill="#e2918f"/>
        <path id="Path_3783" data-name="Path 3783" d="M1641.967,786.26a26.512,26.512,0,0,0-14.406,5.944c-6.428,5.531-22.526,23.676-23.481,36.352l6.993,1.963s13.526-23.047,24.785-25.176l6.107-19.083Z" transform="translate(-1600.349 -785.744)" fill="#ee4437"/>
      </g>
      <g id="Group_873" data-name="Group 873" transform="translate(44.446)">
        <path id="Path_3784" data-name="Path 3784" d="M1943.048,721.306s.751-.822,1.172-.374c1.072,1.143-.343,2.175-1.2,2.318l.028-1.943h0Z" transform="translate(-1927.927 -707.898)" fill="#cd6868"/>
        <path id="Path_3785" data-name="Path 3785" d="M1872.032,657.828h-.008c.018-.1.038-.191.053-.288a7.561,7.561,0,1,0-14.766.8c.417,1.857.792,3.446,1.243,4.79a10.818,10.818,0,0,1-.031,6.856l-.585,1.749c4.207,3.163,6.655,1.22,6.655,1.22l.6-3.283a.845.845,0,0,1,.907-.683l.007,0c5.751.522,5.524-8.6,5.927-11.162h0Z" transform="translate(-1856.109 -647.76)" fill="#e2918f"/>
        <path id="Path_3786" data-name="Path 3786" d="M1930.87,715.372a.549.549,0,1,0-.627.459.546.546,0,0,0,.627-.459h0Z" transform="translate(-1916.865 -702.836)" fill="#0e0e35"/>
        <path id="Path_3787" data-name="Path 3787" d="M1889.98,717.4a.549.549,0,1,0-.627.456.55.55,0,0,0,.627-.456Z" transform="translate(-1882.708 -704.525)" fill="#0e0e35"/>
        <path id="Path_3788" data-name="Path 3788" d="M1881.719,703.923a.413.413,0,0,1-.252-.672,2.21,2.21,0,0,1,3.087-.231.413.413,0,1,1-.479.672,1.394,1.394,0,0,0-1.976.089.407.407,0,0,1-.38.143h0Z" transform="translate(-1876.43 -692.617)" fill="#0e0e35"/>
        <path id="Path_3789" data-name="Path 3789" d="M1922.35,703.539a.413.413,0,0,1-.252-.672,2.21,2.21,0,0,1,3.087-.232.412.412,0,0,1-.477.672,1.393,1.393,0,0,0-1.976.089.408.408,0,0,1-.38.143h0Z" transform="translate(-1910.37 -692.295)" fill="#0e0e35"/>
        <path id="Path_3790" data-name="Path 3790" d="M1903.831,747.09a3.757,3.757,0,0,1-2.994-.7.123.123,0,0,1,.15-.2c.089.071,2.165,1.655,3.726.066a.122.122,0,0,1,.173,0,.121.121,0,0,1,0,.173,2.486,2.486,0,0,1-1.057.662Z" transform="translate(-1892.65 -729.089)" fill="#0e0e35"/>
        <path id="Path_3791" data-name="Path 3791" d="M1852.437,644.668a5.07,5.07,0,0,1,.8-1.116,4.52,4.52,0,0,1,3.12-1.092c1.128-.023,2.254.166,3.382.132a12.108,12.108,0,0,1,3.415-.005,1.663,1.663,0,0,1,.675.319,4.218,4.218,0,0,1,.482.6,4.382,4.382,0,0,0,2.89,1.2c.611.089,1.22.179,1.833.27a2.589,2.589,0,0,1,1.459.537,2.861,2.861,0,0,1,.612,1.63,2,2,0,0,0,.813,1.5c.176.1.4.156.486.341a.534.534,0,0,1,.03.288,1.7,1.7,0,0,1-1.744,1.467,3.313,3.313,0,0,0-.624-.041c-.749.1-.975,1.111-1.615,1.516a1.646,1.646,0,0,1-1.347.1,10.612,10.612,0,0,1-1.273-.573,6.155,6.155,0,0,0-1.587-.489,2.392,2.392,0,0,0-1.167.035c-.194.066-.374.173-.57.24a2.417,2.417,0,0,1-2.038-.422c-.6-.392-1.12-.909-1.75-1.256a2.083,2.083,0,0,0-2.052-.112,8.248,8.248,0,0,0-.9.853,4.274,4.274,0,0,1-3.119.614,1.109,1.109,0,0,1-.642-.173.991.991,0,0,1-.264-.4,7.119,7.119,0,0,1,.69-5.974h0Z" transform="translate(-1851.354 -642.452)" fill="#14142b"/>
        <path id="Path_3792" data-name="Path 3792" d="M1853.21,684.759l1.207,5.251,1.4-.058,1.836-6.392-4.444,1.2Z" transform="translate(-1852.905 -676.791)" fill="#14142b"/>
        <path id="Path_3793" data-name="Path 3793" d="M1855.585,716.445a1.134,1.134,0,0,0-.5-.619,1.9,1.9,0,0,0-2.081-.132c-1.062.776.4,3.5,2.417,2.574,0,0,.6-.44.163-1.823Z" transform="translate(-1852.436 -703.413)" fill="#e2918f"/>
        <path id="Path_3794" data-name="Path 3794" d="M1910.265,721.181a1.4,1.4,0,0,1-1.261-.239.122.122,0,0,1-.013-.173.126.126,0,0,1,.173-.013,1.145,1.145,0,0,0,1.383.02c.122-.082.191-.151.2-.211.016-.084-.066-.206-.181-.377a3.588,3.588,0,0,1-.665-2.358.123.123,0,0,1,.125-.12.125.125,0,0,1,.12.127,3.327,3.327,0,0,0,.624,2.216c.14.211.254.377.217.56a.621.621,0,0,1-.311.367,1.692,1.692,0,0,1-.415.2h0Z" transform="translate(-1899.476 -705.318)" fill="#cd6868"/>
      </g>
      <path id="Path_3795" data-name="Path 3795" d="M1741.665,804.181s11.025-12.362,4.864-25.345c0,0,4.636-1.841,6.128-1.737,0,0,2.537,9.273-.685,18.011-3.164,8.587-11.5,15.794-11.5,15.794l1.2-6.723Z" transform="translate(-1714.282 -754.925)" fill="#14142b"/>
      <path id="Path_3796" data-name="Path 3796" d="M1916.836,810.094s-1.9-9.649-4.426-13.864a11.213,11.213,0,0,1,3.328,1.469s6.448,11.58,3.229,30.58l-2.131-18.184Z" transform="translate(-1857.911 -770.91)" fill="#14142b"/>
    </g>
    <text id="Exit" transform="translate(205.749 107.51)" fill="#14142b" font-size="14" font-family="UntitledSans-Bold, Untitled Sans" font-weight="700"><tspan x="-17" y="0">EXIT</tspan></text>
  </g>
</svg>
