<svg xmlns="http://www.w3.org/2000/svg" width="555.075" height="493.733" viewBox="0 0 555.075 493.733">
  <g id="portfolio-graphics" transform="translate(-0.005)">
    <g id="OBJECTS" transform="translate(0.005)">
      <g id="Group_783" data-name="Group 783" transform="translate(9.217 6.7)">
        <rect id="Rectangle_800" data-name="Rectangle 800" width="327.22" height="23.66" rx="7.49" transform="translate(0 463.373)" fill="#ffe9e8" opacity="0.68"/>
        <rect id="Rectangle_801" data-name="Rectangle 801" width="155.816" height="23.66" rx="7.49" transform="translate(390.042 463.373)" fill="#fff0ef" opacity="0.68"/>
        <path id="Path_3406" data-name="Path 3406" d="M521.243,340.114C498.04,383.25,452.6,419.5,369.624,430.533c-2.278.3-4.507.582-6.711.83a292.2,292.2,0,0,1-47.506,1.993c-36.561-1.7-62.029-11.725-86.21-25.171-38.617-21.481-73.977-51.7-146.06-70.7C-3.468,314.671,8.368,66.145,229.2,36.084q14.449-1.969,30.111-2.65c20.132-.854,38.79-.854,56.1-.05,128.082,5.918,182.2,55.628,211.469,126.931,13.669,33.293,29.529,114.451-5.633,179.8Z" transform="translate(-1.36 1.107)" fill="#ffe9e8"/>
        <g id="Group_782" data-name="Group 782" transform="translate(107.059 257.908)">
          <path id="Path_3407" data-name="Path 3407" d="M129.129,312.566s-4.791-33.095,10.313-48.039a83.423,83.423,0,0,1,33.652-19.8s-2.823,19.166-11.663,25.035-15.736,12.74-19.166,25.022-5.138,21.865-5.138,21.865-6.265,4.234-8-4.073Z" transform="translate(-85.708 -206.336)" fill="#ffc2bf"/>
          <path id="Path_3408" data-name="Path 3408" d="M127.393,308.562c1.411-2.043-.334-35.063-7.949-44.621s-22.695-13-22.695-13a57.732,57.732,0,0,1,10.413,16.219c4.172,9.831,8.617,21.122,9.831,24.069s10.375,17.334,10.375,17.334Z" transform="translate(-93.246 -204.858)" fill="#ffc2bf"/>
          <path id="Path_3409" data-name="Path 3409" d="M136.4,323.268c.5-1.473,6.438-50.886,2.489-70.151s-16.727-26.557-23.611-29.368S93.92,213.72,93.92,213.72s5.658,18.733,17.445,31.225,20.478,24.416,19.575,30,5.472,48.323,5.472,48.323Z" transform="translate(-93.92 -213.72)" fill="#ffc2bf"/>
        </g>
        <path id="Path_3410" data-name="Path 3410" d="M457.8,281.015c-23.2,43.136-68.641,79.388-151.619,90.419-2.278.3-4.507.582-6.711.83V297.147a16.153,16.153,0,0,1,16.157-16.157H456.97c.285,0,.557.012.829.025Z" transform="translate(62.083 60.206)" fill="#ee4437" opacity="0.18"/>
        <path id="Path_3411" data-name="Path 3411" d="M277.68,33.385V433.356c-36.561-1.7-62.029-11.725-86.21-25.171V36.084q14.449-1.969,30.111-2.65C241.713,32.58,260.371,32.58,277.68,33.385Z" transform="translate(36.367 1.107)" fill="#ee4437" opacity="0.18"/>
        <path id="Path_3412" data-name="Path 3412" d="M31.735,109.039c2.625,51.035,54.984,52.818,91.125,23.735s102.156-73.432,74.287-103.9S121.411-2.353,84.132,26.408s-53.66,58.2-52.409,82.631Z" transform="translate(-1.686 -5.412)" fill="#ffe9e8" opacity="0.34"/>
      </g>
      <g id="Group_784" data-name="Group 784" transform="translate(415.736 364.955)">
        <path id="Path_3413" data-name="Path 3413" d="M355.436,367.737a13.067,13.067,0,0,1,.483-5.5c1.956-5.547,9.075-7.85,11.242-13.322,2.142-5.423-1.411-11.75.371-17.3,1.312-4.1,5.336-7.02,6.2-11.23.508-2.5-.186-5.076-.186-7.627a13.912,13.912,0,0,1,3.751-9.422,5.043,5.043,0,0,1,2.291-1.548,2.226,2.226,0,0,1,2.464.854,3.311,3.311,0,0,1,.31,1.671,54.508,54.508,0,0,1-.347,6.512,16.07,16.07,0,0,0-.037,6.054c.582,2.142,2.142,3.863,3.5,5.609,2.674,3.43,4.853,7.627,4.333,11.935-.755,6.215-6.859,10.908-7.144,17.173-.21,4.767,3.071,9.249,2.489,13.991-.359,2.971-2.2,5.547-4.222,7.763s-4.271,4.259-5.794,6.834a15.049,15.049,0,0,1-2.39,3.64c-2.934,2.674-8.84,2.6-11.316-.458a29.209,29.209,0,0,1-6.03-15.613Z" transform="translate(-331.13 -293.114)" fill="#e14e5e"/>
        <path id="Path_3414" data-name="Path 3414" d="M355.436,367.737a13.067,13.067,0,0,1,.483-5.5c1.956-5.547,9.075-7.85,11.242-13.322,2.142-5.423-1.411-11.75.371-17.3,1.312-4.1,5.336-7.02,6.2-11.23.508-2.5-.186-5.076-.186-7.627a13.912,13.912,0,0,1,3.751-9.422,5.043,5.043,0,0,1,2.291-1.548,2.226,2.226,0,0,1,2.464.854,3.311,3.311,0,0,1,.31,1.671,54.508,54.508,0,0,1-.347,6.512,16.07,16.07,0,0,0-.037,6.054c.582,2.142,2.142,3.863,3.5,5.609,2.674,3.43,4.853,7.627,4.333,11.935-.755,6.215-6.859,10.908-7.144,17.173-.21,4.767,3.071,9.249,2.489,13.991-.359,2.971-2.2,5.547-4.222,7.763s-4.271,4.259-5.794,6.834a15.049,15.049,0,0,1-2.39,3.64c-2.934,2.674-8.84,2.6-11.316-.458a29.209,29.209,0,0,1-6.03-15.613Z" transform="translate(-331.13 -293.114)" fill="#ee4437"/>
        <path id="Path_3415" data-name="Path 3415" d="M375.335,319.75l-2.328,15.018c-.792,5-1.585,9.992-2.439,14.981q-1.244,7.484-2.612,14.956L365.22,379.65c1.411-4.866,2.724-9.781,3.789-14.733.582-2.476,1.04-4.965,1.56-7.441.458-2.489.929-4.99,1.35-7.491.83-5,1.572-10.029,2.142-15.068.594-5.039,1.04-10.091,1.263-15.167Z" transform="translate(-328.781 -288.82)" fill="#f9f9f9"/>
        <path id="Path_3416" data-name="Path 3416" d="M337.709,365.5a9.82,9.82,0,0,1,.1-4.531c1.04-3.207,4.717-4.94,5.98-8.072,1.127-2.8.037-6-1.61-8.531s-3.813-4.7-5.2-7.379-1.808-6.191.087-8.531c1.3-1.622,3.4-2.352,5.027-3.665,3.9-3.17,4.2-8.939,3.875-13.953s-.8-10.549,2.216-14.56a3.756,3.756,0,0,1,1.709-1.4,3.116,3.116,0,0,1,3.392,1.51,9.215,9.215,0,0,1,1.077,3.813q.557,4.271,1.114,8.531c.3,2.241.718,4.7,2.476,6.116s4.284,1.263,6.352,2.154c3.516,1.523,5.064,5.807,4.866,9.633s-1.733,7.441-2.674,11.155-1.213,7.924.879,11.131c1.7,2.612,4.742,4.21,6.079,7.02,1.671,3.516.161,7.651-1.35,11.242q-3.176,7.559-6.364,15.1a18.028,18.028,0,0,1-2.612,4.767c-4.024,4.742-12.938,3.219-16.714-1.127-4.544-5.212-7.713-13.78-8.729-20.454Z" transform="translate(-335.789 -294.768)" fill="#ee4437"/>
        <path id="Path_3417" data-name="Path 3417" d="M348.051,313.782l1.139,17.581c.4,5.856.792,11.712,1.275,17.556.433,5.844.941,11.688,1.461,17.532L353.536,384c-1.127-5.77-2.13-11.576-2.848-17.408-.409-2.91-.693-5.844-1.028-8.766-.272-2.922-.557-5.856-.792-8.791-.446-5.869-.768-11.737-.916-17.618-.173-5.881-.161-11.762.111-17.643Z" transform="translate(-332.92 -290.244)" fill="#f9f9f9"/>
        <path id="Path_3418" data-name="Path 3418" d="M376.523,403.781H347.935L339.38,361.19h45.7Z" transform="translate(-334.934 -278.953)" fill="#2c2c36"/>
      </g>
      <g id="Group_787" data-name="Group 787" transform="translate(0 289.322)">
        <path id="Path_3419" data-name="Path 3419" d="M.036,351.2a267.212,267.212,0,0,1,5.931-47.519,61.219,61.219,0,0,1,59.85-48h0a61.466,61.466,0,0,1,55.554,35.373,137.291,137.291,0,0,0,34.023,45.4c9.806,8.506,14.82,17.816,16.826,26.978,6.054,27.734-15.786,53.8-44.176,53.8H63.91A63.83,63.83,0,0,1,.048,351.2Z" transform="translate(-0.005 -228.442)" fill="#feca14"/>
        <path id="Path_3420" data-name="Path 3420" d="M.036,351.2a267.212,267.212,0,0,1,5.931-47.519,61.219,61.219,0,0,1,59.85-48h0a61.466,61.466,0,0,1,55.554,35.373,137.291,137.291,0,0,0,34.023,45.4c9.806,8.506,14.82,17.816,16.826,26.978,6.054,27.734-15.786,53.8-44.176,53.8H63.91A63.83,63.83,0,0,1,.048,351.2Z" transform="translate(-0.005 -228.442)" fill="#fccbc8"/>
        <path id="Path_3421" data-name="Path 3421" d="M29.263,328.392a267.213,267.213,0,0,1,5.931-47.519A60.685,60.685,0,0,1,46.263,257a61.488,61.488,0,0,1,12.6-1.312h0a61.466,61.466,0,0,1,55.554,35.373,137.291,137.291,0,0,0,34.023,45.4c9.806,8.506,14.82,17.816,16.826,26.978a43.309,43.309,0,0,1-4.73,30.854c-1.077.074-2.167.124-3.256.124H93.15a63.83,63.83,0,0,1-63.862-66.028Z" transform="translate(6.957 -228.44)" fill="#ffe9e8"/>
        <g id="Group_785" data-name="Group 785" transform="translate(39.171)">
          <path id="Path_3422" data-name="Path 3422" d="M55.492,376.826s-1.857,7.206,3.628,17.693a1.792,1.792,0,0,1-2.34,2.154L39.446,377.829s-1.647-2.7,9.694-9.719l6.352,8.716Z" transform="translate(-29.805 -201.672)" fill="#2c2c36"/>
          <path id="Path_3423" data-name="Path 3423" d="M100.888,380.608s2.538,7,12.975,12.555a1.789,1.789,0,0,1-.718,3.1L88.2,390.475s-2.872-1.3,2.513-13.5l10.165,3.615Z" transform="translate(-18.359 -199.56)" fill="#2c2c36"/>
          <path id="Path_3424" data-name="Path 3424" d="M49.241,311.57s-1.052,30.742,30.742,31.1l24.936-5.138s-5.014,35.5-6.3,57.473c0,0,3.442,4.965,13.112,1.894,0,0,17.284-54.415,16.454-73.544-.656-14.993-53.127-8.877-53.127-8.877s-17.816-6.4-25.8-2.91Z" transform="translate(-27.454 -215.382)" fill="#004a87"/>
          <path id="Path_3425" data-name="Path 3425" d="M49.241,311.57s-1.052,30.742,30.742,31.1l24.936-5.138s-5.014,35.5-6.3,57.473c0,0,3.442,4.965,13.112,1.894,0,0,17.284-54.415,16.454-73.544-.656-14.993-53.127-8.877-53.127-8.877s-17.816-6.4-25.8-2.91Z" transform="translate(-27.454 -215.382)" fill="#ee4437"/>
          <path id="Path_3426" data-name="Path 3426" d="M36.031,311.568s-1.052,30.742,30.742,31.1H79.81S66.773,358.74,45.886,384.047c0,0,2.687,7.812,11.032,7.565,0,0,52.261-40.573,51.9-59.7s-46.986-17.42-46.986-17.42-17.816-6.4-25.8-2.91Z" transform="translate(-30.599 -215.38)" fill="#ee4437"/>
          <rect id="Rectangle_802" data-name="Rectangle 802" width="11.118" height="23.858" transform="translate(25.468 12.647) rotate(2.74)" fill="#ffb99e"/>
          <path id="Path_3427" data-name="Path 3427" d="M52.224,245.248a5.908,5.908,0,0,1,3.033-.718,9.2,9.2,0,0,1,5.25,1.931,18.753,18.753,0,0,1,2.674,2.266l-.768,15.959c-2.4-.916-4.333-3.1-5.968-5.188a39.14,39.14,0,0,1-4.556-7.342Z" transform="translate(-26.822 -231.097)" fill="#b16449"/>
          <path id="Path_3428" data-name="Path 3428" d="M63.923,277.628c2.13-17.321,13.582-11.861,13.582-11.861,11.168,10.326,9.484,42.727,9.484,42.727,14.882-.272,29.417,5.4,29.417,5.4,3.974,2.934.248,8.865.248,8.865H80.811a7.237,7.237,0,0,1-6.612-4.3c-4.222-9.5-11.353-32.154-10.289-40.82Z" transform="translate(-23.985 -226.235)" fill="#46464f"/>
          <path id="Path_3429" data-name="Path 3429" d="M107.31,313.208s4.531,0,7.008-1.411,3.541,1.411,7.676,1.411-2.08-8.481-14.213-8.2c0,0-3.64,4.036-.483,8.2Z" transform="translate(-13.936 -216.698)" fill="#ffb99e"/>
          <path id="Path_3430" data-name="Path 3430" d="M35.353,262.419s27.833-3.281,49.116,4.123c0,0-4.581,46.838-7.008,59.206,0,0-22.608,1.882-41.08-2.538,0,0-3.182-42.108-1.015-60.791Z" transform="translate(-30.937 -227.01)" fill="#009cfe"/>
          <path id="Path_3431" data-name="Path 3431" d="M35.353,262.419s27.833-3.281,49.116,4.123c0,0-4.581,46.838-7.008,59.206,0,0-22.608,1.882-41.08-2.538,0,0-3.182-42.108-1.015-60.791Z" transform="translate(-30.937 -227.01)" fill="#2c2c36"/>
          <path id="Path_3432" data-name="Path 3432" d="M71.694,242.665s2.4,17.494-6.7,20.85c0,0-7.639-.062-11.019-9.36s1.919-17.7,6.215-19.2S71.434,236.561,71.694,242.665Z" transform="translate(-26.581 -233.467)" fill="#ffb99e"/>
          <path id="Path_3433" data-name="Path 3433" d="M61.34,252.6a11.718,11.718,0,0,0,5.225.074s-.248,1.572-2.4,1.585C61.687,254.259,61.34,252.6,61.34,252.6Z" transform="translate(-24.572 -229.176)" fill="#f9f9f9"/>
          <path id="Path_3434" data-name="Path 3434" d="M62.175,248.951c-.124.817-.594,1.436-1.052,1.362s-.73-.792-.607-1.61.594-1.436,1.052-1.362S62.3,248.134,62.175,248.951Z" transform="translate(-24.775 -230.429)" fill="#004a87"/>
          <path id="Path_3435" data-name="Path 3435" d="M66.955,248.811c-.124.817-.594,1.436-1.052,1.362s-.73-.792-.607-1.61.594-1.436,1.052-1.362S67.079,247.994,66.955,248.811Z" transform="translate(-23.637 -230.463)" fill="#004a87"/>
          <path id="Path_3436" data-name="Path 3436" d="M63.121,245.25a1.956,1.956,0,0,0-.953-.458,3.5,3.5,0,0,0-1.015-.05,2.91,2.91,0,0,0-1.832.854,3.73,3.73,0,0,0,1.015.124c.322,0,.619-.025.929-.05a8.712,8.712,0,0,0,1.87-.421Z" transform="translate(-25.053 -231.05)" fill="#004a87"/>
          <path id="Path_3437" data-name="Path 3437" d="M64.782,245.394a7.869,7.869,0,0,0,1.51.334c.235.025.47.05.718.062a5.012,5.012,0,0,0,.842-.025,1.816,1.816,0,0,0-1.449-.953,2.34,2.34,0,0,0-.879.087,1.4,1.4,0,0,0-.755.508Z" transform="translate(-23.755 -231.032)" fill="#004a87"/>
          <path id="Path_3438" data-name="Path 3438" d="M64.316,248.89s.631,2.117,1.56,2.538c0,0-1.5.966-1.7.136A5.875,5.875,0,0,1,64.316,248.89Z" transform="translate(-23.92 -230.059)" fill="#b16449"/>
          <path id="Path_3439" data-name="Path 3439" d="M59.756,271.808a6.278,6.278,0,0,0-4.408,4.358s-9.5-6.5-9.187-14.374a4.4,4.4,0,0,1,4.073.025l9.521,10Z" transform="translate(-28.188 -227.101)" fill="#46464f"/>
          <path id="Path_3440" data-name="Path 3440" d="M63.642,262.785l-6.512,8.778s3.677,2.427,3.256,5.262c0,0,5.757-6.228,5.968-13.755C66.354,263.07,65.45,261.646,63.642,262.785Z" transform="translate(-25.574 -226.856)" fill="#46464f"/>
          <path id="Path_3441" data-name="Path 3441" d="M49.45,261.712a28.342,28.342,0,0,0,9.509,9.992,14.8,14.8,0,0,0,6.5-8.778A134.936,134.936,0,0,0,49.45,261.7Z" transform="translate(-27.403 -227.009)" fill="#ffb99e"/>
          <path id="Path_3442" data-name="Path 3442" d="M32.927,285.977a28.81,28.81,0,0,1,3.12-23.7c11.168,10.326,26.409,50.168,26.409,50.168,14.882-.272,29.417,5.4,29.417,5.4,3.974,2.934.248,8.865.248,8.865H58.68c-2.86,0-7.7-2.427-9.075-4.928-5.089-9.311-14.077-27.449-16.677-35.794Z" transform="translate(-31.643 -226.871)" fill="#46464f"/>
          <path id="Path_3443" data-name="Path 3443" d="M80.75,315.888s4.531,0,7.008-1.411,3.541,1.411,7.676,1.411-2.08-8.481-14.213-8.2c0,0-3.64,4.036-.483,8.2Z" transform="translate(-20.26 -216.06)" fill="#ffb99e"/>
          <path id="Path_3444" data-name="Path 3444" d="M66.317,234.014c7.441,1.77,9.236,9.88,6.451,10.14-11.242,1.09-14.263,0-14.263,0s2.885,6-1.523,6.649c0,0-3.058.743-4.383,6.376,0,0-7.528-14.573-.916-18.819,0,0,7.206-6.129,14.647-4.358Z" transform="translate(-27.519 -233.681)" fill="#2c2c36"/>
          <path id="Path_3445" data-name="Path 3445" d="M57.629,247.526s-3.5-3.677-4.457-2.253c-1.5,2.216.272,7.243,4.073,8.209l.384-5.968Z" transform="translate(-26.643 -230.998)" fill="#ffb99e"/>
        </g>
        <g id="Group_786" data-name="Group 786" transform="translate(74.614 73.209)">
          <path id="Path_3446" data-name="Path 3446" d="M74.27,327.948h49.995l16.021-35.138H90.279Z" transform="translate(-56.936 -292.81)" fill="#5da7b7"/>
          <path id="Path_3447" data-name="Path 3447" d="M74.27,327.948h49.995l16.021-35.138H90.279Z" transform="translate(-56.936 -292.81)" fill="#d9e7ff"/>
          <path id="Path_3448" data-name="Path 3448" d="M74.27,327.948h49.995l16.021-35.138H90.279l-5.293,11.617Z" transform="translate(-56.936 -292.81)" fill="#4b4b4b"/>
          <path id="Path_3449" data-name="Path 3449" d="M92.959,292.81h45.575a2.842,2.842,0,0,1,2.588,4.024l-14.176,31.114H76.95Z" transform="translate(-56.298 -292.81)" fill="#2c2c36"/>
          <path id="Path_3450" data-name="Path 3450" d="M63.316,321.19h67.6v3.046H60.27A3.044,3.044,0,0,1,63.316,321.19Z" transform="translate(-60.27 -286.052)" fill="#d9e7ff"/>
          <path id="Path_3451" data-name="Path 3451" d="M63.316,321.19h67.6v3.046H60.27A3.044,3.044,0,0,1,63.316,321.19Z" transform="translate(-60.27 -286.052)" fill="#2c2c36"/>
          <line id="Line_89" data-name="Line 89" x1="70.647" transform="translate(0 38.183)" fill="#d9e7ff" stroke="#2c2c36" stroke-width="1"/>
          <path id="Path_3452" data-name="Path 3452" d="M100.025,306.053c.953-2.451,3.355-3.8,5.361-3.021s2.872,3.4,1.919,5.844-3.355,3.8-5.361,3.021S99.072,308.493,100.025,306.053Z" transform="translate(-50.897 -290.429)" fill="#f9f9f9"/>
        </g>
      </g>
      <g id="Group_791" data-name="Group 791" transform="translate(85.101 54.539)">
        <g id="Group_788" data-name="Group 788">
          <circle id="Ellipse_98" data-name="Ellipse 98" cx="26.904" cy="26.904" r="26.904" transform="translate(7.429 3.132)" fill="#feca14"/>
          <circle id="Ellipse_99" data-name="Ellipse 99" cx="26.904" cy="26.904" r="26.904" transform="translate(7.429 3.132)" fill="#ca1204"/>
          <circle id="Ellipse_100" data-name="Ellipse 100" cx="26.904" cy="26.904" r="26.904" transform="translate(0 3.132)" fill="#ee4437"/>
          <text id="_" data-name="$" transform="translate(14.932 42)" fill="#f9f9f9" font-size="39" font-family="Segoe UI"><tspan x="0" y="0">$</tspan></text>
        </g>
        <g id="Group_789" data-name="Group 789" transform="translate(30.012 60.828)">
          <circle id="Ellipse_101" data-name="Ellipse 101" cx="19.055" cy="19.055" r="19.055" transform="translate(5.262 1.61)" fill="#feca14"/>
          <circle id="Ellipse_102" data-name="Ellipse 102" cx="19.055" cy="19.055" r="19.055" transform="translate(5.262 1.61)" fill="#ca1204"/>
          <circle id="Ellipse_103" data-name="Ellipse 103" cx="19.055" cy="19.055" r="19.055" transform="translate(0 1.61)" fill="#ee4437"/>
          <text id="_2" data-name="$" transform="translate(10.573 28)" fill="#f9f9f9" font-size="26" font-family="Segoe UI"><tspan x="0" y="0">$</tspan></text>
        </g>
        <g id="Group_790" data-name="Group 790" transform="translate(78.583 32.451)">
          <circle id="Ellipse_104" data-name="Ellipse 104" cx="19.055" cy="19.055" r="19.055" transform="translate(5.262 1.61)" fill="#feca14"/>
          <circle id="Ellipse_105" data-name="Ellipse 105" cx="19.055" cy="19.055" r="19.055" transform="translate(5.262 1.61)" fill="#ca1204"/>
          <circle id="Ellipse_106" data-name="Ellipse 106" cx="19.055" cy="19.055" r="19.055" transform="translate(0 1.61)" fill="#ee4437"/>
          <text id="_3" data-name="$" transform="translate(10.586 28)" fill="#f9f9f9" font-size="26" font-family="Segoe UI"><tspan x="0" y="0">$</tspan></text>
        </g>
      </g>
      <g id="Group_803" data-name="Group 803" transform="translate(181.983)">
        <g id="Group_792" data-name="Group 792" transform="translate(0 207.224)">
          <path id="Path_3453" data-name="Path 3453" d="M219.08,377.593s4.049,6.24,15.476,9.311a1.791,1.791,0,0,1,0,3.182h-25.6s-3.1-.607-.594-13.706l10.722,1.226Z" transform="translate(-132.61 -117.604)" fill="#ee4437"/>
          <path id="Path_3454" data-name="Path 3454" d="M160.19,377.593s4.049,6.24,15.476,9.311a1.791,1.791,0,0,1,0,3.182h-25.6s-3.1-.607-.594-13.706l10.722,1.226Z" transform="translate(-146.632 -117.604)" fill="#ee4437"/>
          <path id="Path_3455" data-name="Path 3455" d="M208.673,257.622c1.82-1.7,15.353,34.32,19.587,61.385,4.172,26.694,1.622,89.354,1.622,89.354s-4.7,4.358-14.4-1.127c0,0-8.172-30.928-6.673-57.164.879-15.3-1.077-27.635-9.447-40.461-10-15.328-23.128-38.357-24.193-55.133,0,0,19.773-4.556,33.5,3.145Z" transform="translate(-140.28 -146.949)" fill="#004a87"/>
          <path id="Path_3456" data-name="Path 3456" d="M208.673,257.622c1.82-1.7,15.353,34.32,19.587,61.385,4.172,26.694,1.622,89.354,1.622,89.354s-4.7,4.358-14.4-1.127c0,0-8.172-30.928-6.673-57.164.879-15.3-1.077-27.635-9.447-40.461-10-15.328-23.128-38.357-24.193-55.133,0,0,19.773-4.556,33.5,3.145Z" transform="translate(-140.28 -146.949)" fill="#1c1c26"/>
          <path id="Path_3457" data-name="Path 3457" d="M204.364,255.688c1.82-1.7-2.464,36.363-6.562,64.988-2.711,18.943-34.828,87.237-34.828,87.237s-6.29,4.234-15.984-1.251c0,0,8.481-31.213,15.947-55.826,6.091-20.057,11.514-31.423,11.118-53.338,0,0-5.386-29.058-1-44.807,0,0,17.569-4.692,31.312,3.009Z" transform="translate(-146.99 -147.393)" fill="#2c2c36"/>
          <path id="Path_3458" data-name="Path 3458" d="M171.087,201.588s29.009-1.523,50.527,7.577c0,0-7.9,48.138-11.242,60.766,0,0-23.512.433-42.319-5.4,0,0-.458-43.767,3.033-62.945Z" transform="translate(-141.979 -159.247)" fill="#2c2c36"/>
          <rect id="Rectangle_803" data-name="Rectangle 803" width="11.514" height="24.725" transform="matrix(0.99, 0.141, -0.141, 0.99, 48.604, 20.204)" fill="#ffb99e"/>
          <path id="Path_3459" data-name="Path 3459" d="M190.106,209.571c-3.69,0-6.686-2.612-6.686-5.832a5.293,5.293,0,0,1,.371-1.919c3.962.285,8.382.743,12.975,1.486,0,.149.025.285.025.433,0,3.219-3,5.832-6.686,5.832Z" transform="translate(-138.316 -159.169)" fill="#ffb99e"/>
          <path id="Path_3460" data-name="Path 3460" d="M197.273,189.856l-2.068,14.523A26.683,26.683,0,0,1,185.14,193.36l1.374-9.67,8.419,1.2C195.8,186.513,196.568,188.172,197.273,189.856Z" transform="translate(-137.906 -163.486)" fill="#b16449"/>
          <path id="Path_3461" data-name="Path 3461" d="M196.83,217.257s.681,44.547,10.214,58.563l10.945-67.378s-13.31-6.389-25.059-5.609C192.93,202.833,197.994,211.462,196.83,217.257Z" transform="translate(-136.051 -158.943)" fill="#e14e5e"/>
          <path id="Path_3462" data-name="Path 3462" d="M192.753,214.679s-.248,52.632-5.906,67.489c0,0-10.871-.334-25.047.012l10.772-80.4s10.128-2.637,16.38.322Z" transform="translate(-143.464 -159.436)" fill="#e14e5e"/>
          <path id="Path_3463" data-name="Path 3463" d="M192.753,214.679s-.248,52.632-5.906,67.489c0,0-10.871-.334-25.047.012l10.772-80.4s10.128-2.637,16.38.322Z" transform="translate(-143.464 -159.436)" fill="#ee4437"/>
          <path id="Path_3464" data-name="Path 3464" d="M196.83,217.257s.681,44.547,10.214,58.563l10.945-67.378s-13.31-6.389-25.059-5.609C192.93,202.833,197.994,211.462,196.83,217.257Z" transform="translate(-136.051 -158.943)" fill="#ee4437"/>
          <path id="Path_3465" data-name="Path 3465" d="M203.1,181.035s3.851,17.618-4.148,22.818a15.912,15.912,0,0,1-13.285-9.571c-4.222-9.335.631-18.448,4.952-20.33s11.737.8,12.48,7.094Z" transform="translate(-138.166 -165.945)" fill="#ffb99e"/>
          <path id="Path_3472" data-name="Path 3472" d="M208.21,179.008a3.588,3.588,0,0,0,1.337-1.449,3.5,3.5,0,0,0,.136-2.711c-.953-2.563-3.553-1.535-5.051-.149-.074-.631-.272-1.387-.879-1.548-.57-.149-1.189.347-1.733.1a6.173,6.173,0,0,0-1.362-4.432,4.044,4.044,0,0,0-4.3-1.238,4.789,4.789,0,0,0-3.318,3.541,1.248,1.248,0,0,0-2.414.384,1.378,1.378,0,0,0-1.659-.285,1.4,1.4,0,0,0-.656,1.56c-.817-.9-2.848-.669-4.011-.347a5.017,5.017,0,0,0-2.91,3.12c-.334,1.56.483,3.108,1.275,4.494a1.862,1.862,0,0,0-2.006.693,1.479,1.479,0,0,0,.371,2.006,1.141,1.141,0,0,0-.693,2.13c-1.263.631-1.176,1.733-1.337,3.132s1.1,2.934,2.476,2.65a5.187,5.187,0,0,0-1.35,2.7c-.074,1.015.718,2.167,1.721,2.055a2.3,2.3,0,0,0-.879,2.55,1.492,1.492,0,0,0,2.352.545c.371.5-.334,1.065-.57,1.634a1.553,1.553,0,0,0,.854,1.857,4.536,4.536,0,0,0,2.191.322c-.508.706.149,1.783,1,1.981a3.168,3.168,0,0,0,3.021-1.275,2.318,2.318,0,0,0,.136-.966,10.839,10.839,0,0,0-.111-1.411,1.5,1.5,0,0,0-.433-2.959c-.124.012-.272.037-.334-.062a.315.315,0,0,1-.037-.186c0-.817,0-1.634.012-2.451a1.181,1.181,0,0,1,.149-.718c.285-.409,1.2.087,1.684-.062a1.631,1.631,0,0,0,1.176-1.275,3.063,3.063,0,0,0-.124-1.25q-.724-3.25-1.2-6.537a.86.86,0,0,1,.087-.681.833.833,0,0,1,.421-.235,17.476,17.476,0,0,1,9.694-.706c1.362.3,2.575,1.028,3.888,1.35a6.883,6.883,0,0,0,3.157.26,2.278,2.278,0,0,0,1.5-1.61,1.886,1.886,0,0,0-.409-1.647c-.111-.111-1.176-.8-1.275-.532a2.062,2.062,0,0,0-.347-2.006,3.112,3.112,0,0,0,.718-.322Z" transform="translate(-139.371 -167.371)" fill="#2c2c36"/>
          <path id="Path_3473" data-name="Path 3473" d="M189.074,214.961s-1.127-2.6-3.4-1.894-4.049,3.776-4.049,3.776l-4.371-14.894a9.416,9.416,0,0,1,8.32-2.167s3.516,10.2,3.5,15.167Z" transform="translate(-139.785 -159.718)" fill="#ca1204"/>
          <path id="Path_3474" data-name="Path 3474" d="M192.93,203.437s3.826,8.518,3.9,14.424c0,0,2.191-5.2,5.089-2.835,0,0-2.848-14-8.531-14.8Z" transform="translate(-136.051 -159.547)" fill="#ca1204"/>
          <path id="Path_3475" data-name="Path 3475" d="M188.9,187.078s-3.615-3.12-4.4-1.7c-1.2,2.216.929,6.772,4.581,7.317l-.186-5.621Z" transform="translate(-138.137 -163.172)" fill="#ffb99e"/>
        </g>
        <g id="Group_795" data-name="Group 795" transform="translate(269.635 218.03)">
          <path id="Path_3476" data-name="Path 3476" d="M395.71,213.676s-2.3.916-10.425,7.317a44.271,44.271,0,0,1-7.565,4.866,209.746,209.746,0,0,0-3.863-32.278s-6.7-2.142-9.088,1.461c0,0,1.473,12.951,2.253,40.61.074,2.6,2.65,5.658,6.352,5.832,5.472.248,12.74-.2,22.311-5.807,0,0-.421-15.328.037-21.976Z" transform="translate(-364.77 -172.087)" fill="#feca14"/>
          <path id="Path_3477" data-name="Path 3477" d="M395.71,213.676s-2.3.916-10.425,7.317a44.271,44.271,0,0,1-7.565,4.866,209.746,209.746,0,0,0-3.863-32.278s-6.7-2.142-9.088,1.461c0,0,1.473,12.951,2.253,40.61.074,2.6,2.65,5.658,6.352,5.832,5.472.248,12.74-.2,22.311-5.807,0,0-.421-15.328.037-21.976Z" transform="translate(-364.77 -172.087)" fill="#ca1204"/>
          <path id="Path_3478" data-name="Path 3478" d="M417.821,183.48s3.6,6.339,4.841,10.908-.124,10.772-9.2,11.477-14.907,5.138-19.352,0,4-11.292,2.538-16.244S417.821,183.48,417.821,183.48Z" transform="translate(-358.095 -174.342)" fill="#2c2c36"/>
          <rect id="Rectangle_804" data-name="Rectangle 804" width="11.118" height="23.858" transform="translate(55.649 39.25) rotate(173.02)" fill="#ffb99e"/>
          <path id="Path_3479" data-name="Path 3479" d="M398.46,190.02l11.032-1.35.929,7.54c-.31.693-.631,1.374-.953,2.018a30.536,30.536,0,0,1-8.667,10.833l-2.328-19.03Z" transform="translate(-356.748 -173.106)" fill="#b16449"/>
          <g id="Group_793" data-name="Group 793" transform="translate(23.369 103.637)">
            <path id="Path_3480" data-name="Path 3480" d="M399.635,386.286s-3.764,6.413-15.055,9.979a1.8,1.8,0,0,0,.136,3.182l25.579-1.127s3.071-.743,0-13.731Z" transform="translate(-383.645 -230.093)" fill="#ee4437"/>
            <path id="Path_3481" data-name="Path 3481" d="M397.4,377.256s1.931,8.692-.5,11.552-2.947,6.711,1.758,6.5,9.67-4.73,9.286-6.463S410.5,374,410.5,374Z" transform="translate(-380.919 -232.614)" fill="#ffb99e"/>
            <path id="Path_3482" data-name="Path 3482" d="M394.726,264.083c-1.894-1.609-4.606,33.169-2.34,64.146,1.969,26.941,2.5,77.072,2.5,77.072s6.76,3.925,16.207-1.993a310.675,310.675,0,0,0,2.092-44.894c-.359-17.965.99-22.67,2.711-40.622,1.746-18.225,1.263-38.889,1.585-55.7,0,0-9.372-6.29-22.756,2.006Z" transform="translate(-381.769 -259.805)" fill="#004a87"/>
            <path id="Path_3483" data-name="Path 3483" d="M394.726,264.083c-1.894-1.609-4.606,33.169-2.34,64.146,1.969,26.941,2.5,77.072,2.5,77.072s6.76,3.925,16.207-1.993a310.675,310.675,0,0,0,2.092-44.894c-.359-17.965.99-22.67,2.711-40.622,1.746-18.225,1.263-38.889,1.585-55.7,0,0-9.372-6.29-22.756,2.006Z" transform="translate(-381.769 -259.805)" fill="#1c1c26"/>
          </g>
          <g id="Group_794" data-name="Group 794" transform="translate(42.476 102.172)">
            <path id="Path_3484" data-name="Path 3484" d="M416.525,385.788s-3.38,6.636-14.424,10.871a1.8,1.8,0,0,0,.334,3.17l25.468-2.674s3.021-.929-.842-13.693l-10.536,2.34Z" transform="translate(-398.557 -228.896)" fill="#ee4437"/>
            <path id="Path_3485" data-name="Path 3485" d="M413.7,376.789s2.451,8.568.2,11.552-2.538,6.871,2.142,6.389,9.372-5.311,8.877-7.02,1.647-14.969,1.647-14.969l-12.876,4.049Z" transform="translate(-395.925 -231.449)" fill="#ffb99e"/>
            <path id="Path_3486" data-name="Path 3486" d="M399.551,262.718c-1.993-1.5,2.687,34.729,6.822,65.508,3.59,26.78,7.156,76.775,7.156,76.775s6.983,3.5,16.058-2.971a311.8,311.8,0,0,0-.631-44.943c-1.449-17.9-.384-22.695.248-40.709.644-18.3,10-35.175,3.541-53.858,0,0-20.33-8.9-33.194.2Z" transform="translate(-399.077 -258.621)" fill="#2c2c36"/>
          </g>
          <path id="Path_3487" data-name="Path 3487" d="M435.534,207.584S411.28,203.6,389.9,210.728c0,0-8.06,17.111-3.343,29.442,5.324,13.879,4.9,23.933,6.042,30.185,0,0,24.948,8.766,43.482,4.581,0,0,1.374-48.645-.545-67.353Z" transform="translate(-359.936 -168.867)" fill="#ee4437"/>
          <path id="Path_3488" data-name="Path 3488" d="M394.937,185.83s-4.049,16.913,3.578,22.088a15.368,15.368,0,0,0,13-8.989c4.247-8.927-.26-17.8-4.4-19.7s-11.341.545-12.183,6.612Z" transform="translate(-357.843 -175.503)" fill="#ffb99e"/>
          <path id="Path_3489" data-name="Path 3489" d="M399.037,185.337a12.779,12.779,0,0,0,7.8,6.562s-.941,6.265,1.721,6.834c0,0,2.08,1.127,3.875,5.435,0,0,11.812-11.019,3.739-21.828,0,0-4.68-9.385-16.393-5.138,0,0-11.861-1.523-5.188,12.852,0,0,.012-5.076,4.432-4.73Z" transform="translate(-358.154 -176.099)" fill="#2c2c36"/>
          <path id="Path_3490" data-name="Path 3490" d="M405.695,191.9s3.553-2.947,4.272-1.548c1.114,2.167-1.015,6.512-4.556,6.971l.285-5.423Z" transform="translate(-355.093 -172.795)" fill="#ffb99e"/>
          <path id="Path_3497" data-name="Path 3497" d="M414.865,207.833c.384,3.157-3.194,6.191-8.011,6.785s-9.013-1.5-9.41-4.655a4.215,4.215,0,0,1,.359-2.191,127.856,127.856,0,0,1,16.69-1.151,3.717,3.717,0,0,1,.359,1.213Z" transform="translate(-356.996 -168.832)" fill="#ffb99e"/>
        </g>
        <path id="Path_3498" data-name="Path 3498" d="M381.449,12.78c-25.381,11.6-15.749,38.542,6.29,51.035s57.832,37.081,67.7,16.8.607-44.733-21.494-57.869-40.35-15.526-52.5-9.979Z" transform="translate(-94.765 2.374)" fill="#ffe9e8"/>
        <rect id="Rectangle_805" data-name="Rectangle 805" width="10.722" height="120.617" transform="translate(183.426)" fill="#ee4437" opacity="0.24"/>
        <rect id="Rectangle_806" data-name="Rectangle 806" width="215.852" height="228.728" rx="7.24" transform="translate(79.623 101.24)" fill="#f9f9f9"/>
        <rect id="Rectangle_807" data-name="Rectangle 807" width="215.852" height="17.928" rx="7.24" transform="translate(79.623 101.24)" fill="#ee4437" opacity="0.36"/>
        <g id="Group_796" data-name="Group 796" transform="translate(131.512 198.432)">
          <rect id="Rectangle_808" data-name="Rectangle 808" width="12.245" height="24.143" transform="translate(0 49.128)" fill="#2c2c36" opacity="0.36"/>
          <rect id="Rectangle_809" data-name="Rectangle 809" width="12.245" height="39.186" transform="translate(22.063 34.085)" fill="#2c2c36"/>
          <rect id="Rectangle_810" data-name="Rectangle 810" width="12.245" height="52.583" transform="translate(44.114 20.689)" fill="#2c2c36"/>
          <rect id="Rectangle_811" data-name="Rectangle 811" width="12.245" height="63.602" transform="translate(66.177 9.67)" fill="#f6b8b3"/>
          <rect id="Rectangle_812" data-name="Rectangle 812" width="12.245" height="73.284" transform="translate(88.24)" fill="#feca14"/>
          <rect id="Rectangle_813" data-name="Rectangle 813" width="12.245" height="73.284" transform="translate(88.24)" fill="#f6b8b3"/>
          <rect id="Rectangle_814" data-name="Rectangle 814" width="12.245" height="73.284" transform="translate(110.291)" fill="#ee4437"/>
        </g>
        <g id="Group" transform="translate(131.462 290.919)">
          <text id="L" transform="translate(0 5)" fill="#2c2c36" font-size="5" font-family="Segoe UI" letter-spacing="-0.01em"><tspan x="0" y="0">L</tspan></text>
          <text id="o" transform="translate(2.959 5)" fill="#2c2c36" font-size="5" font-family="Segoe UI"><tspan x="0" y="0">o</tspan></text>
          <text id="r" transform="translate(6.506 5)" fill="#2c2c36" font-size="5" font-family="Segoe UI" letter-spacing="-0.01em"><tspan x="0" y="0">r</tspan></text>
          <text id="em_ipsum_dolor_sit_ame" data-name="em ipsum dolor sit ame" transform="translate(8.56 5)" fill="#2c2c36" font-size="5" font-family="Segoe UI"><tspan x="0" y="0">em ipsum dolor sit ame</tspan></text>
          <text id="t" transform="translate(71.695 5)" fill="#2c2c36" font-size="5" font-family="Segoe UI"><tspan x="0" y="0">t</tspan></text>
          <text id="_4" data-name=", " transform="translate(73.821 5)" fill="#2c2c36" font-size="5" font-family="Segoe UI"><tspan x="0" y="0">, </tspan></text>
          <text id="c" transform="translate(76.528 5)" fill="#2c2c36" font-size="5" font-family="Segoe UI"><tspan x="0" y="0">c</tspan></text>
          <text id="onse" transform="translate(79.379 5)" fill="#2c2c36" font-size="5" font-family="Segoe UI"><tspan x="0" y="0">onse</tspan></text>
          <text id="c-2" data-name="c" transform="translate(92.312 5)" fill="#2c2c36" font-size="5" font-family="Segoe UI" letter-spacing="0.01em"><tspan x="0" y="0">c</tspan></text>
          <text id="t-2" data-name="t" transform="translate(95.292 5)" fill="#2c2c36" font-size="5" font-family="Segoe UI"><tspan x="0" y="0">t</tspan></text>
          <text id="etuer_" data-name="etuer " transform="translate(97.396 5)" fill="#2c2c36" font-size="5" font-family="Segoe UI"><tspan x="0" y="0">etuer </tspan></text>
          <text id="adipiscing_eli" data-name="adipiscing eli" transform="translate(23.554 14.852)" fill="#2c2c36" font-size="5" font-family="Segoe UI"><tspan x="0" y="0">adipiscing eli</tspan></text>
          <text id="t-3" data-name="t" transform="translate(58.827 14.852)" fill="#2c2c36" font-size="5" font-family="Segoe UI"><tspan x="0" y="0">t</tspan></text>
          <text id="_sed_diam" data-name=", sed diam" transform="translate(60.945 14.852)" fill="#2c2c36" font-size="5" font-family="Segoe UI"><tspan x="0" y="0">, sed diam</tspan></text>
        </g>
        <g id="Group_798" data-name="Group 798" transform="translate(21.686 249.553)">
          <g id="Group_797" data-name="Group 797" transform="translate(50.137 73.261)">
            <path id="Path_3499" data-name="Path 3499" d="M205,269.087s5.745,2.959,8.456,3.207,9.93.5,11.081,0,2.625-.5,3.776-.99,2.216-.99,1.882-1.312a2.324,2.324,0,0,0-1.226-.334l.817-.57-.9-.57s-5.658-1.065-7.144-1.882a4.512,4.512,0,0,1-2.464-2.612c-.248-.916,1.4-.669,2.055-.83a18.513,18.513,0,0,1,3.974.5c.9.161.124-1.572-1.35-2.142a14.709,14.709,0,0,0-5.832-.743c-1.312.248-6.971.99-8.778.743S205,269.1,205,269.1Z" transform="translate(-205 -260.731)" fill="#ffb99e"/>
            <path id="Path_3500" data-name="Path 3500" d="M225.8,268.53a29.492,29.492,0,0,1-6.042-1.052,15.027,15.027,0,0,0-3.838-1c.248.124,5.039,3.306,9.88,2.055Z" transform="translate(-202.404 -259.37)" fill="#e14e5e"/>
            <path id="Path_3501" data-name="Path 3501" d="M214.35,268.36a19.82,19.82,0,0,0,7.961,1.919h.557l-8.518-1.919Z" transform="translate(-202.774 -258.915)" fill="#e14e5e"/>
          </g>
          <path id="Path_3502" data-name="Path 3502" d="M171.927,201.572s8.134,3.355,9.484,21.122c.31,4.061,2.13,16.727,7.292,27.709,3.851,8.2,19.389,18.646,30.3,25.208,0,0,4.841,9.2-2.315,9.608,0,0-26.632-11.279-37.713-23.314-8.332-9.038-13.57-23.116-14.2-36.277,0,0-2.39-24.069,7.156-24.069Z" transform="translate(-164.505 -201.56)" fill="#ee4437"/>
        </g>
        <g id="Group_800" data-name="Group 800" transform="translate(273.684 256.952)">
          <path id="Path_3503" data-name="Path 3503" d="M440.536,211.515c-.99-2.848-5.1-5.274-7.28-3.207-3.331,3.157-5.188,7.738-7.094,19.178-1.647,9.868-20.416,35.4-41.08,45.736,0,0-.446,7.6,6.4,8.531,0,0,46.862-18.473,51.06-51.9,0,0,.755-10.388-1.993-18.336Z" transform="translate(-363.983 -207.536)" fill="#feca14"/>
          <path id="Path_3504" data-name="Path 3504" d="M440.536,211.515c-.99-2.848-5.1-5.274-7.28-3.207-3.331,3.157-5.188,7.738-7.094,19.178-1.647,9.868-20.416,35.4-41.08,45.736,0,0-.446,7.6,6.4,8.531,0,0,46.862-18.473,51.06-51.9,0,0,.755-10.388-1.993-18.336Z" transform="translate(-363.983 -207.536)" fill="#ca1204"/>
          <g id="Group_799" data-name="Group 799" transform="translate(0 64.711)">
            <path id="Path_3505" data-name="Path 3505" d="M393.3,268.157s-5.745,2.959-8.456,3.207-9.93.5-11.081,0-2.625-.5-3.776-.99-2.216-.99-1.882-1.312a2.324,2.324,0,0,1,1.226-.334l-.817-.569.9-.57s5.658-1.065,7.144-1.882a4.512,4.512,0,0,0,2.464-2.612c.248-.916-1.4-.669-2.055-.83a18.513,18.513,0,0,0-3.974.5c-.9.161-.124-1.572,1.35-2.142a14.71,14.71,0,0,1,5.831-.743c1.312.248,6.971.991,8.778.743s4.346,7.552,4.346,7.552Z" transform="translate(-368.04 -259.801)" fill="#ffb99e"/>
            <path id="Path_3506" data-name="Path 3506" d="M369.54,267.6a29.492,29.492,0,0,0,6.042-1.052,15.029,15.029,0,0,1,3.838-1C379.173,265.668,374.381,268.85,369.54,267.6Z" transform="translate(-367.682 -258.44)" fill="#e14e5e"/>
            <path id="Path_3507" data-name="Path 3507" d="M380.738,267.43a19.82,19.82,0,0,1-7.961,1.919h-.557Z" transform="translate(-367.044 -257.985)" fill="#e14e5e"/>
          </g>
        </g>
        <rect id="Rectangle_815" data-name="Rectangle 815" width="232.529" height="22.311" rx="6.38" transform="translate(71.823 84.464)" fill="#2c2c36"/>
        <g id="Group_801" data-name="Group 801" transform="translate(101.686 128.838)">
          <path id="Path_3508" data-name="Path 3508" d="M260.048,111.171V104.72a30.913,30.913,0,0,0-19.562,54.861l4.086-4.99a24.455,24.455,0,0,1,15.476-43.408Z" transform="translate(-229.12 -103.903)" fill="#2c2c36"/>
          <path id="Path_3509" data-name="Path 3509" d="M285.028,135.648a30.825,30.825,0,0,1-9.075,21.853l-4.556-4.556a24.461,24.461,0,0,0-17.3-41.774V104.72A30.961,30.961,0,0,1,285.028,135.648Z" transform="translate(-223.172 -103.903)" fill="#ee4437"/>
          <path id="Path_3510" data-name="Path 3510" d="M279.712,148.214a30.868,30.868,0,0,1-41.4,2.08l4.086-4.99a24.43,24.43,0,0,0,32.773-1.634l4.556,4.556Z" transform="translate(-226.932 -94.628)" fill="#f6b8b3"/>
          <circle id="Ellipse_107" data-name="Ellipse 107" cx="13.879" cy="13.879" r="13.879" transform="translate(17.049 17.135)" fill="#7cb4f7" opacity="0.36"/>
          <text id="_100" data-name="100" transform="translate(20.503 33.45)" fill="#2c2c36" font-size="9" font-family="Segoe UI"><tspan x="0" y="0">100</tspan></text>
          <text id="_5" data-name="%" transform="translate(35.744 30.096)" fill="#2c2c36" font-size="5" font-family="Segoe UI"><tspan x="0" y="0">%</tspan></text>
          <text id="_65" data-name="65" transform="translate(55.244 9)" fill="#2c2c36" font-size="8" font-family="Segoe UI"><tspan x="0" y="0">65</tspan></text>
          <text id="_6" data-name="%" transform="translate(64.741 5.87)" fill="#2c2c36" font-size="4" font-family="Segoe UI"><tspan x="0" y="0">%</tspan></text>
          <text id="_30" data-name="30" transform="translate(48.361 65.21)" fill="#2c2c36" font-size="8" font-family="Segoe UI"><tspan x="0" y="0">30</tspan></text>
          <text id="_7" data-name="%" transform="translate(57.857 62.08)" fill="#2c2c36" font-size="4" font-family="Segoe UI"><tspan x="0" y="0">%</tspan></text>
        </g>
        <text id="Lorem_ipsum_dolor_sit_amet_consectetuer_adipiscing_elit_sed_diam_nonummy_nibh" data-name="Lorem ipsum dolor sit amet, 
consectetuer adipiscing elit, 
sed diam nonummy nibh" transform="translate(195.77 153.932)" fill="#2c2c36" font-size="5" font-family="Segoe UI"><tspan x="0" y="0" letter-spacing="-0.01em">L</tspan><tspan y="0">o</tspan><tspan y="0" letter-spacing="-0.01em">r</tspan><tspan y="0">em ipsum dolor sit amet, </tspan><tspan x="0" y="8">conse</tspan><tspan y="8" letter-spacing="0.01em">c</tspan><tspan y="8">tetuer adipiscing elit, </tspan><tspan x="0" y="16">sed diam nonum</tspan><tspan y="16" letter-spacing="-0.01em">m</tspan><tspan y="16">y nibh</tspan></text>
        <text id="Business_Growth" data-name="Business Growth" transform="translate(195.213 138.491)" fill="#2c2c36" font-size="9" font-family="Segoe UI"><tspan x="0" y="0">Business G</tspan><tspan y="0" letter-spacing="-0.01em">r</tspan><tspan y="0">owth</tspan></text>
        <path id="Path_3511" data-name="Path 3511" d="M236.13,167.39v74.534H397.654" transform="translate(-125.765 39.857)" fill="none" stroke="#2c2c36" stroke-width="1" opacity="0.34"/>
        <g id="Group_802" data-name="Group 802" transform="translate(321.153 134.991)">
          <path id="Path_3512" data-name="Path 3512" d="M449.342,151.691a24.252,24.252,0,1,1-18.708-39.681v24.242Z" transform="translate(-406.38 -108.32)" fill="#ee4437"/>
          <path id="Path_3513" data-name="Path 3513" d="M452.982,133.285a24.217,24.217,0,0,1-5.547,15.439l-18.7-15.439V109.03a24.243,24.243,0,0,1,24.242,24.255Z" transform="translate(-401.056 -109.03)" fill="#2c2c36"/>
        </g>
        <path id="Path_3514" data-name="Path 3514" d="M449.342,147.029A24.256,24.256,0,0,1,406.38,131.59h24.255Z" transform="translate(-85.227 31.333)" fill="#fff"/>
        <circle id="Ellipse_108" data-name="Ellipse 108" cx="4.977" cy="4.977" r="4.977" transform="translate(249.07 191.498)" fill="none" stroke="#2c2c36" stroke-width="1" opacity="0.34"/>
        <path id="Path_3515" data-name="Path 3515" d="M422.176,126.03H404.843v42.393H356.21" transform="translate(-97.173 30.009)" fill="none" stroke="#2c2c36" stroke-width="1" opacity="0.34"/>
        <path id="Path_3516" data-name="Path 3516" d="M415.3,126.03H397.971v42.393h-12.9" transform="translate(-90.301 30.009)" fill="none" stroke="#f9f9f9" stroke-width="1"/>
      </g>
      <g id="Group_806" data-name="Group 806" transform="translate(79.678 197.404)">
        <g id="Group_804" data-name="Group 804">
          <path id="Path_3517" data-name="Path 3517" d="M71.392,159.44h89.887a7.036,7.036,0,0,1,7.032,7.032v57.436a7.036,7.036,0,0,1-7.032,7.032H71.392a7.036,7.036,0,0,1-7.032-7.032V166.472A7.036,7.036,0,0,1,71.392,159.44Z" transform="translate(-64.36 -159.44)" fill="#f9f9f9"/>
          <path id="Path_3518" data-name="Path 3518" d="M98.8,219.656,76.49,206.78v25.765Z" transform="translate(-61.472 -148.168)" fill="#f9f9f9"/>
        </g>
        <g id="Group_805" data-name="Group 805" transform="translate(15.018 18.51)">
          <path id="Path_3519" data-name="Path 3519" d="M76.49,213.876l20.416-19.835,9.843,10.846,20.305-17.965,7.961,8.134,20-18.076" transform="translate(-76.49 -173.773)" fill="none" stroke="#ee4437" stroke-width="2"/>
          <path id="Path_3520" data-name="Path 3520" d="M143.746,180.8V174.39H137.32Z" transform="translate(-62.006 -174.39)" fill="#ee4437"/>
        </g>
        <rect id="Rectangle_816" data-name="Rectangle 816" width="18.473" height="4.866" rx="1.19" transform="translate(12.505 8.667)" fill="#2c2c36"/>
        <rect id="Rectangle_817" data-name="Rectangle 817" width="26.904" height="4.866" rx="1.19" transform="translate(12.505 16.083)" fill="#ee4437"/>
      </g>
    </g>
  </g>
</svg>
