<svg xmlns="http://www.w3.org/2000/svg" width="296.466" height="241.757" viewBox="0 0 296.466 241.757">
  <g id="portfolio-graphics02" transform="translate(-0.002)">
    <g id="Group_814" data-name="Group 814" transform="translate(0.002 1.354)">
      <path id="Path_3560" data-name="Path 3560" d="M0,0H121.178V214.534H0Z" transform="translate(149.724 22.828)" fill="#ffe9e8"/>
      <rect id="Rectangle_819" data-name="Rectangle 819" width="79.205" height="214.534" transform="translate(151.695 22.828)" fill="#fccbc8"/>
      <path id="Path_3521" data-name="Path 3521" d="M469.61,6.55V245h52.682V27.045Z" transform="translate(-372.568 -6.55)" fill="#ffe9e8"/>
      <rect id="Rectangle_820" data-name="Rectangle 820" width="5.199" height="238.447" transform="translate(91.843)" fill="#fccbc8"/>
      <rect id="Rectangle_821" data-name="Rectangle 821" width="111.356" height="18.309" transform="translate(154.633 220.814)" fill="#ee4437"/>
      <path id="Path_3522" data-name="Path 3522" d="M790.162,1093.429H748.31V1075.12h30.749Z" transform="translate(-593.677 -854.306)" fill="#e8463a"/>
      <rect id="Rectangle_822" data-name="Rectangle 822" width="87.452" height="18.309" transform="translate(178.54 202.505)" fill="#ee4437" opacity="0.8"/>
      <path id="Path_3561" data-name="Path 3561" d="M0,0H64.961V18.309H0Z" transform="translate(201.033 184.196)" fill="#ee4437" opacity="0.6"/>
      <path id="Path_3562" data-name="Path 3562" d="M0,0H42.449V18.309H0Z" transform="translate(223.545 165.888)" fill="#ee4437" opacity="0.4"/>
      <path id="Path_3523" data-name="Path 3523" d="M724.55,107.18V324.832H845.728V107.18ZM840.816,319.687H729.462V112.325H840.818V319.687Z" transform="translate(-574.827 -86.385)" fill="#f86d62"/>
      <g id="Group_813" data-name="Group 813" transform="translate(0 164.896)">
        <g id="Group_808" data-name="Group 808" transform="translate(39.181 29.263)">
          <path id="Path_3524" data-name="Path 3524" d="M222.427,958.534s-5.129-5.982-.316-9.783c0,0,3.515-2.128,6.381-1.955,0,0-4.061,6.809-2.746,7.487s3.978-7.914,3.978-7.914,8-.775,10.572.461c0,0-6.838,5.6-5.4,5.929s8.826-5.16,8.826-5.16,7.443,1.267,7.047,5.809-2.961,5.943-4.089,5.823-7.722-2.639-7.865-1.715,3.825,3.943,6.606,4.083c0,0-5.249,5.788-8.737,4.118s-3.786-4.319-5.96-5.311-4.03-.99-3.133.023,4.833,2,6.075,4.2,2.36,3.682-1.25,3.139-9.475-3.184-9.733-6.208l-.256-3.023Z" transform="translate(-213.761 -946.129)" fill="#fccbc8"/>
          <g id="Group_807" data-name="Group 807" transform="translate(0 7.367)">
            <path id="Path_3525" data-name="Path 3525" d="M238.962,981.815s-20.218-.779-24.684,5a14.626,14.626,0,0,1-4.025,5.65l-.473,1.292s3.5-3.695,4.757-3.918C214.537,989.841,212.576,982.677,238.962,981.815Z" transform="translate(-205.612 -981.78)" fill="#f3b8b4"/>
            <path id="Path_3526" data-name="Path 3526" d="M194.251,1031.54a12.7,12.7,0,0,0-4.641,8.944l.787.07s1.387-5.929,3.891-8.249-.037-.767-.037-.767Z" transform="translate(-189.61 -1020.852)" fill="#f3b8b4"/>
          </g>
        </g>
        <g id="Group_810" data-name="Group 810" transform="translate(0 13.019)">
          <path id="Path_3527" data-name="Path 3527" d="M29.922,888.646s8.156-4.569,4.35-10.768c0,0-3.046-3.806-6.309-4.786,0,0,1.74,9.245,0,9.462s-1.2-10.442-1.2-10.442-8.592-4.133-11.963-3.806c0,0,5.329,9.028,3.589,8.809s-7.722-9.353-7.722-9.353S1.862,866.13.448,871.352s.87,7.832,2.176,8.156,9.679.217,9.462,1.306-5.873,2.827-9.026,1.849c0,0,3.48,8.592,8.049,8.158s5.982-3.263,8.809-3.48,4.893.543,3.48,1.306-6.2.25-8.483,2.19-4.133,3.139.11,4.009,11.855.326,13.378-2.936l1.523-3.263Z" transform="translate(-0.002 -867.521)" fill="#ffe9e8"/>
          <g id="Group_809" data-name="Group 809" transform="translate(4.469 5.461)">
            <path id="Path_3528" data-name="Path 3528" d="M21.63,893.952s22.84,7.4,25.45,15.662a17.331,17.331,0,0,0,2.176,7.939v1.63s-2.393-5.546-3.7-6.309c0,0,5.112-7.179-23.927-18.924Z" transform="translate(-21.63 -893.95)" fill="#fccbc8"/>
            <path id="Path_3529" data-name="Path 3529" d="M151.137,1004.268a15.059,15.059,0,0,1,1.515,11.859l-.905-.244s.88-7.171-.963-10.779.355-.839.355-.839Z" transform="translate(-123.51 -980.665)" fill="#fccbc8"/>
          </g>
        </g>
        <g id="Group_812" data-name="Group 812" transform="translate(35.828)">
          <path id="Path_3530" data-name="Path 3530" d="M180.453,832.363s-10.752-6.022-5.734-14.192c0,0,4.015-5.017,8.315-6.309,0,0-2.294,12.186,0,12.473s1.577-13.762,1.577-13.762,11.326-5.447,15.771-5.017c0,0-7.024,11.9-4.73,11.613s10.179-12.33,10.179-12.33,11.613-2.151,13.477,4.73-1.147,10.322-2.868,10.752-12.76.287-12.473,1.721,7.741,3.728,11.9,2.436c0,0-4.587,11.326-10.609,10.752s-7.886-4.3-11.613-4.588-6.451.717-4.587,1.721,8.173.328,11.184,2.889,5.447,4.137-.143,5.284-15.626.43-17.635-3.87l-2.007-4.3Z" transform="translate(-173.384 -804.519)" fill="#ffe9e8"/>
          <g id="Group_811" data-name="Group 811" transform="translate(1.388 7.2)">
            <path id="Path_3531" data-name="Path 3531" d="M230.127,839.36s-30.108,9.749-33.549,20.646a22.881,22.881,0,0,1-2.868,10.466v2.151s3.153-7.311,4.875-8.315c0,0-6.739-9.462,31.54-24.946Z" transform="translate(-190.898 -839.36)" fill="#fccbc8"/>
            <path id="Path_3532" data-name="Path 3532" d="M182.915,984.773a19.855,19.855,0,0,0-2,15.633l1.194-.32s-1.159-9.454,1.271-14.207S182.915,984.773,182.915,984.773Z" transform="translate(-180.103 -953.662)" fill="#fccbc8"/>
          </g>
        </g>
        <path id="Path_3533" data-name="Path 3533" d="M146.044,1053.7a21.062,21.062,0,1,1-42.124,0h42.126Z" transform="translate(-82.446 -1002.208)" fill="#14142b"/>
        <path id="Path_3534" data-name="Path 3534" d="M145.207,1150.848H102.5a2.6,2.6,0,0,1,2.6-2.6h37.508a2.6,2.6,0,0,1,2.6,2.6Z" transform="translate(-81.319 -1077.22)" fill="#14142b"/>
        <path id="Path_3535" data-name="Path 3535" d="M129.518,1073.236h2.856c-7.726-3.12-10.8-10.692-10.8-19.536H116.34A21.067,21.067,0,0,0,129.518,1073.236Z" transform="translate(-92.299 -1002.208)" fill="#313140"/>
        <path id="Path_3536" data-name="Path 3536" d="M143.534,1054.354H100.882a.323.323,0,0,1-.322-.322h0a.323.323,0,0,1,.322-.322h42.651a.323.323,0,0,1,.322.322h0A.323.323,0,0,1,143.534,1054.354Z" transform="translate(-79.78 -1002.216)" fill="#f3b8b4"/>
      </g>
      <path id="Path_3537" data-name="Path 3537" d="M1109.243,827.629H1081.79V809.32h7.121Z" transform="translate(-858.245 -643.432)" fill="#e3372a" opacity="0.07"/>
      <path id="Path_3538" data-name="Path 3538" d="M1007.82,916.229H972.85V897.92h17.156Z" transform="translate(-771.817 -713.724)" fill="#e3372a" opacity="0.13"/>
      <path id="Path_3539" data-name="Path 3539" d="M893.069,1004.829H864V986.52h15.23Z" transform="translate(-685.46 -784.015)" fill="#e3372a" opacity="0.25"/>
      <rect id="Rectangle_825" data-name="Rectangle 825" width="6.458" height="21.632" rx="3.229" transform="translate(103.747 115.566)" fill="#77a4e5"/>
    </g>
    <g id="Group_817" data-name="Group 817" transform="translate(59.948 43.935)">
      <path id="Path_3540" data-name="Path 3540" d="M549.4,411.906c.446-2.1-.6-2.6-.6-2.6s-20.966-6.951-22.714-7.786S511,382.19,511,382.19s-5.038-7.613-10.159-6.815c-4.451.692-6.59,3.784-7.607,6.873a9.427,9.427,0,0,0,2.978,10.2c6.706,5.546,20.15,16.5,23.467,18.011,7.385,3.352,28.387,4.209,28.387,4.209A6.747,6.747,0,0,0,549.4,411.9Z" transform="translate(-450.887 -341.695)" fill="#dd3225"/>
      <path id="Path_3541" data-name="Path 3541" d="M754.289,537.909a62.48,62.48,0,0,1,6.441-1.821,13.575,13.575,0,0,1,4.447,1.318c.068.263-.068.5-.634.587s-2.467.023-2.327.24,5.648.783,5.807,1.866-2.618,3.379-5.11,3.744-7.683-2.091-8.109-2.089c-3.608.017-.517-3.846-.517-3.846Z" transform="translate(-657.386 -469.244)" fill="#fabbb4"/>
      <path id="Path_3542" data-name="Path 3542" d="M482.71,320.188s5.282,6.268,12.01,3.645a20.4,20.4,0,0,0,1.467-6.082c0-.318.006-.626.01-.917.035-2.905.134-4.536.134-4.536h-.006c-.306-.128-10.285-4.224-10.274-3.885.171,7.859-3.339,11.775-3.339,11.775Z" transform="translate(-442.907 -288.601)" fill="#fabbb4"/>
      <g id="Group_815" data-name="Group 815" transform="translate(0 85.554)">
        <path id="Path_3543" data-name="Path 3543" d="M304.33,1096.057h-6.794c-1.424,0-3.007-1.445-3.4-4.092s-3.325-4.092-3.957-6.257,2.612-5.216,2.612-5.216l.543-.707.564-.736,5.383,1.283s.132,1.3.215,2.953c.058,1.194.089,2.575.023,3.786-.159,2.889.8,6,3.329,6.561S304.33,1096.057,304.33,1096.057Z" transform="translate(-290.092 -985.56)" fill="#ee4437"/>
        <path id="Path_3544" data-name="Path 3544" d="M514,1122.906H495.987a1.692,1.692,0,0,1-.382-.114c-1.2-.62-.827-5.36-.682-6.823.027-.271.048-.43.048-.43s6.334-5.216,7.206-1.221c.027.124.06.246.093.368h0c1.1,3.738,6.013,5.435,8.853,5.908,2.17.364,2.732,1.663,2.876,2.314Z" transform="translate(-452.46 -1012.346)" fill="#ee4437"/>
        <path id="Path_3545" data-name="Path 3545" d="M467.152,651.271s-.961,12-2.091,26.424c-1.537,19.6-3.385,43.664-3.567,48.224-.316,7.919-1.585,20.584-1.585,20.584s-3.007,3.009-9.024,1.74a207.156,207.156,0,0,1-6.894-37.208c-.023-.314-.048-.63-.07-.944-1.424-19.474-3.641-60.481-3.641-60.481l26.874,1.664Z" transform="translate(-409.245 -644.861)" fill="#14142b"/>
        <path id="Path_3546" data-name="Path 3546" d="M467.152,651.264s-.961,12-2.091,26.424l-21.069,33.338c-.023-.314-.047-.63-.07-.944C442.5,690.607,440.28,649.6,440.28,649.6l26.874,1.664Z" transform="translate(-409.245 -644.854)"/>
        <path id="Path_3547" data-name="Path 3547" d="M353.952,634.466s-17.337,43.459-28.736,63.884-14.961,26.124-14.961,26.124-6.53-2.612-7.125-4.393c0,0,4.36-39.43,11.994-49.041,4.313-5.431,9.38-21.729,9.617-27.43s1.544-16.98,1.544-16.98Z" transform="translate(-300.436 -626.63)" fill="#14142b"/>
      </g>
      <path id="Path_3548" data-name="Path 3548" d="M445.517,378.489c-.068,3.715-.283,7.894-.574,12.136-.019.252-.035.5-.054.754-.186,2.628-.388,5.263-.62,7.832q-.139,1.547-.3,3.048l-.017.134c-.008.374-.054.781-.1,1.151-.946,9.623-1.94,17.226-2.124,17.344a1.081,1.081,0,0,1-.74.188c-2.523-.316-10.053.256-16.217-1.085a46.766,46.766,0,0,1-14.428-5.982c-.63-.372-2.066-1.36-1.949-2.1.116-.81.327-1.982.6-3.453a186.868,186.868,0,0,0,3.1-24.229q.161-2.88.465-5.679a86.035,86.035,0,0,1,2.515-13.564c2.114-7.611,5.22-13.438,9.115-15.717.508-.285,3.248,1.457,5.765,3.073a11.115,11.115,0,0,0,7.15,1.695l2.093,2.316a23.377,23.377,0,0,1,5.972,12.45q.084.617.143,1.316a81.57,81.57,0,0,1,.2,8.369Z" transform="translate(-383.95 -321.007)" fill="#ee4437"/>
      <g id="Group_816" data-name="Group 816" transform="translate(5.328 32.283)">
        <path id="Path_3549" data-name="Path 3549" d="M324.371,621.285a58.85,58.85,0,0,1-.777,6.261,12.83,12.83,0,0,1-2.775,3.381c-.254-.037-.405-.24-.277-.767s.884-2.151.645-2.11-2.748,4.619-3.746,4.36-1.975-3.511-1.382-5.809,4.629-5.906,4.784-6.278C322.147,617.183,324.371,621.285,324.371,621.285Z" transform="translate(-315.877 -567.417)" fill="#fabbb4"/>
        <path id="Path_3550" data-name="Path 3550" d="M338.817,424.086c1.92.616,2.226.477,2.226.477s9.34-17,10.285-18.561,19.83-19.067,19.83-19.067l-4.852-18.1s-21.479,27.812-23.8,31.8c-3.833,6.594-6.077,21.91-6.077,21.91a5.637,5.637,0,0,0,2.387,1.533Z" transform="translate(-332.183 -368.84)" fill="#ee4437"/>
      </g>
      <path id="Path_3551" data-name="Path 3551" d="M501.71,328.98c1.033,2.422,9.305,7.179,9.305,7.179l.973-3.792Z" transform="translate(-457.98 -304.933)" fill="#f8a39f"/>
      <path id="Path_3552" data-name="Path 3552" d="M502.713,256.822s-13.707.44-13.849-8.1-2.009-14.236,6.739-14.876,10.5,2.589,11.241,5.426-.568,17.216-4.131,17.55Z" transform="translate(-447.581 -229.392)" fill="#fabbb4"/>
      <path id="Path_3553" data-name="Path 3553" d="M476.781,232.237s-1.488-.393-1.49-4.2-3.68-10.812-.889-11.475,3.368-.442,3.368-.442-.62-3.988,4.519-3.455,12.539,3.765,14.356,2.657,2.172,8.284-2.571,8.109-11.475-4-13.027-1-.752,6.451-1.55,6.451-1.221-2.978-2.259-2.614c-.591.207-.457,5.974-.457,5.974Z" transform="translate(-435.486 -212.613)" fill="#14142b"/>
      <path id="Path_3554" data-name="Path 3554" d="M421.625,487.807l11.7-11.107L420.46,500.171Z" transform="translate(-393.52 -422.128)" fill="#dd3225"/>
    </g>
    <path id="Path_3555" data-name="Path 3555" d="M64.862,1160.21H347.1a.542.542,0,0,1,.462.6v.816a.542.542,0,0,1-.462.6H64.862a.542.542,0,0,1-.462-.6v-.816A.542.542,0,0,1,64.862,1160.21Z" transform="translate(-51.09 -920.459)" fill="#14142b"/>
    <g id="Group_819" data-name="Group 819" transform="translate(191.72)">
      <path id="Path_3563" data-name="Path 3563" d="M4.42,0H36a4.42,4.42,0,0,1,4.42,4.42V8.7A4.42,4.42,0,0,1,36,13.116H4.42A4.42,4.42,0,0,1,0,8.7V4.42A4.42,4.42,0,0,1,4.42,0Z" fill="#f86d62"/>
      <g id="Group_818" data-name="Group 818" transform="translate(5.838 1.684)">
        <path id="Path_3556" data-name="Path 3556" d="M962.509,16.155a.381.381,0,0,1,.376.376v.988a.381.381,0,0,1-.376.376H956.4a.381.381,0,0,1-.376-.376V8.526a.381.381,0,0,1,.376-.376h6a.381.381,0,0,1,.376.376v.988a.381.381,0,0,1-.376.376h-4.5V12.1h4.191a.381.381,0,0,1,.376.376v.988a.381.381,0,0,1-.376.376H957.9v2.312h4.608Z" transform="translate(-956.02 -8.15)" fill="#fff"/>
        <path id="Path_3557" data-name="Path 3557" d="M1000.749,17.9a.514.514,0,0,1-.4-.138c-.083-.093-.145-.161-.182-.209l-2.213-3.077-2.2,3.077c-.037.048-.1.116-.182.209a.518.518,0,0,1-.4.138H994a.361.361,0,0,1-.335-.529l3.189-4.443L993.8,8.679a.335.335,0,0,1-.041-.153.381.381,0,0,1,.376-.376h1.17a.522.522,0,0,1,.4.138c.083.093.145.163.182.209l2.1,2.938,2.089-2.938c.037-.048.1-.116.182-.209a.514.514,0,0,1,.4-.138h1.17a.381.381,0,0,1,.376.376.354.354,0,0,1-.041.153l-3.077,4.3,3.162,4.387a.334.334,0,0,1,.041.153.381.381,0,0,1-.376.376h-1.17Z" transform="translate(-985.85 -8.15)" fill="#fff"/>
        <path id="Path_3558" data-name="Path 3558" d="M1042.646,17.9a.381.381,0,0,1-.376-.376v-9a.381.381,0,0,1,.376-.376h1.128a.381.381,0,0,1,.376.376v9a.381.381,0,0,1-.376.376Z" transform="translate(-1024.447 -8.15)" fill="#fff"/>
        <path id="Path_3559" data-name="Path 3559" d="M1065.37,8.15a.381.381,0,0,1,.376.376v.988a.381.381,0,0,1-.376.376h-2.506v7.631a.381.381,0,0,1-.376.376h-1.128a.381.381,0,0,1-.376-.376V9.89h-2.507a.381.381,0,0,1-.376-.376V8.526a.381.381,0,0,1,.376-.376Z" transform="translate(-1037.006 -8.15)" fill="#fff"/>
      </g>
    </g>
  </g>
</svg>
