<svg id="portfolio-graphics03" xmlns="http://www.w3.org/2000/svg" width="374.956" height="241.757" viewBox="0 0 374.956 241.757">
  <g id="_Ñëîé_2" transform="translate(30.114)">
    <g id="Group_821" data-name="Group 821" transform="translate(257.744)">
      <g id="Group_820" data-name="Group 820">
        <rect id="Rectangle_826" data-name="Rectangle 826" width="55.62" height="61.733" fill="#fccbc8"/>
        <rect id="Rectangle_827" data-name="Rectangle 827" width="49.129" height="54.337" transform="translate(3.245 3.698)" fill="#ffe9e8"/>
        <rect id="Rectangle_828" data-name="Rectangle 828" width="31.354" height="2.591" transform="translate(12.673 17.526)" fill="#3b3b3b"/>
        <rect id="Rectangle_829" data-name="Rectangle 829" width="31.354" height="2.591" transform="translate(12.673 23.486)" fill="#3b3b3b"/>
        <rect id="Rectangle_830" data-name="Rectangle 830" width="31.354" height="2.591" transform="translate(12.673 29.446)" fill="#3b3b3b"/>
        <rect id="Rectangle_831" data-name="Rectangle 831" width="31.354" height="2.591" transform="translate(12.673 35.406)" fill="#3b3b3b"/>
        <rect id="Rectangle_832" data-name="Rectangle 832" width="13.388" height="6.737" transform="translate(33.458 48.362)" fill="#ee4437"/>
      </g>
      <rect id="Rectangle_833" data-name="Rectangle 833" width="22.686" height="2.591" transform="translate(12.673 41.366)" fill="#3b3b3b"/>
      <rect id="Rectangle_834" data-name="Rectangle 834" width="17.102" height="3.887" transform="translate(19.811 7.334)" fill="#ee4437"/>
    </g>
    <g id="Group_823" data-name="Group 823">
      <rect id="Rectangle_835" data-name="Rectangle 835" width="55.62" height="61.733" fill="#fccbc8"/>
      <rect id="Rectangle_836" data-name="Rectangle 836" width="49.129" height="54.337" transform="translate(3.245 3.698)" fill="#ffe9e8"/>
      <g id="Group_822" data-name="Group 822" transform="translate(13.718 9.925)">
        <path id="Path_3564" data-name="Path 3564" d="M535.194,153.514l-13.824,1.545V141.15a13.9,13.9,0,1,0,13.824,12.365Z" transform="translate(-507.46 -138.884)" fill="#14142b"/>
        <path id="Path_3565" data-name="Path 3565" d="M703.794,127.274l-13.824,1.545V114.91a13.912,13.912,0,0,1,13.824,12.365Z" transform="translate(-674.206 -114.91)" fill="#ee4437"/>
      </g>
      <rect id="Rectangle_837" data-name="Rectangle 837" width="31.354" height="2.591" transform="translate(12.642 47.326)" fill="#bdccd4"/>
      <rect id="Rectangle_838" data-name="Rectangle 838" width="31.354" height="2.591" transform="translate(12.642 52.163)" fill="#bdccd4"/>
    </g>
    <g id="Group_825" data-name="Group 825" transform="translate(171.829)">
      <rect id="Rectangle_839" data-name="Rectangle 839" width="55.62" height="61.733" fill="#fccbc8"/>
      <rect id="Rectangle_840" data-name="Rectangle 840" width="49.129" height="54.337" transform="translate(3.245 3.698)" fill="#ffe9e8"/>
      <g id="Group_824" data-name="Group 824" transform="translate(8.302 17.659)">
        <rect id="Rectangle_841" data-name="Rectangle 841" width="7.919" height="25.206" transform="translate(0 10.868)" fill="#3b3b3b"/>
        <rect id="Rectangle_842" data-name="Rectangle 842" width="7.919" height="31.319" transform="translate(10.668 4.755)" fill="#3b3b3b"/>
        <path id="Path_3663" data-name="Path 3663" d="M0,0H7.919V36.074H0Z" transform="translate(21.336)" fill="#ee4437"/>
        <rect id="Rectangle_844" data-name="Rectangle 844" width="7.919" height="32.376" transform="translate(32.004 3.698)" fill="#3b3b3b"/>
      </g>
    </g>
    <g id="Group_830" data-name="Group 830" transform="translate(85.915)">
      <rect id="Rectangle_845" data-name="Rectangle 845" width="55.62" height="61.733" fill="#fccbc8"/>
      <rect id="Rectangle_846" data-name="Rectangle 846" width="49.129" height="54.337" transform="translate(3.245 3.698)" fill="#ffe9e8"/>
      <g id="Group_829" data-name="Group 829" transform="translate(9.222 16.25)">
        <g id="Group_828" data-name="Group 828">
          <g id="Group_826" data-name="Group 826" transform="translate(2.493)">
            <rect id="Rectangle_847" data-name="Rectangle 847" width="0.289" height="29.88" fill="#fccbc8"/>
            <rect id="Rectangle_848" data-name="Rectangle 848" width="0.289" height="29.88" transform="translate(6.695)" fill="#fccbc8"/>
            <rect id="Rectangle_849" data-name="Rectangle 849" width="0.289" height="29.88" transform="translate(13.39)" fill="#fccbc8"/>
            <rect id="Rectangle_850" data-name="Rectangle 850" width="0.289" height="29.88" transform="translate(20.085)" fill="#fccbc8"/>
            <rect id="Rectangle_851" data-name="Rectangle 851" width="0.289" height="29.88" transform="translate(26.78)" fill="#fccbc8"/>
            <rect id="Rectangle_852" data-name="Rectangle 852" width="0.289" height="29.88" transform="translate(33.475)" fill="#fccbc8"/>
          </g>
          <g id="Group_827" data-name="Group 827" transform="translate(0 5.726)">
            <rect id="Rectangle_853" data-name="Rectangle 853" width="38.784" height="0.289" fill="#fccbc8"/>
            <rect id="Rectangle_854" data-name="Rectangle 854" width="38.784" height="0.289" transform="translate(0 7.156)" fill="#fccbc8"/>
            <rect id="Rectangle_855" data-name="Rectangle 855" width="38.784" height="0.289" transform="translate(0 14.346)" fill="#fccbc8"/>
          </g>
        </g>
        <path id="Path_3566" data-name="Path 3566" d="M1499.816,284.022l-2.68-.609a.363.363,0,0,0-.441.4l.021.17a.363.363,0,0,1-.31.4l-6.039.845a.363.363,0,0,0-.2.1l-9.116,8.567a.361.361,0,0,1-.283.1l-7.14-.683a.363.363,0,0,0-.231.056l-9.365,6.044a.363.363,0,0,0-.108.5l.179.276a.363.363,0,0,0,.5.108l9.056-5.845a.364.364,0,0,1,.232-.056l7.25.694a.361.361,0,0,0,.283-.1l9.22-8.664a.361.361,0,0,1,.2-.1l5.676-.794a.363.363,0,0,1,.411.316h0a.363.363,0,0,0,.534.276l2.444-1.329a.363.363,0,0,0-.093-.673Z" transform="translate(-1462.676 -275.175)" fill="#ee4437"/>
      </g>
    </g>
  </g>
  <g id="_Ñëîé_1" transform="translate(0 49.744)">
    <g id="Group_832" data-name="Group 832" transform="translate(317.149 101.06)">
      <g id="Group_831" data-name="Group 831">
        <path id="Path_3567" data-name="Path 3567" d="M3941.179,2075.119s-15.663-16.649,22.662-22.339C3963.84,2052.78,3968.187,2067.265,3941.179,2075.119Z" transform="translate(-3915.012 -2026.274)" fill="#ee4437"/>
        <path id="Path_3568" data-name="Path 3568" d="M3689.682,1979.184s-22.57,6.557-17.062-30.713C3672.62,1948.47,3689.448,1951.161,3689.682,1979.184Z" transform="translate(-3671.754 -1930.974)" fill="#ee4437"/>
        <path id="Path_3569" data-name="Path 3569" d="M3868.978,1745.91s22.55,6.625-2.157,35.067C3866.821,1780.977,3854.088,1769.651,3868.978,1745.91Z" transform="translate(-3845.339 -1745.91)" fill="#ee4437"/>
        <path id="Path_3570" data-name="Path 3570" d="M3909.127,2165.686a.612.612,0,0,1-.086-.007.51.51,0,0,1-.418-.59,68.134,68.134,0,0,1,3.628-12.309,56.063,56.063,0,0,1,5.467-10.547,34.834,34.834,0,0,1,8.771-9.212.512.512,0,0,1,.587.838c-7.092,4.968-11.455,13.225-13.866,19.278a67.2,67.2,0,0,0-3.58,12.122A.512.512,0,0,1,3909.127,2165.686Z" transform="translate(-3888.156 -2099.5)" fill="#dd3225"/>
        <path id="Path_3571" data-name="Path 3571" d="M3769.727,2134.421a.569.569,0,0,1-.568-.562,66.961,66.961,0,0,0-1.661-12.52c-1.444-6.344-4.473-15.165-10.7-21.16a.569.569,0,0,1,.789-.82,34.886,34.886,0,0,1,7.254,10.474,56.109,56.109,0,0,1,3.773,11.276,68.258,68.258,0,0,1,1.684,12.734.569.569,0,0,1-.562.575h-.007Z" transform="translate(-3749.291 -2068.685)" fill="#dd3225"/>
        <path id="Path_3572" data-name="Path 3572" d="M3902.932,1966.433h-.008a.512.512,0,0,1-.5-.519c.318-22.317,1.471-36.026,2.382-43.6.991-8.238,1.9-11.148,1.937-11.268a.512.512,0,1,1,.975.31c-.045.143-3.667,12.105-4.271,54.57a.512.512,0,0,1-.512.5Z" transform="translate(-3882.496 -1896.457)" fill="#dd3225"/>
      </g>
      <path id="Path_3573" data-name="Path 3573" d="M3740.8,2420.69l1.214,11.405v0l1.989,18.669h23.671l3.2-30.078H3740.8Z" transform="translate(-3734.836 -2362.406)" fill="#14142b"/>
    </g>
    <g id="Group_841" data-name="Group 841" transform="translate(19.674 3.731)">
      <g id="Group_833" data-name="Group 833" transform="translate(0 62.159)">
        <path id="Path_3574" data-name="Path 3574" d="M343.352,2053.86l-9.339,61.6c-.048.32.309.447.376.134l13-61.667-4.042-.063Z" transform="translate(-324.832 -1992.091)" fill="#14142b"/>
        <path id="Path_3575" data-name="Path 3575" d="M731.4,2054.11l-9.339,61.6c-.048.32.309.447.376.134l13-61.667-4.042-.063Z" transform="translate(-679.364 -1992.32)" fill="#14142b"/>
        <path id="Path_3576" data-name="Path 3576" d="M1217.082,2054.11l9.339,61.6c.048.32-.309.447-.376.134l-13-61.667,4.042-.063Z" transform="translate(-1127.937 -1992.32)" fill="#394859"/>
        <path id="Path_3577" data-name="Path 3577" d="M271.455,1397.554H239.691l-11.838-55.292c-.375-1.752.541-3.522,1.821-3.522h29.189l12.593,58.814Z" transform="translate(-227.769 -1338.74)" fill="#14142b"/>
        <path id="Path_3578" data-name="Path 3578" d="M318.965,1397.554H287.2l-11.838-55.292c-.375-1.752.541-3.522,1.821-3.522h27.781c.837,0,1.575.782,1.821,1.926l12.18,56.888Z" transform="translate(-271.175 -1338.74)" fill="#4a4a4a"/>
        <path id="Path_3579" data-name="Path 3579" d="M364.28,2007.93h72.089a2.142,2.142,0,0,1,2.141,2.141v2.8a2.142,2.142,0,0,1-2.141,2.141H366.421a2.142,2.142,0,0,1-2.141-2.141v-4.944Z" transform="translate(-352.489 -1950.129)" fill="#14142b"/>
        <path id="Path_3580" data-name="Path 3580" d="M928.032,2089.11l8.907,58.571c.048.32-.309.447-.376.134l-12.573-58.641,4.042-.063Z" transform="translate(-863.854 -2024.297)" fill="#14142b"/>
      </g>
      <g id="Group_838" data-name="Group 838" transform="translate(19.719)">
        <g id="Group_834" data-name="Group 834" transform="translate(4.848 87.044)">
          <path id="Path_3581" data-name="Path 3581" d="M1503.889,2448.98l6.671,15.627-16.626.939-5.444-16.566Z" transform="translate(-1404.161 -2377.967)" fill="#f7ac92"/>
          <path id="Path_3582" data-name="Path 3582" d="M1027.259,2421.493l-2.687,13.026L1010,2432.1l3.423-18.411Z" transform="translate(-967.001 -2345.726)" fill="#f7ac92"/>
          <path id="Path_3583" data-name="Path 3583" d="M1005.04,1868.686,992,1918.632l26.052,1.334,6.05-59.686Z" transform="translate(-950.555 -1840.116)" fill="#dd3225"/>
          <path id="Path_3584" data-name="Path 3584" d="M547.364,1626.84l-35.05,3.2-.134,9.8c0,9.771,7.153,19.873,15.372,19.873h39.567a7.037,7.037,0,0,1,6.359,4.846l18.928,43.9,26.172-7.242-27.219-56.745c-2.471-5.339-7.5-9.856-12.625-9.856H551.676l-4.313-7.782Z" transform="translate(-512.18 -1626.84)" fill="#ee4437"/>
        </g>
        <g id="Group_836" data-name="Group 836" transform="translate(0 34.136)">
          <path id="Path_3585" data-name="Path 3585" d="M686.221,1056.68l14.348,21.492,27.895-10.367,4.848,10.546-30.335,15.624a10.321,10.321,0,0,1-11.364-1.273l-23.5-19.745Z" transform="translate(-649.794 -1053.02)" fill="#2a2a2a"/>
          <path id="Path_3586" data-name="Path 3586" d="M528.806,1076.115c-14.92,3.929-41.806,10.8-41.806,10.8,2-16.67,3.825-55.755,7.321-63.881,1.506-3.5,3.481-6.376,8.081-7.785a30.759,30.759,0,0,1,10.884-.817l1.373.113a9.791,9.791,0,0,1,1.817.43c9.81,3.34,9.278,21.293,9.278,27.05Z" transform="translate(-484.327 -1014.31)" fill="#14142b"/>
          <path id="Path_3587" data-name="Path 3587" d="M509.743,1223.137l-2.146,16.458a2.974,2.974,0,0,0,.723,2.356l15.831,17.859-6.191,12.383-26.215-20.237a11.033,11.033,0,0,1-3.852-13.2l8.814-17.347Z" transform="translate(-484.389 -1203.521)" fill="#2a2a2a"/>
          <g id="Group_835" data-name="Group 835" transform="translate(9.66 29.906)">
            <rect id="Rectangle_856" data-name="Rectangle 856" width="41.354" height="29.673" transform="matrix(0.679, -0.735, 0.735, 0.679, 0, 30.377)" fill="#41515e"/>
            <rect id="Rectangle_857" data-name="Rectangle 857" width="37.9" height="26.716" transform="matrix(0.679, -0.735, 0.735, 0.679, 2.258, 30.111)" fill="#f2f2f2"/>
            <rect id="Rectangle_858" data-name="Rectangle 858" width="6.91" height="10.02" transform="translate(23.531 11.956) rotate(-48.04)" fill="#bdccd4"/>
            <rect id="Rectangle_859" data-name="Rectangle 859" width="1.924" height="20.47" transform="translate(20.874 15.041) rotate(-48.04)" fill="#bdccd4"/>
            <rect id="Rectangle_860" data-name="Rectangle 860" width="1.924" height="20.47" transform="translate(18.47 17.583) rotate(-48.04)" fill="#bdccd4"/>
            <rect id="Rectangle_861" data-name="Rectangle 861" width="1.924" height="20.47" transform="translate(16.003 20.229) rotate(-48.04)" fill="#bdccd4"/>
            <rect id="Rectangle_862" data-name="Rectangle 862" width="1.924" height="11.319" transform="translate(13.514 23.146) rotate(-48.04)" fill="#bdccd4"/>
          </g>
          <path id="Path_3588" data-name="Path 3588" d="M483.317,1107.538l-7.229,21.259a3.938,3.938,0,0,0,1,4.112l19.441,18.624-7.323,12.562-28.477-20.832a11.033,11.033,0,0,1-3.852-13.2l9.707-27.884,16.729,5.358Z" transform="translate(-456.058 -1094.59)" fill="#14142b"/>
          <path id="Path_3589" data-name="Path 3589" d="M1393.456,1099.639c-.287-1.2-4.951-.167-4.951-.167s6.575-2.046,5.487-3.418c-1.012-1.276-7.8,1.137-7.8,1.137s7.7-2.832,6.013-4.089c-1.563-1.163-7.62,2.254-7.62,2.254s4.47-2.909,3.334-3.659c-1.442-.953-8.334,4.849-8.334,4.849s.594-5.514-.833-5.411c-1.309.094-3.36,8.337-3.36,8.337l.051.053-2.763.838,3.513,7.68,4.882-2.857c2.325-.768,12.647-4.441,12.383-5.546Z" transform="translate(-1293.506 -1084.498)" fill="#f7ac92"/>
          <path id="Path_3590" data-name="Path 3590" d="M855.212,1652.768s8.34-5.08,10.141-3.27-4.876,4.936-4.876,4.936,7.643,1.763,6.517,4.5c-.923,2.241-5.088-.105-5.088-.105s5.415-.377,3.8,2.537c-1.523,2.743-4.276.138-4.276.138s4.725-.333,2.753,2.605c-2.035,3.032-3.929-.5-3.929-.5s3.334,1.633,1.806,3.75c-1.693,2.346-5.233-1.932-6.647-2.583s-5.341-3.35-5.341-3.35l5.143-8.651Z" transform="translate(-816.037 -1594.277)" fill="#f7ac92"/>
        </g>
        <g id="Group_837" data-name="Group 837" transform="translate(12.057)">
          <path id="Path_3591" data-name="Path 3591" d="M679.615,1023.2a.525.525,0,0,1-.583.538c-5.083-.574-13.18-8-13.712-8.49a30.758,30.758,0,0,1,10.884-.817l1.373.113a9.784,9.784,0,0,1,1.817.43Z" transform="translate(-659.302 -980.174)" fill="#fff"/>
          <path id="Path_3592" data-name="Path 3592" d="M692.11,878.1c-3.536-.263-10.93-6.922-10.93-6.922l.067-8.107c-.041-.2-.076-.388-.105-.568a4.874,4.874,0,0,1,2.483-4.679,5.779,5.779,0,0,1,1.523-.636,5.545,5.545,0,0,1,3.94.409,4.475,4.475,0,0,1,2.324,2.844l.455,1.758a.554.554,0,0,1,.016.057l.827,3.194.024,3.037.028,9a.614.614,0,0,1-.65.618Z" transform="translate(-673.73 -836.452)" fill="#f7ac92"/>
          <path id="Path_3593" data-name="Path 3593" d="M692.743,877.174c-1.431.679-3.776.152-5.177-.348-2.5-.89-6.308-5.068-6.308-5.068a4.223,4.223,0,0,1-.105-.568,4.874,4.874,0,0,1,2.483-4.679,29.018,29.018,0,0,1,5.932,1.589,4.482,4.482,0,0,1,2.31,2.786.555.555,0,0,1,.016.057l.827,3.194.024,3.037Z" transform="translate(-673.739 -845.14)" fill="#e5332a" opacity="0.2"/>
          <path id="Path_3594" data-name="Path 3594" d="M667.332,696.794c.007,6.635-.337,12.767-5.341,12.773s-12.775-6.118-12.782-12.753a15.642,15.642,0,0,1,.4-3.533c.037-.167.077-.331.122-.494.02-.068.039-.139.059-.207.029-.105.06-.209.092-.313a11.263,11.263,0,0,1,4.483-6.3c.024-.016.05-.031.074-.047.046-.029.092-.057.138-.086s.07-.042.105-.063a7.154,7.154,0,0,1,3.579-.979,7.053,7.053,0,0,1,2.9.625,7.532,7.532,0,0,1,.941.5c.159.1.314.2.468.31.089.065.175.13.261.2a11.22,11.22,0,0,1,3.422,4.7q.206.5.375,1.035c.081.257.156.519.225.785q.031.119.06.238a15.64,15.64,0,0,1,.422,3.61Z" transform="translate(-644.583 -679.116)" fill="#f7ac92"/>
          <path id="Path_3595" data-name="Path 3595" d="M788.727,895.982a2.28,2.28,0,0,0,2.3-2.26l-4.6,0A2.281,2.281,0,0,0,788.727,895.982Z" transform="translate(-769.951 -870)" fill="#fff"/>
          <path id="Path_3596" data-name="Path 3596" d="M755.231,792.765c-.073.009-.133-.151-.082-.224a3.473,3.473,0,0,1,.586-.637,3.385,3.385,0,0,1,.871-.543,2.536,2.536,0,0,1,.973-.221,1.846,1.846,0,0,1,.819.166c.076.036.095.2.028.235-.236.107-.457.219-.682.325-.29.135-.579.275-.873.4s-.594.239-.9.335a4.437,4.437,0,0,1-.738.164Z" transform="translate(-741.354 -776.28)" fill="#1a1a1a"/>
          <path id="Path_3597" data-name="Path 3597" d="M832.641,777.772c.069.027.106.157.052.182a3.557,3.557,0,0,1-.577.2c-.254.065-.511.113-.77.153s-.521.067-.781.1c-.2.023-.405.042-.616.069-.06.008-.128-.111-.094-.167a1.372,1.372,0,0,1,.473-.45,2.074,2.074,0,0,1,.764-.258,3,3,0,0,1,.848,0A3.122,3.122,0,0,1,832.641,777.772Z" transform="translate(-809.617 -763.879)" fill="#1a1a1a"/>
          <path id="Path_3598" data-name="Path 3598" d="M780.275,807.593c.057.61-.226,1.135-.633,1.173s-.783-.426-.839-1.036.226-1.135.633-1.173S780.218,806.983,780.275,807.593Z" transform="translate(-762.976 -790.364)"/>
          <path id="Path_3599" data-name="Path 3599" d="M837.145,795.543c.057.61-.227,1.135-.633,1.173s-.783-.426-.839-1.036.226-1.135.633-1.173S837.089,794.933,837.145,795.543Z" transform="translate(-814.933 -779.354)"/>
          <path id="Path_3600" data-name="Path 3600" d="M616.253,623.813a3.8,3.8,0,0,0-4.231-2.665,4.24,4.24,0,0,0-4.731-1.893,4.161,4.161,0,0,1-4.942,1.17,4.226,4.226,0,0,0-3.03,3.427,4.274,4.274,0,0,0-2.853,5.263,4.4,4.4,0,0,0,.472,1.1,183,183,0,0,1,.273,8.642,4.344,4.344,0,0,0,1.711,2.419,3.412,3.412,0,0,0,.115.655,3.29,3.29,0,1,0,6.339-1.756,3.41,3.41,0,0,0-.238-.62,4.342,4.342,0,0,0,.224-2.955c-.026-.094-.056-.186-.087-.277l.1-.025a4.212,4.212,0,0,0,2.948-3.034,4.438,4.438,0,0,0,.474-.1,4.173,4.173,0,0,0,2.476-1.9,14.427,14.427,0,0,1,6.28.067,3.841,3.841,0,0,0-1.3-7.516Z" transform="translate(-595.644 -619.104)" fill="#14142b"/>
          <path id="Path_3601" data-name="Path 3601" d="M692.272,821.679c.028,1.33.862,2.392,1.861,2.37l-.1-4.819a2.176,2.176,0,0,0-1.759,2.448Z" transform="translate(-683.925 -801.944)" fill="#f7ac92"/>
          <path id="Path_3602" data-name="Path 3602" d="M705.063,835.562c.031.56-.109,1.024-.313,1.036s-.395-.434-.426-.994.109-1.024.313-1.036S705.032,835,705.063,835.562Z" transform="translate(-694.933 -815.957)" fill="#c66f58"/>
          <path id="Path_3603" data-name="Path 3603" d="M819.122,829.833a.288.288,0,0,1-.078-.566c.891-.252,1.4-.633,1.515-1.133.211-.922-.925-2.172-1.381-2.576a.288.288,0,1,1,.382-.432c.078.068,1.891,1.691,1.561,3.136-.165.722-.811,1.247-1.921,1.561a.271.271,0,0,1-.079.011Z" transform="translate(-799.556 -807.265)" fill="#c66f58"/>
        </g>
      </g>
      <g id="Group_839" data-name="Group 839" transform="translate(110.457 171.174)">
        <path id="Path_3604" data-name="Path 3604" d="M1547.782,2615.533H1506.57l.474-2.568,1.753-9.49a1.722,1.722,0,0,1,2.051-1.218,31.976,31.976,0,0,0,15.2-1.407l17.2,5.808a6.116,6.116,0,0,1,4.429,5.428l.026.88.077,2.568Z" transform="translate(-1506.57 -2600.85)" fill="#14142b"/>
        <path id="Path_3605" data-name="Path 3605" d="M1547.782,2743.678H1506.57l.475-2.568h40.66Z" transform="translate(-1506.57 -2728.995)" fill="#1d2935"/>
        <path id="Path_3606" data-name="Path 3606" d="M1763.558,2616.843l-1.819,2.265a1.011,1.011,0,0,0,.454,1.593h0a.868.868,0,0,0,.94-.342l2.165-2.977s-.173-1.283-1.741-.539Z" transform="translate(-1739.495 -2615.249)" fill="#ee4437"/>
        <path id="Path_3607" data-name="Path 3607" d="M1818.558,2635.263l-1.819,2.265a1.01,1.01,0,0,0,.454,1.593h0a.867.867,0,0,0,.94-.342l2.165-2.976s-.173-1.284-1.741-.539Z" transform="translate(-1789.744 -2632.079)" fill="#ee4437"/>
      </g>
      <g id="Group_840" data-name="Group 840" transform="translate(64.16 171.174)">
        <path id="Path_3608" data-name="Path 3608" d="M1011.782,2615.533H970.57l.474-2.568,1.753-9.49a1.722,1.722,0,0,1,2.051-1.218,31.976,31.976,0,0,0,15.2-1.407l17.2,5.808a6.115,6.115,0,0,1,4.429,5.428l.026.88.077,2.568Z" transform="translate(-970.57 -2600.85)" fill="#14142b"/>
        <path id="Path_3609" data-name="Path 3609" d="M1011.782,2743.678H970.57l.475-2.568h40.66Z" transform="translate(-970.57 -2728.995)" fill="#1d2935"/>
        <path id="Path_3610" data-name="Path 3610" d="M1227.558,2616.843l-1.819,2.265a1.011,1.011,0,0,0,.454,1.593h0a.868.868,0,0,0,.94-.342l2.165-2.977s-.173-1.283-1.741-.539Z" transform="translate(-1203.495 -2615.249)" fill="#ee4437"/>
        <path id="Path_3611" data-name="Path 3611" d="M1282.558,2635.263l-1.819,2.265a1.01,1.01,0,0,0,.454,1.593h0a.867.867,0,0,0,.94-.342l2.165-2.976s-.173-1.284-1.741-.539Z" transform="translate(-1253.744 -2632.079)" fill="#ee4437"/>
      </g>
    </g>
    <g id="Group_852" data-name="Group 852" transform="translate(193.976)">
      <g id="Group_842" data-name="Group 842" transform="translate(57.486 66.069)">
        <path id="Path_3612" data-name="Path 3612" d="M3711.225,2054.91l9.326,61.509c.049.319-.309.447-.375.134l-12.986-61.579,4.036-.063Z" transform="translate(-3638.442 -1993.229)" fill="#14142b"/>
        <path id="Path_3613" data-name="Path 3613" d="M3385.554,2055.13l9.326,61.509c.048.318-.309.447-.375.134l-12.986-61.579,4.035-.063Z" transform="translate(-3340.901 -1993.43)" fill="#14142b"/>
        <path id="Path_3614" data-name="Path 3614" d="M2920.6,2054.91l-9.326,61.509c-.048.319.309.447.375.134l12.986-61.579-4.036-.063Z" transform="translate(-2911.268 -1993.229)" fill="#1d2935"/>
        <path id="Path_3615" data-name="Path 3615" d="M3462.94,1399.54h31.719l11.821-55.213c.374-1.749-.54-3.517-1.819-3.517h-29.147Z" transform="translate(-3415.289 -1340.81)" fill="#14142b"/>
        <path id="Path_3616" data-name="Path 3616" d="M3415.51,1399.54h31.719l11.821-55.213c.374-1.749-.54-3.517-1.818-3.517h-27.741c-.835,0-1.573.781-1.819,1.924Z" transform="translate(-3371.956 -1340.81)" fill="#4a4a4a"/>
        <path id="Path_3617" data-name="Path 3617" d="M2.138,0H71.986a2.14,2.14,0,0,1,2.139,2.139v2.8a2.14,2.14,0,0,1-2.139,2.139H0V2.14A2.14,2.14,0,0,1,2.139,0Z" transform="translate(79.501 64.795) rotate(180)" fill="#14142b"/>
        <path id="Path_3618" data-name="Path 3618" d="M3141.667,2090.91l-8.725,58.419c-.048.319.309.447.375.134l12.381-58.552h-4.031Z" transform="translate(-3113.791 -2026.12)" fill="#14142b"/>
      </g>
      <g id="Group_851" data-name="Group 851">
        <g id="Group_843" data-name="Group 843" transform="translate(84.882)">
          <path id="Path_3619" data-name="Path 3619" d="M3350.681,819.783a.536.536,0,0,0,0,.06l.01,3.357.008,3.4c.007,2.655-.663,8.328,3.692,8,2.919-.221,6.864-3.457,6.857-6.111l.02-7.2v-1.476l.246-2.77c-.008-2.132-1.788-3.07-3.908-3.691a5.788,5.788,0,0,0-1.648-.234,5.557,5.557,0,0,0-3.736,1.417,4.57,4.57,0,0,0-1.541,3.4l0,1.847Z" transform="translate(-3340.107 -792.63)" fill="#f7ac92"/>
          <path id="Path_3620" data-name="Path 3620" d="M3350.844,822.319v5.341a11.361,11.361,0,0,0,5.295-1.336c2.16-1.047,5.174-6.8,5.174-6.8-.008-2.132-1.427-3.07-3.547-3.691a29.153,29.153,0,0,0-5.379,3.091,4.574,4.574,0,0,0-1.542,3.338A.372.372,0,0,0,3350.844,822.319Z" transform="translate(-3340.271 -795.106)" fill="#e5332a" opacity="0.2"/>
          <path id="Path_3621" data-name="Path 3621" d="M3289.02,605.572c.192,7.943,4.28,8.9,10.14,8.735,5.888-.17,8.8.661,11.3-5.427,1.8-4.363,4.159-14.578-5.969-17.411a42.472,42.472,0,0,0-5.207-.538,8.129,8.129,0,0,0-3.379.835,8.933,8.933,0,0,0-1.087.629c-.183.119-.362.25-.539.385-.1.08-.2.16-.3.242a13.42,13.42,0,0,0-3.867,5.732c-.15.407-1.058,2.32-1.078,2.416A20.228,20.228,0,0,0,3289.02,605.572Z" transform="translate(-3283.675 -589.632)" fill="#331704"/>
          <path id="Path_3622" data-name="Path 3622" d="M3290.79,649.213c.164,6.817.673,13.107,5.766,12.982s12.844-6.618,12.68-13.435a16.215,16.215,0,0,0-.5-3.618q-.062-.255-.137-.5c-.022-.07-.043-.142-.065-.211q-.05-.161-.1-.319a11.561,11.561,0,0,0-4.726-6.357c-.025-.016-.052-.031-.076-.046-.047-.029-.1-.056-.144-.084s-.072-.042-.108-.062a7.232,7.232,0,0,0-3.668-.913,7.126,7.126,0,0,0-2.936.718,7.759,7.759,0,0,0-.945.54c-.16.1-.314.215-.468.331-.089.069-.175.137-.26.208a11.527,11.527,0,0,0-3.362,4.92c-.131.349-.249.707-.354,1.073q-.114.4-.208.813-.029.123-.055.246a16.3,16.3,0,0,0-.336,3.718Z" transform="translate(-3285.4 -631.399)" fill="#f7ac92"/>
          <path id="Path_3623" data-name="Path 3623" d="M3318.556,855.917a1.705,1.705,0,0,1-1.916-1.4l3.756-.1a1.707,1.707,0,0,1-1.842,1.5Z" transform="translate(-3309.022 -830.363)" fill="#fff"/>
          <path id="Path_3624" data-name="Path 3624" d="M3359.846,748.268c.075.007.131-.159.078-.232a3.576,3.576,0,0,0-.612-.639,3.447,3.447,0,0,0-.9-.536,2.575,2.575,0,0,0-1-.2,1.845,1.845,0,0,0-.829.192c-.076.04-.092.213-.023.243.243.1.471.213.7.315.3.131.6.267.9.388s.611.231.927.321a4.39,4.39,0,0,0,.755.149Z" transform="translate(-3345.456 -731.91)" fill="#542700"/>
          <path id="Path_3625" data-name="Path 3625" d="M3285.669,734.654c-.069.029-.1.164-.049.188a3.611,3.611,0,0,0,.592.188c.261.06.524.1.788.137s.532.055.8.08c.208.019.414.032.629.054.061.006.127-.117.092-.174a1.391,1.391,0,0,0-.493-.45,2.1,2.1,0,0,0-.784-.245,3,3,0,0,0-.864.02A3.184,3.184,0,0,0,3285.669,734.654Z" transform="translate(-3280.656 -720.721)" fill="#542700"/>
          <path id="Path_3626" data-name="Path 3626" d="M3354.889,763.673c-.042.628.26,1.16.674,1.188s.785-.458.828-1.086-.26-1.16-.675-1.189S3354.931,763.045,3354.889,763.673Z" transform="translate(-3343.963 -746.461)"/>
          <path id="Path_3627" data-name="Path 3627" d="M3296.7,752.783c-.042.628.26,1.16.675,1.188s.785-.458.828-1.086-.26-1.16-.675-1.188S3296.74,752.155,3296.7,752.783Z" transform="translate(-3290.799 -736.512)"/>
          <path id="Path_3628" data-name="Path 3628" d="M3234.913,579.029c2.488-3.5,7.955-4.517,17-.669,4.31,1.835,6.7,9.217,3.254,14.662l.167.017-5.5,7.3-2.67-8.158-5.393-4.428s-6.482,1.916-10.335-1.017C3224.025,581.105,3232.4,582.559,3234.913,579.029Z" transform="translate(-3228.44 -575.904)" fill="#331704"/>
          <path id="Path_3629" data-name="Path 3629" d="M3447.566,766.845c-.129,1.361-.714,2.272-1.731,2.292l-.985-4.9C3445.868,764.213,3447.844,763.9,3447.566,766.845Z" transform="translate(-3426.158 -747.95)" fill="#f7ac92"/>
          <path id="Path_3630" data-name="Path 3630" d="M3453.186,776.162c-.017.577.137,1.049.345,1.056s.39-.456.408-1.032-.137-1.05-.345-1.056S3453.2,775.585,3453.186,776.162Z" transform="translate(-3433.773 -757.921)" fill="#c66f58"/>
          <path id="Path_3631" data-name="Path 3631" d="M3309.62,790.966a3.714,3.714,0,0,0,2.311-.1.258.258,0,0,0,.159-.286.183.183,0,0,0-.245-.145c-.575.2-2.125.536-2.389-.3a.716.716,0,0,1,.031-.608,1.457,1.457,0,0,1,.948-.505.249.249,0,0,0,.2-.212l.328-2.154a.2.2,0,0,0-.168-.24.241.241,0,0,0-.238.213l-.3,1.976a1.771,1.771,0,0,0-1.1.7,1.2,1.2,0,0,0-.087,1.019,1.036,1.036,0,0,0,.554.644Z" transform="translate(-3302.034 -768.232)" fill="#c66f58"/>
          <path id="Path_3632" data-name="Path 3632" d="M3273.907,714.12c-1.554-.174-3.027,1.531-3.315,3.817-.549.609-1.156.023-1.332-.174.216-2.282-.84-4.259-2.389-4.433-1.573-.176-3.064,1.574-3.326,3.9s.806,4.365,2.379,4.542c1.5.167,2.918-1.409,3.279-3.567a1.341,1.341,0,0,0,.738.384.841.841,0,0,0,.608-.171c-.106,2.158.927,3.978,2.41,4.144,1.573.176,3.065-1.574,3.326-3.9s-.806-4.365-2.379-4.542Zm-7.938,7.261c-1.426-.16-2.395-2.008-2.157-4.119s1.59-3.7,3.017-3.539,2.395,2.008,2.157,4.119-1.59,3.7-3.016,3.539Zm7.035.79c-1.426-.16-2.395-2.008-2.157-4.119s1.59-3.7,3.016-3.539,2.395,2.008,2.157,4.119-1.59,3.7-3.017,3.539Z" transform="translate(-3260.477 -701.449)"/>
        </g>
        <g id="Group_846" data-name="Group 846" transform="translate(0 97.508)">
          <path id="Path_3633" data-name="Path 3633" d="M2971.05,2544.591l3.4,10.1h13.732l-1.871-11.407Z" transform="translate(-2908.4 -2470.855)" fill="#f7ac92"/>
          <path id="Path_3634" data-name="Path 3634" d="M2513.576,2532.9l-3.4,10.1H2496.44l1.871-11.407Z" transform="translate(-2474.785 -2460.175)" fill="#f7ac92"/>
          <g id="Group_844" data-name="Group 844" transform="translate(42.406 79.864)">
            <path id="Path_3635" data-name="Path 3635" d="M2736.681,2641.373h40.485l-.466-2.092-1.722-7.732a1.737,1.737,0,0,0-2.015-.992,37.619,37.619,0,0,1-14.932-1.146l-16.9,4.732c-2.567.719-4.282,2.46-4.352,4.422l-.026.717-.075,2.092Z" transform="translate(-2736.68 -2629.41)" fill="#ee4437"/>
            <path id="Path_3636" data-name="Path 3636" d="M2736.69,2745.773h40.486l-.467-2.093h-39.943Z" transform="translate(-2736.689 -2733.81)" fill="#131e28"/>
          </g>
          <g id="Group_845" data-name="Group 845" transform="translate(0 79.864)">
            <path id="Path_3637" data-name="Path 3637" d="M2245.731,2641.373h40.485l-.466-2.092-1.722-7.732a1.737,1.737,0,0,0-2.015-.992,37.62,37.62,0,0,1-14.932-1.146l-16.9,4.732c-2.567.719-4.281,2.46-4.352,4.422l-.026.717-.075,2.092Z" transform="translate(-2245.73 -2629.41)" fill="#ee4437"/>
            <path id="Path_3638" data-name="Path 3638" d="M2245.74,2745.773h40.485l-.467-2.093h-39.943Z" transform="translate(-2245.739 -2733.81)" fill="#131e28"/>
          </g>
          <path id="Path_3639" data-name="Path 3639" d="M2453.981,1750.881,2437.82,1805.3l25.89,0,10.3-42.836c1.055-5.831,8.473-10.519,12.6-10.521l17.755-.479c13.274-.005,24.943-23.63,24.943-23.63l-41.857.924c-11.557.157-26.109,2.327-33.468,22.126Z" transform="translate(-2421.228 -1725.84)" fill="#171414"/>
          <path id="Path_3640" data-name="Path 3640" d="M2752.427,1727.166l11.946,57.492h26.8l-11.5-43.554c-1.02-7.682-3.19-9.346,3.529-9.737l28.8-.144c13.274-.005,20.08-10.463,20.08-26.432l-53.161.524c-21.679.542-28.706,6.332-26.5,21.852Z" transform="translate(-2708.307 -1704.79)" fill="#14142b"/>
        </g>
        <g id="Group_850" data-name="Group 850" transform="translate(24.796 13.916)">
          <g id="Group_847" data-name="Group 847" transform="translate(5.706)">
            <path id="Path_3641" data-name="Path 3641" d="M2615.264,750.49l-1.494-7.081a1.958,1.958,0,0,0-1.707-1.662l-.279.009c-.745.022-1.187.8-.988,1.741l.374,1.77c-.044-.069-.091-.136-.14-.2a1.044,1.044,0,0,0-.084-.173l-4.549-7.426a1.012,1.012,0,0,0-1.514-.2,1.287,1.287,0,0,0-.382,1.645l3.4,5.551a3.063,3.063,0,0,0-.3.163l-3.812-6.222a1.012,1.012,0,0,0-1.514-.2h0a1.288,1.288,0,0,0-.382,1.645l3.8,6.21-.338.257-3.368-5.5a1.012,1.012,0,0,0-1.514-.2h0a1.287,1.287,0,0,0-.382,1.645l3.375,5.508a3.31,3.31,0,0,0-.245.249l-2.308-3.768a1.012,1.012,0,0,0-1.514-.2h0a1.288,1.288,0,0,0-.382,1.645l3.714,6.062h0l4.237,6.05c1.018,1.1,2.251,1.959,3.581.948l3.646-2.769c1.33-1.01,1.161-5.012,1.062-5.484Z" transform="translate(-2598.87 -737.019)" fill="#f7ac92"/>
            <path id="Path_3642" data-name="Path 3642" d="M2711.62,924.946l15.047,24.689a8.232,8.232,0,0,0,4.928,3.826l26.6-1.9-.952-14.7-22.688,3.077-17.195-19.588-5.735,4.607Z" transform="translate(-2701.881 -904.506)" fill="#f7ac92"/>
          </g>
          <path id="Path_3643" data-name="Path 3643" d="M2808.7,1010.451l-40.626-.568s3.4-35.444,3.5-36.254c-.178-.168-14.321,2.382-21.952,3.774a7.2,7.2,0,0,1-7.371-3.245c-4.984-7.855-15.372-24.222-15.5-24.36l7.3-5.857L2749.17,960.6s21.139-5.76,22.11-6.968c.213-.263,3.318-3.816,3.374-3.855a30.272,30.272,0,0,1,5.812-2.053s.087,2.863.139,3.016a2.521,2.521,0,0,0,.253.542c1.16,1.881,3.889,1.6,5.587-.314l1.271-1.132,3.662-3.243a26.443,26.443,0,0,1,10.129,3.958q.59.407,1.174.869c.221.174.441.354.661.542a16.374,16.374,0,0,1,6.2,9.19c4.057,17.757-.716,48.248-.834,49.3Z" transform="translate(-2710.007 -926.067)" fill="#ee4437"/>
          <path id="Path_3644" data-name="Path 3644" d="M3247.866,1175.158l-1.2,2.424c-.7.605-12.473,14.007-13.106,14.541-3.194,2.688-6.886,6.83-10.505,7.573-2.057.423-7.395-1.775-7.395-1.775l1.892-19.028,15.359-16.8,14.955,13.067Z" transform="translate(-3156.678 -1125.374)" fill="#dd3225"/>
          <g id="Group_848" data-name="Group 848" transform="translate(57.384 26.927)">
            <path id="Path_3645" data-name="Path 3645" d="M3210.217,1063.62l-4.033,45.154-6.118,7.618-2.906-9.083Z" transform="translate(-3197.16 -1062.337)" fill="#1d2935"/>
            <path id="Path_3646" data-name="Path 3646" d="M3330.8,1051.2l-3.311,3.671a.724.724,0,0,1-1.3-.414l-.238-4.767a.856.856,0,0,1,1.043-.893l3.549,1.1a.792.792,0,0,1,.257,1.307Z" transform="translate(-3314.824 -1048.763)" fill="#1d2935"/>
          </g>
          <g id="Group_849" data-name="Group 849" transform="translate(0 50.517)">
            <path id="Path_3647" data-name="Path 3647" d="M2561.037,1409.175a17.158,17.158,0,0,1-10.884-2.04l-8.277-.147s-9.467,2.881-9.054,1.228c.892-3.566,13.7-10.458,17.982-8s10.4,2.912,10.4,2.912l-.168,6.049Z" transform="translate(-2532.808 -1392.975)" fill="#f7ac92"/>
            <path id="Path_3648" data-name="Path 3648" d="M2893.457,1321.87l-7.24,6.328-32.2,3.818-.631,5.987,33.283,4.891a9.206,9.206,0,0,0,8.393-3.207l13.068-11.727Z" transform="translate(-2825.699 -1321.87)" fill="#f7ac92"/>
          </g>
          <path id="Path_3649" data-name="Path 3649" d="M3225.561,1153.631l1.59-12.671-3.491,12.873Z" transform="translate(-3163.987 -1106.069)" fill="#dd3225"/>
          <path id="Path_3650" data-name="Path 3650" d="M2874.971,1127.685l30.014-3.029,8.715-10.233a69.372,69.372,0,0,1,6.006-7.878c4.526-5.19,12.384-10.146,16.734-2.193,2.149,3.929,1.032,11.689-1.041,15.659l-20.29,18.938a10.362,10.362,0,0,1-8.506,2.7l-32.732-4.569Z" transform="translate(-2844.411 -1068.813)" fill="#ee4437"/>
          <path id="Path_3651" data-name="Path 3651" d="M3372.115,938.82l4.492,4.2-14.247,10.891,0-6.254,9.715-5.74Z" transform="translate(-3290.707 -921.389)" fill="#dd3225"/>
          <path id="Path_3652" data-name="Path 3652" d="M2734.064,943.95l3.93,4.066-8.3,6.9-2.938-5.111Z" transform="translate(-2710.007 -926.076)" fill="#dd3225"/>
          <path id="Path_3653" data-name="Path 3653" d="M2746,1019.548a.821.821,0,1,0,.821-.828A.824.824,0,0,0,2746,1019.548Z" transform="translate(-2727.585 -994.388)" fill="#fff"/>
          <path id="Path_3654" data-name="Path 3654" d="M2874.961,1409.473l6.725-.863-.875,11.454-6.951-1.2Z" transform="translate(-2844.402 -1350.601)" fill="#dd3225"/>
          <path id="Path_3655" data-name="Path 3655" d="M2906.42,1500.078a.82.82,0,1,0,.82-.828A.824.824,0,0,0,2906.42,1500.078Z" transform="translate(-2874.149 -1433.412)" fill="#fff"/>
          <path id="Path_3656" data-name="Path 3656" d="M3315.575,959.06l-3.325,3.247.135,8.9,4.2-5.057-1.2-4.608Z" transform="translate(-3244.926 -939.881)" fill="#dd3225"/>
        </g>
      </g>
    </g>
    <g id="Group_855" data-name="Group 855" transform="translate(131.377 54.001)">
      <g id="Group_853" data-name="Group 853" transform="translate(37.486)">
        <path id="Path_3657" data-name="Path 3657" d="M2520.11,1496.62h20.106a3.774,3.774,0,0,1,3.772,3.772v1.1h-23.878v-4.874h0Z" transform="translate(-2471.297 -1471.094)" fill="#dd3225"/>
        <path id="Path_3658" data-name="Path 3658" d="M2034.258,1231.5h-40.147l-8.555-27.506a2.463,2.463,0,0,1-.1-.907,2.015,2.015,0,0,1,1.881-1.987h35.547a2.762,2.762,0,0,1,2.54,1.987c.011.03.021.061.03.092l.106.342.2.655.005.018h0l8.493,27.306Z" transform="translate(-1982.814 -1201.099)" fill="#dd3225"/>
        <path id="Path_3659" data-name="Path 3659" d="M2003.8,1231.49H1963.65l-8.491-27.3-.064-.206a2.436,2.436,0,0,1-.1-.907,2.015,2.015,0,0,1,1.881-1.987h35.547a2.762,2.762,0,0,1,2.539,1.987c.011.03.021.061.03.092l.318,1.021,3.239,10.413,5.253,16.888Z" transform="translate(-1954.984 -1201.09)" fill="#ee4437"/>
        <ellipse id="Ellipse_109" data-name="Ellipse 109" cx="1.703" cy="2.748" rx="1.703" ry="2.748" transform="matrix(0.966, -0.258, 0.258, 0.966, 20.885, 14.494)" fill="#fff"/>
      </g>
      <g id="Group_854" data-name="Group 854" transform="translate(0 30.379)">
        <path id="Path_3660" data-name="Path 3660" d="M1646.3,1600.58l-20.078,100.562c-.1.522.7.745.839.235l25.312-100.621Z" transform="translate(-1617.124 -1596.453)" fill="#3b3b3b"/>
        <path id="Path_3661" data-name="Path 3661" d="M2876.464,1600.58l20.078,100.562c.1.522-.7.745-.84.235l-25.312-100.621Z" transform="translate(-2753.836 -1596.453)" fill="#3b3b3b"/>
        <path id="Path_3662" data-name="Path 3662" d="M1671.9,1555.033v1.487c0,1.233-.635,2.233-1.416,2.233H1522.416c-.782,0-1.416-1-1.416-2.233v-1.487c0-1.234.635-2.233,1.416-2.233h148.066c.782,0,1.416,1,1.416,2.233Z" transform="translate(-1521 -1552.8)" fill="#14142b"/>
      </g>
    </g>
    <rect id="Rectangle_863" data-name="Rectangle 863" width="374.956" height="2.591" transform="translate(0 189.422)" fill="#14142b"/>
  </g>
</svg>
