<svg version="1.2" xmlns="http://www.w3.org/2000/svg" viewBox="0 0 605 456" width="605" height="456">
	<title>portfolio-management-graphics</title>
	<defs>
		<linearGradient id="g1" x1="166.8" y1="240.1" x2="171.5" y2="240.1" gradientUnits="userSpaceOnUse">
			<stop offset="0" stop-color="#ffffff"/>
			<stop offset="1" stop-color="#edfffe"/>
		</linearGradient>
		<linearGradient id="g2" x1="175" y1="236.6" x2="179.7" y2="236.6" gradientUnits="userSpaceOnUse">
			<stop offset="0" stop-color="#ffffff"/>
			<stop offset="1" stop-color="#edfffe"/>
		</linearGradient>
		<linearGradient id="g3" x1="183.6" y1="238.4" x2="188.3" y2="238.4" gradientUnits="userSpaceOnUse">
			<stop offset="0" stop-color="#ffffff"/>
			<stop offset="1" stop-color="#edfffe"/>
		</linearGradient>
		<linearGradient id="g4" x1="192.5" y1="242.6" x2="197.1" y2="242.6" gradientUnits="userSpaceOnUse">
			<stop offset="0" stop-color="#ffffff"/>
			<stop offset="1" stop-color="#edfffe"/>
		</linearGradient>
	</defs>
	<style>
		.s0 { fill: #ffdbd9 } 
		.s1 { fill: #d9d9d9 } 
		.s2 { fill: #b8b8b8 } 
		.s3 { fill: #ee4437 } 
		.s4 { fill: #14142b } 
		.s5 { fill: #f7ada8 } 
		.s6 { fill: #ff8279 } 
		.s7 { fill: #eea886 } 
		.s8 { fill: #2c2c42 } 
		.s9 { fill: #222538 } 
		.s10 { fill: #a77860 } 
		.s11 { fill: #c29941 } 
		.s12 { fill: #ffffff } 
		.s13 { fill: #152b3d } 
		.s14 { fill: #1c1c36 } 
		.s15 { fill: #353a3d } 
		.s16 { fill: #ca1f12 } 
		.s17 { fill: #e55353 } 
		.s18 { fill: #eea987 } 
		.s19 { fill: #2f6b8c } 
		.s20 { fill: #000000 } 
		.s21 { fill: #2f4563 } 
		.s22 { fill: #1e2c40 } 
		.s23 { fill: #f6cac8 } 
		.s24 { fill: url(#g1) } 
		.s25 { fill: url(#g2) } 
		.s26 { fill: url(#g3) } 
		.s27 { fill: url(#g4) } 
		.s28 { fill: #faada8 } 
		.s29 { fill: #c0c0c0 } 
		.s30 { fill: #1d2033 } 
		.s31 { fill: #cac7d1 } 
		.s32 { fill: #c78d71 } 
		.s33 { fill: #a09ea6 } 
		.s34 { fill: #4c4c50 } 
		.s35 { fill: #eddad3 } 
		.s36 { fill: #ffa855 } 
		.s37 { fill: #ffa555 } 
		.s38 { fill: #d92113 } 
		.s39 { fill: #1c1e30 } 
		.s40 { fill: #24263d } 
		.s41 { fill: #1f2136 } 
		.s42 { fill: #4f558a } 
		.s43 { fill: #d6c5bf } 
		.s44 { fill: #16202e } 
		.s45 { fill: #007fe6 } 
		.s46 { fill: #eb4747 } 
		.s47 { fill: #d69779 } 
		.s48 { fill: #12131f } 
		.s49 { fill: #383846 } 
	</style>
	<g id="portfolio-management-graphics">
		<g id="_Слой_1">
			<g id="Group 628">
				<g id="Group 603">
					<path id="Rectangle 619" class="s0" d="m279.9 229.7h1.4v146.6h-1.4z"/>
					<path id="Rectangle 620" class="s0" d="m379.2 229.7h1.4v146.6h-1.4z"/>
					<path id="Rectangle 622" class="s1" d="m181.2 211.6h23.8v3.9h-23.8z"/>
					<path id="Rectangle 623" class="s1" d="m181.2 218.7h33.7v3.8h-33.7z"/>
					<path id="Rectangle 624" class="s0" d="m279.5 211.6h27.9v3.9h-27.9z"/>
					<path id="Rectangle 625" class="s0" d="m279.5 218.7h17.8v3.8h-17.8z"/>
					<path id="Rectangle 626" class="s0" d="m380.6 211.6h17.3v3.9h-17.3z"/>
					<path id="Rectangle 627" class="s0" d="m380.6 218.7h20.2v3.8h-20.2z"/>
					<path id="Rectangle 628" class="s1" d="m480 211.6h25.2v3.9h-25.2z"/>
					<path id="Rectangle 629" class="s1" d="m480 218.7h20.2v3.8h-20.2z"/>
					<path id="Rectangle 630" class="s2" d="m280.6 385h15.8v5.1h-15.8z"/>
					<path id="Rectangle 631" class="s2" d="m380.6 385h15.8v5.1h-15.8z"/>
					<g id="Group 601" style="opacity: .4">
						<path id="Path 2410" class="s3" d="m544.2 332.8c-31 0-57.9-13.4-86-27.4-34.7-17.2-70.5-35.1-118.3-30.2-30.5 3.1-49.7 15.5-66.5 26.5-15.3 9.9-29.8 18.7-49.4 19.4-31.6 1.2-42.6-12.3-42.8-13.1v-8.7c0 0.2 6.9 15.3 42.8 15.1 17.6 0 30.6-8.5 45.7-18.3 17.6-11.4 37.4-24.2 69.5-27.5 49.7-5.1 86.4 13.2 122 30.8 37.1 18.5 72.6 35.8 117.4 20.8v7.1c-12.7 4.3-23 5.5-34.4 5.5z"/>
					</g>
					<g id="Group 602" style="opacity: .2">
						<path id="Path 2411" class="s4" d="m358.2 331.1c-22.9 0-41-15.4-58.8-30.4-13.5-11.5-27.4-23.1-43.6-28.9-49.2-17.6-74.4 14.5-74.6 14.8v-9.8c0.3-0.3 4.8-6.1 17.7-11.7 11.9-5.1 31.7-9.1 59.1 0.4 17.4 6.1 31.8 18.3 45.7 30.1 28.3 23.9 52.7 44.6 95.1 12.2 32.1-24.5 62.4-47.9 92.1-56.5 29.2-8.3 59.5-2.2 88 26.2l-0.3 8.9c-60.3-60.7-111.7-22.2-175.8 26.7-16.9 13-31.5 18-44.6 18z"/>
					</g>
				</g>
				<path id="Path 2412" class="s5" d="m375 194.7l-1-1.2 16.7-14.3h10.2l23.1-19.6 14.4 12.3h10.6l5.4 4.6 16.7-14.3h8.5l35.1-29.9 1 1.2-35.6 30.3h-8.4l-17.3 14.7-6-5.1h-10.6l-13.8-11.8-22.5 19.2h-10.2z"/>
				<path id="Path 2413" class="s5" d="m377.4 175h-5.8v-1.6h5.2l8.7-8.7 6.3 6.4 15.1-15.1 4.6 4.6 15.3-15.3 9.2 9.2h10.4l16.1-16.1h14l10.2-10.3h12.6l12.5-12.5 1.1 1.1-12.9 12.9h-12.6l-10.3 10.3h-13.9l-16.1 16.1h-11.8l-8.5-8.5-15.3 15.3-4.6-4.6-15.1 15.1-6.3-6.4z"/>
				<path id="Path 2414" fill-rule="evenodd" class="s0" d="m532.6 278.1c-8.8 32.6-25.6 60.8-47.9 83.1l-15.8 14.5-20 13.6c-42 25.3-93.8 34.2-144.8 20.4-99.5-26.7-158.4-129-131.6-228.5 15.9-59.3 58.7-104.2 111.8-125.1q0 0 0.1 0c14.4-5.7 29.6-9.6 45.2-11.6v0.1q0.1 0 0.1-0.1c23.2-2.8 47.3-1.4 71.3 5.1 9.5 2.6 18.8 5.8 27.6 9.8 51.3 22.8 88.4 67.1 103.3 119q0 0.1 0 0.1c9 31.5 9.8 65.7 0.7 99.6zm-58.1-83.3q-1.1-4.1-2.5-8.1c-12.2-33.8-37.3-59.4-67.7-73-20.7-9.2-44-13-67.3-10.1-9.1 1.2-18.2 3.3-27.2 6.5q-1.8 0.7-3.7 1.4c-63.5 25-96.1 96.1-72.9 160.8 23.6 65.9 96.2 100.2 162.2 76.6 63.2-22.7 97.3-90.4 79.1-154.1z"/>
				<path id="Path 2415" class="s4" d="m568.6 168l-36.7 10.4-57.4 16.4q-1.1-4.1-2.5-8.1c-12.2-33.8-37.3-59.4-67.7-73l24.3-54.3 2.5-5.7 13.1-29.3c61.8 27.5 106.5 81 124.4 143.6z"/>
				<path id="Path 2416" class="s6" d="m431.1 53.7l-2.5 5.7-24.3 54.3c-20.7-9.2-44-13-67.3-10.1l-7.3-59.1-0.8-6.2c24-2.9 49-1.4 73.7 5.2 9.9 2.7 19.4 6.1 28.5 10.2z"/>
				<path id="Path 2417" class="s3" d="m337 103.6c-9.1 1.2-18.2 3.3-27.2 6.5q-1.8 0.7-3.7 1.4l-21.7-55.4-6.6-16.8c15.8-6.2 32.5-10.5 49.6-12.7h0.1l1.4 11.7 0.8 6.2c0 0 7.3 59.1 7.3 59.1z"/>
				<g id="Group 606">
					<g id="Group 605">
						<g id="Group 604">
							<path id="Path 2419" class="s3" d="m312.8 13.8c0 0-2.7-4.9-4.2-6.6-1.5-1.8-6.5-3.1-5.8-5.3 0.7-2.3 7.4-1.3 9.2 0.9 1.9 2.2 7.5 3 7.7 3.9 0.2 0.9-1.9 6-3.1 6.8-1.3 0.8-3.8 0.3-3.8 0.3z"/>
							<path id="Path 2420" class="s3" d="m301.5 17.9c0 0-4.3-3.4-6.4-4.4-2-1-7.1-0.3-7.4-2.6-0.3-2.3 6.3-4.1 8.8-2.8 2.6 1.3 8.1-0.2 8.6 0.5 0.6 0.8 0.6 6.3-0.2 7.5-0.8 1.3-3.4 1.8-3.4 1.8z"/>
							<path id="Path 2421" class="s7" d="m311.1 26.8c0 0 1.9-12.9 1.8-15.1 0-0.7 3.9-0.4 3.7 0.8-0.4 2.7 1.4 13 1.1 14.9-0.3 1.9-6.7 0.6-6.6-0.6z"/>
							<path id="Path 2422" class="s7" d="m305.2 30.5c0 0-3.5-12.5-4.3-14.6-0.4-0.9 3.2-2.3 3.7-0.7 0.7 2.6 6.4 11.4 6.9 13.3 0.5 1.8-6 3.2-6.3 2z"/>
							<path id="Path 2423" class="s8" d="m307.7 39.2c0 0-3.8-12.8-4.4-14.1l6-3.7c0 0 2.7 8.1 3.1 10.2 0.4 2-4.7 7.6-4.7 7.6z"/>
							<path id="Path 2424" class="s9" d="m413.5 5.4c0 0-5.8 1.5-8.5 5.8-2.8 4.4-5.2 9.4-10.3 11.7-5.2 2.3-5.2 8.2-4.8 9.1 0.4 0.9 16.2 18.7 19.7 19.4 3.5 0.7 9.9 0.2 9.2-4.4-0.6-4.5-7.4-14.4-3.6-19.4 3.8-4.9 4.7-9.5 4.7-9.5 0 0-6.4-12.7-6.4-12.7z"/>
							<path id="Path 2425" class="s7" d="m412.5 26.7c0 0-0.2 0-0.5 0-0.3-0.1-0.8-0.1-1.3 0.1q-0.2 0.1-0.6 0.3c-1.3 0.8-4.6 3-5 3-0.5 0.1-0.1-7.5-0.1-7.5 0 0 1.7-3 2-5 0.2-2.1 5.5 9.1 5.5 9.1z"/>
							<path id="Path 2426" class="s4" d="m371.9 34.7c0 0-6.4-4.5-13.8-3.1-7.4 1.4-8.2 4.8-10.8 5-2.6 0.2-11.1-0.6-18.1 1.5-7 2-12.9 2.2-13.7 1.7-0.8-0.6 4.4-12.3 4.4-13.9l-8.7-2.3c0 0-2.5 10.4-3.4 12.7-1.1 2.5-3.1 7.2-0.2 11.3 2.8 4.1 10.8 2.2 15.6 3.1 4.8 0.8 26.3 0.3 30.1 0.1 4.1-0.3 16.4-0.8 16.4-0.8z"/>
							<path id="Path 2427" class="s7" d="m424 11.6c0 0 0.4 6.3-1 8.1-0.6 0.8-1 1.2-1.2 1.4q-0.6 0.5-0.8 1.2c-0.4 1.2-0.7 2.9-1 3.2-0.4 0.4-1.5-0.6-1.9-0.6-0.4 0-4.2 3.3-5.1 2.6-0.9-0.6-6.5-6.3-6-10.2 0.4-3.8 2.2-9.6 8.4-9.6 6.3 0.1 8.1 2.3 8.6 3.9z"/>
							<path id="Path 2428" class="s3" d="m405 41.5c-0.1 0.3-2.4 3.9-4.9 6.1-1.1 0.9-2.2 1.5-3.2 1.5q-0.4 0-0.8 0c-2.9 0.1-5.2 0.5-9.1 0.7-4 0.2-13.9-0.3-14.2-0.3-0.3 0-3.1 0.5-3.1 0.5-1-1.3 1.7-15.3 2.2-15.3 0.5-0.1 3.8 1.1 6.9 0.6 3.1-0.5 4.4-0.8 9-6.3 4.7-5.4 9.4-6.8 11.3-6.4 2 0.5 5.9 0 5.9 0 0 0 0.2 18.5 0 18.9z"/>
							<path id="Path 2429" class="s9" d="m421.3 16.1c0 0 1.2 3 1.8 3.4 0 0 2.3-2.4 0.8-8.2-1.4-5.9-6.9-6.5-10.4-5.9-4.4 0.8-8.8 15.6-8.6 17.1 0.2 1.4 5.2-7.7 9.5-7 4.3 0.8 4.3 1 6.9 0.6z"/>
							<path id="Path 2430" class="s10" d="m412 26.7c-0.3-0.1-0.8 0-1.3 0.1q-0.2 0.1-0.6 0.3c-1-1.6-1.9-5.3-1.9-5.4 0.6 1.4 3.8 5 3.8 5z"/>
							<path id="Path 2431" class="s11" d="m400.1 47.6c-1.1 0.9-2.2 1.5-3.2 1.5q-0.4 0-0.8 0l1.4-11.6c0 0 2.6 10.1 2.6 10.1z"/>
							<path id="Path 2432" class="s7" d="m422.7 67.6l-2.8 2.5c-2.4-1.3-8.4-5.6-9.6-6.6-1.2-1.1-9.3-7.9-10.5-9.4-1.1-1.6-2.5-17.6-2.4-18.4 0.2-0.7 7.1-1.1 7.9 0.6 0 0 0.4 9.2 0.5 10.7 0.2 1.6 0.8 2.9 1.9 4.2 1.4 1.8 4.5 5.9 7.5 9.3 0.7 0.8 6.6 6.3 7.5 7.1z"/>
							<path id="Path 2433" class="s3" d="m405.9 36.5c0 0 0.4-12.1-3.6-12-5 0.2-5.7 6.3-5 13 0 0 7.4 0.1 8.6-1z"/>
							<path id="Path 2434" class="s7" d="m421.4 66.4c0 0 0.4 0.6 0.9 0.7 0.9 0.4 2.3-0.3 3 1 0.7 1.2-2.6 4.2-3.5 4.4-0.9 0.2-2.3-1.2-3.4-3.9-1.1-2.7 3-2.2 3-2.2z"/>
							<path id="Path 2435" class="s7" d="m425 67.7c0 0 1.7 1.3 3.4 2.9 1.5 1.4 3 3.3 2.6 3.7-0.5 0.5-1.5-1.2-3.1-2.5-1.4-1.2-1.4-0.7-1.4-0.7 0 0 0-0.2 1.3 1.4 1.5 1.8 2.9 3.9 2.5 4.2-0.3 0.2-0.3 0.2-0.9-0.3 0.3 0.3 0.2 0.5 0 0.6-0.8 0.7-3.2-1.6-4.2-2.5 0.7 0.7 1.2 1.3 0.5 1.4-0.9 0.1-4.3-3.3-5.6-4.4-1.4-1.2 4.9-3.8 4.9-3.8z"/>
						</g>
						<path id="Path 2436" class="s0" d="m374.7 35.2c0 0-1.3 9.6-0.7 14.3 0 0 0.7 0.5 2.1 0.1 0 0 0.4-10.5 1.1-14.2 0 0-0.4-0.3-2.5-0.2z"/>
					</g>
				</g>
				<g id="Group 607">
					<path id="Rectangle 634" class="s12" d="m536.8 347.1h20.1v1.4h-20.1z"/>
					<path id="Rectangle 635" class="s12" d="m536.8 349.7h20.1v5.9h-20.1z"/>
					<path id="Rectangle 636" class="s12" d="m539.3 358.5h-11.9v-0.9h11.9z"/>
					<path id="Rectangle 637" class="s12" d="m527.4 358.9h11.9v2.4h-11.9z"/>
					<path id="Rectangle 638" class="s12" d="m561.1 356.1h-0.9v-16.6h0.9z"/>
				</g>
				<g id="Group 608">
					<path id="Path 2437" class="s0" d="m15.7 239.7h19.3l-5.9-12.2h-19.3z"/>
				</g>
				<g id="Group 609">
					<path id="Path 2438" class="s0" d="m6.6 239.7h4.6l-5.9-12.2h-4.6z"/>
				</g>
				<g id="Group 610">
					<path id="Rectangle 639" class="s0" d="m525.1 11.2h21.4v8.3h-21.4z"/>
				</g>
				<g id="Group 611">
					<path id="Rectangle 640" class="s0" d="m525.1 7.4h21.4v1.5h-21.4z"/>
				</g>
				<path id="Path 2439" class="s3" d="m60.2 191.3c0-3.4 2.7-6 6-6h139.2c3.3 0 6 2.6 6 6v1.2c0 3.3-2.7 6-6 6h-139.2c-3.3 0-6-2.7-6-6z"/>
				<g id="Group 612">
					<path id="Path 2440" class="s4" d="m291.6 380.4h76.8l-24.2 74.3 2.2 0.7 25.2-77.4h-81.7l-25 76.7 2.3 0.7z"/>
					<path id="Path 2441" class="s4" d="m317.7 454.7l-24.2-74.3h76.8l24.4 75 2.3-0.7-25-76.7h-81.8l25.3 77.4z"/>
					<path id="Rectangle 641" class="s4" d="m284.4 401.4h94v2.4h-94z"/>
					<path id="Rectangle 642" class="s4" d="m274.8 427.2h112.4v2.4h-112.4z"/>
				</g>
				<g id="Group 613">
					<path id="Path 2442" class="s7" d="m330.1 210.8c0 0 1.9-3.4-1.2-12.3-2.9-8.7-13.1-7.9-16.3-2.4-3.2 5.6-2.1 9.1 2.6 15.3 4.8 6.3 12.9 2.3 14.9-0.6z"/>
					<path id="Path 2443" class="s7" d="m306.5 365.2c0 0-0.5 3.7-0.6 4.2-0.1 0.6-5.6-0.3-5.6-0.3l-0.4-4.4c0 0 5.9 0 6.6 0.5z"/>
					<path id="Path 2444" class="s13" d="m305.9 369c0 0 1.8 2.2 3.5 3.2 1.7 0.9 4.4 1.3 5.4 2.3 0.7 0.7 2.6 3.9-4.4 3.8-7.1-0.1-10.5 0.4-11.2-0.8-0.8-1.2 1.1-8.8 1.1-8.8 0 0 1.7 0.5 5.6 0.3z"/>
					<path id="Path 2445" class="s7" d="m344.7 365.2c0 0-0.5 3.7-0.5 4.2-0.1 0.6-5.6-0.3-5.6-0.3l-0.5-4.4c0 0 6 0 6.6 0.5z"/>
					<path id="Path 2446" class="s13" d="m344.2 369c0 0 1.8 2.2 3.5 3.2 1.7 0.9 7.9 1.7 8.9 2.7 0.7 0.8 1.9 3.7-8 3.4-7-0.2-10.4 0.4-11.1-0.8-0.8-1.2 1-8.8 1-8.8 0 0 2.2 0.4 5.7 0.3z"/>
					<path id="Path 2447" class="s14" d="m308.3 273.4c0 0-2.8 8.8-2.4 16.4 0.3 7.6-1.5 15.9-2.3 23.9-0.8 8.8-4.2 29.7-4.4 34.5-0.1 4.7 0.6 19.8 0.6 19.8l6.8 0.2c0 0 5.8-36.6 7.3-40.4 1.5-3.7 8.9-30.3 9.2-33.3 0.2-3-14.8-21.1-14.8-21.1z"/>
					<path id="Path 2448" class="s4" d="m336.8 272.5c0 0 4.2 23.3 4.7 28 0.5 4.6 0.8 22.4 1 25.4 0.3 2.9 1.7 38 3 42.3h-7.6c0 0-7.9-25.5-7.9-37.6 0-12.1-5.2-26.3-8.6-34.2-3.3-8-11-8.2-13.1-23 0 0 25.7-5.6 28.5-0.9z"/>
					<path id="Path 2449" class="s7" d="m327.3 213.2c0 0-0.9 2.5 0 4.3 0.8 1.8-11.1 0.7-11.1 0.7 0 0 0.6-3.7-1-6.8-1.5-3 12.1 1.8 12.1 1.8z"/>
					<path id="Path 2450" class="s0" d="m307.8 275.4c0 0 4.2 4.3 29.4-0.7l-0.4-2.2-28.6 1.1c0 0-0.4 1.8-0.4 1.8z"/>
					<path id="Path 2451" class="s7" d="m329.1 218.1c0 0 4.4 0.4 5.6 0.6 1.3 0.3 9.7-1.5 11.5-1.6 1.7-0.2 9.1-5.3 9.3-5.9 0.3-0.6 4.5-11.4 4.8-13.7 0.2-2.3 4.1-1.1 3.8 0.5-0.6 3-1.4 10.3-1.9 12.4-0.5 2.3-1.7 7.4-2.5 8.1-0.7 0.6-7.3 5.7-13.8 7.8-6.6 2.2-11.5 5.4-11.5 5.4h-32.1c0 0-12.5-17.9-12.8-20.6-0.2-2.7 8.8-20.6 10.6-22.8 1.8-2.3 4.4 0.7 4.4 0.7 0 0-5.4 15.8-6.1 18-0.8 2.3 6.2 12.1 8.1 12.2 1.9 0 6.9-0.6 9-0.7 2.2-0.1 4.5-1.1 4.5-1.1 0 0 9.1 0.7 9.1 0.7z"/>
					<path id="Path 2452" class="s3" d="m342.9 230c0 0-3.9 2.6-4.3 7.1-0.3 4.5-1.8 11.6-2.5 14-0.7 2.4 0.6 20 0.8 21.2 0.2 1.3-24.8 4.3-28.7 1.3 0 0-1-16.4-1.5-21.1-0.4-4.7-2.6-16-3.3-17.5-0.7-1.5-9.4-13.7-9.8-15.3 0 0 4.5-7.2 7.7-7.3 0 0 5.2 6 6.8 6.3 1.7 0.3 12-1.6 12-1.6 0 0 1.1 1.5 7-0.3 0 0 7.1 0.8 8.3 1 1.4 0.1 11-1.3 11-1.3 0 0 3.9 6.6 3.3 9.9 0 0-6.8 3.6-6.8 3.6z"/>
					<path id="Path 2453" class="s7" d="m360.1 198.9c0 0 0.8-4.2-0.2-5.4-0.6-0.6-2.1-2.4-2.2-2.7-0.1-0.3-1.7-1.2-1.7-1.6 0-0.4 1.5-0.9 2.8 0.3 1.4 1.2 2.2 1.5 2.7 1.3 0.6-0.1 1.3-4.5 1.4-5.6 0-1.1 0.5-3.9 1.1-3.7 0.7 0.2 0.7 1.4 0.7 1.4 0 0 0.8-2.2 1.3-1.7 0.5 0.4 0.5 1.4 0.5 1.4 0 0 1-1.2 1.2-0.3 0.3 0.9 0 1.7 0 1.7 0 0 1.1-0.6 1.1 0.8 0.1 1.4-0.3 5.5-1 6.9-0.7 1.5-3.4 5.3-3.8 6.8-0.3 1.5-4 0.4-3.9 0.4z"/>
					<path id="Path 2454" class="s7" d="m303.6 191.6c0 0 3-5 4-5.5 1-0.4 2.4-0.7 3.7-1.6 1.2-0.9 2.9-1.6 2.8-1.9-0.1-0.3-1.6-0.2-3.1 0.5-1.6 0.7-2.3 0.3-2.5 0-0.1-0.4 0.9-2.9 1.4-3.5 0.4-0.6 3.8-4 3.3-4.5-0.6-0.5-2.8 1.3-3.2 1.7 0 0 1.8-3.7 1.1-3.9-0.7-0.1-2 1.2-2 1.2 0 0 0.2-3.2-3.2 2 0 0 0.7-1.8-0.4-1.2-1 0.6-2 3.8-2.3 5.4-0.4 1.6-1.9 6.8-3.1 8-1.3 1.2 3.5 3.3 3.5 3.3z"/>
					<path id="Path 2455" class="s15" d="m315.2 211.4c0 0 1.6 0.2 4.9-1 3.4-1.1 3.6-7 4.4-6.3 1.4 1.4 2.8 0.4 3.4-0.4 0 0-1.6-2.2-0.9-3.2 0.8-1 2-1.8 2-1.8 0 0-2.3-11.3-13.1-6.2-12.5 6.1-0.7 18.9-0.7 18.9z"/>
					<path id="Path 2456" class="s16" d="m327.3 217.5l-0.4-1.7c0 0-6.8-0.1-10.6 0.4l-0.4 2c0 0 4.8 2.2 11.4-0.7z"/>
					<path id="Path 2457" class="s7" d="m325.6 202.7c-0.6-1.1-2.9-1.8-3.2 1.2-0.2 2.2 4.1 4.7 4.1 2.6 0.1-2.1-0.5-3.1-0.9-3.8z"/>
					<path id="Path 2458" class="s17" d="m360.2 198c0 0 2.5 0 3.7 1.1 0 0 0.1 0.7-0.2 1.2 0 0-2.2-1-3.8-1.2 0 0 0-0.9 0.3-1.1z"/>
					<path id="Path 2459" class="s15" d="m363.1 198.6c0.3 0.5 0 1.1-0.5 1.4-0.6 0.2-1.2-0.1-1.4-0.6-0.3-0.5 0-1.2 0.5-1.4 0.6-0.2 1.2 0 1.4 0.6z"/>
				</g>
				<g id="Group 616">
					<g id="Group 614">
						<path id="Path 2460" class="s18" d="m558.1 256.1c0 0-2.2 0.3-2.2-0.6 0.1-0.9 0.2-2.1 0.2-2.1 0 0 2 2.7 2 2.7z"/>
						<path id="Path 2461" class="s18" d="m570.4 246.1l-7.2 5.5c1-0.1 2.5-0.3 2.5 0.1 0.1 0.7-2.7 1.5-3.6 2.2-0.8 0.5-1.6 1.6-1.9 1.6l-1.6 1.3-2.5-3.4c0 0 4.2-4.8 5.2-5.8 1.7-1.6 8.3-2.6 8.7-2.4 0.6 0.5 0.4 0.9 0.4 0.9z"/>
					</g>
					<path id="Path 2462" class="s4" d="m561.6 257.1l-5.9-4.9-19.8 20.1c-3.2 2.1 6 9.5 8.6 11.1 6.7 4.1 14.6 13.7 22.7 7.9 8.9-6.4-4-10.9-8.3-10.8-3.7 0.1-11.8-7.2-11.8-7.2 0 0 14.5-16.2 14.5-16.2z"/>
					<path id="Path 2463" class="s3" d="m551 437.5c0 0-3.3 3.4-6.6 4.2-3.4 0.7-5.7 1.6-5.7 3.6-0.1 2 9.6 3.3 13.5 1.3 5.7-3 6.3-2.1 6.9-3.6 0.6-1.5-0.8-5.5-0.7-6 0-0.5-7.4 0.5-7.4 0.5z"/>
					<path id="Path 2464" class="s19" d="m551.4 435.8c0 0-0.4 1.6-0.4 1.7 0.1 0 7.6 0.8 7.4-0.5-0.2-1-0.5-2.2-0.5-2.2 0 0-6.5 1-6.5 1z"/>
					<path id="Path 2465" class="s3" d="m588.4 438.4c0 0-2.4 3.4-5.7 4.1-3.2 0.8-5.3 2.3-5.4 4.2-0.2 1.9 7.5 4.5 12.9 1.1 3.6-2.3 4.9-2.1 5.7-3.6 0.7-1.4-0.4-5.3-0.3-5.8 0-0.6-7.2 0-7.2 0z"/>
					<path id="Path 2466" class="s19" d="m588.5 436.7c0 0-0.2 1.6-0.1 1.7 0 0 7.2 1.3 7.1 0 0-1-0.4-2.3-0.4-2.3 0 0-6.6 0.6-6.6 0.6z"/>
					<path id="Path 2467" class="s4" d="m559 338.2c0 0-3.5 25.2-4.9 33.7-1.7 10-2.2 18.2-2.7 23.4-0.6 6.5-1.3 39.7-1.7 41.6-0.5 1.9 10.1 0.9 10.1 0.9 0 0 5.5-43.3 7.2-50.2 1.6-6.5 6.3-34.3 7.8-32.5 1.5 1.8 6 33.2 7.1 38.3 1 5.1 4 45 4 45 0 0 9.9 1.6 11.9 0 0 0-1.6-35.6-2.3-45.1-0.2-3.6 2.3-43.4-3.8-59.4-3.3-8.5-32.7 4.3-32.7 4.3z"/>
					<path id="Path 2468" class="s3" d="m569.2 277.7c0 0-9.2 1.9-10.3 2.9-1.2 1-3.3 11-3.4 13.8-0.1 2.8 1.1 14.6 2.3 18.9 1.2 4.4 1.2 23.2 0.4 29.3 0 0 17.7 3.6 35.9 1.2 0 0-2.5-18.3-1.7-24.3 0.9-7.6 3.1-25.3 3.1-25.3 0 0 0.1-9.9-1.3-11.5-3.1-3.4-14.7-5-14.7-5z"/>
					<path id="Path 2469" class="s20" d="m583 296.1c0.4 9.1 3.3 11.3 6.1 10.6 0.9-0.2 1.8-0.7 2.6-1.4 1.2-1.1 2.1-2.5 2.5-3.9 1.2-5.1 1.2-19-5.2-20.8 0 0-6.9-2.3-6 15.5z"/>
					<path id="Path 2470" class="s0" d="m555.5 300.2c0 0 5.1-0.8 5.4 6.6 0.3 7.4 3.6 21.2 8.8 26.7l-20.6 0.8c-5.3-5.5-7.8-18.7-8.2-26.1-0.4-6.8-5.5-6.6-5.5-6.6 0 0 20.1-1.4 20.1-1.4z"/>
					<path id="Path 2471" class="s21" d="m567.5 283.2q0.2 0.1 0.4 0.2 0.7 0.4 1.8 0.5 0.4 0 0.8 0 0.3 0 0.5 0c4.9-0.5 9.7-6 9.7-6-9.8-1.5-13.9 0.3-13.9 0.3 0 0-1.6 3.4 0.7 5z"/>
					<path id="Path 2472" class="s7" d="m569.6 249.5c0 0-11.5-2.3-8.6 12.1 3 14.4 5.8 15.5 12.6 12.3 6.9-3.1 6.1-12.4 6.3-16.9 0.2-4.6-6.6-7.4-10.3-7.5z"/>
					<path id="Path 2473" class="s7" d="m567.7 279.7c0 0 2.3 1.5 10.9-2.3 0 0-0.8-5.1 0.5-10.8 1.3-5.4-10.6 6.7-10.6 6.7 0.1 0.1 0.2 0.7 0.1 1.4q-0.1 0.3-0.1 0.7-0.1 0.6-0.3 1.3 0 0.1 0 0.3c-0.5 1.9-0.5 1.1-0.5 2.7z"/>
					<path id="Path 2474" class="s15" d="m579.5 264.4c0 0-0.6-3.9-2.2-4-1.7-0.1-2.2 2.3-2.2 2.3l-1.3 0.1c0 0 0.6-4.1-1.1-4.7-1.7-0.7-10.8 1.5-12.1 0.4-1.4-1.1-0.7-8.7 1.7-9.9 2.4-1.1 8.7-4.3 13.7-1.1 0 0 3.8-0.6 4.4 2.5 0.7 3.1 0.1 12.1-0.9 14.4z"/>
					<path id="Path 2475" class="s7" d="m575.2 259.1c0.3-1.4 3-1.7 3.1 0.4 0 2.1-1.8 5.6-2.8 5.1-0.9-0.4-0.7-3.7-0.3-5.5z"/>
					<path id="Path 2476" class="s4" d="m578.6 275.7c0 0-4.5 2.8-8.9 3.4l2.3 3.8 7.5-5.2c0 0-0.9-2-0.9-2z"/>
					<path id="Path 2477" class="s22" d="m568.2 277c0 0 0.4 1.6 1.4 2.1l-2.2 3.1 0.1-4.1c0 0 0.7-1.1 0.7-1.1z"/>
					<path id="Path 2478" class="s12" d="m569.6 279.1l-1.7 2.4c0 0 1.1 1.4 3.5 0.4 0 0-1.8-2.8-1.8-2.8z"/>
					<path id="Path 2479" class="s12" d="m567.9 283.4q0.7 0.4 1.8 0.5 0.4 0 0.8 0l-0.2-2.3h-1.7c0 0-0.4 0.7-0.7 1.8z"/>
					<path id="Path 2480" class="s10" d="m568.2 276.9c5.1 0.2 8.4-5.1 8.5-5.2-3.2 3.5-8.2 3.7-8.2 3.7-0.1 0.4-0.2 1-0.3 1.5z"/>
					<path id="Path 2481" class="s23" d="m555.5 300.2c0 0-6.1 0.6-4.9 9.2l-18.2 0.9c0 0-2.5-5.8 3-8.7z"/>
					<path id="Rectangle 643" class="s12" d="m548.4 306.5l-14.2 0.8-0.1-0.8 14.3-0.7z"/>
					<path id="Rectangle 644" class="s12" d="m549.6 303.2l-14.2 0.8v-0.8l14.2-0.7z"/>
					<g id="Group 615">
						<path id="Rectangle 645" class="s12" d="m543 310.5l14.2-0.7 0.1 0.7-14.3 0.8z"/>
						<path id="Rectangle 646" class="s12" d="m544.8 315.5l14.2-0.7 0.1 0.7-14.3 0.8z"/>
						<path id="Rectangle 647" class="s12" d="m546.6 320.5l14.2-0.8v0.8l-14.2 0.7z"/>
						<path id="Rectangle 648" class="s12" d="m548.4 325.5l14.2-0.8v0.8l-14.2 0.7z"/>
						<path id="Rectangle 649" class="s12" d="m550.1 330.5l14.3-0.8v0.7l-14.2 0.8z"/>
					</g>
					<path id="Path 2482" class="s7" d="m571.3 316.2c0 0-0.8 0.4-1.5 0.2-1.2-0.3-2.2-2-3.7-1.1-1.6 0.8-0.3 6.5 0.5 7.3 0.8 0.9 3.2 0.4 6.2-1.8 3-2.1-1.5-4.6-1.5-4.6z"/>
					<path id="Path 2483" class="s7" d="m566.6 315.1c0 0-2.6 0.2-5.5 0.8-2.5 0.5-5.6 1.4-5.5 2.1 0.2 0.9 2.6-0.1 5.2-0.5 2.3-0.3 1.9 0.2 1.9 0.2 0 0 0.1-0.2-2.4 0.7-2.6 0.9-5.5 1.9-5.4 2.5 0.1 0.6 0.2 0.7 1.2 0.5-0.6 0.2-0.6 0.4-0.5 0.7 0.4 1.3 4.5 0.6 6.1 0.3-1.2 0.2-2.1 0.5-1.4 1.2 0.8 0.7 6.6-0.6 8.8-0.8 2.3-0.3-2.5-7.7-2.5-7.7z"/>
					<path id="Path 2484" class="s4" d="m587 280.8c-1.9 0.6-2.9 3.2-1.7 8.7 1.2 6.1 2.6 9.1 3.5 10.5 0.8 1.4 5.2 8.8 4.4 9.9-0.8 1.2-11.5 4-12.2 4.2-1.4 0.4-11.1 2.3-11.1 2.3l2.4 8.3c0 0 29.3-5 30.8-6.5 1.4-1.4 2.1-3.3 0.6-8.3-1.6-5.1-4.5-17-5-17.9-0.5-0.9-3.2-14-11.7-11.2z"/>
					<path id="Path 2485" class="s22" d="m585.5 290.7c0 0 0.7 9.4 3.6 16 0.9-0.2 1.8-0.7 2.6-1.4 0 0-3.4-6.1-3.7-6.8-0.3-0.7-2.1-6.1-2.5-7.8z"/>
				</g>
				<g id="Group 620">
					<g id="Group 617">
						<path id="Path 2486" class="s3" d="m60.7 216.1c0-5 4-9 9-9h131.5c4.9 0 9 4 9 9v88.6c0 4.9-4.1 9-9 9h-131.5c-5 0-9-4.1-9-9z"/>
					</g>
					<g id="Group 618">
						<path id="Rectangle 650" class="s24" d="m166.8 227.1h4.7v26h-4.7z"/>
						<path id="Rectangle 651" class="s25" d="m175 220.1h4.7v32.9h-4.7z"/>
						<path id="Rectangle 652" class="s26" d="m183.6 223.8h4.7v29.2h-4.7z"/>
						<path id="Rectangle 653" class="s27" d="m192.5 232.2h4.6v20.9h-4.6z"/>
						<path id="Rectangle 654" class="s28" d="m166.8 236.6h4.7v16.5h-4.7z"/>
						<path id="Rectangle 655" class="s28" d="m175 232.2h4.7v20.9h-4.7z"/>
						<path id="Rectangle 656" class="s28" d="m183.6 234.5h4.7v18.6h-4.7z"/>
						<path id="Rectangle 657" class="s28" d="m192.5 240.1h4.6v13h-4.6z"/>
					</g>
					<path id="Rectangle 658" class="s12" d="m168.1 265.6c0-2 1.6-3.7 3.7-3.7h20.4c2 0 3.7 1.7 3.7 3.7 0 2.1-1.7 3.8-3.7 3.8h-20.4c-2.1 0-3.7-1.7-3.7-3.8z"/>
					<path id="Rectangle 659" class="s12" d="m168.1 279.5c0-2 1.6-3.7 3.7-3.7h20.4c2 0 3.7 1.7 3.7 3.7 0 2.1-1.7 3.7-3.7 3.7h-20.4c-2.1 0-3.7-1.6-3.7-3.7z"/>
					<path id="Path 2487" class="s12" d="m168.1 291.7c0-1.1 0.9-2 2-2h23.8c1.1 0 2 0.9 2 2v3.4c0 1.1-0.9 2-2 2h-23.8c-1.1 0-2-0.9-2-2z"/>
					<g id="Group 619">
						<path id="Path 2488" fill-rule="evenodd" class="s0" d="m129.7 298.2c-16.6 5.9-34.5 0.6-45.3-12.1-2.6-3.1-4.8-6.5-6.4-10.3q-0.6-1.3-1.1-2.6c-3.1-8.8-3.1-17.9-0.5-26.2 3.7-11.9 12.8-22 25.5-26.5 4.2-1.5 8.5-2.3 12.7-2.4 17.4-0.6 33.9 10 40.1 27.3 7.6 21.5-3.5 45.1-25 52.8zm15.2-49.3c-4.6-13-17-20.9-30-20.5-3.2 0.1-6.4 0.7-9.5 1.8-9.5 3.4-16.3 11-19.1 19.9-2 6.2-2 13.1 0.4 19.6q0.3 1 0.7 2c1.3 2.8 2.9 5.4 4.8 7.7 8.1 9.5 21.6 13.5 34 9.1 16.1-5.8 24.5-23.5 18.7-39.6z"/>
						<path id="Path 2489" class="s4" d="m86.3 250.1l-9.9-3.1c3.7-11.9 12.8-22 25.5-26.5 4.2-1.5 8.5-2.3 12.7-2.4l0.3 10.3c-3.2 0.1-6.4 0.7-9.5 1.8-9.5 3.4-16.3 11-19.1 19.9z"/>
						<path id="Path 2490" class="s29" d="m87.4 271.7l-9.4 4.1q-0.6-1.3-1.1-2.6c-3.1-8.8-3.1-17.9-0.5-26.2l9.9 3.1c-2 6.2-2 13.1 0.4 19.6q0.3 1 0.7 2z"/>
						<path id="Path 2491" class="s28" d="m84.4 286.1c-2.6-3.1-4.8-6.5-6.4-10.3l9.4-4.1c1.3 2.8 2.9 5.4 4.8 7.7 0 0-7.8 6.7-7.8 6.7z"/>
					</g>
				</g>
				<g id="Group 622">
					<path id="Path 2492" class="s4" d="m196.8 434.4c0 0-1.6 2.8-2.5 3.9-1 1.2-4.8 3.2-4.8 6.5-0.1 3.6 6.3 2.6 8.8 2.5 2.5-0.2 2.7-2.1 3.8-4.1 1-2.1 2.1-1.7 2.3-3.4 0.2-1.6-1-5.4-1-5.4 0 0-6.6 0-6.6 0z"/>
					<path id="Path 2493" class="s18" d="m203.3 433.3c0 0 0.3 1.5 0.2 1.6 0 0-7.1 1.3-7 0 0-1 0.6-2.2 0.6-2.2 0 0 6.2 0.6 6.2 0.6z"/>
					<path id="Path 2494" class="s7" d="m267.7 300.7c0 0 7.4-1.6 8-1.2 0.5 0.3 0.6 0.7-0.1 0.9-0.7 0.2-7.1 1.7-7.1 1.7 0 0 8.9-0.3 9.4-0.2 0.3 0.1 0.5 0.9 0.1 1-0.4 0.2-9.3 1-9.3 1 0 0 8.4-0.3 8.8 0 0.3 0.2 0.3 1-0.4 1.1-0.6 0-8.4 0.8-8.4 0.8 0 0 6.1 0.2 6.3 0.6 0.1 0.2 0.2 0.9-1.3 0.8-1.6-0.1-5.3 0.1-5.3 0.1 0 0-0.7-6.6-0.7-6.6z"/>
					<path id="Path 2495" class="s4" d="m234.9 433.9c0 0 3.1 3.4 6.2 4.1 3.1 0.7 5.3 1.7 5.3 3.6 0.1 2-9 3.3-12.5 1.3-5.4-2.9-5.9-2-6.5-3.5-0.6-1.5 0.7-5.5 0.6-6 0-0.6 6.9 0.5 6.9 0.5z"/>
					<path id="Path 2496" class="s18" d="m234.5 432.2c0 0 0.4 1.6 0.4 1.7-0.1 0-7.1 0.8-6.9-0.5 0.2-1 0.5-2.2 0.5-2.2z"/>
					<path id="Path 2497" class="s4" d="m228.2 335.6c0 0 2.5 24.7 3.8 33.2 1.6 9.9 2.1 18.1 2.5 23.2 0.6 6.4 0.7 38.1 1.1 40 0.4 1.9-8.5 0.5-8.5 0.5 0 0-4.3-41.4-5.9-48.2-1.5-6.4-7.1-33.9-8.5-32.2-1.3 1.8-3 32.1-4.1 37.1-1 5.1-4.1 44.5-4.1 44.5 0 0-7 1.4-8.8-0.2 0 0-0.9-34-0.2-43.4 0.2-3.6-4.3-43.1 1.5-59.1 3-8.4 31.2 4.6 31.2 4.6z"/>
					<path id="Path 2498" class="s29" d="m184.6 339.1c0 0 4.3 1.3 6.1 1 1.8-0.3 0.8-22.4 0.9-26.9 0.1-3.8 2.1-13.6 2.1-13.6q0 0 0 0 0 0 0 0 0 0 0 0.1c0.2 0.7 3 10.9 3.1 15.8 0.1 5.1-0.7 24.5-0.7 24.5l7.6 0.7 21.7 0.6 4.6-0.6c0 0-0.6-8.3-0.8-12.2-0.1-2.5-0.6-7-0.5-11.4 0 0 0-4.6 0.4-6.6 0.1-8.8 0.6-17.5 0.6-17.5q0.4-5.9 0.6-11.1c-0.9-0.5-2.1-1.1-3-1.6-2.9-1.3-6.9-3.2-9.4-4.3-1.5-0.7-3-1.2-3-1.2 0 0-10.2-1-11-0.9-0.3 0-1.5 0.4-3.2 1.1-3.6 1.3-10.6 4.1-11.7 4.9-1.7 1.2-5.1 28.9-5.3 30.9-0.2 3.5 0.9 28.3 0.9 28.3z"/>
					<path id="Path 2499" class="s30" d="m229.3 337.3c0 0-14.9 1.2-28 0v4.3c0 0 19.6 2.8 28.7-0.9z"/>
					<path id="Path 2500" class="s4" d="m216.6 275.4c0 0 2.4 5.7 4.2 18.5 0.7 4.9 2 13.1 3 21.5 0.7 6.7 2.4 13.5 3 18.6 0.5 5.2 2.2 20.7 2.2 20.7l4.1-2.5c0.6-0.6 1.4-1.3 1.1-2-1.1-3.7-3.2-15.7-4.5-26.1q0 0 0 0-0.1-0.8-0.2-1.5 0-0.1 0-0.1c-0.2-2.1-0.4-4.1-0.6-5.9-0.1-1.4 0-2.8 0.2-4.2 0.6-9.3 0.9-19.2 0.9-19.2 0.3-4.1 0.4-7.9 0.6-11.4-0.7-0.5-2.2-1.3-3.2-1.8 0 0-9.1-4.1-10.8-4.6z"/>
					<path id="Path 2501" class="s31" d="m215.8 278.4c0 0 0.3 3.9-3 4-3.3 0.1-6-3.1-6-3.1l5.5 1.4 3.4-2.8c0 0 0.1 0.5 0.1 0.5z"/>
					<path id="Path 2502" class="s7" d="m259.5 303.9c0 0 2.4-0.7 2.7-2.2 0.3-1.2 1.5-2.6 1.8-3 0.5-0.6 1.4-3 2.1-2.4 0.7 0.6-1.3 3.9-1.6 4.7-0.3 0.8 3.1-0.6 3.8-0.3 0.8 0.2 2.4 6 0 6.6-2.4 0.7-5.3-0.2-5.7 0-0.4 0.2-1.7 0.6-1.7 0.6 0 0-1.4-4-1.4-4z"/>
					<path id="Path 2503" class="s18" d="m211.3 248.5c0 0 7.6 1.2 6.3 13.1-1.2 11.9-7.9 10.8-8.4 10.8-0.4 0-6.7 0.1-7-14.4 0 0-0.1-10.7 9.1-9.5z"/>
					<path id="Path 2504" class="s18" d="m214.7 269c0 0 0 4.9 0.2 5.9 0.2 1.2-6.1 4.4-10.2 0.6 0 0 0.8-5.3 0.6-7.2-0.3-1.9 9.4 0.7 9.4 0.7z"/>
					<path id="Path 2505" class="s18" d="m217.7 258.8c0 0 0.8-0.8 1.1 0.1 0.3 0.9-1.1 4.7-1.2 5 0 0-0.2 0.4-0.4 0.2-0.2-0.2 0.5-5.3 0.5-5.3z"/>
					<path id="Path 2506" class="s18" d="m202.2 257.9c0 0-0.8-0.9-1.1 0-0.3 0.9 0.9 4.9 1 5.1 0 0 0.3 0.4 0.5 0.3 0.2-0.2-0.4-5.4-0.4-5.4z"/>
					<path id="Path 2507" class="s15" d="m218.3 257.2c-0.3 1.7-0.5 2.9-0.5 2.9l-1.1 1.4c0 0 0-3.2-0.1-3.7-0.1-0.2-0.2-0.5-0.2-0.9-0.2-0.6-0.3-1.2-0.4-1.5-0.1-0.3-6.5-2.2-12.2 0.4 0 0 0.1 0.5 0.1 1.1 0 0.6-0.1 1.3-0.4 1.4-0.5 0.2-0.3 3.7-0.3 3.7l-0.9-1c0 0-0.2-1.8-0.5-3.9q0 0 0-0.1-0.1-0.7-0.1-1.5c-0.2-2.1 0-6 2.8-8.2 1.9-0.8 4.9-1.5 9.9 0 0 0 1.2 0.4 1.5 0.7 3.1 3.4 2.4 9.2 2.4 9.2z"/>
					<path id="Path 2508" class="s32" d="m205.8 270.8c0 0 1.2 1.7 4 1.6 2.8 0 4.1-1.5 4.1-1.5 0 0-1.4 2.8-4.1 2.8-2.7-0.1-4-2.9-4-2.9z"/>
					<path id="Path 2509" class="s33" d="m215.2 278.6l-2.9 2.1c0 0 2.4-5 2.5-7z"/>
					<path id="Path 2510" class="s29" d="m214.8 273.7l1.9 1.7 2 6.1-3.5-2.9z"/>
					<path id="Path 2511" class="s4" d="m262.6 309.4c0 0-16.7 4.4-20.7 3.4-1.9-0.4-4.4-3-6.8-6.1-0.7-1-1.5-2.1-2.2-3.1-2.9-4.2-5.2-8.2-5.2-8.2 0 0-8.6-10-1.7-14.5 0 0 2.9-0.3 4.6 0.9 1.5 1.1 5.2 8.2 5.8 9.5 0.6 1.3 7.1 13.5 7.5 13.7 0.5 0.3 6-0.7 9-0.9 4.8-0.4 8.8-1.7 8.8-1.7 0 0 0.9 7 0.9 7z"/>
					<path id="Path 2512" class="s18" d="m214.4 275.5c0 0-0.8 2.7-2.1 5.2 0 0-2.9-2.6-3.9-3.5-0.9-0.9 6-1.7 6-1.7z"/>
					<path id="Path 2513" class="s33" d="m209.2 277.8l3.1 2.9c0 0-3.6-0.2-4.3-0.8 0 0 1.2-2.1 1.2-2.1z"/>
					<path id="Path 2514" class="s29" d="m205.1 272.4c0 0 2.5 4.1 4.1 5.4l-2.7 4.6-4.4-8z"/>
					<path id="Path 2515" class="s4" d="m191.9 313.4c-0.3 4.2 1.5 27.8-0.3 28.1-1.8 0.3-8.4-1.1-8.4-1.1 0 0-0.8-25.4-0.5-28.1 0.1-1.9 3.2-31 4.9-32.2 0.9-0.6 7.9-3.1 11.3-4.5 0.6-0.2 2.6-1 3.2-1.2 0.7 0.8 7 15.6 7.6 27.2 0.2 3.5-0.6 10.9-1.3 17-0.6 6.5-1.4 11.5-1.9 17-1.1 10.6-1.8 19.1-1.8 19.1l-10.7-4.7c-1.7-0.9-4.1-4.4-3.4-6.2 2.4-6.9 5.5-18.6 5.5-24.7 0 0-1.2-14.8-2.1-18 0 0-1.7 6.9-2.1 12.3z"/>
					<path id="Path 2573" class="s34" d="m211.6 337.5h7.1v5.3h-7.1z"/>
					<g id="Group 621">
						<path id="Path 2516" class="s35" d="m195.9 365.2h-23.2l5.4-15.5h23.2z"/>
						<path id="Path 2517" class="s0" d="m195.9 365.2h-23.2l5.4-15.5h23.2z"/>
						<path id="Path 2518" class="s28" d="m178.1 380.6h23.2l-5.4-15.4h-23.2z"/>
						<path id="Path 2519" class="s0" d="m195.9 396h-23.2l5.4-15.4h23.2z"/>
						<path id="Path 2520" class="s28" d="m178.1 411.5h23.2l-5.4-15.5h-23.2z"/>
						<path id="Rectangle 661" class="s28" d="m179.5 352.3h13.2v0.6h-13.2z"/>
						<path id="Rectangle 662" class="s28" d="m178.7 354.4h13.2v0.6h-13.2z"/>
						<path id="Rectangle 663" class="s28" d="m177.9 356.5h10.6v0.5h-10.6z"/>
						<path id="Rectangle 664" class="s28" d="m179.5 383.1h13.2v0.5h-13.2z"/>
						<path id="Rectangle 665" class="s28" d="m178.7 385.1h6.6v0.6h-6.6z"/>
					</g>
					<path id="Path 2521" class="s7" d="m190.3 341.8c0 0 0.1 0.4 0.3 1.1 0.4 1.1 1.6 2.4 0.9 4-0.8 1.5-6.4 0.5-7.2-0.2-0.9-0.7-0.5-3.1 1.4-6.2 2-3 4.6 1.3 4.6 1.3z"/>
					<path id="Path 2522" class="s7" d="m191.7 346.3c0 0-0.1 2.6-0.5 5.4-0.4 2.5-1.2 5.6-1.8 5.5-1-0.1 0-2.6 0.2-5.1 0.1-2.3-0.3-1.9-0.3-1.9 0 0 0.2-0.1-0.5 2.4-0.8 2.7-1.7 5.5-2.2 5.4-0.6 0-0.7-0.1-0.6-1.1-0.2 0.5-0.4 0.6-0.6 0.5-1.3-0.3-0.8-4.3-0.6-6-0.2 1.3-0.4 2.2-1.1 1.5-0.8-0.8 0.2-6.5 0.3-8.6 0.1-2.3 7.7 2 7.7 2z"/>
					<path id="Path 2523" class="s4" d="m192.2 325.3l-0.1 18.7c0 0-3.7-0.2-8.9-2.1l-0.3-26.4c0 0 9.3 9.8 9.3 9.8z"/>
				</g>
				<g id="Group 627">
					<g id="Group 623">
						<path id="Path 2524" class="s28" d="m162.3 316.7l-13 29.3-0.4 0.7c-0.7 0.1-1.2 0-1.4-0.1l0.3-0.7 12.8-29-18.7-20.1-2.8-0.6 0.3-1.4 3.2 0.7c0 0 19.7 21.2 19.7 21.2z"/>
						<path id="Path 2525" class="s28" d="m142.3 351.6h12c0 0 0-0.3-0.1-0.7-0.4-1.4-1.7-4.5-6.4-4.5-4.7 0-5.4 3.1-5.5 4.5-0.1 0.4 0 0.7 0 0.7z"/>
						<path id="Path 2526" class="s0" d="m130 290.3l0.8 2.3 4.9 13.9c2-0.7 3.6-2 4.6-3.7 1.3-2.1 1.6-4.8 0.7-7.2-1.6-4.5-6.5-6.9-11-5.3z"/>
						<path id="Path 2527" class="s36" d="m149.6 346v0.6q-0.4 0.1-0.7 0.1c-0.7 0.1-1.2 0-1.4-0.1q-0.1 0-0.1 0v-0.7h0.4l1.5 0.1c0 0 0.3 0 0.3 0z"/>
						<path id="Path 2528" class="s37" d="m142.3 351.6h12c0 0 0-0.3-0.1-0.7h-11.9c-0.1 0.4 0 0.7 0 0.7z"/>
						<path id="Path 2529" class="s28" d="m130 290.3l0.8 2.3c2.9 2.3 7.4 6.2 9.5 10.2 1.3-2.1 1.6-4.8 0.7-7.3-1.6-4.4-6.5-6.8-11-5.2z"/>
					</g>
					<path id="Path 2530" class="s7" d="m89.4 315c0 0 2.1-2.7 2.4-3.1 0.4-0.3 1.7-0.7 3.2-1 1.5-0.3 3.7 0.1 3.8 0.3 0.2 0.2 0.5 0.3 0.5 1.1 0.1 0.7-0.2 1.4-0.2 1.4 0 0 0.5 0.8 0 1.6 0 0 0.4 0.9-0.2 1.7 0 0 0.4 0.8-0.1 1.4 0 0-1.3 0.4-1.8 0.7-0.4 0.3-3.2 0.8-5.9 0.9 0 0-2.5-0.8-1.7-5z"/>
					<path id="Path 2531" class="s4" d="m28.9 396.8l-11.9 49.8h-2.6l10.1-49.9z"/>
					<path id="Path 2532" class="s4" d="m42 396.8l-12 49.8h-2.6l10.1-49.9z"/>
					<path id="Path 2533" class="s4" d="m63 396.8l12 49.8h2.6l-10.1-49.9z"/>
					<path id="Path 2534" class="s29" d="m74.3 397.3h-51.4c0 0-3.6-0.1-6-10.7-2.7-12-8.2-51.9-8.2-51.9 0 0 1.5-3.7 24.1-3.2l40.5 52.6c0 0 1.4 8.3 1 13.2z"/>
					<path id="Path 2535" class="s7" d="m75.9 347.5c0 0 2.6-1.2 4.6-0.7 2 0.5 6.6 2.2 8.9 2.5 2.2 0.3 4.4 1.6 4.4 2.3-0.1 0.8-17.6 1.4-17.7-0.3-0.1-1.7-0.2-3.8-0.2-3.8z"/>
					<path id="Path 2536" class="s7" d="m89.4 315c0 0-3.4 2.2-3.5 2.9-0.1 1.2 0.6 4.7 0.7 4.7 0.1-0.1 5.1-2.6 5.1-2.6z"/>
					<path id="Path 2537" class="s38" d="m89.3 438.1c0 0 4.4 2.6 6.4 3.6 2 1 9.8 1.3 10.6 2 0.7 0.8 0.5 3.1-0.8 3.3-1.3 0.2-10.8 1.1-13.9 0.3-3.2-0.7-9.1 0.5-10.4 0.1-1.3-0.5-0.4-7.5 0.1-9.1 0.5-1.6 8-0.2 8-0.2z"/>
					<path id="Path 2538" class="s39" d="m89.3 435.1v3c0 0-5.9 1.1-8 0.2l0.2-3.3c0 0 7.8 0.1 7.8 0.1z"/>
					<path id="Path 2539" class="s3" d="m99.7 438.1c0 0 4.4 2.6 6.4 3.6 2 1 9.7 1.3 10.5 2 0.8 0.8 0.5 3.1-0.8 3.3-1.3 0.2-10.7 1.1-13.9 0.3-3.1-0.7-9 0.5-10.3 0.1-1.3-0.5-0.5-7.5 0-9.1 0.5-1.6 8.1-0.2 8.1-0.2z"/>
					<path id="Path 2540" class="s39" d="m99.6 435.1l0.1 3c0 0-5.9 1.1-8.1 0.2l0.2-3.3c0 0 7.8 0.1 7.8 0.1z"/>
					<path id="Path 2541" class="s40" d="m64.9 365.8l-6.7-1.1 4.5-11.3z"/>
					<path id="Path 2542" class="s4" d="m44.8 368.2c0 0 33.7 7.1 39 9.4 5.2 2.2 8.4 3.1 8.8 4.2 0.4 1.1 8.6 54.6 8.6 54.6h-11.2c0 0-8.7-40.4-9.7-42.9-1.1-2.5-42.8-2.6-45.8-5.6-3-3-5.6-11.3-2.4-18.8 3.3-7.4 12.7-0.9 12.7-0.9z"/>
					<path id="Path 2543" class="s4" d="m61.9 364.4c0 0 38.6 10.9 41.8 15.8 3.2 5.1-12.9 56.2-12.9 56.2h-11c0 0 10.6-47.9 9.3-50-1.3-2.1-59.6 0-48.7-17.3 10.8-17.2 21.5-4.7 21.5-4.7z"/>
					<path id="Path 2544" class="s3" d="m57.9 310.7c1.4-0.8 6.3 0.9 7.7 3.1 3.3 5.2 9.6 11.6 9.6 11.6l14.1-11.8 2.8 7-16.7 14.1c-1.4 1.2-3.5 1.1-4.8-0.2-4.4-4.2-13.4-13.2-14.1-15.4-0.9-3-1.4-7 1.4-8.4z"/>
					<path id="Path 2545" class="s18" d="m53.1 280.6c0 0 6.7 1.1 6.8 12.5 0 11.4-4.3 12.5-10.8 10.8-3.9-1-7.6-6.6-6.2-16.4 1.5-9.8 10.2-6.9 10.2-6.9z"/>
					<path id="Path 2546" class="s35" d="m54 307.8c0 0 9.2 3.3 10.6 5.4 1.4 2.1 0.5 21.1-0.3 27.9-0.8 6.7-3 21.3-2.4 23.3l-21.5 4.7c0 0-6.9-25.1-7.1-29.1-0.2-4-5.3-22.7-2.9-24.2 2.5-1.5 13.1-7.4 13.1-7.4 0 0 10.5-0.6 10.5-0.6z"/>
					<path id="Path 2547" class="s41" d="m40.4 369.1l-1.1-3.8 22.6-4.4v3.5z"/>
					<path id="Path 2548" class="s42" d="m51.6 362.7l5.4-1.2v4.3l-5.4 1.2z"/>
					<path id="Path 2549" class="s3" d="m49.2 351.6q-0.1 1.7-0.2 3.4c-0.8 12.5-1.9 25.5-1.9 25.5-1.6 1.4-21.5-3.3-21.5-3.3 0 0 2.5-3.3 4.8-12.5 2.4-9.2 0.5-18.1-1.9-33.1-2.5-15-0.4-14.9-0.4-14.9l15.4-8.3c1 3.8 5 17.7 6 25.7 0.4 2.9 0.1 9.8-0.3 17.5z"/>
					<path id="Path 2550" class="s3" d="m54.1 307.8c0 0 4.5 11.6 6.4 23.4 2 12 1.9 33.8 4 34.4 2.1 0.5 1.4 0.1 1.4 0.1 0 0-0.4-13.1-0.6-17.5-0.4-9.7 1.4-31.7 0.6-33.9-0.9-2.2-6.9-5.6-11.8-6.5z"/>
					<path id="Path 2551" class="s18" d="m53.8 306c0 0.7 0 1.3 0.2 1.8 0 0-1.2 4.6-10.5 0.6 0 0 1.8-6.9 0-12.7l10.5 6.6c0 0-0.1 1-0.2 2.2 0 0.5 0 1 0 1.5z"/>
					<path id="Path 2552" class="s43" d="m43.8 306.5c0 0 3.7 1.8 7.4 2.2l-1.8 3.8-5.9-4.1z"/>
					<path id="Path 2553" class="s43" d="m51.2 308.7c0 0 2.6-0.9 2.6-2.2l0.3 1.3-1 4.1c0 0-1.9-3.2-1.9-3.2z"/>
					<path id="Path 2554" class="s44" d="m59.1 287.2c0 0 1.8-4 0.5-7-1.4-2.9-4.9-1.7-6.5-1.4-1.7 0.4-4.7-3.2-10.2 1.2-5.4 4.4-3.8 9-1.4 14.4 2.4 5.5 2.7 5.9 2.7 5.9 0 0 0-5.5 0.7-6.5 0.8-1.2 3.6-1.8 3.6-1.8 0 0-2.1-2.9 0-4 2.1-1.1 6.4 0.9 10.6-0.8z"/>
					<path id="Path 2555" class="s18" d="m45.7 290.9c-0.2-0.8-1.7-1.8-2.4-0.2-0.7 1.5 1.2 4.3 2.2 4.3 1 0 0.9-2.2 0.2-4.1z"/>
					<path id="Path 2556" class="s45" d="m51.2 308.7l1.4 2.3c0 0-0.7 0.7-2.7 0.4z"/>
					<path id="Path 2557" class="s4" d="m52.3 311.2c0 0 5.5 16.2 5.5 27.7 0.1 11.6-0.8 18.5-0.8 18.5l-1.2 2.2-1.8-2c0 0 1.2-33.5-3.7-46.2 0 0 1.8-0.8 2-0.2z"/>
					<path id="Path 2558" class="s3" d="m29.8 315.8c4-1.7 8.2 3.9 10.4 9.5 2.3 5.6 6.5 15.8 6.5 15.8l29.9 4.8 0.4 5.7h-34.8c0 0-13.3-23.8-14.2-26.7-0.9-3-1.1-7.9 1.8-9.1z"/>
					<path id="Rectangle 666" class="s4" d="m66.4 351.6h98.5v3.4h-98.5z"/>
					<path id="Rectangle 667" class="s4" d="m124.2 292.2h2.3v52.6h-2.3z"/>
					<path id="Path 2559" class="s29" d="m130 351.6h17.7v-1.1h-17.7q-1.4 0-2-0.6c-0.5-0.5-0.4-1.2-0.4-1.3v-22.9h-1.1v22.9c0 0.2 0 1.2 0.7 2q0.9 1 2.8 1z"/>
					<path id="Path 2560" class="s4" d="m124.5 351.6h-20v-0.1c0-1 0.8-1.8 1.8-1.8h18.2c0 0 0 1.9 0 1.9z"/>
					<g id="Group 624">
						<path id="Rectangle 668" class="s4" d="m154.7 355h2.8v92.2h-2.8z"/>
						<path id="Rectangle 669" class="s4" d="m73.9 355h2.8v92.2h-2.8z"/>
					</g>
					<path id="Path 2561" class="s38" d="m49.2 351.6q-0.1 1.7-0.2 3.4c0 0-3.9 0.5-7.1-1-3.3-1.4-5.6-12.7-5.7-13.3 0.3 0.7 5.5 10.9 6.8 10.9 0 0 6.2 0 6.2 0z"/>
					<path id="Path 2562" class="s10" d="m53.8 304.5c0 0.5 0 1 0 1.5-7.5 0.1-7.6-4.1-7.6-4.1 1.2 3 7.6 2.6 7.6 2.6z"/>
					<g id="Group 625">
						<path id="Rectangle 670" class="s46" d="m93.8 314.3l8.1-7.9 0.7 0.7-8.1 7.9z"/>
						<path id="Path 2563" class="s7" d="m101.9 306.5l1.5-0.8-0.8 1.5z"/>
					</g>
					<path id="Path 2564" class="s47" d="m98.4 311.2c0 0-3.8 0.9-3.8 1.6 0 0.7 0.4 0.9 0.4 0.9l-1.5 1.1c0 0-0.6 1.3 0.9 1.6 0 0-0.7 1.2 0.7 1.3 0 0-0.1 1 0.6 1.2 0.6 0.1 3.1-0.5 3.1-0.5 0 0 0.6-0.4 0.2-1.4 0 0 0.7-0.8 0.2-1.6 0 0 0.5-0.8 0-1.7 0 0 0.8-1.7-0.4-2.5 0 0-0.2 0-0.4 0z"/>
					<path id="Path 2565" class="s7" d="m92 311.9c0 0 2.5 0.8 3.7 1.9 0.2 0.3 0.4 0.6 0.3 1-0.1 0.4-0.7 0.7-1.9 0.4-1.1-0.3-2.7-0.1-2.7-0.1 0 0-1-0.7 0.6-3.2z"/>
					<path id="Path 2566" class="s48" d="m95.2 397.8c0 0-2.4-14.8-2.5-15.4-0.1-0.6-2.5-2.7-14-6.5 0 0 12.8 2.5 16.1 4.7 2.6 1.7 0.4 17.2 0.4 17.2z"/>
					<g id="Group 626">
						<path id="Path 2567" class="s49" d="m143.3 351.6c1.3-0.5 3.3-6.5 4.3-9.6 0.3-1.1 0.6-1.8 0.6-1.8h-11.6c1 7.1 3.4 11.4 3.4 11.4z"/>
						<path id="Path 2568" class="s28" d="m144.2 336.7c0-0.4 1.9-2.2 2.8-3.3 0.9-1.2-0.3-3.3-0.3-3.3-4.2 1.7-3.5 6.6-3.5 6.6 0 0 1 0.4 1 0z"/>
						<path id="Path 2569" class="s28" d="m141.9 336.9h0.5c0 0 0.3-8.4-2.7-9.6-3.1-1.1-3.1-3.4-3.1-3.4 0 0-0.9 3.1 0.6 4.8 1.5 1.6 3.2 3.5 2.9 5.1-0.3 1.6 1.8 3.1 1.8 3.1z"/>
						<path id="Path 2570" class="s4" d="m147.6 342c0.3-1.1 0.6-1.8 0.6-1.8h-11.6c1 7.1 3.4 11.4 3.4 11.4h0.8c-0.2-6.7 4.2-8.9 6.8-9.6z"/>
						<path id="Path 2571" class="s29" d="m148.1 336.7h-11.6l-0.6 3.5h12.7z"/>
					</g>
				</g>
			</g>
		</g>
	</g>
</svg>